<?xml version="1.0" standalone="no"?> <!DOCTYPE svg PUBLIC "-//W3C//DTD SVG 1.0//EN" "http://www.w3.org/TR/2001/REC-SVG-20010904/DTD/svg10.dtd" > <svg xmlns="http://www.w3.org/2000/svg" width="100%" height="100%">
<defs >
<font id="FontinSans-Italic" horiz-adv-x="859" ><font-face
    font-family="Fontin Sans Rg"
    units-per-em="2048"
    panose-1="2 0 0 0 0 0 0 0 0 0"
    ascent="1800"
    descent="-520"
    alphabetic="0" />
<missing-glyph horiz-adv-x="1024" />
<glyph unicode=" " glyph-name="space" horiz-adv-x="512" />
<glyph unicode="!" glyph-name="exclam" horiz-adv-x="550" d="M96 102Q96 153 133 190T223 227T312 190T350 102Q350 48 313 11T223 -27T133 10T96 102ZM197 381L350 1339L360 1524L594 1548L328 365L197 381Z" />
<glyph unicode="&quot;" glyph-name="quotedbl" horiz-adv-x="768" d="M215 872L264 1112L272 1341L463 1374L365 874L215 872ZM543 872L592 1112L600 1341L791 1374L692 874L543 872Z" />
<glyph unicode="#" glyph-name="numbersign" horiz-adv-x="1441" d="M20 377L47 508H358L473 889H178L203 1020H512L610 1348H766L668 1020H967L1065 1348H1223L1124 1020H1432L1391 889H1087L973 508H1278L1235 377H932L821 0H664L774 377H475L365 0H207L317
377H20ZM516 508H815L930 889H631L516 508Z" />
<glyph unicode="$" glyph-name="dollar" horiz-adv-x="925" d="M25 84L61 244Q96 202 173 170T328 129L420 602L346 659Q319 681 281 720T221 794T184 880T168 987Q168 1093 225 1179T373 1314T567 1370L602 1548H707L672 1368Q820 1351 926 1280L844 1120Q818
1150 762 1178T641 1214L557 778Q604 744 632 722T699 661T759 586T797 496T813 383Q813 214 694 100T401 -25L371 -193H266L299 -23Q248 -17 201 -4T124 23T70 52T36 75L25 84ZM356 1026Q356 972 384 930T467 844L537 1212Q459 1198 408 1147T356 1026ZM432 135Q509
155 566 213T623 344Q623 398 594 442T510 532L432 135Z" />
<glyph unicode="%" glyph-name="percent" horiz-adv-x="1634" d="M160 913T160 1038T252 1254T467 1346Q592 1346 686 1255T780 1038T686 822T467 731Q344 731 252 822ZM174 0L1376 1380L1501 1325L346 0H174ZM281 1042Q281 968 335 906T469 844Q555 844 607 905T659
1042Q659 1116 601 1171T469 1227Q393 1227 337 1172T281 1042ZM928 156T928 281T1020 497T1235 588Q1360 588 1454 497T1548 281T1454 65T1235 -27Q1113 -27 1021 64ZM1049 285Q1049 211 1104 149T1237 86Q1323 86 1375 147T1427 285Q1427 359 1369 414T1237 469Q1160
469 1105 415T1049 285Z" />
<glyph unicode="&amp;" glyph-name="ampersand" horiz-adv-x="1441" d="M125 436Q125 586 203 719T428 918Q354 1021 354 1151Q354 1255 421 1346T606 1491T862 1546Q938 1546 1019 1524T1143 1478L1186 1456L1124 1294Q1124 1298 1087 1321T983 1370T854 1395Q733
1395 641 1316T549 1130Q549 1081 570 1021T612 924L633 889L629 872Q492 814 407 697T322 449Q322 371 349 308T421 207T522 149T639 129Q723 129 803 167T944 270T1042 426T1079 616L1073 655Q1011 640 934 635T807 635L881 784Q980 790 1067 812T1214 867T1311
927T1376 983L1417 821Q1334 757 1255 717Q1260 670 1260 645Q1260 494 1208 366T1067 153T861 21T614 -27Q544 -27 476 -10T343 44T231 135T154 266T125 436Z" />
<glyph unicode="&apos;" glyph-name="quotesingle" horiz-adv-x="440" d="M215 872L264 1112L272 1341L463 1374L365 874L215 872Z" />
<glyph unicode="(" glyph-name="parenleft" horiz-adv-x="651" d="M98 162Q98 399 164 634T361 1071T664 1391L788 1348Q566 1171 419 831T272 166Q272 62 283 -35T310 -200T344 -323T379 -405T406 -438L274 -481Q98 -248 98 162Z" />
<glyph unicode=")" glyph-name="parenright" horiz-adv-x="630" d="M-174 -438Q48 -261 195 78T342 743Q342 847 332 944T305 1110T270 1233T236 1315T209 1348L340 1391Q516 1158 516 748Q516 511 450 276T253 -161T-49 -481L-174 -438Z" />
<glyph unicode="*" glyph-name="asterisk" horiz-adv-x="823" d="M45 1124L106 1251H338L193 1505L332 1516L449 1313L596 1569L674 1452L557 1251H852L791 1124H557L705 870L565 860L449 1061L301 807L223 924L338 1124H45Z" />
<glyph unicode="+" glyph-name="plus" horiz-adv-x="964" d="M115 442V594H408V901L559 860V594H864L823 442H559V143H408V442H115Z" />
<glyph unicode="," glyph-name="comma" horiz-adv-x="512" d="M-10 -213Q39 -171 91 -94T143 35Q143 52 141 63T129 85T100 102Q100 158 138 194T231 231Q276 231 306 196T336 106Q336 13 254 -96T47 -285L-10 -213Z" />
<glyph unicode="-" glyph-name="hyphen" horiz-adv-x="618" d="M80 430V582H594L553 430H80Z" />
<glyph unicode="." glyph-name="period" horiz-adv-x="485" d="M82 102Q82 153 119 190T209 227T298 190T336 102Q336 48 299 11T209 -27T119 10T82 102Z" />
<glyph unicode="/" glyph-name="slash" horiz-adv-x="729" d="M-8 -500L571 1346H729L143 -500H-8Z" />
<glyph unicode="0" glyph-name="zero" horiz-adv-x="962" d="M92 354Q92 519 126 670T225 941T389 1132T610 1204Q695 1204 759 1173T861 1087T916 965T934 819Q934 711 922 610T884 413T816 238T718 99T586 6T418 -27Q354 -27 298 -5T194 62T120 182T92 354ZM266
344Q266 233 311 169T438 104Q509 104 567 156T660 288T719 465T752 648T762 805Q762 858 755 902T730 985T679 1047T600 1069Q527 1069 467 1014T371 877T310 692T276 502T266 344Z" />
<glyph unicode="1" glyph-name="one" horiz-adv-x="757" d="M43 0L68 135H262L418 1001L209 936L184 1061L629 1206L434 135H670L627 0H43Z" />
<glyph unicode="2" glyph-name="two" horiz-adv-x="962" d="M59 0V92Q62 95 104 134L184 207L279 300Q338 360 385 413T486 535T574 662T633 785T657 901Q657 968 619 1013T504 1059Q457 1059 395 1042T293 1008L254 991L215 1139L224 1142Q234 1145 252 1151T293
1164T345 1178T403 1191T466 1200T528 1204Q670 1204 757 1126T844 911Q844 845 815 768T740 621T637 481T524 354L422 253Q375 209 346 184L317 160H772L723 0H59Z" />
<glyph unicode="3" glyph-name="three" horiz-adv-x="962" d="M27 -63Q58 -66 66 -66Q129 -66 198 -53T341 -10T472 65T567 179T604 334Q604 376 588 409T549 462T489 497T422 519T352 532L399 653Q662 773 662 922Q662 997 619 1031T512 1065Q458 1065 397 1046T302
1008L268 989L227 1133Q243 1141 272 1153T382 1184T535 1204Q615 1204 682 1178T793 1093T838 952Q838 853 766 763T567 633Q609 627 645 611T714 563T766 477T786 352Q786 249 745 158T634 1T477 -112T293 -183T104 -207Q69 -207 41 -203L27 -63Z" />
<glyph unicode="4" glyph-name="four" horiz-adv-x="962" d="M6 174V285L694 1208L840 1163L694 334H909L838 174H664L625 -51L618 -205H426L492 174H6ZM219 334H526L618 850L649 969L569 825L264 385L219 334Z" />
<glyph unicode="5" glyph-name="five" horiz-adv-x="962" d="M59 -66Q128 -66 195 -54T332 -11T454 66T540 189T573 362Q573 480 500 548T303 616L217 612L338 1178H891L823 1018H461L403 750H408Q574 738 667 638T760 389Q760 219 677 82T448 -131T125 -207Q92
-207 76 -205L59 -66Z" />
<glyph unicode="6" glyph-name="six" horiz-adv-x="962" d="M98 438Q98 564 128 696T219 949T359 1165T549 1317T778 1374T1018 1321L954 1178Q855 1223 768 1223Q689 1223 618 1188T492 1089T393 946T319 772Q333 782 357 797T451 837T586 862Q712 862 796 772T881
510Q881 279 752 126T412 -27Q332 -27 270 11T172 115T117 262T98 438ZM268 451Q268 119 453 119Q512 119 561 153T640 240T688 356T705 477Q705 597 651 658T512 719Q463 719 406 697T317 653L285 631Q268 527 268 451Z" />
<glyph unicode="7" glyph-name="seven" horiz-adv-x="962" d="M41 -197L766 1018H205L174 1178H997L1020 1130L199 -227L41 -197Z" />
<glyph unicode="8" glyph-name="eight" horiz-adv-x="962" d="M70 264Q70 325 89 380T136 475T212 561T300 636L403 709Q229 879 229 1028Q229 1135 283 1214T419 1330T594 1368Q735 1368 814 1293T893 1118Q893 1057 868 997T799 888T715 802T627 735Q823 550
823 379Q823 290 787 213T692 84T557 3T403 -27Q256 -27 163 55T70 264ZM233 305Q233 226 288 174T432 121Q528 121 591 188T655 332Q655 377 640 420T595 503T541 569T479 633Q429 598 393 568T316 495T255 404T233 305ZM397 1075Q397 1035 410 997T448 923T494
865T545 813Q731 944 731 1085Q731 1153 687 1199T567 1245Q487 1245 442 1192T397 1075Z" />
<glyph unicode="9" glyph-name="nine" horiz-adv-x="962" d="M-14 -178L49 -35Q139 -80 231 -80Q314 -80 386 -41T513 68T610 220T684 403Q679 399 670 393T633 372T574 344T502 323T418 313Q292 313 208 403T123 666Q123 897 252 1049T592 1202Q672 1202 733
1164T831 1060T886 913T905 737Q905 631 885 519T826 299T729 94T596 -75T425 -190T221 -233Q102 -233 -14 -178ZM299 698Q299 579 353 518T492 457Q541 457 598 479T687 523L719 545Q735 643 735 725Q735 1057 551 1057Q492 1057 443 1023T364 935T316 819T299
698Z" />
<glyph unicode=":" glyph-name="colon" horiz-adv-x="528" d="M82 102Q82 153 119 190T209 227T298 190T336 102Q336 48 299 11T209 -27T119 10T82 102ZM184 668Q184 719 221 756T311 793T400 756T438 668Q438 614 401 577T311 539T221 576T184 668Z" />
<glyph unicode=";" glyph-name="semicolon" horiz-adv-x="528" d="M-29 -193Q38 -151 97 -86T156 31Q156 70 109 98Q120 153 157 190T248 227Q296 227 329 196T362 117Q362 18 270 -92T16 -279L-29 -193ZM199 668Q199 719 236 756T326 793T415 756T453 668Q453
614 416 577T326 539T236 576T199 668Z" />
<glyph unicode="&lt;" glyph-name="less" horiz-adv-x="755" d="M80 506L582 979L664 846L307 504L664 166L582 33L80 506Z" />
<glyph unicode="=" glyph-name="equal" horiz-adv-x="983" d="M115 264V416H852L811 264H115ZM115 602V754H872L831 602H115Z" />
<glyph unicode="&gt;" glyph-name="greater" horiz-adv-x="755" d="M80 166L436 504L80 846L162 979L664 506L162 33L80 166Z" />
<glyph unicode="?" glyph-name="question" horiz-adv-x="841" d="M133 102Q133 153 170 190T260 227T349 190T387 102Q387 48 350 11T260 -27T170 10T133 102ZM184 420Q184 479 212 541T285 658T386 770L494 884Q549 940 594 995T668 1111T696 1231Q696 1296 642
1336T520 1376Q477 1376 423 1354T335 1311T299 1284L256 1454Q256 1460 301 1481T420 1522T553 1542Q618 1542 679 1522T788 1465T866 1371T895 1245Q895 1178 864 1107T783 973T672 846L552 722Q492 662 442 605T361 488T330 375Q330 348 334 336L186 399Q186
402 185 409T184 420Z" />
<glyph unicode="@" glyph-name="at" horiz-adv-x="1847" d="M90 340Q90 484 133 629T262 903T463 1131T732 1289T1057 1348Q1191 1348 1305 1310T1501 1205T1641 1052T1727 865T1755 662Q1755 515 1699 385T1549 163T1335 9T1085 -76Q1055 -51 1028 25T1006 139Q1005
139 989 123T945 84T883 38T803 -2T711 -18Q603 -18 537 68T471 295Q471 431 526 564T676 802T903 971T1182 1036Q1256 1036 1348 1006L1292 852Q1217 438 1200 331T1182 186Q1182 161 1189 128T1204 86Q1393 163 1496 311T1599 643Q1599 731 1578 813T1511 970T1400
1099T1240 1186T1032 1219Q926 1219 824 1184T638 1087T481 943T359 766T282 568T254 365Q254 274 270 194T327 35T430 -102T591 -205T815 -264L694 -395Q567 -372 464 -319T293 -194T178 -33T111 150T90 340ZM659 348Q659 261 699 204T809 147Q855 147 899 167T1004
240L1128 897Q1002 897 892 813T721 602T659 348Z" />
<glyph unicode="A" glyph-name="A" horiz-adv-x="1124" d="M-127 0L653 1350L782 1374L977 225L1034 0H827L770 352H260L59 0H-127ZM346 508H743L664 971L655 1063L610 971L346 508Z" />
<glyph unicode="B" glyph-name="B" horiz-adv-x="1097" d="M102 0L328 1159L336 1348L651 1360Q832 1367 922 1287T1012 1081Q1012 1022 990 968T932 873T860 804T788 754Q871 720 924 643T977 461Q977 252 822 126T391 0H102ZM315 147H444Q612 147 697 235T782
455Q782 547 717 600T510 653H414L315 147ZM442 803H543Q579 803 618 799T678 790L698 786Q752 840 791 917T831 1057Q831 1089 820 1117T786 1168T722 1204T627 1214L522 1208L442 803Z" />
<glyph unicode="C" glyph-name="C" horiz-adv-x="1239" d="M121 520Q121 759 212 953T473 1260T858 1374Q929 1374 996 1361T1109 1328T1190 1288T1243 1254L1260 1241L1147 1112L1133 1124Q1124 1131 1093 1150T1029 1183T945 1209T842 1221Q702 1221 580 1130T383
882T309 541Q309 461 332 389T398 257T514 162T676 127Q880 127 1075 328L1087 137Q977 50 867 12T631 -27Q404 -27 263 128T121 520Z" />
<glyph unicode="D" glyph-name="D" horiz-adv-x="1347" d="M102 0L328 1159L336 1348H840Q1029 1348 1149 1202T1270 825Q1270 695 1237 572T1141 346T990 165T786 44T539 0H102ZM315 147H565Q663 147 757 200T921 341T1034 551T1077 801Q1077 899 1043 988T938
1139T774 1200H518L315 147Z" />
<glyph unicode="E" glyph-name="E" horiz-adv-x="1017" d="M102 0L328 1159L336 1348H997L971 1200H520L434 762H850L780 614H406L317 147H813L741 0H102Z" />
<glyph unicode="F" glyph-name="F" horiz-adv-x="976" d="M102 0L328 1159L336 1348H997L971 1200H520L434 762H850L780 614H406L315 154L307 0H102Z" />
<glyph unicode="G" glyph-name="G" horiz-adv-x="1331" d="M121 520Q121 759 211 953T470 1260T854 1374Q926 1374 994 1360T1107 1326T1187 1287T1238 1253L1255 1239L1143 1110Q1138 1115 1129 1122T1089 1148T1025 1182T941 1209T838 1221Q698 1221 577 1130T384
882T311 541Q311 461 333 389T397 257T511 162T672 127Q747 127 889 170L956 514L946 666H1167L1051 41Q1040 40 879 7T627 -27Q477 -27 361 45T183 241T121 520Z" />
<glyph unicode="H" glyph-name="H" horiz-adv-x="1474" d="M102 0L328 1159L336 1348H547L436 778H1122L1198 1159L1206 1348H1417L1186 154L1178 0H973L1092 614H406L315 154L307 0H102Z" />
<glyph unicode="I" glyph-name="I" horiz-adv-x="604" d="M102 0L328 1159L336 1348H547L315 154L307 0H102Z" />
<glyph unicode="J" glyph-name="J" horiz-adv-x="649" d="M-281 -395L-236 -225Q-195 -238 -156 -238Q-53 -238 28 -147T137 78L348 1159L358 1348H569L322 78Q303 -19 263 -104T162 -259T16 -368T-172 -408Q-218 -408 -281 -395Z" />
<glyph unicode="K" glyph-name="K" horiz-adv-x="1144" d="M102 0L328 1159L338 1348H549L424 707L909 1214L995 1348H1270L621 698L1024 0H809L420 682L315 154L307 0H102Z" />
<glyph unicode="L" glyph-name="L" horiz-adv-x="872" d="M102 0L328 1159L336 1348H547L317 156H838L766 0H102Z" />
<glyph unicode="M" glyph-name="M" horiz-adv-x="1775" d="M102 0L328 1159L336 1348H457L881 475L1579 1348H1718L1487 154L1479 0H1274L1458 948L1358 805L823 152L494 805L453 940L299 154L291 0H102Z" />
<glyph unicode="N" glyph-name="N" horiz-adv-x="1503" d="M102 0L326 1159L307 1348H442L1036 494L1104 356L1257 1159L1266 1348H1462L1233 154L1217 0H1141L528 866L459 993L301 154L293 0H102Z" />
<glyph unicode="O" glyph-name="O" horiz-adv-x="1329" d="M98 498Q98 636 128 765T217 1005T358 1197T553 1325T793 1372Q898 1372 983 1337T1120 1246T1208 1120T1258 981T1272 848Q1272 660 1219 498T1074 220T851 39T569 -27Q456 -27 366 15T217 130T129 297T98
498ZM289 522Q289 346 374 233T596 119Q697 119 789 183T944 347T1044 569T1081 809T1046 1019T940 1167T772 1223Q710 1223 644 1195T515 1108T401 968T320 771T289 522Z" />
<glyph unicode="P" glyph-name="P" horiz-adv-x="1054" d="M84 0L309 1159L317 1348H688Q856 1348 955 1267T1055 1042Q1055 807 899 656T481 504H365L297 154L289 0H84ZM395 655H510Q677 655 767 756T858 1020Q858 1196 645 1196H502L395 655Z" />
<glyph unicode="Q" glyph-name="Q" horiz-adv-x="1366" d="M109 498Q109 636 138 765T227 1005T369 1197T563 1325T803 1372Q908 1372 993 1337T1130 1246T1218 1120T1268 981T1282 848Q1282 667 1233 510T1098 238T891 55T627 -25Q663 -43 730 -82L842 -146Q887
-172 954 -193T1083 -215Q1153 -215 1235 -189T1352 -125V-303Q1314 -340 1235 -360T1085 -381Q1033 -381 961 -356T841 -307T684 -222L535 -141L494 -20V-18Q371 1 283 76T152 260T109 498ZM301 522Q301 345 385 232T606 119Q707 119 799 183T955 347T1055 569T1092
809T1057 1019T950 1167T782 1223Q720 1223 654 1195T525 1108T412 968T332 771T301 522Z" />
<glyph unicode="R" glyph-name="R" horiz-adv-x="1114" d="M74 0L299 1159L307 1348H688Q843 1348 943 1255T1044 1004Q1044 834 945 707T680 539L1022 0H797L500 506L354 504L287 154L279 0H74ZM385 655H500Q665 655 756 748T848 995Q848 1098 797 1147T635 1196H492L385
655Z" />
<glyph unicode="S" glyph-name="S" horiz-adv-x="925" d="M25 63L61 219Q63 214 104 193T219 148T358 125Q401 125 445 138T530 175T595 244T621 344Q621 397 596 445T531 531T442 606L346 683Q298 723 258 765T193 865T168 987Q168 1098 232 1188T395 1325T604
1372Q686 1372 764 1357T880 1328L918 1313L836 1163Q822 1170 799 1180T711 1206T592 1223Q496 1223 429 1167T362 1026Q362 974 387 927T451 842T540 767L636 690Q684 650 723 607T788 504T813 377Q813 259 753 166T592 23T371 -27Q307 -27 248 -18T150 5T82
31T38 54L25 63Z" />
<glyph unicode="T" glyph-name="T" horiz-adv-x="1013" d="M113 1192L143 1348H1124L1094 1192H707L506 154L498 0H293L522 1192H113Z" />
<glyph unicode="U" glyph-name="U" horiz-adv-x="1357" d="M175 295T172 363T175 491T193 621L291 1159L301 1348H514L379 614Q370 563 365 526Q360 485 359 433T363 340T388 256T436 186T514 141T627 123Q772 123 875 237T1012 516L1137 1159L1147 1348H1339L1182
539Q1150 372 1077 248Q1004 123 885 48T614 -27Q517 -27 442 -7T318 49T237 135T190 240Z" />
<glyph unicode="V" glyph-name="V" horiz-adv-x="1191" d="M133 1348H365L510 446L520 274L606 446L1122 1348H1313L516 -27L397 0L207 1122L133 1348Z" />
<glyph unicode="W" glyph-name="W" horiz-adv-x="1806" d="M139 1348H371L516 446L526 274L612 446L915 975L891 1122L817 1348H1049L1194 446L1204 274L1290 446L1755 1348H1946L1204 -27L1081 0L954 737L512 -27L403 0L213 1122L139 1348Z" />
<glyph unicode="X" glyph-name="X" horiz-adv-x="1036" d="M-61 0L465 692L281 1202L180 1348H426L584 918L606 848L653 922L969 1346H1169L666 680L918 0H713L547 459L524 532L471 449L137 0H-61Z" />
<glyph unicode="Y" glyph-name="Y" horiz-adv-x="1040" d="M137 1348H360L528 842L543 760L598 846L958 1348H1153L602 608L514 154L506 0H301L416 594L217 1202L137 1348Z" />
<glyph unicode="Z" glyph-name="Z" horiz-adv-x="1114" d="M-51 0V51L784 1079L891 1190H197L270 1348H1196V1296L358 266L254 156H1020L991 0H-51Z" />
<glyph unicode="[" glyph-name="bracketleft" horiz-adv-x="589" d="M47 -141L362 1483H692L668 1356H502L236 -12H401L375 -141H47Z" />
<glyph unicode="\" glyph-name="backslash" horiz-adv-x="729" d="M10 1346H166L729 -500H590L10 1346Z" />
<glyph unicode="]" glyph-name="bracketright" horiz-adv-x="569" d="M-41 -141L-14 -12H150L416 1356H250L274 1483H604L287 -141H-41Z" />
<glyph unicode="^" glyph-name="asciicircum" horiz-adv-x="1277" d="M145 655L580 1450H694Q1099 704 1128 655H985L637 1284L289 655H145Z" />
<glyph unicode="_" glyph-name="underscore" horiz-adv-x="921" d="M-119 -154H856L795 -276H-119V-154Z" />
<glyph unicode="`" glyph-name="grave" horiz-adv-x="692" d="M88 1483H313L541 1190L424 1149L88 1483Z" />
<glyph unicode="a" glyph-name="a" horiz-adv-x="1038" d="M78 299Q78 409 102 516T174 716T286 880T434 993T612 1034Q697 1034 817 1022T954 1008L821 315Q798 207 809 136T879 0L696 -27Q631 24 631 127L635 170Q629 162 618 149T573 101T503 42T417 -5T317
-27Q217 -27 148 59T78 299ZM258 330Q258 282 268 239T307 161T377 127Q404 127 442 148T515 198T581 258L632 309L651 330L760 893Q658 909 627 909Q540 909 455 831T314 616T258 330Z" />
<glyph unicode="b" glyph-name="b" horiz-adv-x="1067" d="M111 88L350 1337L356 1526L563 1548L424 852L441 872Q452 884 487 915T560 971T650 1014T756 1034Q855 1034 921 949T987 709Q987 601 967 496T902 296T797 130T647 16T455 -27Q376 -27 312 -7T183 49T111
88ZM295 156Q303 150 317 142T376 120T467 106Q562 106 642 193T764 411T807 680Q807 780 769 830T678 881Q645 881 603 860T526 810T460 750T411 699L393 678L295 156Z" />
<glyph unicode="c" glyph-name="c" horiz-adv-x="911" d="M78 395Q78 544 119 667T232 870T397 994T596 1038Q657 1038 729 1026T843 1001L885 989L819 842Q818 845 782 858T692 884T598 897Q519 897 453 855T346 745T281 599T258 442Q258 378 271 323T312 223T388
151T502 125Q551 125 600 141T684 182T747 230T789 270L803 287V109Q798 103 790 94T750 62T683 20T591 -12T473 -27Q374 -27 297 7T173 100T102 234T78 395Z" />
<glyph unicode="d" glyph-name="d" horiz-adv-x="1062" d="M82 305Q82 416 104 521T173 720T285 883T442 993T641 1034Q666 1034 710 1031T786 1025L817 1022L885 1337V1526L1092 1548L852 315Q827 208 837 136T905 0L723 -27Q657 25 657 127L664 176L644 154Q632
140 594 105T518 44T426 -5T324 -27Q224 -27 153 62T82 305ZM262 334Q262 234 299 180T387 125Q419 125 460 147T539 200T608 262L661 315Q681 336 682 336L791 895Q695 907 627 907Q569 907 517 879T425 805T355 699T303 576T273 449T262 334Z" />
<glyph unicode="e" glyph-name="e" horiz-adv-x="919" d="M90 395Q90 563 152 709T333 946T600 1038Q730 1038 798 977T866 815Q866 718 815 642T677 520T488 451T270 428V408Q270 288 329 210T508 131Q555 131 604 147T689 186T754 232T800 271L815 287V109Q811
103 803 94T763 62T695 20T596 -12T465 -27Q344 -27 257 32T130 185T90 395ZM283 547Q299 548 321 550T384 559T461 576T539 606T611 650T660 712T680 795Q680 839 656 872T573 905Q498 905 436 853T337 722T283 547Z" />
<glyph unicode="f" glyph-name="f" horiz-adv-x="618" d="M-193 -354Q-73 -354 3 -269T104 -23L238 868H109L131 1008H258L281 1157Q298 1267 334 1343Q370 1421 420 1463T525 1525T643 1544Q760 1544 866 1475L774 1333Q717 1382 637 1382Q573 1382 523 1333T459
1194L430 1008H717L633 868H410L276 -23Q244 -237 134 -366Q23 -495 -145 -496L-193 -354Z" />
<glyph unicode="g" glyph-name="g" horiz-adv-x="1003" d="M-90 -281L43 -195Q47 -202 55 -213T91 -254T153 -307T242 -348T358 -367Q471 -367 549 -299T627 -119Q627 -92 619 8T616 158Q607 141 583 114T521 53T427 -3T313 -27Q216 -27 154 60T92 305Q92 417
112 521T177 720T284 883T439 993T641 1034Q715 1034 788 1028T899 1014L936 1008L807 348Q788 246 788 150Q788 75 792 -25T797 -137Q797 -245 732 -328T564 -455T342 -498Q250 -498 172 -476T47 -422T-32 -358T-78 -304L-90 -281ZM272 334Q272 233 306 183T391
133Q430 133 490 180T591 273T633 326L743 897L726 900Q708 903 679 906T623 909Q532 909 450 822T320 602T272 334Z" />
<glyph unicode="h" glyph-name="h" horiz-adv-x="1099" d="M86 0L344 1327L350 1524L559 1546L434 932L403 831Q411 839 426 853T488 902T578 965T684 1014T797 1036Q862 1036 906 1012T969 946T994 849T985 733L872 150L862 0H672L797 666Q835 868 729 868Q690
868 640 849T547 801T467 745T408 698L387 678L287 154L274 0H86Z" />
<glyph unicode="i" glyph-name="i" horiz-adv-x="534" d="M86 0L246 819L256 1008L459 1030L287 154L279 0H86ZM289 1313Q289 1356 320 1387T395 1419Q436 1419 468 1388T500 1313T468 1236T395 1202Q352 1202 321 1235T289 1313Z" />
<glyph unicode="j" glyph-name="j" horiz-adv-x="542" d="M-215 -344Q23 -344 86 -23L250 819Q258 951 260 1008L463 1030L258 -23Q215 -242 107 -369Q-2 -497 -172 -498L-215 -344ZM305 1270T305 1313T336 1387T412 1419Q453 1419 484 1388T516 1313T485 1236T412
1202Q368 1202 337 1236Z" />
<glyph unicode="k" glyph-name="k" horiz-adv-x="983" d="M82 0L342 1335V1524L555 1546L369 598L623 743Q745 814 745 864Q745 881 730 897T699 922L684 930L840 1030Q844 1028 850 1025T872 1008T901 980T924 938T934 883Q934 809 894 756Q854 702 762 655L559
551L924 23L735 -20L360 553L285 154L274 0H82Z" />
<glyph unicode="l" glyph-name="l" horiz-adv-x="520" d="M82 0L342 1335L352 1524L555 1546L283 154L272 0H82Z" />
<glyph unicode="m" glyph-name="m" horiz-adv-x="1697" d="M86 0L246 819L231 987L434 1030L410 831L433 853Q448 867 492 902T581 965T685 1014T797 1036Q897 1036 944 980T993 827L1013 847L1044 876Q1056 888 1082 909T1130 946T1184 980T1247 1009T1316 1028T1391
1036Q1455 1036 1499 1012T1562 946T1586 849Q1591 795 1579 733L1466 150L1456 0H1266L1391 666Q1429 868 1323 868Q1299 868 1274 863T1224 847T1176 825T1129 796L1087 767Q1069 754 1048 736L1016 710L990 686Q975 672 973 670L872 150L862 0H672L797 666Q835
868 729 868Q690 868 640 849T547 801T467 745T408 698L387 678L287 154L274 0H86Z" />
<glyph unicode="n" glyph-name="n" horiz-adv-x="1107" d="M86 0L246 819L231 987L434 1030L403 831Q411 839 426 853T488 902T578 965T684 1014T797 1036Q861 1036 905 1012T968 946T992 849Q997 795 985 733L872 150L862 0H672L797 666Q835 868 729 868Q690
868 640 849T547 801T467 745T408 698L387 678L287 154L274 0H86Z" />
<glyph unicode="o" glyph-name="o" horiz-adv-x="1030" d="M78 369Q78 563 141 713T329 951T621 1038Q761 1038 854 930T948 639Q948 507 913 388T813 176T643 28T410 -27Q334 -27 275 -1T179 67T120 163T87 268T78 369ZM258 406Q258 273 306 192T451 111Q504
111 558 143T660 235T738 393T768 610Q768 732 713 817T569 903Q505 903 446 857T347 739T282 579T258 406Z" />
<glyph unicode="p" glyph-name="p" horiz-adv-x="1069" d="M-8 -492L248 819L233 987L436 1030L410 834L430 856Q442 869 481 903T558 964T652 1012T756 1034Q851 1034 916 950T981 709Q981 598 961 493T897 293T791 127T640 15T446 -27Q413 -27 368 -19T292 -2T260
10L193 -338L182 -492H-8ZM287 145Q356 113 446 113Q550 113 633 196T758 408T801 680Q801 776 766 823T680 870Q651 870 611 850T533 800T463 742T409 692L389 672L287 145Z" />
<glyph unicode="q" glyph-name="q" horiz-adv-x="1071" d="M94 305Q94 446 129 574T232 806T409 972T655 1034Q712 1034 838 1022T997 1008L745 -289L735 -492H535L662 158Q581 72 515 30Q424 -27 338 -27Q238 -27 166 62T94 305ZM274 334Q274 234 312 181T403
127Q435 127 476 148T555 201T625 262T677 314L696 336L805 893Q804 893 790 894T752 897T703 901T646 904T592 905Q513 905 438 820T319 601T274 334Z" />
<glyph unicode="r" glyph-name="r" horiz-adv-x="800" d="M86 0L246 819L231 989L434 1030L393 776Q454 873 497 920Q606 1038 727 1038Q756 1038 792 1029T850 1010L872 1001L788 834Q713 858 672 858Q607 858 534 783T410 612T344 438L289 154L279 0H86Z" />
<glyph unicode="s" glyph-name="s" horiz-adv-x="808" d="M61 61V233L77 220Q87 212 118 192T180 157T254 128T336 115Q379 115 420 128T492 174T524 256Q524 295 503 327T449 384T375 432T294 484T221 547T166 632T145 745Q145 832 199 900T335 1003T508 1038Q569
1038 636 1026T740 1001L776 989L711 842Q700 849 680 859T600 887T485 905Q424 905 370 870T315 774Q315 733 336 699T390 638T464 587T546 534T620 471T675 387T696 276Q696 203 665 144T583 49T470 -7T342 -27Q293 -27 247 -18T168 4T110 30T73 52L61 61Z" />
<glyph unicode="t" glyph-name="t" horiz-adv-x="763" d="M133 195Q133 231 256 868H133L162 1008H285Q290 1038 302 1100T319 1192L516 1214L457 1008H770L680 868H428Q309 252 309 225Q309 137 399 137Q451 137 518 171T641 252V78Q491 -27 348 -27Q255 -27
194 28T133 195Z" />
<glyph unicode="u" glyph-name="u" horiz-adv-x="1118" d="M120 158Q115 212 127 274L240 858L250 1008H440L315 342Q277 139 383 139Q422 139 472 158T565 206T645 263T704 310L725 330L825 854L838 1008H1026L893 315Q869 208 878 136T946 0L764 -27Q698 25
698 127L705 178L682 156Q667 142 622 106T533 43T428 -6T315 -29Q251 -29 207 -5T144 61T120 158Z" />
<glyph unicode="v" glyph-name="v" horiz-adv-x="919" d="M100 1008L301 1034L403 352L410 203L485 352L692 690Q745 780 745 854Q745 889 735 927T713 987L702 1008L889 1034Q924 952 924 895Q924 777 829 625L422 -27L276 0L158 838L100 1008Z" />
<glyph unicode="w" glyph-name="w" horiz-adv-x="1515" d="M100 1008L301 1034L403 352L410 203L485 352L723 748Q750 794 750 842Q750 882 735 923T704 986L688 1008L870 1034Q908 981 920 901L1004 352L1010 203L1085 352L1313 733Q1342 783 1345 834T1333 927T1286
1008L1468 1034Q1474 1026 1482 1012T1505 953T1520 864Q1520 782 1473 705L1022 -27L877 0L795 575L422 -27L276 0L158 838L100 1008Z" />
<glyph unicode="x" glyph-name="x" horiz-adv-x="960" d="M-49 0L385 512L229 862L131 1008L334 1034L487 682L506 633L526 666L680 831Q717 872 717 932Q717 970 696 1008L879 1034Q893 999 893 956Q893 851 801 752L569 506L797 0H606L463 326L446 373L412 326L141
0H-49Z" />
<glyph unicode="y" glyph-name="y" horiz-adv-x="921" d="M-217 -475L-213 -311Q-159 -332 -113 -332Q54 -332 195 -125L285 8L268 51L158 838L100 1008L301 1034L403 328L406 180L473 322L692 688Q788 849 702 1008L889 1034Q914 979 920 925T914 818T880 718T823
614L324 -193Q234 -338 114 -418T-115 -498Q-163 -498 -217 -475Z" />
<glyph unicode="z" glyph-name="z" horiz-adv-x="956" d="M-4 0V39L578 784L657 868H141L209 1008H932V969L352 223L272 139H881L854 0H-4Z" />
<glyph unicode="{" glyph-name="braceleft" horiz-adv-x="616" d="M82 559L102 666Q144 666 178 680T232 714T266 758T285 799T293 829L373 1241Q402 1391 509 1468T762 1546L737 1419Q573 1419 537 1235L459 831Q447 772 413 717T350 637L322 612Q353 581 365
537T376 456T365 367L281 -184Q266 -265 297 -316T412 -369L387 -496Q244 -493 167 -413T117 -190L207 371Q222 450 194 502T82 559Z" />
<glyph unicode="|" glyph-name="bar" horiz-adv-x="464" d="M160 -520V1548H305V-520H160Z" />
<glyph unicode="}" glyph-name="braceright" horiz-adv-x="616" d="M-125 -496L-100 -369Q62 -369 98 -184L211 393Q223 452 257 507T320 587L348 612L340 622Q336 629 323 651T304 696T293 757T297 831L375 1235Q410 1419 244 1419L268 1546Q414 1546 489 1469T535
1241L455 829Q452 816 452 800T456 759T474 715T516 681T588 666L567 559Q525 559 491 545T437 511T403 466T383 425T375 395L262 -190Q233 -340 126 -418T-125 -496Z" />
<glyph unicode="~" glyph-name="asciitilde" horiz-adv-x="1183" d="M100 592Q229 705 375 705Q443 705 505 685T607 639T703 594T815 573Q912 573 1022 672L1083 551Q959 424 803 424Q736 424 671 444T564 489T466 534T360 555Q261 555 160 467L100 592Z" />
<glyph unicode="&#xa1;" glyph-name="exclamdown" horiz-adv-x="540" d="M33 -209L299 975L430 958L276 0L266 -184L33 -209ZM276 1237Q276 1291 313 1328T403 1366T493 1329T530 1237Q530 1186 493 1149T403 1112T314 1149T276 1237Z" />
<glyph unicode="&#xa2;" glyph-name="cent" horiz-adv-x="944" d="M90 395Q90 544 131 667T244 870T409 994T608 1038H610L647 1229H750L711 1030Q755 1024 801 1014T872 996L897 989L831 842Q758 873 684 889L537 125Q583 129 628 147T706 188T764 233T802 272L815
287V109Q811 104 803 95T765 64T702 24T616 -9T506 -27L469 -223H367L406 -20Q301 -3 229 58T123 204T90 395ZM270 442Q270 330 310 247T436 135L582 895Q487 886 414 813T305 641T270 442Z" />
<glyph unicode="&#xa3;" glyph-name="sterling" horiz-adv-x="1124" d="M-86 -209Q-85 -209 -62 -172T-3 -66T73 87T149 279T207 487L221 559H96L123 698H248L334 1137Q350 1218 392 1287T489 1403T607 1482T729 1529T838 1544Q909 1544 972 1531T1074 1498T1141
1459T1182 1426L1194 1413L1100 1278L1086 1291Q1078 1299 1050 1319T993 1354T918 1382T829 1395Q708 1395 622 1324T516 1153L426 698H850L762 559H399L383 469Q356 331 306 200Q257 71 220 6L184 -57H997L932 -209H-86Z" />
<glyph unicode="&#xa5;" glyph-name="yen" horiz-adv-x="1040" d="M94 281L121 412H379L412 582H154L180 713H379L217 1202L137 1348H360L528 842L543 760L598 846L967 1348H1153L674 713H899L842 582H596L563 412H840L782 281H539L514 154L506 0H301L354 281H94Z" />
<glyph unicode="&#xa7;" glyph-name="section" horiz-adv-x="860" d="M-35 -184L-8 -43Q36 -109 101 -156T233 -213V1247Q233 1335 287 1400T423 1497T596 1528Q655 1528 711 1514T807 1478T878 1436T925 1400L940 1386L913 1237Q869 1297 804 1337T670 1386V-39Q670
-115 640 -176T558 -275T443 -333T307 -354Q245 -354 187 -337T90 -294T22 -244T-22 -202L-35 -184ZM369 -215Q467 -196 501 -135T535 55V1389Q449 1377 409 1324T369 1163V-215Z" />
<glyph unicode="&#xa8;" glyph-name="dieresis" horiz-adv-x="786" d="M106 1292Q106 1338 137 1371T209 1405T280 1372T311 1292Q311 1245 281 1213T209 1180T137 1212T106 1292ZM483 1292Q483 1338 514 1371T586 1405T657 1372T688 1292Q688 1245 658 1213T586
1180T514 1212T483 1292Z" />
<glyph unicode="&#xa9;" glyph-name="copyright" horiz-adv-x="1617" d="M113 639Q113 960 319 1160T860 1360Q1045 1360 1193 1273T1423 1035T1505 698Q1505 486 1415 321T1159 65T776 -27Q585 -27 433 60T197 300T113 639ZM244 664Q244 415 409 249T821 82Q933
82 1035 126T1212 248T1333 436T1378 672Q1378 927 1221 1091T817 1255Q701 1255 596 1211T413 1089T290 901T244 664ZM477 657Q477 737 499 808T564 935T674 1024T825 1057Q983 1057 1073 950L997 844Q933 934 821 934Q731 934 680 861T629 680Q629 611 649 554T717
457T831 418Q883 418 937 445T1020 500L1049 528L1073 393Q1069 389 1061 382T1024 357T965 325T883 300T780 289Q686 289 615 344T511 481T477 657Z" />
<glyph unicode="&#xaa;" glyph-name="ordfeminine" horiz-adv-x="829" d="M143 819Q143 957 194 1082T342 1289T557 1370Q612 1370 679 1365T787 1354L827 1348Q711 741 711 729Q711 649 770 596L614 573Q588 594 574 626T559 688Q451 575 334 575Q254 575 199
639T143 819ZM309 836Q309 803 314 773T336 719T377 694Q406 694 436 707T490 739T533 777T562 810L573 823L655 1262Q651 1262 615 1267T569 1272Q470 1272 390 1142T309 836Z" />
<glyph unicode="&#xab;" glyph-name="guillemotleft" horiz-adv-x="1265" d="M82 506L670 975L725 844L303 504L592 168L487 37L82 506ZM551 506L1139 975L1194 844L772 504L1061 168L956 37L551 506Z" />
<glyph unicode="&#xae;" glyph-name="registered" horiz-adv-x="1617" d="M113 639Q113 960 319 1160T860 1360Q1045 1360 1193 1273T1423 1035T1505 698Q1505 486 1415 321T1159 65T776 -27Q585 -27 433 60T197 300T113 639ZM244 664Q244 415 409 249T821 82Q933
82 1035 126T1212 248T1333 436T1378 672Q1378 927 1221 1091T817 1255Q701 1255 596 1211T413 1089T290 901T244 664ZM594 1040H815Q919 1040 992 982T1065 819Q1065 755 1030 700T928 614L1155 319H991L805 584H748V406Q748 390 758 319H606V932L594 1040ZM748
666H797Q845 666 884 713T924 819T885 915T797 954H748V666Z" />
<glyph unicode="&#xaf;" glyph-name="overscore" horiz-adv-x="686" d="M94 1210L109 1362H614L559 1210H94Z" />
<glyph unicode="&#xb0;" glyph-name="degree" horiz-adv-x="817" d="M150 1180Q150 1319 253 1420T494 1522Q633 1522 737 1421T842 1180T738 938T494 836Q358 836 254 938T150 1180ZM285 1184Q285 1100 346 1032T496 963Q592 963 649 1030T707 1184Q707 1266
642 1327T496 1389Q410 1389 348 1328T285 1184Z" />
<glyph unicode="&#xb1;" glyph-name="plusminus" horiz-adv-x="964" d="M119 586V737H412V1042L555 1004V737H860L819 586H555V287H412V586H119ZM178 0V141H813L772 0H178Z" />
<glyph unicode="&#xb2;" glyph-name="uni00B2" horiz-adv-x="714" d="M113 586V645L139 670L187 715Q202 729 246 773T318 848T383 926T444 1012T483 1093T500 1171Q500 1213 480 1240T420 1268Q396 1268 365 1261T312 1247T266 1231T240 1221L213 1323Q334 1370
436 1370Q533 1370 595 1321T657 1182Q657 1124 623 1053T539 922T441 810T356 728L322 698H614L582 586H113Z" />
<glyph unicode="&#xb3;" glyph-name="uni00B3" horiz-adv-x="714" d="M84 690Q88 690 98 689T115 688Q168 688 220 693T329 713T422 759T457 834Q457 880 410 909T297 948L326 1030Q358 1043 369 1048T406 1066T443 1088T469 1113T490 1147T496 1186Q496 1228
468 1248T403 1268Q371 1268 332 1256T267 1234L242 1223L215 1315Q226 1321 246 1329T322 1352T428 1366Q481 1366 528 1351T612 1296T649 1200Q649 1080 477 1018Q538 1006 576 959T614 850Q614 783 573 731T463 647T317 600T156 584L94 586L84 690Z" />
<glyph unicode="&#xb4;" glyph-name="acute" horiz-adv-x="692" d="M127 1190L408 1483H633L236 1149L127 1190Z" />
<glyph unicode="&#xb6;" glyph-name="paragraph" horiz-adv-x="1273" d="M127 633Q127 766 187 896T346 1126T580 1286T858 1348H981L623 -500H500L625 147Q407 147 267 285T127 633ZM756 -500L1114 1348H1237L879 -500H756Z" />
<glyph unicode="&#xb7;" glyph-name="middot" horiz-adv-x="528" d="M135 502Q135 553 171 590T258 627T345 590T381 502Q381 448 345 411T258 373T171 410T135 502Z" />
<glyph unicode="&#xb8;" glyph-name="cedilla" horiz-adv-x="823" d="M147 -418L207 -317Q227 -336 266 -350T344 -365Q455 -365 455 -289Q455 -268 439 -246T402 -208L350 -166Q319 -140 299 -119L328 -14H387Q404 -38 442 -70L512 -128Q543 -154 568 -196T594
-287Q594 -367 524 -424T340 -481Q228 -481 147 -418Z" />
<glyph unicode="&#xb9;" glyph-name="uni00B9" horiz-adv-x="614" d="M135 582L152 678H279L375 1221L246 1178L227 1270L549 1378L422 678H573L547 582H135Z" />
<glyph unicode="&#xba;" glyph-name="ordmasculine" horiz-adv-x="905" d="M182 877Q182 1097 296 1237T596 1378Q705 1378 776 1297T848 1079Q848 980 820 890T741 731T611 621T438 580Q379 580 333 600T259 650T213 722T189 801T182 877ZM336 903Q336 806 369
746T469 686Q550 686 620 786T690 1057Q690 1148 654 1210T557 1272Q496 1272 444 1215T364 1074T336 903Z" />
<glyph unicode="&#xbb;" glyph-name="guillemotright" horiz-adv-x="1267" d="M72 168L492 504L205 844L309 975L717 506L127 37L72 168ZM541 168L961 504L674 844L778 975L1186 506L596 37L541 168Z" />
<glyph unicode="&#xbc;" glyph-name="onequarter" horiz-adv-x="1363" d="M98 586L115 682H242L338 1225L209 1182L190 1274L512 1382L385 682H537L510 586H98ZM334 193L1034 1210L1139 1169L463 193H334ZM637 74V145L1098 682L1223 641L1133 184H1276L1229 74H1112L1094
-16L1085 -119H922L961 74H637ZM786 184H983L1036 475L786 184Z" />
<glyph unicode="&#xbd;" glyph-name="onehalf" horiz-adv-x="1363" d="M98 582L115 678H242L338 1221L209 1178L190 1270L512 1378L385 678H537L510 582H98ZM313 193L1014 1210L1118 1169L442 193H313ZM752 -61L778 -37L850 31Q878 57 939 123T1038 239T1107 353T1139
465Q1139 507 1119 534T1059 561Q1035 561 1004 554T951 540T905 524T879 514L852 616Q973 664 1075 664Q1172 664 1234 614T1296 475Q1296 417 1262 346T1178 215T1079 103Q1031 52 996 22L961 -8H1253L1221 -121H752V-61Z" />
<glyph unicode="&#xbe;" glyph-name="threequarters" horiz-adv-x="1384" d="M84 690Q88 690 98 689T115 688Q168 688 220 693T329 713T422 759T457 834Q457 880 410 909T297 948L326 1030Q358 1043 369 1048T406 1066T443 1088T469 1113T490 1147T496 1186Q496
1228 468 1248T403 1268Q371 1268 332 1256T267 1234L242 1223L215 1315Q226 1321 246 1329T322 1352T428 1366Q481 1366 528 1351T612 1296T649 1200Q649 1080 477 1018Q538 1006 576 959T614 850Q614 783 573 731T463 647T317 600T156 584L94 586L84 690ZM356
193L1057 1210L1161 1169L485 193H356ZM657 74V145L1118 682L1243 641L1153 184H1296L1249 74H1133L1114 -16L1106 -119H942L981 74H657ZM807 184H1004L1057 475L807 184Z" />
<glyph unicode="&#xbf;" glyph-name="questiondown" horiz-adv-x="849" d="M43 102Q43 169 74 240T155 375T266 502L386 626Q446 686 496 743T577 860T608 973Q608 1000 604 1012L752 948Q752 945 753 939T754 928Q754 869 726 807T653 690T552 578L444 464Q389
408 344 353T270 237T242 117Q242 52 296 12T418 -29Q461 -29 515 -7T603 36T639 63L682 -106Q682 -112 637 -133T518 -174T385 -195Q320 -195 259 -175T150 -118T72 -24T43 102ZM551 1245Q551 1299 588 1336T678 1374T768 1337T805 1245Q805 1194 768 1157T678
1120T589 1157T551 1245Z" />
<glyph unicode="&#xc0;" glyph-name="Agrave" horiz-adv-x="1124" d="M-127 0L653 1350L782 1374L977 225L1034 0H827L770 352H260L59 0H-127ZM346 508H743L664 971L655 1063L610 971L346 508ZM408 1792H633L860 1499L743 1458L408 1792Z" />
<glyph unicode="&#xc1;" glyph-name="Aacute" horiz-adv-x="1124" d="M-127 0L653 1350L782 1374L977 225L1034 0H827L770 352H260L59 0H-127ZM346 508H743L664 971L655 1063L610 971L346 508ZM553 1499L834 1792H1059L662 1458L553 1499Z" />
<glyph unicode="&#xc2;" glyph-name="Acircumflex" horiz-adv-x="1124" d="M-127 0L653 1350L782 1374L977 225L1034 0H827L770 352H260L59 0H-127ZM346 508H743L664 971L655 1063L610 971L346 508ZM387 1499L668 1792H795L1022 1499L909 1458L717 1649L492 1458L387
1499Z" />
<glyph unicode="&#xc3;" glyph-name="Atilde" horiz-adv-x="1124" d="M-127 0L653 1350L782 1374L977 225L1034 0H827L770 352H260L59 0H-127ZM346 508H743L664 971L655 1063L610 971L346 508ZM385 1546L416 1594Q426 1608 448 1631T489 1665T539 1683T608 1692Q655
1692 700 1673T784 1634T856 1614Q927 1614 967 1686L1049 1632L1018 1584Q1007 1569 986 1547T945 1514T894 1495T825 1487Q772 1487 727 1505T644 1542T575 1561Q520 1561 467 1493L385 1546Z" />
<glyph unicode="&#xc4;" glyph-name="Adieresis" horiz-adv-x="1124" d="M-127 0L653 1350L782 1374L977 225L1034 0H827L770 352H260L59 0H-127ZM346 508H743L664 971L655 1063L610 971L346 508ZM426 1602Q426 1648 456 1681T528 1714T600 1681T631 1602Q631
1555 601 1522T528 1489T456 1522T426 1602ZM803 1602Q803 1648 833 1681T905 1714T977 1681T1008 1602Q1008 1555 978 1522T905 1489T833 1522T803 1602Z" />
<glyph unicode="&#xc5;" glyph-name="Aring" horiz-adv-x="1124" d="M-127 0L653 1350L782 1374L977 225L1034 0H827L770 352H260L59 0H-127ZM346 508H743L664 971L655 1063L610 971L346 508ZM535 1547T535 1620T589 1746T717 1800Q791 1800 847 1747T903 1620T847
1494T717 1440Q644 1440 590 1493ZM610 1622Q610 1579 642 1542T719 1505Q768 1505 797 1541T827 1622Q827 1666 794 1698T719 1731Q675 1731 643 1699T610 1622Z" />
<glyph unicode="&#xc6;" glyph-name="AE" horiz-adv-x="1544" d="M-131 0L762 1348H1524L1497 1200H1047L961 762H1376L1307 614H932L844 147H1339L1268 0H629L698 360H279L43 0H-131ZM371 504H725L854 1159L858 1243L371 504Z" />
<glyph unicode="&#xc7;" glyph-name="Ccedilla" horiz-adv-x="1239" d="M121 520Q121 759 212 953T473 1260T858 1374Q929 1374 996 1361T1109 1328T1190 1288T1243 1254L1260 1241L1147 1112L1133 1124Q1124 1131 1093 1150T1029 1183T945 1209T842 1221Q702
1221 580 1130T383 882T309 541Q309 461 332 389T398 257T514 162T676 127Q880 127 1075 328L1087 137Q893 -17 662 -26Q679 -47 718 -79L784 -136Q813 -160 836 -200T860 -287Q860 -367 790 -424T606 -481Q495 -481 414 -418L473 -317Q493 -336 532 -350T610 -365Q721
-365 721 -289Q721 -268 705 -246T668 -208L616 -166Q585 -140 565 -119L591 -25Q451 -16 344 57T179 251T121 520Z" />
<glyph unicode="&#xc8;" glyph-name="Egrave" horiz-adv-x="1017" d="M102 0L328 1159L336 1348H997L971 1200H520L434 762H850L780 614H406L317 147H813L741 0H102ZM369 1792H594L821 1499L705 1458L369 1792Z" />
<glyph unicode="&#xc9;" glyph-name="Eacute" horiz-adv-x="1017" d="M102 0L328 1159L336 1348H997L971 1200H520L434 762H850L780 614H406L317 147H813L741 0H102ZM514 1499L795 1792H1020L623 1458L514 1499Z" />
<glyph unicode="&#xca;" glyph-name="Ecircumflex" horiz-adv-x="1017" d="M102 0L328 1159L336 1348H997L971 1200H520L434 762H850L780 614H406L317 147H813L741 0H102ZM348 1499L629 1792H756L983 1499L870 1458L678 1649L453 1458L348 1499Z" />
<glyph unicode="&#xcb;" glyph-name="Edieresis" horiz-adv-x="1017" d="M102 0L328 1159L336 1348H997L971 1200H520L434 762H850L780 614H406L317 147H813L741 0H102ZM387 1602Q387 1648 417 1681T489 1714T561 1681T592 1602Q592 1555 562 1522T489 1489T417
1522T387 1602ZM764 1602Q764 1648 794 1681T866 1714T938 1681T969 1602Q969 1555 939 1522T866 1489T794 1522T764 1602Z" />
<glyph unicode="&#xcc;" glyph-name="Igrave" horiz-adv-x="604" d="M102 0L328 1159L336 1348H547L315 154L307 0H102ZM154 1792H379L606 1499L489 1458L154 1792Z" />
<glyph unicode="&#xcd;" glyph-name="Iacute" horiz-adv-x="604" d="M102 0L328 1159L336 1348H547L315 154L307 0H102ZM299 1499L580 1792H805L408 1458L299 1499Z" />
<glyph unicode="&#xce;" glyph-name="Icircumflex" horiz-adv-x="604" d="M102 0L328 1159L336 1348H547L315 154L307 0H102ZM133 1499L414 1792H541L768 1499L655 1458L463 1649L238 1458L133 1499Z" />
<glyph unicode="&#xcf;" glyph-name="Idieresis" horiz-adv-x="604" d="M102 0L328 1159L336 1348H547L315 154L307 0H102ZM172 1602Q172 1648 202 1681T274 1714T346 1681T377 1602Q377 1555 347 1522T274 1489T202 1522T172 1602ZM549 1602Q549 1648 579 1681T651
1714T723 1681T754 1602Q754 1555 724 1522T651 1489T579 1522T549 1602Z" />
<glyph unicode="&#xd0;" glyph-name="Eth" horiz-adv-x="1347" d="M76 614L106 766H252L328 1159L336 1348H840Q1029 1348 1149 1202T1270 825Q1270 695 1237 572T1141 346T990 165T786 44T539 0H102L221 614H76ZM313 137H563Q661 137 755 192T920 336T1034 549T1077
801Q1077 874 1057 947T1001 1081T907 1180T778 1219H522L434 766H702L631 614H406L313 137Z" />
<glyph unicode="&#xd1;" glyph-name="Ntilde" horiz-adv-x="1503" d="M102 0L326 1159L307 1348H442L1036 494L1104 356L1257 1159L1266 1348H1462L1233 154L1217 0H1141L528 866L459 993L301 154L293 0H102ZM590 1546L622 1594Q631 1608 653 1631T694 1665T744
1683T813 1692Q860 1692 905 1673T989 1634T1061 1614Q1131 1614 1171 1686L1253 1632Q1227 1591 1213 1573T1172 1531T1111 1497T1030 1487Q978 1487 932 1505T849 1542T780 1561Q725 1561 672 1493L590 1546Z" />
<glyph unicode="&#xd2;" glyph-name="Ograve" horiz-adv-x="1329" d="M98 498Q98 636 128 765T217 1005T358 1197T553 1325T793 1372Q898 1372 983 1337T1120 1246T1208 1120T1258 981T1272 848Q1272 660 1219 498T1074 220T851 39T569 -27Q456 -27 366 15T217
130T129 297T98 498ZM289 522Q289 346 374 233T596 119Q697 119 789 183T944 347T1044 569T1081 809T1046 1019T940 1167T772 1223Q710 1223 644 1195T515 1108T401 968T320 771T289 522ZM559 1792H784L1012 1499L895 1458L559 1792Z" />
<glyph unicode="&#xd3;" glyph-name="Oacute" horiz-adv-x="1329" d="M98 498Q98 636 128 765T217 1005T358 1197T553 1325T793 1372Q898 1372 983 1337T1120 1246T1208 1120T1258 981T1272 848Q1272 660 1219 498T1074 220T851 39T569 -27Q456 -27 366 15T217
130T129 297T98 498ZM289 522Q289 346 374 233T596 119Q697 119 789 183T944 347T1044 569T1081 809T1046 1019T940 1167T772 1223Q710 1223 644 1195T515 1108T401 968T320 771T289 522ZM705 1499L985 1792H1210L813 1458L705 1499Z" />
<glyph unicode="&#xd4;" glyph-name="Ocircumflex" horiz-adv-x="1329" d="M98 498Q98 636 128 765T217 1005T358 1197T553 1325T793 1372Q898 1372 983 1337T1120 1246T1208 1120T1258 981T1272 848Q1272 660 1219 498T1074 220T851 39T569 -27Q456 -27 366 15T217
130T129 297T98 498ZM289 522Q289 346 374 233T596 119Q697 119 789 183T944 347T1044 569T1081 809T1046 1019T940 1167T772 1223Q710 1223 644 1195T515 1108T401 968T320 771T289 522ZM539 1499L819 1792H946L1174 1499L1061 1458L868 1649L643 1458L539 1499Z"
/>
<glyph unicode="&#xd5;" glyph-name="Otilde" horiz-adv-x="1329" d="M98 498Q98 636 128 765T217 1005T358 1197T553 1325T793 1372Q898 1372 983 1337T1120 1246T1208 1120T1258 981T1272 848Q1272 660 1219 498T1074 220T851 39T569 -27Q456 -27 366 15T217
130T129 297T98 498ZM289 522Q289 346 374 233T596 119Q697 119 789 183T944 347T1044 569T1081 809T1046 1019T940 1167T772 1223Q710 1223 644 1195T515 1108T401 968T320 771T289 522ZM537 1546L568 1594Q578 1608 600 1631T641 1665T691 1683T760 1692Q807
1692 852 1673T936 1634T1008 1614Q1078 1614 1118 1686L1200 1632Q1174 1591 1160 1573T1119 1531T1058 1497T977 1487Q924 1487 879 1505T796 1542T727 1561Q671 1561 618 1493L537 1546Z" />
<glyph unicode="&#xd6;" glyph-name="Odieresis" horiz-adv-x="1329" d="M98 498Q98 636 128 765T217 1005T358 1197T553 1325T793 1372Q898 1372 983 1337T1120 1246T1208 1120T1258 981T1272 848Q1272 660 1219 498T1074 220T851 39T569 -27Q456 -27 366 15T217
130T129 297T98 498ZM289 522Q289 346 374 233T596 119Q697 119 789 183T944 347T1044 569T1081 809T1046 1019T940 1167T772 1223Q710 1223 644 1195T515 1108T401 968T320 771T289 522ZM578 1602Q578 1648 608 1681T680 1714T751 1681T782 1602Q782 1555 752
1522T680 1489T608 1522T578 1602ZM954 1602Q954 1648 985 1681T1057 1714T1128 1681T1159 1602Q1159 1555 1129 1522T1057 1489T985 1522T954 1602Z" />
<glyph unicode="&#xd7;" glyph-name="multiply" horiz-adv-x="878" d="M78 776L207 850L440 618L698 879L776 741L547 512L801 256L700 156L444 410L195 160L88 266L338 518L78 776Z" />
<glyph unicode="&#xd8;" glyph-name="Oslash" horiz-adv-x="1329" d="M98 498Q98 749 188 948T439 1260T801 1372Q920 1372 1016 1323L1102 1460L1214 1430L1108 1260Q1188 1189 1230 1082T1272 848Q1272 710 1243 581T1154 341T1012 149T818 20T578 -27Q442 -27
338 31L250 -109L145 -78L254 96Q174 173 136 283T98 498ZM289 537Q289 374 356 262L928 1180Q860 1227 774 1227Q673 1227 581 1163T426 999T326 777T289 537ZM430 178Q501 123 598 123Q660 123 726 151T855 238T968 378T1048 575T1079 823Q1079 986 1006 1098L430
178Z" />
<glyph unicode="&#xd9;" glyph-name="Ugrave" horiz-adv-x="1357" d="M175 295T172 363T175 491T193 621L291 1159L301 1348H514L379 614Q370 563 365 526Q360 485 359 433T363 340T388 256T436 186T514 141T627 123Q772 123 875 237T1012 516L1137 1159L1147
1348H1339L1182 539Q1150 372 1077 248Q1004 123 885 48T614 -27Q517 -27 442 -7T318 49T237 135T190 240ZM532 1792H758L985 1499L868 1458L532 1792Z" />
<glyph unicode="&#xda;" glyph-name="Uacute" horiz-adv-x="1357" d="M175 295T172 363T175 491T193 621L291 1159L301 1348H514L379 614Q370 563 365 526Q360 485 359 433T363 340T388 256T436 186T514 141T627 123Q772 123 875 237T1012 516L1137 1159L1147
1348H1339L1182 539Q1150 372 1077 248Q1004 123 885 48T614 -27Q517 -27 442 -7T318 49T237 135T190 240ZM678 1499L958 1792H1184L786 1458L678 1499Z" />
<glyph unicode="&#xdb;" glyph-name="Ucircumflex" horiz-adv-x="1357" d="M175 295T172 363T175 491T193 621L291 1159L301 1348H514L379 614Q370 563 365 526Q360 485 359 433T363 340T388 256T436 186T514 141T627 123Q772 123 875 237T1012 516L1137 1159L1147
1348H1339L1182 539Q1150 372 1077 248Q1004 123 885 48T614 -27Q517 -27 442 -7T318 49T237 135T190 240ZM512 1499L793 1792H920L1147 1499L1034 1458L842 1649L616 1458L512 1499Z" />
<glyph unicode="&#xdc;" glyph-name="Udieresis" horiz-adv-x="1357" d="M175 295T172 363T175 491T193 621L291 1159L301 1348H514L379 614Q370 563 365 526Q360 485 359 433T363 340T388 256T436 186T514 141T627 123Q772 123 875 237T1012 516L1137 1159L1147
1348H1339L1182 539Q1150 372 1077 248Q1004 123 885 48T614 -27Q517 -27 442 -7T318 49T237 135T190 240ZM551 1602Q551 1648 581 1681T653 1714T725 1681T756 1602Q756 1555 726 1522T653 1489T581 1522T551 1602ZM928 1602Q928 1648 958 1681T1030 1714T1102
1681T1133 1602Q1133 1555 1103 1522T1030 1489T958 1522T928 1602Z" />
<glyph unicode="&#xdd;" glyph-name="Yacute" horiz-adv-x="1040" d="M137 1348H360L528 842L543 760L598 846L958 1348H1153L602 608L514 154L506 0H301L416 594L217 1202L137 1348ZM522 1499L803 1792H1028L631 1458L522 1499Z" />
<glyph unicode="&#xde;" glyph-name="Thorn" horiz-adv-x="1030" d="M84 0L336 1298L354 1528L569 1548L506 1225H664Q832 1225 931 1144T1030 920Q1030 685 875 533T457 381H342L299 154L289 0H84ZM367 512H481Q646 512 740 622T834 897Q834 991 780 1045T625
1100H481L367 512Z" />
<glyph unicode="&#xdf;" glyph-name="germandbls" horiz-adv-x="1146" d="M-197 -354Q-77 -354 -1 -269T100 -23L238 868H109L131 1008H258L281 1157Q297 1258 342 1333Q389 1409 455 1453T595 1520T750 1542Q898 1542 1006 1477T1114 1311Q1114 1257 1090 1202T1028
1104T948 1016L868 936Q831 900 807 862T782 793Q782 753 809 709T876 622L955 535Q994 490 1021 434T1049 319Q1049 177 935 75T641 -27Q578 -27 520 -9T435 28L408 47L453 195Q456 192 462 187T489 167T531 142T585 122T649 113Q688 113 724 122T795 149T849
201T870 281Q870 321 843 364T778 446L702 524Q664 565 637 614T610 713Q610 786 643 853T725 972L821 1073Q869 1122 902 1178T936 1292Q936 1344 883 1372T758 1401Q630 1401 552 1346Q475 1292 459 1194L266 -23Q231 -239 124 -367T-150 -496L-197 -354Z" />
<glyph unicode="&#xe0;" glyph-name="agrave" horiz-adv-x="1038" d="M78 299Q78 409 102 516T174 716T286 880T434 993T612 1034Q697 1034 817 1022T954 1008L821 315Q798 207 809 136T879 0L696 -27Q631 24 631 127L635 170Q629 162 618 149T573 101T503 42T417
-5T317 -27Q217 -27 148 59T78 299ZM258 330Q258 282 268 239T307 161T377 127Q404 127 442 148T515 198T581 258L632 309L651 330L760 893Q658 909 627 909Q540 909 455 831T314 616T258 330ZM344 1483H569L797 1190L680 1149L344 1483Z" />
<glyph unicode="&#xe1;" glyph-name="aacute" horiz-adv-x="1038" d="M78 299Q78 409 102 516T174 716T286 880T434 993T612 1034Q697 1034 817 1022T954 1008L821 315Q798 207 809 136T879 0L696 -27Q631 24 631 127L635 170Q629 162 618 149T573 101T503 42T417
-5T317 -27Q217 -27 148 59T78 299ZM258 330Q258 282 268 239T307 161T377 127Q404 127 442 148T515 198T581 258L632 309L651 330L760 893Q658 909 627 909Q540 909 455 831T314 616T258 330ZM489 1190L770 1483H995L598 1149L489 1190Z" />
<glyph unicode="&#xe2;" glyph-name="acircumflex" horiz-adv-x="1038" d="M78 299Q78 409 102 516T174 716T286 880T434 993T612 1034Q697 1034 817 1022T954 1008L821 315Q798 207 809 136T879 0L696 -27Q631 24 631 127L635 170Q629 162 618 149T573 101T503
42T417 -5T317 -27Q217 -27 148 59T78 299ZM258 330Q258 282 268 239T307 161T377 127Q404 127 442 148T515 198T581 258L632 309L651 330L760 893Q658 909 627 909Q540 909 455 831T314 616T258 330ZM324 1190L604 1483H731L958 1190L846 1149L653 1339L428 1149L324
1190Z" />
<glyph unicode="&#xe3;" glyph-name="atilde" horiz-adv-x="1038" d="M78 299Q78 409 102 516T174 716T286 880T434 993T612 1034Q697 1034 817 1022T954 1008L821 315Q798 207 809 136T879 0L696 -27Q631 24 631 127L635 170Q629 162 618 149T573 101T503 42T417
-5T317 -27Q217 -27 148 59T78 299ZM258 330Q258 282 268 239T307 161T377 127Q404 127 442 148T515 198T581 258L632 309L651 330L760 893Q658 909 627 909Q540 909 455 831T314 616T258 330ZM322 1237Q348 1278 362 1296T403 1338T464 1372T545 1382T637 1363T721
1325T793 1305Q863 1305 903 1376L985 1323Q959 1282 945 1264T904 1222T843 1188T762 1178Q709 1178 664 1196T581 1232T512 1251Q455 1251 403 1184L322 1237Z" />
<glyph unicode="&#xe4;" glyph-name="adieresis" horiz-adv-x="1038" d="M78 299Q78 409 102 516T174 716T286 880T434 993T612 1034Q697 1034 817 1022T954 1008L821 315Q798 207 809 136T879 0L696 -27Q631 24 631 127L635 170Q629 162 618 149T573 101T503
42T417 -5T317 -27Q217 -27 148 59T78 299ZM258 330Q258 282 268 239T307 161T377 127Q404 127 442 148T515 198T581 258L632 309L651 330L760 893Q658 909 627 909Q540 909 455 831T314 616T258 330ZM362 1292Q362 1338 393 1371T465 1405T536 1372T567 1292Q567
1245 537 1213T465 1180T393 1212T362 1292ZM739 1292Q739 1338 770 1371T842 1405T913 1372T944 1292Q944 1245 914 1213T842 1180T770 1212T739 1292Z" />
<glyph unicode="&#xe5;" glyph-name="aring" horiz-adv-x="1038" d="M78 299Q78 409 102 516T174 716T286 880T434 993T612 1034Q697 1034 817 1022T954 1008L821 315Q798 207 809 136T879 0L696 -27Q631 24 631 127L635 170Q629 162 618 149T573 101T503 42T417
-5T317 -27Q217 -27 148 59T78 299ZM258 330Q258 282 268 239T307 161T377 127Q404 127 442 148T515 198T581 258L632 309L651 330L760 893Q658 909 627 909Q540 909 455 831T314 616T258 330ZM471 1238T471 1311T525 1437T653 1491Q727 1491 783 1438T840 1311T784
1184T653 1130Q581 1130 526 1184ZM547 1357T547 1313T578 1233T655 1196Q704 1196 734 1232T764 1313Q764 1356 731 1388T655 1421Q611 1421 579 1389Z" />
<glyph unicode="&#xe6;" glyph-name="ae" horiz-adv-x="1501" d="M78 299Q78 437 117 569T224 806T393 974T610 1038Q689 1038 797 1024T926 1010Q969 1010 1063 1024T1182 1038Q1312 1038 1380 977T1448 815Q1448 737 1414 673T1323 565T1189 492T1027 449T852
436V416Q852 292 911 212T1090 131Q1139 131 1188 147T1273 186T1337 232T1380 271L1395 287V117Q1391 111 1382 102T1341 67T1272 23T1171 -11T1036 -27Q903 -27 817 41T694 225Q689 220 658 187L618 143Q607 132 577 103T529 62L482 28Q451 7 427 -2T371 -19T309
-27Q210 -27 144 58T78 299ZM264 319Q264 127 367 127Q405 127 475 178T591 275T672 358V395Q672 536 718 663T848 883Q800 887 749 894L667 905Q636 909 625 909Q532 909 449 830T315 613T264 319ZM864 547Q880 548 902 550T965 559T1042 576T1121 606T1192 650T1242
712T1262 795Q1262 839 1238 872T1155 905Q1080 905 1018 853T918 721T864 547Z" />
<glyph unicode="&#xe7;" glyph-name="ccedilla" horiz-adv-x="911" d="M78 395Q78 544 119 667T232 870T397 994T596 1038Q733 1038 885 989L819 842Q818 845 782 858T692 884T598 897Q519 897 453 855T346 745T281 599T258 442Q258 378 271 323T312 223T388 151T502
125Q551 125 601 142T684 181T748 231T788 269T803 287V109L790 95Q777 81 749 61T684 21T591 -13T474 -27Q491 -48 530 -80L596 -136Q625 -160 648 -200T672 -287Q672 -367 602 -424T418 -481Q306 -481 225 -418L285 -317Q305 -336 344 -350T422 -365Q532 -365
532 -289Q532 -262 510 -237T444 -178T377 -119L403 -22Q295 -7 220 54T112 202T78 395ZM403 -22Q440 -27 473 -27H474Q472 -25 469 -21T465 -14H406L403 -22Z" />
<glyph unicode="&#xe8;" glyph-name="egrave" horiz-adv-x="919" d="M90 395Q90 563 152 709T333 946T600 1038Q730 1038 798 977T866 815Q866 718 815 642T677 520T488 451T270 428V408Q270 288 329 210T508 131Q555 131 604 147T689 186T754 232T800 271L815
287V109Q811 103 803 94T763 62T695 20T596 -12T465 -27Q344 -27 257 32T130 185T90 395ZM264 1483H489L717 1190L600 1149L264 1483ZM283 547Q299 548 321 550T384 559T461 576T539 606T611 650T660 712T680 795Q680 839 656 872T573 905Q498 905 436 853T337
722T283 547Z" />
<glyph unicode="&#xe9;" glyph-name="eacute" horiz-adv-x="919" d="M90 395Q90 563 152 709T333 946T600 1038Q730 1038 798 977T866 815Q866 718 815 642T677 520T488 451T270 428V408Q270 288 329 210T508 131Q555 131 604 147T689 186T754 232T800 271L815
287V109Q811 103 803 94T763 62T695 20T596 -12T465 -27Q344 -27 257 32T130 185T90 395ZM283 547Q299 548 321 550T384 559T461 576T539 606T611 650T660 712T680 795Q680 839 656 872T573 905Q498 905 436 853T337 722T283 547ZM410 1190L690 1483H915L518 1149L410
1190Z" />
<glyph unicode="&#xea;" glyph-name="ecircumflex" horiz-adv-x="919" d="M90 395Q90 563 152 709T333 946T600 1038Q730 1038 798 977T866 815Q866 718 815 642T677 520T488 451T270 428V408Q270 288 329 210T508 131Q555 131 604 147T689 186T754 232T800 271L815
287V109Q811 103 803 94T763 62T695 20T596 -12T465 -27Q344 -27 257 32T130 185T90 395ZM244 1190L524 1483H651L879 1190L766 1149L573 1339L348 1149L244 1190ZM283 547Q299 548 321 550T384 559T461 576T539 606T611 650T660 712T680 795Q680 839 656 872T573
905Q498 905 436 853T337 722T283 547Z" />
<glyph unicode="&#xeb;" glyph-name="edieresis" horiz-adv-x="919" d="M90 395Q90 563 152 709T333 946T600 1038Q730 1038 798 977T866 815Q866 718 815 642T677 520T488 451T270 428V408Q270 288 329 210T508 131Q555 131 604 147T689 186T754 232T800 271L815
287V109Q811 103 803 94T763 62T695 20T596 -12T465 -27Q344 -27 257 32T130 185T90 395ZM283 547Q299 548 321 550T384 559T461 576T539 606T611 650T660 712T680 795Q680 839 656 872T573 905Q498 905 436 853T337 722T283 547ZM283 1292Q283 1338 313 1371T385
1405T456 1372T487 1292Q487 1245 457 1213T385 1180T313 1212T283 1292ZM659 1292Q659 1338 690 1371T762 1405T833 1372T864 1292Q864 1245 834 1213T762 1180T690 1212T659 1292Z" />
<glyph unicode="&#xec;" glyph-name="igrave" horiz-adv-x="534" d="M63 1483H289L516 1190L399 1149L63 1483ZM86 0L246 819L256 1008L459 1030L287 154L279 0H86Z" />
<glyph unicode="&#xed;" glyph-name="iacute" horiz-adv-x="534" d="M86 0L246 819L256 1008L459 1030L287 154L279 0H86ZM209 1190L489 1483H715L317 1149L209 1190Z" />
<glyph unicode="&#xee;" glyph-name="icircumflex" horiz-adv-x="534" d="M43 1190L324 1483H451L678 1190L565 1149L373 1339L147 1149L43 1190ZM86 0L246 819L256 1008L459 1030L287 154L279 0H86Z" />
<glyph unicode="&#xef;" glyph-name="idieresis" horiz-adv-x="534" d="M82 1292Q82 1338 112 1371T184 1405T256 1372T287 1292Q287 1245 257 1213T184 1180T112 1212T82 1292ZM86 0L246 819L256 1008L459 1030L287 154L279 0H86ZM459 1292Q459 1338 489 1371T561
1405T633 1372T664 1292Q664 1245 634 1213T561 1180T489 1212T459 1292Z" />
<glyph unicode="&#xf0;" glyph-name="eth" horiz-adv-x="1095" d="M78 362Q78 535 152 691T349 940T606 1034Q653 1034 697 1025T770 1004T822 979T856 957L866 948Q840 1128 745 1255L459 1141L436 1229L678 1327Q596 1393 485 1427L580 1548Q750 1506 854 1399L1104
1499L1085 1393L915 1323Q1042 1137 1042 831Q1042 725 1026 624T979 425T897 247T780 104T625 8T430 -27Q345 -27 281 -1T179 65T118 159T86 262T78 362ZM256 387Q256 262 311 183T467 104Q547 104 615 153T727 279T804 450T850 630T864 788L854 800Q847 808 823
827T773 862T707 889T623 901Q541 901 469 850T352 721T282 555T256 387Z" />
<glyph unicode="&#xf1;" glyph-name="ntilde" horiz-adv-x="1107" d="M86 0L246 819L231 987L434 1030L403 831Q411 839 426 853T488 902T578 965T684 1014T797 1036Q861 1036 905 1012T968 946T992 849Q997 795 985 733L872 150L862 0H672L797 666Q835 868 729
868Q690 868 640 849T547 801T467 745T408 698L387 678L287 154L274 0H86ZM373 1237Q399 1278 413 1296T454 1338T515 1372T596 1382T688 1363T772 1325T844 1305Q914 1305 954 1376L1036 1323Q1010 1282 996 1264T955 1222T894 1188T813 1178Q760 1178 715 1196T632
1232T563 1251Q507 1251 455 1184L373 1237Z" />
<glyph unicode="&#xf2;" glyph-name="ograve" horiz-adv-x="1030" d="M78 369Q78 563 141 713T329 951T621 1038Q761 1038 854 930T948 639Q948 507 913 388T813 176T643 28T410 -27Q334 -27 275 -1T179 67T120 163T87 268T78 369ZM258 406Q258 273 306 192T451
111Q504 111 558 143T660 235T738 393T768 610Q768 732 713 817T569 903Q505 903 446 857T347 739T282 579T258 406ZM336 1483H561L788 1190L672 1149L336 1483Z" />
<glyph unicode="&#xf3;" glyph-name="oacute" horiz-adv-x="1030" d="M78 369Q78 563 141 713T329 951T621 1038Q761 1038 854 930T948 639Q948 507 913 388T813 176T643 28T410 -27Q334 -27 275 -1T179 67T120 163T87 268T78 369ZM258 406Q258 273 306 192T451
111Q504 111 558 143T660 235T738 393T768 610Q768 732 713 817T569 903Q505 903 446 857T347 739T282 579T258 406ZM481 1190L762 1483H987L590 1149L481 1190Z" />
<glyph unicode="&#xf4;" glyph-name="ocircumflex" horiz-adv-x="1030" d="M78 369Q78 563 141 713T329 951T621 1038Q761 1038 854 930T948 639Q948 507 913 388T813 176T643 28T410 -27Q334 -27 275 -1T179 67T120 163T87 268T78 369ZM258 406Q258 273 306 192T451
111Q504 111 558 143T660 235T738 393T768 610Q768 732 713 817T569 903Q505 903 446 857T347 739T282 579T258 406ZM315 1190L596 1483H723L950 1190L838 1149L645 1339L420 1149L315 1190Z" />
<glyph unicode="&#xf5;" glyph-name="otilde" horiz-adv-x="1030" d="M78 369Q78 563 141 713T329 951T621 1038Q761 1038 854 930T948 639Q948 507 913 388T813 176T643 28T410 -27Q334 -27 275 -1T179 67T120 163T87 268T78 369ZM258 406Q258 273 306 192T451
111Q504 111 558 143T660 235T738 393T768 610Q768 732 713 817T569 903Q505 903 446 857T347 739T282 579T258 406ZM313 1237L344 1284Q355 1300 376 1322T417 1355T468 1374T537 1382Q574 1382 611 1370T672 1344T727 1317T784 1305Q855 1305 895 1376L977 1323Q951
1282 937 1264T896 1222T835 1188T754 1178Q701 1178 656 1196T573 1232T504 1251Q447 1251 395 1184L313 1237Z" />
<glyph unicode="&#xf6;" glyph-name="odieresis" horiz-adv-x="1030" d="M78 369Q78 563 141 713T329 951T621 1038Q761 1038 854 930T948 639Q948 507 913 388T813 176T643 28T410 -27Q334 -27 275 -1T179 67T120 163T87 268T78 369ZM258 406Q258 273 306 192T451
111Q504 111 558 143T660 235T738 393T768 610Q768 732 713 817T569 903Q505 903 446 857T347 739T282 579T258 406ZM354 1292Q354 1338 385 1371T457 1405T528 1372T559 1292Q559 1245 529 1213T457 1180T385 1212T354 1292ZM731 1292Q731 1338 762 1371T834 1405T905
1372T936 1292Q936 1245 906 1213T834 1180T762 1212T731 1292Z" />
<glyph unicode="&#xf7;" glyph-name="divide" horiz-adv-x="968" d="M178 442V584H813L772 442H178ZM358 215Q358 266 394 303T481 340T568 303T604 215Q604 161 568 124T481 86T394 123T358 215ZM358 834Q358 885 394 921T481 958T568 922T604 834Q604 780 568
743T481 705T394 742T358 834Z" />
<glyph unicode="&#xf8;" glyph-name="oslash" horiz-adv-x="1015" d="M-4 -205L168 72Q76 179 76 369Q76 561 142 713T331 951T612 1038Q681 1038 750 1006L881 1217L993 1186L836 936Q934 827 934 639Q934 535 911 437T843 254T734 107T585 9T401 -27Q320 -27
252 6L100 -236L-4 -205ZM250 406Q250 310 274 242L662 864Q617 903 561 903Q497 903 438 857T339 739T274 579T250 406ZM338 143Q378 111 442 111Q495 111 549 143T649 235T725 393T754 610Q754 696 727 764L338 143Z" />
<glyph unicode="&#xf9;" glyph-name="ugrave" horiz-adv-x="1118" d="M120 158Q115 212 127 274L240 858L250 1008H440L315 342Q277 139 383 139Q422 139 472 158T565 206T645 263T704 310L725 330L825 854L838 1008H1026L893 315Q869 208 878 136T946 0L764 -27Q698
25 698 127L705 178L682 156Q667 142 622 106T533 43T428 -6T315 -29Q251 -29 207 -5T144 61T120 158ZM348 1483H573L801 1190L684 1149L348 1483Z" />
<glyph unicode="&#xfa;" glyph-name="uacute" horiz-adv-x="1118" d="M120 158Q115 212 127 274L240 858L250 1008H440L315 342Q277 139 383 139Q422 139 472 158T565 206T645 263T704 310L725 330L825 854L838 1008H1026L893 315Q869 208 878 136T946 0L764 -27Q698
25 698 127L705 178L682 156Q667 142 622 106T533 43T428 -6T315 -29Q251 -29 207 -5T144 61T120 158ZM494 1190L774 1483H999L602 1149L494 1190Z" />
<glyph unicode="&#xfb;" glyph-name="ucircumflex" horiz-adv-x="1118" d="M120 158Q115 212 127 274L240 858L250 1008H440L315 342Q277 139 383 139Q422 139 472 158T565 206T645 263T704 310L725 330L825 854L838 1008H1026L893 315Q869 208 878 136T946 0L764
-27Q698 25 698 127L705 178L682 156Q667 142 622 106T533 43T428 -6T315 -29Q251 -29 207 -5T144 61T120 158ZM328 1190L608 1483H735L963 1190L850 1149L657 1339L432 1149L328 1190Z" />
<glyph unicode="&#xfc;" glyph-name="udieresis" horiz-adv-x="1118" d="M120 158Q115 212 127 274L240 858L250 1008H440L315 342Q277 139 383 139Q422 139 472 158T565 206T645 263T704 310L725 330L825 854L838 1008H1026L893 315Q869 208 878 136T946 0L764
-27Q698 25 698 127L705 178L682 156Q667 142 622 106T533 43T428 -6T315 -29Q251 -29 207 -5T144 61T120 158ZM367 1292Q367 1338 397 1371T469 1405T540 1372T571 1292Q571 1245 541 1213T469 1180T397 1212T367 1292ZM743 1292Q743 1338 774 1371T846 1405T917
1372T948 1292Q948 1245 918 1213T846 1180T774 1212T743 1292Z" />
<glyph unicode="&#xfd;" glyph-name="yacute" horiz-adv-x="921" d="M-217 -475L-213 -311Q-159 -332 -113 -332Q54 -332 195 -125L285 8L268 51L158 838L100 1008L301 1034L403 328L406 180L473 322L692 688Q788 849 702 1008L889 1034Q914 979 920 925T914 818T880
718T823 614L324 -193Q234 -338 114 -418T-115 -498Q-163 -498 -217 -475ZM410 1188L690 1481H915L518 1147L410 1188Z" />
<glyph unicode="&#xfe;" glyph-name="thorn" horiz-adv-x="1085" d="M8 -492L360 1321L346 1489L573 1532L461 952L426 834L446 856Q458 869 497 903T574 964T668 1012T772 1034Q867 1034 932 950T997 709Q997 598 977 493T913 293T808 127T657 15T463 -27Q430
-27 385 -19T308 -2T276 10L209 -338L199 -492H8ZM303 145Q373 113 463 113Q567 113 650 196T775 408T817 680Q817 776 782 823T696 870Q651 870 579 821T456 722L406 672L303 145Z" />
<glyph unicode="&#xff;" glyph-name="ydieresis" horiz-adv-x="921" d="M-217 -475L-213 -311Q-159 -332 -113 -332Q54 -332 195 -125L285 8L268 51L158 838L100 1008L301 1034L403 328L406 180L473 322L692 688Q788 849 702 1008L889 1034Q914 979 920 925T914
818T880 718T823 614L324 -193Q234 -338 114 -418T-115 -498Q-163 -498 -217 -475ZM283 1290Q283 1336 313 1369T385 1403T456 1370T487 1290Q487 1243 457 1211T385 1178T313 1210T283 1290ZM659 1290Q659 1336 690 1369T762 1403T833 1370T864 1290Q864 1243
834 1211T762 1178T690 1210T659 1290Z" />
<glyph unicode="&#x131;" glyph-name="dotlessi" horiz-adv-x="534" d="M86 0L246 819L256 1008L459 1030L287 154L279 0H86Z" />
<glyph unicode="&#x141;" glyph-name="Lslash" horiz-adv-x="872" d="M18 543L227 649L328 1159L336 1348H547L432 758L733 911L731 756L399 584L315 150H836L766 0H102L195 475L59 406L18 543Z" />
<glyph unicode="&#x142;" glyph-name="lslash" horiz-adv-x="520" d="M20 543L205 637L342 1335L352 1524L555 1546L397 739L553 819L551 664L362 567L283 154L272 0H82L172 465L59 406L20 543Z" />
<glyph unicode="&#x152;" glyph-name="OE" horiz-adv-x="1681" d="M98 498Q98 751 184 943T435 1241T821 1348H1661L1634 1200H1184L1098 762H1513L1444 614H1069L981 147H1477L1405 0H578Q473 0 388 32T250 116T162 235T112 368T98 498ZM289 654T289 537T324
327T430 179T598 123H788L989 1159V1227H774Q673 1227 581 1163T426 999T326 777Z" />
<glyph unicode="&#x153;" glyph-name="oe" horiz-adv-x="1574" d="M78 369Q78 561 144 713T333 951T614 1038Q706 1038 779 990T893 852Q1038 1038 1255 1038Q1385 1038 1453 977T1522 815Q1522 737 1488 673T1397 565T1263 492T1101 449T926 436V416Q926 292
984 212T1163 131Q1212 131 1261 147T1346 186T1410 232T1454 271L1468 287V117Q1464 111 1455 102T1415 67T1345 23T1244 -11T1110 -27Q993 -27 912 25T788 170Q718 77 620 25T403 -27Q327 -27 268 0T174 68T117 163T86 268T78 369ZM252 406Q252 273 300 192T444
111Q497 111 551 143T651 235T727 393T756 610Q756 733 704 818T563 903Q499 903 440 857T341 739T276 579T252 406ZM934 547Q950 548 972 550T1035 559T1112 576T1190 606T1262 650T1311 712T1331 795T1308 872T1225 905Q1150 905 1088 853T988 721T934 547Z"
/>
<glyph unicode="&#x160;" glyph-name="Scaron" horiz-adv-x="925" d="M25 63L61 219Q63 214 104 193T219 148T358 125Q401 125 445 138T530 175T595 244T621 344Q621 397 596 445T531 531T442 606L346 683Q298 723 258 765T193 865T168 987Q168 1098 232 1188T395
1325T604 1372Q686 1372 764 1357T880 1328L918 1313L836 1163Q822 1170 799 1180T711 1206T592 1223Q496 1223 429 1167T362 1026Q362 974 387 927T451 842T540 767L636 690Q684 650 723 607T788 504T813 377Q813 259 753 166T592 23T371 -27Q307 -27 248 -18T150
5T82 31T38 54L25 63ZM317 1751L434 1792L625 1602L852 1792L961 1751L680 1458H545L317 1751Z" />
<glyph unicode="&#x161;" glyph-name="scaron" horiz-adv-x="808" d="M61 61V233L77 220Q87 212 118 192T180 157T254 128T336 115Q379 115 420 128T492 174T524 256Q524 295 503 327T449 384T375 432T294 484T221 547T166 632T145 745Q145 832 199 900T335 1003T508
1038Q569 1038 636 1026T740 1001L776 989L711 842Q700 849 680 859T600 887T485 905Q424 905 370 870T315 774Q315 733 336 699T390 638T464 587T546 534T620 471T675 387T696 276Q696 203 665 144T583 49T470 -7T342 -27Q293 -27 247 -18T168 4T110 30T73 52L61
61ZM207 1442L324 1483L514 1292L741 1483L850 1442L569 1149H434L207 1442Z" />
<glyph unicode="&#x178;" glyph-name="Ydieresis" horiz-adv-x="1040" d="M137 1348H360L528 842L543 760L598 846L958 1348H1153L602 608L514 154L506 0H301L416 594L217 1202L137 1348ZM395 1602Q395 1648 426 1681T498 1714T569 1681T600 1602Q600 1555 570
1522T498 1489T426 1522T395 1602ZM772 1602Q772 1648 802 1681T874 1714T946 1681T977 1602Q977 1555 947 1522T874 1489T802 1522T772 1602Z" />
<glyph unicode="&#x17d;" glyph-name="Zcaron" horiz-adv-x="1114" d="M-51 0V51L784 1079L891 1190H197L270 1348H1196V1296L358 266L254 156H1020L991 0H-51ZM469 1749L586 1790L776 1599L1004 1790L1112 1749L831 1456H696L469 1749Z" />
<glyph unicode="&#x17e;" glyph-name="zcaron" horiz-adv-x="966" d="M-4 0V39L578 784L657 868H141L209 1008H932V969L352 223L272 139H881L854 0H-4ZM276 1442L393 1483L584 1292L811 1483L920 1442L639 1149H504L276 1442Z" />
<glyph unicode="&#x192;" glyph-name="florin" horiz-adv-x="989" d="M-2 -352Q119 -352 197 -266Q274 -181 297 -20L422 868H281L309 1008H438L459 1157Q471 1242 499 1306Q528 1373 566 1416T651 1489T747 1531T844 1544Q959 1544 1065 1475L967 1333Q912 1382
831 1382Q768 1382 716 1333T649 1194L618 1008H899L809 868H602L477 -20Q458 -156 391 -266Q324 -375 233 -434T47 -494L-2 -352Z" />
<glyph unicode="&#x2c6;" glyph-name="circumflex" horiz-adv-x="823" d="M80 1190L360 1483H487L715 1190L602 1149L410 1339L184 1149L80 1190Z" />
<glyph unicode="&#x2c7;" glyph-name="caron" horiz-adv-x="823" d="M98 1442L215 1483L406 1292L633 1483L741 1442L461 1149H326L98 1442Z" />
<glyph unicode="&#x2d8;" glyph-name="breve" horiz-adv-x="823" d="M98 1442L215 1483Q217 1475 222 1462T244 1414T282 1353T335 1306T406 1284T479 1304T542 1354T590 1413T622 1462L633 1483L741 1442Q737 1430 729 1411T689 1341T620 1251T522 1181T393 1149Q344
1149 301 1165T229 1207T176 1264T138 1327T115 1384T102 1426L98 1442Z" />
<glyph unicode="&#x2d9;" glyph-name="dotaccent" horiz-adv-x="380" d="M82 1282Q82 1326 114 1358T193 1391Q237 1391 269 1359T301 1282Q301 1236 269 1204T193 1171Q147 1171 115 1203T82 1282Z" />
<glyph unicode="&#x2da;" glyph-name="ring" horiz-adv-x="1064" d="M340 1258T340 1331T394 1457T522 1511Q596 1511 652 1458T709 1331T653 1205T522 1151Q449 1151 395 1204ZM416 1333Q416 1290 447 1254T524 1217Q573 1217 603 1252T633 1333Q633 1377 600
1409T524 1442Q480 1442 448 1410T416 1333Z" />
<glyph unicode="&#x2db;" glyph-name="ogonek" horiz-adv-x="565" d="M92 -309Q96 -266 120 -219T177 -134T241 -66T295 -17L317 0H449Q440 -7 426 -20T375 -70T309 -140T256 -215T229 -285Q225 -322 264 -341T348 -358T426 -354L414 -475Q404 -477 375 -477Q221
-477 154 -436T92 -309Z" />
<glyph unicode="&#x2dc;" glyph-name="tilde" horiz-adv-x="778" d="M72 1237Q98 1278 112 1296T153 1338T214 1372T295 1382T387 1363T471 1325T543 1305Q613 1305 653 1376L735 1323Q709 1282 695 1264T654 1222T593 1188T512 1178Q459 1178 414 1196T331 1232T262
1251Q206 1251 154 1184L72 1237Z" />
<glyph unicode="&#x2dd;" glyph-name="hungarumlaut" horiz-adv-x="1198" d="M127 1190L408 1483H633L236 1149L127 1190ZM502 1190L782 1483H1008L610 1149L502 1190Z" />
<glyph unicode="&#x2013;" glyph-name="endash" horiz-adv-x="925" d="M63 430V582H877L836 430H63Z" />
<glyph unicode="&#x2014;" glyph-name="emdash" horiz-adv-x="1390" d="M63 430V582H1339L1298 430H63Z" />
<glyph unicode="&#x2018;" glyph-name="quoteleft" horiz-adv-x="512" d="M188 985Q188 1078 270 1187T477 1376L535 1305Q485 1263 433 1186T381 1057Q381 1040 383 1029T395 1006T424 989Q424 933 386 897T293 860Q248 860 218 895T188 985Z" />
<glyph unicode="&#x2019;" glyph-name="quoteright" horiz-adv-x="512" d="M168 932Q218 974 270 1051T322 1180Q322 1197 320 1208T308 1230T279 1247Q279 1303 317 1339T410 1376Q454 1376 484 1341T514 1251Q514 1158 432 1049T225 860L168 932Z" />
<glyph unicode="&#x201a;" glyph-name="quotesinglbase" horiz-adv-x="512" d="M-10 -213Q39 -171 91 -94T143 35Q143 52 141 63T129 85T100 102Q100 158 138 194T231 231Q276 231 306 196T336 106Q336 13 254 -96T47 -285L-10 -213Z" />
<glyph unicode="&#x201c;" glyph-name="quotedblleft" horiz-adv-x="874" d="M188 985Q188 1078 270 1187T477 1376L535 1305Q485 1263 433 1186T381 1057Q381 1040 383 1029T395 1006T424 989Q424 933 386 897T293 860Q248 860 218 895T188 985ZM551 985Q551
1078 633 1187T840 1376L897 1305Q847 1263 795 1186T743 1057Q743 1040 745 1029T757 1006T786 989Q786 933 748 897T655 860Q611 860 581 895T551 985Z" />
<glyph unicode="&#x201d;" glyph-name="quotedblright" horiz-adv-x="870" d="M168 932Q218 974 270 1051T322 1180Q322 1197 320 1208T308 1230T279 1247Q279 1303 317 1339T410 1376Q454 1376 484 1341T514 1251Q514 1158 432 1049T225 860L168 932ZM526 932Q576
974 628 1051T680 1180Q680 1197 678 1208T666 1230T637 1247Q637 1303 675 1339T768 1376Q812 1376 842 1341T872 1251Q872 1158 791 1049T584 860L526 932Z" />
<glyph unicode="&#x201e;" glyph-name="quotedblbase" horiz-adv-x="870" d="M-10 -213Q39 -171 91 -94T143 35Q143 52 141 63T129 85T100 102Q100 158 138 194T231 231Q276 231 306 196T336 106Q336 13 254 -96T47 -285L-10 -213ZM348 -213Q398 -171 450 -94T502
35Q502 52 500 63T488 85T459 102Q459 158 497 194T590 231Q634 231 664 196T694 106Q694 13 613 -96T406 -285L348 -213Z" />
<glyph unicode="&#x2020;" glyph-name="dagger" horiz-adv-x="997" d="M188 -502L455 868H190L219 1008H483L545 1331L721 1354L653 1008H987L897 868H625L358 -502H188Z" />
<glyph unicode="&#x2021;" glyph-name="daggerdbl" horiz-adv-x="997" d="M23 0L49 139H313L455 868H190L219 1008H483L545 1331L721 1354L653 1008H987L897 868H625L483 139H791L702 0H457L358 -502H188L287 0H23Z" />
<glyph unicode="&#x2022;" glyph-name="bullet" horiz-adv-x="868" d="M158 506Q158 619 237 697T432 776Q545 776 625 697T705 506Q705 391 625 311T432 231Q317 231 238 310T158 506Z" />
<glyph unicode="&#x2026;" glyph-name="ellipsis" horiz-adv-x="1357" d="M158 84Q158 128 190 160T268 193Q312 193 344 161T377 84Q377 38 345 6T268 -27Q222 -27 190 5T158 84ZM578 84Q578 128 610 160T688 193Q732 193 764 161T797 84Q797 38 765 6T688 -27Q642
-27 610 5T578 84ZM987 84Q987 128 1019 160T1098 193Q1142 193 1174 161T1206 84Q1206 38 1174 6T1098 -27Q1052 -27 1020 5T987 84Z" />
<glyph unicode="&#x2030;" glyph-name="perthousand" horiz-adv-x="2357" d="M160 913T160 1038T252 1254T467 1346Q592 1346 686 1255T780 1038T686 822T467 731Q344 731 252 822ZM174 0L1376 1380L1501 1325L346 0H174ZM281 1042Q281 968 335 906T469 844Q555
844 607 905T659 1042Q659 1116 601 1171T469 1227Q393 1227 337 1172T281 1042ZM928 156T928 281T1020 497T1235 588Q1360 588 1454 497T1548 281T1454 65T1235 -27Q1113 -27 1021 64ZM1049 285Q1049 211 1104 149T1237 86Q1323 86 1375 147T1427 285Q1427 359
1369 414T1237 469Q1160 469 1105 415T1049 285ZM1651 156T1651 281T1743 497T1958 588Q2083 588 2177 497T2271 281T2177 65T1958 -27Q1836 -27 1744 64ZM1772 285Q1772 211 1827 149T1960 86Q2046 86 2098 147T2150 285Q2150 359 2092 414T1960 469Q1883 469
1828 415T1772 285Z" />
<glyph unicode="&#x2039;" glyph-name="guilsinglleft" horiz-adv-x="796" d="M82 506L670 975L725 844L303 504L592 168L487 37L82 506Z" />
<glyph unicode="&#x203a;" glyph-name="guilsinglright" horiz-adv-x="798" d="M72 168L492 504L205 844L309 975L717 506L127 37L72 168Z" />
<glyph unicode="&#x2044;" glyph-name="fraction" horiz-adv-x="1044" d="M-8 0L946 1386L1087 1331L166 0H-8Z" />
<glyph unicode="&#x20ac;" glyph-name="Euro" horiz-adv-x="1230" d="M-6 438L18 580H129Q133 631 164 750H51L80 891H211Q317 1119 508 1248T918 1378Q1008 1378 1097 1356T1243 1292L1165 1141Q1059 1237 874 1237Q731 1237 598 1142T381 891H1030L954 750H319Q291
652 283 580H866L793 438H283Q290 283 387 200T651 117Q732 117 830 153T1010 248L979 76Q797 -27 598 -27Q395 -27 262 98T121 438H-6Z" />
<glyph unicode="&#x2122;" glyph-name="trademark" horiz-adv-x="1642" d="M131 1346L150 1444H782L764 1346H518L406 768L399 674H242L373 1346H131ZM700 674L829 1333L836 1444H915L1161 963L1561 1444H1649L1518 768L1511 674H1354L1444 1135L1112 739L903
1128L834 768L827 674H700Z" />
<glyph unicode="&#x2202;" glyph-name="partialdiff" horiz-adv-x="24" d="M0 0V1421H25V0H0Z" />
<glyph unicode="&#xfb00;" glyph-name="uniFB00" horiz-adv-x="1236" d="M-193 -354Q-73 -354 3 -269T104 -23L238 868H109L131 1008H258L279 1137Q296 1242 345 1320Q395 1400 465 1448T616 1520T782 1544Q943 1544 1055 1479Q1139 1544 1262 1544Q1379 1544
1485 1475L1393 1333Q1336 1382 1255 1382Q1191 1382 1141 1333T1077 1194L1049 1008H1335L1251 868H1028L895 -23Q863 -237 752 -366T473 -496L426 -354Q546 -354 622 -269T723 -23L856 868H410L276 -23Q244 -237 134 -366Q23 -495 -145 -496L-193 -354ZM430 1008H877L899
1157Q915 1265 948 1335Q866 1395 774 1395Q629 1395 550 1326T453 1153L430 1008Z" />
<glyph unicode="&#xfb01;" glyph-name="uniFB01" horiz-adv-x="1153" d="M-193 -354Q-73 -354 3 -269T104 -23L238 868H109L131 1008H258L279 1137Q296 1242 345 1320Q395 1400 465 1448T616 1520T782 1544Q853 1544 916 1531T1018 1498T1086 1459T1127 1426L1139
1413L1038 1251Q1034 1257 1026 1266T991 1301T935 1345T862 1379T774 1395Q629 1395 550 1326T453 1153L430 1008H874L1077 1030L905 154L897 0H705L864 819L866 868H410L276 -23Q244 -237 134 -366Q23 -495 -145 -496L-193 -354Z" />
<glyph unicode="&#xfb02;" glyph-name="uniFB02" horiz-adv-x="1138" d="M-193 -354Q-73 -354 3 -269T104 -23L238 868H109L131 1008H258L279 1137Q296 1242 344 1320Q393 1400 462 1448T611 1520T776 1544Q819 1544 872 1532T1016 1492T1157 1450L901 154L891
0H700L961 1333Q949 1340 929 1350T858 1378T768 1395Q623 1395 544 1326Q466 1258 449 1153L426 1008H713L627 868H410L276 -23Q244 -237 134 -366Q23 -495 -145 -496L-193 -354Z" />
<glyph unicode="&#xfb03;" glyph-name="uniFB03" horiz-adv-x="1771" d="M-193 -354Q-73 -354 3 -269T104 -23L238 868H109L131 1008H258L279 1137Q296 1242 345 1320Q395 1400 465 1448T616 1520T782 1544Q972 1544 1094 1454Q1227 1544 1401 1544Q1472 1544
1535 1531T1637 1498T1704 1459T1745 1426L1757 1413L1657 1251Q1653 1257 1645 1266T1610 1301T1554 1345T1481 1379T1393 1395Q1248 1395 1168 1326T1071 1153L1049 1008H1493L1696 1030L1524 154L1516 0H1323L1483 819L1485 868H1028L895 -23Q863 -237 752 -366T473
-496L426 -354Q546 -354 622 -269T723 -23L856 868H410L276 -23Q244 -237 134 -366Q23 -495 -145 -496L-193 -354ZM430 1008H877L897 1137Q911 1236 965 1323Q877 1395 774 1395Q629 1395 550 1326T453 1153L430 1008Z" />
<glyph unicode="&#xfb04;" glyph-name="uniFB04" horiz-adv-x="1757" d="M-193 -354Q-73 -354 3 -269T104 -23L238 868H109L131 1008H258L279 1137Q296 1242 345 1320Q395 1400 465 1448T616 1520T782 1544Q974 1544 1092 1454Q1225 1544 1395 1544Q1438 1544
1491 1532T1635 1492T1776 1450L1520 154L1509 0H1319L1579 1333Q1567 1340 1547 1350T1476 1378T1386 1395Q1241 1395 1162 1326Q1084 1258 1067 1153L1044 1008H1331L1245 868H1028L895 -23Q863 -237 752 -366T473 -496L426 -354Q546 -354 622 -269T723 -23L856
868H410L276 -23Q244 -237 134 -366Q23 -495 -145 -496L-193 -354ZM430 1008H877L897 1137Q911 1236 965 1323Q874 1395 774 1395Q629 1395 550 1326T453 1153L430 1008Z" />
</font>
</defs>
</svg>
