<?xml version="1.0" standalone="no"?> <!DOCTYPE svg PUBLIC "-//W3C//DTD SVG 1.0//EN" "http://www.w3.org/TR/2001/REC-SVG-20010904/DTD/svg10.dtd" > <svg xmlns="http://www.w3.org/2000/svg" width="100%" height="100%">
<defs >
<font id="GentiumBasic" horiz-adv-x="1028" ><font-face
    font-family="Gentium Basic"
    units-per-em="2048"
    panose-1="2 0 5 3 6 0 0 2 0 4"
    ascent="2169"
    descent="-725"
    alphabetic="0" />
<missing-glyph horiz-adv-x="1400" d="M100 0V1800H1300V0H100ZM150 50H1250V1750H150V50Z" />
<glyph unicode=" " glyph-name="space" horiz-adv-x="451" />
<glyph unicode="!" glyph-name="exclam" horiz-adv-x="557" d="M152 72Q152 106 163 135T193 187T237 223T291 236Q341 236 365 207T390 123Q390 88 380 59T351 7T307 -27T252 -40Q198 -40 175 -11T152 72ZM176 1398Q214 1423 256 1444T332 1480L375 1455L326
389Q307 375 292 367T252 350L223 371L176 1398Z" />
<glyph unicode="&quot;" glyph-name="quotedbl" horiz-adv-x="870" d="M160 1426Q171 1432 192 1440T236 1457L278 1472Q298 1478 309 1480L352 1459L309 834Q301 830 290 826T265 819T239 815T213 813L160 1426ZM518 1426Q529 1432 549 1440T593 1457L636 1472Q657
1478 668 1480L711 1459L668 834Q660 830 649 826T624 819T597 815T571 813L518 1426Z" />
<glyph unicode="#" glyph-name="numbersign" horiz-adv-x="961" d="M87 500Q92 520 100 545T117 590H289L362 846H218L193 870Q198 892 207 916L224 961H395L478 1251Q500 1267 522 1275T566 1292L595 1270L506 961H694L777 1251Q799 1267 822 1275L867 1292L894
1270L806 961H957L982 936Q977 914 968 889T951 846H773L700 590H851L873 563Q868 543 861 518T845 475H667L580 170Q562 156 538 146T488 127L462 147L555 475H366L279 170Q261 156 238 146T189 127L163 147L256 475H109L87 500ZM399 590H588L661 846H473L399
590Z" />
<glyph unicode="$" glyph-name="dollar" horiz-adv-x="961" d="M88 158T88 195T91 272T102 340L145 336Q193 233 267 180T432 114V593Q370 616 311 641T204 701T127 787T98 911Q98 953 114 1001T170 1092T273 1167T432 1210V1356Q446 1364 452 1368T463 1374T474
1378T496 1384L522 1362V1214Q568 1213 611 1207T693 1188T761 1160T811 1124Q817 1117 810 1099T788 1059T757 1016T727 983L688 991Q648 1037 606 1065T522 1105V728Q584 704 645 676T754 608T832 512T862 377Q862 317 841 255T776 140T670 48T522 -4V-143Q513
-151 507 -155T494 -163T479 -168T459 -174L432 -152V-10Q384 -9 343 -3T263 16T185 48T102 96Q95 101 92 129ZM225 958Q225 920 241 892T285 840T351 799T432 763V1115Q374 1113 335 1099T271 1062T236 1013T225 958ZM522 113Q562 118 599 135T664 180T710 244T727
324Q727 371 711 407T667 470T602 519T522 558V113Z" />
<glyph unicode="%" glyph-name="percent" horiz-adv-x="1413" d="M76 828T76 897T100 1027T164 1134T258 1207T369 1234Q429 1234 478 1208T562 1135T617 1028T637 897Q637 828 613 767T549 659T455 585T342 558T235 585T151 658T96 766ZM199 1L1055 1188Q1083
1205 1120 1217T1188 1237L1217 1204L358 17Q349 10 332 3T294 -12L254 -24L223 -34L199 1ZM221 920Q221 848 232 795T262 708T309 656T369 639Q393 639 415 654T455 699T482 773T492 877Q492 948 480 1000T446 1086T398 1136T342 1153Q320 1153 299 1139T260 1095T232
1023T221 920ZM778 240T778 309T802 439T867 547T961 619T1071 646Q1131 646 1180 620T1264 548T1318 441T1337 309Q1337 240 1313 179T1249 71T1156 -3T1044 -30T937 -3T853 70T798 178ZM924 332Q924 260 935 207T965 120T1012 68T1071 51Q1096 51 1118 66T1157
111T1184 185T1194 289Q1194 359 1182 411T1148 497T1100 548T1044 565Q1022 565 1001 551T962 507T935 435T924 332Z" />
<glyph unicode="&amp;" glyph-name="ampersand" horiz-adv-x="1366" d="M80 352Q80 408 100 466T158 581T252 693T380 799Q351 870 334 938T317 1073Q317 1154 344 1223T416 1342T519 1421T641 1450Q705 1450 748 1430T818 1375T856 1297T868 1204Q868 1099 802
1008Q739 918 618 842L582 818L549 796Q584 731 627 666T719 538T819 416T922 305Q954 355 970 406T987 502Q987 544 973 581T937 645T885 689T827 705L805 733Q816 746 837 761T879 784H1323L1346 748Q1321 717 1297 697T1247 659Q1229 668 1206 675T1160 687T1114
696T1075 700Q1086 682 1092 667T1102 633T1107 594T1108 543Q1108 472 1077 393T989 239Q1058 173 1116 127Q1154 95 1198 85T1300 88L1309 45Q1222 7 1163 -11T1081 -30T1004 10T877 119Q799 53 703 12T498 -30Q405 -30 328 -6T196 67T111 186T80 352ZM242 373Q242
303 266 249T330 159T421 103T528 84Q613 84 684 111T812 183L709 296Q656 356 606 422T509 560T425 703Q374 659 339 618T283 537T252 456T242 373ZM444 1130Q444 1072 461 1009T508 879Q576 918 619 956T686 1031T720 1103T729 1171Q729 1206 720 1237T694 1291T650
1329T588 1343Q552 1343 525 1325T480 1276T453 1208T444 1130Z" />
<glyph unicode="&apos;" glyph-name="quotesingle" horiz-adv-x="512" d="M160 1426Q171 1432 192 1440T236 1457L278 1472Q298 1478 309 1480L352 1459L309 834Q301 830 290 826T265 819T239 815T213 813L160 1426Z" />
<glyph unicode="(" glyph-name="parenleft" horiz-adv-x="649" d="M121 623Q121 787 153 940T246 1222T390 1448T578 1600L610 1555Q545 1501 487 1413T386 1209T317 952T291 651Q291 505 312 367T374 108T474 -110T610 -270L578 -315Q465 -263 380 -170T237 47T150
317T121 623Z" />
<glyph unicode=")" glyph-name="parenright" horiz-adv-x="649" d="M41 -270Q105 -216 163 -128T265 76T334 333T360 635Q360 780 339 918T278 1178T178 1396T41 1555L72 1600Q185 1549 270 1456T414 1239T501 970T530 664Q530 499 497 346T404 63T260 -163T72
-315L41 -270Z" />
<glyph unicode="*" glyph-name="asterisk" horiz-adv-x="915" d="M70 993L396 1133L94 1262Q95 1274 95 1289T97 1321T100 1351T106 1376L141 1399L426 1187L387 1513L412 1526L440 1540Q455 1547 469 1552T494 1561L530 1540L489 1188L750 1384L800 1352Q828
1334 844 1317L846 1276L520 1135L821 1006Q819 981 818 947T809 891L772 868L490 1079L528 756L504 742Q491 735 476 728L448 716Q435 711 424 709L385 727L427 1079L166 883L142 898L115 916L90 934Q79 942 72 950L70 993Z" />
<glyph unicode="+" glyph-name="plus" horiz-adv-x="840" d="M61 531Q66 551 74 574T92 617H362V891Q381 897 406 906T453 920L477 897V617H754L778 593Q773 573 765 549T748 507H477V236Q457 226 433 218T387 205L362 227V507H86L61 531Z" />
<glyph unicode="," glyph-name="comma" horiz-adv-x="469" d="M88 139Q97 151 126 166T189 196T257 220T309 229Q357 206 373 167T390 70Q390 31 375 -18T330 -118T260 -217T166 -305L121 -270Q149 -238 168 -208T201 -146T220 -79T226 0Q226 44 197 70T104 92L88 139Z" />
<glyph unicode="-" glyph-name="hyphen" horiz-adv-x="690" d="M61 479Q66 501 74 525T92 570H604L629 546Q623 524 615 498T598 455H86L61 479Z" />
<glyph unicode="." glyph-name="period" horiz-adv-x="469" d="M131 72Q131 106 142 135T172 187T216 223T270 236Q320 236 344 207T369 123Q369 88 359 59T330 7T286 -27T231 -40Q177 -40 154 -11T131 72Z" />
<glyph unicode="/" glyph-name="slash" horiz-adv-x="961" d="M49 -310L750 1551Q777 1568 810 1580T872 1600L909 1578L211 -284Q201 -291 185 -298T151 -312L116 -325L86 -335L49 -310Z" />
<glyph unicode="0" glyph-name="zero" horiz-adv-x="961" d="M76 473T76 602T107 846T193 1047T327 1184T500 1235T667 1185T787 1049T860 848T885 602Q885 473 855 358T769 157T635 21T461 -30T294 20T174 157T101 358ZM240 645Q240 508 260 403T314 228T396
121T500 85Q552 85 593 112T662 198T706 347T721 565Q721 702 700 806T642 979T559 1084T461 1120T369 1093T300 1008T256 860T240 645Z" />
<glyph unicode="1" glyph-name="one" horiz-adv-x="961" d="M139 1075Q181 1087 238 1108T355 1153T467 1202T553 1245L590 1210V143Q590 133 601 122T640 98T716 74T840 53V0H170V53Q248 62 300 73T383 97T427 120T440 143V940Q440 980 437 1002T422 1038Q416
1044 399 1048T351 1051T273 1044T160 1024L139 1075Z" />
<glyph unicode="2" glyph-name="two" horiz-adv-x="961" d="M98 74L306 318L457 506Q520 587 561 648T626 758T659 846T668 924Q668 970 657 1010T622 1081T560 1128T467 1145Q426 1145 392 1125T333 1075T294 1007T280 934Q263 925 250 917T222 903T192 892T152
885L125 915Q125 967 160 1023T253 1127T384 1204T535 1235Q595 1235 647 1218T739 1167T800 1079T823 952Q823 907 810 862T770 765T699 650T593 510L450 337L266 121H684Q701 121 714 128T738 148T756 177T769 210Q781 249 786 299L836 287L821 0H127L98 74Z"
/>
<glyph unicode="3" glyph-name="three" horiz-adv-x="961" d="M68 119L102 186Q147 152 184 130T255 95T322 76T393 70Q454 70 504 89T590 145T645 232T665 348Q665 423 642 475T582 561T500 608T410 623H389Q383 623 378 622T365 620T342 616L328 676Q420 701
475 734T559 802T598 873T608 940Q608 974 598 1010T565 1077T508 1126T426 1145Q386 1145 355 1131T302 1093T273 1038T270 973Q236 956 205 947T131 934L104 965Q104 1007 135 1054T218 1142T338 1208T483 1235Q558 1235 611 1211T700 1148T751 1059T768 958Q768
920 753 883T711 812T644 749T555 698Q612 691 661 664T747 594T804 497T825 381Q825 297 798 222T718 91T587 3T406 -30Q367 -30 326 -23T243 1T157 47T68 119Z" />
<glyph unicode="4" glyph-name="four" horiz-adv-x="961" d="M55 383L551 1174Q593 1192 626 1211T688 1245L725 1210V460H848L874 430Q853 398 836 383T795 350H725V104Q725 96 731 90T753 76T796 60T864 43V0H375V43Q440 54 481 63T545 81T576 98T585 115V350H88L55
383ZM213 460H585V1040L213 460Z" />
<glyph unicode="5" glyph-name="five" horiz-adv-x="961" d="M78 119L113 186Q166 149 209 127T290 92T358 75T418 70Q483 70 531 95T612 161T660 256T676 367Q676 435 660 491T610 586T525 648T403 670Q382 670 355 665T299 650T240 625T184 590L137 623L151
706L168 807L184 916Q193 971 200 1023T212 1123T219 1205H655Q684 1205 706 1207T744 1214Q762 1218 776 1223L805 1194Q794 1178 780 1161T750 1127T721 1098T694 1075H307Q305 1046 300 1001T289 908T275 818T264 754Q304 766 358 773T463 780Q554 780 623 750T740
668T811 550T836 410Q836 323 810 244T733 103T608 6T440 -30Q347 -30 256 4T78 119Z" />
<glyph unicode="6" glyph-name="six" horiz-adv-x="961" d="M110 473Q110 614 150 743T275 977T486 1152T788 1249L807 1190Q689 1163 598 1109T441 982T335 825T279 650Q314 684 350 707T421 744T487 764T541 770Q622 770 685 745T791 674T858 561T881 412Q881
365 871 314T839 214T786 121T713 44T619 -10T506 -30Q424 -30 352 6T226 109T141 267T110 473ZM270 536Q270 417 289 331T345 187T432 103T545 75Q599 75 634 100T691 165T722 253T731 348Q731 442 709 502T652 598T578 646T500 660Q449 660 388 632T270 536Z"
/>
<glyph unicode="7" glyph-name="seven" horiz-adv-x="961" d="M104 948Q107 971 112 1006T123 1078L135 1148Q141 1183 147 1205H852L885 1167L792 949L700 732L615 524L540 334L477 171Q449 97 432 44Q397 19 359 1T270 -30L229 3Q316 156 385 295T513 564L625
821L733 1075H279Q264 1075 250 1074T221 1061T189 1018T150 930L104 948Z" />
<glyph unicode="8" glyph-name="eight" horiz-adv-x="961" d="M94 285Q94 339 112 389T165 485T248 571T357 644Q314 664 276 688T208 744T162 817T145 915Q145 984 172 1043T248 1144T361 1211T502 1235T635 1215T734 1160T796 1076T817 969Q817 927 802 890T759
818T695 751T613 688Q663 664 709 635T790 565T846 473T867 352Q867 274 834 205T744 84T612 1T451 -30Q365 -30 299 -4T187 66T118 166T94 285ZM254 315Q254 263 271 218T320 140T397 89T500 70Q555 70 594 91T659 146T695 222T707 309Q707 375 684 422T622 503T535
562T434 610Q386 575 352 542T297 473T265 399T254 315ZM275 950Q275 906 296 874T354 816T436 768L533 725Q606 778 636 831T667 938Q667 990 652 1028T608 1092T540 1129T451 1141Q406 1141 373 1124T319 1080T286 1018T275 950Z" />
<glyph unicode="9" glyph-name="nine" horiz-adv-x="961" d="M100 795Q100 845 113 897T152 999T214 1091T296 1166T394 1216T506 1235Q576 1235 641 1206T758 1116T839 959T870 731Q870 579 829 449T704 218T492 50T190 -43L172 16Q305 49 401 103T562 228T660
388T705 577Q678 547 646 523T580 481T509 455T438 445Q358 445 296 471T190 545T123 656T100 795ZM250 856Q250 764 272 706T329 614T403 568T481 555Q550 555 608 593T709 694Q707 819 684 903T625 1037T548 1109T465 1130Q414 1130 374 1110T307 1053T265 966T250
856Z" />
<glyph unicode=":" glyph-name="colon" horiz-adv-x="469" d="M131 72Q131 106 142 135T172 187T216 223T270 236Q320 236 344 207T369 123Q369 88 359 59T330 7T286 -27T231 -40Q177 -40 154 -11T131 72ZM131 797Q131 831 142 860T172 912T216 948T270 961Q320
961 344 932T369 848Q369 813 359 784T330 732T286 698T231 685Q177 685 154 714T131 797Z" />
<glyph unicode=";" glyph-name="semicolon" horiz-adv-x="469" d="M88 139Q97 151 126 166T189 196T257 220T309 229Q357 206 373 167T390 70Q390 31 375 -18T330 -118T260 -217T166 -305L121 -270Q149 -238 168 -208T201 -146T220 -79T226 0Q226 44 197 70T104
92L88 139ZM131 797Q131 831 142 860T172 912T216 948T270 961Q320 961 344 932T369 848Q369 813 359 784T330 732T286 698T231 685Q177 685 154 714T131 797Z" />
<glyph unicode="&lt;" glyph-name="less" horiz-adv-x="899" d="M61 530Q61 532 61 533T62 536L65 545Q65 547 67 553L70 566L73 574Q74 577 74 580T77 587L79 595L85 613L90 625L92 629L813 899L838 874L832 850L824 823L816 796L809 774L254 568L821 358L838
322L818 304Q810 296 800 288L780 273Q769 265 754 256L86 506L61 530Z" />
<glyph unicode="=" glyph-name="equal" horiz-adv-x="899" d="M61 382Q66 402 74 423T92 465H813L838 440Q833 419 824 397T809 355H86L61 382ZM61 680Q66 700 74 723T92 765H813L838 740Q833 720 824 696L809 655H86L61 680Z" />
<glyph unicode="&gt;" glyph-name="greater" horiz-adv-x="899" d="M61 281L68 304L76 331Q80 345 84 357T92 379L643 585L78 795L61 834L106 868Q127 884 145 899L815 649L838 625Q833 606 825 577T807 524L86 256L61 281Z" />
<glyph unicode="?" glyph-name="question" horiz-adv-x="887" d="M80 1136V1153Q80 1223 114 1283T207 1387T342 1455T502 1480Q575 1480 632 1457T727 1393T786 1293T806 1165Q806 1090 783 1030T723 918T645 819T566 721T501 613T469 485L463 389Q444 375 430
366T387 348L362 369L354 485Q351 542 371 598T423 709T493 817T565 922T620 1022T642 1120Q642 1244 586 1314T424 1384Q388 1384 356 1368T298 1324T259 1261T244 1186Q244 1172 247 1157T256 1128Q224 1111 189 1103T109 1090L82 1120Q80 1128 80 1136ZM301
72Q301 106 312 135T342 187T386 223T440 236Q490 236 514 207T539 123Q539 88 529 59T500 7T456 -27T401 -40Q347 -40 324 -11T301 72Z" />
<glyph unicode="@" glyph-name="at" horiz-adv-x="1653" d="M70 465Q70 578 100 686T187 891T321 1069T494 1208T698 1300T924 1333Q1073 1333 1194 1283T1402 1133T1536 888T1583 549Q1583 462 1564 386T1511 245T1434 130T1343 44T1248 -11T1157 -30Q1133 -30
1111 -20T1071 14T1040 73T1020 162Q979 105 948 68T886 9T825 -21T754 -30Q703 -30 651 2T556 96T487 245T460 444Q460 501 473 562T513 680T577 788T662 877T767 938T889 960Q912 960 931 957T968 943T1008 915T1055 868Q1081 884 1108 906T1163 960L1194 930Q1185
901 1179 868Q1173 839 1169 802T1164 723V285Q1164 195 1194 152T1272 109Q1297 109 1330 140T1392 226T1442 354T1463 512Q1463 680 1420 811T1301 1031T1118 1166T885 1213Q783 1213 694 1187T531 1115T400 1004T302 864T241 701T220 524Q220 403 245 299T316
108T425 -46T565 -160T727 -231T903 -255Q987 -255 1067 -238T1217 -194T1339 -138T1423 -82L1450 -137Q1414 -175 1357 -217T1224 -294T1055 -352T854 -375Q682 -375 538 -316T290 -148T128 117T70 465ZM610 475Q610 390 630 321T682 202T752 127T825 100Q844
100 862 106T901 130T949 176T1014 250V731Q986 787 952 818T858 850Q803 850 758 827T679 756T628 639T610 475Z" />
<glyph unicode="A" glyph-name="A" horiz-adv-x="1219" d="M0 0V43Q68 55 108 68T158 111L530 1237Q553 1262 587 1282T647 1317L1067 111Q1072 97 1081 86T1105 67T1143 53T1198 43V0H776V43Q854 48 884 63T903 111L789 445H381L270 111Q260 80 297 66T416 43V0H0ZM411
535H758L582 1049L411 535Z" />
<glyph unicode="B" glyph-name="B" horiz-adv-x="1126" d="M41 1230Q80 1241 131 1251T240 1270T356 1284T469 1290Q569 1290 650 1272T787 1218T874 1133T905 1020Q905 912 854 835T715 723Q779 711 834 678T929 597T993 487T1016 356Q1016 271 983 203T889 86T744
12T559 -14Q537 -14 507 -14T441 -12L369 -10Q332 -9 297 -7Q214 -4 123 0H50V43Q118 57 156 73T195 104V1190Q157 1185 121 1180T50 1168L41 1230ZM355 104Q355 96 364 89Q381 83 403 80T448 74T494 71T537 70Q609 70 667 88T766 140T830 219T852 322Q852 377
833 435T773 541T670 619T520 650Q472 650 432 646T355 635V104ZM355 725H389Q503 725 573 747T683 805T736 884T750 971Q750 1021 734 1064T678 1138T575 1188T413 1206Q399 1206 385 1206T355 1204V725Z" />
<glyph unicode="C" glyph-name="C" horiz-adv-x="1098" d="M70 586Q70 746 118 876T250 1098T443 1240T676 1290Q784 1290 865 1261T999 1190Q1005 1185 996 1170T972 1136T938 1098L909 1067L874 1073Q823 1120 753 1150T592 1180Q558 1180 518 1168T436 1128T357
1058T290 952T243 809T225 623Q225 490 263 390T362 224T497 124T643 90Q697 90 784 127T981 256Q986 254 991 248T1002 234T1011 221T1018 211Q954 143 896 97T783 22T676 -18T571 -30Q478 -30 389 12T228 133T114 326T70 586Z" />
<glyph unicode="D" glyph-name="D" horiz-adv-x="1214" d="M41 1230Q85 1242 142 1253T264 1272T393 1285T518 1290Q657 1290 769 1249T959 1128T1080 935T1123 676Q1123 551 1098 453T1029 279T930 151T810 65T683 16T559 0H50V43Q118 57 156 73T195 104V1188Q155
1183 119 1178L50 1168L41 1230ZM355 154Q355 132 365 118Q379 101 419 93T537 84Q606 84 679 117T814 219T914 392T953 637Q953 770 920 875T824 1054T667 1167T453 1206Q403 1206 355 1203V154Z" />
<glyph unicode="E" glyph-name="E" horiz-adv-x="1016" d="M50 0V43Q118 57 156 73T195 104V1155Q195 1167 159 1185T50 1217V1260H856L889 1235Q887 1209 883 1178T873 1116T861 1057T848 1010H803Q801 1056 795 1087T778 1136T754 1162T721 1170H355V735H760L786
707Q778 693 767 677T743 646T718 617T694 596Q679 611 662 621T622 638T569 648T496 651H355V154Q355 139 362 128T391 108T453 95T559 90H688Q734 90 766 95T824 117T869 169T911 262L954 244Q946 158 934 94T913 0H50Z" />
<glyph unicode="F" glyph-name="F" horiz-adv-x="979" d="M50 0V43Q118 57 156 73T195 104V1155Q195 1167 159 1185T50 1217V1260H866L897 1235Q896 1209 892 1178T883 1116T871 1057T858 1010H811Q809 1056 804 1087T788 1136T763 1162T729 1170H355V735H729L758
707Q749 693 737 677T712 646T687 617T664 596Q649 611 632 621T593 638T540 648T467 651H355V104Q355 92 393 77T530 43V0H50Z" />
<glyph unicode="G" glyph-name="G" horiz-adv-x="1194" d="M70 582Q70 748 122 879T266 1102T478 1242T737 1290Q770 1290 809 1283T890 1263T970 1231T1042 1188Q1049 1183 1040 1169T1015 1136T978 1100L946 1071L913 1077Q880 1108 845 1128T772 1160T690 1175T598
1180Q573 1180 536 1169T457 1132T374 1065T300 963T246 822T225 637Q225 498 262 395T359 225T494 124T645 90Q718 90 779 104T890 146V485Q890 496 881 506T848 527T785 547T684 567V610H1145V567Q1088 553 1064 531T1040 485V154Q966 93 908 57T800 2T707 -24T618
-30Q517 -30 419 7T244 121T118 312T70 582Z" />
<glyph unicode="H" glyph-name="H" horiz-adv-x="1339" d="M50 0V43Q118 57 156 73T195 104V1155Q195 1167 159 1185T50 1217V1260H500V1217Q432 1203 394 1186T355 1155V705H965V1155Q965 1167 929 1185T820 1217V1260H1270V1217Q1202 1203 1164 1186T1125 1155V104Q1125
92 1161 75T1270 43V0H820V43Q888 57 926 73T965 104V615H355V104Q355 92 391 75T500 43V0H50Z" />
<glyph unicode="I" glyph-name="I" horiz-adv-x="610" d="M70 0V43Q138 57 176 73T215 104V1155Q215 1167 179 1185T70 1217V1260H520V1217Q452 1203 414 1186T375 1155V104Q375 92 411 75T520 43V0H70Z" />
<glyph unicode="J" glyph-name="J" horiz-adv-x="625" d="M-190 -300Q-190 -292 -177 -277T-146 -247T-108 -219T-74 -200Q-46 -218 -25 -229T14 -247T48 -255T84 -257Q110 -257 139 -240T193 -180T234 -60T250 133V1155Q250 1161 242 1168T213 1183T153 1199T55
1217V1260H555V1217Q487 1203 449 1186T410 1155V205Q410 86 394 7T350 -128T286 -219T211 -288Q184 -310 152 -327T86 -356T24 -374T-25 -380Q-55 -380 -85 -371T-138 -349T-175 -323T-190 -300Z" />
<glyph unicode="K" glyph-name="K" horiz-adv-x="1184" d="M50 0V43Q118 57 156 73T195 104V1155Q195 1167 159 1185T50 1217V1260H500V1217Q432 1203 394 1186T355 1155V646L764 1128Q787 1155 793 1171T789 1196T754 1209T690 1217V1260H1110V1217Q1078 1213
1053 1209T1008 1199T972 1182T940 1155L502 671L985 127Q1003 107 1023 96T1067 81T1116 76T1167 80L1174 37Q1115 18 1056 2T948 -14Q919 -14 897 -5T854 29L355 639V104Q355 92 391 75T500 43V0H50Z" />
<glyph unicode="L" glyph-name="L" horiz-adv-x="975" d="M50 0V43Q118 57 156 73T195 104V1155Q195 1167 159 1185T50 1217V1260H500V1217Q432 1203 394 1186T355 1155V164Q355 146 363 133T393 110T450 95T541 90H684Q730 90 761 95T817 117T860 169T901 262L944
244Q936 157 924 93T903 0H50Z" />
<glyph unicode="M" glyph-name="M" horiz-adv-x="1651" d="M60 0V43Q129 57 167 73T205 104L215 1177Q177 1199 139 1208T70 1217V1260H356Q366 1260 373 1257T386 1245T400 1220L420 1176L818 274L1200 1176Q1213 1206 1221 1223T1235 1248T1248 1258T1264 1260H1550V1217Q1521
1217 1486 1208T1415 1181L1425 104Q1425 92 1461 75T1570 43V0H1115V43Q1183 57 1226 73T1270 104L1261 1040L823 0H774L329 1033L320 104Q320 92 356 75T465 43V0H60Z" />
<glyph unicode="N" glyph-name="N" horiz-adv-x="1329" d="M50 0V43Q124 52 159 71T195 104V1149Q162 1180 126 1195T50 1217V1260H262Q277 1260 286 1258T306 1247T328 1224L358 1182L1015 276V1155Q1015 1167 983 1186T870 1217V1260H1280V1217Q1208 1207 1172
1188T1135 1155V-30Q1085 -24 1057 -10T1016 21L315 993V104Q315 92 348 73T460 43V0H50Z" />
<glyph unicode="O" glyph-name="O" horiz-adv-x="1229" d="M70 612Q70 748 114 871T234 1087T412 1235T633 1290Q757 1290 851 1236T1009 1091T1105 885T1138 647Q1138 511 1093 389T971 173T791 25T575 -30Q455 -30 361 23T203 165T104 370T70 612ZM225 641Q225
529 255 429T337 254T458 134T604 90Q687 90 756 124T876 227T955 396T983 629Q983 698 971 765T935 893T879 1005T803 1094T711 1153T604 1175Q515 1175 445 1138T326 1031T251 862T225 641Z" />
<glyph unicode="P" glyph-name="P" horiz-adv-x="1071" d="M41 1230Q89 1243 145 1254T263 1273T386 1285T510 1290Q618 1290 705 1267T853 1199T948 1088T982 936Q982 867 963 810T911 709T836 632T749 578T658 546T573 535Q479 535 412 565L389 640Q431 621
469 616T543 610Q589 610 639 628T731 682T800 771T827 895Q827 977 798 1036T717 1132T598 1188T453 1206Q428 1206 404 1206T355 1204V104Q355 98 363 91T390 76T444 60T530 43V0H50V43Q118 57 156 73T195 104V1190Q158 1185 122 1180T50 1168L41 1230Z" />
<glyph unicode="Q" glyph-name="Q" horiz-adv-x="1229" d="M70 612Q70 748 114 871T234 1087T412 1235T633 1290Q757 1290 851 1236T1009 1091T1105 885T1138 647Q1138 541 1110 442T1032 260T914 112T765 12Q811 -12 856 -42T945 -98T1030 -142T1108 -160Q1120
-160 1133 -156T1164 -143T1203 -119L1255 -82L1282 -117Q1258 -161 1233 -195T1184 -254T1139 -292T1102 -305Q1040 -305 980 -275T859 -200L740 -110Q680 -62 620 -27Q597 -30 575 -30Q465 -30 372 21T212 159T108 363T70 612ZM225 641Q225 529 255 429T337 254T458
134T604 90Q687 90 756 124T876 227T955 396T983 629Q983 698 971 765T935 893T879 1005T803 1094T711 1153T604 1175Q515 1175 445 1138T326 1031T251 862T225 641Z" />
<glyph unicode="R" glyph-name="R" horiz-adv-x="1149" d="M41 1230Q88 1242 136 1252T236 1271T345 1285T469 1290Q585 1290 671 1267T814 1203T899 1107T927 987Q927 915 907 857T849 753T759 676T645 625L948 139Q963 117 980 104T1019 85T1067 78T1128 80L1139
37Q1073 15 1014 1T915 -14Q886 -14 859 2T817 41L514 602Q501 600 488 600H461Q435 600 409 602T355 611V104Q355 92 391 75T500 43V0H50V43Q118 57 156 73T195 104V1189L124 1178Q87 1173 50 1168L41 1230ZM355 691Q382 686 402 685T444 684Q602 684 687 753T772
956Q772 1011 753 1057T692 1136T586 1187T432 1206Q394 1206 355 1203V691Z" />
<glyph unicode="S" glyph-name="S" horiz-adv-x="975" d="M117 132T117 172T120 255T131 324L172 319Q195 260 229 217T306 146T396 104T496 90Q541 90 586 108T668 159T727 233T750 324Q750 385 723 429T653 507T553 568L438 622Q380 649 324 679T225 749T154
841T127 967Q127 998 136 1034T165 1106T216 1175T292 1234T395 1275T526 1290Q571 1290 616 1283T701 1264T773 1235T823 1198Q830 1192 824 1175T804 1137T774 1096T745 1065L709 1071Q681 1104 651 1126T589 1163T526 1184T467 1190Q411 1190 372 1173T307 1131T269
1074T257 1014Q257 967 284 931T355 864T456 806L571 750Q630 720 686 686T787 608T858 508T885 377Q885 332 873 285T837 193T776 107T690 36T578 -12T440 -30Q407 -30 368 -23T288 -4T207 27T131 68Q124 72 121 102Z" />
<glyph unicode="T" glyph-name="T" horiz-adv-x="1128" d="M10 1014Q15 1073 23 1140T43 1260H1053L1083 1235Q1081 1184 1073 1124T1053 1000H1008L990 1078Q983 1111 973 1131T950 1161T915 1170H631V115Q631 102 667 82T795 43V0H307V43Q353 52 384 62T435
81T462 99T471 115V1170H172Q157 1170 145 1165T120 1141T91 1088T53 995L10 1014Z" />
<glyph unicode="U" glyph-name="U" horiz-adv-x="1339" d="M50 1217V1260H500V1217Q432 1203 394 1186T355 1155V494Q355 398 377 322T444 194T554 113T705 85Q776 85 831 119T923 210T980 337T1000 483V1155Q1000 1167 964 1185T855 1217V1260H1275V1217Q1207
1203 1169 1186T1130 1155V524Q1130 393 1098 290T1006 116T860 8T666 -30Q563 -30 477 -2T328 85T230 233T195 444V1155Q195 1167 159 1185T50 1217Z" />
<glyph unicode="V" glyph-name="V" horiz-adv-x="1331" d="M20 1217V1260H455V1217Q375 1211 346 1197T327 1153L680 203L1016 1151Q1027 1180 992 1193T874 1217V1260H1290V1217Q1222 1204 1184 1192T1135 1151L752 59Q744 37 725 22T682 -4T637 -21T602 -30L162
1151Q152 1177 118 1193T20 1217Z" />
<glyph unicode="W" glyph-name="W" horiz-adv-x="1741" d="M20 1217V1260H449V1217Q400 1212 372 1205T330 1188T314 1169T313 1147L512 250L836 1260H891L1245 250L1432 1155Q1434 1167 1423 1176T1391 1192T1341 1205T1278 1217V1260H1702V1217Q1658 1208 1629
1200T1583 1185T1559 1170T1550 1155L1321 59Q1316 38 1300 23T1262 -3T1219 -20T1182 -30L856 944L569 59Q562 38 545 23T507 -2T462 -19T418 -30L158 1147Q153 1172 122 1188T20 1217Z" />
<glyph unicode="X" glyph-name="X" horiz-adv-x="1260" d="M31 0V43Q96 48 142 66T213 127L530 644L197 1133Q182 1155 168 1169T137 1192T97 1206T41 1217V1260H492V1217Q407 1209 381 1193T385 1133L632 770L858 1133Q872 1156 870 1170T851 1194T803 1209T727
1217V1260H1180V1217Q1144 1213 1116 1208T1065 1193T1027 1169T997 1133L706 662L1071 127Q1086 106 1101 92T1135 68T1177 53T1229 43V0H778V43Q822 47 849 53T888 69T899 93T883 127L604 535L352 127Q324 83 356 66T481 43V0H31Z" />
<glyph unicode="Y" glyph-name="Y" horiz-adv-x="1217" d="M0 1249Q59 1257 118 1263T219 1270Q265 1270 297 1231Q334 1183 377 1118T463 979T547 829L623 680L891 1151Q906 1177 882 1192T780 1217V1260H1176V1217Q1107 1204 1070 1190Q1034 1177 1020 1151L684
541V115Q684 109 692 101T720 82T771 62T850 43V0H360V43Q451 62 487 81T524 115V537Q487 618 440 706T344 877L249 1032Q203 1103 168 1151Q159 1162 148 1172T118 1189T73 1201T4 1206L0 1249Z" />
<glyph unicode="Z" glyph-name="Z" horiz-adv-x="1071" d="M59 45L770 1160H311Q295 1160 276 1149T239 1114T205 1053T178 963L121 975L150 1276Q177 1270 199 1267T243 1262T288 1260H956L981 1217L276 100H799Q820 100 837 109T869 142T901 205T936 307L991
293Q989 261 988 222L984 144L982 66Q980 29 979 0H88L59 45Z" />
<glyph unicode="[" glyph-name="bracketleft" horiz-adv-x="631" d="M140 -335V1600H555L588 1574Q583 1549 575 1523T561 1485H280V-220H555L590 -249Q585 -269 577 -293T561 -335H140Z" />
<glyph unicode="\" glyph-name="backslash" horiz-adv-x="961" d="M55 1578L92 1600Q150 1585 205 1551L905 -310L870 -335Q858 -331 842 -325L810 -312Q794 -306 780 -299T756 -284L55 1578Z" />
<glyph unicode="]" glyph-name="bracketright" horiz-adv-x="631" d="M41 1511Q44 1533 52 1558T68 1600H490V-335H76L43 -306Q46 -283 53 -258T68 -220H350V1485H76L41 1511Z" />
<glyph unicode="^" glyph-name="asciicircum" horiz-adv-x="1008" d="M100 592L422 1462Q434 1474 452 1486L487 1511Q505 1523 523 1533T555 1550L907 635Q882 612 859 597T801 565L764 592L481 1315L231 635Q220 625 206 615T177 595T148 578L123 565L100 592Z" />
<glyph unicode="_" glyph-name="underscore" horiz-adv-x="961" d="M61 -219Q66 -199 74 -175T92 -131H874L897 -156Q892 -177 884 -202T868 -246H86L61 -219Z" />
<glyph unicode="`" glyph-name="grave" horiz-adv-x="653" d="M30 1424L52 1465Q62 1467 82 1470L122 1478Q144 1482 165 1485T198 1489L438 1078Q429 1070 414 1061T382 1047L30 1424Z" />
<glyph unicode="a" glyph-name="a" horiz-adv-x="940" d="M80 186Q80 262 106 313T170 401Q194 425 224 446T305 488T432 526T623 561V702Q623 736 615 765T588 816T537 849T455 860Q423 859 392 849T338 821T302 779T292 724Q293 715 272 704T221 683T163 669T122
667L108 706Q131 756 178 802T285 883T413 939T544 960Q654 960 713 903T773 742V178Q773 136 784 118T813 100Q827 100 849 105T911 127L926 82Q841 23 786 -3T702 -30Q669 -30 647 16T623 143Q578 98 533 65T445 11T364 -20T293 -30Q257 -30 219 -18T151 20T100
87T80 186ZM244 229Q244 189 256 164T285 125T320 105T352 100Q412 100 479 130T623 227V486Q539 472 485 459T395 433T339 404T302 372Q276 345 260 311T244 229Z" />
<glyph unicode="b" glyph-name="b" horiz-adv-x="1040" d="M10 1430V1470Q76 1486 136 1502T253 1550L263 1540Q269 1534 275 1529L290 1516V727Q340 787 389 831T484 903T569 946T637 960Q705 960 762 928T861 836T926 688T950 492Q950 434 935 373T891 254T820
144T725 54T607 -7T469 -30Q450 -30 417 -22T340 3T245 42T140 96V1296Q140 1342 135 1367T116 1404T77 1421T10 1430ZM290 203Q330 173 371 153T450 122T518 105T567 100Q628 100 674 126T751 196T799 295T815 408Q815 508 795 585T740 716T660 797T567 825Q549
825 520 815T453 780T374 714T290 610V203Z" />
<glyph unicode="c" glyph-name="c" horiz-adv-x="895" d="M80 444Q80 552 119 646T227 809T389 919T590 960Q623 960 657 955T723 939T781 914T825 881Q827 869 822 847T808 801T788 754T768 717L731 727Q723 745 705 766T659 806T591 837T500 850Q447 850 399
827T313 756T253 639T230 475Q230 390 255 321T323 202T421 127T537 100Q565 100 589 102T641 118T707 157T801 231L840 190Q775 113 726 70T634 4T552 -24T465 -30Q392 -30 323 2T199 96T113 245T80 444Z" />
<glyph unicode="d" glyph-name="d" horiz-adv-x="1065" d="M80 444Q80 501 95 562T140 680T211 788T305 877T419 938T551 960Q598 960 644 949T745 897V1274Q745 1329 742 1361T725 1411T682 1435T600 1446V1485Q682 1496 747 1514T864 1550L895 1520V254Q895
219 896 194T901 152T908 124T918 106Q927 95 952 99T1038 127L1051 84Q1005 53 970 32T908 -3T862 -23T829 -30Q796 -30 775 15T747 169Q709 123 672 86T595 24T511 -16T416 -30Q360 -30 301 2T193 96T112 245T80 444ZM230 475Q230 390 254 321T317 202T400 127T487
100Q521 100 554 114T619 150T682 202L745 261V730Q712 787 652 818T520 850Q456 850 403 827T312 756T252 639T230 475Z" />
<glyph unicode="e" glyph-name="e" horiz-adv-x="946" d="M80 434Q80 501 95 566T138 689T208 796T301 881Q323 896 350 910T408 936T467 953T524 960Q589 960 640 942T729 894T793 823T835 737T859 646T866 557Q848 537 818 520T756 490H230Q231 412 251 342T310
218T403 132T526 100Q557 100 586 104T650 122T725 163T823 236Q836 229 845 216T860 195Q793 122 743 78T648 9T560 -22T465 -30Q388 -30 319 3T196 96T112 242T80 434ZM236 580H664Q687 580 694 587T702 616Q702 643 695 683T665 762T602 828T496 855Q444 855
401 835T324 779T268 692T236 580Z" />
<glyph unicode="f" glyph-name="f" horiz-adv-x="637" d="M45 863L123 930H200V961Q200 1079 216 1159T259 1295T323 1388Q358 1425 399 1458Q427 1480 458 1497Q490 1514 521 1526T581 1544T629 1550Q660 1550 693 1538T753 1511T799 1479T817 1454Q817 1446
803 1430T768 1397T727 1365T690 1343Q666 1364 642 1379T595 1405T553 1420T520 1425Q494 1425 465 1408T410 1344T367 1219T350 1016V930H608L637 901Q628 887 615 871T588 841T561 816T539 800Q516 812 473 823T350 835V102Q350 96 360 90T396 78T460 63T559
43V0H60V43Q129 55 164 72T200 102V835H66L45 863Z" />
<glyph unicode="g" glyph-name="g" horiz-adv-x="999" d="M30 -229Q30 -203 39 -175T78 -113T159 -42T297 42Q232 65 207 94T182 153Q182 161 187 174T207 207T251 252T326 309Q275 323 234 349T163 413T117 498T100 602Q100 675 133 740T220 854T343 931T485
960Q545 960 597 943T693 895Q745 900 787 908T862 925T922 943T969 960L989 930L966 878Q955 855 932 830Q894 823 858 819T775 813Q801 775 815 732T830 641Q830 564 796 501T705 392T578 321T434 295H430Q382 255 364 229T346 196Q346 184 356 173T395 151T474
130T602 110Q714 97 782 74Q853 50 895 19T953 -49T970 -120Q970 -175 949 -224T892 -316T807 -392T702 -450T586 -487T467 -500Q420 -500 370 -494T271 -473T179 -438T102 -386T50 -317T30 -229ZM180 -190Q180 -232 208 -269T283 -334T392 -378T522 -395Q589 -395
644 -377T738 -328T798 -253T820 -157Q820 -129 807 -106T760 -63T668 -29T518 -4Q476 1 448 5Q416 10 388 16Q316 -23 275 -54T212 -109T186 -154T180 -190ZM240 659Q240 606 256 559T306 476T391 421T514 400Q543 400 574 412T631 450T673 513T690 600Q690 653
673 700T621 783T535 839T416 860Q391 860 361 847T303 809T258 746T240 659Z" />
<glyph unicode="h" glyph-name="h" horiz-adv-x="1130" d="M55 0V43Q121 60 158 73T195 104V1298Q195 1340 192 1363T174 1400T131 1418T55 1430V1470Q97 1478 131 1486T195 1503T252 1524T308 1550L345 1516V684Q388 748 440 799T546 886T649 941T739 960Q782
960 822 947T892 907T941 839T960 741V104Q960 90 990 77T1100 43V0H670V43Q742 62 776 76T810 104V633Q810 694 803 732T779 792T739 822T682 830Q647 830 607 812T522 759T433 672T345 549V104Q345 89 382 73T485 43V0H55Z" />
<glyph unicode="i" glyph-name="i" horiz-adv-x="555" d="M70 0V43Q138 57 174 73T210 104V670Q210 721 208 752T193 801T152 827T70 840V880Q101 886 135 894T204 913T269 936T326 960H360V104Q360 92 393 75T500 43V0H70ZM190 1220Q190 1248 199 1273T224 1316T260
1345T305 1356Q390 1356 390 1261Q390 1233 381 1208T357 1165T320 1135T274 1124Q229 1124 210 1149T190 1220Z" />
<glyph unicode="j" glyph-name="j" horiz-adv-x="530" d="M-220 -431Q-220 -422 -206 -407T-171 -374T-130 -342T-93 -320Q-61 -348 -27 -356T45 -365Q74 -365 102 -347T154 -282T191 -157T205 43V670Q205 721 203 752T187 800T146 826T65 840V880Q107 887 139
896T201 914T258 936L318 960H355V99Q355 -16 341 -96T301 -233T240 -329T165 -400Q138 -421 108 -439T48 -471T-8 -492T-54 -500Q-85 -500 -114 -493T-167 -474T-205 -451T-220 -431ZM185 1220Q185 1248 194 1273T218 1316T255 1345T300 1356Q385 1356 385 1261Q385
1233 376 1208T352 1165T315 1135T270 1124Q225 1124 205 1149T185 1220Z" />
<glyph unicode="k" glyph-name="k" horiz-adv-x="1024" d="M55 0V43Q121 60 158 73T195 104V1296Q195 1342 190 1367T169 1404T126 1421T55 1430V1470Q124 1484 190 1502T308 1550L345 1516V530L653 799Q686 828 693 845T691 872T659 884T610 887V930H989V887Q945
882 908 870Q872 859 829 825L488 552L864 111Q878 95 893 85T926 68T966 61T1018 61L1024 18Q995 11 967 6T914 -2T870 -8T840 -10Q798 -10 773 2T725 43L345 522V104Q345 96 348 90T363 78T396 63T455 43V0H55Z" />
<glyph unicode="l" glyph-name="l" horiz-adv-x="555" d="M60 0V43Q103 50 132 57T178 72T202 88T210 104V1296Q210 1341 204 1366T182 1403T139 1420T70 1430V1470Q142 1484 202 1501T324 1550L360 1516V104Q360 89 394 73T510 43V0H60Z" />
<glyph unicode="m" glyph-name="m" horiz-adv-x="1645" d="M55 0V43Q121 60 158 73T195 104V711Q195 751 192 774T174 809T131 828T55 840V880Q93 886 125 894T186 913T242 935L295 960L330 925L341 696Q386 762 432 811T523 894T610 943T688 960Q736 960 776
949T846 910T893 837T910 725V704Q952 767 997 814T1086 894T1173 943T1253 960Q1301 960 1341 947T1411 907T1458 839T1475 741V104Q1475 90 1506 77T1616 43V0H1186V43Q1258 62 1291 76T1325 104V633Q1325 694 1319 734T1299 798T1264 830T1212 840Q1179 840
1142 822T1066 769T988 685T910 573V104Q910 90 941 77T1051 43V0H621V43Q693 62 726 76T760 104V633Q760 694 754 734T735 798T700 830T647 840Q579 840 505 770T345 573V104Q345 89 382 73T485 43V0H55Z" />
<glyph unicode="n" glyph-name="n" horiz-adv-x="1130" d="M55 0V43Q121 60 158 73T195 104V711Q195 750 192 773T176 809T134 828T55 840V880Q123 891 181 911T295 960L330 925L341 676Q385 743 438 795T545 884T649 940T739 960Q782 960 822 947T892 907T941
839T960 741V104Q960 90 990 77T1100 43V0H670V43Q742 62 776 76T810 104V633Q810 694 803 732T781 792T742 822T682 830Q651 830 613 815T532 767T441 681T345 549V104Q345 89 382 73T485 43V0H55Z" />
<glyph unicode="o" glyph-name="o" horiz-adv-x="1030" d="M80 444Q80 510 96 574T142 695T213 801T305 885T414 940T535 960Q629 960 705 924T836 825T920 674T950 485Q950 418 933 354T886 233T814 128T722 44T614 -10T496 -30Q401 -30 325 6T194 105T110 255T80
444ZM235 473Q235 394 263 323T333 197T427 112T524 80Q595 80 646 106T730 182T779 300T795 455Q795 534 769 605T702 731T609 818T506 850Q430 850 378 821T295 742T249 622T235 473Z" />
<glyph unicode="p" glyph-name="p" horiz-adv-x="1085" d="M55 -437Q121 -421 158 -407T195 -375V711Q195 748 191 772T173 810T131 831T55 840V880Q89 887 120 895T180 913T237 934T295 960L330 925L339 727Q389 787 439 831T536 903T621 946T690 960Q758 960
816 928T916 836T981 688T1005 492Q1005 434 990 373T949 254T887 144T809 54T719 -7T623 -30Q564 -30 490 3T345 98V-375Q345 -391 382 -407T514 -437V-480H55V-437ZM345 213Q390 179 428 157T500 123T564 105T621 100Q675 100 720 121T799 183T851 285T870 426Q870
513 850 588T795 718T716 804T623 835Q605 835 576 824T510 787T431 718T345 610V213Z" />
<glyph unicode="q" glyph-name="q" horiz-adv-x="1055" d="M80 444Q80 532 108 606T176 737T263 835T344 895Q401 926 457 943T551 960Q578 960 605 957T660 943T718 915T782 867Q797 876 813 888L844 914Q859 926 872 938L895 960L926 930Q917 902 910 869Q904
840 900 801T895 717V-375Q895 -391 926 -407T1034 -437V-480H575V-437Q669 -423 707 -408T745 -375V166Q707 120 670 84T594 23T511 -16T416 -30Q360 -30 301 2T193 96T112 245T80 444ZM230 475Q230 390 254 321T317 202T400 127T487 100Q521 100 554 114T619
150T682 202L745 261V730Q712 787 652 818T520 850Q464 850 412 827T320 756T255 639T230 475Z" />
<glyph unicode="r" glyph-name="r" horiz-adv-x="811" d="M55 0V43Q121 58 158 72T195 104V686Q195 719 193 741T188 778T181 800T172 813Q165 820 157 824T135 832T102 836T55 840V880L182 914Q245 932 295 960L330 925L343 698Q370 753 401 801T469 884T544
940T627 960Q659 960 696 952T770 923Q779 917 779 888T771 821T751 743T727 676H684Q678 716 667 744T642 788T610 812T573 820Q551 820 522 802T461 744T400 643T345 496V104Q345 89 382 73T514 43V0H55Z" />
<glyph unicode="s" glyph-name="s" horiz-adv-x="791" d="M94 105T95 143T101 221T113 283L156 272Q158 230 178 193T231 129T309 86T406 70Q442 70 472 81T524 113T558 163T570 227Q570 267 549 298T492 354T412 402L322 449Q280 470 241 494T172 548T123 615T104
700Q104 762 129 810T195 892T290 942T401 960Q432 960 469 955T543 939T612 915T664 883Q670 877 666 856T652 810T631 763T614 733L575 741Q527 813 476 841T375 870Q342 870 316 859T272 831T244 792T234 750Q234 718 253 693T303 645T374 602L455 559L542 512Q586
487 621 455T678 381T700 283Q700 212 680 162T628 76T557 20T480 -12T409 -26T356 -30Q308 -30 241 -12T106 43Q99 46 97 75Z" />
<glyph unicode="t" glyph-name="t" horiz-adv-x="705" d="M20 863L98 930H170V1176L289 1280L320 1255V930H647L676 901Q667 887 654 871T626 841T599 816T575 800Q551 812 502 823T372 835H320V307Q320 247 325 207T344 144T377 110T428 100Q463 100 516 114T647
168L676 117Q627 81 579 54T488 8T407 -20T344 -30Q309 -30 278 -17T222 25T184 103T170 221V835H41L20 863Z" />
<glyph unicode="u" glyph-name="u" horiz-adv-x="1085" d="M41 854V894Q77 898 108 904T169 918T229 936T292 960L320 921V334Q320 264 330 217T360 142T408 102T473 90Q505 90 538 99T607 129T682 182T765 262V711Q765 756 761 783T741 825T699 846T625 854V894Q697
903 763 922T885 960L915 921V254Q915 192 919 153T938 104Q950 96 979 100T1059 127L1069 82L998 38Q964 17 935 2T884 -21T850 -30Q815 -30 793 16T765 166Q703 104 652 66T557 6T477 -22T408 -30Q361 -30 318 -17T242 30T190 125T170 279V711Q170 759 167 785T152
825T113 844T41 854Z" />
<glyph unicode="v" glyph-name="v" horiz-adv-x="1010" d="M20 887V930H406V887Q367 882 343 877T305 865T289 846T293 819L539 178L770 819Q775 834 774 844T760 862T726 875T666 887V930H989V887Q959 880 940 874T909 861T891 844T879 819L596 59Q587 37 570
22T533 -4T494 -21T461 -30L131 819Q122 847 96 861T20 887Z" />
<glyph unicode="w" glyph-name="w" horiz-adv-x="1446" d="M20 887V930H406V887Q357 882 330 876T291 861T279 843T281 825L469 190L715 930H784L1044 190L1217 825Q1223 848 1196 862T1100 887V930H1425V887Q1394 880 1376 874T1348 861T1333 846T1325 825L1104
59Q1098 37 1081 22T1042 -4T1001 -21T967 -30L729 648L524 59Q516 36 500 21T463 -5T424 -21T391 -30L129 825Q120 864 20 887Z" />
<glyph unicode="x" glyph-name="x" horiz-adv-x="1030" d="M20 0V43Q60 49 88 58T135 80T168 107T193 137L436 475L201 797Q187 816 175 830Q162 846 144 857T98 876T31 887V930H451V887Q420 884 398 879T364 864T353 839T373 799L534 577L688 799Q706 823 708
839T700 864T667 879T614 887V930H995V887Q914 881 870 858Q826 834 799 797L589 502L856 137Q868 122 882 108T914 80T958 57T1016 43V0H614V43Q639 45 661 49T695 62T708 87T688 131L490 400L301 131Q282 104 286 88T307 62T349 49T399 43V0H20Z" />
<glyph unicode="y" glyph-name="y" horiz-adv-x="1010" d="M-47 -447Q-47 -441 -35 -423T-5 -384T33 -342T70 -312Q118 -340 165 -342T250 -330Q268 -324 292 -302T340 -248T388 -176Q412 -135 430 -92L459 -23L131 819Q122 847 96 861T20 887V930H406V887Q367
882 343 877T305 865T289 846T293 819L539 182L770 819Q775 834 772 844T755 862T717 875T655 887V930H989V887Q959 880 940 874T909 861T891 844T879 819L545 -82Q503 -193 452 -272T345 -401T233 -476T127 -500Q89 -500 57 -495T2 -483T-34 -466T-47 -447Z" />
<glyph unicode="z" glyph-name="z" horiz-adv-x="905" d="M76 45L631 840H285Q269 840 253 834T221 812T192 766T168 690L119 702L137 946Q159 940 177 937T214 932T257 930H805L827 887L270 90H692Q717 90 738 128T782 258L829 248Q829 216 828 180T826 110T822
47T817 0H102L76 45Z" />
<glyph unicode="{" glyph-name="braceleft" horiz-adv-x="688" d="M102 633Q220 664 280 726T340 863Q340 903 337 932T330 984T320 1028T310 1072T302 1124T299 1195Q299 1262 321 1321T386 1431T488 1524T623 1600L649 1553Q610 1529 577 1498T518 1430T479
1348T465 1252Q465 1194 471 1157T485 1088T499 1018T506 923Q506 881 494 841T458 765T402 700T326 653Q376 644 410 622T466 565T496 486T506 385Q506 325 500 283T486 204T472 130T465 43Q465 -12 472 -54T499 -131T552 -195T639 -254L616 -315Q532 -281 472
-244T374 -160T317 -57T299 72Q299 131 305 169T319 243T333 319T340 422Q340 503 300 544T184 586H163Q157 586 152 586T141 584T119 580L102 633Z" />
<glyph unicode="|" glyph-name="bar" horiz-adv-x="469" d="M180 -382V1621Q208 1638 231 1650T284 1670L320 1648V-353Q302 -369 271 -383T215 -405L180 -382Z" />
<glyph unicode="}" glyph-name="braceright" horiz-adv-x="688" d="M39 -266Q78 -242 111 -212T170 -144T209 -62T223 35Q223 93 217 129T204 198T190 268T184 365Q184 406 196 446T231 521T288 584T365 631Q314 641 280 663T224 720T193 800T184 902Q184 961
190 1003T203 1082T217 1156T223 1242Q223 1298 216 1341T189 1418T135 1481T49 1539L72 1600Q156 1567 216 1530T315 1446T371 1344T389 1215Q389 1156 383 1117T370 1043T356 967T350 865Q350 784 390 742T506 700H525Q531 700 536 700T548 702L571 707L588 651Q469
620 410 560T350 422Q350 381 353 353T360 301T369 258T379 215T386 162T389 92Q389 24 367 -35T302 -145T200 -238T66 -315L39 -266Z" />
<glyph unicode="~" glyph-name="asciitilde" horiz-adv-x="999" d="M49 502Q70 551 102 603T174 699T259 771T352 799Q398 799 446 774T542 719T635 664T721 639Q769 639 812 678T897 799L950 774Q929 725 897 673T826 577T741 505T647 477Q605 477 558 502T463
557T367 612T276 637Q227 637 186 598T102 475L49 502Z" />
<glyph unicode="&#xa1;" glyph-name="exclamdown" horiz-adv-x="557" d="M154 799Q154 833 164 862T193 914T237 948T293 961Q345 961 368 932T391 848Q391 814 380 785T350 733T307 697T254 684Q203 684 179 713T154 799ZM172 -543L219 530Q239 546 254 553T295
569L322 551L371 -483Q332 -508 291 -530T215 -565L172 -543Z" />
<glyph unicode="&#xa2;" glyph-name="cent" horiz-adv-x="961" d="M104 586Q104 674 131 752T208 891T325 996T475 1061V1214Q489 1223 495 1227T505 1234T517 1239L539 1245L565 1223V1077Q577 1078 589 1078T614 1079Q647 1079 681 1074T748 1058T806 1033T850
999Q852 988 847 966T833 920T813 874T793 838L758 848Q749 864 734 883T695 919T639 949T565 968V262Q592 262 616 264T668 279T734 318T825 391L864 350Q813 290 772 250T696 186T629 149T565 133V-8Q556 -16 549 -20T536 -28T521 -34T500 -41L475 -16V129Q404
132 338 163T219 251T136 393T104 586ZM256 616Q256 546 273 489T319 389T389 318T475 275V966Q430 957 391 932T321 864T274 760T256 616Z" />
<glyph unicode="&#xa3;" glyph-name="sterling" horiz-adv-x="961" d="M64 19Q95 44 119 66T160 113T188 172T204 255T208 372T200 536H86L64 561L74 594Q80 611 86 627H194Q188 769 210 882T283 1073T417 1193T614 1235Q640 1235 664 1233T717 1224T779 1203T861
1165Q860 1139 856 1102T847 1027T835 954T822 900H775Q761 1024 701 1080T540 1136Q513 1136 487 1131T437 1108T394 1057T365 967T353 827T364 627H615L640 604L615 536H373Q376 468 368 405T345 287T307 184T258 101Q303 105 338 106T402 107T456 105T507 103T563
100Q590 100 629 101Q676 102 708 107Q741 112 766 129T813 179T855 272L898 254Q894 211 889 172T878 99T867 40T857 0Q812 -25 752 -28T622 -24T479 -6T334 11T200 9T87 -30L64 19Z" />
<glyph unicode="&#xa4;" glyph-name="currency" horiz-adv-x="961" d="M158 343L265 450Q241 483 230 521T218 600T230 679T266 752L159 860L161 893Q175 901 191 909T223 924L330 817Q364 841 403 853T482 866T560 854T632 817L738 923L772 924L802 858L696 752Q720
718 732 679T745 600T733 522T697 449L803 344L804 310L738 280L633 385Q599 362 561 351T482 339T403 350T330 386L222 279L189 281Q181 295 173 311T158 343ZM313 633T313 601T325 539T362 484Q388 458 419 446T482 434T545 446T601 483Q625 508 637 539T650
602T638 665T600 721T545 758T482 770T419 758T363 721T326 665Z" />
<glyph unicode="&#xa5;" glyph-name="yen" horiz-adv-x="961" d="M-67 1193Q-8 1201 51 1207T152 1214Q198 1214 230 1175Q267 1127 301 1076T367 969L432 850L499 716L713 1095Q728 1121 704 1136Q679 1151 602 1161V1204H998V1161Q930 1148 893 1134Q856 1121
842 1095L560 578V527H831L856 504L831 436H560V115Q560 109 568 101T596 82T647 62T726 43V0H236V43Q327 62 363 81T400 115V436H128L106 461L116 494Q122 511 128 527H400V580L327 726Q289 800 250 867T173 993T101 1095Q92 1106 81 1116T52 1133T7 1145T-63
1150L-67 1193Z" />
<glyph unicode="&#xa6;" glyph-name="brokenbar" horiz-adv-x="469" d="M174 -383V489Q203 506 230 518T289 541L326 516V-354Q316 -362 302 -369T271 -384T239 -396L211 -406L174 -383ZM174 738V1621Q203 1638 230 1650T289 1670L326 1648V767Q316 759 302 752T271
738T239 726L211 716L174 738Z" />
<glyph unicode="&#xa7;" glyph-name="section" horiz-adv-x="961" d="M119 775Q119 812 130 846T161 911T206 966T260 1009Q225 1049 206 1096T187 1200Q187 1262 212 1307T278 1382T373 1426T484 1440Q515 1440 552 1433T626 1414T695 1387T747 1353Q753 1347
749 1326T735 1280T714 1233T697 1203L658 1211Q610 1283 559 1316T458 1350Q392 1350 355 1322T317 1240Q317 1205 331 1177T372 1121T442 1067Q481 1042 538 1009Q605 971 660 937T756 863T819 774T842 656Q842 612 833 574T807 505T769 449T726 408Q752 380
767 345T783 263Q783 192 763 143T711 62T640 11T563 -17T492 -28T439 -30Q415 -30 386 -24T324 -7T257 19T189 53Q182 56 180 85T178 153T184 231T196 293L239 282Q241 240 261 202T314 133T392 86T489 68Q561 68 607 102T653 207Q653 247 632 276T575 328T494
373Q453 393 405 419Q337 457 286 492Q233 528 196 569T139 661T119 775ZM250 822Q250 776 267 741T319 673T408 606L538 529L590 502Q617 488 642 473Q674 493 692 524T711 594Q711 640 693 677T636 750T541 821T405 899Q382 911 361 924L320 952Q302 946 289
931T268 897T255 858T250 822Z" />
<glyph unicode="&#xa8;" glyph-name="dieresis" horiz-adv-x="801" d="M100 1220Q100 1248 109 1273T134 1316T170 1345T215 1356Q300 1356 300 1261Q300 1233 291 1208T267 1165T230 1135T184 1124Q139 1124 120 1149T100 1220ZM500 1220Q500 1248 509 1273T534
1316T570 1345T615 1356Q700 1356 700 1261Q700 1233 691 1208T667 1165T630 1135T584 1124Q539 1124 520 1149T500 1220Z" />
<glyph unicode="&#xa9;" glyph-name="copyright" horiz-adv-x="1460" d="M100 631Q100 767 147 887T278 1097T477 1238T729 1290Q820 1290 902 1267T1055 1200T1181 1097T1277 964T1338 806T1360 631T1339 456T1278 298T1182 164T1055 60T903 -6T729 -30Q592 -30
477 22T278 163T147 373T100 631ZM186 631Q186 512 226 407T339 224T511 101T729 56Q848 56 948 101T1120 224T1233 407T1274 631Q1274 749 1234 853T1121 1036T948 1159T729 1204Q611 1204 512 1159T340 1036T227 854T186 631ZM358 602Q358 702 391 784T483 923T617
1012T780 1044Q856 1044 912 1026T1006 981Q1010 978 1004 965T987 936T964 905T942 883L918 887Q882 915 837 939T731 963Q699 963 657 947T578 893T515 789T489 627Q489 547 518 487T592 387T687 326T780 305Q802 305 823 309T869 323T923 351T991 397Q999 394
1006 383T1018 369Q973 326 933 297T854 250T780 225T707 217Q642 217 580 243T468 318T389 439T358 602Z" />
<glyph unicode="&#xaa;" glyph-name="ordfeminine" horiz-adv-x="524" d="M49 825Q49 887 96 934T246 1010L338 1034V1051Q338 1082 335 1105T322 1145T296 1169T252 1178Q237 1178 221 1171T193 1152T176 1122T178 1083Q179 1078 166 1073T134 1063T99 1056T74
1055L66 1075Q70 1106 97 1135T161 1186T235 1222T299 1235Q335 1235 360 1225T400 1192T423 1131T430 1038V842Q430 814 434 802T444 782Q449 779 464 780T508 793L514 768Q468 737 438 724T391 711Q377 711 363 731T341 794Q293 749 247 730T166 711Q146 711
126 717T88 736T60 771T49 825ZM51 586V659H485V586H51ZM147 869T147 848T152 814T166 794T183 783T199 780Q230 780 265 794T338 840V992L295 981Q251 969 223 955T177 924T154 888Z" />
<glyph unicode="&#xab;" glyph-name="guillemotleft" horiz-adv-x="994" d="M80 430V465Q80 479 80 490T82 503L441 913L483 883L473 865L447 818L410 750L367 674L324 598L288 531L262 484Q252 467 253 467L484 47L441 17L80 430ZM450 430V465Q450 479 450 490T452
503L811 913L853 883L843 865L817 818L780 750L737 674L694 598L658 531L632 484Q622 467 623 467L854 47L811 17L450 430Z" />
<glyph unicode="&#xac;" glyph-name="logicalnot" horiz-adv-x="961" d="M61 530Q66 550 74 574T92 618H862L891 596V233L850 204Q830 190 805 182L780 207V506H86L61 530Z" />
<glyph unicode="&#xad;" glyph-name="uni00AD" horiz-adv-x="690" d="M61 479Q66 501 74 525T92 570H604L629 546Q623 524 615 498T598 455H86L61 479Z" />
<glyph unicode="&#xae;" glyph-name="registered" horiz-adv-x="730" d="M35 1012T35 1084T59 1219T128 1329T232 1403T364 1430T497 1403T602 1329T671 1219T696 1084T671 949T602 839T497 765T364 738T232 765T128 839T60 949ZM93 1084Q93 1024 113 972T170
881T255 820T364 797Q424 797 474 819T560 881T616 972T637 1084Q637 1143 617 1195T560 1287T474 1348T364 1371Q305 1371 256 1349T170 1287T114 1196T93 1084ZM212 1273Q241 1280 273 1285T347 1291Q422 1291 460 1264T499 1196Q499 1149 471 1119T399 1077L502
934Q509 923 520 920T554 919L556 898Q536 892 515 887T482 881Q473 881 464 887T451 899L346 1070H344Q329 1070 313 1073V924Q313 914 356 905V887H214V905Q258 914 258 924V1250L214 1244L212 1273ZM313 1109Q321 1107 326 1107H340Q391 1107 414 1128T438 1187Q438
1216 416 1236T336 1256H324Q319 1256 313 1255V1109Z" />
<glyph unicode="&#xaf;" glyph-name="overscore" horiz-adv-x="1010" d="M167 1200Q169 1211 174 1225T185 1254L197 1282Q203 1295 208 1305H821L843 1281Q841 1270 836 1256T825 1226L814 1198Q808 1184 804 1175H189L167 1200Z" />
<glyph unicode="&#xb0;" glyph-name="degree" horiz-adv-x="733" d="M140 948Q140 1010 163 1062T225 1153T310 1213T404 1235Q443 1235 477 1220T537 1178T578 1118T593 1045Q593 983 569 931T507 841T422 781T329 759Q288 759 253 774T193 815T154 875T140 948ZM250
998Q250 970 257 944T277 897T310 864T355 851Q379 851 402 860T443 888T473 933T484 995Q484 1024 477 1050T456 1097T422 1130T378 1142Q353 1142 330 1132T289 1103T261 1058T250 998Z" />
<glyph unicode="&#xb1;" glyph-name="plusminus" horiz-adv-x="840" d="M61 154Q66 174 74 197T92 240H754L778 216Q773 196 765 172T748 130H86L61 154ZM61 661Q66 681 74 704T92 747H362V1021Q381 1027 406 1036T453 1050L477 1026V747H754L778 723Q773 703
765 679T748 637H477V366Q457 356 433 348T387 335L362 357V637H86L61 661Z" />
<glyph unicode="&#xb2;" glyph-name="uni00B2" horiz-adv-x="673" d="M59 664L204 810L310 923Q354 972 383 1009T428 1075T451 1127T458 1174Q458 1230 429 1262T327 1295Q300 1295 278 1285T241 1259T216 1222T207 1180Q183 1169 156 1162T96 1151L78 1169Q78
1200 102 1234T168 1296T263 1342T375 1361Q421 1361 459 1351T526 1320T569 1267T585 1191Q585 1151 566 1110T503 1015T386 886L206 703H479Q502 703 516 718T538 751Q547 772 550 799L595 792L585 620H79L59 664Z" />
<glyph unicode="&#xb3;" glyph-name="uni00B3" horiz-adv-x="673" d="M38 701L61 742Q93 722 120 709T173 687T224 676T275 673Q357 673 406 712T456 829Q456 874 441 904T401 954T346 981T287 989H272Q268 989 264 989T255 987T239 985L230 1031Q292 1046 329
1065T385 1104T410 1145T416 1184Q416 1205 410 1224T389 1260T353 1285T298 1295Q245 1295 218 1270T199 1204Q176 1193 144 1188T82 1180L63 1199Q63 1224 85 1252T146 1305T233 1345T338 1361Q392 1361 431 1347T495 1309T533 1255T546 1195Q546 1172 536 1149T507
1105T461 1067T399 1039Q439 1035 473 1019T533 977T572 918T587 849Q587 798 567 754T509 675T417 622T294 602Q231 602 166 625T38 701Z" />
<glyph unicode="&#xb4;" glyph-name="acute" horiz-adv-x="653" d="M217 1075L451 1489Q463 1488 483 1486T524 1480T565 1473T596 1466L619 1427L274 1047Q256 1051 243 1058T217 1075Z" />
<glyph unicode="&#xb5;" glyph-name="uni00B5" horiz-adv-x="1105" d="M61 854V894L132 907Q165 913 194 920T249 937T302 960L306 955L317 944L330 930L340 917V366Q340 331 353 290T389 214T447 155T523 131Q550 131 578 136T638 157T705 204T780 287V748Q780
764 777 786T768 831T756 872T742 900Q786 912 831 927T918 960L946 921Q942 895 937 859T930 759V268Q930 175 939 137T969 99Q991 99 1016 106T1075 127L1085 82L1023 43Q991 23 961 7T906 -20T863 -31Q842 -31 827 -14T802 32T787 99T780 180Q699 75 624 22T490
-31Q431 -31 374 9T273 122V116Q273 -3 284 -82Q295 -169 314 -236T359 -350T411 -429Q396 -434 370 -444L318 -464L266 -484Q241 -494 229 -500L190 -471V731Q190 770 188 792T173 826T134 843T61 854Z" />
<glyph unicode="&#xb6;" glyph-name="paragraph" horiz-adv-x="1135" d="M49 903Q49 988 82 1059T177 1181T322 1261T508 1290Q530 1290 562 1289T631 1285T710 1280Q749 1278 789 1275L983 1260H1055V1217Q987 1203 948 1186T909 1155V-145Q909 -158 945 -175T1055
-207V-250H444V-207Q513 -193 551 -176T590 -145L591 532Q573 529 552 528T504 526Q411 526 329 549T184 620T85 738T49 903ZM215 938Q215 884 234 826T293 720T396 641T547 610H591L592 1200Q530 1206 489 1206Q429 1206 379 1185T293 1128T236 1043T215 938ZM711
-145Q711 -156 725 -164T750 -176Q762 -173 776 -165T791 -145V1159Q771 1166 751 1171L711 1181V-145Z" />
<glyph unicode="&#xb7;" glyph-name="middot" horiz-adv-x="300" d="M50 680Q50 708 59 733T84 776T120 805T165 816Q250 816 250 721Q250 693 241 668T217 625T180 595T134 584Q89 584 70 609T50 680Z" />
<glyph unicode="&#xb8;" glyph-name="cedilla" horiz-adv-x="469" d="M78 -395Q130 -386 166 -373T226 -343T259 -310T270 -276Q270 -242 244 -229T156 -209Q158 -206 166 -181L188 -115L229 14L307 12L268 -104Q294 -110 319 -119T364 -144T396 -180T408 -229Q408
-266 391 -300T336 -362T241 -411T100 -444L78 -395Z" />
<glyph unicode="&#xb9;" glyph-name="uni00B9" horiz-adv-x="673" d="M97 1265Q126 1272 168 1285L254 1312Q297 1327 335 1341T397 1367L423 1346V716Q423 710 429 703T452 689T502 675T588 662V620H119V662Q174 668 208 674T263 688T290 702T298 716V1174Q298
1198 296 1211T285 1233Q281 1237 271 1239T241 1241T190 1237T112 1224L97 1265Z" />
<glyph unicode="&#xba;" glyph-name="ordmasculine" horiz-adv-x="578" d="M49 963Q49 1015 69 1064T124 1151T205 1212T305 1235Q353 1235 394 1216T465 1164T511 1084T528 983Q528 932 506 883T447 796T365 734T272 711Q222 711 181 730T111 782T65 862T49 963ZM61
586V659H516V586H61ZM143 1019T143 977T157 897T193 831T245 785T305 768Q332 768 355 783T396 825T424 888T434 967T421 1047T386 1113T335 1159T272 1176Q242 1176 219 1161T178 1119T152 1056Z" />
<glyph unicode="&#xbb;" glyph-name="guillemotright" horiz-adv-x="994" d="M140 47L371 467L141 883L183 913L542 503L544 430L183 17L140 47ZM510 47L741 467L511 883L553 913L912 503L914 430L553 17L510 47Z" />
<glyph unicode="&#xbc;" glyph-name="onequarter" horiz-adv-x="1200" d="M80 1153Q103 1159 136 1169T204 1190T270 1214T320 1235L340 1218V714Q340 709 345 704T364 692T404 681T472 671V637H97V671Q141 675 169 680T212 691T234 703T240 714V1080Q240 1100
239 1110T230 1127Q227 1130 219 1132T195 1134T154 1130T92 1120L80 1153ZM198 0L960 1203L1004 1220Q1027 1230 1049 1235L1074 1207L316 3Q293 -8 272 -15T223 -30L198 0ZM653 180L933 563Q956 572 981 581T1024 598L1044 581V226H1105L1120 210L1098 184Q1088
172 1075 164H1044V58Q1044 54 1046 51T1055 45T1077 37T1114 29V0H840V29Q876 34 898 38T931 47T946 55T950 63V164H672L653 180ZM749 226H950V491L749 226Z" />
<glyph unicode="&#xbd;" glyph-name="onehalf" horiz-adv-x="1200" d="M80 1153Q103 1159 136 1169T204 1190T270 1214T320 1235L340 1218V714Q340 709 345 704T364 692T404 681T472 671V637H97V671Q141 675 169 680T212 691T234 703T240 714V1080Q240 1100 239
1110T230 1127Q227 1130 219 1132T195 1134T154 1130T92 1120L80 1153ZM198 0L960 1203L1004 1220Q1027 1230 1049 1235L1074 1207L316 3Q293 -8 272 -15T223 -30L198 0ZM691 35L853 200Q915 266 950 311T997 386T1010 443Q1010 488 987 514T906 540Q885 540 867
532T837 511T817 482T810 448Q790 439 769 433T721 425L706 439Q706 464 726 491T779 541T855 578T944 593Q981 593 1011 585T1064 560T1099 518T1112 457Q1112 425 1097 392T1047 316T953 212L809 66H1027Q1046 66 1057 78T1075 104Q1082 121 1084 143L1120 138L1112
0H707L691 35Z" />
<glyph unicode="&#xbe;" glyph-name="threequarters" horiz-adv-x="1200" d="M80 707L99 740Q150 707 189 696T270 684Q336 684 375 716T415 809Q415 845 403 869T371 909T327 930T280 937H268Q264 937 261 937T254 936T241 934L234 971Q284 983 313 998T358 1029T378
1062T383 1093Q383 1109 378 1125T361 1154T332 1174T288 1182Q246 1182 224 1162T209 1109Q190 1101 165 1097T116 1090L100 1105Q100 1125 118 1148T166 1190T236 1222T320 1235Q363 1235 395 1224T447 1193T477 1150T487 1102Q487 1066 456 1030T369 977Q401
974 428 961T476 927T508 881T520 825Q520 784 504 749T458 686T384 644T285 628Q235 628 183 646T80 707ZM198 0L960 1203L1004 1220Q1027 1230 1049 1235L1074 1207L316 3Q293 -8 272 -15T223 -30L198 0ZM653 180L933 563Q956 572 981 581T1024 598L1044 581V226H1105L1120
210L1098 184Q1088 172 1075 164H1044V58Q1044 54 1046 51T1055 45T1077 37T1114 29V0H840V29Q876 34 898 38T931 47T946 55T950 63V164H672L653 180ZM749 226H950V491L749 226Z" />
<glyph unicode="&#xbf;" glyph-name="questiondown" horiz-adv-x="887" d="M80 -246Q80 -171 103 -111T163 2T241 102T321 200T386 307T418 434L424 530Q441 546 456 554T498 571L524 551L530 434Q534 377 515 321T463 210T394 102T323 -2T268 -103T246 -201Q246
-325 302 -395T463 -465Q499 -465 531 -449T589 -405T628 -341T643 -266Q643 -251 639 -237T629 -209Q663 -190 698 -182T778 -170L805 -201Q807 -209 807 -217V-233Q807 -304 773 -363T680 -466T545 -534T385 -559Q311 -559 254 -536T159 -472T100 -373T80 -246ZM348
799Q348 833 358 862T387 913T431 947T485 960Q538 960 562 931T586 848Q586 814 575 785T545 733T500 697T446 684Q395 684 372 713T348 799Z" />
<glyph unicode="&#xc0;" glyph-name="Agrave" horiz-adv-x="1219" d="M0 0V43Q68 55 108 68T158 111L530 1237Q553 1262 587 1282T647 1317L1067 111Q1072 97 1081 86T1105 67T1143 53T1198 43V0H776V43Q854 48 884 63T903 111L789 445H381L270 111Q260 80 297
66T416 43V0H0ZM262 1610L270 1655Q277 1663 292 1673T326 1694L361 1714L389 1729L776 1412L754 1384Q747 1374 731 1367L262 1610ZM411 535H758L582 1049L411 535Z" />
<glyph unicode="&#xc1;" glyph-name="Aacute" horiz-adv-x="1219" d="M0 0V43Q68 55 108 68T158 111L530 1237Q553 1262 587 1282T647 1317L1067 111Q1072 97 1081 86T1105 67T1143 53T1198 43V0H776V43Q854 48 884 63T903 111L789 445H381L270 111Q260 80 297
66T416 43V0H0ZM411 535H758L582 1049L411 535ZM422 1412L809 1729L836 1714L871 1694Q889 1683 904 1673T927 1655L936 1610L467 1367Q450 1374 443 1383T422 1412Z" />
<glyph unicode="&#xc2;" glyph-name="Acircumflex" horiz-adv-x="1219" d="M0 0V43Q68 55 108 68T158 111L530 1237Q553 1262 587 1282T647 1317L1067 111Q1072 97 1081 86T1105 67T1143 53T1198 43V0H776V43Q854 48 884 63T903 111L789 445H381L270 111Q260 80
297 66T416 43V0H0ZM282 1412L546 1721H653L915 1412Q903 1393 896 1384T872 1367L598 1575L327 1367Q319 1371 314 1375T304 1384T294 1396L282 1412ZM411 535H758L582 1049L411 535Z" />
<glyph unicode="&#xc3;" glyph-name="Atilde" horiz-adv-x="1219" d="M0 0V43Q68 55 108 68T158 111L530 1237Q553 1262 587 1282T647 1317L1067 111Q1072 97 1081 86T1105 67T1143 53T1198 43V0H776V43Q854 48 884 63T903 111L789 445H381L270 111Q260 80 297
66T416 43V0H0ZM258 1413Q276 1454 300 1494T356 1567T422 1619T497 1639Q535 1639 569 1622T633 1583T690 1544T741 1526Q779 1526 815 1558T886 1649L940 1626Q922 1585 897 1545T842 1473T775 1421T700 1401Q665 1401 634 1418T572 1457T513 1496T454 1514Q414
1514 381 1482T311 1393L258 1413ZM411 535H758L582 1049L411 535Z" />
<glyph unicode="&#xc4;" glyph-name="Adieresis" horiz-adv-x="1219" d="M0 0V43Q68 55 108 68T158 111L530 1237Q553 1262 587 1282T647 1317L1067 111Q1072 97 1081 86T1105 67T1143 53T1198 43V0H776V43Q854 48 884 63T903 111L789 445H381L270 111Q260 80
297 66T416 43V0H0ZM299 1500Q299 1528 308 1553T333 1596T369 1625T414 1636Q499 1636 499 1541Q499 1513 490 1488T466 1445T429 1415T383 1404Q338 1404 319 1429T299 1500ZM411 535H758L582 1049L411 535ZM699 1500Q699 1528 708 1553T733 1596T769 1625T814
1636Q899 1636 899 1541Q899 1513 890 1488T866 1445T829 1415T783 1404Q738 1404 719 1429T699 1500Z" />
<glyph unicode="&#xc5;" glyph-name="Aring" horiz-adv-x="1219" d="M0 0V43Q68 55 108 68T158 111L530 1237Q553 1262 587 1282T647 1317L1067 111Q1072 97 1081 86T1105 67T1143 53T1198 43V0H776V43Q854 48 884 63T903 111L789 445H381L270 111Q260 80 297
66T416 43V0H0ZM411 535H758L582 1049L411 535ZM413 1524Q413 1575 432 1618T483 1693T552 1742T630 1760Q662 1760 690 1748T740 1714T773 1664T785 1604Q785 1553 766 1511T715 1437T645 1388T568 1370Q534 1370 506 1382T457 1415T425 1464T413 1524ZM503 1565Q503
1542 509 1521T526 1483T553 1456T589 1446T628 1453T662 1476T686 1512T695 1563Q695 1587 689 1609T672 1647T645 1674T609 1684Q588 1684 569 1676T536 1652T512 1614T503 1565Z" />
<glyph unicode="&#xc6;" glyph-name="AE" horiz-adv-x="1595" d="M0 0V43Q68 55 106 68T158 111L571 1133Q578 1150 568 1161T532 1182T469 1200T381 1217V1260H1438L1468 1235Q1466 1209 1463 1178T1454 1116T1441 1057T1427 1010H1382Q1380 1056 1374 1087T1358
1136T1334 1162T1300 1170H934V735H1339L1366 707L1346 677Q1335 661 1323 646T1298 617T1274 596Q1259 611 1242 621T1202 638T1148 648T1075 651H934V154Q934 139 941 128T971 108T1034 95T1141 90H1270Q1316 90 1348 95T1405 117T1450 169T1491 262L1536 244Q1527
157 1514 93T1493 0H631V43Q699 57 736 73T774 104V651H505L285 111Q272 82 303 67T416 43V0H0ZM539 735H774V1148Q774 1159 765 1164T742 1168T716 1157T696 1131L539 735Z" />
<glyph unicode="&#xc7;" glyph-name="Ccedilla" horiz-adv-x="1098" d="M70 586Q70 746 118 876T250 1098T443 1240T676 1290Q784 1290 865 1261T999 1190Q1005 1185 996 1170T972 1136T938 1098L909 1067L874 1073Q823 1120 753 1150T592 1180Q558 1180 518 1168T436
1128T357 1058T290 952T243 809T225 623Q225 490 263 390T362 224T497 124T643 90Q697 90 784 127T981 256Q986 254 991 248T1002 234T1011 221T1018 211Q954 143 896 97T783 22T675 -18Q655 -22 635 -25L609 -104Q635 -110 660 -119T705 -144T737 -180T749 -229Q749
-266 732 -300T677 -362T582 -411T441 -444L419 -395Q471 -386 507 -373T567 -343T600 -310T611 -276Q611 -242 585 -229T497 -209Q499 -206 507 -181L528 -115L556 -30Q471 -26 388 12Q299 54 228 133T114 326T70 586Z" />
<glyph unicode="&#xc8;" glyph-name="Egrave" horiz-adv-x="1016" d="M50 0V43Q118 57 156 73T195 104V1155Q195 1167 159 1185T50 1217V1260H856L889 1235Q887 1209 883 1178T873 1116T861 1057T848 1010H803Q801 1056 795 1087T778 1136T754 1162T721 1170H355V735H760L786
707Q778 693 767 677T743 646T718 617T694 596Q679 611 662 621T622 638T569 648T496 651H355V154Q355 139 362 128T391 108T453 95T559 90H688Q734 90 766 95T824 117T869 169T911 262L954 244Q946 158 934 94T913 0H50ZM165 1610L173 1655Q180 1663 195 1673T229
1694L264 1714L292 1729L679 1412L658 1384Q650 1374 634 1367L165 1610Z" />
<glyph unicode="&#xc9;" glyph-name="Eacute" horiz-adv-x="1016" d="M50 0V43Q118 57 156 73T195 104V1155Q195 1167 159 1185T50 1217V1260H856L889 1235Q887 1209 883 1178T873 1116T861 1057T848 1010H803Q801 1056 795 1087T778 1136T754 1162T721 1170H355V735H760L786
707Q778 693 767 677T743 646T718 617T694 596Q679 611 662 621T622 638T569 648T496 651H355V154Q355 139 362 128T391 108T453 95T559 90H688Q734 90 766 95T824 117T869 169T911 262L954 244Q946 158 934 94T913 0H50ZM325 1412L712 1729L739 1714L774 1694Q792
1683 807 1673T830 1655L839 1610L370 1367Q353 1374 346 1383T325 1412Z" />
<glyph unicode="&#xca;" glyph-name="Ecircumflex" horiz-adv-x="1016" d="M50 0V43Q118 57 156 73T195 104V1155Q195 1167 159 1185T50 1217V1260H856L889 1235Q887 1209 883 1178T873 1116T861 1057T848 1010H803Q801 1056 795 1087T778 1136T754 1162T721 1170H355V735H760L786
707Q778 693 767 677T743 646T718 617T694 596Q679 611 662 621T622 638T569 648T496 651H355V154Q355 139 362 128T391 108T453 95T559 90H688Q734 90 766 95T824 117T869 169T911 262L954 244Q946 158 934 94T913 0H50ZM185 1412L449 1721H556L818 1412Q806 1393
799 1384T775 1367L501 1575L230 1367Q222 1371 217 1375T207 1384T197 1396L185 1412Z" />
<glyph unicode="&#xcb;" glyph-name="Edieresis" horiz-adv-x="1016" d="M50 0V43Q118 57 156 73T195 104V1155Q195 1167 159 1185T50 1217V1260H856L889 1235Q887 1209 883 1178T873 1116T861 1057T848 1010H803Q801 1056 795 1087T778 1136T754 1162T721 1170H355V735H760L786
707Q778 693 767 677T743 646T718 617T694 596Q679 611 662 621T622 638T569 648T496 651H355V154Q355 139 362 128T391 108T453 95T559 90H688Q734 90 766 95T824 117T869 169T911 262L954 244Q946 158 934 94T913 0H50ZM202 1500Q202 1528 211 1553T236 1596T272
1625T317 1636Q402 1636 402 1541Q402 1513 393 1488T369 1445T332 1415T286 1404Q241 1404 222 1429T202 1500ZM602 1500Q602 1528 611 1553T636 1596T672 1625T717 1636Q802 1636 802 1541Q802 1513 793 1488T769 1445T732 1415T686 1404Q641 1404 622 1429T602
1500Z" />
<glyph unicode="&#xcc;" glyph-name="Igrave" horiz-adv-x="610" d="M-42 1610L-34 1655Q-27 1663 -12 1673T22 1694L57 1714L85 1729L472 1412L450 1384Q443 1374 427 1367L-42 1610ZM70 0V43Q138 57 176 73T215 104V1155Q215 1167 179 1185T70 1217V1260H520V1217Q452
1203 414 1186T375 1155V104Q375 92 411 75T520 43V0H70Z" />
<glyph unicode="&#xcd;" glyph-name="Iacute" horiz-adv-x="610" d="M70 0V43Q138 57 176 73T215 104V1155Q215 1167 179 1185T70 1217V1260H520V1217Q452 1203 414 1186T375 1155V104Q375 92 411 75T520 43V0H70ZM118 1412L505 1729L532 1714L567 1694Q585 1683
600 1673T623 1655L632 1610L163 1367Q146 1374 139 1383T118 1412Z" />
<glyph unicode="&#xce;" glyph-name="Icircumflex" horiz-adv-x="610" d="M-22 1412L242 1721H349L611 1412Q599 1393 592 1384T568 1367L294 1575L23 1367Q15 1371 10 1375T0 1384T-10 1396L-22 1412ZM70 0V43Q138 57 176 73T215 104V1155Q215 1167 179 1185T70
1217V1260H520V1217Q452 1203 414 1186T375 1155V104Q375 92 411 75T520 43V0H70Z" />
<glyph unicode="&#xcf;" glyph-name="Idieresis" horiz-adv-x="610" d="M-5 1500Q-5 1528 4 1553T29 1596T65 1625T110 1636Q195 1636 195 1541Q195 1513 186 1488T162 1445T125 1415T79 1404Q34 1404 15 1429T-5 1500ZM70 0V43Q138 57 176 73T215 104V1155Q215
1167 179 1185T70 1217V1260H520V1217Q452 1203 414 1186T375 1155V104Q375 92 411 75T520 43V0H70ZM395 1500Q395 1528 404 1553T429 1596T465 1625T510 1636Q595 1636 595 1541Q595 1513 586 1488T562 1445T525 1415T479 1404Q434 1404 415 1429T395 1500Z" />
<glyph unicode="&#xd0;" glyph-name="Eth" horiz-adv-x="1214" d="M27 640L38 672Q43 689 49 705H195V1188Q155 1183 119 1178L50 1168L41 1230Q85 1242 142 1253T264 1272T393 1285T518 1290Q657 1290 769 1249T959 1128T1080 935T1123 676Q1123 551 1098 453T1029
279T930 151T810 65T683 16T559 0H50V43Q118 57 156 73T195 104V615H49L27 640ZM355 154Q355 132 365 118Q379 101 419 93T537 84Q606 84 679 117T814 219T914 392T953 637Q953 770 920 875T824 1054T667 1167T453 1206Q403 1206 355 1203V705H614L639 682L614
615H355V154Z" />
<glyph unicode="&#xd1;" glyph-name="Ntilde" horiz-adv-x="1329" d="M50 0V43Q124 52 159 71T195 104V1149Q162 1180 126 1195T50 1217V1260H262Q277 1260 286 1258T306 1247T328 1224L358 1182L1015 276V1155Q1015 1167 983 1186T870 1217V1260H1280V1217Q1208
1207 1172 1188T1135 1155V-30Q1085 -24 1057 -10T1016 21L315 993V104Q315 92 348 73T460 43V0H50ZM324 1413Q342 1454 366 1494T422 1567T488 1619T563 1639Q601 1639 635 1622T699 1583T756 1544T807 1526Q845 1526 881 1558T952 1649L1006 1626Q988 1585 963
1545T908 1473T841 1421T766 1401Q731 1401 700 1418T638 1457T579 1496T520 1514Q480 1514 447 1482T377 1393L324 1413Z" />
<glyph unicode="&#xd2;" glyph-name="Ograve" horiz-adv-x="1229" d="M70 612Q70 748 114 871T234 1087T412 1235T633 1290Q757 1290 851 1236T1009 1091T1105 885T1138 647Q1138 511 1093 389T971 173T791 25T575 -30Q455 -30 361 23T203 165T104 370T70 612ZM225
641Q225 529 255 429T337 254T458 134T604 90Q687 90 756 124T876 227T955 396T983 629Q983 698 971 765T935 893T879 1005T803 1094T711 1153T604 1175Q515 1175 445 1138T326 1031T251 862T225 641ZM278 1610L286 1655Q293 1663 308 1673T342 1694L377 1714L405
1729L792 1412L770 1384Q763 1374 747 1367L278 1610Z" />
<glyph unicode="&#xd3;" glyph-name="Oacute" horiz-adv-x="1229" d="M70 612Q70 748 114 871T234 1087T412 1235T633 1290Q757 1290 851 1236T1009 1091T1105 885T1138 647Q1138 511 1093 389T971 173T791 25T575 -30Q455 -30 361 23T203 165T104 370T70 612ZM225
641Q225 529 255 429T337 254T458 134T604 90Q687 90 756 124T876 227T955 396T983 629Q983 698 971 765T935 893T879 1005T803 1094T711 1153T604 1175Q515 1175 445 1138T326 1031T251 862T225 641ZM438 1412L825 1729L852 1714L887 1694Q905 1683 920 1673T943
1655L952 1610L483 1367Q466 1374 459 1383T438 1412Z" />
<glyph unicode="&#xd4;" glyph-name="Ocircumflex" horiz-adv-x="1229" d="M70 612Q70 748 114 871T234 1087T412 1235T633 1290Q757 1290 851 1236T1009 1091T1105 885T1138 647Q1138 511 1093 389T971 173T791 25T575 -30Q455 -30 361 23T203 165T104 370T70
612ZM225 641Q225 529 255 429T337 254T458 134T604 90Q687 90 756 124T876 227T955 396T983 629Q983 698 971 765T935 893T879 1005T803 1094T711 1153T604 1175Q515 1175 445 1138T326 1031T251 862T225 641ZM298 1412L562 1721H669L931 1412Q919 1393 912 1384T888
1367L614 1575L343 1367Q335 1371 330 1375T320 1384T310 1396L298 1412Z" />
<glyph unicode="&#xd5;" glyph-name="Otilde" horiz-adv-x="1229" d="M70 612Q70 748 114 871T234 1087T412 1235T633 1290Q757 1290 851 1236T1009 1091T1105 885T1138 647Q1138 511 1093 389T971 173T791 25T575 -30Q455 -30 361 23T203 165T104 370T70 612ZM225
641Q225 529 255 429T337 254T458 134T604 90Q687 90 756 124T876 227T955 396T983 629Q983 698 971 765T935 893T879 1005T803 1094T711 1153T604 1175Q515 1175 445 1138T326 1031T251 862T225 641ZM274 1413Q292 1454 316 1494T372 1567T438 1619T513 1639Q551
1639 585 1622T649 1583T706 1544T757 1526Q795 1526 831 1558T902 1649L956 1626Q938 1585 913 1545T858 1473T791 1421T716 1401Q681 1401 650 1418T588 1457T529 1496T470 1514Q430 1514 397 1482T327 1393L274 1413Z" />
<glyph unicode="&#xd6;" glyph-name="Odieresis" horiz-adv-x="1229" d="M70 612Q70 748 114 871T234 1087T412 1235T633 1290Q757 1290 851 1236T1009 1091T1105 885T1138 647Q1138 511 1093 389T971 173T791 25T575 -30Q455 -30 361 23T203 165T104 370T70 612ZM225
641Q225 529 255 429T337 254T458 134T604 90Q687 90 756 124T876 227T955 396T983 629Q983 698 971 765T935 893T879 1005T803 1094T711 1153T604 1175Q515 1175 445 1138T326 1031T251 862T225 641ZM315 1500Q315 1528 324 1553T349 1596T385 1625T430 1636Q515
1636 515 1541Q515 1513 506 1488T482 1445T445 1415T399 1404Q354 1404 335 1429T315 1500ZM715 1500Q715 1528 724 1553T749 1596T785 1625T830 1636Q915 1636 915 1541Q915 1513 906 1488T882 1445T845 1415T799 1404Q754 1404 735 1429T715 1500Z" />
<glyph unicode="&#xd7;" glyph-name="multiply" horiz-adv-x="840" d="M93 280V314L341 562L95 808L94 842Q114 851 139 859T187 873L419 640L652 873Q674 868 699 860T745 842V808L498 561L746 314V280Q726 272 699 263T654 249L420 483L186 249Q167 254 140
263T93 280Z" />
<glyph unicode="&#xd8;" glyph-name="Oslash" horiz-adv-x="1229" d="M70 612Q70 748 114 871T234 1087T412 1235T633 1290Q720 1290 791 1263T921 1187L975 1264Q1003 1281 1037 1293T1102 1313L1130 1280L1003 1099Q1070 1008 1104 890T1138 647Q1138 511 1093
389T971 173T791 25T575 -30Q488 -30 417 -3T286 74L233 -2Q224 -10 208 -17T172 -31T135 -43T104 -53L76 -20L204 162Q138 252 104 368T70 612ZM225 641Q225 547 246 462T305 307L834 1063Q788 1115 730 1145T604 1175Q515 1175 445 1138T326 1031T251 862T225
641ZM377 203Q425 149 483 120T604 90Q687 90 756 124T876 227T955 396T983 629Q983 718 963 802T905 959L377 203Z" />
<glyph unicode="&#xd9;" glyph-name="Ugrave" horiz-adv-x="1339" d="M50 1217V1260H500V1217Q432 1203 394 1186T355 1155V494Q355 398 377 322T444 194T554 113T705 85Q776 85 831 119T923 210T980 337T1000 483V1155Q1000 1167 964 1185T855 1217V1260H1275V1217Q1207
1203 1169 1186T1130 1155V524Q1130 393 1098 290T1006 116T860 8T666 -30Q563 -30 477 -2T328 85T230 233T195 444V1155Q195 1167 159 1185T50 1217ZM340 1610L348 1655Q355 1663 370 1673T404 1694L439 1714L467 1729L854 1412L832 1384Q825 1374 809 1367L340
1610Z" />
<glyph unicode="&#xda;" glyph-name="Uacute" horiz-adv-x="1339" d="M50 1217V1260H500V1217Q432 1203 394 1186T355 1155V494Q355 398 377 322T444 194T554 113T705 85Q776 85 831 119T923 210T980 337T1000 483V1155Q1000 1167 964 1185T855 1217V1260H1275V1217Q1207
1203 1169 1186T1130 1155V524Q1130 393 1098 290T1006 116T860 8T666 -30Q563 -30 477 -2T328 85T230 233T195 444V1155Q195 1167 159 1185T50 1217ZM500 1412L887 1729L914 1714L949 1694Q967 1683 982 1673T1005 1655L1014 1610L545 1367Q528 1374 521 1383T500
1412Z" />
<glyph unicode="&#xdb;" glyph-name="Ucircumflex" horiz-adv-x="1339" d="M50 1217V1260H500V1217Q432 1203 394 1186T355 1155V494Q355 398 377 322T444 194T554 113T705 85Q776 85 831 119T923 210T980 337T1000 483V1155Q1000 1167 964 1185T855 1217V1260H1275V1217Q1207
1203 1169 1186T1130 1155V524Q1130 393 1098 290T1006 116T860 8T666 -30Q563 -30 477 -2T328 85T230 233T195 444V1155Q195 1167 159 1185T50 1217ZM360 1412L624 1721H731L993 1412Q981 1393 974 1384T950 1367L676 1575L405 1367Q397 1371 392 1375T382 1384T372
1396L360 1412Z" />
<glyph unicode="&#xdc;" glyph-name="Udieresis" horiz-adv-x="1339" d="M50 1217V1260H500V1217Q432 1203 394 1186T355 1155V494Q355 398 377 322T444 194T554 113T705 85Q776 85 831 119T923 210T980 337T1000 483V1155Q1000 1167 964 1185T855 1217V1260H1275V1217Q1207
1203 1169 1186T1130 1155V524Q1130 393 1098 290T1006 116T860 8T666 -30Q563 -30 477 -2T328 85T230 233T195 444V1155Q195 1167 159 1185T50 1217ZM377 1500Q377 1528 386 1553T411 1596T447 1625T492 1636Q577 1636 577 1541Q577 1513 568 1488T544 1445T507
1415T461 1404Q416 1404 397 1429T377 1500ZM777 1500Q777 1528 786 1553T811 1596T847 1625T892 1636Q977 1636 977 1541Q977 1513 968 1488T944 1445T907 1415T861 1404Q816 1404 797 1429T777 1500Z" />
<glyph unicode="&#xdd;" glyph-name="Yacute" horiz-adv-x="1217" d="M0 1249Q59 1257 118 1263T219 1270Q265 1270 297 1231Q334 1183 377 1118T463 979T547 829L623 680L891 1151Q906 1177 882 1192T780 1217V1260H1176V1217Q1107 1204 1070 1190Q1034 1177
1020 1151L684 541V115Q684 109 692 101T720 82T771 62T850 43V0H360V43Q451 62 487 81T524 115V537Q487 618 440 706T344 877L249 1032Q203 1103 168 1151Q159 1162 148 1172T118 1189T73 1201T4 1206L0 1249ZM427 1412L814 1729L841 1714L876 1694Q894 1683 909
1673T932 1655L941 1610L472 1367Q455 1374 448 1383T427 1412Z" />
<glyph unicode="&#xde;" glyph-name="Thorn" horiz-adv-x="1071" d="M49 0V43Q117 57 156 73T195 104V1155Q195 1167 158 1185T49 1217V1260H530V1217Q479 1208 445 1200T391 1185T363 1170T355 1155V1014Q418 1020 510 1020Q618 1020 705 997T853 929T948 818T982
666Q982 597 963 540T911 439T836 362T749 308T658 276T573 265Q527 265 487 273T412 298L389 369Q431 350 469 345T543 340Q589 340 639 358T731 411T800 500T827 625Q827 708 798 767T717 863T598 918T453 936Q403 936 355 933V104Q355 98 363 91T390 76T444
60T530 43V0H49Z" />
<glyph unicode="&#xdf;" glyph-name="germandbls" horiz-adv-x="1157" d="M55 0V43Q123 55 159 72T195 102V961Q195 1081 211 1162T255 1298T318 1389T393 1458Q447 1502 514 1526T653 1550Q739 1550 799 1515T896 1425T950 1308T967 1190Q967 1108 942 1056T878
971T795 917L712 877Q674 858 649 834T623 770Q623 737 642 713T692 667T764 626L845 585Q887 563 926 537T997 475T1048 392T1067 283Q1067 224 1048 168T988 68T883 -3T729 -30Q701 -30 660 -23T579 -4T508 21T469 47Q466 52 465 69T463 111T464 162T467 214T474
257T483 283L522 270Q529 216 554 178T614 116T689 81T768 70Q803 70 834 80T888 110T924 157T937 217Q937 269 918 307T866 375T794 429T710 475T627 520T554 573T503 640T483 729Q483 796 507 838T569 908T649 955T729 995T790 1045T815 1122Q815 1173 801 1226T757
1324T680 1396T565 1425Q517 1425 477 1408T407 1344T361 1219T345 1016V0H55Z" />
<glyph unicode="&#xe0;" glyph-name="agrave" horiz-adv-x="940" d="M80 186Q80 262 106 313T170 401Q194 425 224 446T305 488T432 526T623 561V702Q623 736 615 765T588 816T537 849T455 860Q423 859 392 849T338 821T302 779T292 724Q293 715 272 704T221 683T163
669T122 667L108 706Q131 756 178 802T285 883T413 939T544 960Q654 960 713 903T773 742V178Q773 136 784 118T813 100Q827 100 849 105T911 127L926 82Q841 23 786 -3T702 -30Q669 -30 647 16T623 143Q578 98 533 65T445 11T364 -20T293 -30Q257 -30 219 -18T151
20T100 87T80 186ZM186 1424L208 1465Q218 1468 238 1472L278 1479Q300 1483 321 1485T354 1489L594 1078Q581 1066 568 1059T538 1047L186 1424ZM244 229Q244 189 256 164T285 125T320 105T352 100Q412 100 479 130T623 227V486Q539 472 485 459T395 433T339 404T302
372Q276 345 260 311T244 229Z" />
<glyph unicode="&#xe1;" glyph-name="aacute" horiz-adv-x="940" d="M80 186Q80 262 106 313T170 401Q194 425 224 446T305 488T432 526T623 561V702Q623 736 615 765T588 816T537 849T455 860Q423 859 392 849T338 821T302 779T292 724Q293 715 272 704T221 683T163
669T122 667L108 706Q131 756 178 802T285 883T413 939T544 960Q654 960 713 903T773 742V178Q773 136 784 118T813 100Q827 100 849 105T911 127L926 82Q841 23 786 -3T702 -30Q669 -30 647 16T623 143Q578 98 533 65T445 11T364 -20T293 -30Q257 -30 219 -18T151
20T100 87T80 186ZM244 229Q244 189 256 164T285 125T320 105T352 100Q412 100 479 130T623 227V486Q539 472 485 459T395 433T339 404T302 372Q276 345 260 311T244 229ZM380 1075L614 1489Q626 1488 646 1486L686 1480Q708 1477 728 1473T759 1466L782 1427L437
1047Q419 1050 405 1058T380 1075Z" />
<glyph unicode="&#xe2;" glyph-name="acircumflex" horiz-adv-x="940" d="M80 186Q80 262 106 313T170 401Q194 425 224 446T305 488T432 526T623 561V702Q623 736 615 765T588 816T537 849T455 860Q423 859 392 849T338 821T302 779T292 724Q293 715 272 704T221
683T163 669T122 667L108 706Q131 756 178 802T285 883T413 939T544 960Q654 960 713 903T773 742V178Q773 136 784 118T813 100Q827 100 849 105T911 127L926 82Q841 23 786 -3T702 -30Q669 -30 647 16T623 143Q578 98 533 65T445 11T364 -20T293 -30Q257 -30
219 -18T151 20T100 87T80 186ZM163 1092L427 1471H534L796 1092Q784 1073 777 1064T753 1047L479 1315L208 1047Q200 1051 195 1055T185 1064T175 1076L163 1092ZM244 229Q244 189 256 164T285 125T320 105T352 100Q412 100 479 130T623 227V486Q539 472 485 459T395
433T339 404T302 372Q276 345 260 311T244 229Z" />
<glyph unicode="&#xe3;" glyph-name="atilde" horiz-adv-x="940" d="M80 186Q80 262 106 313T170 401Q194 425 224 446T305 488T432 526T623 561V702Q623 736 615 765T588 816T537 849T455 860Q423 859 392 849T338 821T302 779T292 724Q293 715 272 704T221 683T163
669T122 667L108 706Q131 756 178 802T285 883T413 939T544 960Q654 960 713 903T773 742V178Q773 136 784 118T813 100Q827 100 849 105T911 127L926 82Q841 23 786 -3T702 -30Q669 -30 647 16T623 143Q578 98 533 65T445 11T364 -20T293 -30Q257 -30 219 -18T151
20T100 87T80 186ZM139 1133Q157 1174 181 1214T237 1287T303 1339T378 1359Q416 1359 450 1342T514 1303T571 1264T622 1246Q660 1246 696 1278T767 1369L821 1346Q803 1305 778 1265T723 1193T656 1141T581 1121Q546 1121 515 1138T453 1177T394 1216T335 1234Q295
1234 262 1202T192 1113L139 1133ZM244 229Q244 189 256 164T285 125T320 105T352 100Q412 100 479 130T623 227V486Q539 472 485 459T395 433T339 404T302 372Q276 345 260 311T244 229Z" />
<glyph unicode="&#xe4;" glyph-name="adieresis" horiz-adv-x="940" d="M80 186Q80 262 106 313T170 401Q194 425 224 446T305 488T432 526T623 561V702Q623 736 615 765T588 816T537 849T455 860Q423 859 392 849T338 821T302 779T292 724Q293 715 272 704T221
683T163 669T122 667L108 706Q131 756 178 802T285 883T413 939T544 960Q654 960 713 903T773 742V178Q773 136 784 118T813 100Q827 100 849 105T911 127L926 82Q841 23 786 -3T702 -30Q669 -30 647 16T623 143Q578 98 533 65T445 11T364 -20T293 -30Q257 -30
219 -18T151 20T100 87T80 186ZM180 1220Q180 1248 189 1273T214 1316T250 1345T295 1356Q380 1356 380 1261Q380 1233 371 1208T347 1165T310 1135T264 1124Q219 1124 200 1149T180 1220ZM244 229Q244 189 256 164T285 125T320 105T352 100Q412 100 479 130T623
227V486Q539 472 485 459T395 433T339 404T302 372Q276 345 260 311T244 229ZM580 1220Q580 1248 589 1273T614 1316T650 1345T695 1356Q780 1356 780 1261Q780 1233 771 1208T747 1165T710 1135T664 1124Q619 1124 600 1149T580 1220Z" />
<glyph unicode="&#xe5;" glyph-name="aring" horiz-adv-x="940" d="M80 186Q80 262 106 313T170 401Q194 425 224 446T305 488T432 526T623 561V702Q623 736 615 765T588 816T537 849T455 860Q423 859 392 849T338 821T302 779T292 724Q293 715 272 704T221 683T163
669T122 667L108 706Q131 756 178 802T285 883T413 939T544 960Q654 960 713 903T773 742V178Q773 136 784 118T813 100Q827 100 849 105T911 127L926 82Q841 23 786 -3T702 -30Q669 -30 647 16T623 143Q578 98 533 65T445 11T364 -20T293 -30Q257 -30 219 -18T151
20T100 87T80 186ZM244 229Q244 189 256 164T285 125T320 105T352 100Q412 100 479 130T623 227V486Q539 472 485 459T395 433T339 404T302 372Q276 345 260 311T244 229ZM294 1204Q294 1255 313 1298T364 1373T433 1422T511 1440Q543 1440 571 1428T621 1394T654
1344T666 1284Q666 1233 647 1191T596 1117T526 1068T449 1050Q415 1050 387 1062T338 1095T306 1144T294 1204ZM384 1245Q384 1222 390 1201T407 1163T434 1136T470 1126T509 1133T543 1156T567 1192T576 1243Q576 1267 570 1289T553 1327T526 1354T490 1364Q469
1364 450 1356T417 1332T393 1294T384 1245Z" />
<glyph unicode="&#xe6;" glyph-name="ae" horiz-adv-x="1417" d="M80 186Q80 245 103 299T174 401T293 486T463 553Q496 562 537 567T623 576V662Q623 701 617 737T594 800T547 843T467 860Q435 860 399 846T334 806T291 747T292 676Q295 667 274 656T223 636T164
623T122 621L108 657Q113 696 137 734T197 805T277 867T367 916T457 948T535 960Q623 960 674 924T749 816Q781 856 817 884T889 928T960 952T1024 960Q1085 960 1132 943T1213 896T1272 826T1310 742T1331 650T1337 557Q1317 537 1287 520T1225 489H776Q774 472
774 454V418Q774 360 789 304T835 202T908 130T1008 102Q1039 102 1067 105T1128 122T1200 163T1292 236Q1305 229 1314 216T1329 195Q1269 123 1219 79T1124 11T1035 -21T944 -30Q900 -30 858 -16T778 25T710 90T658 179Q615 127 565 88T464 23T369 -17T293 -30Q257
-30 219 -18T151 20T100 87T80 186ZM244 229Q244 189 256 164T285 125T320 105T352 100Q379 100 413 109T484 135T561 180T637 243Q630 272 627 302T623 365V485Q590 483 564 480T526 473Q376 436 310 374T244 229ZM785 580H1133Q1154 580 1162 587T1171 616Q1171
664 1161 708T1130 785T1076 839T995 860Q972 860 942 849T881 808T825 722T785 580Z" />
<glyph unicode="&#xe7;" glyph-name="ccedilla" horiz-adv-x="895" d="M80 444Q80 552 119 646T227 809T389 919T590 960Q623 960 657 955T723 939T781 914T825 881Q827 869 822 847T808 801T788 754T768 717L731 727Q723 745 705 766T659 806T591 837T500 850Q447
850 399 827T313 756T253 639T230 475Q230 390 255 321T323 202T421 127T537 100Q565 100 589 102T641 118T707 157T801 231L840 190Q775 113 726 70T634 4T552 -24Q547 -25 541 -26L515 -104Q541 -110 566 -119T611 -144T643 -180T655 -229Q655 -266 638 -300T583
-362T488 -411T347 -444L325 -395Q377 -386 413 -373T473 -343T506 -310T517 -276Q517 -242 491 -229T403 -209Q405 -206 413 -181L434 -115L462 -30Q390 -29 322 2Q253 35 199 96T113 245T80 444Z" />
<glyph unicode="&#xe8;" glyph-name="egrave" horiz-adv-x="946" d="M80 434Q80 501 95 566T138 689T208 796T301 881Q323 896 350 910T408 936T467 953T524 960Q589 960 640 942T729 894T793 823T835 737T859 646T866 557Q848 537 818 520T756 490H230Q231 412
251 342T310 218T403 132T526 100Q557 100 586 104T650 122T725 163T823 236Q836 229 845 216T860 195Q793 122 743 78T648 9T560 -22T465 -30Q388 -30 319 3T196 96T112 242T80 434ZM216 1424L238 1465Q248 1468 268 1472L308 1479Q330 1483 351 1485T384 1489L624
1078Q611 1066 598 1059T568 1047L216 1424ZM236 580H664Q687 580 694 587T702 616Q702 643 695 683T665 762T602 828T496 855Q444 855 401 835T324 779T268 692T236 580Z" />
<glyph unicode="&#xe9;" glyph-name="eacute" horiz-adv-x="946" d="M80 434Q80 501 95 566T138 689T208 796T301 881Q323 896 350 910T408 936T467 953T524 960Q589 960 640 942T729 894T793 823T835 737T859 646T866 557Q848 537 818 520T756 490H230Q231 412
251 342T310 218T403 132T526 100Q557 100 586 104T650 122T725 163T823 236Q836 229 845 216T860 195Q793 122 743 78T648 9T560 -22T465 -30Q388 -30 319 3T196 96T112 242T80 434ZM236 580H664Q687 580 694 587T702 616Q702 643 695 683T665 762T602 828T496
855Q444 855 401 835T324 779T268 692T236 580ZM410 1075L644 1489Q656 1488 676 1486L716 1480Q738 1477 758 1473T789 1466L812 1427L467 1047Q449 1050 435 1058T410 1075Z" />
<glyph unicode="&#xea;" glyph-name="ecircumflex" horiz-adv-x="946" d="M80 434Q80 501 95 566T138 689T208 796T301 881Q323 896 350 910T408 936T467 953T524 960Q589 960 640 942T729 894T793 823T835 737T859 646T866 557Q848 537 818 520T756 490H230Q231
412 251 342T310 218T403 132T526 100Q557 100 586 104T650 122T725 163T823 236Q836 229 845 216T860 195Q793 122 743 78T648 9T560 -22T465 -30Q388 -30 319 3T196 96T112 242T80 434ZM193 1092L457 1471H564L826 1092Q814 1073 807 1064T783 1047L509 1315L238
1047Q230 1051 225 1055T215 1064T205 1076L193 1092ZM236 580H664Q687 580 694 587T702 616Q702 643 695 683T665 762T602 828T496 855Q444 855 401 835T324 779T268 692T236 580Z" />
<glyph unicode="&#xeb;" glyph-name="edieresis" horiz-adv-x="946" d="M80 434Q80 501 95 566T138 689T208 796T301 881Q323 896 350 910T408 936T467 953T524 960Q589 960 640 942T729 894T793 823T835 737T859 646T866 557Q848 537 818 520T756 490H230Q231
412 251 342T310 218T403 132T526 100Q557 100 586 104T650 122T725 163T823 236Q836 229 845 216T860 195Q793 122 743 78T648 9T560 -22T465 -30Q388 -30 319 3T196 96T112 242T80 434ZM210 1220Q210 1248 219 1273T244 1316T280 1345T325 1356Q410 1356 410
1261Q410 1233 401 1208T377 1165T340 1135T294 1124Q249 1124 230 1149T210 1220ZM236 580H664Q687 580 694 587T702 616Q702 643 695 683T665 762T602 828T496 855Q444 855 401 835T324 779T268 692T236 580ZM610 1220Q610 1248 619 1273T644 1316T680 1345T725
1356Q810 1356 810 1261Q810 1233 801 1208T777 1165T740 1135T694 1124Q649 1124 630 1149T610 1220Z" />
<glyph unicode="&#xec;" glyph-name="igrave" horiz-adv-x="555" d="M-9 1424L13 1465Q23 1468 42 1472L84 1479Q105 1483 126 1485T159 1489L399 1078Q386 1066 373 1059T343 1047L-9 1424ZM70 0V43Q138 57 174 73T210 104V670Q210 721 208 752T193 801T152 827T70
840V880Q101 886 135 894T204 913T269 936T326 960H360V104Q360 92 393 75T500 43V0H70Z" />
<glyph unicode="&#xed;" glyph-name="iacute" horiz-adv-x="555" d="M70 0V43Q138 57 174 73T210 104V670Q210 721 208 752T193 801T152 827T70 840V880Q101 886 135 894T204 913T269 936T326 960H360V104Q360 92 393 75T500 43V0H70ZM185 1075L419 1489Q431 1488
450 1486L492 1480Q513 1477 533 1473T564 1466L587 1427L242 1047Q224 1050 210 1058T185 1075Z" />
<glyph unicode="&#xee;" glyph-name="icircumflex" horiz-adv-x="555" d="M-32 1092L232 1471H339L601 1092Q589 1073 582 1064T558 1047L284 1315L13 1047Q5 1051 0 1055T-10 1064T-20 1076L-32 1092ZM70 0V43Q138 57 174 73T210 104V670Q210 721 208 752T193
801T152 827T70 840V880Q101 886 135 894T204 913T269 936T326 960H360V104Q360 92 393 75T500 43V0H70Z" />
<glyph unicode="&#xef;" glyph-name="idieresis" horiz-adv-x="555" d="M-15 1220Q-15 1248 -6 1273T19 1316T55 1345T100 1356Q185 1356 185 1261Q185 1233 176 1208T152 1165T115 1135T69 1124Q24 1124 5 1149T-15 1220ZM70 0V43Q138 57 174 73T210 104V670Q210
721 208 752T193 801T152 827T70 840V880Q101 886 135 894T204 913T269 936T326 960H360V104Q360 92 393 75T500 43V0H70ZM385 1220Q385 1248 394 1273T419 1316T455 1345T500 1356Q585 1356 585 1261Q585 1233 576 1208T552 1165T515 1135T469 1124Q424 1124 405
1149T385 1220Z" />
<glyph unicode="&#xf0;" glyph-name="eth" horiz-adv-x="1020" d="M80 444Q80 510 96 574T142 695T211 801T299 885T399 940T506 960Q536 960 568 950T632 922T694 880T750 829Q721 930 671 1011T550 1165L324 1067L295 1070Q285 1071 277 1072T260 1077L233 1085L223
1122L478 1233Q451 1257 422 1276T359 1309T290 1328T211 1327L205 1368L406 1440Q519 1365 603 1287L811 1378L848 1372Q860 1370 868 1368T884 1363T905 1356L911 1321L673 1218Q742 1143 792 1066T873 909T920 750T935 592Q935 476 913 385T855 225T773 108T677
29T581 -16T496 -30Q398 -30 321 6T191 105T109 255T80 444ZM235 473Q235 394 261 323T327 197T415 112T506 80Q561 80 611 107T700 192T762 339T785 551Q785 560 785 569T785 586Q766 643 732 691T655 775T565 830T475 850Q416 850 371 821T296 742T251 622T235
473Z" />
<glyph unicode="&#xf1;" glyph-name="ntilde" horiz-adv-x="1130" d="M55 0V43Q121 60 158 73T195 104V711Q195 750 192 773T176 809T134 828T55 840V880Q123 891 181 911T295 960L330 925L341 676Q385 743 438 795T545 884T649 940T739 960Q782 960 822 947T892
907T941 839T960 741V104Q960 90 990 77T1100 43V0H670V43Q742 62 776 76T810 104V633Q810 694 803 732T781 792T742 822T682 830Q651 830 613 815T532 767T441 681T345 549V104Q345 89 382 73T485 43V0H55ZM236 1133Q254 1174 278 1214T334 1287T400 1339T475
1359Q513 1359 547 1342T611 1303T668 1264T719 1246Q757 1246 793 1278T864 1369L918 1346Q900 1305 875 1265T820 1193T753 1141T678 1121Q643 1121 612 1138T550 1177T491 1216T432 1234Q392 1234 359 1202T289 1113L236 1133Z" />
<glyph unicode="&#xf2;" glyph-name="ograve" horiz-adv-x="1030" d="M80 444Q80 510 96 574T142 695T213 801T305 885T414 940T535 960Q629 960 705 924T836 825T920 674T950 485Q950 418 933 354T886 233T814 128T722 44T614 -10T496 -30Q401 -30 325 6T194
105T110 255T80 444ZM235 473Q235 394 263 323T333 197T427 112T524 80Q595 80 646 106T730 182T779 300T795 455Q795 534 769 605T702 731T609 818T506 850Q430 850 378 821T295 742T249 622T235 473ZM241 1424L263 1465Q273 1468 292 1472L334 1479Q355 1483
376 1485T409 1489L649 1078Q636 1066 623 1059T593 1047L241 1424Z" />
<glyph unicode="&#xf3;" glyph-name="oacute" horiz-adv-x="1030" d="M80 444Q80 510 96 574T142 695T213 801T305 885T414 940T535 960Q629 960 705 924T836 825T920 674T950 485Q950 418 933 354T886 233T814 128T722 44T614 -10T496 -30Q401 -30 325 6T194
105T110 255T80 444ZM235 473Q235 394 263 323T333 197T427 112T524 80Q595 80 646 106T730 182T779 300T795 455Q795 534 769 605T702 731T609 818T506 850Q430 850 378 821T295 742T249 622T235 473ZM435 1075L669 1489Q681 1488 700 1486L742 1480Q763 1477
783 1473T814 1466L837 1427L492 1047Q474 1050 460 1058T435 1075Z" />
<glyph unicode="&#xf4;" glyph-name="ocircumflex" horiz-adv-x="1030" d="M80 444Q80 510 96 574T142 695T213 801T305 885T414 940T535 960Q629 960 705 924T836 825T920 674T950 485Q950 418 933 354T886 233T814 128T722 44T614 -10T496 -30Q401 -30 325 6T194
105T110 255T80 444ZM218 1092L482 1471H589L851 1092Q839 1073 832 1064T808 1047L534 1315L263 1047Q255 1051 250 1055T240 1064T230 1076L218 1092ZM235 473Q235 394 263 323T333 197T427 112T524 80Q595 80 646 106T730 182T779 300T795 455Q795 534 769 605T702
731T609 818T506 850Q430 850 378 821T295 742T249 622T235 473Z" />
<glyph unicode="&#xf5;" glyph-name="otilde" horiz-adv-x="1030" d="M80 444Q80 510 96 574T142 695T213 801T305 885T414 940T535 960Q629 960 705 924T836 825T920 674T950 485Q950 418 933 354T886 233T814 128T722 44T614 -10T496 -30Q401 -30 325 6T194
105T110 255T80 444ZM194 1133Q212 1174 236 1214T292 1287T358 1339T433 1359Q471 1359 505 1342T569 1303T626 1264T677 1246Q715 1246 751 1278T822 1369L876 1346Q858 1305 833 1265T778 1193T711 1141T636 1121Q601 1121 570 1138T508 1177T449 1216T390 1234Q350
1234 317 1202T247 1113L194 1133ZM235 473Q235 394 263 323T333 197T427 112T524 80Q595 80 646 106T730 182T779 300T795 455Q795 534 769 605T702 731T609 818T506 850Q430 850 378 821T295 742T249 622T235 473Z" />
<glyph unicode="&#xf6;" glyph-name="odieresis" horiz-adv-x="1030" d="M80 444Q80 510 96 574T142 695T213 801T305 885T414 940T535 960Q629 960 705 924T836 825T920 674T950 485Q950 418 933 354T886 233T814 128T722 44T614 -10T496 -30Q401 -30 325 6T194
105T110 255T80 444ZM235 473Q235 394 263 323T333 197T427 112T524 80Q595 80 646 106T730 182T779 300T795 455Q795 534 769 605T702 731T609 818T506 850Q430 850 378 821T295 742T249 622T235 473ZM235 1220Q235 1248 244 1273T269 1316T305 1345T350 1356Q435
1356 435 1261Q435 1233 426 1208T402 1165T365 1135T319 1124Q274 1124 255 1149T235 1220ZM635 1220Q635 1248 644 1273T669 1316T705 1345T750 1356Q835 1356 835 1261Q835 1233 826 1208T802 1165T765 1135T719 1124Q674 1124 655 1149T635 1220Z" />
<glyph unicode="&#xf7;" glyph-name="divide" horiz-adv-x="840" d="M61 531Q66 551 74 574T92 617H754L778 593Q773 573 765 549T748 507H86L61 531ZM340 308Q340 330 347 350T366 384T396 407T432 416Q499 416 499 340Q499 318 492 298T473 263T443 240T407
231Q372 231 356 251T340 308ZM340 788Q340 810 347 830T366 864T396 887T432 896Q499 896 499 820Q499 798 492 778T473 743T443 720T407 711Q372 711 356 731T340 788Z" />
<glyph unicode="&#xf8;" glyph-name="oslash" horiz-adv-x="1030" d="M80 444Q80 510 96 574T142 695T213 801T305 885T414 940T535 960Q604 960 663 941T772 885L793 913L822 932L853 953Q869 963 885 971T915 983L946 950L844 815Q895 752 922 668T950 485Q950
418 933 354T886 233T814 128T722 44T614 -10T496 -30Q427 -30 368 -11T261 43L242 18Q233 10 216 0L182 -22Q164 -32 147 -40T117 -53L88 -20L188 112Q136 175 108 259T80 444ZM233 473Q233 412 249 357T294 253L678 761Q639 803 595 826T506 850Q430 850 378
821T294 742T247 622T233 473ZM356 169Q396 127 440 104T524 80Q595 80 646 106T731 182T781 300T797 455Q797 515 781 571T739 676L356 169Z" />
<glyph unicode="&#xf9;" glyph-name="ugrave" horiz-adv-x="1085" d="M41 854V894Q77 898 108 904T169 918T229 936T292 960L320 921V334Q320 264 330 217T360 142T408 102T473 90Q505 90 538 99T607 129T682 182T765 262V711Q765 756 761 783T741 825T699 846T625
854V894Q697 903 763 922T885 960L915 921V254Q915 192 919 153T938 104Q950 96 979 100T1059 127L1069 82L998 38Q964 17 935 2T884 -21T850 -30Q815 -30 793 16T765 166Q703 104 652 66T557 6T477 -22T408 -30Q361 -30 318 -17T242 30T190 125T170 279V711Q170
759 167 785T152 825T113 844T41 854ZM251 1424L273 1465Q283 1468 302 1472L344 1479Q365 1483 386 1485T419 1489L659 1078Q646 1066 633 1059T603 1047L251 1424Z" />
<glyph unicode="&#xfa;" glyph-name="uacute" horiz-adv-x="1085" d="M41 854V894Q77 898 108 904T169 918T229 936T292 960L320 921V334Q320 264 330 217T360 142T408 102T473 90Q505 90 538 99T607 129T682 182T765 262V711Q765 756 761 783T741 825T699 846T625
854V894Q697 903 763 922T885 960L915 921V254Q915 192 919 153T938 104Q950 96 979 100T1059 127L1069 82L998 38Q964 17 935 2T884 -21T850 -30Q815 -30 793 16T765 166Q703 104 652 66T557 6T477 -22T408 -30Q361 -30 318 -17T242 30T190 125T170 279V711Q170
759 167 785T152 825T113 844T41 854ZM445 1075L679 1489Q691 1488 710 1486L752 1480Q773 1477 793 1473T824 1466L847 1427L502 1047Q484 1050 470 1058T445 1075Z" />
<glyph unicode="&#xfb;" glyph-name="ucircumflex" horiz-adv-x="1085" d="M41 854V894Q77 898 108 904T169 918T229 936T292 960L320 921V334Q320 264 330 217T360 142T408 102T473 90Q505 90 538 99T607 129T682 182T765 262V711Q765 756 761 783T741 825T699
846T625 854V894Q697 903 763 922T885 960L915 921V254Q915 192 919 153T938 104Q950 96 979 100T1059 127L1069 82L998 38Q964 17 935 2T884 -21T850 -30Q815 -30 793 16T765 166Q703 104 652 66T557 6T477 -22T408 -30Q361 -30 318 -17T242 30T190 125T170 279V711Q170
759 167 785T152 825T113 844T41 854ZM228 1092L492 1471H599L861 1092Q849 1073 842 1064T818 1047L544 1315L273 1047Q265 1051 260 1055T250 1064T240 1076L228 1092Z" />
<glyph unicode="&#xfc;" glyph-name="udieresis" horiz-adv-x="1085" d="M41 854V894Q77 898 108 904T169 918T229 936T292 960L320 921V334Q320 264 330 217T360 142T408 102T473 90Q505 90 538 99T607 129T682 182T765 262V711Q765 756 761 783T741 825T699
846T625 854V894Q697 903 763 922T885 960L915 921V254Q915 192 919 153T938 104Q950 96 979 100T1059 127L1069 82L998 38Q964 17 935 2T884 -21T850 -30Q815 -30 793 16T765 166Q703 104 652 66T557 6T477 -22T408 -30Q361 -30 318 -17T242 30T190 125T170 279V711Q170
759 167 785T152 825T113 844T41 854ZM245 1220Q245 1248 254 1273T279 1316T315 1345T360 1356Q445 1356 445 1261Q445 1233 436 1208T412 1165T375 1135T329 1124Q284 1124 265 1149T245 1220ZM645 1220Q645 1248 654 1273T679 1316T715 1345T760 1356Q845 1356
845 1261Q845 1233 836 1208T812 1165T775 1135T729 1124Q684 1124 665 1149T645 1220Z" />
<glyph unicode="&#xfd;" glyph-name="yacute" horiz-adv-x="1010" d="M-47 -447Q-47 -441 -35 -423T-5 -384T33 -342T70 -312Q118 -340 165 -342T250 -330Q268 -324 292 -302T340 -248T388 -176Q412 -135 430 -92L459 -23L131 819Q122 847 96 861T20 887V930H406V887Q367
882 343 877T305 865T289 846T293 819L539 182L770 819Q775 834 772 844T755 862T717 875T655 887V930H989V887Q959 880 940 874T909 861T891 844T879 819L545 -82Q503 -193 452 -272T345 -401T233 -476T127 -500Q89 -500 57 -495T2 -483T-34 -466T-47 -447ZM430
1075L664 1489Q676 1488 696 1486L736 1480Q758 1477 778 1473T809 1466L832 1427L487 1047Q469 1050 455 1058T430 1075Z" />
<glyph unicode="&#xfe;" glyph-name="thorn" horiz-adv-x="1085" d="M55 -437Q121 -421 158 -407T195 -375V1296Q195 1341 189 1366T168 1403T125 1420T55 1430V1470Q127 1484 187 1501T308 1550L345 1516V733Q396 794 446 837T540 907T623 947T690 960Q758 960
816 928T916 836T981 688T1005 492Q1005 434 990 373T946 254T879 144T792 54T689 -7T573 -30Q557 -30 533 -25T478 -7T414 25T345 74V-375Q345 -391 383 -407T515 -437V-480H55V-437ZM345 213Q422 153 492 122T631 90Q688 90 732 117T807 189T854 291T870 408Q870
507 850 586T795 720T716 805T623 835Q605 835 576 824T510 787T431 718T345 610V213Z" />
<glyph unicode="&#xff;" glyph-name="ydieresis" horiz-adv-x="1010" d="M-47 -447Q-47 -441 -35 -423T-5 -384T33 -342T70 -312Q118 -340 165 -342T250 -330Q268 -324 292 -302T340 -248T388 -176Q412 -135 430 -92L459 -23L131 819Q122 847 96 861T20 887V930H406V887Q367
882 343 877T305 865T289 846T293 819L539 182L770 819Q775 834 772 844T755 862T717 875T655 887V930H989V887Q959 880 940 874T909 861T891 844T879 819L545 -82Q503 -193 452 -272T345 -401T233 -476T127 -500Q89 -500 57 -495T2 -483T-34 -466T-47 -447ZM230
1220Q230 1248 239 1273T264 1316T300 1345T345 1356Q430 1356 430 1261Q430 1233 421 1208T397 1165T360 1135T314 1124Q269 1124 250 1149T230 1220ZM630 1220Q630 1248 639 1273T664 1316T700 1345T745 1356Q830 1356 830 1261Q830 1233 821 1208T797 1165T760
1135T714 1124Q669 1124 650 1149T630 1220Z" />
<glyph unicode="&#x100;" glyph-name="Amacron" horiz-adv-x="1219" d="M0 0V43Q68 55 108 68T158 111L530 1237Q553 1262 587 1282T647 1317L1067 111Q1072 97 1081 86T1105 67T1143 53T1198 43V0H776V43Q854 48 884 63T903 111L789 445H381L270 111Q260 80 297
66T416 43V0H0ZM271 1480Q273 1491 278 1505T289 1534L301 1562Q307 1575 312 1585H925L947 1561Q945 1550 940 1536T929 1506L918 1478Q912 1464 908 1455H293L271 1480ZM411 535H758L582 1049L411 535Z" />
<glyph unicode="&#x101;" glyph-name="amacron" horiz-adv-x="940" d="M80 186Q80 262 106 313T170 401Q194 425 224 446T305 488T432 526T623 561V702Q623 736 615 765T588 816T537 849T455 860Q423 859 392 849T338 821T302 779T292 724Q293 715 272 704T221
683T163 669T122 667L108 706Q131 756 178 802T285 883T413 939T544 960Q654 960 713 903T773 742V178Q773 136 784 118T813 100Q827 100 849 105T911 127L926 82Q841 23 786 -3T702 -30Q669 -30 647 16T623 143Q578 98 533 65T445 11T364 -20T293 -30Q257 -30
219 -18T151 20T100 87T80 186ZM152 1200Q154 1211 159 1225T170 1254L182 1282Q188 1295 193 1305H806L828 1281Q826 1270 821 1256T810 1226L798 1198Q793 1184 789 1175H174L152 1200ZM244 229Q244 189 256 164T285 125T320 105T352 100Q412 100 479 130T623
227V486Q539 472 485 459T395 433T339 404T302 372Q276 345 260 311T244 229Z" />
<glyph unicode="&#x102;" glyph-name="Abreve" horiz-adv-x="1219" d="M0 0V43Q68 55 108 68T158 111L530 1237Q553 1262 587 1282T647 1317L1067 111Q1072 97 1081 86T1105 67T1143 53T1198 43V0H776V43Q854 48 884 63T903 111L789 445H381L270 111Q260 80 297
66T416 43V0H0ZM274 1680Q286 1698 298 1707T327 1725Q352 1668 384 1629T453 1567T526 1533T597 1522Q632 1522 670 1532T745 1566T814 1629T871 1725Q888 1717 900 1708T924 1680Q894 1599 857 1544T778 1455T691 1405T601 1390Q552 1390 506 1405T419 1454T341
1544T274 1680ZM411 535H758L582 1049L411 535Z" />
<glyph unicode="&#x103;" glyph-name="abreve" horiz-adv-x="940" d="M80 186Q80 262 106 313T170 401Q194 425 224 446T305 488T432 526T623 561V702Q623 736 615 765T588 816T537 849T455 860Q423 859 392 849T338 821T302 779T292 724Q293 715 272 704T221
683T163 669T122 667L108 706Q131 756 178 802T285 883T413 939T544 960Q654 960 713 903T773 742V178Q773 136 784 118T813 100Q827 100 849 105T911 127L926 82Q841 23 786 -3T702 -30Q669 -30 647 16T623 143Q578 98 533 65T445 11T364 -20T293 -30Q257 -30
219 -18T151 20T100 87T80 186ZM155 1360Q167 1378 179 1387T208 1405Q233 1348 265 1309T334 1247T407 1213T478 1202Q513 1202 551 1212T626 1246T695 1309T752 1405Q769 1397 781 1388T805 1360Q775 1279 738 1224T659 1135T572 1085T482 1070Q433 1070 387
1085T300 1134T222 1224T155 1360ZM244 229Q244 189 256 164T285 125T320 105T352 100Q412 100 479 130T623 227V486Q539 472 485 459T395 433T339 404T302 372Q276 345 260 311T244 229Z" />
<glyph unicode="&#x106;" glyph-name="Cacute" horiz-adv-x="1098" d="M70 586Q70 746 118 876T250 1098T443 1240T676 1290Q784 1290 865 1261T999 1190Q1005 1185 996 1170T972 1136T938 1098L909 1067L874 1073Q823 1120 753 1150T592 1180Q558 1180 518 1168T436
1128T357 1058T290 952T243 809T225 623Q225 490 263 390T362 224T497 124T643 90Q697 90 784 127T981 256Q986 254 991 248T1002 234T1011 221T1018 211Q954 143 896 97T783 22T676 -18T571 -30Q478 -30 389 12T228 133T114 326T70 586ZM437 1412L824 1729L851
1714L886 1694Q904 1683 919 1673T942 1655L951 1610L482 1367Q465 1374 458 1383T437 1412Z" />
<glyph unicode="&#x107;" glyph-name="cacute" horiz-adv-x="895" d="M80 444Q80 552 119 646T227 809T389 919T590 960Q623 960 657 955T723 939T781 914T825 881Q827 869 822 847T808 801T788 754T768 717L731 727Q723 745 705 766T659 806T591 837T500 850Q447
850 399 827T313 756T253 639T230 475Q230 390 255 321T323 202T421 127T537 100Q565 100 589 102T641 118T707 157T801 231L840 190Q775 113 726 70T634 4T552 -24T465 -30Q392 -30 323 2T199 96T113 245T80 444ZM390 1075L624 1489Q636 1488 656 1486L696 1480Q718
1477 738 1473T769 1466L792 1427L447 1047Q429 1050 415 1058T390 1075Z" />
<glyph unicode="&#x108;" glyph-name="Ccircumflex" horiz-adv-x="1098" d="M70 586Q70 746 118 876T250 1098T443 1240T676 1290Q784 1290 865 1261T999 1190Q1005 1185 996 1170T972 1136T938 1098L909 1067L874 1073Q823 1120 753 1150T592 1180Q558 1180 518
1168T436 1128T357 1058T290 952T243 809T225 623Q225 490 263 390T362 224T497 124T643 90Q697 90 784 127T981 256Q986 254 991 248T1002 234T1011 221T1018 211Q954 143 896 97T783 22T676 -18T571 -30Q478 -30 389 12T228 133T114 326T70 586ZM297 1412L561
1721H668L930 1412Q918 1393 911 1384T887 1367L613 1575L342 1367Q334 1371 329 1375T319 1384T309 1396L297 1412Z" />
<glyph unicode="&#x109;" glyph-name="ccircumflex" horiz-adv-x="895" d="M80 444Q80 552 119 646T227 809T389 919T590 960Q623 960 657 955T723 939T781 914T825 881Q827 869 822 847T808 801T788 754T768 717L731 727Q723 745 705 766T659 806T591 837T500
850Q447 850 399 827T313 756T253 639T230 475Q230 390 255 321T323 202T421 127T537 100Q565 100 589 102T641 118T707 157T801 231L840 190Q775 113 726 70T634 4T552 -24T465 -30Q392 -30 323 2T199 96T113 245T80 444ZM173 1092L437 1471H544L806 1092Q794
1073 787 1064T763 1047L489 1315L218 1047Q210 1051 205 1055T195 1064T185 1076L173 1092Z" />
<glyph unicode="&#x10a;" glyph-name="Cdotaccent" horiz-adv-x="1098" d="M70 586Q70 746 118 876T250 1098T443 1240T676 1290Q784 1290 865 1261T999 1190Q1005 1185 996 1170T972 1136T938 1098L909 1067L874 1073Q823 1120 753 1150T592 1180Q558 1180 518
1168T436 1128T357 1058T290 952T243 809T225 623Q225 490 263 390T362 224T497 124T643 90Q697 90 784 127T981 256Q986 254 991 248T1002 234T1011 221T1018 211Q954 143 896 97T783 22T676 -18T571 -30Q478 -30 389 12T228 133T114 326T70 586ZM514 1500Q514
1528 523 1553T548 1596T584 1625T629 1636Q714 1636 714 1541Q714 1513 705 1488T681 1445T644 1415T598 1404Q553 1404 534 1429T514 1500Z" />
<glyph unicode="&#x10b;" glyph-name="cdotaccent" horiz-adv-x="895" d="M80 444Q80 552 119 646T227 809T389 919T590 960Q623 960 657 955T723 939T781 914T825 881Q827 869 822 847T808 801T788 754T768 717L731 727Q723 745 705 766T659 806T591 837T500
850Q447 850 399 827T313 756T253 639T230 475Q230 390 255 321T323 202T421 127T537 100Q565 100 589 102T641 118T707 157T801 231L840 190Q775 113 726 70T634 4T552 -24T465 -30Q392 -30 323 2T199 96T113 245T80 444ZM390 1220Q390 1248 399 1273T424 1316T460
1345T505 1356Q590 1356 590 1261Q590 1233 581 1208T557 1165T520 1135T474 1124Q429 1124 410 1149T390 1220Z" />
<glyph unicode="&#x10c;" glyph-name="Ccaron" horiz-adv-x="1098" d="M70 586Q70 746 118 876T250 1098T443 1240T676 1290Q784 1290 865 1261T999 1190Q1005 1185 996 1170T972 1136T938 1098L909 1067L874 1073Q823 1120 753 1150T592 1180Q558 1180 518 1168T436
1128T357 1058T290 952T243 809T225 623Q225 490 263 390T362 224T497 124T643 90Q697 90 784 127T981 256Q986 254 991 248T1002 234T1011 221T1018 211Q954 143 896 97T783 22T676 -18T571 -30Q478 -30 389 12T228 133T114 326T70 586ZM297 1698L309 1715Q314
1722 318 1727T328 1736T342 1745L617 1534L887 1745Q904 1736 911 1727T930 1698L668 1391H561L297 1698Z" />
<glyph unicode="&#x10d;" glyph-name="ccaron" horiz-adv-x="895" d="M80 444Q80 552 119 646T227 809T389 919T590 960Q623 960 657 955T723 939T781 914T825 881Q827 869 822 847T808 801T788 754T768 717L731 727Q723 745 705 766T659 806T591 837T500 850Q447
850 399 827T313 756T253 639T230 475Q230 390 255 321T323 202T421 127T537 100Q565 100 589 102T641 118T707 157T801 231L840 190Q775 113 726 70T634 4T552 -24T465 -30Q392 -30 323 2T199 96T113 245T80 444ZM173 1428L185 1445Q190 1452 194 1457T204 1466T218
1475L493 1224L763 1475Q780 1466 787 1457T806 1428L544 1071H437L173 1428Z" />
<glyph unicode="&#x10e;" glyph-name="Dcaron" horiz-adv-x="1214" d="M41 1230Q85 1242 142 1253T264 1272T393 1285T518 1290Q657 1290 769 1249T959 1128T1080 935T1123 676Q1123 551 1098 453T1029 279T930 151T810 65T683 16T559 0H50V43Q118 57 156 73T195
104V1188Q155 1183 119 1178L50 1168L41 1230ZM233 1698L245 1715Q250 1722 254 1727T264 1736T278 1745L553 1534L823 1745Q840 1736 847 1727T866 1698L604 1391H497L233 1698ZM355 154Q355 132 365 118Q379 101 419 93T537 84Q606 84 679 117T814 219T914 392T953
637Q953 770 920 875T824 1054T667 1167T453 1206Q403 1206 355 1203V154Z" />
<glyph unicode="&#x110;" glyph-name="Dcroat" horiz-adv-x="1214" d="M27 640L38 672Q43 689 49 705H195V1188Q155 1183 119 1178L50 1168L41 1230Q85 1242 142 1253T264 1272T393 1285T518 1290Q657 1290 769 1249T959 1128T1080 935T1123 676Q1123 551 1098
453T1029 279T930 151T810 65T683 16T559 0H50V43Q118 57 156 73T195 104V615H49L27 640ZM355 154Q355 132 365 118Q379 101 419 93T537 84Q606 84 679 117T814 219T914 392T953 637Q953 770 920 875T824 1054T667 1167T453 1206Q403 1206 355 1203V705H614L639
682L614 615H355V154Z" />
<glyph unicode="&#x111;" glyph-name="" horiz-adv-x="1065" d="M80 444Q80 501 95 562T140 680T211 788T305 877T419 938T551 960Q598 960 644 949T745 897V1140H465L442 1162Q447 1178 452 1196T465 1230H745V1274Q745 1329 742 1361T725 1411T682 1435T600
1446V1485Q682 1496 747 1514T864 1550L895 1520V1230H1040L1063 1205L1040 1140H895V254Q895 219 896 194T901 152T908 124T918 106Q927 95 952 99T1038 127L1051 84Q1005 53 970 32T908 -4T862 -24T829 -31Q796 -31 775 14T747 169Q709 123 672 86T595 24T511
-16T416 -30Q360 -30 301 2T193 96T112 245T80 444ZM230 475Q230 390 254 321T317 202T400 127T487 100Q521 100 554 114T619 150T682 202L745 261V730Q712 787 652 818T520 850Q456 850 403 827T312 756T252 639T230 475Z" />
<glyph unicode="&#x112;" glyph-name="Emacron" horiz-adv-x="1016" d="M50 0V43Q118 57 156 73T195 104V1155Q195 1167 159 1185T50 1217V1260H856L889 1235Q887 1209 883 1178T873 1116T861 1057T848 1010H803Q801 1056 795 1087T778 1136T754 1162T721 1170H355V735H760L786
707Q778 693 767 677T743 646T718 617T694 596Q679 611 662 621T622 638T569 648T496 651H355V154Q355 139 362 128T391 108T453 95T559 90H688Q734 90 766 95T824 117T869 169T911 262L954 244Q946 158 934 94T913 0H50ZM174 1480Q176 1491 181 1505T192 1534L204
1562Q210 1575 215 1585H828L850 1561Q848 1550 843 1536T832 1506L820 1478Q815 1464 811 1455H196L174 1480Z" />
<glyph unicode="&#x113;" glyph-name="emacron" horiz-adv-x="946" d="M80 434Q80 501 95 566T138 689T208 796T301 881Q323 896 350 910T408 936T467 953T524 960Q589 960 640 942T729 894T793 823T835 737T859 646T866 557Q848 537 818 520T756 490H230Q231
412 251 342T310 218T403 132T526 100Q557 100 586 104T650 122T725 163T823 236Q836 229 845 216T860 195Q793 122 743 78T648 9T560 -22T465 -30Q388 -30 319 3T196 96T112 242T80 434ZM182 1200Q184 1211 189 1225T200 1254L212 1282Q218 1295 223 1305H836L858
1281Q856 1270 851 1256T840 1226L828 1198Q823 1184 819 1175H204L182 1200ZM236 580H664Q687 580 694 587T702 616Q702 643 695 683T665 762T602 828T496 855Q444 855 401 835T324 779T268 692T236 580Z" />
<glyph unicode="&#x114;" glyph-name="Ebreve" horiz-adv-x="1016" d="M50 0V43Q118 57 156 73T195 104V1155Q195 1167 159 1185T50 1217V1260H856L889 1235Q887 1209 883 1178T873 1116T861 1057T848 1010H803Q801 1056 795 1087T778 1136T754 1162T721 1170H355V735H760L786
707Q778 693 767 677T743 646T718 617T694 596Q679 611 662 621T622 638T569 648T496 651H355V154Q355 139 362 128T391 108T453 95T559 90H688Q734 90 766 95T824 117T869 169T911 262L954 244Q946 158 934 94T913 0H50ZM177 1680Q189 1698 201 1707T230 1725Q255
1668 287 1629T356 1567T429 1533T500 1522Q535 1522 573 1532T648 1566T717 1629T774 1725Q791 1717 803 1708T827 1680Q797 1599 760 1544T681 1455T594 1405T504 1390Q455 1390 409 1405T322 1454T244 1544T177 1680Z" />
<glyph unicode="&#x115;" glyph-name="ebreve" horiz-adv-x="946" d="M80 434Q80 501 95 566T138 689T208 796T301 881Q323 896 350 910T408 936T467 953T524 960Q589 960 640 942T729 894T793 823T835 737T859 646T866 557Q848 537 818 520T756 490H230Q231 412
251 342T310 218T403 132T526 100Q557 100 586 104T650 122T725 163T823 236Q836 229 845 216T860 195Q793 122 743 78T648 9T560 -22T465 -30Q388 -30 319 3T196 96T112 242T80 434ZM185 1360Q197 1378 209 1387T238 1405Q263 1348 295 1309T364 1247T437 1213T508
1202Q543 1202 581 1212T656 1246T725 1309T782 1405Q799 1397 811 1388T835 1360Q805 1279 768 1224T689 1135T602 1085T512 1070Q463 1070 417 1085T330 1134T252 1224T185 1360ZM236 580H664Q687 580 694 587T702 616Q702 643 695 683T665 762T602 828T496 855Q444
855 401 835T324 779T268 692T236 580Z" />
<glyph unicode="&#x116;" glyph-name="Edotaccent" horiz-adv-x="1016" d="M50 0V43Q118 57 156 73T195 104V1155Q195 1167 159 1185T50 1217V1260H856L889 1235Q887 1209 883 1178T873 1116T861 1057T848 1010H803Q801 1056 795 1087T778 1136T754 1162T721 1170H355V735H760L786
707Q778 693 767 677T743 646T718 617T694 596Q679 611 662 621T622 638T569 648T496 651H355V154Q355 139 362 128T391 108T453 95T559 90H688Q734 90 766 95T824 117T869 169T911 262L954 244Q946 158 934 94T913 0H50ZM402 1500Q402 1528 411 1553T436 1596T472
1625T517 1636Q602 1636 602 1541Q602 1513 593 1488T569 1445T532 1415T486 1404Q441 1404 422 1429T402 1500Z" />
<glyph unicode="&#x117;" glyph-name="edotaccent" horiz-adv-x="946" d="M80 434Q80 501 95 566T138 689T208 796T301 881Q323 896 350 910T408 936T467 953T524 960Q589 960 640 942T729 894T793 823T835 737T859 646T866 557Q848 537 818 520T756 490H230Q231
412 251 342T310 218T403 132T526 100Q557 100 586 104T650 122T725 163T823 236Q836 229 845 216T860 195Q793 122 743 78T648 9T560 -22T465 -30Q388 -30 319 3T196 96T112 242T80 434ZM236 580H664Q687 580 694 587T702 616Q702 643 695 683T665 762T602 828T496
855Q444 855 401 835T324 779T268 692T236 580ZM410 1220Q410 1248 419 1273T444 1316T480 1345T525 1356Q610 1356 610 1261Q610 1233 601 1208T577 1165T540 1135T494 1124Q449 1124 430 1149T410 1220Z" />
<glyph unicode="&#x11a;" glyph-name="Ecaron" horiz-adv-x="1016" d="M50 0V43Q118 57 156 73T195 104V1155Q195 1167 159 1185T50 1217V1260H856L889 1235Q887 1209 883 1178T873 1116T861 1057T848 1010H803Q801 1056 795 1087T778 1136T754 1162T721 1170H355V735H760L786
707Q778 693 767 677T743 646T718 617T694 596Q679 611 662 621T622 638T569 648T496 651H355V154Q355 139 362 128T391 108T453 95T559 90H688Q734 90 766 95T824 117T869 169T911 262L954 244Q946 158 934 94T913 0H50ZM185 1698L197 1715Q202 1722 206 1727T216
1736T230 1745L505 1534L775 1745Q792 1736 799 1727T818 1698L556 1391H449L185 1698Z" />
<glyph unicode="&#x11b;" glyph-name="ecaron" horiz-adv-x="946" d="M80 434Q80 501 95 566T138 689T208 796T301 881Q323 896 350 910T408 936T467 953T524 960Q589 960 640 942T729 894T793 823T835 737T859 646T866 557Q848 537 818 520T756 490H230Q231 412
251 342T310 218T403 132T526 100Q557 100 586 104T650 122T725 163T823 236Q836 229 845 216T860 195Q793 122 743 78T648 9T560 -22T465 -30Q388 -30 319 3T196 96T112 242T80 434ZM193 1428L205 1445Q210 1452 214 1457T224 1466T238 1475L513 1224L783 1475Q800
1466 807 1457T826 1428L564 1071H457L193 1428ZM236 580H664Q687 580 694 587T702 616Q702 643 695 683T665 762T602 828T496 855Q444 855 401 835T324 779T268 692T236 580Z" />
<glyph unicode="&#x11c;" glyph-name="Gcircumflex" horiz-adv-x="1194" d="M70 582Q70 748 122 879T266 1102T478 1242T737 1290Q770 1290 809 1283T890 1263T970 1231T1042 1188Q1049 1183 1040 1169T1015 1136T978 1100L946 1071L913 1077Q880 1108 845 1128T772
1160T690 1175T598 1180Q573 1180 536 1169T457 1132T374 1065T300 963T246 822T225 637Q225 498 262 395T359 225T494 124T645 90Q718 90 779 104T890 146V485Q890 496 881 506T848 527T785 547T684 567V610H1145V567Q1088 553 1064 531T1040 485V154Q966 93 908
57T800 2T707 -24T618 -30Q517 -30 419 7T244 121T118 312T70 582ZM323 1412L587 1721H694L956 1412Q944 1393 937 1384T913 1367L639 1575L368 1367Q360 1371 355 1375T345 1384T335 1396L323 1412Z" />
<glyph unicode="&#x11d;" glyph-name="gcircumflex" horiz-adv-x="999" d="M30 -229Q30 -203 39 -175T78 -113T159 -42T297 42Q232 65 207 94T182 153Q182 161 187 174T207 207T251 252T326 309Q275 323 234 349T163 413T117 498T100 602Q100 675 133 740T220
854T343 931T485 960Q545 960 597 943T693 895Q745 900 787 908T862 925T922 943T969 960L989 930L966 878Q955 855 932 830Q894 823 858 819T775 813Q801 775 815 732T830 641Q830 564 796 501T705 392T578 321T434 295H430Q382 255 364 229T346 196Q346 184 356
173T395 151T474 130T602 110Q714 97 782 74Q853 50 895 19T953 -49T970 -120Q970 -175 949 -224T892 -316T807 -392T702 -450T586 -487T467 -500Q420 -500 370 -494T271 -473T179 -438T102 -386T50 -317T30 -229ZM180 -190Q180 -232 208 -269T283 -334T392 -378T522
-395Q589 -395 644 -377T738 -328T798 -253T820 -157Q820 -129 807 -106T760 -63T668 -29T518 -4Q476 1 448 5Q416 10 388 16Q316 -23 275 -54T212 -109T186 -154T180 -190ZM183 1092L447 1471H554L816 1092Q804 1073 797 1064T773 1047L499 1315L228 1047Q220
1051 215 1055T205 1064T195 1076L183 1092ZM240 659Q240 606 256 559T306 476T391 421T514 400Q543 400 574 412T631 450T673 513T690 600Q690 653 673 700T621 783T535 839T416 860Q391 860 361 847T303 809T258 746T240 659Z" />
<glyph unicode="&#x11e;" glyph-name="Gbreve" horiz-adv-x="1194" d="M70 582Q70 748 122 879T266 1102T478 1242T737 1290Q770 1290 809 1283T890 1263T970 1231T1042 1188Q1049 1183 1040 1169T1015 1136T978 1100L946 1071L913 1077Q880 1108 845 1128T772
1160T690 1175T598 1180Q573 1180 536 1169T457 1132T374 1065T300 963T246 822T225 637Q225 498 262 395T359 225T494 124T645 90Q718 90 779 104T890 146V485Q890 496 881 506T848 527T785 547T684 567V610H1145V567Q1088 553 1064 531T1040 485V154Q966 93 908
57T800 2T707 -24T618 -30Q517 -30 419 7T244 121T118 312T70 582ZM315 1680Q327 1698 339 1707T368 1725Q393 1668 425 1629T494 1567T567 1533T638 1522Q673 1522 711 1532T786 1566T855 1629T912 1725Q929 1717 941 1708T965 1680Q935 1599 898 1544T819 1455T732
1405T642 1390Q593 1390 547 1405T460 1454T382 1544T315 1680Z" />
<glyph unicode="&#x11f;" glyph-name="gbreve" horiz-adv-x="999" d="M30 -229Q30 -203 39 -175T78 -113T159 -42T297 42Q232 65 207 94T182 153Q182 161 187 174T207 207T251 252T326 309Q275 323 234 349T163 413T117 498T100 602Q100 675 133 740T220 854T343
931T485 960Q545 960 597 943T693 895Q745 900 787 908T862 925T922 943T969 960L989 930L966 878Q955 855 932 830Q894 823 858 819T775 813Q801 775 815 732T830 641Q830 564 796 501T705 392T578 321T434 295H430Q382 255 364 229T346 196Q346 184 356 173T395
151T474 130T602 110Q714 97 782 74Q853 50 895 19T953 -49T970 -120Q970 -175 949 -224T892 -316T807 -392T702 -450T586 -487T467 -500Q420 -500 370 -494T271 -473T179 -438T102 -386T50 -317T30 -229ZM175 1360Q187 1378 199 1387T228 1405Q253 1348 285 1309T354
1247T427 1213T498 1202Q533 1202 571 1212T646 1246T715 1309T772 1405Q789 1397 801 1388T825 1360Q795 1279 758 1224T679 1135T592 1085T502 1070Q453 1070 407 1085T320 1134T242 1224T175 1360ZM180 -190Q180 -232 208 -269T283 -334T392 -378T522 -395Q589
-395 644 -377T738 -328T798 -253T820 -157Q820 -129 807 -106T760 -63T668 -29T518 -4Q476 1 448 5Q416 10 388 16Q316 -23 275 -54T212 -109T186 -154T180 -190ZM240 659Q240 606 256 559T306 476T391 421T514 400Q543 400 574 412T631 450T673 513T690 600Q690
653 673 700T621 783T535 839T416 860Q391 860 361 847T303 809T258 746T240 659Z" />
<glyph unicode="&#x120;" glyph-name="Gdotaccent" horiz-adv-x="1194" d="M70 582Q70 748 122 879T266 1102T478 1242T737 1290Q770 1290 809 1283T890 1263T970 1231T1042 1188Q1049 1183 1040 1169T1015 1136T978 1100L946 1071L913 1077Q880 1108 845 1128T772
1160T690 1175T598 1180Q573 1180 536 1169T457 1132T374 1065T300 963T246 822T225 637Q225 498 262 395T359 225T494 124T645 90Q718 90 779 104T890 146V485Q890 496 881 506T848 527T785 547T684 567V610H1145V567Q1088 553 1064 531T1040 485V154Q966 93 908
57T800 2T707 -24T618 -30Q517 -30 419 7T244 121T118 312T70 582ZM540 1500Q540 1528 549 1553T574 1596T610 1625T655 1636Q740 1636 740 1541Q740 1513 731 1488T707 1445T670 1415T624 1404Q579 1404 560 1429T540 1500Z" />
<glyph unicode="&#x121;" glyph-name="gdotaccent" horiz-adv-x="999" d="M30 -229Q30 -203 39 -175T78 -113T159 -42T297 42Q232 65 207 94T182 153Q182 161 187 174T207 207T251 252T326 309Q275 323 234 349T163 413T117 498T100 602Q100 675 133 740T220 854T343
931T485 960Q545 960 597 943T693 895Q745 900 787 908T862 925T922 943T969 960L989 930L966 878Q955 855 932 830Q894 823 858 819T775 813Q801 775 815 732T830 641Q830 564 796 501T705 392T578 321T434 295H430Q382 255 364 229T346 196Q346 184 356 173T395
151T474 130T602 110Q714 97 782 74Q853 50 895 19T953 -49T970 -120Q970 -175 949 -224T892 -316T807 -392T702 -450T586 -487T467 -500Q420 -500 370 -494T271 -473T179 -438T102 -386T50 -317T30 -229ZM180 -190Q180 -232 208 -269T283 -334T392 -378T522 -395Q589
-395 644 -377T738 -328T798 -253T820 -157Q820 -129 807 -106T760 -63T668 -29T518 -4Q476 1 448 5Q416 10 388 16Q316 -23 275 -54T212 -109T186 -154T180 -190ZM240 659Q240 606 256 559T306 476T391 421T514 400Q543 400 574 412T631 450T673 513T690 600Q690
653 673 700T621 783T535 839T416 860Q391 860 361 847T303 809T258 746T240 659ZM400 1220Q400 1248 409 1273T434 1316T470 1345T515 1356Q600 1356 600 1261Q600 1233 591 1208T567 1165T530 1135T484 1124Q439 1124 420 1149T400 1220Z" />
<glyph unicode="&#x124;" glyph-name="Hcircumflex" horiz-adv-x="1339" d="M50 0V43Q118 57 156 73T195 104V1155Q195 1167 159 1185T50 1217V1260H500V1217Q432 1203 394 1186T355 1155V705H965V1155Q965 1167 929 1185T820 1217V1260H1270V1217Q1202 1203 1164
1186T1125 1155V104Q1125 92 1161 75T1270 43V0H820V43Q888 57 926 73T965 104V615H355V104Q355 92 391 75T500 43V0H50ZM343 1412L607 1721H714L976 1412Q964 1393 957 1384T933 1367L659 1575L388 1367Q380 1371 375 1375T365 1384T355 1396L343 1412Z" />
<glyph unicode="&#x125;" glyph-name="hcircumflex" horiz-adv-x="1130" d="M55 0V43Q121 60 158 73T195 104V1298Q195 1340 192 1363T174 1400T131 1418T55 1430V1470Q97 1478 131 1486T195 1503T252 1524T308 1550L345 1516V684Q388 748 440 799T546 886T649
941T739 960Q782 960 822 947T892 907T941 839T960 741V104Q960 90 990 77T1100 43V0H670V43Q742 62 776 76T810 104V633Q810 694 803 732T779 792T739 822T682 830Q647 830 607 812T522 759T433 672T345 549V104Q345 89 382 73T485 43V0H55ZM260 1662L524 1971H631L893
1662Q881 1643 874 1634T850 1617L576 1825L305 1617Q297 1621 292 1625T282 1634T272 1646L260 1662Z" />
<glyph unicode="&#x128;" glyph-name="Itilde" horiz-adv-x="610" d="M-46 1413Q-28 1454 -4 1494T52 1567T118 1619T193 1639Q231 1639 265 1622T329 1583T386 1544T437 1526Q475 1526 511 1558T582 1649L636 1626Q618 1585 593 1545T538 1473T471 1421T396 1401Q361
1401 330 1418T268 1457T209 1496T150 1514Q110 1514 77 1482T7 1393L-46 1413ZM70 0V43Q138 57 176 73T215 104V1155Q215 1167 179 1185T70 1217V1260H520V1217Q452 1203 414 1186T375 1155V104Q375 92 411 75T520 43V0H70Z" />
<glyph unicode="&#x129;" glyph-name="itilde" horiz-adv-x="555" d="M-56 1133Q-38 1174 -14 1214T42 1287T108 1339T183 1359Q221 1359 255 1342T319 1303T376 1264T427 1246Q465 1246 501 1278T572 1369L626 1346Q608 1305 583 1265T528 1193T461 1141T386
1121Q351 1121 320 1138T258 1177T199 1216T140 1234Q100 1234 67 1202T-3 1113L-56 1133ZM70 0V43Q138 57 174 73T210 104V670Q210 721 208 752T193 801T152 827T70 840V880Q101 886 135 894T204 913T269 936T326 960H360V104Q360 92 393 75T500 43V0H70Z" />
<glyph unicode="&#x12a;" glyph-name="Imacron" horiz-adv-x="610" d="M47 1520Q49 1531 54 1545T65 1574L77 1602Q83 1615 88 1625H541L563 1601Q561 1590 556 1576T545 1546L534 1518Q528 1504 524 1495H69L47 1520ZM70 0V43Q138 57 176 73T215 104V1155Q215
1167 179 1185T70 1217V1260H520V1217Q452 1203 414 1186T375 1155V104Q375 92 411 75T520 43V0H70Z" />
<glyph unicode="&#x12b;" glyph-name="imacron" horiz-adv-x="555" d="M37 1200Q39 1211 44 1225T55 1254L67 1282Q73 1295 78 1305H531L553 1281Q551 1270 546 1256T535 1226L524 1198Q518 1184 514 1175H59L37 1200ZM70 0V43Q138 57 174 73T210 104V670Q210
721 208 752T193 801T152 827T70 840V880Q101 886 135 894T204 913T269 936T326 960H360V104Q360 92 393 75T500 43V0H70Z" />
<glyph unicode="&#x12c;" glyph-name="Ibreve" horiz-adv-x="610" d="M-30 1680Q-18 1698 -6 1707T23 1725Q48 1668 80 1629T149 1567T222 1533T293 1522Q328 1522 366 1532T441 1566T510 1629T567 1725Q584 1717 596 1708T620 1680Q590 1599 553 1544T474 1455T387
1405T297 1390Q248 1390 202 1405T115 1454T37 1544T-30 1680ZM70 0V43Q138 57 176 73T215 104V1155Q215 1167 179 1185T70 1217V1260H520V1217Q452 1203 414 1186T375 1155V104Q375 92 411 75T520 43V0H70Z" />
<glyph unicode="&#x12d;" glyph-name="ibreve" horiz-adv-x="555" d="M-40 1360Q-28 1378 -16 1387T13 1405Q38 1348 70 1309T139 1247T212 1213T283 1202Q318 1202 356 1212T431 1246T500 1309T557 1405Q574 1397 586 1388T610 1360Q580 1279 543 1224T464 1135T377
1085T287 1070Q238 1070 192 1085T105 1134T27 1224T-40 1360ZM70 0V43Q138 57 174 73T210 104V670Q210 721 208 752T193 801T152 827T70 840V880Q101 886 135 894T204 913T269 936T326 960H360V104Q360 92 393 75T500 43V0H70Z" />
<glyph unicode="&#x130;" glyph-name="Idot" horiz-adv-x="610" d="M70 0V43Q138 57 176 73T215 104V1155Q215 1167 179 1185T70 1217V1260H520V1217Q452 1203 414 1186T375 1155V104Q375 92 411 75T520 43V0H70ZM195 1500Q195 1528 204 1553T229 1596T265 1625T310
1636Q395 1636 395 1541Q395 1513 386 1488T362 1445T325 1415T279 1404Q234 1404 215 1429T195 1500Z" />
<glyph unicode="&#x131;" glyph-name="dotlessi" horiz-adv-x="555" d="M70 0V43Q138 57 174 73T210 104V670Q210 721 208 752T193 801T152 827T70 840V880Q101 886 135 894T204 913T269 936T326 960H360V104Q360 92 393 75T500 43V0H70Z" />
<glyph unicode="&#x132;" glyph-name="IJ" horiz-adv-x="1235" d="M70 0V43Q138 57 176 73T215 104V1155Q215 1167 179 1185T70 1217V1260H520V1217Q452 1203 414 1186T375 1155V104Q375 92 411 75T520 43V0H70ZM420 -300Q420 -292 433 -277T464 -247T502 -219T536
-200Q564 -218 585 -229T624 -247T658 -255T694 -257Q720 -257 749 -240T803 -180T844 -60T860 133V1155Q860 1161 852 1168T823 1183T763 1199T665 1217V1260H1165V1217Q1097 1203 1059 1186T1020 1155V205Q1020 86 1004 7T960 -128T896 -219T821 -288Q794 -310
762 -327T696 -356T634 -374T585 -380Q555 -380 525 -371T472 -349T435 -323T420 -300Z" />
<glyph unicode="&#x133;" glyph-name="ij" horiz-adv-x="1085" d="M70 0V43Q138 57 174 73T210 104V670Q210 721 208 752T193 801T152 827T70 840V880Q101 886 135 894T204 913T269 936T326 960H360V104Q360 92 393 75T500 43V0H70ZM190 1220Q190 1248 199 1273T224
1316T260 1345T305 1356Q390 1356 390 1261Q390 1233 381 1208T357 1165T320 1135T274 1124Q229 1124 210 1149T190 1220ZM335 -431Q335 -422 349 -407T384 -374T425 -342T462 -320Q494 -348 528 -356T600 -365Q629 -365 657 -347T709 -282T746 -157T760 43V670Q760
721 758 752T742 800T701 826T620 840V880Q662 887 694 896T756 914T814 936L873 960H910V99Q910 -16 896 -96T856 -233T795 -329T720 -400Q693 -421 663 -439T603 -471T547 -492T501 -500Q470 -500 441 -493T388 -474T350 -451T335 -431ZM740 1220Q740 1248 749
1273T773 1316T810 1345T855 1356Q940 1356 940 1261Q940 1233 931 1208T907 1165T870 1135T825 1124Q780 1124 760 1149T740 1220Z" />
<glyph unicode="&#x139;" glyph-name="Lacute" horiz-adv-x="975" d="M50 0V43Q118 57 156 73T195 104V1155Q195 1167 159 1185T50 1217V1260H500V1217Q432 1203 394 1186T355 1155V164Q355 146 363 133T393 110T450 95T541 90H684Q730 90 761 95T817 117T860
169T901 262L944 244Q936 157 924 93T903 0H50ZM290 1412L677 1729L704 1714L739 1694Q757 1683 772 1673T795 1655L804 1610L335 1367Q318 1374 311 1383T290 1412Z" />
<glyph unicode="&#x13a;" glyph-name="lacute" horiz-adv-x="555" d="M60 0V43Q103 50 132 57T178 72T202 88T210 104V1296Q210 1341 204 1366T182 1403T139 1420T70 1430V1470Q142 1484 202 1501T324 1550L360 1516V104Q360 89 394 73T510 43V0H60ZM108 1732L495
2049L522 2034L557 2014Q575 2003 590 1993T613 1975L622 1930L153 1687Q136 1694 129 1703T108 1732Z" />
<glyph unicode="&#x141;" glyph-name="Lslash" horiz-adv-x="975" d="M41 491Q44 500 50 513T63 539T78 563T92 580L195 632V1155Q195 1167 159 1185T50 1217V1260H500V1217Q432 1203 394 1186T355 1155V712L633 853L659 828Q651 810 636 784T606 741L355 614V164Q355
146 363 133T393 110T450 95T541 90H684Q730 90 761 95T817 117T860 169T901 262L944 244Q936 157 924 93T903 0H50V43Q118 57 156 73T195 104V533L68 469L41 491Z" />
<glyph unicode="&#x142;" glyph-name="lslash" horiz-adv-x="575" d="M54 594Q56 607 58 615T62 631T70 652L82 686L220 782V1296Q220 1341 214 1366T192 1403T149 1420T80 1430V1470Q152 1484 212 1501T334 1550L370 1516V886L517 989L540 973Q537 956 535 946T529
928T522 909L511 882L370 782V104Q370 89 404 73T520 43V0H70V43Q113 50 142 57T188 72T212 88T220 104V677L78 577L54 594Z" />
<glyph unicode="&#x143;" glyph-name="Nacute" horiz-adv-x="1329" d="M50 0V43Q124 52 159 71T195 104V1149Q162 1180 126 1195T50 1217V1260H262Q277 1260 286 1258T306 1247T328 1224L358 1182L1015 276V1155Q1015 1167 983 1186T870 1217V1260H1280V1217Q1208
1207 1172 1188T1135 1155V-30Q1085 -24 1057 -10T1016 21L315 993V104Q315 92 348 73T460 43V0H50ZM488 1412L875 1729L902 1714L937 1694Q955 1683 970 1673T993 1655L1002 1610L533 1367Q516 1374 509 1383T488 1412Z" />
<glyph unicode="&#x144;" glyph-name="nacute" horiz-adv-x="1130" d="M55 0V43Q121 60 158 73T195 104V711Q195 750 192 773T176 809T134 828T55 840V880Q123 891 181 911T295 960L330 925L341 676Q385 743 438 795T545 884T649 940T739 960Q782 960 822 947T892
907T941 839T960 741V104Q960 90 990 77T1100 43V0H670V43Q742 62 776 76T810 104V633Q810 694 803 732T781 792T742 822T682 830Q651 830 613 815T532 767T441 681T345 549V104Q345 89 382 73T485 43V0H55ZM477 1075L711 1489Q723 1488 742 1486L784 1480Q805
1477 825 1473T856 1466L879 1427L534 1047Q516 1050 502 1058T477 1075Z" />
<glyph unicode="&#x147;" glyph-name="Ncaron" horiz-adv-x="1329" d="M50 0V43Q124 52 159 71T195 104V1149Q162 1180 126 1195T50 1217V1260H262Q277 1260 286 1258T306 1247T328 1224L358 1182L1015 276V1155Q1015 1167 983 1186T870 1217V1260H1280V1217Q1208
1207 1172 1188T1135 1155V-30Q1085 -24 1057 -10T1016 21L315 993V104Q315 92 348 73T460 43V0H50ZM348 1698L360 1715Q365 1722 369 1727T379 1736T393 1745L668 1534L938 1745Q955 1736 962 1727T981 1698L719 1391H612L348 1698Z" />
<glyph unicode="&#x148;" glyph-name="ncaron" horiz-adv-x="1130" d="M55 0V43Q121 60 158 73T195 104V711Q195 750 192 773T176 809T134 828T55 840V880Q123 891 181 911T295 960L330 925L341 676Q385 743 438 795T545 884T649 940T739 960Q782 960 822 947T892
907T941 839T960 741V104Q960 90 990 77T1100 43V0H670V43Q742 62 776 76T810 104V633Q810 694 803 732T781 792T742 822T682 830Q651 830 613 815T532 767T441 681T345 549V104Q345 89 382 73T485 43V0H55ZM260 1428L272 1445Q277 1452 281 1457T291 1466T305
1475L580 1224L850 1475Q867 1466 874 1457T893 1428L631 1071H524L260 1428Z" />
<glyph unicode="&#x14a;" glyph-name="Eng" horiz-adv-x="1235" d="M49 0V43Q117 57 156 73T195 104V1030Q195 1069 192 1093T176 1132T134 1154T55 1167V1210Q123 1223 194 1242T320 1290L355 1255V928Q432 1034 501 1103T633 1214T753 1273T864 1290Q907 1290
953 1277T1037 1230T1100 1135T1125 981V277Q1125 173 1104 87T1046 -70T964 -194Q918 -248 866 -288Q838 -309 804 -326Q769 -343 731 -355T653 -373T578 -380Q534 -380 490 -369T411 -342T353 -307T330 -272Q330 -263 346 -247T384 -214T429 -182T467 -161Q494
-188 525 -207T587 -239T648 -258T704 -264Q751 -264 798 -234T882 -144T942 8T965 224V872Q965 954 953 1007T919 1092T865 1137T797 1150Q757 1150 712 1133T613 1071T496 948T355 748V104Q355 92 391 75T500 43V0H49Z" />
<glyph unicode="&#x14b;" glyph-name="eng" horiz-adv-x="1120" d="M55 0V43Q121 60 158 73T195 104V711Q195 750 192 773T176 809T134 828T55 840V881Q123 892 181 912T295 961L330 926L340 676Q384 743 437 795T544 884T649 940T739 960Q782 960 822 947T892
907T941 839T960 741V88Q960 -29 942 -109T893 -244T824 -337T745 -407Q718 -430 684 -447T616 -476T552 -494T502 -500Q468 -500 429 -490T355 -465T297 -433T274 -401Q274 -392 289 -377T324 -344T367 -312T403 -290Q432 -317 462 -334T521 -361T574 -376T613
-380Q641 -380 675 -362T740 -296T790 -169T810 35V633Q810 694 803 732T781 791T742 821T682 829Q651 829 613 815T531 767T440 681T344 549V104Q344 89 382 73T485 43V0H55Z" />
<glyph unicode="&#x14c;" glyph-name="Omacron" horiz-adv-x="1229" d="M70 612Q70 748 114 871T234 1087T412 1235T633 1290Q757 1290 851 1236T1009 1091T1105 885T1138 647Q1138 511 1093 389T971 173T791 25T575 -30Q455 -30 361 23T203 165T104 370T70 612ZM225
641Q225 529 255 429T337 254T458 134T604 90Q687 90 756 124T876 227T955 396T983 629Q983 698 971 765T935 893T879 1005T803 1094T711 1153T604 1175Q515 1175 445 1138T326 1031T251 862T225 641ZM287 1480Q289 1491 294 1505T305 1534L317 1562Q323 1575 328
1585H941L963 1561Q961 1550 956 1536T945 1506L934 1478Q928 1464 924 1455H309L287 1480Z" />
<glyph unicode="&#x14d;" glyph-name="omacron" horiz-adv-x="1030" d="M80 444Q80 510 96 574T142 695T213 801T305 885T414 940T535 960Q629 960 705 924T836 825T920 674T950 485Q950 418 933 354T886 233T814 128T722 44T614 -10T496 -30Q401 -30 325 6T194
105T110 255T80 444ZM207 1200Q209 1211 214 1225T225 1254L237 1282Q243 1295 248 1305H861L883 1281Q881 1270 876 1256T865 1226L854 1198Q848 1184 844 1175H229L207 1200ZM235 473Q235 394 263 323T333 197T427 112T524 80Q595 80 646 106T730 182T779 300T795
455Q795 534 769 605T702 731T609 818T506 850Q430 850 378 821T295 742T249 622T235 473Z" />
<glyph unicode="&#x14e;" glyph-name="Obreve" horiz-adv-x="1229" d="M70 612Q70 748 114 871T234 1087T412 1235T633 1290Q757 1290 851 1236T1009 1091T1105 885T1138 647Q1138 511 1093 389T971 173T791 25T575 -30Q455 -30 361 23T203 165T104 370T70 612ZM225
641Q225 529 255 429T337 254T458 134T604 90Q687 90 756 124T876 227T955 396T983 629Q983 698 971 765T935 893T879 1005T803 1094T711 1153T604 1175Q515 1175 445 1138T326 1031T251 862T225 641ZM290 1680Q302 1698 314 1707T343 1725Q368 1668 400 1629T469
1567T542 1533T613 1522Q648 1522 686 1532T761 1566T830 1629T887 1725Q904 1717 916 1708T940 1680Q910 1599 873 1544T794 1455T707 1405T617 1390Q568 1390 522 1405T435 1454T357 1544T290 1680Z" />
<glyph unicode="&#x14f;" glyph-name="obreve" horiz-adv-x="1030" d="M80 444Q80 510 96 574T142 695T213 801T305 885T414 940T535 960Q629 960 705 924T836 825T920 674T950 485Q950 418 933 354T886 233T814 128T722 44T614 -10T496 -30Q401 -30 325 6T194
105T110 255T80 444ZM210 1360Q222 1378 234 1387T263 1405Q288 1348 320 1309T389 1247T462 1213T533 1202Q568 1202 606 1212T681 1246T750 1309T807 1405Q824 1397 836 1388T860 1360Q830 1279 793 1224T714 1135T627 1085T537 1070Q488 1070 442 1085T355 1134T277
1224T210 1360ZM235 473Q235 394 263 323T333 197T427 112T524 80Q595 80 646 106T730 182T779 300T795 455Q795 534 769 605T702 731T609 818T506 850Q430 850 378 821T295 742T249 622T235 473Z" />
<glyph unicode="&#x150;" glyph-name="Ohungarumlaut" horiz-adv-x="1229" d="M70 612Q70 748 114 871T234 1087T412 1235T633 1290Q757 1290 851 1236T1009 1091T1105 885T1138 647Q1138 511 1093 389T971 173T791 25T575 -30Q455 -30 361 23T203 165T104 370T70
612ZM225 641Q225 529 255 429T337 254T458 134T604 90Q687 90 756 124T876 227T955 396T983 629Q983 698 971 765T935 893T879 1005T803 1094T711 1153T604 1175Q515 1175 445 1138T326 1031T251 862T225 641ZM395 1394L571 1809Q583 1807 599 1805T632 1798L664
1792Q680 1788 690 1784L712 1743L452 1367Q435 1371 425 1376T395 1394ZM686 1394L862 1809L890 1804Q906 1802 922 1798L954 1792Q970 1788 981 1784L1003 1743L743 1367Q724 1371 714 1376T686 1394Z" />
<glyph unicode="&#x151;" glyph-name="ohungarumlaut" horiz-adv-x="1030" d="M80 444Q80 510 96 574T142 695T213 801T305 885T414 940T535 960Q629 960 705 924T836 825T920 674T950 485Q950 418 933 354T886 233T814 128T722 44T614 -10T496 -30Q401 -30 325
6T194 105T110 255T80 444ZM235 473Q235 394 263 323T333 197T427 112T524 80Q595 80 646 106T730 182T779 300T795 455Q795 534 769 605T702 731T609 818T506 850Q430 850 378 821T295 742T249 622T235 473ZM315 1074L491 1489Q503 1487 519 1485T552 1478L584
1472Q600 1468 610 1464L632 1423L372 1047Q355 1051 345 1056T315 1074ZM606 1074L782 1489L810 1484Q826 1482 842 1478L874 1472Q890 1468 901 1464L923 1423L663 1047Q644 1051 634 1056T606 1074Z" />
<glyph unicode="&#x152;" glyph-name="OE" horiz-adv-x="1634" d="M70 612Q70 748 114 871T234 1087T412 1235T633 1290Q673 1290 702 1286T759 1276T815 1266T885 1260H1477L1507 1235Q1505 1209 1502 1178T1493 1116T1481 1057T1468 1010H1421Q1419 1056 1413
1086T1397 1135T1373 1161T1339 1169H1016V735H1378L1407 707Q1398 693 1386 678T1362 648T1337 621T1315 600Q1300 615 1283 625T1243 642T1189 652T1116 655H1016V154Q1016 139 1017 128T1032 108T1080 95T1180 90H1309Q1355 90 1387 95T1444 117T1489 169T1532
262L1575 244Q1567 157 1555 93T1534 0H880Q827 -1 789 -5T718 -15T652 -25T575 -30Q455 -30 361 23T203 165T104 370T70 612ZM225 641Q225 529 255 429T337 254T458 134T604 90Q644 90 679 91T744 98T802 112T854 139V1099Q801 1140 738 1158T604 1176Q515 1176
445 1138T326 1031T251 862T225 641Z" />
<glyph unicode="&#x153;" glyph-name="oe" horiz-adv-x="1624" d="M80 444Q80 510 97 574T144 695T217 801T309 885T417 940T535 960Q589 960 638 945T731 903T808 838T869 751Q894 789 925 821T995 880Q1017 895 1045 909T1103 935T1160 953T1212 960Q1274 960
1322 942T1408 894T1471 823T1513 737T1536 646T1544 557Q1524 537 1494 520T1432 489H930Q931 411 951 341T1008 218T1097 134T1214 102Q1242 102 1269 105T1328 122T1402 163T1499 236Q1512 229 1521 216T1536 195Q1470 122 1420 78T1326 9T1241 -22T1153 -30Q1103
-30 1057 -16T968 26T891 93T831 184Q799 137 759 98T673 30T577 -14T475 -30Q390 -30 318 6T193 105T110 255T80 444ZM233 473Q233 394 260 323T330 197T427 112T535 80T633 108T709 187T758 306T776 455T751 606T683 732T586 818T475 850Q421 850 377 821T300
742T251 622T233 473ZM936 580H1339Q1361 580 1369 587T1378 616Q1378 643 1371 684T1342 763T1283 828T1184 856Q1136 856 1095 836T1021 779T967 692T936 580Z" />
<glyph unicode="&#x154;" glyph-name="Racute" horiz-adv-x="1149" d="M41 1230Q88 1242 136 1252T236 1271T345 1285T469 1290Q585 1290 671 1267T814 1203T899 1107T927 987Q927 915 907 857T849 753T759 676T645 625L948 139Q963 117 980 104T1019 85T1067
78T1128 80L1139 37Q1073 15 1014 1T915 -14Q886 -14 859 2T817 41L514 602Q501 600 488 600H461Q435 600 409 602T355 611V104Q355 92 391 75T500 43V0H50V43Q118 57 156 73T195 104V1189L124 1178Q87 1173 50 1168L41 1230ZM343 1412L730 1729L757 1714L792 1694Q810
1683 825 1673T848 1655L857 1610L388 1367Q371 1374 364 1383T343 1412ZM355 691Q382 686 402 685T444 684Q602 684 687 753T772 956Q772 1011 753 1057T692 1136T586 1187T432 1206Q394 1206 355 1203V691Z" />
<glyph unicode="&#x155;" glyph-name="racute" horiz-adv-x="811" d="M55 0V43Q121 58 158 72T195 104V686Q195 719 193 741T188 778T181 800T172 813Q165 820 157 824T135 832T102 836T55 840V880L182 914Q245 932 295 960L330 925L343 698Q370 753 401 801T469
884T544 940T627 960Q659 960 696 952T770 923Q779 917 779 888T771 821T751 743T727 676H684Q678 716 667 744T642 788T610 812T573 820Q551 820 522 802T461 744T400 643T345 496V104Q345 89 382 73T514 43V0H55ZM350 1075L584 1489Q596 1488 616 1486L656 1480Q678
1477 698 1473T729 1466L752 1427L407 1047Q389 1050 375 1058T350 1075Z" />
<glyph unicode="&#x158;" glyph-name="Rcaron" horiz-adv-x="1149" d="M41 1230Q88 1242 136 1252T236 1271T345 1285T469 1290Q585 1290 671 1267T814 1203T899 1107T927 987Q927 915 907 857T849 753T759 676T645 625L948 139Q963 117 980 104T1019 85T1067
78T1128 80L1139 37Q1073 15 1014 1T915 -14Q886 -14 859 2T817 41L514 602Q501 600 488 600H461Q435 600 409 602T355 611V104Q355 92 391 75T500 43V0H50V43Q118 57 156 73T195 104V1189L124 1178Q87 1173 50 1168L41 1230ZM203 1698L215 1715Q220 1722 224 1727T234
1736T248 1745L523 1534L793 1745Q810 1736 817 1727T836 1698L574 1391H467L203 1698ZM355 691Q382 686 402 685T444 684Q602 684 687 753T772 956Q772 1011 753 1057T692 1136T586 1187T432 1206Q394 1206 355 1203V691Z" />
<glyph unicode="&#x159;" glyph-name="rcaron" horiz-adv-x="811" d="M55 0V43Q121 58 158 72T195 104V686Q195 719 193 741T188 778T181 800T172 813Q165 820 157 824T135 832T102 836T55 840V880L182 914Q245 932 295 960L330 925L343 698Q370 753 401 801T469
884T544 940T627 960Q659 960 696 952T770 923Q779 917 779 888T771 821T751 743T727 676H684Q678 716 667 744T642 788T610 812T573 820Q551 820 522 802T461 744T400 643T345 496V104Q345 89 382 73T514 43V0H55ZM133 1428L145 1445Q150 1452 154 1457T164 1466T178
1475L453 1224L723 1475Q740 1466 747 1457T766 1428L504 1071H397L133 1428Z" />
<glyph unicode="&#x15a;" glyph-name="Sacute" horiz-adv-x="975" d="M117 132T117 172T120 255T131 324L172 319Q195 260 229 217T306 146T396 104T496 90Q541 90 586 108T668 159T727 233T750 324Q750 385 723 429T653 507T553 568L438 622Q380 649 324 679T225
749T154 841T127 967Q127 998 136 1034T165 1106T216 1175T292 1234T395 1275T526 1290Q571 1290 616 1283T701 1264T773 1235T823 1198Q830 1192 824 1175T804 1137T774 1096T745 1065L709 1071Q681 1104 651 1126T589 1163T526 1184T467 1190Q411 1190 372 1173T307
1131T269 1074T257 1014Q257 967 284 931T355 864T456 806L571 750Q630 720 686 686T787 608T858 508T885 377Q885 332 873 285T837 193T776 107T690 36T578 -12T440 -30Q407 -30 368 -23T288 -4T207 27T131 68Q124 72 121 102ZM323 1412L710 1729L737 1714L772
1694Q790 1683 805 1673T828 1655L837 1610L368 1367Q351 1374 344 1383T323 1412Z" />
<glyph unicode="&#x15b;" glyph-name="sacute" horiz-adv-x="791" d="M94 105T95 143T101 221T113 283L156 272Q158 230 178 193T231 129T309 86T406 70Q442 70 472 81T524 113T558 163T570 227Q570 267 549 298T492 354T412 402L322 449Q280 470 241 494T172
548T123 615T104 700Q104 762 129 810T195 892T290 942T401 960Q432 960 469 955T543 939T612 915T664 883Q670 877 666 856T652 810T631 763T614 733L575 741Q527 813 476 841T375 870Q342 870 316 859T272 831T244 792T234 750Q234 718 253 693T303 645T374 602L455
559L542 512Q586 487 621 455T678 381T700 283Q700 212 680 162T628 76T557 20T480 -12T409 -26T356 -30Q308 -30 241 -12T106 43Q99 46 97 75ZM297 1075L531 1489Q543 1488 562 1486L604 1480Q625 1477 645 1473T676 1466L699 1427L354 1047Q336 1050 322 1058T297
1075Z" />
<glyph unicode="&#x15c;" glyph-name="Scircumflex" horiz-adv-x="975" d="M117 132T117 172T120 255T131 324L172 319Q195 260 229 217T306 146T396 104T496 90Q541 90 586 108T668 159T727 233T750 324Q750 385 723 429T653 507T553 568L438 622Q380 649 324
679T225 749T154 841T127 967Q127 998 136 1034T165 1106T216 1175T292 1234T395 1275T526 1290Q571 1290 616 1283T701 1264T773 1235T823 1198Q830 1192 824 1175T804 1137T774 1096T745 1065L709 1071Q681 1104 651 1126T589 1163T526 1184T467 1190Q411 1190
372 1173T307 1131T269 1074T257 1014Q257 967 284 931T355 864T456 806L571 750Q630 720 686 686T787 608T858 508T885 377Q885 332 873 285T837 193T776 107T690 36T578 -12T440 -30Q407 -30 368 -23T288 -4T207 27T131 68Q124 72 121 102ZM183 1412L447 1721H554L816
1412Q804 1393 797 1384T773 1367L499 1575L228 1367Q220 1371 215 1375T205 1384T195 1396L183 1412Z" />
<glyph unicode="&#x15d;" glyph-name="scircumflex" horiz-adv-x="791" d="M80 1092L344 1471H451L713 1092Q701 1073 694 1064T670 1047L396 1315L125 1047Q117 1051 112 1055T102 1064T92 1076L80 1092ZM94 105T95 143T101 221T113 283L156 272Q158 230 178
193T231 129T309 86T406 70Q442 70 472 81T524 113T558 163T570 227Q570 267 549 298T492 354T412 402L322 449Q280 470 241 494T172 548T123 615T104 700Q104 762 129 810T195 892T290 942T401 960Q432 960 469 955T543 939T612 915T664 883Q670 877 666 856T652
810T631 763T614 733L575 741Q527 813 476 841T375 870Q342 870 316 859T272 831T244 792T234 750Q234 718 253 693T303 645T374 602L455 559L542 512Q586 487 621 455T678 381T700 283Q700 212 680 162T628 76T557 20T480 -12T409 -26T356 -30Q308 -30 241 -12T106
43Q99 46 97 75Z" />
<glyph unicode="&#x160;" glyph-name="Scaron" horiz-adv-x="975" d="M117 132T117 172T120 255T131 324L172 319Q195 260 229 217T306 146T396 104T496 90Q541 90 586 108T668 159T727 233T750 324Q750 385 723 429T653 507T553 568L438 622Q380 649 324 679T225
749T154 841T127 967Q127 998 136 1034T165 1106T216 1175T292 1234T395 1275T526 1290Q571 1290 616 1283T701 1264T773 1235T823 1198Q830 1192 824 1175T804 1137T774 1096T745 1065L709 1071Q681 1104 651 1126T589 1163T526 1184T467 1190Q411 1190 372 1173T307
1131T269 1074T257 1014Q257 967 284 931T355 864T456 806L571 750Q630 720 686 686T787 608T858 508T885 377Q885 332 873 285T837 193T776 107T690 36T578 -12T440 -30Q407 -30 368 -23T288 -4T207 27T131 68Q124 72 121 102ZM183 1698L195 1715Q200 1722 204
1727T214 1736T228 1745L503 1534L773 1745Q790 1736 797 1727T816 1698L554 1391H447L183 1698Z" />
<glyph unicode="&#x161;" glyph-name="scaron" horiz-adv-x="791" d="M80 1428L92 1445Q97 1452 101 1457T111 1466T125 1475L400 1224L670 1475Q687 1466 694 1457T713 1428L451 1071H344L80 1428ZM94 105T95 143T101 221T113 283L156 272Q158 230 178 193T231
129T309 86T406 70Q442 70 472 81T524 113T558 163T570 227Q570 267 549 298T492 354T412 402L322 449Q280 470 241 494T172 548T123 615T104 700Q104 762 129 810T195 892T290 942T401 960Q432 960 469 955T543 939T612 915T664 883Q670 877 666 856T652 810T631
763T614 733L575 741Q527 813 476 841T375 870Q342 870 316 859T272 831T244 792T234 750Q234 718 253 693T303 645T374 602L455 559L542 512Q586 487 621 455T678 381T700 283Q700 212 680 162T628 76T557 20T480 -12T409 -26T356 -30Q308 -30 241 -12T106 43Q99
46 97 75Z" />
<glyph unicode="&#x164;" glyph-name="Tcaron" horiz-adv-x="1128" d="M10 1014Q15 1073 23 1140T43 1260H1053L1083 1235Q1081 1184 1073 1124T1053 1000H1008L990 1078Q983 1111 973 1131T950 1161T915 1170H631V115Q631 102 667 82T795 43V0H307V43Q353 52
384 62T435 81T462 99T471 115V1170H172Q157 1170 145 1165T120 1141T91 1088T53 995L10 1014ZM229 1698L241 1715Q246 1722 250 1727T260 1736T274 1745L549 1534L819 1745Q836 1736 843 1727T862 1698L600 1391H493L229 1698Z" />
<glyph unicode="&#x168;" glyph-name="Utilde" horiz-adv-x="1339" d="M50 1217V1260H500V1217Q432 1203 394 1186T355 1155V494Q355 398 377 322T444 194T554 113T705 85Q776 85 831 119T923 210T980 337T1000 483V1155Q1000 1167 964 1185T855 1217V1260H1275V1217Q1207
1203 1169 1186T1130 1155V524Q1130 393 1098 290T1006 116T860 8T666 -30Q563 -30 477 -2T328 85T230 233T195 444V1155Q195 1167 159 1185T50 1217ZM336 1413Q354 1454 378 1494T434 1567T500 1619T575 1639Q613 1639 647 1622T711 1583T768 1544T819 1526Q857
1526 893 1558T964 1649L1018 1626Q1000 1585 975 1545T920 1473T853 1421T778 1401Q743 1401 712 1418T650 1457T591 1496T532 1514Q492 1514 459 1482T389 1393L336 1413Z" />
<glyph unicode="&#x169;" glyph-name="utilde" horiz-adv-x="1085" d="M41 854V894Q77 898 108 904T169 918T229 936T292 960L320 921V334Q320 264 330 217T360 142T408 102T473 90Q505 90 538 99T607 129T682 182T765 262V711Q765 756 761 783T741 825T699 846T625
854V894Q697 903 763 922T885 960L915 921V254Q915 192 919 153T938 104Q950 96 979 100T1059 127L1069 82L998 38Q964 17 935 2T884 -21T850 -30Q815 -30 793 16T765 166Q703 104 652 66T557 6T477 -22T408 -30Q361 -30 318 -17T242 30T190 125T170 279V711Q170
759 167 785T152 825T113 844T41 854ZM204 1133Q222 1174 246 1214T302 1287T368 1339T443 1359Q481 1359 515 1342T579 1303T636 1264T687 1246Q725 1246 761 1278T832 1369L886 1346Q868 1305 843 1265T788 1193T721 1141T646 1121Q611 1121 580 1138T518 1177T459
1216T400 1234Q360 1234 327 1202T257 1113L204 1133Z" />
<glyph unicode="&#x16a;" glyph-name="Umacron" horiz-adv-x="1339" d="M50 1217V1260H500V1217Q432 1203 394 1186T355 1155V494Q355 398 377 322T444 194T554 113T705 85Q776 85 831 119T923 210T980 337T1000 483V1155Q1000 1167 964 1185T855 1217V1260H1275V1217Q1207
1203 1169 1186T1130 1155V524Q1130 393 1098 290T1006 116T860 8T666 -30Q563 -30 477 -2T328 85T230 233T195 444V1155Q195 1167 159 1185T50 1217ZM349 1480Q351 1491 356 1505T367 1534L379 1562Q385 1575 390 1585H1003L1025 1561Q1023 1550 1018 1536T1007
1506L996 1478Q990 1464 986 1455H371L349 1480Z" />
<glyph unicode="&#x16b;" glyph-name="umacron" horiz-adv-x="1085" d="M41 854V894Q77 898 108 904T169 918T229 936T292 960L320 921V334Q320 264 330 217T360 142T408 102T473 90Q505 90 538 99T607 129T682 182T765 262V711Q765 756 761 783T741 825T699 846T625
854V894Q697 903 763 922T885 960L915 921V254Q915 192 919 153T938 104Q950 96 979 100T1059 127L1069 82L998 38Q964 17 935 2T884 -21T850 -30Q815 -30 793 16T765 166Q703 104 652 66T557 6T477 -22T408 -30Q361 -30 318 -17T242 30T190 125T170 279V711Q170
759 167 785T152 825T113 844T41 854ZM217 1200Q219 1211 224 1225T235 1254L247 1282Q253 1295 258 1305H871L893 1281Q891 1270 886 1256T875 1226L864 1198Q858 1184 854 1175H239L217 1200Z" />
<glyph unicode="&#x16c;" glyph-name="Ubreve" horiz-adv-x="1339" d="M50 1217V1260H500V1217Q432 1203 394 1186T355 1155V494Q355 398 377 322T444 194T554 113T705 85Q776 85 831 119T923 210T980 337T1000 483V1155Q1000 1167 964 1185T855 1217V1260H1275V1217Q1207
1203 1169 1186T1130 1155V524Q1130 393 1098 290T1006 116T860 8T666 -30Q563 -30 477 -2T328 85T230 233T195 444V1155Q195 1167 159 1185T50 1217ZM352 1680Q364 1698 376 1707T405 1725Q430 1668 462 1629T531 1567T604 1533T675 1522Q710 1522 748 1532T823
1566T892 1629T949 1725Q966 1717 978 1708T1002 1680Q972 1599 935 1544T856 1455T769 1405T679 1390Q630 1390 584 1405T497 1454T419 1544T352 1680Z" />
<glyph unicode="&#x16d;" glyph-name="ubreve" horiz-adv-x="1085" d="M41 854V894Q77 898 108 904T169 918T229 936T292 960L320 921V334Q320 264 330 217T360 142T408 102T473 90Q505 90 538 99T607 129T682 182T765 262V711Q765 756 761 783T741 825T699 846T625
854V894Q697 903 763 922T885 960L915 921V254Q915 192 919 153T938 104Q950 96 979 100T1059 127L1069 82L998 38Q964 17 935 2T884 -21T850 -30Q815 -30 793 16T765 166Q703 104 652 66T557 6T477 -22T408 -30Q361 -30 318 -17T242 30T190 125T170 279V711Q170
759 167 785T152 825T113 844T41 854ZM220 1360Q232 1378 244 1387T273 1405Q298 1348 330 1309T399 1247T472 1213T543 1202Q578 1202 616 1212T691 1246T760 1309T817 1405Q834 1397 846 1388T870 1360Q840 1279 803 1224T724 1135T637 1085T547 1070Q498 1070
452 1085T365 1134T287 1224T220 1360Z" />
<glyph unicode="&#x16e;" glyph-name="Uring" horiz-adv-x="1339" d="M50 1217V1260H500V1217Q432 1203 394 1186T355 1155V494Q355 398 377 322T444 194T554 113T705 85Q776 85 831 119T923 210T980 337T1000 483V1155Q1000 1167 964 1185T855 1217V1260H1275V1217Q1207
1203 1169 1186T1130 1155V524Q1130 393 1098 290T1006 116T860 8T666 -30Q563 -30 477 -2T328 85T230 233T195 444V1155Q195 1167 159 1185T50 1217ZM491 1524Q491 1575 510 1618T561 1693T630 1742T708 1760Q740 1760 768 1748T818 1714T851 1664T863 1604Q863
1553 844 1511T793 1437T723 1388T646 1370Q612 1370 584 1382T535 1415T503 1464T491 1524ZM581 1565Q581 1542 587 1521T604 1483T631 1456T667 1446T706 1453T740 1476T764 1512T773 1563Q773 1587 767 1609T750 1647T723 1674T687 1684Q666 1684 647 1676T614
1652T590 1614T581 1565Z" />
<glyph unicode="&#x16f;" glyph-name="uring" horiz-adv-x="1085" d="M41 854V894Q77 898 108 904T169 918T229 936T292 960L320 921V334Q320 264 330 217T360 142T408 102T473 90Q505 90 538 99T607 129T682 182T765 262V711Q765 756 761 783T741 825T699 846T625
854V894Q697 903 763 922T885 960L915 921V254Q915 192 919 153T938 104Q950 96 979 100T1059 127L1069 82L998 38Q964 17 935 2T884 -21T850 -30Q815 -30 793 16T765 166Q703 104 652 66T557 6T477 -22T408 -30Q361 -30 318 -17T242 30T190 125T170 279V711Q170
759 167 785T152 825T113 844T41 854ZM359 1204Q359 1255 378 1298T429 1373T498 1422T576 1440Q608 1440 636 1428T686 1394T719 1344T731 1284Q731 1233 712 1191T661 1117T591 1068T514 1050Q480 1050 452 1062T403 1095T371 1144T359 1204ZM449 1245Q449 1222
455 1201T472 1163T499 1136T535 1126T574 1133T608 1156T632 1192T641 1243Q641 1267 635 1289T618 1327T591 1354T555 1364Q534 1364 515 1356T482 1332T458 1294T449 1245Z" />
<glyph unicode="&#x170;" glyph-name="Uhungarumlaut" horiz-adv-x="1339" d="M50 1217V1260H500V1217Q432 1203 394 1186T355 1155V494Q355 398 377 322T444 194T554 113T705 85Q776 85 831 119T923 210T980 337T1000 483V1155Q1000 1167 964 1185T855 1217V1260H1275V1217Q1207
1203 1169 1186T1130 1155V524Q1130 393 1098 290T1006 116T860 8T666 -30Q563 -30 477 -2T328 85T230 233T195 444V1155Q195 1167 159 1185T50 1217ZM457 1394L633 1809Q645 1807 661 1805T694 1798L726 1792Q742 1788 752 1784L774 1743L514 1367Q497 1371 487
1376T457 1394ZM748 1394L924 1809L952 1804Q968 1802 984 1798L1016 1792Q1032 1788 1043 1784L1065 1743L805 1367Q786 1371 776 1376T748 1394Z" />
<glyph unicode="&#x171;" glyph-name="uhungarumlaut" horiz-adv-x="1085" d="M41 854V894Q77 898 108 904T169 918T229 936T292 960L320 921V334Q320 264 330 217T360 142T408 102T473 90Q505 90 538 99T607 129T682 182T765 262V711Q765 756 761 783T741 825T699
846T625 854V894Q697 903 763 922T885 960L915 921V254Q915 192 919 153T938 104Q950 96 979 100T1059 127L1069 82L998 38Q964 17 935 2T884 -21T850 -30Q815 -30 793 16T765 166Q703 104 652 66T557 6T477 -22T408 -30Q361 -30 318 -17T242 30T190 125T170 279V711Q170
759 167 785T152 825T113 844T41 854ZM325 1074L501 1489Q513 1487 529 1485T562 1478L594 1472Q610 1468 620 1464L642 1423L382 1047Q365 1051 355 1056T325 1074ZM616 1074L792 1489L820 1484Q836 1482 852 1478L884 1472Q900 1468 911 1464L933 1423L673 1047Q654
1051 644 1056T616 1074Z" />
<glyph unicode="&#x174;" glyph-name="Wcircumflex" horiz-adv-x="1741" d="M20 1217V1260H449V1217Q400 1212 372 1205T330 1188T314 1169T313 1147L512 250L836 1260H891L1245 250L1432 1155Q1434 1167 1423 1176T1391 1192T1341 1205T1278 1217V1260H1702V1217Q1658
1208 1629 1200T1583 1185T1559 1170T1550 1155L1321 59Q1316 38 1300 23T1262 -3T1219 -20T1182 -30L856 944L569 59Q562 38 545 23T507 -2T462 -19T418 -30L158 1147Q153 1172 122 1188T20 1217ZM544 1412L808 1721H915L1177 1412Q1165 1393 1158 1384T1134 1367L860
1575L589 1367Q581 1371 576 1375T566 1384T556 1396L544 1412Z" />
<glyph unicode="&#x175;" glyph-name="wcircumflex" horiz-adv-x="1446" d="M20 887V930H406V887Q357 882 330 876T291 861T279 843T281 825L469 190L715 930H784L1044 190L1217 825Q1223 848 1196 862T1100 887V930H1425V887Q1394 880 1376 874T1348 861T1333
846T1325 825L1104 59Q1098 37 1081 22T1042 -4T1001 -21T967 -30L729 648L524 59Q516 36 500 21T463 -5T424 -21T391 -30L129 825Q120 864 20 887ZM433 1092L697 1471H804L1066 1092Q1054 1073 1047 1064T1023 1047L749 1315L478 1047Q470 1051 465 1055T455 1064T445
1076L433 1092Z" />
<glyph unicode="&#x176;" glyph-name="Ycircumflex" horiz-adv-x="1217" d="M0 1249Q59 1257 118 1263T219 1270Q265 1270 297 1231Q334 1183 377 1118T463 979T547 829L623 680L891 1151Q906 1177 882 1192T780 1217V1260H1176V1217Q1107 1204 1070 1190Q1034
1177 1020 1151L684 541V115Q684 109 692 101T720 82T771 62T850 43V0H360V43Q451 62 487 81T524 115V537Q487 618 440 706T344 877L249 1032Q203 1103 168 1151Q159 1162 148 1172T118 1189T73 1201T4 1206L0 1249ZM287 1412L551 1721H658L920 1412Q908 1393 901
1384T877 1367L603 1575L332 1367Q324 1371 319 1375T309 1384T299 1396L287 1412Z" />
<glyph unicode="&#x177;" glyph-name="ycircumflex" horiz-adv-x="1010" d="M-47 -447Q-47 -441 -35 -423T-5 -384T33 -342T70 -312Q118 -340 165 -342T250 -330Q268 -324 292 -302T340 -248T388 -176Q412 -135 430 -92L459 -23L131 819Q122 847 96 861T20 887V930H406V887Q367
882 343 877T305 865T289 846T293 819L539 182L770 819Q775 834 772 844T755 862T717 875T655 887V930H989V887Q959 880 940 874T909 861T891 844T879 819L545 -82Q503 -193 452 -272T345 -401T233 -476T127 -500Q89 -500 57 -495T2 -483T-34 -466T-47 -447ZM213
1092L477 1471H584L846 1092Q834 1073 827 1064T803 1047L529 1315L258 1047Q250 1051 245 1055T235 1064T225 1076L213 1092Z" />
<glyph unicode="&#x178;" glyph-name="Ydieresis" horiz-adv-x="1217" d="M0 1249Q59 1257 118 1263T219 1270Q265 1270 297 1231Q334 1183 377 1118T463 979T547 829L623 680L891 1151Q906 1177 882 1192T780 1217V1260H1176V1217Q1107 1204 1070 1190Q1034 1177
1020 1151L684 541V115Q684 109 692 101T720 82T771 62T850 43V0H360V43Q451 62 487 81T524 115V537Q487 618 440 706T344 877L249 1032Q203 1103 168 1151Q159 1162 148 1172T118 1189T73 1201T4 1206L0 1249ZM304 1500Q304 1528 313 1553T338 1596T374 1625T419
1636Q504 1636 504 1541Q504 1513 495 1488T471 1445T434 1415T388 1404Q343 1404 324 1429T304 1500ZM704 1500Q704 1528 713 1553T738 1596T774 1625T819 1636Q904 1636 904 1541Q904 1513 895 1488T871 1445T834 1415T788 1404Q743 1404 724 1429T704 1500Z"
/>
<glyph unicode="&#x179;" glyph-name="Zacute" horiz-adv-x="1071" d="M59 45L770 1160H311Q295 1160 276 1149T239 1114T205 1053T178 963L121 975L150 1276Q177 1270 199 1267T243 1262T288 1260H956L981 1217L276 100H799Q820 100 837 109T869 142T901 205T936
307L991 293Q989 261 988 222L984 144L982 66Q980 29 979 0H88L59 45ZM378 1412L765 1729L792 1714L827 1694Q845 1683 860 1673T883 1655L892 1610L423 1367Q406 1374 399 1383T378 1412Z" />
<glyph unicode="&#x17a;" glyph-name="zacute" horiz-adv-x="905" d="M76 45L631 840H285Q269 840 253 834T221 812T192 766T168 690L119 702L137 946Q159 940 177 937T214 932T257 930H805L827 887L270 90H692Q717 90 738 128T782 258L829 248Q829 216 828 180T826
110T822 47T817 0H102L76 45ZM380 1075L614 1489Q626 1488 646 1486L686 1480Q708 1477 728 1473T759 1466L782 1427L437 1047Q419 1050 405 1058T380 1075Z" />
<glyph unicode="&#x17b;" glyph-name="Zdotaccent" horiz-adv-x="1071" d="M59 45L770 1160H311Q295 1160 276 1149T239 1114T205 1053T178 963L121 975L150 1276Q177 1270 199 1267T243 1262T288 1260H956L981 1217L276 100H799Q820 100 837 109T869 142T901
205T936 307L991 293Q989 261 988 222L984 144L982 66Q980 29 979 0H88L59 45ZM455 1500Q455 1528 464 1553T489 1596T525 1625T570 1636Q655 1636 655 1541Q655 1513 646 1488T622 1445T585 1415T539 1404Q494 1404 475 1429T455 1500Z" />
<glyph unicode="&#x17c;" glyph-name="zdotaccent" horiz-adv-x="905" d="M76 45L631 840H285Q269 840 253 834T221 812T192 766T168 690L119 702L137 946Q159 940 177 937T214 932T257 930H805L827 887L270 90H692Q717 90 738 128T782 258L829 248Q829 216 828
180T826 110T822 47T817 0H102L76 45ZM380 1220Q380 1248 389 1273T414 1316T450 1345T495 1356Q580 1356 580 1261Q580 1233 571 1208T547 1165T510 1135T464 1124Q419 1124 400 1149T380 1220Z" />
<glyph unicode="&#x17d;" glyph-name="Zcaron" horiz-adv-x="1071" d="M59 45L770 1160H311Q295 1160 276 1149T239 1114T205 1053T178 963L121 975L150 1276Q177 1270 199 1267T243 1262T288 1260H956L981 1217L276 100H799Q820 100 837 109T869 142T901 205T936
307L991 293Q989 261 988 222L984 144L982 66Q980 29 979 0H88L59 45ZM238 1698L250 1715Q255 1722 259 1727T269 1736T283 1745L558 1534L828 1745Q845 1736 852 1727T871 1698L609 1391H502L238 1698Z" />
<glyph unicode="&#x17e;" glyph-name="zcaron" horiz-adv-x="905" d="M76 45L631 840H285Q269 840 253 834T221 812T192 766T168 690L119 702L137 946Q159 940 177 937T214 932T257 930H805L827 887L270 90H692Q717 90 738 128T782 258L829 248Q829 216 828 180T826
110T822 47T817 0H102L76 45ZM163 1428L175 1445Q180 1452 184 1457T194 1466T208 1475L483 1224L753 1475Q770 1466 777 1457T796 1428L534 1071H427L163 1428Z" />
<glyph unicode="&#x181;" glyph-name="uni0181" horiz-adv-x="1356" d="M30 1003Q30 1068 68 1121T179 1211T355 1269T589 1290Q674 1290 741 1286T863 1271T959 1244T1037 1203Q1082 1173 1108 1125T1135 1020Q1135 912 1084 835T945 723Q1009 711 1064 678T1159
597T1223 487T1246 356Q1246 271 1213 203T1119 86T974 12T789 -14Q767 -14 737 -14T671 -12L599 -10Q562 -9 527 -7Q444 -4 353 0H280V43Q348 57 386 73T425 104V1199Q373 1192 331 1179T258 1146T211 1099T194 1036Q194 1000 213 972T263 930Q260 924 245 913T207
891T161 870T115 856Q78 872 54 910T30 1003ZM585 104Q585 96 594 89Q611 83 633 80T678 74T724 71T767 70Q839 70 897 88T996 140T1060 219T1082 322Q1082 377 1063 435T1003 540T900 618T750 649Q702 649 662 645T585 635V104ZM585 725H619Q733 725 803 747T913
805T965 884T979 971Q979 1020 960 1063T904 1136Q880 1155 852 1168T787 1189T701 1201T585 1206V725Z" />
<glyph unicode="&#x186;" glyph-name="uni0186" horiz-adv-x="1098" d="M61 274Q61 316 74 355T121 432Q143 444 167 454T216 474L263 492L303 506L326 457Q297 440 280 424T252 389T239 349T235 299Q235 263 253 225T306 156T388 105T496 85Q566 85 632 113T750
207T832 378T863 641Q863 774 825 874T725 1041T590 1141T444 1175Q417 1175 384 1169T309 1148T217 1105T106 1036Q101 1038 96 1044T85 1058T76 1071T70 1081Q137 1148 196 1189T309 1252T413 1282T514 1290Q608 1290 698 1249T860 1130T974 937T1018 678Q1018
520 976 390T857 167T678 22T451 -30Q353 -30 280 -2T158 70T85 169T61 274Z" />
<glyph unicode="&#x189;" glyph-name="uni0189" horiz-adv-x="1214" d="M27 640L38 672Q43 689 49 705H195V1188Q155 1183 119 1178L50 1168L41 1230Q85 1242 142 1253T264 1272T393 1285T518 1290Q657 1290 769 1249T959 1128T1080 935T1123 676Q1123 551 1098
453T1029 279T930 151T810 65T683 16T559 0H50V43Q118 57 156 73T195 104V615H49L27 640ZM355 154Q355 132 365 118Q379 101 419 93T537 84Q606 84 679 117T814 219T914 392T953 637Q953 770 920 875T824 1054T667 1167T453 1206Q403 1206 355 1203V705H614L639
682L614 615H355V154Z" />
<glyph unicode="&#x18a;" glyph-name="uni018A" horiz-adv-x="1444" d="M30 1003Q30 1079 76 1133T205 1222T403 1273T658 1290Q739 1290 803 1285T920 1270T1015 1243T1096 1202Q1167 1157 1216 1099T1295 974T1339 832T1353 676Q1353 551 1328 453T1259 279T1160
151T1040 65T913 16T789 0H280V43Q348 57 386 73T425 104V1198Q306 1183 250 1142T194 1036Q194 1000 213 972T263 930Q260 924 245 913T207 891T161 870T115 856Q78 872 54 910T30 1003ZM585 154Q585 132 595 118Q609 101 649 93T767 84Q836 84 909 117T1044 219T1144
392T1183 637Q1183 705 1173 771T1141 898T1085 1011T1003 1103Q967 1132 929 1151T842 1183T731 1200T585 1206V154Z" />
<glyph unicode="&#x18e;" glyph-name="uni018E" horiz-adv-x="1016" d="M65 25Q66 50 72 92T86 177T102 259T116 317H161Q163 271 168 230T181 157T202 108T233 90H448Q512 90 551 94T613 106T642 129T649 163V655H439Q416 655 389 654T335 649T284 643T244 635L218
663Q226 677 237 693T261 724T286 753T310 774Q325 759 342 752T382 742T435 739H649V1170H406Q360 1170 328 1165T270 1143T225 1091T183 998L140 1016Q147 1102 160 1166T181 1260H954V1217Q886 1203 848 1187T809 1156V105Q809 93 845 75T954 43V0H98L65 25Z"
/>
<glyph unicode="&#x190;" glyph-name="uni0190" horiz-adv-x="1042" d="M80 283Q80 341 99 395T152 496T227 578T317 635Q221 669 167 737T113 905Q113 992 161 1070T299 1202Q364 1242 435 1266T588 1290Q696 1290 787 1265T944 1186Q927 1152 904 1123T854 1065L811
1073Q779 1100 749 1120T686 1153T616 1173T535 1180Q480 1180 429 1162T339 1111T277 1035T253 938Q253 897 269 858T327 786T443 732T631 705V630Q528 623 454 595T333 526T263 437T240 344Q240 290 263 245T328 166T424 114T543 95Q592 95 633 100T716 123T806
173T920 258L963 213Q902 145 844 99T725 24T599 -17T457 -30Q365 -30 295 0T177 76T105 178T80 283Z" />
<glyph unicode="&#x192;" glyph-name="florin" horiz-adv-x="592" d="M-250 -431Q-250 -423 -236 -407T-202 -374T-161 -342T-124 -320Q-104 -335 -87 -344T-54 -357T-22 -363T14 -365Q42 -365 70 -348T122 -284T159 -159T174 45V836H41L20 864L98 930H174V961Q174
1079 190 1159T234 1295T298 1388Q334 1425 375 1458Q403 1480 434 1497Q465 1514 496 1526T555 1544T602 1550Q633 1550 666 1538T728 1511T774 1479T793 1454Q793 1446 779 1430T744 1397T703 1365T666 1343Q641 1364 616 1379T569 1405T527 1421T496 1427Q470
1427 440 1409T385 1345T343 1220T326 1016V930H584L612 901Q603 887 590 872T563 842T536 816T512 801Q489 813 447 824T326 836V98Q326 -19 310 -101T267 -240T204 -337T127 -407Q99 -428 69 -445T11 -475T-43 -493T-88 -500Q-118 -500 -147 -492T-199 -473T-236
-450T-250 -431Z" />
<glyph unicode="&#x197;" glyph-name="uni0197" horiz-adv-x="610" d="M48 639L58 672Q64 689 70 705H215V1155Q215 1167 179 1185T70 1217V1260H520V1217Q452 1203 414 1186T375 1155V705H520L545 682L520 615H375V104Q375 92 411 75T520 43V0H70V43Q138 57 176
73T215 104V615H70L48 639Z" />
<glyph unicode="&#x198;" glyph-name="uni0198" horiz-adv-x="1263" d="M50 0V43Q118 57 156 73T195 104V1155Q195 1167 159 1185T50 1217V1260H500V1217Q432 1203 394 1186T355 1155V647L717 1103Q783 1186 852 1228T1000 1270Q1047 1270 1089 1258T1163 1218T1214
1149T1233 1046Q1233 1000 1221 943Q1218 935 1199 923T1152 898T1096 874T1042 856L1024 885Q1043 928 1051 963T1058 1027Q1056 1088 1029 1119T959 1151Q938 1151 918 1142T878 1117T840 1082T804 1042L500 673L985 127Q1003 107 1023 96T1067 81T1116 76T1167
80L1174 37Q1115 18 1056 2T948 -14Q919 -14 897 -5T854 29L355 639V104Q355 92 391 75T500 43V0H50Z" />
<glyph unicode="&#x199;" glyph-name="uni0199" horiz-adv-x="1024" d="M55 0V43Q121 60 158 73T195 104V896Q196 1016 213 1102T262 1254T337 1367T436 1459Q465 1482 499 1499T565 1527T627 1544T677 1550Q718 1550 759 1534T834 1495T888 1452T909 1421Q909
1413 895 1398T860 1365T819 1332T782 1311Q736 1363 683 1394T567 1425Q535 1425 497 1402T424 1323T368 1173T345 936V530L653 799Q686 828 693 845T691 872T659 884T610 887V930H989V887Q945 882 908 870Q872 859 829 825L488 552L864 111Q878 95 893 85T926
68T966 61T1018 61L1024 18Q995 11 967 6T914 -2T870 -8T840 -10Q798 -10 773 2T725 43L345 522V104Q345 96 348 90T363 78T396 63T455 43V0H55Z" />
<glyph unicode="&#x19a;" glyph-name="uni019A" horiz-adv-x="654" d="M70 762Q75 778 79 796T92 830H252V1296Q252 1341 246 1366T224 1403T181 1420T112 1430V1470Q184 1484 244 1501T366 1550L402 1516V830H562L584 805L562 740H402V104Q402 89 436 73T552
43V0H102V43Q145 50 174 57T220 72T244 88T252 104V740H92L70 762Z" />
<glyph unicode="&#x19d;" glyph-name="uni019D" horiz-adv-x="1329" d="M-245 -300Q-245 -292 -232 -277T-201 -247T-163 -219T-129 -200Q-101 -218 -80 -229T-41 -247T-7 -255T29 -257Q55 -257 84 -240T138 -180T179 -60T195 133V1149Q161 1180 125 1195T50 1217V1260H262Q277
1260 286 1258T305 1247T327 1224L358 1182L1015 276V1155Q1015 1167 983 1186T870 1217V1260H1280V1217Q1208 1207 1172 1188T1135 1155V-30Q1085 -24 1057 -10T1016 21L315 993V205Q315 86 305 7T275 -128T225 -219T156 -288Q129 -309 96 -326T31 -355T-31 -373T-80
-380Q-110 -380 -140 -371T-193 -349T-230 -323T-245 -300Z" />
<glyph unicode="&#x19f;" glyph-name="uni019F" horiz-adv-x="1229" d="M70 612Q70 748 114 871T234 1087T412 1235T633 1290Q757 1290 851 1236T1009 1091T1105 885T1138 647Q1138 511 1093 389T971 173T791 25T575 -30Q455 -30 361 23T203 165T104 370T70 612ZM225
615Q229 507 260 412T343 245T462 132T604 90Q686 90 754 123T873 223T951 388T982 615H225ZM227 705H979Q970 798 939 883T860 1033T746 1136T604 1175Q521 1175 454 1142T339 1048T262 900T227 705Z" />
<glyph unicode="&#x1a0;" glyph-name="Ohorn" horiz-adv-x="1229" d="M70 612Q70 748 114 871T234 1087T412 1235T633 1290Q725 1290 800 1259T935 1174Q995 1211 1021 1248T1048 1311Q1048 1340 1033 1366T990 1415L1168 1495Q1191 1473 1205 1447T1220 1392Q1220
1368 1209 1337T1171 1271T1099 1198T984 1123Q1060 1030 1099 906T1138 647Q1138 511 1093 389T971 173T791 25T575 -30Q455 -30 361 23T203 165T104 370T70 612ZM225 641Q225 529 255 429T337 254T458 134T604 90Q687 90 756 124T876 227T955 396T983 629Q983
698 971 765T935 893T879 1005T803 1094T711 1153T604 1175Q515 1175 445 1138T326 1031T251 862T225 641Z" />
<glyph unicode="&#x1a1;" glyph-name="ohorn" horiz-adv-x="1100" d="M80 444Q80 510 96 574T142 695T213 801T305 885T414 940T535 960Q626 960 700 927T829 833Q881 868 904 902T928 961Q928 990 913 1016T870 1065L1048 1145Q1071 1123 1085 1097T1100 1042Q1100
1018 1089 988T1052 923T982 851T871 777Q909 717 929 644T950 485Q950 418 933 354T886 233T814 128T722 44T614 -10T496 -30Q401 -30 325 6T194 105T110 255T80 444ZM235 473Q235 394 263 323T333 197T427 112T524 80Q595 80 646 106T730 182T779 300T795 455Q795
534 769 605T702 731T609 818T506 850Q430 850 378 821T295 742T249 622T235 473Z" />
<glyph unicode="&#x1a9;" glyph-name="uni01A9" horiz-adv-x="1064" d="M59 43L496 635L80 1217V1260H754Q810 1260 858 1262T967 1276L971 975L915 963Q897 1037 879 1077T844 1135T811 1157T780 1160H311L653 674L256 140H808Q839 140 859 149T895 183T924 249T956
357L1009 345Q1007 305 1004 256T996 159L988 69L983 0H90L59 43Z" />
<glyph unicode="&#x1aa;" glyph-name="uni01AA" horiz-adv-x="706" d="M30 1282Q30 1326 53 1373T118 1460T215 1524T337 1550Q398 1550 442 1521T514 1444T556 1334T570 1207Q570 1055 563 898T548 587T532 290T525 21Q525 -99 537 -180T571 -312T625 -383T697
-405Q726 -405 749 -391T787 -356T803 -310T793 -264Q790 -260 810 -248T858 -223T915 -203T959 -196L978 -235Q981 -273 954 -319T878 -405T766 -473T633 -500Q565 -500 515 -468T431 -377T382 -232T365 -40Q365 108 372 262T387 569T403 867T410 1146Q410 1156
410 1165T409 1185Q364 1136 314 1114T213 1092Q170 1092 136 1106T79 1146T43 1207T30 1282ZM155 1334Q155 1307 164 1285T190 1247T226 1222T269 1213Q292 1213 311 1220T347 1239T376 1264T398 1291Q368 1455 263 1455Q241 1455 222 1445T187 1418T164 1379T155
1334Z" />
<glyph unicode="&#x1af;" glyph-name="Uhorn" horiz-adv-x="1400" d="M50 1217V1260H500V1217Q432 1203 394 1186T355 1155V494Q355 398 377 322T444 194T554 113T705 85Q776 85 831 119T923 210T980 337T1000 483V1155Q1000 1167 964 1185T855 1217V1260H1210Q1228
1288 1228 1311Q1228 1340 1213 1366T1170 1415L1348 1495Q1371 1473 1385 1447T1400 1392Q1400 1367 1388 1334T1344 1262T1261 1184T1130 1105V524Q1130 393 1098 290T1006 116T860 8T666 -30Q563 -30 477 -2T328 85T230 233T195 444V1155Q195 1167 159 1185T50
1217Z" />
<glyph unicode="&#x1b0;" glyph-name="uhorn" horiz-adv-x="1255" d="M41 854V894Q77 898 108 904T169 918T229 936T292 960L320 921V334Q320 264 330 217T360 142T408 102T473 90Q505 90 538 99T607 129T682 182T765 262V711Q765 756 761 783T741 825T699 846T625
854V894Q697 903 763 922T885 960L915 921V794Q960 815 991 838T1043 883T1073 925T1083 961Q1083 990 1068 1016T1025 1065L1203 1145Q1226 1123 1240 1097T1255 1042Q1255 1014 1240 977T1186 897T1081 810T915 724V254Q915 192 919 153T938 104Q950 96 979 100T1059
127L1069 82L998 38Q964 17 935 2T884 -21T850 -30Q815 -30 793 16T765 166Q703 104 652 66T557 6T477 -22T408 -30Q361 -30 318 -17T242 30T190 125T170 279V711Q170 759 167 785T152 825T113 844T41 854Z" />
<glyph unicode="&#x1b3;" glyph-name="uni01B3" horiz-adv-x="1387" d="M0 1249Q59 1257 118 1263T219 1270Q265 1270 297 1231Q334 1183 377 1118T463 979T547 829L623 680L862 1100Q889 1147 916 1186Q945 1226 980 1256T1061 1303T1166 1320Q1213 1320 1253
1302T1323 1254T1370 1185T1387 1101Q1387 1081 1384 1058T1375 1023Q1370 1010 1347 997T1296 971T1239 950T1196 936L1178 965Q1192 992 1202 1016T1212 1077Q1212 1102 1206 1124T1188 1164T1157 1191T1113 1201Q1075 1201 1044 1169Q1012 1137 989 1095L684
541V115Q684 109 692 101T720 82T771 62T850 43V0H360V43Q451 62 487 81T524 115V537Q487 618 440 706T344 877L249 1032Q203 1103 168 1151Q159 1162 148 1172T118 1189T73 1201T4 1206L0 1249Z" />
<glyph unicode="&#x1b4;" glyph-name="uni01B4" horiz-adv-x="1010" d="M-47 -448Q-47 -441 -36 -424T-8 -386T29 -345T70 -313Q109 -338 140 -341T194 -345Q225 -345 258 -328T323 -278T385 -198T437 -91L460 -29L131 819Q122 847 96 861T20 887V930H406V887Q367
882 343 877T305 865T289 846T293 819L539 182L793 884Q837 1003 890 1081T1001 1206T1114 1271T1219 1290Q1249 1290 1278 1285T1330 1273T1367 1256T1381 1238Q1381 1231 1370 1214T1342 1176T1304 1135T1264 1103Q1244 1115 1227 1121T1194 1130T1164 1133H1140Q1109
1133 1077 1116T1013 1067T954 988Q926 943 903 882L541 -93Q497 -213 444 -290Q390 -369 333 -415T220 -481T115 -500Q85 -500 56 -496T4 -484T-33 -467T-47 -448Z" />
<glyph unicode="&#x1b7;" glyph-name="uni01B7" horiz-adv-x="1066" d="M94 153Q94 159 108 176T143 211T188 246T233 265Q254 228 287 196T359 141T442 104T527 90Q590 90 645 107T740 160T803 251T826 383Q826 443 806 499T748 597T656 666T534 692Q489 692
449 679T361 642L312 617L310 619Q303 625 293 638T278 659L277 661V662L278 663L690 1160H308Q292 1160 274 1147T237 1108T204 1046T178 963L121 975L151 1276Q172 1270 190 1267T228 1262T271 1260H896L921 1217L573 786Q590 789 606 791T638 793Q703 793 764
770T872 702T947 589T976 434Q976 328 936 243T828 97T672 3T488 -30Q402 -30 330 -8T205 45T123 105T94 153Z" />
<glyph unicode="&#x1cd;" glyph-name="uni01CD" horiz-adv-x="1219" d="M0 0V43Q68 55 108 68T158 111L530 1237Q553 1262 587 1282T647 1317L1067 111Q1072 97 1081 86T1105 67T1143 53T1198 43V0H776V43Q854 48 884 63T903 111L789 445H381L270 111Q260 80 297
66T416 43V0H0ZM282 1698L294 1715Q299 1722 303 1727T313 1736T327 1745L602 1534L872 1745Q889 1736 896 1727T915 1698L653 1391H546L282 1698ZM411 535H758L582 1049L411 535Z" />
<glyph unicode="&#x1ce;" glyph-name="uni01CE" horiz-adv-x="940" d="M80 186Q80 262 106 313T170 401Q194 425 224 446T305 488T432 526T623 561V702Q623 736 615 765T588 816T537 849T455 860Q423 859 392 849T338 821T302 779T292 724Q293 715 272 704T221
683T163 669T122 667L108 706Q131 756 178 802T285 883T413 939T544 960Q654 960 713 903T773 742V178Q773 136 784 118T813 100Q827 100 849 105T911 127L926 82Q841 23 786 -3T702 -30Q669 -30 647 16T623 143Q578 98 533 65T445 11T364 -20T293 -30Q257 -30
219 -18T151 20T100 87T80 186ZM163 1428L175 1445Q180 1452 184 1457T194 1466T208 1475L483 1224L753 1475Q770 1466 777 1457T796 1428L534 1071H427L163 1428ZM244 229Q244 189 256 164T285 125T320 105T352 100Q412 100 479 130T623 227V486Q539 472 485 459T395
433T339 404T302 372Q276 345 260 311T244 229Z" />
<glyph unicode="&#x1cf;" glyph-name="uni01CF" horiz-adv-x="610" d="M-22 1698L-10 1715Q-5 1722 -1 1727T9 1736T23 1745L298 1534L568 1745Q585 1736 592 1727T611 1698L349 1391H242L-22 1698ZM70 0V43Q138 57 176 73T215 104V1155Q215 1167 179 1185T70
1217V1260H520V1217Q452 1203 414 1186T375 1155V104Q375 92 411 75T520 43V0H70Z" />
<glyph unicode="&#x1d0;" glyph-name="uni01D0" horiz-adv-x="555" d="M-32 1428L-20 1445Q-15 1452 -11 1457T-1 1466T13 1475L288 1224L558 1475Q575 1466 582 1457T601 1428L339 1071H232L-32 1428ZM70 0V43Q138 57 174 73T210 104V670Q210 721 208 752T193
801T152 827T70 840V880Q101 886 135 894T204 913T269 936T326 960H360V104Q360 92 393 75T500 43V0H70Z" />
<glyph unicode="&#x1d1;" glyph-name="uni01D1" horiz-adv-x="1229" d="M70 612Q70 748 114 871T234 1087T412 1235T633 1290Q757 1290 851 1236T1009 1091T1105 885T1138 647Q1138 511 1093 389T971 173T791 25T575 -30Q455 -30 361 23T203 165T104 370T70 612ZM225
641Q225 529 255 429T337 254T458 134T604 90Q687 90 756 124T876 227T955 396T983 629Q983 698 971 765T935 893T879 1005T803 1094T711 1153T604 1175Q515 1175 445 1138T326 1031T251 862T225 641ZM298 1748L310 1765Q315 1772 319 1777T329 1786T343 1795L618
1544L888 1795Q905 1786 912 1777T931 1748L669 1391H562L298 1748Z" />
<glyph unicode="&#x1d2;" glyph-name="uni01D2" horiz-adv-x="1030" d="M80 444Q80 510 96 574T142 695T213 801T305 885T414 940T535 960Q629 960 705 924T836 825T920 674T950 485Q950 418 933 354T886 233T814 128T722 44T614 -10T496 -30Q401 -30 325 6T194
105T110 255T80 444ZM218 1428L230 1445Q235 1452 239 1457T249 1466T263 1475L538 1224L808 1475Q825 1466 832 1457T851 1428L589 1071H482L218 1428ZM235 473Q235 394 263 323T333 197T427 112T524 80Q595 80 646 106T730 182T779 300T795 455Q795 534 769 605T702
731T609 818T506 850Q430 850 378 821T295 742T249 622T235 473Z" />
<glyph unicode="&#x1d3;" glyph-name="uni01D3" horiz-adv-x="1339" d="M50 1217V1260H500V1217Q432 1203 394 1186T355 1155V494Q355 398 377 322T444 194T554 113T705 85Q776 85 831 119T923 210T980 337T1000 483V1155Q1000 1167 964 1185T855 1217V1260H1275V1217Q1207
1203 1169 1186T1130 1155V524Q1130 393 1098 290T1006 116T860 8T666 -30Q563 -30 477 -2T328 85T230 233T195 444V1155Q195 1167 159 1185T50 1217ZM360 1698L372 1715Q377 1722 381 1727T391 1736T405 1745L680 1534L950 1745Q967 1736 974 1727T993 1698L731
1391H624L360 1698Z" />
<glyph unicode="&#x1d4;" glyph-name="uni01D4" horiz-adv-x="1085" d="M41 854V894Q77 898 108 904T169 918T229 936T292 960L320 921V334Q320 264 330 217T360 142T408 102T473 90Q505 90 538 99T607 129T682 182T765 262V711Q765 756 761 783T741 825T699 846T625
854V894Q697 903 763 922T885 960L915 921V254Q915 192 919 153T938 104Q950 96 979 100T1059 127L1069 82L998 38Q964 17 935 2T884 -21T850 -30Q815 -30 793 16T765 166Q703 104 652 66T557 6T477 -22T408 -30Q361 -30 318 -17T242 30T190 125T170 279V711Q170
759 167 785T152 825T113 844T41 854ZM228 1428L240 1445Q245 1452 249 1457T259 1466T273 1475L548 1224L818 1475Q835 1466 842 1457T861 1428L599 1071H492L228 1428Z" />
<glyph unicode="&#x1d5;" glyph-name="uni01D5" horiz-adv-x="1339" d="M50 1217V1260H500V1217Q432 1203 394 1186T355 1155V494Q355 398 377 322T444 194T554 113T705 85Q776 85 831 119T923 210T980 337T1000 483V1155Q1000 1167 964 1185T855 1217V1260H1275V1217Q1207
1203 1169 1186T1130 1155V524Q1130 393 1098 290T1006 116T860 8T666 -30Q563 -30 477 -2T328 85T230 233T195 444V1155Q195 1167 159 1185T50 1217ZM349 1800Q351 1811 356 1825T367 1854L379 1882Q385 1895 390 1905H1003L1025 1881Q1023 1870 1018 1856T1007
1826L996 1798Q990 1784 986 1775H371L349 1800ZM377 1500Q377 1528 386 1553T411 1596T447 1625T492 1636Q577 1636 577 1541Q577 1513 568 1488T544 1445T507 1415T461 1404Q416 1404 397 1429T377 1500ZM777 1500Q777 1528 786 1553T811 1596T847 1625T892 1636Q977
1636 977 1541Q977 1513 968 1488T944 1445T907 1415T861 1404Q816 1404 797 1429T777 1500Z" />
<glyph unicode="&#x1d6;" glyph-name="uni01D6" horiz-adv-x="1085" d="M41 854V894Q77 898 108 904T169 918T229 936T292 960L320 921V334Q320 264 330 217T360 142T408 102T473 90Q505 90 538 99T607 129T682 182T765 262V711Q765 756 761 783T741 825T699 846T625
854V894Q697 903 763 922T885 960L915 921V254Q915 192 919 153T938 104Q950 96 979 100T1059 127L1069 82L998 38Q964 17 935 2T884 -21T850 -30Q815 -30 793 16T765 166Q703 104 652 66T557 6T477 -22T408 -30Q361 -30 318 -17T242 30T190 125T170 279V711Q170
759 167 785T152 825T113 844T41 854ZM217 1560Q219 1571 224 1585T235 1614L247 1642Q253 1655 258 1665H871L893 1641Q891 1630 886 1616T875 1586L864 1558Q858 1544 854 1535H239L217 1560ZM245 1220Q245 1248 254 1273T279 1316T315 1345T360 1356Q445 1356
445 1261Q445 1233 436 1208T412 1165T375 1135T329 1124Q284 1124 265 1149T245 1220ZM645 1220Q645 1248 654 1273T679 1316T715 1345T760 1356Q845 1356 845 1261Q845 1233 836 1208T812 1165T775 1135T729 1124Q684 1124 665 1149T645 1220Z" />
<glyph unicode="&#x1d7;" glyph-name="uni01D7" horiz-adv-x="1339" d="M50 1217V1260H500V1217Q432 1203 394 1186T355 1155V494Q355 398 377 322T444 194T554 113T705 85Q776 85 831 119T923 210T980 337T1000 483V1155Q1000 1167 964 1185T855 1217V1260H1275V1217Q1207
1203 1169 1186T1130 1155V524Q1130 393 1098 290T1006 116T860 8T666 -30Q563 -30 477 -2T328 85T230 233T195 444V1155Q195 1167 159 1185T50 1217ZM377 1500Q377 1528 386 1553T411 1596T447 1625T492 1636Q577 1636 577 1541Q577 1513 568 1488T544 1445T507
1415T461 1404Q416 1404 397 1429T377 1500ZM500 1732L887 2049L914 2034L949 2014Q967 2003 982 1993T1005 1975L1014 1930L545 1687Q528 1694 521 1703T500 1732ZM777 1500Q777 1528 786 1553T811 1596T847 1625T892 1636Q977 1636 977 1541Q977 1513 968 1488T944
1445T907 1415T861 1404Q816 1404 797 1429T777 1500Z" />
<glyph unicode="&#x1d8;" glyph-name="uni01D8" horiz-adv-x="1085" d="M41 854V894Q77 898 108 904T169 918T229 936T292 960L320 921V334Q320 264 330 217T360 142T408 102T473 90Q505 90 538 99T607 129T682 182T765 262V711Q765 756 761 783T741 825T699 846T625
854V894Q697 903 763 922T885 960L915 921V254Q915 192 919 153T938 104Q950 96 979 100T1059 127L1069 82L998 38Q964 17 935 2T884 -21T850 -30Q815 -30 793 16T765 166Q703 104 652 66T557 6T477 -22T408 -30Q361 -30 318 -17T242 30T190 125T170 279V711Q170
759 167 785T152 825T113 844T41 854ZM245 1220Q245 1248 254 1273T279 1316T315 1345T360 1356Q445 1356 445 1261Q445 1233 436 1208T412 1165T375 1135T329 1124Q284 1124 265 1149T245 1220ZM445 1435L679 1849Q691 1848 710 1846L752 1840Q773 1837 793 1833T824
1826L847 1787L502 1407Q484 1410 470 1418T445 1435ZM645 1220Q645 1248 654 1273T679 1316T715 1345T760 1356Q845 1356 845 1261Q845 1233 836 1208T812 1165T775 1135T729 1124Q684 1124 665 1149T645 1220Z" />
<glyph unicode="&#x1d9;" glyph-name="uni01D9" horiz-adv-x="1339" d="M50 1217V1260H500V1217Q432 1203 394 1186T355 1155V494Q355 398 377 322T444 194T554 113T705 85Q776 85 831 119T923 210T980 337T1000 483V1155Q1000 1167 964 1185T855 1217V1260H1275V1217Q1207
1203 1169 1186T1130 1155V524Q1130 393 1098 290T1006 116T860 8T666 -30Q563 -30 477 -2T328 85T230 233T195 444V1155Q195 1167 159 1185T50 1217ZM360 2018L372 2035Q377 2042 381 2047T391 2056T405 2065L680 1854L950 2065Q967 2056 974 2047T993 2018L731
1711H624L360 2018ZM377 1500Q377 1528 386 1553T411 1596T447 1625T492 1636Q577 1636 577 1541Q577 1513 568 1488T544 1445T507 1415T461 1404Q416 1404 397 1429T377 1500ZM777 1500Q777 1528 786 1553T811 1596T847 1625T892 1636Q977 1636 977 1541Q977 1513
968 1488T944 1445T907 1415T861 1404Q816 1404 797 1429T777 1500Z" />
<glyph unicode="&#x1da;" glyph-name="uni01DA" horiz-adv-x="1085" d="M41 854V894Q77 898 108 904T169 918T229 936T292 960L320 921V334Q320 264 330 217T360 142T408 102T473 90Q505 90 538 99T607 129T682 182T765 262V711Q765 756 761 783T741 825T699 846T625
854V894Q697 903 763 922T885 960L915 921V254Q915 192 919 153T938 104Q950 96 979 100T1059 127L1069 82L998 38Q964 17 935 2T884 -21T850 -30Q815 -30 793 16T765 166Q703 104 652 66T557 6T477 -22T408 -30Q361 -30 318 -17T242 30T190 125T170 279V711Q170
759 167 785T152 825T113 844T41 854ZM228 1788L240 1805Q245 1812 249 1817T259 1826T273 1835L548 1584L818 1835Q835 1826 842 1817T861 1788L599 1431H492L228 1788ZM245 1220Q245 1248 254 1273T279 1316T315 1345T360 1356Q445 1356 445 1261Q445 1233 436
1208T412 1165T375 1135T329 1124Q284 1124 265 1149T245 1220ZM645 1220Q645 1248 654 1273T679 1316T715 1345T760 1356Q845 1356 845 1261Q845 1233 836 1208T812 1165T775 1135T729 1124Q684 1124 665 1149T645 1220Z" />
<glyph unicode="&#x1db;" glyph-name="uni01DB" horiz-adv-x="1339" d="M50 1217V1260H500V1217Q432 1203 394 1186T355 1155V494Q355 398 377 322T444 194T554 113T705 85Q776 85 831 119T923 210T980 337T1000 483V1155Q1000 1167 964 1185T855 1217V1260H1275V1217Q1207
1203 1169 1186T1130 1155V524Q1130 393 1098 290T1006 116T860 8T666 -30Q563 -30 477 -2T328 85T230 233T195 444V1155Q195 1167 159 1185T50 1217ZM340 1930L348 1975Q355 1983 370 1993T404 2014L439 2034L467 2049L854 1732L832 1704Q825 1694 809 1687L340
1930ZM377 1500Q377 1528 386 1553T411 1596T447 1625T492 1636Q577 1636 577 1541Q577 1513 568 1488T544 1445T507 1415T461 1404Q416 1404 397 1429T377 1500ZM777 1500Q777 1528 786 1553T811 1596T847 1625T892 1636Q977 1636 977 1541Q977 1513 968 1488T944
1445T907 1415T861 1404Q816 1404 797 1429T777 1500Z" />
<glyph unicode="&#x1dc;" glyph-name="uni01DC" horiz-adv-x="1085" d="M41 854V894Q77 898 108 904T169 918T229 936T292 960L320 921V334Q320 264 330 217T360 142T408 102T473 90Q505 90 538 99T607 129T682 182T765 262V711Q765 756 761 783T741 825T699 846T625
854V894Q697 903 763 922T885 960L915 921V254Q915 192 919 153T938 104Q950 96 979 100T1059 127L1069 82L998 38Q964 17 935 2T884 -21T850 -30Q815 -30 793 16T765 166Q703 104 652 66T557 6T477 -22T408 -30Q361 -30 318 -17T242 30T190 125T170 279V711Q170
759 167 785T152 825T113 844T41 854ZM245 1220Q245 1248 254 1273T279 1316T315 1345T360 1356Q445 1356 445 1261Q445 1233 436 1208T412 1165T375 1135T329 1124Q284 1124 265 1149T245 1220ZM251 1784L273 1825Q283 1828 302 1832L344 1839Q365 1843 386 1845T419
1849L659 1438Q646 1426 633 1419T603 1407L251 1784ZM645 1220Q645 1248 654 1273T679 1316T715 1345T760 1356Q845 1356 845 1261Q845 1233 836 1208T812 1165T775 1135T729 1124Q684 1124 665 1149T645 1220Z" />
<glyph unicode="&#x1dd;" glyph-name="uni01DD" horiz-adv-x="930" d="M70 279Q70 319 79 352T106 408Q135 423 170 439T240 470H699Q697 552 673 618T608 730T513 800T397 825Q370 825 342 821T281 805T208 771T117 711Q104 717 94 731T78 754Q139 818 190 858T288
921T379 952T469 960Q542 960 610 928T732 834T818 685T850 485Q850 367 810 266Q771 165 702 90Q644 28 576 -1Q506 -30 416 -30Q344 -30 281 -7T171 58T97 156T70 279ZM230 293Q230 246 249 206T298 137T367 91T444 74Q558 74 621 152T697 380H297Q266 380 248
357T230 293Z" />
<glyph unicode="&#x1de;" glyph-name="uni01DE" horiz-adv-x="1219" d="M0 0V43Q68 55 108 68T158 111L530 1237Q553 1262 587 1282T647 1317L1067 111Q1072 97 1081 86T1105 67T1143 53T1198 43V0H776V43Q854 48 884 63T903 111L789 445H381L270 111Q260 80 297
66T416 43V0H0ZM271 1800Q273 1811 278 1825T289 1854L301 1882Q307 1895 312 1905H925L947 1881Q945 1870 940 1856T929 1826L918 1798Q912 1784 908 1775H293L271 1800ZM299 1500Q299 1528 308 1553T333 1596T369 1625T414 1636Q499 1636 499 1541Q499 1513 490
1488T466 1445T429 1415T383 1404Q338 1404 319 1429T299 1500ZM411 535H758L582 1049L411 535ZM699 1500Q699 1528 708 1553T733 1596T769 1625T814 1636Q899 1636 899 1541Q899 1513 890 1488T866 1445T829 1415T783 1404Q738 1404 719 1429T699 1500Z" />
<glyph unicode="&#x1df;" glyph-name="uni01DF" horiz-adv-x="940" d="M80 186Q80 262 106 313T170 401Q194 425 224 446T305 488T432 526T623 561V702Q623 736 615 765T588 816T537 849T455 860Q423 859 392 849T338 821T302 779T292 724Q293 715 272 704T221
683T163 669T122 667L108 706Q131 756 178 802T285 883T413 939T544 960Q654 960 713 903T773 742V178Q773 136 784 118T813 100Q827 100 849 105T911 127L926 82Q841 23 786 -3T702 -30Q669 -30 647 16T623 143Q578 98 533 65T445 11T364 -20T293 -30Q257 -30
219 -18T151 20T100 87T80 186ZM152 1560Q154 1571 159 1585T170 1614L182 1642Q188 1655 193 1665H806L828 1641Q826 1630 821 1616T810 1586L798 1558Q793 1544 789 1535H174L152 1560ZM180 1220Q180 1248 189 1273T214 1316T250 1345T295 1356Q380 1356 380
1261Q380 1233 371 1208T347 1165T310 1135T264 1124Q219 1124 200 1149T180 1220ZM244 229Q244 189 256 164T285 125T320 105T352 100Q412 100 479 130T623 227V486Q539 472 485 459T395 433T339 404T302 372Q276 345 260 311T244 229ZM580 1220Q580 1248 589
1273T614 1316T650 1345T695 1356Q780 1356 780 1261Q780 1233 771 1208T747 1165T710 1135T664 1124Q619 1124 600 1149T580 1220Z" />
<glyph unicode="&#x1e0;" glyph-name="uni01E0" horiz-adv-x="1219" d="M0 0V43Q68 55 108 68T158 111L530 1237Q553 1262 587 1282T647 1317L1067 111Q1072 97 1081 86T1105 67T1143 53T1198 43V0H776V43Q854 48 884 63T903 111L789 445H381L270 111Q260 80 297
66T416 43V0H0ZM271 1800Q273 1811 278 1825T289 1854L301 1882Q307 1895 312 1905H925L947 1881Q945 1870 940 1856T929 1826L918 1798Q912 1784 908 1775H293L271 1800ZM411 535H758L582 1049L411 535ZM499 1500Q499 1528 508 1553T533 1596T569 1625T614 1636Q699
1636 699 1541Q699 1513 690 1488T666 1445T629 1415T583 1404Q538 1404 519 1429T499 1500Z" />
<glyph unicode="&#x1e1;" glyph-name="uni01E1" horiz-adv-x="940" d="M80 186Q80 262 106 313T170 401Q194 425 224 446T305 488T432 526T623 561V702Q623 736 615 765T588 816T537 849T455 860Q423 859 392 849T338 821T302 779T292 724Q293 715 272 704T221
683T163 669T122 667L108 706Q131 756 178 802T285 883T413 939T544 960Q654 960 713 903T773 742V178Q773 136 784 118T813 100Q827 100 849 105T911 127L926 82Q841 23 786 -3T702 -30Q669 -30 647 16T623 143Q578 98 533 65T445 11T364 -20T293 -30Q257 -30
219 -18T151 20T100 87T80 186ZM152 1560Q154 1571 159 1585T170 1614L182 1642Q188 1655 193 1665H806L828 1641Q826 1630 821 1616T810 1586L798 1558Q793 1544 789 1535H174L152 1560ZM244 229Q244 189 256 164T285 125T320 105T352 100Q412 100 479 130T623
227V486Q539 472 485 459T395 433T339 404T302 372Q276 345 260 311T244 229ZM380 1220Q380 1248 389 1273T414 1316T450 1345T495 1356Q580 1356 580 1261Q580 1233 571 1208T547 1165T510 1135T464 1124Q419 1124 400 1149T380 1220Z" />
<glyph unicode="&#x1e2;" glyph-name="uni01E2" horiz-adv-x="1595" d="M0 0V43Q68 55 106 68T158 111L571 1133Q578 1150 568 1161T532 1182T469 1200T381 1217V1260H1438L1468 1235Q1466 1209 1463 1178T1454 1116T1441 1057T1427 1010H1382Q1380 1056 1374
1087T1358 1136T1334 1162T1300 1170H934V735H1339L1366 707L1346 677Q1335 661 1323 646T1298 617T1274 596Q1259 611 1242 621T1202 638T1148 648T1075 651H934V154Q934 139 941 128T971 108T1034 95T1141 90H1270Q1316 90 1348 95T1405 117T1450 169T1491 262L1536
244Q1527 157 1514 93T1493 0H631V43Q699 57 736 73T774 104V651H505L285 111Q272 82 303 67T416 43V0H0ZM539 735H774V1148Q774 1159 765 1164T742 1168T716 1157T696 1131L539 735ZM596 1480Q598 1491 603 1505T614 1534L626 1562Q632 1575 637 1585H1250L1272
1561Q1270 1550 1265 1536T1254 1506L1242 1478Q1237 1464 1233 1455H618L596 1480Z" />
<glyph unicode="&#x1e3;" glyph-name="uni01E3" horiz-adv-x="1417" d="M80 186Q80 245 103 299T174 401T293 486T463 553Q496 562 537 567T623 576V662Q623 701 617 737T594 800T547 843T467 860Q435 860 399 846T334 806T291 747T292 676Q295 667 274 656T223
636T164 623T122 621L108 657Q113 696 137 734T197 805T277 867T367 916T457 948T535 960Q623 960 674 924T749 816Q781 856 817 884T889 928T960 952T1024 960Q1085 960 1132 943T1213 896T1272 826T1310 742T1331 650T1337 557Q1317 537 1287 520T1225 489H776Q774
472 774 454V418Q774 360 789 304T835 202T908 130T1008 102Q1039 102 1067 105T1128 122T1200 163T1292 236Q1305 229 1314 216T1329 195Q1269 123 1219 79T1124 11T1035 -21T944 -30Q900 -30 858 -16T778 25T710 90T658 179Q615 127 565 88T464 23T369 -17T293
-30Q257 -30 219 -18T151 20T100 87T80 186ZM244 229Q244 189 256 164T285 125T320 105T352 100Q379 100 413 109T484 135T561 180T637 243Q630 272 627 302T623 365V485Q590 483 564 480T526 473Q376 436 310 374T244 229ZM410 1200Q412 1211 417 1225T428 1254L440
1282Q446 1295 451 1305H1064L1086 1281Q1084 1270 1079 1256T1068 1226L1056 1198Q1051 1184 1047 1175H432L410 1200ZM785 580H1133Q1154 580 1162 587T1171 616Q1171 664 1161 708T1130 785T1076 839T995 860Q972 860 942 849T881 808T825 722T785 580Z" />
<glyph unicode="&#x1e6;" glyph-name="Gcaron" horiz-adv-x="1194" d="M70 582Q70 748 122 879T266 1102T478 1242T737 1290Q770 1290 809 1283T890 1263T970 1231T1042 1188Q1049 1183 1040 1169T1015 1136T978 1100L946 1071L913 1077Q880 1108 845 1128T772
1160T690 1175T598 1180Q573 1180 536 1169T457 1132T374 1065T300 963T246 822T225 637Q225 498 262 395T359 225T494 124T645 90Q718 90 779 104T890 146V485Q890 496 881 506T848 527T785 547T684 567V610H1145V567Q1088 553 1064 531T1040 485V154Q966 93 908
57T800 2T707 -24T618 -30Q517 -30 419 7T244 121T118 312T70 582ZM323 1698L335 1715Q340 1722 344 1727T354 1736T368 1745L643 1534L913 1745Q930 1736 937 1727T956 1698L694 1391H587L323 1698Z" />
<glyph unicode="&#x1e7;" glyph-name="gcaron" horiz-adv-x="999" d="M30 -229Q30 -203 39 -175T78 -113T159 -42T297 42Q232 65 207 94T182 153Q182 161 187 174T207 207T251 252T326 309Q275 323 234 349T163 413T117 498T100 602Q100 675 133 740T220 854T343
931T485 960Q545 960 597 943T693 895Q745 900 787 908T862 925T922 943T969 960L989 930L966 878Q955 855 932 830Q894 823 858 819T775 813Q801 775 815 732T830 641Q830 564 796 501T705 392T578 321T434 295H430Q382 255 364 229T346 196Q346 184 356 173T395
151T474 130T602 110Q714 97 782 74Q853 50 895 19T953 -49T970 -120Q970 -175 949 -224T892 -316T807 -392T702 -450T586 -487T467 -500Q420 -500 370 -494T271 -473T179 -438T102 -386T50 -317T30 -229ZM180 -190Q180 -232 208 -269T283 -334T392 -378T522 -395Q589
-395 644 -377T738 -328T798 -253T820 -157Q820 -129 807 -106T760 -63T668 -29T518 -4Q476 1 448 5Q416 10 388 16Q316 -23 275 -54T212 -109T186 -154T180 -190ZM183 1428L195 1445Q200 1452 204 1457T214 1466T228 1475L503 1224L773 1475Q790 1466 797 1457T816
1428L554 1071H447L183 1428ZM240 659Q240 606 256 559T306 476T391 421T514 400Q543 400 574 412T631 450T673 513T690 600Q690 653 673 700T621 783T535 839T416 860Q391 860 361 847T303 809T258 746T240 659Z" />
<glyph unicode="&#x1e8;" glyph-name="uni01E8" horiz-adv-x="1184" d="M50 0V43Q118 57 156 73T195 104V1155Q195 1167 159 1185T50 1217V1260H500V1217Q432 1203 394 1186T355 1155V646L764 1128Q787 1155 793 1171T789 1196T754 1209T690 1217V1260H1110V1217Q1078
1213 1053 1209T1008 1199T972 1182T940 1155L502 671L985 127Q1003 107 1023 96T1067 81T1116 76T1167 80L1174 37Q1115 18 1056 2T948 -14Q919 -14 897 -5T854 29L355 639V104Q355 92 391 75T500 43V0H50ZM273 1698L285 1715Q290 1722 294 1727T304 1736T318
1745L593 1534L863 1745Q880 1736 887 1727T906 1698L644 1391H537L273 1698Z" />
<glyph unicode="&#x1e9;" glyph-name="uni01E9" horiz-adv-x="1024" d="M55 0V43Q121 60 158 73T195 104V1296Q195 1342 190 1367T169 1404T126 1421T55 1430V1470Q124 1484 190 1502T308 1550L345 1516V530L653 799Q686 828 693 845T691 872T659 884T610 887V930H989V887Q945
882 908 870Q872 859 829 825L488 552L864 111Q878 95 893 85T926 68T966 61T1018 61L1024 18Q995 11 967 6T914 -2T870 -8T840 -10Q798 -10 773 2T725 43L345 522V104Q345 96 348 90T363 78T396 63T455 43V0H55ZM222 1948L234 1965Q239 1972 243 1977T253 1986T267
1995L542 1784L812 1995Q829 1986 836 1977T855 1948L593 1641H486L222 1948Z" />
<glyph unicode="&#x1ee;" glyph-name="uni01EE" horiz-adv-x="1066" d="M94 153Q94 159 108 176T143 211T188 246T233 265Q254 228 287 196T359 141T442 104T527 90Q590 90 645 107T740 160T803 251T826 383Q826 443 806 499T748 597T656 666T534 692Q489 692
449 679T361 642L312 617L310 619Q303 625 293 638T278 659L277 661V662L278 663L690 1160H308Q292 1160 274 1147T237 1108T204 1046T178 963L121 975L151 1276Q172 1270 190 1267T228 1262T271 1260H896L921 1217L573 786Q590 789 606 791T638 793Q703 793 764
770T872 702T947 589T976 434Q976 328 936 243T828 97T672 3T488 -30Q402 -30 330 -8T205 45T123 105T94 153ZM218 1748L230 1765Q235 1772 239 1777T249 1786T263 1795L538 1544L808 1795Q825 1786 832 1777T851 1748L589 1391H482L218 1748Z" />
<glyph unicode="&#x1ef;" glyph-name="uni01EF" horiz-adv-x="920" d="M38 -337Q38 -331 52 -317T87 -286T132 -257T177 -240Q235 -315 294 -355T421 -395Q481 -395 532 -374T620 -313T679 -213T700 -77Q700 -10 678 54T614 167T510 246T369 274Q328 274 289 267T209
246Q202 251 191 266T174 290L602 840H262Q246 840 230 834T198 812T169 766T145 690L96 702L115 946Q136 940 154 937T192 932T235 930H780L805 887L408 371Q425 373 441 374T473 375Q553 373 622 346T741 268T821 143T850 -26Q850 -132 809 -219T700 -368T550
-465T382 -500Q311 -500 248 -481T139 -436T65 -382T38 -337ZM127 1378L139 1395Q144 1402 148 1407T158 1416T172 1425L447 1214L717 1425Q734 1416 741 1407T760 1378L498 1071H391L127 1378Z" />
<glyph unicode="&#x1f4;" glyph-name="uni01F4" horiz-adv-x="1194" d="M70 582Q70 748 122 879T266 1102T478 1242T737 1290Q770 1290 809 1283T890 1263T970 1231T1042 1188Q1049 1183 1040 1169T1015 1136T978 1100L946 1071L913 1077Q880 1108 845 1128T772
1160T690 1175T598 1180Q573 1180 536 1169T457 1132T374 1065T300 963T246 822T225 637Q225 498 262 395T359 225T494 124T645 90Q718 90 779 104T890 146V485Q890 496 881 506T848 527T785 547T684 567V610H1145V567Q1088 553 1064 531T1040 485V154Q966 93 908
57T800 2T707 -24T618 -30Q517 -30 419 7T244 121T118 312T70 582ZM463 1412L850 1729L877 1714L912 1694Q930 1683 945 1673T968 1655L977 1610L508 1367Q491 1374 484 1383T463 1412Z" />
<glyph unicode="&#x1f5;" glyph-name="uni01F5" horiz-adv-x="999" d="M30 -229Q30 -203 39 -175T78 -113T159 -42T297 42Q232 65 207 94T182 153Q182 161 187 174T207 207T251 252T326 309Q275 323 234 349T163 413T117 498T100 602Q100 675 133 740T220 854T343
931T485 960Q545 960 597 943T693 895Q745 900 787 908T862 925T922 943T969 960L989 930L966 878Q955 855 932 830Q894 823 858 819T775 813Q801 775 815 732T830 641Q830 564 796 501T705 392T578 321T434 295H430Q382 255 364 229T346 196Q346 184 356 173T395
151T474 130T602 110Q714 97 782 74Q853 50 895 19T953 -49T970 -120Q970 -175 949 -224T892 -316T807 -392T702 -450T586 -487T467 -500Q420 -500 370 -494T271 -473T179 -438T102 -386T50 -317T30 -229ZM180 -190Q180 -232 208 -269T283 -334T392 -378T522 -395Q589
-395 644 -377T738 -328T798 -253T820 -157Q820 -129 807 -106T760 -63T668 -29T518 -4Q476 1 448 5Q416 10 388 16Q316 -23 275 -54T212 -109T186 -154T180 -190ZM240 659Q240 606 256 559T306 476T391 421T514 400Q543 400 574 412T631 450T673 513T690 600Q690
653 673 700T621 783T535 839T416 860Q391 860 361 847T303 809T258 746T240 659ZM400 1075L634 1489Q646 1488 666 1486L706 1480Q728 1477 748 1473T779 1466L802 1427L457 1047Q439 1050 425 1058T400 1075Z" />
<glyph unicode="&#x1f8;" glyph-name="uni01F8" horiz-adv-x="1329" d="M50 0V43Q124 52 159 71T195 104V1149Q162 1180 126 1195T50 1217V1260H262Q277 1260 286 1258T306 1247T328 1224L358 1182L1015 276V1155Q1015 1167 983 1186T870 1217V1260H1280V1217Q1208
1207 1172 1188T1135 1155V-30Q1085 -24 1057 -10T1016 21L315 993V104Q315 92 348 73T460 43V0H50ZM328 1610L336 1655Q343 1663 358 1673T392 1694L427 1714L455 1729L842 1412L820 1384Q813 1374 797 1367L328 1610Z" />
<glyph unicode="&#x1f9;" glyph-name="uni01F9" horiz-adv-x="1130" d="M55 0V43Q121 60 158 73T195 104V711Q195 750 192 773T176 809T134 828T55 840V880Q123 891 181 911T295 960L330 925L341 676Q385 743 438 795T545 884T649 940T739 960Q782 960 822 947T892
907T941 839T960 741V104Q960 90 990 77T1100 43V0H670V43Q742 62 776 76T810 104V633Q810 694 803 732T781 792T742 822T682 830Q651 830 613 815T532 767T441 681T345 549V104Q345 89 382 73T485 43V0H55ZM283 1424L305 1465Q315 1468 334 1472L376 1479Q397
1483 418 1485T451 1489L691 1078Q678 1066 665 1059T635 1047L283 1424Z" />
<glyph unicode="&#x1fa;" glyph-name="Aringacute" horiz-adv-x="1219" d="M0 0V43Q68 55 108 68T158 111L530 1237Q553 1262 587 1282T647 1317L1067 111Q1072 97 1081 86T1105 67T1143 53T1198 43V0H776V43Q854 48 884 63T903 111L789 445H381L270 111Q260 80
297 66T416 43V0H0ZM411 535H758L582 1049L411 535ZM413 1524Q413 1575 432 1618T483 1693T552 1742T630 1760Q662 1760 690 1748T740 1714T773 1664T785 1604Q785 1553 766 1511T715 1437T645 1388T568 1370Q534 1370 506 1382T457 1415T425 1464T413 1524ZM422
1852L809 2169L836 2154L871 2134Q889 2123 904 2113T927 2095L936 2050L467 1807Q450 1814 443 1823T422 1852ZM503 1565Q503 1542 509 1521T526 1483T553 1456T589 1446T628 1453T662 1476T686 1512T695 1563Q695 1587 689 1609T672 1647T645 1674T609 1684Q588
1684 569 1676T536 1652T512 1614T503 1565Z" />
<glyph unicode="&#x1fb;" glyph-name="aringacute" horiz-adv-x="940" d="M80 186Q80 262 106 313T170 401Q194 425 224 446T305 488T432 526T623 561V702Q623 736 615 765T588 816T537 849T455 860Q423 859 392 849T338 821T302 779T292 724Q293 715 272 704T221
683T163 669T122 667L108 706Q131 756 178 802T285 883T413 939T544 960Q654 960 713 903T773 742V178Q773 136 784 118T813 100Q827 100 849 105T911 127L926 82Q841 23 786 -3T702 -30Q669 -30 647 16T623 143Q578 98 533 65T445 11T364 -20T293 -30Q257 -30
219 -18T151 20T100 87T80 186ZM244 229Q244 189 256 164T285 125T320 105T352 100Q412 100 479 130T623 227V486Q539 472 485 459T395 433T339 404T302 372Q276 345 260 311T244 229ZM294 1204Q294 1255 313 1298T364 1373T433 1422T511 1440Q543 1440 571 1428T621
1394T654 1344T666 1284Q666 1233 647 1191T596 1117T526 1068T449 1050Q415 1050 387 1062T338 1095T306 1144T294 1204ZM380 1515L614 1929Q626 1928 646 1926L686 1920Q708 1917 728 1913T759 1906L782 1867L437 1487Q419 1490 405 1498T380 1515ZM384 1245Q384
1222 390 1201T407 1163T434 1136T470 1126T509 1133T543 1156T567 1192T576 1243Q576 1267 570 1289T553 1327T526 1354T490 1364Q469 1364 450 1356T417 1332T393 1294T384 1245Z" />
<glyph unicode="&#x1fc;" glyph-name="AEacute" horiz-adv-x="1595" d="M0 0V43Q68 55 106 68T158 111L571 1133Q578 1150 568 1161T532 1182T469 1200T381 1217V1260H1438L1468 1235Q1466 1209 1463 1178T1454 1116T1441 1057T1427 1010H1382Q1380 1056 1374
1087T1358 1136T1334 1162T1300 1170H934V735H1339L1366 707L1346 677Q1335 661 1323 646T1298 617T1274 596Q1259 611 1242 621T1202 638T1148 648T1075 651H934V154Q934 139 941 128T971 108T1034 95T1141 90H1270Q1316 90 1348 95T1405 117T1450 169T1491 262L1536
244Q1527 157 1514 93T1493 0H631V43Q699 57 736 73T774 104V651H505L285 111Q272 82 303 67T416 43V0H0ZM539 735H774V1148Q774 1159 765 1164T742 1168T716 1157T696 1131L539 735ZM747 1412L1134 1729L1161 1714L1196 1694Q1214 1683 1229 1673T1252 1655L1261
1610L792 1367Q775 1374 768 1383T747 1412Z" />
<glyph unicode="&#x1fd;" glyph-name="aeacute" horiz-adv-x="1417" d="M80 186Q80 245 103 299T174 401T293 486T463 553Q496 562 537 567T623 576V662Q623 701 617 737T594 800T547 843T467 860Q435 860 399 846T334 806T291 747T292 676Q295 667 274 656T223
636T164 623T122 621L108 657Q113 696 137 734T197 805T277 867T367 916T457 948T535 960Q623 960 674 924T749 816Q781 856 817 884T889 928T960 952T1024 960Q1085 960 1132 943T1213 896T1272 826T1310 742T1331 650T1337 557Q1317 537 1287 520T1225 489H776Q774
472 774 454V418Q774 360 789 304T835 202T908 130T1008 102Q1039 102 1067 105T1128 122T1200 163T1292 236Q1305 229 1314 216T1329 195Q1269 123 1219 79T1124 11T1035 -21T944 -30Q900 -30 858 -16T778 25T710 90T658 179Q615 127 565 88T464 23T369 -17T293
-30Q257 -30 219 -18T151 20T100 87T80 186ZM244 229Q244 189 256 164T285 125T320 105T352 100Q379 100 413 109T484 135T561 180T637 243Q630 272 627 302T623 365V485Q590 483 564 480T526 473Q376 436 310 374T244 229ZM638 1075L872 1489Q884 1488 904 1486L944
1480Q966 1477 986 1473T1017 1466L1040 1427L695 1047Q677 1050 663 1058T638 1075ZM785 580H1133Q1154 580 1162 587T1171 616Q1171 664 1161 708T1130 785T1076 839T995 860Q972 860 942 849T881 808T825 722T785 580Z" />
<glyph unicode="&#x1fe;" glyph-name="Oslashacute" horiz-adv-x="1229" d="M70 612Q70 748 114 871T234 1087T412 1235T633 1290Q720 1290 791 1263T921 1187L975 1264Q1003 1281 1037 1293T1102 1313L1130 1280L1003 1099Q1070 1008 1104 890T1138 647Q1138
511 1093 389T971 173T791 25T575 -30Q488 -30 417 -3T286 74L233 -2Q224 -10 208 -17T172 -31T135 -43T104 -53L76 -20L204 162Q138 252 104 368T70 612ZM225 641Q225 547 246 462T305 307L834 1063Q788 1115 730 1145T604 1175Q515 1175 445 1138T326 1031T251
862T225 641ZM377 203Q425 149 483 120T604 90Q687 90 756 124T876 227T955 396T983 629Q983 718 963 802T905 959L377 203ZM427 1412L814 1729L841 1714L876 1694Q894 1683 909 1673T932 1655L941 1610L472 1367Q455 1374 448 1383T427 1412Z" />
<glyph unicode="&#x1ff;" glyph-name="oslashacute" horiz-adv-x="1030" d="M80 444Q80 510 96 574T142 695T213 801T305 885T414 940T535 960Q604 960 663 941T772 885L793 913L822 932L853 953Q869 963 885 971T915 983L946 950L844 815Q895 752 922 668T950
485Q950 418 933 354T886 233T814 128T722 44T614 -10T496 -30Q427 -30 368 -11T261 43L242 18Q233 10 216 0L182 -22Q164 -32 147 -40T117 -53L88 -20L188 112Q136 175 108 259T80 444ZM233 473Q233 412 249 357T294 253L678 761Q639 803 595 826T506 850Q430
850 378 821T294 742T247 622T233 473ZM356 169Q396 127 440 104T524 80Q595 80 646 106T731 182T781 300T797 455Q797 515 781 571T739 676L356 169ZM425 1075L659 1489Q671 1488 690 1486L732 1480Q753 1477 773 1473T804 1466L827 1427L482 1047Q464 1050 450
1058T425 1075Z" />
<glyph unicode="&#x21e;" glyph-name="uni021E" horiz-adv-x="1339" d="M50 0V43Q118 57 156 73T195 104V1155Q195 1167 159 1185T50 1217V1260H500V1217Q432 1203 394 1186T355 1155V705H965V1155Q965 1167 929 1185T820 1217V1260H1270V1217Q1202 1203 1164
1186T1125 1155V104Q1125 92 1161 75T1270 43V0H820V43Q888 57 926 73T965 104V615H355V104Q355 92 391 75T500 43V0H50ZM343 1698L355 1715Q360 1722 364 1727T374 1736T388 1745L663 1534L933 1745Q950 1736 957 1727T976 1698L714 1391H607L343 1698Z" />
<glyph unicode="&#x21f;" glyph-name="uni021F" horiz-adv-x="1130" d="M55 0V43Q121 60 158 73T195 104V1298Q195 1340 192 1363T174 1400T131 1418T55 1430V1470Q97 1478 131 1486T195 1503T252 1524T308 1550L345 1516V684Q388 748 440 799T546 886T649 941T739
960Q782 960 822 947T892 907T941 839T960 741V104Q960 90 990 77T1100 43V0H670V43Q742 62 776 76T810 104V633Q810 694 803 732T779 792T739 822T682 830Q647 830 607 812T522 759T433 672T345 549V104Q345 89 382 73T485 43V0H55ZM260 1948L272 1965Q277 1972
281 1977T291 1986T305 1995L580 1784L850 1995Q867 1986 874 1977T893 1948L631 1641H524L260 1948Z" />
<glyph unicode="&#x226;" glyph-name="uni0226" horiz-adv-x="1219" d="M0 0V43Q68 55 108 68T158 111L530 1237Q553 1262 587 1282T647 1317L1067 111Q1072 97 1081 86T1105 67T1143 53T1198 43V0H776V43Q854 48 884 63T903 111L789 445H381L270 111Q260 80 297
66T416 43V0H0ZM411 535H758L582 1049L411 535ZM499 1500Q499 1528 508 1553T533 1596T569 1625T614 1636Q699 1636 699 1541Q699 1513 690 1488T666 1445T629 1415T583 1404Q538 1404 519 1429T499 1500Z" />
<glyph unicode="&#x227;" glyph-name="uni0227" horiz-adv-x="940" d="M80 186Q80 262 106 313T170 401Q194 425 224 446T305 488T432 526T623 561V702Q623 736 615 765T588 816T537 849T455 860Q423 859 392 849T338 821T302 779T292 724Q293 715 272 704T221
683T163 669T122 667L108 706Q131 756 178 802T285 883T413 939T544 960Q654 960 713 903T773 742V178Q773 136 784 118T813 100Q827 100 849 105T911 127L926 82Q841 23 786 -3T702 -30Q669 -30 647 16T623 143Q578 98 533 65T445 11T364 -20T293 -30Q257 -30
219 -18T151 20T100 87T80 186ZM244 229Q244 189 256 164T285 125T320 105T352 100Q412 100 479 130T623 227V486Q539 472 485 459T395 433T339 404T302 372Q276 345 260 311T244 229ZM380 1220Q380 1248 389 1273T414 1316T450 1345T495 1356Q580 1356 580 1261Q580
1233 571 1208T547 1165T510 1135T464 1124Q419 1124 400 1149T380 1220Z" />
<glyph unicode="&#x228;" glyph-name="uni0228" horiz-adv-x="1016" d="M50 0V43Q118 57 156 73T195 104V1155Q195 1167 159 1185T50 1217V1260H856L889 1235Q887 1209 883 1178T873 1116T861 1057T848 1010H803Q801 1056 795 1087T778 1136T754 1162T721 1170H355V735H760L786
707Q778 693 767 677T743 646T718 617T694 596Q679 611 662 621T622 638T569 648T496 651H355V154Q355 139 362 128T391 108T453 95T559 90H688Q734 90 766 95T824 117T869 169T911 262L954 244Q946 158 934 94T913 0H562L527 -104Q553 -110 578 -119T623 -144T655
-180T667 -229Q667 -266 650 -300T595 -362T500 -411T359 -444L337 -395Q389 -386 425 -373T485 -343T518 -310T529 -276Q529 -242 503 -229T415 -209Q417 -206 425 -181L446 -115Q460 -74 483 0H50Z" />
<glyph unicode="&#x229;" glyph-name="uni0229" horiz-adv-x="946" d="M80 434Q80 501 95 566T138 689T208 796T301 881Q323 896 350 910T408 936T467 953T524 960Q589 960 640 942T729 894T793 823T835 737T859 646T866 557Q848 537 818 520T756 490H230Q231
412 251 342T310 218T403 132T526 100Q557 100 586 104T650 122T725 163T823 236Q836 229 845 216T860 195Q793 122 743 78T648 9T559 -22Q555 -23 552 -24L525 -104Q551 -110 576 -119T621 -144T653 -180T665 -229Q665 -266 648 -300T593 -362T498 -411T357 -444L335
-395Q387 -386 423 -373T483 -343T516 -310T527 -276Q527 -242 501 -229T413 -209Q415 -206 423 -181L444 -115L472 -30H465Q388 -30 319 3T196 96T112 242T80 434ZM236 580H664Q687 580 694 587T702 616Q702 643 695 683T665 762T602 828T496 855Q444 855 401
835T324 779T268 692T236 580Z" />
<glyph unicode="&#x22a;" glyph-name="uni022A" horiz-adv-x="1229" d="M70 612Q70 748 114 871T234 1087T412 1235T633 1290Q757 1290 851 1236T1009 1091T1105 885T1138 647Q1138 511 1093 389T971 173T791 25T575 -30Q455 -30 361 23T203 165T104 370T70 612ZM225
641Q225 529 255 429T337 254T458 134T604 90Q687 90 756 124T876 227T955 396T983 629Q983 698 971 765T935 893T879 1005T803 1094T711 1153T604 1175Q515 1175 445 1138T326 1031T251 862T225 641ZM287 1800Q289 1811 294 1825T305 1854L317 1882Q323 1895 328
1905H941L963 1881Q961 1870 956 1856T945 1826L934 1798Q928 1784 924 1775H309L287 1800ZM315 1500Q315 1528 324 1553T349 1596T385 1625T430 1636Q515 1636 515 1541Q515 1513 506 1488T482 1445T445 1415T399 1404Q354 1404 335 1429T315 1500ZM715 1500Q715
1528 724 1553T749 1596T785 1625T830 1636Q915 1636 915 1541Q915 1513 906 1488T882 1445T845 1415T799 1404Q754 1404 735 1429T715 1500Z" />
<glyph unicode="&#x22b;" glyph-name="uni022B" horiz-adv-x="1030" d="M80 444Q80 510 96 574T142 695T213 801T305 885T414 940T535 960Q629 960 705 924T836 825T920 674T950 485Q950 418 933 354T886 233T814 128T722 44T614 -10T496 -30Q401 -30 325 6T194
105T110 255T80 444ZM207 1560Q209 1571 214 1585T225 1614L237 1642Q243 1655 248 1665H861L883 1641Q881 1630 876 1616T865 1586L854 1558Q848 1544 844 1535H229L207 1560ZM235 473Q235 394 263 323T333 197T427 112T524 80Q595 80 646 106T730 182T779 300T795
455Q795 534 769 605T702 731T609 818T506 850Q430 850 378 821T295 742T249 622T235 473ZM235 1220Q235 1248 244 1273T269 1316T305 1345T350 1356Q435 1356 435 1261Q435 1233 426 1208T402 1165T365 1135T319 1124Q274 1124 255 1149T235 1220ZM635 1220Q635
1248 644 1273T669 1316T705 1345T750 1356Q835 1356 835 1261Q835 1233 826 1208T802 1165T765 1135T719 1124Q674 1124 655 1149T635 1220Z" />
</font>
</defs>
</svg>
