<?xml version="1.0" standalone="no"?> <!DOCTYPE svg PUBLIC "-//W3C//DTD SVG 1.0//EN" "http://www.w3.org/TR/2001/REC-SVG-20010904/DTD/svg10.dtd" > <svg xmlns="http://www.w3.org/2000/svg" width="100%" height="100%">
<defs >
<font id="GentiumBasic-Bold" horiz-adv-x="1086" ><font-face
    font-family="Gentium Basic"
    units-per-em="2048"
    panose-1="2 0 5 3 6 0 0 2 0 4"
    ascent="2207"
    descent="-733"
    alphabetic="0" />
<missing-glyph horiz-adv-x="1400" d="M100 0V1800H1300V0H100ZM150 50H1250V1750H150V50Z" />
<glyph unicode=" " glyph-name="space" horiz-adv-x="510" />
<glyph unicode="!" glyph-name="exclam" horiz-adv-x="633" d="M148 95Q148 134 163 166T203 220T262 254T332 266Q359 266 385 258T431 234T464 192T476 131Q476 91 462 59T422 5T364 -28T293 -40Q263 -40 237 -33T191 -9T160 33T148 95ZM167 1368L222 1396L288
1429L354 1459Q386 1473 406 1480L456 1448L377 412Q358 398 328 390T273 373L244 394L167 1368Z" />
<glyph unicode="&quot;" glyph-name="quotedbl" horiz-adv-x="960" d="M138 1396Q145 1400 164 1408L205 1424Q228 1433 254 1442L304 1459L344 1472Q362 1478 369 1480L420 1452L347 834Q339 830 323 826T288 819T251 815T221 813L138 1396ZM541 1396Q552 1402
585 1415T657 1442L728 1467Q761 1478 772 1480L823 1452L750 834Q742 830 726 826T691 819T654 815T624 813L541 1396Z" />
<glyph unicode="#" glyph-name="numbersign" horiz-adv-x="1036" d="M72 485Q74 495 79 511T92 544L106 578Q112 595 117 605H302L366 831H203L178 855Q180 866 186 882T200 916L214 950L224 976H408L486 1251Q497 1259 512 1264T545 1274L578 1283Q593 1287 604
1292L633 1270L548 976H722L800 1251Q811 1259 826 1264T859 1274L892 1283Q908 1287 920 1292L947 1270L863 976H1017L1042 951Q1040 940 1034 923T1020 888L1006 855Q1000 839 996 831H822L757 605H911L933 578Q931 568 926 552T913 518L900 484Q894 469 890
460H716L633 170Q624 163 609 157T576 146L542 136L511 127L485 147L574 460H400L317 170Q308 163 293 157T261 146L227 136L197 127L171 147L260 460H94L72 485ZM442 605H616L680 831H507L442 605Z" />
<glyph unicode="$" glyph-name="dollar" horiz-adv-x="1036" d="M77 151T77 177T77 236T80 301T86 361T95 408L168 404Q192 353 220 309T284 231T362 174T455 141V569L322 618Q255 644 202 681T116 771T83 904Q83 947 101 996T162 1090T277 1167T455 1210V1341Q469
1349 478 1355T497 1367T516 1376T541 1384L575 1355V1212Q627 1209 679 1200T776 1176T856 1145T909 1109Q915 1102 908 1072T886 1006T855 938T825 893L756 901Q722 970 679 1015T575 1081V737Q642 713 709 685T831 614T918 513T952 370Q952 310 931 250T865
137T748 48T575 -3V-128Q557 -144 536 -156T489 -174L455 -145V-9Q370 -6 272 25T87 111Q82 114 80 132ZM285 951Q285 919 298 894T333 849T387 813T455 781V1092Q414 1088 383 1076T330 1044T297 1001T285 951ZM575 138Q608 143 638 156T691 192T728 245T742 317Q742
356 730 387T695 442T642 486T575 522V138Z" />
<glyph unicode="%" glyph-name="percent" horiz-adv-x="1491" d="M54 897Q54 967 77 1029T142 1137T245 1211T381 1238Q455 1238 513 1211T611 1138T672 1030T693 897Q693 828 669 766T601 658T497 584T365 557T236 584T138 657T76 766T54 897ZM201 0L1114 1199Q1124
1204 1143 1209T1185 1220T1227 1229T1259 1236L1285 1206L374 7Q363 1 344 -4T302 -14L259 -24L225 -31L201 0ZM259 920Q259 772 290 702T381 632Q433 632 460 689T488 877Q488 950 479 1004T453 1093T414 1145T365 1163Q315 1163 287 1107T259 920ZM799 240T799
310T822 442T888 550T991 624T1127 651Q1201 651 1259 624T1356 551T1417 443T1438 310T1414 178T1346 70T1242 -4T1110 -31T981 -4T883 69T821 178ZM1004 333Q1004 185 1035 115T1127 44Q1179 44 1206 101T1233 290Q1233 436 1198 506T1110 576Q1060 576 1032
520T1004 333Z" />
<glyph unicode="&amp;" glyph-name="ampersand" horiz-adv-x="1419" d="M65 352Q65 458 132 564T343 776Q310 852 291 926T272 1073Q272 1154 303 1223T387 1342T512 1421T664 1450Q740 1450 794 1430T883 1375T934 1297T951 1204Q951 1152 925 1098T855 993T756
896T641 812L610 792Q644 735 684 678T770 565L860 458Q907 405 954 358Q974 394 984 430T995 502Q995 544 982 577T948 634T899 670T842 683L813 718Q818 724 829 735L852 758Q865 769 878 778T902 792H1383L1414 748L1387 714L1357 678Q1342 661 1327 646T1300
622Q1263 639 1220 653T1143 670Q1164 641 1170 611T1176 543Q1176 477 1146 402T1060 255L1101 219L1140 186Q1191 143 1246 132T1353 133L1369 60Q1326 41 1279 25T1189 -4T1116 -23T1074 -30Q1049 -30 998 1T881 87Q802 33 709 2T513 -30Q408 -30 325 -6T184
67T96 186T65 352ZM325 373Q325 303 347 254T404 173T484 128T573 114Q630 114 682 131T782 177Q735 222 687 274T591 385T500 505T418 631Q365 567 345 505T325 373ZM497 1130Q497 1078 511 1023T551 908Q598 936 629 969T679 1036T706 1104T714 1171Q714 1241
682 1281T603 1321Q576 1321 556 1306T523 1265T504 1204T497 1130Z" />
<glyph unicode="&apos;" glyph-name="quotesingle" horiz-adv-x="557" d="M138 1396Q145 1400 164 1408L205 1424Q228 1433 254 1442L304 1459L344 1472Q362 1478 369 1480L420 1452L347 834Q339 830 323 826T288 819T251 815T221 813L138 1396Z" />
<glyph unicode="(" glyph-name="parenleft" horiz-adv-x="679" d="M106 623Q106 787 140 935T239 1208T395 1432T601 1600L655 1525Q595 1465 543 1381T451 1189T389 946T366 651Q366 505 384 374T439 129T530 -78T655 -240L601 -315Q476 -249 384 -154T229 61T137
322T106 623Z" />
<glyph unicode=")" glyph-name="parenright" horiz-adv-x="679" d="M26 -241Q86 -181 138 -97T230 96T292 339T315 634Q315 779 297 911T242 1156T151 1363T26 1524L80 1599Q204 1533 297 1438T452 1224T544 963T575 662Q575 498 541 350T442 77T286 -148T80 -316L26
-241Z" />
<glyph unicode="*" glyph-name="asterisk" horiz-adv-x="907" d="M56 970L64 1026L356 1132L87 1228Q88 1240 91 1264L98 1314Q101 1340 105 1363T113 1397L165 1417L402 1219L352 1498Q363 1504 385 1513T432 1532L478 1550Q500 1558 511 1561L555 1525L501 1220L718
1404L748 1383Q767 1369 788 1352L826 1321Q844 1306 852 1298L843 1242L552 1136L820 1040Q819 1028 816 1004L810 954Q806 928 802 905T794 871L741 851L505 1048L555 770Q544 764 522 755T476 736L429 718Q407 710 396 708L352 743L405 1048L189 864L160 886L120
916L81 947Q63 962 56 970Z" />
<glyph unicode="+" glyph-name="plus" horiz-adv-x="863" d="M53 522Q56 533 61 548T74 579L88 610Q94 624 99 634H361V902L385 910L416 920L448 931Q463 936 474 939L506 908V634H777L810 603Q807 592 801 576L788 544L774 514Q768 499 764 491H506V225Q496 220
482 214T451 203T420 193T393 186L361 216V491H85L53 522Z" />
<glyph unicode="," glyph-name="comma" horiz-adv-x="552" d="M88 154Q94 162 113 173T159 195T219 218T282 239T340 254T384 259Q432 236 456 193T480 70Q480 16 457 -46T395 -169T302 -286T189 -380L121 -330Q177 -265 209 -195T241 -38Q241 -16 232 6T205 44T162
70T104 77L88 154Z" />
<glyph unicode="-" glyph-name="hyphen" horiz-adv-x="728" d="M53 472Q56 483 61 498T74 530L88 560Q94 575 99 585H642L675 554Q672 543 666 527T653 494L640 463Q633 448 629 440H85L53 472Z" />
<glyph unicode="." glyph-name="period" horiz-adv-x="552" d="M131 95Q131 134 146 166T186 220T245 254T315 266Q343 266 369 258T415 234T447 192T459 131Q459 91 445 59T406 5T348 -28T276 -40Q247 -40 221 -33T174 -9T143 33T131 95Z" />
<glyph unicode="/" glyph-name="slash" horiz-adv-x="975" d="M35 -303L736 1544Q749 1553 770 1561T815 1576T860 1590L895 1600L940 1571L242 -277Q232 -284 210 -292T163 -309L114 -324Q91 -331 79 -335L35 -303Z" />
<glyph unicode="0" glyph-name="zero" horiz-adv-x="1036" d="M61 473T61 602T93 846T187 1047T335 1184T530 1235Q636 1235 719 1185T859 1049T945 848T975 602Q975 473 941 358T844 157T696 21T506 -30T320 20T180 157T92 358ZM323 645Q323 370 376 235T530
100Q576 100 611 125T668 205T702 349T714 565Q714 702 699 803T655 972T589 1072T506 1105Q460 1105 426 1080T369 1000T335 858T323 645Z" />
<glyph unicode="1" glyph-name="one" horiz-adv-x="1036" d="M124 1075Q152 1081 193 1093T282 1120L379 1152L474 1187L558 1219Q597 1234 621 1245L665 1203V173Q665 163 676 152T715 128T791 104T915 83V0H155V83Q233 92 285 103T368 127T412 150T425 173V910Q425
950 422 972T407 1008Q401 1014 386 1018T340 1021T265 1014T153 994L124 1075Z" />
<glyph unicode="2" glyph-name="two" horiz-adv-x="1036" d="M83 74L288 318L441 506Q505 589 547 651T615 761T650 849T661 924Q661 966 652 1002T625 1066T577 1108T505 1123Q464 1123 435 1105T387 1058T363 993T363 919Q346 910 319 900T260 880T199 864T145
855L110 923Q110 975 147 1030T247 1130T395 1205T573 1235Q650 1235 713 1219T820 1171T889 1092T913 982Q913 937 901 893T861 798T789 688T682 553L536 385L345 174H744Q761 174 774 182T798 205T816 237Q824 254 829 274Q841 319 846 374L926 355L911 0H112L83
74Z" />
<glyph unicode="3" glyph-name="three" horiz-adv-x="1036" d="M76 134L117 231Q162 197 203 174T282 136T356 115T431 108Q478 108 519 123T591 168T640 245T658 356Q658 425 637 472T582 547T511 588T440 601H417Q408 601 400 600T382 598T357 594L339 684Q425
707 476 738T556 804T592 874T601 940Q601 974 594 1007T571 1066T528 1107T464 1123Q437 1123 414 1110T376 1075T356 1023T360 958Q339 946 313 935T257 915T197 898T139 889L105 950Q105 992 135 1042T221 1134T352 1206T521 1235Q612 1235 676 1211T781 1148T839
1059T858 958Q858 920 843 881T799 807T732 743T645 698Q706 692 756 665T841 594T895 497T915 381Q915 297 883 222T790 91T646 3T459 -30Q420 -30 372 -21T273 9T172 60T76 134Z" />
<glyph unicode="4" glyph-name="four" horiz-adv-x="1036" d="M55 376L536 1167L589 1185L648 1206L706 1226L756 1245L800 1203V475H931L957 445Q936 413 907 383T855 335H800V134Q800 126 806 120T828 106T871 90T939 73V0H360V73Q425 84 466 93T530 111T561
128T570 145V335H96L55 376ZM251 475H570V980L251 475Z" />
<glyph unicode="5" glyph-name="five" horiz-adv-x="1036" d="M78 130L128 220Q181 183 227 160T312 124T385 105T448 100Q498 100 540 120T612 176T659 261T676 367Q676 435 659 487T609 575T533 629T433 648Q353 648 295 624T184 560L137 593L151 679L168 785L184
900Q193 960 200 1016T212 1121T219 1205H745Q774 1205 796 1207T834 1214Q852 1218 866 1223L903 1187L874 1146Q856 1122 836 1098T798 1053T767 1023H335Q333 994 329 957T319 882L307 810L297 754Q342 774 397 784T516 795Q616 795 692 763T818 676T893 553T919
410Q919 323 893 244T811 103T671 6T470 -30Q424 -30 373 -20T271 10T171 60T78 130Z" />
<glyph unicode="6" glyph-name="six" horiz-adv-x="1036" d="M95 473Q95 614 143 743T285 976T521 1151T848 1249L875 1160Q754 1134 666 1087T516 976T418 838T366 681Q429 733 493 759T609 785Q694 785 761 758T875 681T946 563T971 412Q971 365 959 314T924
214T865 121T783 44T678 -10T551 -30Q456 -30 373 6T228 109T131 267T95 473ZM353 536Q353 418 370 335T417 199T487 122T575 98Q618 98 647 120T693 177T717 257T724 348Q724 442 708 500T667 590T609 633T545 645Q502 645 452 617T353 536Z" />
<glyph unicode="7" glyph-name="seven" horiz-adv-x="1036" d="M97 888L106 956L119 1048Q126 1096 133 1139T147 1205H927L960 1167L869 950L782 734L702 528L632 340L573 178Q547 105 530 52Q512 40 485 28T426 5T364 -15T308 -30L259 11L414 294L540 542L649
778L756 1023H309Q294 1023 278 1020T244 1002T206 954T165 863L97 888Z" />
<glyph unicode="8" glyph-name="eight" horiz-adv-x="1036" d="M79 285Q79 337 99 386T155 479T242 562T353 632Q308 653 268 677T197 734T148 811T130 915Q130 984 161 1043T247 1144T375 1211T532 1235Q627 1235 697 1215T814 1160T884 1076T907 969Q907 930
891 894T845 825T777 762T691 701Q743 677 791 647T876 576T935 480T957 352Q957 274 922 205T824 84T677 1T496 -30Q394 -30 316 -4T186 66T106 166T79 285ZM337 315Q337 263 353 222T396 152T458 108T530 93Q571 93 603 110T656 157T689 226T700 309Q700 367
681 409T630 484T555 539T466 583Q434 552 410 522T369 459T345 392T337 315ZM358 950Q358 912 375 884T421 832T490 790T573 752Q660 843 660 938Q660 990 646 1025T610 1081T558 1110T496 1119Q463 1119 437 1105T394 1068T367 1015T358 950Z" />
<glyph unicode="9" glyph-name="nine" horiz-adv-x="1036" d="M85 795Q85 845 100 897T143 999T211 1091T301 1166T410 1216T536 1235Q628 1235 706 1206T840 1116T928 959T960 731Q960 579 913 448T772 215T536 46T205 -43L180 46Q319 80 414 129T568 239T658
374T697 532Q645 481 581 452T446 423Q358 423 291 453T178 534T109 652T85 795ZM333 856Q333 772 351 717T397 629T455 583T511 570Q568 570 616 599T703 674Q701 810 683 894T638 1026T578 1091T510 1108Q426 1108 380 1042T333 856Z" />
<glyph unicode=":" glyph-name="colon" horiz-adv-x="552" d="M131 95Q131 134 146 166T186 220T245 254T315 266Q343 266 369 258T415 234T447 192T459 131Q459 91 445 59T406 5T348 -28T276 -40Q247 -40 221 -33T174 -9T143 33T131 95ZM131 789Q131 828 146
860T186 914T245 948T315 960Q343 960 369 952T415 928T447 886T459 825Q459 785 445 753T406 699T348 666T276 654Q247 654 221 661T174 685T143 727T131 789Z" />
<glyph unicode=";" glyph-name="semicolon" horiz-adv-x="552" d="M88 154Q94 162 113 173T159 195T219 218T282 239T340 254T384 259Q432 236 456 193T480 70Q480 16 457 -46T395 -169T302 -286T189 -380L121 -330Q177 -265 209 -195T241 -38Q241 -16 232 6T205
44T162 70T104 77L88 154ZM131 789Q131 828 146 860T186 914T245 948T315 960Q343 960 369 952T415 928T447 886T459 825Q459 785 445 753T406 699T348 666T276 654Q247 654 221 661T174 685T143 727T131 789Z" />
<glyph unicode="&lt;" glyph-name="less" horiz-adv-x="930" d="M53 526L56 538L61 556L71 590Q73 598 76 606T81 621Q82 624 82 627T85 633L91 648L845 920L877 888L870 860Q865 842 860 822L849 786Q844 768 841 759L312 569L853 376L877 333Q855 313 829 287T771
241L85 487L53 526Z" />
<glyph unicode="=" glyph-name="equal" horiz-adv-x="930" d="M53 372Q56 383 61 398T74 429L88 460Q94 474 99 484H845L877 452Q874 441 868 426T855 394L842 364Q835 349 832 340H85L53 372ZM53 672Q56 682 61 697T74 729L88 760Q94 774 99 784H845L877 752Q874
741 868 726L855 694L842 662Q835 648 832 640H85L53 672Z" />
<glyph unicode="&gt;" glyph-name="greater" horiz-adv-x="930" d="M53 274Q56 284 60 302T70 339L82 376L90 402L616 592L77 785L53 829L104 876Q132 902 159 920L845 675L877 635Q874 622 870 606T860 574L848 541L839 513L85 241L53 274Z" />
<glyph unicode="?" glyph-name="question" horiz-adv-x="932" d="M65 1122V1146Q65 1216 102 1277T203 1383T350 1454T525 1480Q607 1480 671 1457T778 1393T843 1293T866 1165Q866 1090 841 1029T777 914T693 812T607 716T539 618T507 508L501 412Q482 398 456
389T402 371L370 399L362 508Q359 565 376 620T420 727T479 829T539 928T586 1024T605 1120Q605 1244 565 1303T454 1362Q429 1362 406 1349T366 1313T338 1258T327 1186Q327 1172 330 1154T339 1121Q323 1113 292 1103T227 1085T158 1069T102 1060L67 1098Q65
1106 65 1122ZM280 95Q280 134 295 166T335 220T394 254T464 266Q492 266 518 258T564 234T596 192T608 131Q608 91 594 59T555 5T497 -28T425 -40Q396 -40 370 -33T323 -9T292 33T280 95Z" />
<glyph unicode="@" glyph-name="at" horiz-adv-x="1796" d="M85 465Q85 586 116 699T205 912T344 1095T524 1237T737 1330T977 1363Q1140 1363 1275 1315T1507 1168T1657 921T1711 572Q1711 487 1691 410T1636 265T1554 144T1451 51T1337 -9T1217 -30Q1187 -30
1161 -22T1114 4T1076 54T1050 132Q1009 84 979 53T920 3T862 -23T792 -30Q741 -30 689 -2T594 83T525 229T498 437Q498 500 511 563T549 684T612 793T698 880T806 939T934 960Q957 960 977 957T1017 944T1058 916T1103 869Q1158 888 1198 908T1283 960L1314 930Q1305
895 1299 857Q1293 825 1289 784T1284 701V285Q1284 224 1298 193T1355 162Q1380 162 1408 185T1461 252T1500 362T1516 512Q1516 683 1474 810T1356 1022T1174 1149T938 1191Q785 1191 668 1138T471 993T351 781T310 524Q310 335 362 192T505 -47T718 -191T978
-240Q1074 -240 1158 -223T1311 -179T1431 -123T1513 -67L1560 -154Q1524 -195 1467 -240T1331 -324T1152 -387T929 -413Q743 -413 588 -353T321 -180T147 96T85 465ZM738 468Q738 383 752 324T788 229T838 176T893 160Q912 160 928 165T961 183T997 220T1044 280V731Q1022
776 995 802T918 828Q830 828 784 742T738 468Z" />
<glyph unicode="A" glyph-name="A" horiz-adv-x="1287" d="M0 0V73Q68 85 104 98T151 141L500 1207Q524 1227 551 1244T608 1274T667 1298T722 1317L1142 141Q1147 127 1155 116T1177 97T1212 83T1266 73V0H769V73Q847 78 874 93T891 141L789 430H392L296 141Q286
110 320 96T437 73V0H0ZM432 550H747L582 1015L432 550Z" />
<glyph unicode="B" glyph-name="B" horiz-adv-x="1231" d="M30 1230Q75 1241 136 1251T264 1270T400 1284T529 1290Q644 1290 734 1272T888 1218T984 1133T1018 1020Q1018 912 960 835T790 723Q865 711 927 678T1034 597T1104 487T1129 356Q1129 271 1094 203T991
86T829 12T612 -14Q590 -14 558 -14T486 -12L406 -10Q364 -9 324 -7Q229 -4 123 0H43V73Q111 87 145 103T180 134V1165Q142 1161 107 1156T43 1146L30 1230ZM430 127Q430 120 435 114Q464 102 499 98T575 93Q720 93 793 158T867 337Q867 392 853 446T803 543T710
612T565 639Q519 639 489 635T430 626V127ZM430 740H449Q549 740 610 760T706 812T753 886T765 971Q765 1021 751 1060T701 1127T609 1169T466 1184H449Q440 1184 430 1183V740Z" />
<glyph unicode="C" glyph-name="C" horiz-adv-x="1143" d="M55 586Q55 746 104 876T239 1098T441 1241Q555 1290 691 1290Q745 1290 798 1282T899 1261T986 1229T1052 1190Q1056 1187 1052 1172T1038 1136T1017 1091T991 1044T967 1003T947 977L882 991Q831 1079
766 1118T622 1158Q588 1158 552 1147T480 1111T414 1046T359 946T322 807T308 623Q308 495 341 403T428 252T548 164T681 135Q708 135 744 141T824 163T917 207T1019 279Q1024 275 1032 265T1048 244L1062 224Q1068 214 1071 211Q1007 146 945 100T822 25T702
-17T586 -30Q485 -30 390 12T220 133T100 326T55 586Z" />
<glyph unicode="D" glyph-name="D" horiz-adv-x="1304" d="M30 1230Q79 1242 146 1253T288 1272T438 1285T578 1290Q731 1290 851 1249T1053 1128T1178 935T1221 676Q1221 551 1196 453T1126 279T1023 151T897 65T759 16T619 0H43V73Q111 87 145 103T180 134V1157L43
1138L30 1230ZM430 167Q430 160 432 153Q435 142 443 134T468 119T512 110T582 107Q620 107 662 120T746 161T825 231T891 333T936 467T953 637Q953 770 924 872T839 1043T699 1148T506 1184Q488 1184 469 1184T430 1182V167Z" />
<glyph unicode="E" glyph-name="E" horiz-adv-x="1076" d="M43 0V73Q111 87 145 103T180 134V1125Q180 1137 148 1155T43 1187V1260H924L964 1228Q962 1202 958 1163T948 1083T936 1006T923 950H848Q843 1043 823 1091T766 1140H430V735H828L861 700L842 668Q830
649 818 631T793 598T769 574Q754 589 737 599T697 616T644 626T571 629H430V184Q430 169 437 158T466 138T528 125T634 120H733Q779 120 811 131T869 166T914 231T956 330L1029 304Q1025 261 1020 214T1009 124T998 48T988 0H43Z" />
<glyph unicode="F" glyph-name="F" horiz-adv-x="1039" d="M43 0V73Q111 87 145 103T180 134V1125Q180 1137 148 1155T43 1187V1260H934L972 1228Q971 1202 967 1163T958 1083T946 1006T933 950H856Q853 1043 833 1091T774 1140H430V735H797L833 700Q824 683 812
664T787 628T762 597T739 574Q724 589 707 599T668 616T615 626T542 629H430V134Q430 128 438 121T465 107T516 91T598 73V0H43Z" />
<glyph unicode="G" glyph-name="G" horiz-adv-x="1232" d="M55 582Q55 748 108 879T255 1102T476 1242T752 1290Q785 1290 830 1283T924 1263T1017 1231T1095 1188Q1100 1184 1096 1170T1083 1135T1060 1091L1032 1045Q1019 1023 1006 1006T984 981L921 995Q888
1043 855 1076T785 1128T710 1156T628 1165Q603 1165 570 1155T501 1121T431 1057T369 959T325 821T308 637Q308 503 339 407T421 249T539 158T676 128Q731 128 774 138T853 165V470Q853 481 849 491T829 512T781 532T692 552V625H1190V552Q1133 538 1113 516T1093
470V169Q1019 108 955 70T834 9T728 -21T633 -30Q560 -30 489 -14T354 36T235 121T140 240T78 393T55 582Z" />
<glyph unicode="H" glyph-name="H" horiz-adv-x="1399" d="M43 0V73Q111 87 145 103T180 134V1125Q180 1137 148 1155T43 1187V1260H568V1187Q500 1173 465 1156T430 1125V720H950V1125Q950 1137 918 1155T813 1187V1260H1338V1187Q1270 1173 1235 1156T1200 1125V134Q1200
122 1233 105T1338 73V0H813V73Q881 87 915 103T950 134V600H430V134Q430 122 462 105T568 73V0H43Z" />
<glyph unicode="I" glyph-name="I" horiz-adv-x="670" d="M63 0V73Q131 87 165 103T200 134V1125Q200 1137 168 1155T63 1187V1260H588V1187Q520 1173 485 1156T450 1125V134Q450 122 483 105T588 73V0H63Z" />
<glyph unicode="J" glyph-name="J" horiz-adv-x="685" d="M-265 -334T-265 -323T-244 -288T-195 -237T-139 -190T-97 -163Q-41 -211 6 -230T92 -250Q118 -250 143 -238T189 -188T222 -78T235 111V1125Q235 1131 229 1138T202 1153T145 1169T48 1187V1260H623V1187Q555
1173 520 1156T485 1125V183Q485 73 463 -6T407 -142T330 -239T249 -311Q222 -333 189 -352T119 -386T46 -409T-25 -418Q-70 -418 -113 -408T-189 -382T-244 -351Z" />
<glyph unicode="K" glyph-name="K" horiz-adv-x="1267" d="M43 0V73Q111 87 145 103T180 134V1125Q180 1137 148 1155T43 1187V1260H568V1187Q500 1173 465 1156T430 1125V659L802 1098Q825 1125 834 1141Q844 1157 839 1166T811 1179T750 1187V1260H1200V1187Q1168
1183 1146 1179T1106 1169T1075 1152T1045 1125L616 676L1098 165Q1114 147 1131 138T1167 125T1209 121T1257 125L1264 52L1199 32Q1163 20 1127 10T1058 -7T1001 -14Q972 -14 950 -5T907 29L430 625V134Q430 122 462 105T568 73V0H43Z" />
<glyph unicode="L" glyph-name="L" horiz-adv-x="1043" d="M43 0V73Q111 87 145 103T180 134V1125Q180 1137 148 1155T43 1187V1260H568V1187Q500 1173 465 1156T430 1125V194Q430 176 438 163T468 140T525 125T616 120H729Q775 120 806 131T862 166T905 231T946
330L1019 304Q1015 261 1010 214T999 124T988 48T978 0H43Z" />
<glyph unicode="M" glyph-name="M" horiz-adv-x="1734" d="M53 0V73Q122 87 156 103T190 134L200 1152Q165 1172 129 1179T63 1187V1260H409Q419 1260 427 1257T442 1245T459 1220T480 1176L848 341L1223 1176Q1236 1206 1245 1222T1262 1247T1277 1258T1294 1260H1633V1187Q1608
1187 1575 1180T1505 1159L1515 134Q1515 122 1551 105T1660 73V0H1138V73Q1206 87 1245 103T1285 134L1277 947L853 0H759L343 945L335 134Q335 122 368 105T473 73V0H53Z" />
<glyph unicode="N" glyph-name="N" horiz-adv-x="1359" d="M43 0V73Q116 82 148 101T180 134V1114Q115 1175 43 1187V1260H322Q337 1260 346 1258T366 1247T388 1224L418 1182L1030 334V1125Q1030 1131 1024 1139T1002 1156T960 1173T893 1187V1260H1318V1187Q1246
1177 1213 1158T1180 1125V-30Q1084 -22 1026 7T941 74L330 920V134Q330 128 337 120T360 103T403 86T468 73V0H43Z" />
<glyph unicode="O" glyph-name="O" horiz-adv-x="1274" d="M55 612Q55 748 99 871T223 1087T413 1235T656 1290T889 1236T1059 1091T1163 885T1198 647Q1198 556 1176 471T1115 311T1020 173T898 65T755 -5T598 -30Q472 -30 371 23T200 165T93 370T55 612ZM308
641Q308 529 334 431T406 261T512 147T642 105Q708 105 763 137T859 234T923 398T946 629Q946 732 922 828T852 998T744 1116T604 1160Q532 1160 477 1125T384 1023T327 860T308 641Z" />
<glyph unicode="P" glyph-name="P" horiz-adv-x="1161" d="M30 1230Q84 1243 150 1254T287 1273T431 1285T570 1290Q686 1290 781 1267T945 1199T1050 1088T1087 936Q1087 867 1068 809T1017 705T942 624T852 566T756 532T663 520Q617 520 573 527T495 550L464
655Q505 636 536 631T603 625Q646 625 688 640T762 689T815 773T835 895T812 1020T746 1110T644 1165T513 1184Q493 1184 473 1184T430 1182V134Q430 128 436 121T461 106T513 90T598 73V0H43V73Q111 87 145 103T180 134V1158Q142 1153 108 1148T43 1138L30 1230Z"
/>
<glyph unicode="Q" glyph-name="Q" horiz-adv-x="1274" d="M55 612Q55 748 99 871T223 1087T413 1235T656 1290T889 1236T1059 1091T1163 885T1198 647Q1198 546 1171 451T1095 275T979 130T832 26Q888 6 940 -21L1041 -72Q1090 -96 1136 -113T1228 -130Q1240
-130 1252 -128T1280 -118T1317 -96T1368 -60L1417 -125Q1393 -169 1366 -206T1311 -270T1261 -312T1222 -328Q1175 -328 1129 -313T1035 -272T940 -214L846 -148L750 -82Q703 -50 656 -26Q642 -28 627 -29T598 -30Q474 -30 374 22T203 163T94 368T55 612ZM308
641Q308 529 334 431T406 261T512 147T642 105Q708 105 763 137T859 234T923 398T946 629Q946 732 922 828T852 998T744 1116T604 1160Q532 1160 477 1125T384 1023T327 860T308 641Z" />
<glyph unicode="R" glyph-name="R" horiz-adv-x="1239" d="M30 1230Q136 1253 260 1271T529 1290Q665 1290 760 1267T916 1203T1004 1107T1032 987Q1032 918 1012 861T955 757T867 676T753 620L1068 184Q1084 163 1098 150T1130 131T1171 123T1229 125L1244 52Q1211
41 1170 30T1089 8T1014 -8T960 -14Q931 -14 904 2T862 41L575 586Q565 585 555 585H536Q510 585 484 587T430 596V134Q430 122 462 105T568 73V0H43V73Q111 87 145 103T180 134V1157L110 1148Q75 1143 43 1138L30 1230ZM430 706Q457 701 477 700T519 699Q654 699
717 767T780 956Q780 1002 766 1043T719 1116T628 1166T485 1184Q472 1184 458 1184T430 1182V706Z" />
<glyph unicode="S" glyph-name="S" horiz-adv-x="1050" d="M102 158T102 191T105 259T112 326T124 384L195 379Q218 320 251 271T325 187T413 133T511 113Q556 113 598 126T672 163T723 224T743 309Q743 370 716 414T645 493T544 556L428 612Q368 639 312 669T211
740T139 834T112 960Q112 1007 138 1064T220 1172T363 1256T571 1290Q625 1290 677 1283T774 1264T853 1235T906 1198Q911 1194 909 1180T900 1147T883 1106T861 1064T839 1028T820 1005L754 1011Q732 1058 704 1089T644 1140T580 1167T520 1175Q470 1175 435 1162T376
1127T343 1078T332 1022Q332 975 359 939T431 871T533 811L650 753Q710 723 767 688T868 609T940 508T968 377Q968 332 955 285T914 193T846 107T750 36T625 -12T470 -30Q434 -30 388 -23T293 -4T198 27T116 68Q111 70 108 87T104 131Z" />
<glyph unicode="T" glyph-name="T" horiz-adv-x="1188" d="M3 958Q5 987 9 1028T20 1112L32 1194Q38 1234 43 1260H1113L1151 1228Q1150 1202 1147 1166T1138 1090T1126 1011T1113 940H1038Q1028 986 1022 1023T1007 1086T987 1126T953 1140H706V145Q706 139 713
131T738 112T786 92T863 73V0H300V73Q346 82 376 92T424 111T449 129T456 145V1140H202Q187 1140 174 1130T146 1094T115 1029T76 931L3 958Z" />
<glyph unicode="U" glyph-name="U" horiz-adv-x="1369" d="M43 1187V1260H568V1187Q500 1173 465 1156T430 1125V509Q430 413 447 340T501 216T597 141T743 115Q814 115 863 147T942 232T986 354T1000 498V1125Q1000 1137 968 1155T863 1187V1260H1313V1187Q1245
1173 1210 1156T1175 1125V524Q1175 393 1139 290T1036 116T880 8T681 -30Q578 -30 487 -2T328 85T220 233T180 444V1125Q180 1137 148 1155T43 1187Z" />
<glyph unicode="V" glyph-name="V" horiz-adv-x="1361" d="M13 1187V1260H523V1187Q443 1181 417 1167T402 1123L727 286L1024 1121Q1029 1136 1026 1146T1007 1163T965 1176T897 1187V1260H1328V1187Q1260 1174 1222 1162T1173 1121L797 82Q789 60 767 42T716
10T657 -14T602 -30L147 1121Q136 1147 106 1163T13 1187Z" />
<glyph unicode="W" glyph-name="W" horiz-adv-x="1741" d="M20 1187V1260H509V1187Q460 1182 433 1175T394 1158T381 1139T381 1117L552 385L844 1260H944L1279 385L1440 1125Q1442 1137 1431 1146T1399 1162T1349 1175T1286 1187V1260H1732V1187Q1688 1178 1659
1170T1613 1155T1589 1140T1580 1125L1351 59Q1346 38 1329 23T1289 -3T1243 -20T1205 -30L864 877L577 59Q570 38 552 23T511 -2T463 -19T418 -30L158 1117Q153 1142 122 1158T20 1187Z" />
<glyph unicode="X" glyph-name="X" horiz-adv-x="1290" d="M24 0V73Q89 78 134 97T206 157L515 628L190 1103Q175 1125 161 1139T130 1162T90 1176T34 1187V1260H575V1187Q490 1179 464 1162Q438 1146 468 1103L675 800L866 1103Q880 1126 882 1140T874 1164T837
1179T765 1187V1260H1218V1187Q1182 1183 1154 1177T1103 1162T1065 1138T1035 1103L761 675L1116 157Q1131 136 1145 122T1177 98T1216 83T1267 73V0H733V73Q777 77 804 83T843 99T854 123Q852 137 838 157L602 500L375 157Q360 135 357 121T363 97T401 82T474
73V0H24Z" />
<glyph unicode="Y" glyph-name="Y" horiz-adv-x="1255" d="M0 1242L66 1251Q104 1256 141 1260T210 1267T264 1270Q292 1270 320 1258T365 1224Q402 1174 442 1110L524 974L606 826L680 679L914 1121Q929 1147 905 1162T803 1187V1260H1221V1187Q1153 1174 1120
1160T1073 1121L752 523V145Q752 139 759 131T784 112T832 92T910 73V0H345V73Q390 82 420 92T469 111T494 129T502 145V529Q466 609 421 694L330 858Q284 938 240 1006T161 1121Q152 1132 142 1141T115 1156T72 1165T4 1169L0 1242Z" />
<glyph unicode="Z" glyph-name="Z" horiz-adv-x="1116" d="M52 53L725 1130H334Q318 1130 298 1113T259 1065T222 991T193 896L106 915L143 1276Q170 1270 192 1267T236 1262T281 1260H1001L1034 1210L366 130H822Q843 130 860 145T892 191T924 267T959 375L1044
353Q1042 321 1040 272L1038 174L1034 76L1032 0H88L52 53Z" />
<glyph unicode="[" glyph-name="bracketleft" horiz-adv-x="691" d="M125 -335V1600H623L664 1567Q662 1555 657 1538L647 1504Q642 1488 637 1475T629 1455H355V-190H623L666 -227Q664 -237 659 -252L649 -282Q644 -298 639 -312T629 -335H125Z" />
<glyph unicode="\" glyph-name="backslash" horiz-adv-x="960" d="M40 1571L85 1600Q100 1596 120 1590T161 1577T201 1561T235 1544L920 -303L878 -335L844 -324L799 -309Q776 -301 756 -293T726 -277L40 1571Z" />
<glyph unicode="]" glyph-name="bracketright" horiz-adv-x="691" d="M25 1491Q27 1501 32 1516L42 1547Q47 1563 52 1577T61 1600H565V-335H68L27 -301Q29 -289 33 -272T43 -239T53 -210T61 -190H335V1455H68L25 1491Z" />
<glyph unicode="^" glyph-name="asciicircum" horiz-adv-x="1008" d="M100 592L422 1462Q434 1474 452 1486L487 1511Q505 1523 523 1533T555 1550L907 635Q882 612 859 597T801 565L764 592L481 1315L231 635Q220 625 206 615T177 595T148 578L123 565L100 592Z" />
<glyph unicode="_" glyph-name="underscore" horiz-adv-x="990" d="M53 -243Q56 -233 61 -218T74 -186L88 -155Q94 -140 99 -130H905L937 -162Q934 -173 928 -189T915 -222L902 -252Q895 -267 891 -275H85L53 -243Z" />
<glyph unicode="`" glyph-name="grave" horiz-adv-x="653" d="M-17 1417L13 1473L54 1481L121 1494L190 1506Q222 1511 234 1512L452 1086Q446 1080 435 1074L412 1060Q399 1053 387 1048T366 1040L-17 1417Z" />
<glyph unicode="a" glyph-name="a" horiz-adv-x="1023" d="M65 201Q65 269 89 316T151 401Q175 425 206 447T290 491T422 531T623 569V687Q623 718 617 744T596 790T556 819T493 830Q469 830 445 821T403 796T375 756T367 702Q368 696 351 687T308 669T251 650T190
634T138 624T107 622L86 676Q110 736 161 787T282 877T432 938T597 960Q666 960 716 942T798 892T847 815T863 720V238Q863 196 874 178T903 160Q910 160 917 161T935 165T960 174L994 187L1016 112Q974 83 929 57T843 12T769 -19T717 -30Q680 -30 655 12T624 129Q579
84 534 54T446 5T364 -22T293 -30Q251 -30 211 -16T138 27T85 99T65 201ZM319 259Q319 225 328 203T352 168T383 150T412 145Q431 145 452 149T498 165T554 197T623 250V471Q563 461 522 452T453 432T408 411T377 387Q351 361 335 331T319 259Z" />
<glyph unicode="b" glyph-name="b" horiz-adv-x="1100" d="M3 1400V1470L92 1486Q133 1493 171 1502T247 1523T321 1550L332 1540L347 1526Q356 1518 365 1509V802Q415 845 463 875T556 924T638 951T705 960Q779 960 838 928T938 837T1002 695T1025 507Q1025 449
1004 387T946 265T859 152T750 58T628 -6T499 -30Q472 -30 430 -21T339 6T234 46T125 96V1266Q125 1312 122 1337T105 1374T68 1391T3 1400ZM365 218Q445 175 506 157T597 138Q649 138 688 160T753 219T791 307T804 416Q804 516 787 586T739 702T669 767T582 788Q547
788 493 764T365 678V218Z" />
<glyph unicode="c" glyph-name="c" horiz-adv-x="933" d="M65 444Q65 552 105 646T216 809T387 919T605 960Q638 960 679 955T761 939T834 914T885 881Q886 873 883 853T873 807T857 752T839 697T821 650T806 620L739 630Q706 728 658 781T530 835Q486 835 446
815T374 752T324 640T305 475Q305 395 325 333T381 227T465 161T567 138Q595 138 621 141T678 157T747 192T839 254L893 190Q828 116 773 73T669 6T573 -23T480 -30Q399 -30 324 2T192 96T100 245T65 444Z" />
<glyph unicode="d" glyph-name="d" horiz-adv-x="1148" d="M65 444Q65 544 100 637T200 802T354 917T551 960Q598 960 644 949T745 901V1244Q745 1299 744 1331T730 1381T689 1405T608 1416V1485Q718 1496 806 1514T947 1550L985 1513V299Q985 264 986 240T990
201T997 178T1008 166Q1014 163 1021 162T1039 161T1068 169T1113 187L1141 114Q1095 83 1048 57T961 12T889 -19T844 -30Q772 -30 752 145Q706 98 668 65T592 11T516 -20T431 -30Q364 -30 299 2T181 96T97 245T65 444ZM305 498Q305 418 325 356T377 250T450 183T532
160Q587 160 636 187T745 269V706Q709 764 656 796T535 828Q485 828 443 809T371 750T323 647T305 498Z" />
<glyph unicode="e" glyph-name="e" horiz-adv-x="991" d="M65 442Q65 578 116 684Q168 791 271 866Q297 885 329 902T397 932T471 952T547 960Q645 960 716 926T834 836T903 705T926 550Q917 540 900 528T863 505T823 484T786 468H313Q315 396 332 336T382 231T459
163T564 138Q595 138 624 141T688 158T766 194T868 259Q874 256 882 247T898 228L912 208Q918 199 920 195Q851 125 796 81T691 13T590 -21T480 -30Q395 -30 320 4T188 100T98 249T65 442ZM316 580H649Q672 580 679 587T687 616Q687 646 679 684T651 757T596 816T511
840Q464 840 430 822T373 770T336 688T316 580Z" />
<glyph unicode="f" glyph-name="f" horiz-adv-x="696" d="M38 841L116 930H185V961Q185 1043 196 1110T229 1231T282 1330T354 1413Q391 1449 430 1474T508 1517T583 1542T650 1550Q695 1550 738 1538T815 1511T870 1479T891 1454Q891 1443 882 1428T857 1395T823
1359T786 1326T752 1300T726 1283Q678 1343 633 1369T556 1395Q530 1395 507 1379T465 1321T436 1205T425 1016V930H674L711 894Q702 877 688 858L662 822Q648 805 635 791T613 770Q590 782 548 793T425 805V132Q425 126 434 120T467 108T529 93T627 73V0H53V73Q122
85 153 102T185 132V805H66L38 841Z" />
<glyph unicode="g" glyph-name="g" horiz-adv-x="1059" d="M15 -222Q15 -197 25 -171T64 -116T140 -52T266 25Q152 71 152 123Q152 134 161 152T192 195T249 250T334 314Q278 329 232 356T154 420T103 503T85 602Q85 675 121 740T217 854T356 931T523 960Q592
960 652 941T760 890Q847 901 917 923T1029 960L1057 923Q1054 912 1048 897T1034 867T1018 836T1000 808Q966 802 931 798T854 792Q875 757 886 720T898 641Q898 564 864 501T773 392T641 321T483 295H473Q435 260 425 239T414 211Q414 202 420 194T448 177T516
159T640 140Q757 125 834 104T956 52T1020 -17T1038 -105Q1038 -152 1017 -199T957 -289T868 -370T758 -434T634 -477T505 -493Q453 -493 397 -487T286 -466T182 -431T96 -379T37 -309T15 -222ZM255 -183Q255 -216 279 -246T347 -300T448 -336T575 -350Q634 -350
677 -336T748 -296T791 -239T805 -172Q805 -153 796 -134T760 -98T684 -67T556 -42Q507 -36 466 -28Q424 -20 387 -12Q341 -44 315 -69T275 -114T259 -151T255 -183ZM315 659Q315 609 327 565T364 487T429 435T522 415Q551 415 577 426T624 461T656 518T668 600Q668
651 655 695T615 773T551 825T461 845Q436 845 410 834T363 799T329 741T315 659Z" />
<glyph unicode="h" glyph-name="h" horiz-adv-x="1190" d="M48 0V73Q114 90 147 103T180 134V1268Q180 1310 178 1333T163 1370T123 1388T48 1400V1470Q104 1478 148 1486T231 1503T304 1524T376 1550L420 1509V782Q535 876 635 918T814 960Q857 960 897 947T967
903T1016 823T1035 704V134Q1035 127 1041 121T1062 107T1103 92T1168 73V0H663V73Q735 92 765 106T795 134V573Q795 634 789 673T769 736T734 768T682 778Q624 778 563 742T420 639V134Q420 119 454 103T553 73V0H48Z" />
<glyph unicode="i" glyph-name="i" horiz-adv-x="615" d="M63 0V73Q131 87 163 103T195 134V648Q195 699 194 730T182 779T143 805T63 818V888Q149 900 226 917T371 960H435V134Q435 122 465 105T568 73V0H63ZM168 1220Q168 1254 181 1282T216 1329T269 1360T335
1371Q362 1371 387 1365T431 1345T461 1311T473 1261Q473 1227 460 1199T425 1151T372 1120T305 1109Q277 1109 252 1115T209 1136T179 1170T168 1220Z" />
<glyph unicode="j" glyph-name="j" horiz-adv-x="590" d="M-288 -401Q-288 -387 -267 -362T-217 -312T-160 -266T-116 -238Q-100 -258 -77 -273T-30 -298T17 -314T60 -320Q86 -320 109 -306T151 -252T179 -141T190 43V648Q190 699 189 730T176 778T137 804T58
818V888Q111 895 150 902T224 918T290 937L363 960H430V107Q430 -9 410 -88T357 -222T284 -315T203 -385Q176 -406 143 -425T76 -460T8 -484T-54 -493Q-93 -493 -134 -483T-210 -459T-266 -428T-288 -401ZM166 1220Q166 1254 179 1282T215 1329T268 1360T334 1371Q361
1371 386 1365T429 1345T459 1311T471 1261Q471 1227 459 1199T424 1151T371 1120T304 1109Q276 1109 251 1115T207 1136T177 1170T166 1220Z" />
<glyph unicode="k" glyph-name="k" horiz-adv-x="1129" d="M48 0V73Q114 90 147 103T180 134V1266Q180 1312 176 1337T157 1374T117 1391T48 1400V1470Q145 1484 226 1502T376 1550L420 1509V534L683 769Q716 799 725 816T728 843T701 854T655 857V930H1102V857Q1057
852 1014 836T927 788L623 558L984 149Q998 133 1012 124Q1025 114 1042 110T1080 105T1131 106L1137 33Q1108 26 1071 18L1000 4Q965 -2 938 -6T900 -10Q858 -10 829 2T778 43L420 517V134Q420 126 423 120T438 108T471 93T530 73V0H48Z" />
<glyph unicode="l" glyph-name="l" horiz-adv-x="615" d="M53 0V73Q96 80 123 87T167 102T189 118T195 134V1266Q195 1311 190 1336T171 1373T131 1390T63 1400V1470Q113 1477 156 1484T238 1501T315 1522T392 1550L435 1509V134Q435 126 442 119T465 103T509
88T578 73V0H53Z" />
<glyph unicode="m" glyph-name="m" horiz-adv-x="1728" d="M48 0V73Q114 90 147 103T180 134V689Q180 729 178 752T163 787T123 806T48 818V888Q100 894 142 901T221 917T293 936T363 960L405 918L416 794Q472 843 519 875T609 926T689 952T763 960Q811 960 848
948T911 916T953 868T975 808L978 794Q1034 843 1082 875T1172 926T1253 952T1328 960Q1376 960 1419 947T1494 903T1546 823T1565 704V134Q1565 120 1596 107T1706 73V0H1209V73Q1245 82 1267 90T1303 106T1320 120T1325 134V603Q1325 664 1319 701T1300 757T1267
782T1220 788Q1176 788 1117 757T993 663V134Q993 127 998 121T1016 107T1055 92T1119 73V0H636V73Q672 82 695 90T730 106T748 120T753 134V603Q753 664 748 701T732 757T702 782T655 788Q610 788 552 758T420 663V134Q420 119 450 103T545 73V0H48Z" />
<glyph unicode="n" glyph-name="n" horiz-adv-x="1190" d="M48 0V73Q114 90 147 103T180 134V689Q180 728 179 751T165 787T126 806T48 818V888Q96 893 137 900T217 915T291 935T363 960L405 918L416 774Q533 874 634 917T814 960Q857 960 897 947T967 903T1016
823T1035 704V134Q1035 127 1041 121T1062 107T1103 92T1168 73V0H663V73Q735 92 765 106T795 134V588Q795 643 790 679T772 738T740 769T690 778Q666 778 639 772T580 750T508 707T420 639V134Q420 119 454 103T553 73V0H48Z" />
<glyph unicode="o" glyph-name="o" horiz-adv-x="1075" d="M65 444Q65 543 101 636T203 801T359 916T558 960Q660 960 743 924T886 825T978 674T1010 485Q1010 418 992 354T942 233T864 128T765 44T648 -10T519 -30Q416 -30 332 6T189 105T98 255T65 444ZM318
473Q318 394 336 325T386 205T459 125T547 95Q607 95 647 118T712 185T747 293T758 440Q758 519 742 590T695 716T623 803T529 835Q467 835 426 808T361 732T328 617T318 473Z" />
<glyph unicode="p" glyph-name="p" horiz-adv-x="1145" d="M48 -407Q114 -391 147 -377T180 -345V689Q180 726 177 750T162 788T123 809T48 818V888Q105 895 147 902T224 917T292 936T363 960L405 918L414 795Q469 844 517 875T605 926T680 952T743 960Q811 960
872 933T980 848T1053 705T1080 500Q1080 434 1063 370T1016 246T947 137T865 49T777 -9T691 -30Q662 -30 633 -24T571 -5T501 30T420 83V-345Q420 -361 457 -377T589 -407V-480H48V-407ZM420 228Q473 197 511 179T579 152T633 141T681 138Q720 138 752 157T807
212T842 303T855 426Q855 522 835 591T782 704T708 769T623 790Q605 790 588 786T548 770T495 736T420 678V228Z" />
<glyph unicode="q" glyph-name="q" horiz-adv-x="1123" d="M65 444Q65 532 87 601T143 723T217 813T292 873Q320 891 352 907T419 935T487 953T551 960Q580 960 607 956T664 941T724 908T793 850Q817 862 844 878L896 908Q921 923 941 937T970 960L1009 923Q1000
891 993 854Q987 822 983 781T978 695V-345Q978 -353 984 -361T1005 -377T1045 -392T1109 -407V-480H568V-407Q662 -393 700 -378T738 -345V138Q693 93 654 61T577 9T498 -20T409 -30Q350 -30 289 2T179 96T97 245T65 444ZM305 590T305 505T324 356T374 248T444
182T525 160Q580 160 629 188T738 270V700Q721 729 697 752T644 793T586 819T528 828Q480 828 440 810T369 752T322 652Z" />
<glyph unicode="r" glyph-name="r" horiz-adv-x="909" d="M48 0V73Q180 103 180 134V664Q180 697 178 719T173 756T166 778T157 791Q150 798 143 802T124 810T94 814T48 818V888Q103 896 143 903T219 918T287 936T363 960L405 918L418 773Q445 812 479 846T551
905T632 945T717 960Q755 960 796 949T875 916Q881 912 881 891T877 838T864 769T847 695T828 628T810 579H737Q734 619 725 655T703 717T670 759T626 775Q606 775 583 768T533 739T479 677T420 571V134Q420 119 461 103T597 73V0H48Z" />
<glyph unicode="s" glyph-name="s" horiz-adv-x="858" d="M76 111T77 156T82 250T97 336L178 325Q188 272 211 229T266 156T337 110T420 93Q492 93 527 119T562 205Q562 245 542 277T487 336T410 386L321 434Q279 455 238 480T163 537T109 607T88 693Q88 755 118
804T199 888T313 941T445 960Q488 960 531 955T615 939T689 915T746 883Q752 878 749 850T736 786T713 716T688 666L619 674Q594 762 547 808T434 855Q374 855 341 828T308 758Q308 726 324 701T369 654T442 610L537 559Q580 537 624 512T703 455T760 381T782 283Q782
212 761 162T705 76T627 20T540 -12T455 -26T385 -30Q353 -30 316 -26T239 -12T162 11T90 43Q83 46 80 78Z" />
<glyph unicode="t" glyph-name="t" horiz-adv-x="758" d="M5 841L83 930H155V1139L357 1288L395 1255V930H700L736 894Q727 877 714 858L686 822Q672 805 659 791T635 770Q623 776 605 782T563 793T515 802T462 805H395V337Q395 286 401 251T418 194T445 163T480
153Q498 153 517 156T562 168T618 190T692 228L736 155Q603 59 511 15T366 -30Q323 -30 285 -14T218 37T172 122T155 244V805H34L5 841Z" />
<glyph unicode="u" glyph-name="u" horiz-adv-x="1153" d="M34 832V902Q84 906 125 911T205 922T280 938T360 960L395 914V342Q395 280 402 241T425 181T461 151T511 143Q532 143 556 148T610 166T674 203T750 262V689Q750 734 747 761T730 803T691 824T618 832V902Q718
911 799 926T953 960L990 914V284Q990 253 991 233T994 199T1001 177T1013 164Q1025 156 1046 160T1119 187L1144 112Q1107 88 1063 63T977 17T903 -17T858 -30Q840 -30 824 -24T793 1T767 52T750 136Q688 82 639 50T549 -1T474 -24T408 -30Q361 -30 316 -17T235
30T177 125T155 279V689Q155 737 154 763T141 803T105 822T34 832Z" />
<glyph unicode="v" glyph-name="v" horiz-adv-x="1040" d="M13 857V930H466V857Q427 852 405 847T372 834T361 816T368 789L583 286L785 789Q791 804 791 814T784 832T757 845T704 857V930H1027V857Q997 850 980 844T952 831T936 813T924 789L641 82Q632 60 614
42T571 10T520 -14T469 -30L116 789Q105 816 84 831T13 857Z" />
<glyph unicode="w" glyph-name="w" horiz-adv-x="1469" d="M13 857V930H466V857Q423 852 399 846T365 831T354 813T356 795L506 323L745 930H822L1073 323L1217 795Q1221 806 1221 815T1212 831T1184 845T1130 857V930H1455V857Q1427 850 1410 844T1381 831T1365
816T1355 795L1134 59Q1128 37 1110 22T1069 -4T1025 -21T990 -30L735 554L532 59Q524 36 506 21T467 -5T425 -21T391 -30L122 795Q116 813 90 829T13 857Z" />
<glyph unicode="x" glyph-name="x" horiz-adv-x="1068" d="M13 0V73Q50 79 76 88T121 109T153 134T178 163L409 461L186 771Q173 789 160 803T130 829T87 847T24 857V930H519V857Q488 854 469 850T443 836T441 812T463 773L575 616L696 773Q714 797 720 812T719
836T694 849T644 857V930H1025V857Q984 854 956 847T908 829T873 804T844 771L647 516L901 163Q912 148 925 134T955 108T997 87T1054 73V0H562V73Q587 75 607 78T639 90T649 114T628 157L481 360L324 157Q304 131 304 116T317 92T353 79T399 73V0H13Z" />
<glyph unicode="y" glyph-name="y" horiz-adv-x="1040" d="M-62 -434T-62 -425T-45 -391T-5 -336T44 -281T85 -245Q135 -277 185 -284T273 -278Q310 -265 352 -222T430 -92L459 -23L124 789Q113 816 88 831T13 857V930H466V857Q427 852 406 847T376 834T368 816T376
789L582 287L778 789Q784 805 786 814Q787 825 780 832T753 845T700 857V930H1027V857Q997 850 978 844T947 831T929 814T917 789L583 -75Q540 -185 490 -264T384 -394T267 -469T142 -493Q104 -493 67 -486T2 -469T-44 -446Z" />
<glyph unicode="z" glyph-name="z" horiz-adv-x="959" d="M61 45L590 810H330Q286 810 248 760T183 600L112 620L137 946Q159 940 177 937T214 932T257 930H873L895 887L364 120H707Q725 120 738 135T763 180T786 252L812 348L882 331Q882 310 882 281T881 218T879
152T877 88T874 35T870 0H87L61 45Z" />
<glyph unicode="{" glyph-name="braceleft" horiz-adv-x="717" d="M86 648Q198 679 249 733T301 863Q301 918 295 958T281 1035T267 1113T260 1210Q260 1277 290 1334T372 1439T497 1526T652 1600L693 1523Q615 1474 566 1409T516 1267Q516 1214 522 1174T536
1095T550 1016T557 923Q557 881 543 841T502 765T440 700T362 653Q462 635 509 566T557 385Q557 331 551 285T537 197T523 113T516 28Q516 -13 522 -46T547 -110T597 -167T683 -224L645 -315Q553 -281 481 -246T360 -168T286 -70T260 57Q260 110 266 152T280 236T294
321T301 422Q301 503 266 537T168 571H147Q141 571 136 571T125 569T103 565L86 648Z" />
<glyph unicode="|" glyph-name="bar" horiz-adv-x="470" d="M165 -375V1614Q193 1631 228 1646T292 1670L335 1641V-346Q326 -354 310 -362T275 -379T238 -394T208 -405L165 -375Z" />
<glyph unicode="}" glyph-name="braceright" horiz-adv-x="717" d="M25 -238Q103 -189 152 -124T201 18Q201 70 195 110T181 189T167 268T161 362Q161 404 175 444T216 519T278 584T356 631Q255 650 208 719T161 900Q161 954 167 1000T180 1088T194 1171T201 1256Q201
1298 195 1331T170 1394T120 1451T35 1508L73 1599Q165 1566 236 1531T357 1452T431 1355T457 1228Q457 1175 451 1133T437 1049T423 963T417 863Q417 782 452 748T550 714H570Q577 714 582 714T593 716T615 720L632 636Q520 605 469 551T417 421Q417 366 423 326T436
249T450 172T457 75Q457 7 427 -49T345 -154T221 -242T66 -316L25 -238Z" />
<glyph unicode="~" glyph-name="asciitilde" horiz-adv-x="999" d="M49 502Q70 551 102 603T174 699T259 771T352 799Q398 799 446 774T542 719T635 664T721 639Q769 639 812 678T897 799L950 774Q929 725 897 673T826 577T741 505T647 477Q605 477 558 502T463
557T367 612T276 637Q227 637 186 598T102 475L49 502Z" />
<glyph unicode="&#xa1;" glyph-name="exclamdown" horiz-adv-x="633" d="M147 790Q147 830 161 861T200 915T258 948T330 960Q359 960 385 953T431 929T462 887T474 826Q474 787 459 755T419 701T361 666T291 654Q263 654 237 662T191 686T159 728T147 790ZM165
-530L244 508Q263 522 293 530T348 547L377 527L454 -449L400 -478L332 -510Q298 -527 267 -540T216 -561L165 -530Z" />
<glyph unicode="&#xa2;" glyph-name="cent" horiz-adv-x="1036" d="M89 586Q89 675 118 753T200 893T329 999T498 1063V1199L522 1214L540 1226Q548 1232 558 1236T584 1245L618 1216V1078Q626 1078 634 1078T652 1079Q685 1079 728 1074T812 1058T888 1033T940
999Q942 988 934 958T912 894T885 830T861 786L796 803Q788 818 773 838T737 879T686 917T618 943V277Q647 278 675 285T734 309T801 355T885 429L947 358Q896 301 853 261T770 196T693 156T618 135V7Q600 -9 577 -21T530 -41L498 -9V130Q428 136 356 168T224 258T127
398T89 586ZM309 616Q309 549 323 496T362 402T421 335T498 293V941Q460 931 426 908T366 845T325 749T309 616Z" />
<glyph unicode="&#xa3;" glyph-name="sterling" horiz-adv-x="1036" d="M42 554Q44 561 49 573L60 598L70 622Q76 634 79 642H179Q177 774 208 883T301 1070T451 1191T652 1235Q678 1235 710 1233T781 1224T861 1203T951 1165L948 1122Q947 1095 944 1064T937
1000T929 938T921 885T912 848H835Q821 972 767 1043T623 1114Q603 1114 579 1110T533 1091T490 1045T457 962T440 831T446 642H728L760 612L720 521H456Q459 403 431 310T348 139Q393 143 426 144T484 145T531 143T575 141T625 138Q650 138 689 139Q736 140 768
148Q801 157 826 178T873 236T915 332L988 307Q984 264 978 216T964 125T951 49T940 0Q895 -25 828 -28T683 -24T520 -6T356 11T206 9T87 -30L49 42Q79 67 102 89T143 137T171 195T187 273T192 378T186 521H71L42 554Z" />
<glyph unicode="&#xa4;" glyph-name="currency" horiz-adv-x="1036" d="M100 266L239 405Q208 449 193 498T178 599Q178 651 193 701T239 797L101 937L103 981Q121 991 142 1001T184 1021L323 881Q414 946 520 946Q571 946 620 930T713 882L851 1020L895 1021L934
935L797 798Q829 753 845 702T861 599Q861 548 846 499T798 404L936 267L937 222L851 183L714 320Q671 290 622 275T520 260Q467 260 417 275T322 322L182 182L140 185Q130 202 119 223T100 266ZM301 643T301 601T316 520T364 449Q398 415 438 400T520 384T601
399T673 448Q705 480 721 520T737 602T721 684T672 757T601 804T520 820T438 805T366 757T318 684Z" />
<glyph unicode="&#xa5;" glyph-name="yen" horiz-adv-x="1036" d="M-81 1186L-14 1195Q25 1200 63 1204T135 1211T190 1214Q218 1214 246 1202T291 1168Q328 1118 362 1066T431 956T498 834L567 699L760 1065Q775 1091 751 1106T649 1131V1204H1067V1131Q999 1118
966 1104T919 1065L635 526V508H902L927 485L890 388H635V145Q635 139 642 131T668 112T716 92T794 73V0H229V73Q274 82 304 92T352 111T377 129T385 145V388H97L75 412Q77 419 82 432L91 460Q96 474 101 487L109 508H385V529Q350 606 311 682T232 828T153 958T79
1065Q70 1076 61 1085T34 1100T-9 1109T-77 1113L-81 1186Z" />
<glyph unicode="&#xa6;" glyph-name="brokenbar" horiz-adv-x="469" d="M159 -376V482Q174 491 191 499T227 515T264 530L297 541L341 509V-347Q331 -355 313 -363T275 -380T236 -395L204 -406L159 -376ZM159 746V1614Q188 1631 227 1646T297 1670L341 1641V775Q331
767 313 759T275 742T235 726L204 716L159 746Z" />
<glyph unicode="&#xa7;" glyph-name="section" horiz-adv-x="1025" d="M105 779Q105 813 116 847T146 912T191 971T247 1020Q212 1054 190 1092T167 1178Q167 1240 197 1289T278 1371T392 1422T524 1440Q567 1440 610 1435T694 1419T767 1394T824 1361Q830 1356
827 1328T814 1264T792 1194T767 1143L698 1151Q673 1240 626 1287T513 1335Q452 1335 420 1310T387 1240Q387 1207 405 1182T456 1133T536 1086L638 1032Q688 1005 738 974Q788 943 828 900T894 801T920 669Q920 584 888 519T809 409Q832 382 846 350T860 278Q860
207 839 157T783 73T705 18T618 -13T534 -27T464 -30Q432 -30 395 -25T318 -11T241 13T169 46Q164 48 161 63T157 103T155 158T158 221T164 283T176 338L256 327Q267 274 290 231T345 156T416 108T499 91Q571 91 605 115T640 200Q640 240 616 271T554 329T470 380L377
427Q329 452 281 484T193 559T130 656T105 779ZM318 828Q318 784 334 751T383 688T466 628L585 559L630 536Q654 524 677 511Q691 531 699 554T707 604Q707 654 691 692T640 763T554 828T430 899Q414 907 398 916L365 935Q344 912 331 884T318 828Z" />
<glyph unicode="&#xa8;" glyph-name="dieresis" horiz-adv-x="801" d="M51 1213Q51 1250 64 1282T98 1338T148 1375T208 1389Q264 1389 295 1359T326 1268Q326 1231 314 1199T280 1143T231 1105T170 1091Q112 1091 82 1122T51 1213ZM474 1213Q474 1250 487 1282T521
1338T571 1375T630 1389Q686 1389 717 1359T749 1268Q749 1231 737 1199T703 1143T653 1105T592 1091Q534 1091 504 1122T474 1213Z" />
<glyph unicode="&#xa9;" glyph-name="copyright" horiz-adv-x="1496" d="M85 666Q85 810 134 936T272 1156T482 1304T747 1359Q843 1359 929 1335T1090 1265T1223 1156T1324 1016T1388 851T1411 666T1389 481T1324 315T1223 174T1090 65T930 -5T747 -30T565 -5T406
65T273 174T172 315T108 481T85 666ZM204 666Q204 547 244 442T357 259T529 136T747 91Q866 91 966 136T1138 259T1251 442T1292 666Q1292 784 1252 888T1139 1071T966 1194T747 1239Q629 1239 530 1194T358 1071T245 889T204 666ZM361 545T361 639T396 815T493
958T639 1055T824 1091Q857 1091 891 1085T957 1069T1014 1045T1055 1017Q1057 1008 1050 978T1030 913T1005 847T983 805L929 813Q919 847 906 878T873 934T828 973T766 988Q725 988 688 970T622 914T577 815T560 670Q560 601 581 546T637 452T715 393T803 372Q826
372 847 375T893 388T949 416T1023 465Q1024 465 1031 456L1046 438Q1054 429 1060 421T1068 412Q1015 355 970 320T883 266T803 241T725 234Q655 234 590 262T473 342T392 470Z" />
<glyph unicode="&#xaa;" glyph-name="ordfeminine" horiz-adv-x="564" d="M42 840Q42 871 52 900T86 955T145 1001T233 1032L337 1054V1066Q337 1097 336 1120T327 1160T307 1184T269 1192Q254 1192 241 1188T218 1175T205 1153T206 1121Q207 1116 188 1109T143
1095T95 1084T64 1081L53 1107Q66 1141 94 1170T160 1219T240 1250T324 1262Q360 1262 387 1254T432 1226T459 1171T468 1083V887Q468 859 472 847T482 827Q487 824 498 826T538 840L550 800Q504 769 460 748T384 726Q370 726 358 743T340 810Q290 761 244 744T163
726Q143 726 122 732T83 751T54 786T42 840ZM44 586V674H523V586H44ZM179 879Q179 861 184 849T196 831T211 821T227 818Q248 818 273 828T337 871V1002L287 991Q236 978 208 950T179 879Z" />
<glyph unicode="&#xab;" glyph-name="guillemotleft" horiz-adv-x="1054" d="M65 430V465Q65 479 65 490T67 503L464 928L521 883L512 865L490 818L458 750L420 674L383 598L351 531L328 484Q320 467 321 467L522 47L464 2L65 430ZM473 430V465Q473 479 473 490T475
503L871 928L928 883L919 865L897 818L864 750L827 674L790 598L758 531L736 484Q727 467 728 467L929 47L871 2L473 430Z" />
<glyph unicode="&#xac;" glyph-name="logicalnot" horiz-adv-x="1036" d="M75 523Q78 533 83 548T96 578L110 608Q116 623 121 633H915L951 604V233Q941 225 926 216L895 196Q879 187 863 179T835 167L803 200V491H108L75 523Z" />
<glyph unicode="&#xad;" glyph-name="uni00AD" horiz-adv-x="728" d="M53 472Q56 483 61 498T74 530L88 560Q94 575 99 585H642L675 554Q672 543 666 527T653 494L640 463Q633 448 629 440H85L53 472Z" />
<glyph unicode="&#xae;" glyph-name="registered" horiz-adv-x="730" d="M20 1084Q20 1159 46 1224T118 1339T227 1416T364 1445Q439 1445 502 1417T612 1339T685 1225T711 1084Q711 1010 685 944T613 829T503 752T364 723Q290 723 227 751T118 829T46 944T20
1084ZM93 1084Q93 1024 113 972T170 881T255 820T364 797Q424 797 474 819T560 881T616 972T637 1084Q637 1143 617 1195T560 1287T474 1348T364 1371Q305 1371 256 1349T170 1287T114 1196T93 1084ZM205 1278Q234 1285 272 1289T352 1293Q395 1293 426 1286T476
1265T505 1234T514 1196Q514 1103 416 1075L510 939Q517 928 526 925T557 923L560 900Q550 897 537 894T510 887T486 882T469 880Q460 880 453 884T441 895L352 1067H344Q338 1067 332 1067T319 1069V925Q319 921 326 917T356 907V884H207V907Q247 916 247 925V1249Q237
1247 228 1246L209 1244L205 1278ZM319 1110Q324 1109 329 1109H340Q391 1109 411 1129T432 1187Q432 1216 410 1236T341 1256H330Q324 1256 319 1255V1110Z" />
<glyph unicode="&#xaf;" glyph-name="overscore" horiz-adv-x="1010" d="M79 1207Q82 1218 89 1236T105 1274L122 1310Q130 1328 135 1338H899L931 1307Q928 1296 921 1278T904 1239L887 1202L875 1175H111L79 1207Z" />
<glyph unicode="&#xb0;" glyph-name="degree" horiz-adv-x="733" d="M115 943Q115 1012 141 1070T209 1171T303 1238T409 1262Q452 1262 490 1245T557 1199T602 1132T619 1050Q619 982 593 924T524 823T429 756T325 732Q279 732 241 749T174 794T131 861T115 943ZM267
998Q267 974 273 952T291 912T319 884T357 873T397 881T432 904T457 943T467 995Q467 1020 461 1042T443 1082T415 1110T377 1120T336 1112T301 1087T276 1049T267 998Z" />
<glyph unicode="&#xb1;" glyph-name="plusminus" horiz-adv-x="840" d="M53 143Q56 153 61 168T74 200L88 230Q94 245 99 255H777L810 224Q807 213 801 197T788 164L774 134Q768 119 764 111H85L53 143ZM53 652Q56 663 61 678T74 709L88 740Q94 754 99 764H361V1032L385
1040L416 1050L448 1061Q463 1066 474 1069L506 1038V764H777L810 733Q807 722 801 706L788 674L774 644Q768 629 764 621H506V355Q496 350 482 344T451 333T420 323T393 316L361 346V621H85L53 652Z" />
<glyph unicode="&#xb2;" glyph-name="uni00B2" horiz-adv-x="711" d="M56 664L255 871Q331 954 373 1010T430 1104T445 1174Q445 1225 425 1253T353 1282Q303 1282 283 1249T272 1171Q260 1165 238 1159T190 1148L139 1138Q114 1134 98 1133L74 1174Q74 1205 100
1238T171 1298T275 1343T401 1361Q456 1361 500 1352T575 1323T624 1275T641 1209Q641 1182 634 1156T611 1101T568 1038T498 960L400 861L269 735H521Q544 735 558 753T580 793Q589 819 592 852L651 840L641 620H76L56 664Z" />
<glyph unicode="&#xb3;" glyph-name="uni00B3" horiz-adv-x="711" d="M51 703L79 777Q143 736 195 718T301 699Q364 699 403 735T443 837Q443 877 431 903T399 945T355 966T308 972H292Q286 972 280 972T268 970T250 968L238 1032Q297 1045 330 1064T380 1103T399
1145T403 1184Q403 1225 385 1253T324 1282Q306 1282 291 1275T265 1256T252 1226T255 1188Q240 1180 221 1174T180 1161T136 1151T95 1146L71 1183Q71 1208 92 1239T153 1297T245 1342T364 1361Q428 1361 473 1347T547 1309T589 1255T602 1195Q602 1172 593 1149T565
1104T521 1065T461 1039Q504 1035 538 1019T595 977T630 918T643 849Q643 798 620 754T554 675T453 622T323 602Q295 602 261 608T190 626T118 658T51 703Z" />
<glyph unicode="&#xb4;" glyph-name="acute" horiz-adv-x="653" d="M202 1083L414 1512Q426 1511 458 1506L528 1495Q565 1489 597 1483T641 1474L672 1420L289 1040Q280 1041 268 1046T242 1058T219 1071T202 1083Z" />
<glyph unicode="&#xb5;" glyph-name="uni00B5" horiz-adv-x="1165" d="M46 824V894Q136 902 211 917T362 960L368 954L382 940L396 924Q404 915 408 910V381Q408 337 423 298T461 231T511 186T561 169Q580 169 600 173T643 192T694 234T758 306V748Q758 764 755
786T746 831T734 872T720 900L780 912Q814 918 848 926L916 942Q950 951 978 960L1014 914Q1012 901 1010 887T1005 855T1001 814T998 759V298Q998 251 1000 222T1007 175T1019 151T1037 144Q1059 144 1080 150T1135 172L1160 97Q1131 76 1093 53T1015 12T940 -19T878
-31Q852 -31 832 -16T797 24T773 85T760 159Q685 58 623 14T498 -31Q454 -31 400 6T296 106V86Q296 -6 311 -81T350 -216T404 -322T464 -399Q449 -404 413 -418L336 -448L261 -480Q226 -494 214 -500L168 -464V694Q168 733 167 756T154 792T118 812T46 824Z" />
<glyph unicode="&#xb6;" glyph-name="paragraph" horiz-adv-x="1241" d="M35 903Q35 988 70 1059T171 1181T330 1261T539 1290Q561 1290 596 1288L676 1285Q720 1283 768 1281T865 1275L1104 1260H1168V1187Q1100 1173 1065 1156T1030 1125V-115Q1030 -128 1062
-145T1168 -177V-250H482V-177Q551 -163 586 -146T621 -115L622 525Q604 522 583 521T535 519Q428 519 337 544T178 617T73 737T35 903ZM298 938Q298 884 314 830T364 732T451 661T578 633H622L623 1174Q603 1175 586 1175T557 1176Q509 1176 463 1160T380 1113T321
1038T298 938ZM787 -115Q787 -126 801 -134T826 -146Q838 -143 852 -135T867 -115V1143Q829 1152 787 1158V-115Z" />
<glyph unicode="&#xb7;" glyph-name="middot" horiz-adv-x="419" d="M51 674Q51 712 65 742T104 794T161 827T229 839Q256 839 281 832T325 808T357 767T369 708Q369 669 355 639T317 587T261 555T192 544Q163 544 138 551T93 574T63 614T51 674Z" />
<glyph unicode="&#xb8;" glyph-name="cedilla" horiz-adv-x="469" d="M56 -373Q143 -360 180 -331T218 -269Q218 -235 195 -221T127 -202L130 -198Q134 -194 142 -173T166 -109T207 14L330 12L291 -89Q369 -103 411 -137T454 -229Q454 -266 427 -301T352 -365T238
-415T93 -444L56 -373Z" />
<glyph unicode="&#xb9;" glyph-name="uni00B9" horiz-adv-x="711" d="M87 1265Q117 1271 167 1284L270 1312Q324 1327 371 1342T444 1367L476 1342V734Q476 728 482 721T505 707T555 693T641 680V620H109V680Q164 686 198 692T253 706T280 720T288 734V1156Q288
1180 286 1193T275 1215Q271 1219 262 1221T233 1223T184 1219T107 1206L87 1265Z" />
<glyph unicode="&#xba;" glyph-name="ordmasculine" horiz-adv-x="575" d="M35 982Q35 1034 54 1084T108 1174T191 1238T299 1263Q353 1263 397 1243T473 1188T522 1105T540 1003Q540 952 519 902T461 813T376 750T276 726Q220 726 176 745T100 799T52 880T35
982ZM45 586V674H530V586H45ZM171 1047T171 1005T181 924T208 856T247 810T295 792Q355 792 379 843T404 979Q404 1021 396 1060T372 1129T333 1178T280 1196T230 1182T196 1143T177 1083Z" />
<glyph unicode="&#xbb;" glyph-name="guillemotright" horiz-adv-x="1054" d="M125 883L183 928L581 501L580 428L183 2L126 47L326 464L125 883ZM533 47L734 464L533 883L591 928L989 501L988 428L591 2L533 47Z" />
<glyph unicode="&#xbc;" glyph-name="onequarter" horiz-adv-x="1275" d="M71 1153Q95 1157 134 1167T216 1190L296 1215Q334 1227 355 1235L380 1214V722Q380 717 386 712T407 700T450 689T520 679V637H88V679Q133 683 162 688T208 699T232 711T239 722V1072Q239
1091 238 1101T229 1119Q226 1122 218 1124T193 1126T150 1122T87 1112L71 1153ZM153 0L1043 1203Q1053 1207 1069 1211T1104 1220L1140 1229Q1158 1233 1169 1235L1194 1207L309 3Q297 -3 281 -7T246 -16T209 -23T178 -30L153 0ZM704 179L978 560L1008 569L1043
579L1078 589Q1094 594 1106 598L1131 577V230H1203L1218 215Q1206 199 1190 184T1161 160H1131V66Q1131 59 1146 53T1208 37V0H879V37Q916 42 939 46T975 55T992 63T997 71V160H728L704 179ZM817 230H997V469L817 230Z" />
<glyph unicode="&#xbd;" glyph-name="onehalf" horiz-adv-x="1275" d="M71 1153Q95 1157 134 1167T216 1190L296 1215Q334 1227 355 1235L380 1214V722Q380 717 386 712T407 700T450 689T520 679V637H88V679Q133 683 162 688T208 699T232 711T239 722V1072Q239
1091 238 1101T229 1119Q226 1122 218 1124T193 1126T150 1122T87 1112L71 1153ZM153 0L1043 1203Q1053 1207 1069 1211T1104 1220L1140 1229Q1158 1233 1169 1235L1194 1207L309 3Q297 -3 281 -7T246 -16T209 -23T178 -30L153 0ZM724 36L888 201Q951 267 987 312T1038
388T1052 444Q1052 485 1033 510T966 535Q943 535 927 527T901 506T888 476T888 441Q878 436 862 432T827 423T790 415T759 411L740 443Q740 468 761 494T818 543T902 579T1004 593Q1094 593 1146 563T1198 471Q1198 439 1182 407T1129 331T1031 230L879 86H1101Q1121
86 1132 100T1150 133Q1157 153 1160 180L1207 170L1198 0H741L724 36Z" />
<glyph unicode="&#xbe;" glyph-name="threequarters" horiz-adv-x="1275" d="M53 705L77 751Q129 719 172 706T257 693Q283 693 306 699T346 720T374 756T384 809Q384 842 372 864T342 900T302 920T262 926H249Q244 926 240 926T230 924T215 922L206 967Q254 978
283 993T327 1024T347 1057T352 1089Q352 1122 335 1147T275 1173Q261 1173 249 1168T228 1152T217 1128T219 1098Q196 1087 159 1077T89 1065L70 1095Q70 1115 87 1138T136 1182T211 1217T308 1231Q360 1231 396 1220T456 1189T490 1146T501 1098Q501 1080 493
1061T468 1025T430 994T381 973Q416 970 444 957T492 924T523 877T534 821Q534 780 515 745T462 682T380 640T275 624Q252 624 224 629T167 644T108 669T53 705ZM153 0L1043 1203Q1053 1207 1069 1211T1104 1220L1140 1229Q1158 1233 1169 1235L1194 1207L309 3Q297
-3 281 -7T246 -16T209 -23T178 -30L153 0ZM704 179L978 560L1008 569L1043 579L1078 589Q1094 594 1106 598L1131 577V230H1203L1218 215Q1206 199 1190 184T1161 160H1131V66Q1131 59 1146 53T1208 37V0H879V37Q916 42 939 46T975 55T992 63T997 71V160H728L704
179ZM817 230H997V469L817 230Z" />
<glyph unicode="&#xbf;" glyph-name="questiondown" horiz-adv-x="932" d="M65 -245Q65 -170 90 -109T155 6T239 108T325 204T393 302T426 412L432 508Q450 522 476 531T530 549L562 521L570 412Q573 355 557 301T514 194T455 92T395 -8T348 -105T329 -200Q329
-324 369 -383T478 -442Q503 -442 526 -429T567 -393T595 -338T606 -266Q606 -252 602 -234T593 -201Q609 -192 640 -183T706 -164T775 -149T831 -140L865 -178Q867 -186 867 -202V-226Q867 -297 830 -358T729 -464T583 -534T408 -560Q325 -560 261 -537T154 -473T88
-373T65 -245ZM324 790Q324 830 338 861T378 915T436 948T507 960Q536 960 562 953T609 929T640 887T652 826Q652 787 637 755T597 701T538 666T468 654Q440 654 414 662T368 686T336 728T324 790Z" />
<glyph unicode="&#xc0;" glyph-name="Agrave" horiz-adv-x="1287" d="M0 0V73Q68 85 104 98T151 141L500 1207Q524 1227 551 1244T608 1274T667 1298T722 1317L1142 141Q1147 127 1155 116T1177 97T1212 83T1266 73V0H769V73Q847 78 874 93T891 141L789 430H392L296
141Q286 110 320 96T437 73V0H0ZM286 1594L296 1657Q303 1665 325 1681T374 1714L425 1746Q449 1761 460 1767L825 1420Q811 1401 797 1385T765 1360L286 1594ZM432 550H747L582 1015L432 550Z" />
<glyph unicode="&#xc1;" glyph-name="Aacute" horiz-adv-x="1287" d="M0 0V73Q68 85 104 98T151 141L500 1207Q524 1227 551 1244T608 1274T667 1298T722 1317L1142 141Q1147 127 1155 116T1177 97T1212 83T1266 73V0H769V73Q847 78 874 93T891 141L789 430H392L296
141Q286 110 320 96T437 73V0H0ZM432 550H747L582 1015L432 550ZM433 1427L798 1767Q821 1755 849 1738L902 1706Q928 1691 948 1677T976 1655L985 1603L501 1360Q484 1368 466 1388T433 1427Z" />
<glyph unicode="&#xc2;" glyph-name="Acircumflex" horiz-adv-x="1287" d="M0 0V73Q68 85 104 98T151 141L500 1207Q524 1227 551 1244T608 1274T667 1298T722 1317L1142 141Q1147 127 1155 116T1177 97T1212 83T1266 73V0H769V73Q847 78 874 93T891 141L789 430H392L296
141Q286 110 320 96T437 73V0H0ZM293 1420L572 1744H694L971 1420Q959 1401 945 1385T913 1360L632 1523L353 1360Q336 1368 322 1384T293 1420ZM432 550H747L582 1015L432 550Z" />
<glyph unicode="&#xc3;" glyph-name="Atilde" horiz-adv-x="1287" d="M0 0V73Q68 85 104 98T151 141L500 1207Q524 1227 551 1244T608 1274T667 1298T722 1317L1142 141Q1147 127 1155 116T1177 97T1212 83T1266 73V0H769V73Q847 78 874 93T891 141L789 430H392L296
141Q286 110 320 96T437 73V0H0ZM240 1396Q258 1437 283 1486T342 1577T415 1648T501 1677T588 1661T668 1624L739 1588Q773 1572 805 1572Q850 1572 883 1600T950 1687L1027 1657Q1009 1616 983 1568T924 1477T851 1407T764 1378Q721 1378 682 1394T606 1430T533
1466T458 1483Q435 1483 417 1476T383 1454T350 1418T315 1368L240 1396ZM432 550H747L582 1015L432 550Z" />
<glyph unicode="&#xc4;" glyph-name="Adieresis" horiz-adv-x="1287" d="M0 0V73Q68 85 104 98T151 141L500 1207Q524 1227 551 1244T608 1274T667 1298T722 1317L1142 141Q1147 127 1155 116T1177 97T1212 83T1266 73V0H769V73Q847 78 874 93T891 141L789 430H392L296
141Q286 110 320 96T437 73V0H0ZM284 1493Q284 1530 297 1562T331 1618T381 1655T440 1669Q497 1669 528 1639T559 1548Q559 1511 547 1479T513 1423T464 1385T403 1371Q345 1371 315 1402T284 1493ZM432 550H747L582 1015L432 550ZM707 1493Q707 1530 720 1562T754
1618T804 1655T863 1669Q919 1669 950 1639T982 1548Q982 1511 970 1479T936 1423T886 1385T825 1371Q767 1371 737 1402T707 1493Z" />
<glyph unicode="&#xc5;" glyph-name="Aring" horiz-adv-x="1287" d="M0 0V73Q68 85 104 98T151 141L500 1207Q524 1227 551 1244T608 1274T667 1298T722 1317L1142 141Q1147 127 1155 116T1177 97T1212 83T1266 73V0H769V73Q847 78 874 93T891 141L789 430H392L296
141Q286 110 320 96T437 73V0H0ZM424 1524Q424 1578 444 1625T497 1707T573 1763T664 1783Q704 1783 737 1770T793 1733T828 1676T841 1604Q841 1551 821 1504T768 1423T691 1368T602 1348Q563 1348 530 1360T474 1396T437 1451T424 1524ZM432 550H747L582 1015L432
550ZM559 1565Q559 1519 579 1494T623 1469Q663 1469 684 1496T706 1563Q706 1611 686 1636T643 1662Q622 1662 607 1654T581 1632T565 1601T559 1565Z" />
<glyph unicode="&#xc6;" glyph-name="AE" horiz-adv-x="1655" d="M0 0V73Q62 82 97 97T145 141L534 1103Q541 1120 537 1131T514 1152T463 1170T381 1187V1260H1506L1543 1228Q1541 1202 1538 1163T1529 1083T1516 1006T1502 950H1427Q1422 1043 1403 1091T1345
1140H1009V735H1407L1441 700L1420 667Q1409 648 1396 629L1371 594Q1359 578 1349 569Q1334 584 1314 594T1275 611T1242 621T1225 624H1009V184Q1009 169 1016 158T1046 138T1109 125T1216 120H1311Q1357 120 1390 131T1448 166T1494 231T1536 330L1609 304L1598
214Q1593 166 1588 124T1577 48T1568 0H624V73Q692 87 725 103T759 134V624H504L308 141Q295 112 318 97T416 73V0H0ZM547 735H759V1118Q759 1129 752 1134T735 1138T714 1127T696 1101L547 735Z" />
<glyph unicode="&#xc7;" glyph-name="Ccedilla" horiz-adv-x="1143" d="M55 586Q55 746 104 876T239 1098T441 1241Q555 1290 691 1290Q745 1290 798 1282T899 1261T986 1229T1052 1190Q1056 1187 1052 1172T1038 1136T1017 1091T991 1044T967 1003T947 977L882
991Q831 1079 766 1118T622 1158Q588 1158 552 1147T480 1111T414 1046T359 946T322 807T308 623Q308 495 341 403T428 252T548 164T681 135Q708 135 744 141T824 163T917 207T1019 279Q1024 275 1032 265T1048 244L1062 224Q1068 214 1071 211Q1007 146 945 100T822
25T702 -17Q684 -21 666 -23L641 -89Q719 -103 761 -137T804 -229Q804 -266 777 -301T702 -365T588 -415T443 -444L406 -373Q493 -360 530 -331T568 -269Q568 -235 545 -221T478 -202L481 -198Q484 -194 492 -173T516 -108L543 -28Q465 -21 389 12Q294 54 220 133T100
326T55 586Z" />
<glyph unicode="&#xc8;" glyph-name="Egrave" horiz-adv-x="1076" d="M43 0V73Q111 87 145 103T180 134V1125Q180 1137 148 1155T43 1187V1260H924L964 1228Q962 1202 958 1163T948 1083T936 1006T923 950H848Q843 1043 823 1091T766 1140H430V735H828L861 700L842
668Q830 649 818 631T793 598T769 574Q754 589 737 599T697 616T644 626T571 629H430V184Q430 169 437 158T466 138T528 125T634 120H733Q779 120 811 131T869 166T914 231T956 330L1029 304Q1025 261 1020 214T1009 124T998 48T988 0H43ZM189 1594L199 1657Q206
1665 228 1681T278 1714L328 1746Q352 1761 363 1767L728 1420Q714 1401 700 1385T668 1360L189 1594Z" />
<glyph unicode="&#xc9;" glyph-name="Eacute" horiz-adv-x="1076" d="M43 0V73Q111 87 145 103T180 134V1125Q180 1137 148 1155T43 1187V1260H924L964 1228Q962 1202 958 1163T948 1083T936 1006T923 950H848Q843 1043 823 1091T766 1140H430V735H828L861 700L842
668Q830 649 818 631T793 598T769 574Q754 589 737 599T697 616T644 626T571 629H430V184Q430 169 437 158T466 138T528 125T634 120H733Q779 120 811 131T869 166T914 231T956 330L1029 304Q1025 261 1020 214T1009 124T998 48T988 0H43ZM336 1427L701 1767Q724
1755 752 1738L806 1706Q831 1691 851 1677T879 1655L888 1603L404 1360Q387 1368 369 1388T336 1427Z" />
<glyph unicode="&#xca;" glyph-name="Ecircumflex" horiz-adv-x="1076" d="M43 0V73Q111 87 145 103T180 134V1125Q180 1137 148 1155T43 1187V1260H924L964 1228Q962 1202 958 1163T948 1083T936 1006T923 950H848Q843 1043 823 1091T766 1140H430V735H828L861
700L842 668Q830 649 818 631T793 598T769 574Q754 589 737 599T697 616T644 626T571 629H430V184Q430 169 437 158T466 138T528 125T634 120H733Q779 120 811 131T869 166T914 231T956 330L1029 304Q1025 261 1020 214T1009 124T998 48T988 0H43ZM196 1420L475
1744H597L874 1420Q862 1401 848 1385T816 1360L535 1523L256 1360Q239 1368 225 1384T196 1420Z" />
<glyph unicode="&#xcb;" glyph-name="Edieresis" horiz-adv-x="1076" d="M43 0V73Q111 87 145 103T180 134V1125Q180 1137 148 1155T43 1187V1260H924L964 1228Q962 1202 958 1163T948 1083T936 1006T923 950H848Q843 1043 823 1091T766 1140H430V735H828L861
700L842 668Q830 649 818 631T793 598T769 574Q754 589 737 599T697 616T644 626T571 629H430V184Q430 169 437 158T466 138T528 125T634 120H733Q779 120 811 131T869 166T914 231T956 330L1029 304Q1025 261 1020 214T1009 124T998 48T988 0H43ZM187 1493Q187
1530 200 1562T234 1618T284 1655T343 1669Q400 1669 431 1639T462 1548Q462 1511 450 1479T416 1423T367 1385T306 1371Q248 1371 218 1402T187 1493ZM610 1493Q610 1530 623 1562T657 1618T707 1655T766 1669Q822 1669 853 1639T885 1548Q885 1511 873 1479T839
1423T789 1385T728 1371Q670 1371 640 1402T610 1493Z" />
<glyph unicode="&#xcc;" glyph-name="Igrave" horiz-adv-x="670" d="M-22 1594L-12 1657Q-5 1665 17 1681T66 1714L117 1746Q141 1761 152 1767L517 1420Q503 1401 489 1385T457 1360L-22 1594ZM63 0V73Q131 87 165 103T200 134V1125Q200 1137 168 1155T63 1187V1260H588V1187Q520
1173 485 1156T450 1125V134Q450 122 483 105T588 73V0H63Z" />
<glyph unicode="&#xcd;" glyph-name="Iacute" horiz-adv-x="670" d="M63 0V73Q131 87 165 103T200 134V1125Q200 1137 168 1155T63 1187V1260H588V1187Q520 1173 485 1156T450 1125V134Q450 122 483 105T588 73V0H63ZM125 1427L490 1767Q513 1755 541 1738L594
1706Q620 1691 640 1677T668 1655L677 1603L193 1360Q176 1368 158 1388T125 1427Z" />
<glyph unicode="&#xce;" glyph-name="Icircumflex" horiz-adv-x="670" d="M-15 1420L264 1744H386L663 1420Q651 1401 637 1385T605 1360L324 1523L45 1360Q28 1368 14 1384T-15 1420ZM63 0V73Q131 87 165 103T200 134V1125Q200 1137 168 1155T63 1187V1260H588V1187Q520
1173 485 1156T450 1125V134Q450 122 483 105T588 73V0H63Z" />
<glyph unicode="&#xcf;" glyph-name="Idieresis" horiz-adv-x="670" d="M-24 1493Q-24 1530 -11 1562T23 1618T73 1655T132 1669Q189 1669 220 1639T251 1548Q251 1511 239 1479T205 1423T156 1385T95 1371Q37 1371 7 1402T-24 1493ZM63 0V73Q131 87 165 103T200
134V1125Q200 1137 168 1155T63 1187V1260H588V1187Q520 1173 485 1156T450 1125V134Q450 122 483 105T588 73V0H63ZM399 1493Q399 1530 412 1562T446 1618T496 1655T555 1669Q611 1669 642 1639T674 1548Q674 1511 662 1479T628 1423T578 1385T517 1371Q459 1371
429 1402T399 1493Z" />
<glyph unicode="&#xd0;" glyph-name="Eth" horiz-adv-x="1304" d="M28 639Q30 646 34 659L44 686L54 714L61 735H180V1157L43 1138L30 1230Q79 1242 146 1253T288 1272T438 1285T578 1290Q731 1290 851 1249T1053 1128T1178 935T1221 676Q1221 551 1196 453T1126
279T1023 151T897 65T759 16T619 0H43V73Q111 87 145 103T180 134V615H50L28 639ZM430 167Q430 160 432 153Q435 142 443 134T468 119T512 110T582 107Q620 107 662 120T746 161T825 231T891 333T936 467T953 637Q953 770 924 872T839 1043T699 1148T506 1184Q488
1184 469 1184T430 1182V735H671L696 712L660 615H430V167Z" />
<glyph unicode="&#xd1;" glyph-name="Ntilde" horiz-adv-x="1359" d="M43 0V73Q116 82 148 101T180 134V1114Q115 1175 43 1187V1260H322Q337 1260 346 1258T366 1247T388 1224L418 1182L1030 334V1125Q1030 1131 1024 1139T1002 1156T960 1173T893 1187V1260H1318V1187Q1246
1177 1213 1158T1180 1125V-30Q1084 -22 1026 7T941 74L330 920V134Q330 128 337 120T360 103T403 86T468 73V0H43ZM287 1396Q305 1437 330 1486T389 1577T462 1648T548 1677T635 1661T714 1624L786 1588Q820 1572 852 1572Q897 1572 930 1600T997 1687L1074 1657Q1056
1616 1030 1568T971 1477T898 1407T811 1378Q768 1378 729 1394T653 1430T580 1466T505 1483Q482 1483 464 1476T430 1454T397 1418T362 1368L287 1396Z" />
<glyph unicode="&#xd2;" glyph-name="Ograve" horiz-adv-x="1274" d="M55 612Q55 748 99 871T223 1087T413 1235T656 1290T889 1236T1059 1091T1163 885T1198 647Q1198 556 1176 471T1115 311T1020 173T898 65T755 -5T598 -30Q472 -30 371 23T200 165T93 370T55
612ZM291 1594L301 1657Q308 1665 330 1681T380 1714L430 1746Q454 1761 465 1767L830 1420Q816 1401 802 1385T770 1360L291 1594ZM308 641Q308 529 334 431T406 261T512 147T642 105Q708 105 763 137T859 234T923 398T946 629Q946 732 922 828T852 998T744 1116T604
1160Q532 1160 477 1125T384 1023T327 860T308 641Z" />
<glyph unicode="&#xd3;" glyph-name="Oacute" horiz-adv-x="1274" d="M55 612Q55 748 99 871T223 1087T413 1235T656 1290T889 1236T1059 1091T1163 885T1198 647Q1198 556 1176 471T1115 311T1020 173T898 65T755 -5T598 -30Q472 -30 371 23T200 165T93 370T55
612ZM308 641Q308 529 334 431T406 261T512 147T642 105Q708 105 763 137T859 234T923 398T946 629Q946 732 922 828T852 998T744 1116T604 1160Q532 1160 477 1125T384 1023T327 860T308 641ZM438 1427L803 1767Q826 1755 854 1738L908 1706Q933 1691 953 1677T981
1655L990 1603L506 1360Q489 1368 471 1388T438 1427Z" />
<glyph unicode="&#xd4;" glyph-name="Ocircumflex" horiz-adv-x="1274" d="M55 612Q55 748 99 871T223 1087T413 1235T656 1290T889 1236T1059 1091T1163 885T1198 647Q1198 556 1176 471T1115 311T1020 173T898 65T755 -5T598 -30Q472 -30 371 23T200 165T93
370T55 612ZM298 1420L577 1744H699L976 1420Q964 1401 950 1385T918 1360L637 1523L358 1360Q341 1368 327 1384T298 1420ZM308 641Q308 529 334 431T406 261T512 147T642 105Q708 105 763 137T859 234T923 398T946 629Q946 732 922 828T852 998T744 1116T604
1160Q532 1160 477 1125T384 1023T327 860T308 641Z" />
<glyph unicode="&#xd5;" glyph-name="Otilde" horiz-adv-x="1274" d="M55 612Q55 748 99 871T223 1087T413 1235T656 1290T889 1236T1059 1091T1163 885T1198 647Q1198 556 1176 471T1115 311T1020 173T898 65T755 -5T598 -30Q472 -30 371 23T200 165T93 370T55
612ZM245 1396Q263 1437 288 1486T347 1577T420 1648T506 1677T593 1661T672 1624L744 1588Q778 1572 810 1572Q855 1572 888 1600T955 1687L1032 1657Q1014 1616 988 1568T929 1477T856 1407T769 1378Q726 1378 687 1394T611 1430T538 1466T463 1483Q440 1483
422 1476T388 1454T355 1418T320 1368L245 1396ZM308 641Q308 529 334 431T406 261T512 147T642 105Q708 105 763 137T859 234T923 398T946 629Q946 732 922 828T852 998T744 1116T604 1160Q532 1160 477 1125T384 1023T327 860T308 641Z" />
<glyph unicode="&#xd6;" glyph-name="Odieresis" horiz-adv-x="1274" d="M55 612Q55 748 99 871T223 1087T413 1235T656 1290T889 1236T1059 1091T1163 885T1198 647Q1198 556 1176 471T1115 311T1020 173T898 65T755 -5T598 -30Q472 -30 371 23T200 165T93 370T55
612ZM289 1493Q289 1530 302 1562T336 1618T386 1655T445 1669Q502 1669 533 1639T564 1548Q564 1511 552 1479T518 1423T469 1385T408 1371Q350 1371 320 1402T289 1493ZM308 641Q308 529 334 431T406 261T512 147T642 105Q708 105 763 137T859 234T923 398T946
629Q946 732 922 828T852 998T744 1116T604 1160Q532 1160 477 1125T384 1023T327 860T308 641ZM712 1493Q712 1530 725 1562T759 1618T809 1655T868 1669Q924 1669 955 1639T987 1548Q987 1511 975 1479T941 1423T891 1385T830 1371Q772 1371 742 1402T712 1493Z"
/>
<glyph unicode="&#xd7;" glyph-name="multiply" horiz-adv-x="863" d="M83 281V315L330 563L84 810V844Q94 848 110 855L144 869Q161 876 177 881T205 890L431 664L656 890Q667 887 684 882T719 869T753 855T779 844V810L532 562L779 315V281L752 270L717 256L683
243Q667 237 658 235L431 462L205 235Q196 237 180 243L145 256L110 270L83 281Z" />
<glyph unicode="&#xd8;" glyph-name="Oslash" horiz-adv-x="1274" d="M55 612Q55 748 99 871T223 1087T413 1235T656 1290Q743 1290 815 1266T948 1199L996 1264Q1010 1272 1031 1280T1075 1295T1120 1306T1157 1313L1189 1276L1056 1094Q1126 1003 1162 887T1198
647Q1198 556 1176 471T1115 311T1020 173T898 65T755 -5T598 -30Q513 -30 440 -6T306 63L259 -2Q250 -10 228 -18T181 -33T132 -46T96 -53L64 -16L198 168Q129 257 92 371T55 612ZM308 641Q308 569 319 503T351 378L828 1033Q784 1092 728 1126T604 1160Q532 1160
477 1125T384 1023T327 860T308 641ZM427 230Q471 171 525 138T642 105Q708 105 763 137T859 234T923 398T946 629Q946 697 935 761T904 885L427 230Z" />
<glyph unicode="&#xd9;" glyph-name="Ugrave" horiz-adv-x="1369" d="M43 1187V1260H568V1187Q500 1173 465 1156T430 1125V509Q430 413 447 340T501 216T597 141T743 115Q814 115 863 147T942 232T986 354T1000 498V1125Q1000 1137 968 1155T863 1187V1260H1313V1187Q1245
1173 1210 1156T1175 1125V524Q1175 393 1139 290T1036 116T880 8T681 -30Q578 -30 487 -2T328 85T220 233T180 444V1125Q180 1137 148 1155T43 1187ZM345 1594L355 1657Q362 1665 384 1681T434 1714L484 1746Q508 1761 519 1767L884 1420Q870 1401 856 1385T824
1360L345 1594Z" />
<glyph unicode="&#xda;" glyph-name="Uacute" horiz-adv-x="1369" d="M43 1187V1260H568V1187Q500 1173 465 1156T430 1125V509Q430 413 447 340T501 216T597 141T743 115Q814 115 863 147T942 232T986 354T1000 498V1125Q1000 1137 968 1155T863 1187V1260H1313V1187Q1245
1173 1210 1156T1175 1125V524Q1175 393 1139 290T1036 116T880 8T681 -30Q578 -30 487 -2T328 85T220 233T180 444V1125Q180 1137 148 1155T43 1187ZM492 1427L857 1767Q880 1755 908 1738L962 1706Q987 1691 1007 1677T1035 1655L1044 1603L560 1360Q543 1368
525 1388T492 1427Z" />
<glyph unicode="&#xdb;" glyph-name="Ucircumflex" horiz-adv-x="1369" d="M43 1187V1260H568V1187Q500 1173 465 1156T430 1125V509Q430 413 447 340T501 216T597 141T743 115Q814 115 863 147T942 232T986 354T1000 498V1125Q1000 1137 968 1155T863 1187V1260H1313V1187Q1245
1173 1210 1156T1175 1125V524Q1175 393 1139 290T1036 116T880 8T681 -30Q578 -30 487 -2T328 85T220 233T180 444V1125Q180 1137 148 1155T43 1187ZM352 1420L631 1744H753L1030 1420Q1018 1401 1004 1385T972 1360L691 1523L412 1360Q395 1368 381 1384T352
1420Z" />
<glyph unicode="&#xdc;" glyph-name="Udieresis" horiz-adv-x="1369" d="M43 1187V1260H568V1187Q500 1173 465 1156T430 1125V509Q430 413 447 340T501 216T597 141T743 115Q814 115 863 147T942 232T986 354T1000 498V1125Q1000 1137 968 1155T863 1187V1260H1313V1187Q1245
1173 1210 1156T1175 1125V524Q1175 393 1139 290T1036 116T880 8T681 -30Q578 -30 487 -2T328 85T220 233T180 444V1125Q180 1137 148 1155T43 1187ZM343 1493Q343 1530 356 1562T390 1618T440 1655T499 1669Q556 1669 587 1639T618 1548Q618 1511 606 1479T572
1423T523 1385T462 1371Q404 1371 374 1402T343 1493ZM766 1493Q766 1530 779 1562T813 1618T863 1655T922 1669Q978 1669 1009 1639T1041 1548Q1041 1511 1029 1479T995 1423T945 1385T884 1371Q826 1371 796 1402T766 1493Z" />
<glyph unicode="&#xdd;" glyph-name="Yacute" horiz-adv-x="1255" d="M0 1242L66 1251Q104 1256 141 1260T210 1267T264 1270Q292 1270 320 1258T365 1224Q402 1174 442 1110L524 974L606 826L680 679L914 1121Q929 1147 905 1162T803 1187V1260H1221V1187Q1153
1174 1120 1160T1073 1121L752 523V145Q752 139 759 131T784 112T832 92T910 73V0H345V73Q390 82 420 92T469 111T494 129T502 145V529Q466 609 421 694L330 858Q284 938 240 1006T161 1121Q152 1132 142 1141T115 1156T72 1165T4 1169L0 1242ZM427 1427L792 1767Q815
1755 843 1738L896 1706Q922 1691 942 1677T970 1655L979 1603L495 1360Q478 1368 460 1388T427 1427Z" />
<glyph unicode="&#xde;" glyph-name="Thorn" horiz-adv-x="1161" d="M42 0V73Q110 87 145 103T180 134V1125Q180 1137 147 1155T42 1187V1260H598V1187Q547 1178 514 1170T463 1155T437 1140T430 1125V1023Q465 1025 500 1026T570 1028Q686 1028 781 1005T945
937T1050 826T1087 674Q1087 605 1068 547T1017 443T942 362T852 304T756 270T663 258Q617 258 573 265T495 288L464 392Q505 373 536 368T603 363Q646 363 688 378T762 427T815 511T835 633T812 757T746 847T644 901T513 920Q473 920 430 917V134Q430 128 436
121T461 106T513 90T598 73V0H42Z" />
<glyph unicode="&#xdf;" glyph-name="germandbls" horiz-adv-x="1288" d="M48 0V73Q116 85 148 102T180 132V946Q180 1066 203 1151T262 1295T341 1393T423 1458Q481 1497 559 1523T721 1550Q816 1550 891 1518T1018 1434T1097 1318T1125 1190Q1125 1108 1100
1056T1036 971T953 917L870 877Q832 858 807 834T781 770Q781 724 814 692T899 633T1008 577T1118 510T1202 417T1236 283Q1236 219 1212 162T1138 63T1015 -5T842 -30Q801 -30 754 -22T666 -3T595 21T558 44Q553 50 551 72T547 125T547 189T550 253T557 306T566
336L646 324Q657 266 679 223T732 151T799 108T873 93Q939 93 977 122T1016 210Q1016 257 997 292T945 356T871 407L787 453Q744 476 703 501T630 558T578 631T558 729Q558 791 582 831T642 898T720 946T799 990T859 1043T883 1122Q883 1184 865 1235T814 1324T732
1382T625 1403Q582 1403 545 1387T480 1326T436 1203T420 1001V0H48Z" />
<glyph unicode="&#xe0;" glyph-name="agrave" horiz-adv-x="1023" d="M65 201Q65 269 89 316T151 401Q175 425 206 447T290 491T422 531T623 569V687Q623 718 617 744T596 790T556 819T493 830Q469 830 445 821T403 796T375 756T367 702Q368 696 351 687T308 669T251
650T190 634T138 624T107 622L86 676Q110 736 161 787T282 877T432 938T597 960Q666 960 716 942T798 892T847 815T863 720V238Q863 196 874 178T903 160Q910 160 917 161T935 165T960 174L994 187L1016 112Q974 83 929 57T843 12T769 -19T717 -30Q680 -30 655
12T624 129Q579 84 534 54T446 5T364 -22T293 -30Q251 -30 211 -16T138 27T85 99T65 201ZM208 1417L237 1473Q247 1476 278 1482L345 1494Q381 1501 413 1506T458 1512L676 1086Q670 1080 659 1073T636 1060T611 1048T590 1040L208 1417ZM319 259Q319 225 328 203T352
168T383 150T412 145Q431 145 452 149T498 165T554 197T623 250V471Q563 461 522 452T453 432T408 411T377 387Q351 361 335 331T319 259Z" />
<glyph unicode="&#xe1;" glyph-name="aacute" horiz-adv-x="1023" d="M65 201Q65 269 89 316T151 401Q175 425 206 447T290 491T422 531T623 569V687Q623 718 617 744T596 790T556 819T493 830Q469 830 445 821T403 796T375 756T367 702Q368 696 351 687T308 669T251
650T190 634T138 624T107 622L86 676Q110 736 161 787T282 877T432 938T597 960Q666 960 716 942T798 892T847 815T863 720V238Q863 196 874 178T903 160Q910 160 917 161T935 165T960 174L994 187L1016 112Q974 83 929 57T843 12T769 -19T717 -30Q680 -30 655
12T624 129Q579 84 534 54T446 5T364 -22T293 -30Q251 -30 211 -16T138 27T85 99T65 201ZM319 259Q319 225 328 203T352 168T383 150T412 145Q431 145 452 149T498 165T554 197T623 250V471Q563 461 522 452T453 432T408 411T377 387Q351 361 335 331T319 259ZM368
1083L579 1512Q591 1511 623 1507T693 1496T763 1484T807 1474L837 1420L455 1040Q446 1041 434 1046T408 1058T385 1071T368 1083Z" />
<glyph unicode="&#xe2;" glyph-name="acircumflex" horiz-adv-x="1023" d="M65 201Q65 269 89 316T151 401Q175 425 206 447T290 491T422 531T623 569V687Q623 718 617 744T596 790T556 819T493 830Q469 830 445 821T403 796T375 756T367 702Q368 696 351 687T308
669T251 650T190 634T138 624T107 622L86 676Q110 736 161 787T282 877T432 938T597 960Q666 960 716 942T798 892T847 815T863 720V238Q863 196 874 178T903 160Q910 160 917 161T935 165T960 174L994 187L1016 112Q974 83 929 57T843 12T769 -19T717 -30Q680
-30 655 12T624 129Q579 84 534 54T446 5T364 -22T293 -30Q251 -30 211 -16T138 27T85 99T65 201ZM169 1107L448 1494H585L854 1107Q842 1088 828 1068T796 1040L515 1263L236 1040Q219 1048 201 1068T169 1107ZM319 259Q319 225 328 203T352 168T383 150T412 145Q431
145 452 149T498 165T554 197T623 250V471Q563 461 522 452T453 432T408 411T377 387Q351 361 335 331T319 259Z" />
<glyph unicode="&#xe3;" glyph-name="atilde" horiz-adv-x="1023" d="M65 201Q65 269 89 316T151 401Q175 425 206 447T290 491T422 531T623 569V687Q623 718 617 744T596 790T556 819T493 830Q469 830 445 821T403 796T375 756T367 702Q368 696 351 687T308 669T251
650T190 634T138 624T107 622L86 676Q110 736 161 787T282 877T432 938T597 960Q666 960 716 942T798 892T847 815T863 720V238Q863 196 874 178T903 160Q910 160 917 161T935 165T960 174L994 187L1016 112Q974 83 929 57T843 12T769 -19T717 -30Q680 -30 655
12T624 129Q579 84 534 54T446 5T364 -22T293 -30Q251 -30 211 -16T138 27T85 99T65 201ZM122 1116Q140 1157 165 1206T224 1297T297 1368T383 1397T470 1381T550 1344L621 1308Q655 1292 687 1292Q732 1292 765 1320T832 1407L909 1377Q891 1336 865 1288T806
1197T733 1127T646 1098Q603 1098 564 1114T488 1150T415 1186T340 1203Q317 1203 299 1196T265 1174T232 1138T197 1088L122 1116ZM319 259Q319 225 328 203T352 168T383 150T412 145Q431 145 452 149T498 165T554 197T623 250V471Q563 461 522 452T453 432T408
411T377 387Q351 361 335 331T319 259Z" />
<glyph unicode="&#xe4;" glyph-name="adieresis" horiz-adv-x="1023" d="M65 201Q65 269 89 316T151 401Q175 425 206 447T290 491T422 531T623 569V687Q623 718 617 744T596 790T556 819T493 830Q469 830 445 821T403 796T375 756T367 702Q368 696 351 687T308
669T251 650T190 634T138 624T107 622L86 676Q110 736 161 787T282 877T432 938T597 960Q666 960 716 942T798 892T847 815T863 720V238Q863 196 874 178T903 160Q910 160 917 161T935 165T960 174L994 187L1016 112Q974 83 929 57T843 12T769 -19T717 -30Q680
-30 655 12T624 129Q579 84 534 54T446 5T364 -22T293 -30Q251 -30 211 -16T138 27T85 99T65 201ZM166 1213Q166 1250 179 1282T213 1338T263 1375T322 1389Q379 1389 410 1359T441 1268Q441 1231 429 1199T395 1143T346 1105T285 1091Q227 1091 197 1122T166 1213ZM319
259Q319 225 328 203T352 168T383 150T412 145Q431 145 452 149T498 165T554 197T623 250V471Q563 461 522 452T453 432T408 411T377 387Q351 361 335 331T319 259ZM589 1213Q589 1250 602 1282T636 1338T686 1375T745 1389Q801 1389 832 1359T864 1268Q864 1231
852 1199T818 1143T768 1105T707 1091Q649 1091 619 1122T589 1213Z" />
<glyph unicode="&#xe5;" glyph-name="aring" horiz-adv-x="1023" d="M65 201Q65 269 89 316T151 401Q175 425 206 447T290 491T422 531T623 569V687Q623 718 617 744T596 790T556 819T493 830Q469 830 445 821T403 796T375 756T367 702Q368 696 351 687T308 669T251
650T190 634T138 624T107 622L86 676Q110 736 161 787T282 877T432 938T597 960Q666 960 716 942T798 892T847 815T863 720V238Q863 196 874 178T903 160Q910 160 917 161T935 165T960 174L994 187L1016 112Q974 83 929 57T843 12T769 -19T717 -30Q680 -30 655
12T624 129Q579 84 534 54T446 5T364 -22T293 -30Q251 -30 211 -16T138 27T85 99T65 201ZM306 1204Q306 1258 326 1305T379 1387T455 1443T546 1463Q586 1463 619 1450T675 1413T710 1356T723 1284Q723 1231 703 1184T650 1103T573 1048T484 1028Q445 1028 412
1040T356 1076T319 1131T306 1204ZM319 259Q319 225 328 203T352 168T383 150T412 145Q431 145 452 149T498 165T554 197T623 250V471Q563 461 522 452T453 432T408 411T377 387Q351 361 335 331T319 259ZM441 1245Q441 1199 461 1174T505 1149Q545 1149 566 1176T588
1243Q588 1291 568 1316T525 1342Q504 1342 489 1334T463 1312T447 1281T441 1245Z" />
<glyph unicode="&#xe6;" glyph-name="ae" horiz-adv-x="1501" d="M65 201Q65 260 87 314T157 414T279 496T456 558Q483 565 532 569T632 576V655Q632 745 601 787T505 830Q479 830 451 820T400 792T366 749T363 691Q364 684 348 675T307 657T250 638T189 623T138
613T107 612L86 663Q106 716 141 758T221 834T315 890T414 929T508 952T588 960Q663 960 718 936T807 856Q840 885 875 905T945 937T1015 954T1079 960Q1167 960 1234 926T1346 834T1413 703T1436 550Q1426 540 1410 528T1376 505T1338 483T1302 467H858Q857 463
857 454V441Q857 394 872 342T916 244T990 170T1092 140Q1123 140 1154 145T1218 164T1290 201T1376 259Q1382 256 1390 247T1406 228L1420 208Q1426 199 1428 195Q1368 129 1318 86T1218 17T1118 -19T1006 -30Q963 -30 917 -16T828 26T746 92T680 181Q635 125
586 85T488 20T389 -18T293 -30Q257 -30 217 -18T143 21T87 93T65 201ZM312 259Q312 228 321 206T346 171T378 151T412 145Q435 145 462 151T518 171T580 207T645 264Q639 287 636 312T632 365V463Q597 461 567 460T526 456Q463 442 422 421T356 373T322 318T312
259ZM865 580H1172Q1193 580 1201 587T1210 616Q1210 669 1199 711T1166 783T1116 829T1050 845Q1027 845 999 837T945 800T897 720T865 580Z" />
<glyph unicode="&#xe7;" glyph-name="ccedilla" horiz-adv-x="933" d="M65 444Q65 552 105 646T216 809T387 919T605 960Q638 960 679 955T761 939T834 914T885 881Q886 873 883 853T873 807T857 752T839 697T821 650T806 620L739 630Q706 728 658 781T530 835Q486
835 446 815T374 752T324 640T305 475Q305 395 325 333T381 227T465 161T567 138Q595 138 621 141T678 157T747 192T839 254L893 190Q828 116 773 73T669 6T573 -23H572L547 -89Q625 -103 667 -137T710 -229Q710 -266 683 -301T608 -365T494 -415T349 -444L312
-373Q399 -360 436 -331T474 -269Q474 -235 451 -221T384 -202L387 -198Q390 -194 398 -173T422 -108Q433 -78 449 -29Q384 -23 324 2Q249 35 192 96T100 245T65 444Z" />
<glyph unicode="&#xe8;" glyph-name="egrave" horiz-adv-x="991" d="M65 442Q65 578 116 684Q168 791 271 866Q297 885 329 902T397 932T471 952T547 960Q645 960 716 926T834 836T903 705T926 550Q917 540 900 528T863 505T823 484T786 468H313Q315 396 332 336T382
231T459 163T564 138Q595 138 624 141T688 158T766 194T868 259Q874 256 882 247T898 228L912 208Q918 199 920 195Q851 125 796 81T691 13T590 -21T480 -30Q395 -30 320 4T188 100T98 249T65 442ZM229 1417L258 1473Q268 1476 299 1482L366 1494Q402 1501 434
1506T479 1512L697 1086Q691 1080 680 1073T657 1060T632 1048T611 1040L229 1417ZM316 580H649Q672 580 679 587T687 616Q687 646 679 684T651 757T596 816T511 840Q464 840 430 822T373 770T336 688T316 580Z" />
<glyph unicode="&#xe9;" glyph-name="eacute" horiz-adv-x="991" d="M65 442Q65 578 116 684Q168 791 271 866Q297 885 329 902T397 932T471 952T547 960Q645 960 716 926T834 836T903 705T926 550Q917 540 900 528T863 505T823 484T786 468H313Q315 396 332 336T382
231T459 163T564 138Q595 138 624 141T688 158T766 194T868 259Q874 256 882 247T898 228L912 208Q918 199 920 195Q851 125 796 81T691 13T590 -21T480 -30Q395 -30 320 4T188 100T98 249T65 442ZM316 580H649Q672 580 679 587T687 616Q687 646 679 684T651 757T596
816T511 840Q464 840 430 822T373 770T336 688T316 580ZM389 1083L600 1512Q612 1511 644 1507T714 1496T784 1484T828 1474L858 1420L476 1040Q467 1041 455 1046T429 1058T406 1071T389 1083Z" />
<glyph unicode="&#xea;" glyph-name="ecircumflex" horiz-adv-x="991" d="M65 442Q65 578 116 684Q168 791 271 866Q297 885 329 902T397 932T471 952T547 960Q645 960 716 926T834 836T903 705T926 550Q917 540 900 528T863 505T823 484T786 468H313Q315 396
332 336T382 231T459 163T564 138Q595 138 624 141T688 158T766 194T868 259Q874 256 882 247T898 228L912 208Q918 199 920 195Q851 125 796 81T691 13T590 -21T480 -30Q395 -30 320 4T188 100T98 249T65 442ZM190 1107L469 1494H606L875 1107Q863 1088 849 1068T817
1040L536 1263L257 1040Q240 1048 222 1068T190 1107ZM316 580H649Q672 580 679 587T687 616Q687 646 679 684T651 757T596 816T511 840Q464 840 430 822T373 770T336 688T316 580Z" />
<glyph unicode="&#xeb;" glyph-name="edieresis" horiz-adv-x="991" d="M65 442Q65 578 116 684Q168 791 271 866Q297 885 329 902T397 932T471 952T547 960Q645 960 716 926T834 836T903 705T926 550Q917 540 900 528T863 505T823 484T786 468H313Q315 396 332
336T382 231T459 163T564 138Q595 138 624 141T688 158T766 194T868 259Q874 256 882 247T898 228L912 208Q918 199 920 195Q851 125 796 81T691 13T590 -21T480 -30Q395 -30 320 4T188 100T98 249T65 442ZM187 1213Q187 1250 200 1282T234 1338T284 1375T343 1389Q400
1389 431 1359T462 1268Q462 1231 450 1199T416 1143T367 1105T306 1091Q248 1091 218 1122T187 1213ZM316 580H649Q672 580 679 587T687 616Q687 646 679 684T651 757T596 816T511 840Q464 840 430 822T373 770T336 688T316 580ZM610 1213Q610 1250 623 1282T657
1338T707 1375T766 1389Q822 1389 853 1359T885 1268Q885 1231 873 1199T839 1143T789 1105T728 1091Q670 1091 640 1122T610 1213Z" />
<glyph unicode="&#xec;" glyph-name="igrave" horiz-adv-x="615" d="M8 1417L37 1473Q47 1476 78 1482L145 1494Q181 1501 213 1506T258 1512L476 1086Q470 1080 459 1073T436 1060T411 1048T390 1040L8 1417ZM63 0V73Q131 87 163 103T195 134V648Q195 699 194
730T182 779T143 805T63 818V888Q149 900 226 917T371 960H435V134Q435 122 465 105T568 73V0H63Z" />
<glyph unicode="&#xed;" glyph-name="iacute" horiz-adv-x="615" d="M63 0V73Q131 87 163 103T195 134V648Q195 699 194 730T182 779T143 805T63 818V888Q149 900 226 917T371 960H435V134Q435 122 465 105T568 73V0H63ZM168 1083L379 1512Q391 1511 423 1507T493
1496T563 1484T607 1474L637 1420L255 1040Q246 1041 234 1046T208 1058T185 1071T168 1083Z" />
<glyph unicode="&#xee;" glyph-name="icircumflex" horiz-adv-x="615" d="M-31 1107L248 1494H385L654 1107Q642 1088 628 1068T596 1040L315 1263L36 1040Q19 1048 1 1068T-31 1107ZM63 0V73Q131 87 163 103T195 134V648Q195 699 194 730T182 779T143 805T63
818V888Q149 900 226 917T371 960H435V134Q435 122 465 105T568 73V0H63Z" />
<glyph unicode="&#xef;" glyph-name="idieresis" horiz-adv-x="615" d="M-34 1213Q-34 1250 -21 1282T13 1338T63 1375T122 1389Q179 1389 210 1359T241 1268Q241 1231 229 1199T195 1143T146 1105T85 1091Q27 1091 -3 1122T-34 1213ZM63 0V73Q131 87 163 103T195
134V648Q195 699 194 730T182 779T143 805T63 818V888Q149 900 226 917T371 960H435V134Q435 122 465 105T568 73V0H63ZM389 1213Q389 1250 402 1282T436 1338T486 1375T545 1389Q601 1389 632 1359T664 1268Q664 1231 652 1199T618 1143T568 1105T507 1091Q449
1091 419 1122T389 1213Z" />
<glyph unicode="&#xf0;" glyph-name="eth" horiz-adv-x="1046" d="M65 444Q65 510 80 574T123 695T190 801T279 885T385 940T506 960Q567 960 620 937T714 870Q694 948 660 1013T565 1147L354 1060Q335 1061 320 1062T290 1064T261 1069T229 1078L218 1122L480
1232Q424 1273 352 1295T192 1305L180 1376L448 1470L504 1432L560 1391L612 1350Q638 1329 659 1310L846 1387Q893 1382 921 1378T975 1365L982 1323L743 1224Q872 1080 926 925T980 607Q980 492 958 400T899 237T815 116T716 33T613 -15T519 -30Q413 -30 329
6T186 105T96 255T65 444ZM310 488Q310 409 328 338T376 212T446 127T529 95Q584 95 624 122T689 207T727 354T740 566V612Q724 666 696 706T632 774T560 814T490 828Q400 828 355 738T310 488Z" />
<glyph unicode="&#xf1;" glyph-name="ntilde" horiz-adv-x="1190" d="M48 0V73Q114 90 147 103T180 134V689Q180 728 179 751T165 787T126 806T48 818V888Q96 893 137 900T217 915T291 935T363 960L405 918L416 774Q533 874 634 917T814 960Q857 960 897 947T967
903T1016 823T1035 704V134Q1035 127 1041 121T1062 107T1103 92T1168 73V0H663V73Q735 92 765 106T795 134V588Q795 643 790 679T772 738T740 769T690 778Q666 778 639 772T580 750T508 707T420 639V134Q420 119 454 103T553 73V0H48ZM214 1116Q232 1157 257 1206T316
1297T389 1368T475 1397T562 1381T642 1344L713 1308Q747 1292 779 1292Q824 1292 857 1320T924 1407L1001 1377Q983 1336 957 1288T898 1197T825 1127T738 1098Q695 1098 656 1114T580 1150T507 1186T432 1203Q409 1203 391 1196T357 1174T324 1138T289 1088L214
1116Z" />
<glyph unicode="&#xf2;" glyph-name="ograve" horiz-adv-x="1075" d="M65 444Q65 543 101 636T203 801T359 916T558 960Q660 960 743 924T886 825T978 674T1010 485Q1010 418 992 354T942 233T864 128T765 44T648 -10T519 -30Q416 -30 332 6T189 105T98 255T65
444ZM252 1417L281 1473Q291 1476 322 1482L389 1494Q425 1501 457 1506T502 1512L720 1086Q714 1080 703 1073T680 1060T655 1048T634 1040L252 1417ZM318 473Q318 394 336 325T386 205T459 125T547 95Q607 95 647 118T712 185T747 293T758 440Q758 519 742 590T695
716T623 803T529 835Q467 835 426 808T361 732T328 617T318 473Z" />
<glyph unicode="&#xf3;" glyph-name="oacute" horiz-adv-x="1075" d="M65 444Q65 543 101 636T203 801T359 916T558 960Q660 960 743 924T886 825T978 674T1010 485Q1010 418 992 354T942 233T864 128T765 44T648 -10T519 -30Q416 -30 332 6T189 105T98 255T65
444ZM318 473Q318 394 336 325T386 205T459 125T547 95Q607 95 647 118T712 185T747 293T758 440Q758 519 742 590T695 716T623 803T529 835Q467 835 426 808T361 732T328 617T318 473ZM412 1083L623 1512Q635 1511 667 1507T737 1496T807 1484T851 1474L881 1420L499
1040Q490 1041 478 1046T452 1058T429 1071T412 1083Z" />
<glyph unicode="&#xf4;" glyph-name="ocircumflex" horiz-adv-x="1075" d="M65 444Q65 543 101 636T203 801T359 916T558 960Q660 960 743 924T886 825T978 674T1010 485Q1010 418 992 354T942 233T864 128T765 44T648 -10T519 -30Q416 -30 332 6T189 105T98 255T65
444ZM213 1107L492 1494H629L898 1107Q886 1088 872 1068T840 1040L559 1263L280 1040Q263 1048 245 1068T213 1107ZM318 473Q318 394 336 325T386 205T459 125T547 95Q607 95 647 118T712 185T747 293T758 440Q758 519 742 590T695 716T623 803T529 835Q467 835
426 808T361 732T328 617T318 473Z" />
<glyph unicode="&#xf5;" glyph-name="otilde" horiz-adv-x="1075" d="M65 444Q65 543 101 636T203 801T359 916T558 960Q660 960 743 924T886 825T978 674T1010 485Q1010 418 992 354T942 233T864 128T765 44T648 -10T519 -30Q416 -30 332 6T189 105T98 255T65
444ZM166 1116Q184 1157 209 1206T268 1297T341 1368T427 1397T514 1381T594 1344L665 1308Q699 1292 731 1292Q776 1292 809 1320T876 1407L953 1377Q935 1336 909 1288T850 1197T777 1127T690 1098Q647 1098 608 1114T532 1150T459 1186T384 1203Q361 1203 343
1196T309 1174T276 1138T241 1088L166 1116ZM318 473Q318 394 336 325T386 205T459 125T547 95Q607 95 647 118T712 185T747 293T758 440Q758 519 742 590T695 716T623 803T529 835Q467 835 426 808T361 732T328 617T318 473Z" />
<glyph unicode="&#xf6;" glyph-name="odieresis" horiz-adv-x="1075" d="M65 444Q65 543 101 636T203 801T359 916T558 960Q660 960 743 924T886 825T978 674T1010 485Q1010 418 992 354T942 233T864 128T765 44T648 -10T519 -30Q416 -30 332 6T189 105T98 255T65
444ZM210 1213Q210 1250 223 1282T257 1338T307 1375T366 1389Q423 1389 454 1359T485 1268Q485 1231 473 1199T439 1143T390 1105T329 1091Q271 1091 241 1122T210 1213ZM318 473Q318 394 336 325T386 205T459 125T547 95Q607 95 647 118T712 185T747 293T758
440Q758 519 742 590T695 716T623 803T529 835Q467 835 426 808T361 732T328 617T318 473ZM633 1213Q633 1250 646 1282T680 1338T730 1375T789 1389Q845 1389 876 1359T908 1268Q908 1231 896 1199T862 1143T812 1105T751 1091Q693 1091 663 1122T633 1213Z" />
<glyph unicode="&#xf7;" glyph-name="divide" horiz-adv-x="863" d="M53 522Q56 533 61 548T74 579L88 610Q94 624 99 634H777L810 603Q807 592 801 576L788 544L774 514Q768 499 764 491H85L53 522ZM331 283Q331 312 340 337T366 382T404 412T451 423Q538 423
538 324Q538 295 529 270T504 225T465 194T418 182Q372 182 352 208T331 283ZM331 803Q331 832 340 857T366 902T404 932T451 943Q538 943 538 845Q538 816 529 791T504 746T465 715T418 703Q372 703 352 729T331 803Z" />
<glyph unicode="&#xf8;" glyph-name="oslash" horiz-adv-x="1075" d="M65 444Q65 543 101 636T203 801T359 916T558 960Q624 960 685 943T795 897L810 915Q823 924 843 934L884 954Q906 964 928 971T967 983L997 952L893 818Q947 755 978 669T1010 485Q1010 418
992 354T942 233T864 128T765 44T648 -10T519 -30Q452 -30 390 -13T278 33L264 14Q255 6 235 -4T192 -23T145 -41T107 -53L81 -22L184 111Q130 174 98 260T65 444ZM316 473Q316 432 323 389T341 311L678 746Q649 785 610 810T529 835Q467 835 426 808T361 732T326
617T316 473ZM397 186Q428 147 467 121T547 95Q607 95 647 118T713 185T749 293T760 440Q760 484 752 531T732 616L397 186Z" />
<glyph unicode="&#xf9;" glyph-name="ugrave" horiz-adv-x="1153" d="M34 832V902Q84 906 125 911T205 922T280 938T360 960L395 914V342Q395 280 402 241T425 181T461 151T511 143Q532 143 556 148T610 166T674 203T750 262V689Q750 734 747 761T730 803T691
824T618 832V902Q718 911 799 926T953 960L990 914V284Q990 253 991 233T994 199T1001 177T1013 164Q1025 156 1046 160T1119 187L1144 112Q1107 88 1063 63T977 17T903 -17T858 -30Q840 -30 824 -24T793 1T767 52T750 136Q688 82 639 50T549 -1T474 -24T408 -30Q361
-30 316 -17T235 30T177 125T155 279V689Q155 737 154 763T141 803T105 822T34 832ZM270 1417L299 1473Q309 1476 340 1482L407 1494Q443 1501 475 1506T520 1512L738 1086Q732 1080 721 1073T698 1060T673 1048T652 1040L270 1417Z" />
<glyph unicode="&#xfa;" glyph-name="uacute" horiz-adv-x="1153" d="M34 832V902Q84 906 125 911T205 922T280 938T360 960L395 914V342Q395 280 402 241T425 181T461 151T511 143Q532 143 556 148T610 166T674 203T750 262V689Q750 734 747 761T730 803T691
824T618 832V902Q718 911 799 926T953 960L990 914V284Q990 253 991 233T994 199T1001 177T1013 164Q1025 156 1046 160T1119 187L1144 112Q1107 88 1063 63T977 17T903 -17T858 -30Q840 -30 824 -24T793 1T767 52T750 136Q688 82 639 50T549 -1T474 -24T408 -30Q361
-30 316 -17T235 30T177 125T155 279V689Q155 737 154 763T141 803T105 822T34 832ZM430 1083L641 1512Q653 1511 685 1507T755 1496T825 1484T869 1474L899 1420L517 1040Q508 1041 496 1046T470 1058T447 1071T430 1083Z" />
<glyph unicode="&#xfb;" glyph-name="ucircumflex" horiz-adv-x="1153" d="M34 832V902Q84 906 125 911T205 922T280 938T360 960L395 914V342Q395 280 402 241T425 181T461 151T511 143Q532 143 556 148T610 166T674 203T750 262V689Q750 734 747 761T730 803T691
824T618 832V902Q718 911 799 926T953 960L990 914V284Q990 253 991 233T994 199T1001 177T1013 164Q1025 156 1046 160T1119 187L1144 112Q1107 88 1063 63T977 17T903 -17T858 -30Q840 -30 824 -24T793 1T767 52T750 136Q688 82 639 50T549 -1T474 -24T408 -30Q361
-30 316 -17T235 30T177 125T155 279V689Q155 737 154 763T141 803T105 822T34 832ZM231 1107L510 1494H647L916 1107Q904 1088 890 1068T858 1040L577 1263L298 1040Q281 1048 263 1068T231 1107Z" />
<glyph unicode="&#xfc;" glyph-name="udieresis" horiz-adv-x="1153" d="M34 832V902Q84 906 125 911T205 922T280 938T360 960L395 914V342Q395 280 402 241T425 181T461 151T511 143Q532 143 556 148T610 166T674 203T750 262V689Q750 734 747 761T730 803T691
824T618 832V902Q718 911 799 926T953 960L990 914V284Q990 253 991 233T994 199T1001 177T1013 164Q1025 156 1046 160T1119 187L1144 112Q1107 88 1063 63T977 17T903 -17T858 -30Q840 -30 824 -24T793 1T767 52T750 136Q688 82 639 50T549 -1T474 -24T408 -30Q361
-30 316 -17T235 30T177 125T155 279V689Q155 737 154 763T141 803T105 822T34 832ZM228 1213Q228 1250 241 1282T275 1338T325 1375T384 1389Q441 1389 472 1359T503 1268Q503 1231 491 1199T457 1143T408 1105T347 1091Q289 1091 259 1122T228 1213ZM651 1213Q651
1250 664 1282T698 1338T748 1375T807 1389Q863 1389 894 1359T926 1268Q926 1231 914 1199T880 1143T830 1105T769 1091Q711 1091 681 1122T651 1213Z" />
<glyph unicode="&#xfd;" glyph-name="yacute" horiz-adv-x="1040" d="M-62 -434T-62 -425T-45 -391T-5 -336T44 -281T85 -245Q135 -277 185 -284T273 -278Q310 -265 352 -222T430 -92L459 -23L124 789Q113 816 88 831T13 857V930H466V857Q427 852 406 847T376
834T368 816T376 789L582 287L778 789Q784 805 786 814Q787 825 780 832T753 845T700 857V930H1027V857Q997 850 978 844T947 831T929 814T917 789L583 -75Q540 -185 490 -264T384 -394T267 -469T142 -493Q104 -493 67 -486T2 -469T-44 -446ZM397 1083L608 1512Q620
1511 652 1507T722 1496T792 1484T836 1474L866 1420L484 1040Q475 1041 463 1046T437 1058T414 1071T397 1083Z" />
<glyph unicode="&#xfe;" glyph-name="thorn" horiz-adv-x="1145" d="M48 -407Q114 -391 147 -377T180 -345V1270Q180 1313 176 1337T157 1374T116 1390T48 1400V1470Q105 1477 149 1485T232 1503T304 1524T377 1550L420 1508V796Q476 845 524 877T612 927T687
953T750 960Q818 960 878 931T983 844T1054 703T1080 507Q1080 441 1063 376T1017 251T949 140T867 51T777 -8T686 -30Q660 -30 632 -25T571 -7T501 26T420 77V-345Q420 -361 457 -377T589 -407V-480H48V-407ZM420 228Q471 198 510 180T580 151T638 138T691 135Q730
135 761 157T813 217T844 310T855 429Q856 521 837 589T787 701T715 768T631 790Q613 790 594 786T551 770T496 736T420 678V228Z" />
<glyph unicode="&#xff;" glyph-name="ydieresis" horiz-adv-x="1040" d="M-62 -434T-62 -425T-45 -391T-5 -336T44 -281T85 -245Q135 -277 185 -284T273 -278Q310 -265 352 -222T430 -92L459 -23L124 789Q113 816 88 831T13 857V930H466V857Q427 852 406 847T376
834T368 816T376 789L582 287L778 789Q784 805 786 814Q787 825 780 832T753 845T700 857V930H1027V857Q997 850 978 844T947 831T929 814T917 789L583 -75Q540 -185 490 -264T384 -394T267 -469T142 -493Q104 -493 67 -486T2 -469T-44 -446ZM195 1213Q195 1250
208 1282T242 1338T292 1375T351 1389Q408 1389 439 1359T470 1268Q470 1231 458 1199T424 1143T375 1105T314 1091Q256 1091 226 1122T195 1213ZM618 1213Q618 1250 631 1282T665 1338T715 1375T774 1389Q830 1389 861 1359T893 1268Q893 1231 881 1199T847 1143T797
1105T736 1091Q678 1091 648 1122T618 1213Z" />
<glyph unicode="&#x100;" glyph-name="Amacron" horiz-adv-x="1287" d="M0 0V73Q68 85 104 98T151 141L500 1207Q524 1227 551 1244T608 1274T667 1298T722 1317L1142 141Q1147 127 1155 116T1177 97T1212 83T1266 73V0H769V73Q847 78 874 93T891 141L789 430H392L296
141Q286 110 320 96T437 73V0H0ZM217 1487Q220 1498 227 1516T243 1554L260 1590Q268 1608 273 1618H1037L1069 1587Q1066 1576 1059 1558T1042 1519L1025 1482L1013 1455H249L217 1487ZM432 550H747L582 1015L432 550Z" />
<glyph unicode="&#x101;" glyph-name="amacron" horiz-adv-x="1023" d="M65 201Q65 269 89 316T151 401Q175 425 206 447T290 491T422 531T623 569V687Q623 718 617 744T596 790T556 819T493 830Q469 830 445 821T403 796T375 756T367 702Q368 696 351 687T308
669T251 650T190 634T138 624T107 622L86 676Q110 736 161 787T282 877T432 938T597 960Q666 960 716 942T798 892T847 815T863 720V238Q863 196 874 178T903 160Q910 160 917 161T935 165T960 174L994 187L1016 112Q974 83 929 57T843 12T769 -19T717 -30Q680
-30 655 12T624 129Q579 84 534 54T446 5T364 -22T293 -30Q251 -30 211 -16T138 27T85 99T65 201ZM99 1207Q102 1218 109 1236T125 1274L142 1310Q150 1328 155 1338H919L951 1307Q948 1296 941 1278T924 1239L907 1202L895 1175H131L99 1207ZM319 259Q319 225
328 203T352 168T383 150T412 145Q431 145 452 149T498 165T554 197T623 250V471Q563 461 522 452T453 432T408 411T377 387Q351 361 335 331T319 259Z" />
<glyph unicode="&#x102;" glyph-name="Abreve" horiz-adv-x="1287" d="M0 0V73Q68 85 104 98T151 141L500 1207Q524 1227 551 1244T608 1274T667 1298T722 1317L1142 141Q1147 127 1155 116T1177 97T1212 83T1266 73V0H769V73Q847 78 874 93T891 141L789 430H392L296
141Q286 110 320 96T437 73V0H0ZM278 1688Q284 1697 293 1707T313 1726T334 1743T353 1755Q378 1709 412 1676T483 1620T559 1586T631 1575Q666 1575 705 1586T781 1619T853 1675T912 1755Q921 1751 931 1744T952 1727T972 1707T988 1688Q958 1607 918 1550T832
1455T736 1401T635 1383Q580 1383 529 1400T432 1455T347 1549T278 1688ZM432 550H747L582 1015L432 550Z" />
<glyph unicode="&#x103;" glyph-name="abreve" horiz-adv-x="1023" d="M65 201Q65 269 89 316T151 401Q175 425 206 447T290 491T422 531T623 569V687Q623 718 617 744T596 790T556 819T493 830Q469 830 445 821T403 796T375 756T367 702Q368 696 351 687T308
669T251 650T190 634T138 624T107 622L86 676Q110 736 161 787T282 877T432 938T597 960Q666 960 716 942T798 892T847 815T863 720V238Q863 196 874 178T903 160Q910 160 917 161T935 165T960 174L994 187L1016 112Q974 83 929 57T843 12T769 -19T717 -30Q680
-30 655 12T624 129Q579 84 534 54T446 5T364 -22T293 -30Q251 -30 211 -16T138 27T85 99T65 201ZM160 1368Q166 1377 175 1387T195 1406T216 1423T235 1435Q260 1389 294 1356T365 1300T441 1266T513 1255Q548 1255 587 1266T663 1299T735 1355T794 1435Q803 1431
813 1424T834 1407T854 1387T870 1368Q840 1287 800 1230T714 1135T618 1081T517 1063Q462 1063 411 1080T314 1135T229 1229T160 1368ZM319 259Q319 225 328 203T352 168T383 150T412 145Q431 145 452 149T498 165T554 197T623 250V471Q563 461 522 452T453 432T408
411T377 387Q351 361 335 331T319 259Z" />
<glyph unicode="&#x106;" glyph-name="Cacute" horiz-adv-x="1143" d="M55 586Q55 746 104 876T239 1098T441 1241Q555 1290 691 1290Q745 1290 798 1282T899 1261T986 1229T1052 1190Q1056 1187 1052 1172T1038 1136T1017 1091T991 1044T967 1003T947 977L882
991Q831 1079 766 1118T622 1158Q588 1158 552 1147T480 1111T414 1046T359 946T322 807T308 623Q308 495 341 403T428 252T548 164T681 135Q708 135 744 141T824 163T917 207T1019 279Q1024 275 1032 265T1048 244L1062 224Q1068 214 1071 211Q1007 146 945 100T822
25T702 -17T586 -30Q485 -30 390 12T220 133T100 326T55 586ZM437 1427L802 1767Q825 1755 853 1738L906 1706Q932 1691 952 1677T980 1655L989 1603L505 1360Q488 1368 470 1388T437 1427Z" />
<glyph unicode="&#x107;" glyph-name="cacute" horiz-adv-x="933" d="M65 444Q65 552 105 646T216 809T387 919T605 960Q638 960 679 955T761 939T834 914T885 881Q886 873 883 853T873 807T857 752T839 697T821 650T806 620L739 630Q706 728 658 781T530 835Q486
835 446 815T374 752T324 640T305 475Q305 395 325 333T381 227T465 161T567 138Q595 138 621 141T678 157T747 192T839 254L893 190Q828 116 773 73T669 6T573 -23T480 -30Q399 -30 324 2T192 96T100 245T65 444ZM364 1083L575 1512Q587 1511 619 1507T689 1496T759
1484T803 1474L833 1420L451 1040Q442 1041 430 1046T404 1058T381 1071T364 1083Z" />
<glyph unicode="&#x108;" glyph-name="Ccircumflex" horiz-adv-x="1143" d="M55 586Q55 746 104 876T239 1098T441 1241Q555 1290 691 1290Q745 1290 798 1282T899 1261T986 1229T1052 1190Q1056 1187 1052 1172T1038 1136T1017 1091T991 1044T967 1003T947 977L882
991Q831 1079 766 1118T622 1158Q588 1158 552 1147T480 1111T414 1046T359 946T322 807T308 623Q308 495 341 403T428 252T548 164T681 135Q708 135 744 141T824 163T917 207T1019 279Q1024 275 1032 265T1048 244L1062 224Q1068 214 1071 211Q1007 146 945 100T822
25T702 -17T586 -30Q485 -30 390 12T220 133T100 326T55 586ZM297 1420L576 1744H698L975 1420Q963 1401 949 1385T917 1360L636 1523L357 1360Q340 1368 326 1384T297 1420Z" />
<glyph unicode="&#x109;" glyph-name="ccircumflex" horiz-adv-x="933" d="M65 444Q65 552 105 646T216 809T387 919T605 960Q638 960 679 955T761 939T834 914T885 881Q886 873 883 853T873 807T857 752T839 697T821 650T806 620L739 630Q706 728 658 781T530
835Q486 835 446 815T374 752T324 640T305 475Q305 395 325 333T381 227T465 161T567 138Q595 138 621 141T678 157T747 192T839 254L893 190Q828 116 773 73T669 6T573 -23T480 -30Q399 -30 324 2T192 96T100 245T65 444ZM165 1107L444 1494H581L850 1107Q838
1088 824 1068T792 1040L511 1263L232 1040Q215 1048 197 1068T165 1107Z" />
<glyph unicode="&#x10a;" glyph-name="Cdotaccent" horiz-adv-x="1143" d="M55 586Q55 746 104 876T239 1098T441 1241Q555 1290 691 1290Q745 1290 798 1282T899 1261T986 1229T1052 1190Q1056 1187 1052 1172T1038 1136T1017 1091T991 1044T967 1003T947 977L882
991Q831 1079 766 1118T622 1158Q588 1158 552 1147T480 1111T414 1046T359 946T322 807T308 623Q308 495 341 403T428 252T548 164T681 135Q708 135 744 141T824 163T917 207T1019 279Q1024 275 1032 265T1048 244L1062 224Q1068 214 1071 211Q1007 146 945 100T822
25T702 -17T586 -30Q485 -30 390 12T220 133T100 326T55 586ZM499 1493Q499 1530 512 1562T546 1618T596 1655T656 1669Q712 1669 743 1639T774 1548Q774 1511 762 1479T728 1423T679 1385T618 1371Q560 1371 530 1402T499 1493Z" />
<glyph unicode="&#x10b;" glyph-name="cdotaccent" horiz-adv-x="933" d="M65 444Q65 552 105 646T216 809T387 919T605 960Q638 960 679 955T761 939T834 914T885 881Q886 873 883 853T873 807T857 752T839 697T821 650T806 620L739 630Q706 728 658 781T530
835Q486 835 446 815T374 752T324 640T305 475Q305 395 325 333T381 227T465 161T567 138Q595 138 621 141T678 157T747 192T839 254L893 190Q828 116 773 73T669 6T573 -23T480 -30Q399 -30 324 2T192 96T100 245T65 444ZM373 1213Q373 1250 386 1282T420 1338T470
1375T530 1389Q586 1389 617 1359T648 1268Q648 1231 636 1199T602 1143T553 1105T492 1091Q434 1091 404 1122T373 1213Z" />
<glyph unicode="&#x10c;" glyph-name="Ccaron" horiz-adv-x="1143" d="M55 586Q55 746 104 876T239 1098T441 1241Q555 1290 691 1290Q745 1290 798 1282T899 1261T986 1229T1052 1190Q1056 1187 1052 1172T1038 1136T1017 1091T991 1044T967 1003T947 977L882
991Q831 1079 766 1118T622 1158Q588 1158 552 1147T480 1111T414 1046T359 946T322 807T308 623Q308 495 341 403T428 252T548 164T681 135Q708 135 744 141T824 163T917 207T1019 279Q1024 275 1032 265T1048 244L1062 224Q1068 214 1071 211Q1007 146 945 100T822
25T702 -17T586 -30Q485 -30 390 12T220 133T100 326T55 586ZM297 1713Q311 1733 325 1749T357 1775L640 1587L917 1775Q934 1766 948 1750T975 1713L706 1384H569L297 1713Z" />
<glyph unicode="&#x10d;" glyph-name="ccaron" horiz-adv-x="933" d="M65 444Q65 552 105 646T216 809T387 919T605 960Q638 960 679 955T761 939T834 914T885 881Q886 873 883 853T873 807T857 752T839 697T821 650T806 620L739 630Q706 728 658 781T530 835Q486
835 446 815T374 752T324 640T305 475Q305 395 325 333T381 227T465 161T567 138Q595 138 621 141T678 157T747 192T839 254L893 190Q828 116 773 73T669 6T573 -23T480 -30Q399 -30 324 2T192 96T100 245T65 444ZM168 1445Q180 1465 194 1485T226 1513L508 1295L786
1513Q803 1505 821 1485T853 1445L575 1064H438L168 1445Z" />
<glyph unicode="&#x10e;" glyph-name="Dcaron" horiz-adv-x="1304" d="M30 1230Q79 1242 146 1253T288 1272T438 1285T578 1290Q731 1290 851 1249T1053 1128T1178 935T1221 676Q1221 551 1196 453T1126 279T1023 151T897 65T759 16T619 0H43V73Q111 87 145 103T180
134V1157L43 1138L30 1230ZM250 1713Q264 1733 278 1749T310 1775L593 1587L870 1775Q887 1766 901 1750T928 1713L659 1384H522L250 1713ZM430 167Q430 160 432 153Q435 142 443 134T468 119T512 110T582 107Q620 107 662 120T746 161T825 231T891 333T936 467T953
637Q953 770 924 872T839 1043T699 1148T506 1184Q488 1184 469 1184T430 1182V167Z" />
<glyph unicode="&#x110;" glyph-name="Dcroat" horiz-adv-x="1304" d="M28 639Q30 646 34 659L44 686L54 714L61 735H180V1157L43 1138L30 1230Q79 1242 146 1253T288 1272T438 1285T578 1290Q731 1290 851 1249T1053 1128T1178 935T1221 676Q1221 551 1196 453T1126
279T1023 151T897 65T759 16T619 0H43V73Q111 87 145 103T180 134V615H50L28 639ZM430 167Q430 160 432 153Q435 142 443 134T468 119T512 110T582 107Q620 107 662 120T746 161T825 231T891 333T936 467T953 637Q953 770 924 872T839 1043T699 1148T506 1184Q488
1184 469 1184T430 1182V735H671L696 712L660 615H430V167Z" />
<glyph unicode="&#x111;" glyph-name="" horiz-adv-x="1148" d="M65 444Q65 544 100 637T200 802T354 917T551 960Q598 960 644 949T745 901V1114H456L433 1136Q435 1144 440 1158L449 1185Q454 1199 459 1212T469 1234H745V1259Q745 1308 743 1337T727 1383T686
1405T608 1416V1485Q718 1496 806 1514T947 1550L985 1513V1234H1129L1151 1209L1116 1114H985V299Q985 264 986 240T990 201T997 178T1008 166Q1014 163 1021 162T1039 161T1068 169T1113 187L1141 114Q1095 83 1048 57T961 12T889 -19T844 -30Q772 -30 752 145Q706
98 668 65T592 11T516 -20T431 -30Q364 -30 299 2T181 96T97 245T65 444ZM305 498Q305 418 325 356T377 250T450 183T532 160Q587 160 636 187T745 269V706Q709 764 656 796T535 828Q485 828 443 809T371 750T323 647T305 498Z" />
<glyph unicode="&#x112;" glyph-name="Emacron" horiz-adv-x="1076" d="M43 0V73Q111 87 145 103T180 134V1125Q180 1137 148 1155T43 1187V1260H924L964 1228Q962 1202 958 1163T948 1083T936 1006T923 950H848Q843 1043 823 1091T766 1140H430V735H828L861 700L842
668Q830 649 818 631T793 598T769 574Q754 589 737 599T697 616T644 626T571 629H430V184Q430 169 437 158T466 138T528 125T634 120H733Q779 120 811 131T869 166T914 231T956 330L1029 304Q1025 261 1020 214T1009 124T998 48T988 0H43ZM120 1487Q123 1498 130
1516T146 1554L163 1590Q171 1608 176 1618H940L972 1587Q969 1576 962 1558T945 1519L928 1482L916 1455H152L120 1487Z" />
<glyph unicode="&#x113;" glyph-name="emacron" horiz-adv-x="991" d="M65 442Q65 578 116 684Q168 791 271 866Q297 885 329 902T397 932T471 952T547 960Q645 960 716 926T834 836T903 705T926 550Q917 540 900 528T863 505T823 484T786 468H313Q315 396 332
336T382 231T459 163T564 138Q595 138 624 141T688 158T766 194T868 259Q874 256 882 247T898 228L912 208Q918 199 920 195Q851 125 796 81T691 13T590 -21T480 -30Q395 -30 320 4T188 100T98 249T65 442ZM120 1207Q123 1218 130 1236T146 1274L163 1310Q171 1328
176 1338H940L972 1307Q969 1296 962 1278T945 1239L928 1202L916 1175H152L120 1207ZM316 580H649Q672 580 679 587T687 616Q687 646 679 684T651 757T596 816T511 840Q464 840 430 822T373 770T336 688T316 580Z" />
<glyph unicode="&#x114;" glyph-name="Ebreve" horiz-adv-x="1076" d="M43 0V73Q111 87 145 103T180 134V1125Q180 1137 148 1155T43 1187V1260H924L964 1228Q962 1202 958 1163T948 1083T936 1006T923 950H848Q843 1043 823 1091T766 1140H430V735H828L861 700L842
668Q830 649 818 631T793 598T769 574Q754 589 737 599T697 616T644 626T571 629H430V184Q430 169 437 158T466 138T528 125T634 120H733Q779 120 811 131T869 166T914 231T956 330L1029 304Q1025 261 1020 214T1009 124T998 48T988 0H43ZM181 1688Q187 1697 196
1707T216 1726T237 1743T256 1755Q281 1709 315 1676T386 1620T462 1586T534 1575Q569 1575 608 1586T684 1619T756 1675T815 1755Q824 1751 834 1744T855 1727T875 1707T891 1688Q861 1607 821 1550T735 1455T639 1401T538 1383Q483 1383 432 1400T335 1455T250
1549T181 1688Z" />
<glyph unicode="&#x115;" glyph-name="ebreve" horiz-adv-x="991" d="M65 442Q65 578 116 684Q168 791 271 866Q297 885 329 902T397 932T471 952T547 960Q645 960 716 926T834 836T903 705T926 550Q917 540 900 528T863 505T823 484T786 468H313Q315 396 332
336T382 231T459 163T564 138Q595 138 624 141T688 158T766 194T868 259Q874 256 882 247T898 228L912 208Q918 199 920 195Q851 125 796 81T691 13T590 -21T480 -30Q395 -30 320 4T188 100T98 249T65 442ZM181 1368Q187 1377 196 1387T216 1406T237 1423T256 1435Q281
1389 315 1356T386 1300T462 1266T534 1255Q569 1255 608 1266T684 1299T756 1355T815 1435Q824 1431 834 1424T855 1407T875 1387T891 1368Q861 1287 821 1230T735 1135T639 1081T538 1063Q483 1063 432 1080T335 1135T250 1229T181 1368ZM316 580H649Q672 580
679 587T687 616Q687 646 679 684T651 757T596 816T511 840Q464 840 430 822T373 770T336 688T316 580Z" />
<glyph unicode="&#x116;" glyph-name="Edotaccent" horiz-adv-x="1076" d="M43 0V73Q111 87 145 103T180 134V1125Q180 1137 148 1155T43 1187V1260H924L964 1228Q962 1202 958 1163T948 1083T936 1006T923 950H848Q843 1043 823 1091T766 1140H430V735H828L861
700L842 668Q830 649 818 631T793 598T769 574Q754 589 737 599T697 616T644 626T571 629H430V184Q430 169 437 158T466 138T528 125T634 120H733Q779 120 811 131T869 166T914 231T956 330L1029 304Q1025 261 1020 214T1009 124T998 48T988 0H43ZM398 1493Q398
1530 411 1562T445 1618T495 1655T555 1669Q611 1669 642 1639T673 1548Q673 1511 661 1479T627 1423T578 1385T517 1371Q459 1371 429 1402T398 1493Z" />
<glyph unicode="&#x117;" glyph-name="edotaccent" horiz-adv-x="991" d="M65 442Q65 578 116 684Q168 791 271 866Q297 885 329 902T397 932T471 952T547 960Q645 960 716 926T834 836T903 705T926 550Q917 540 900 528T863 505T823 484T786 468H313Q315 396
332 336T382 231T459 163T564 138Q595 138 624 141T688 158T766 194T868 259Q874 256 882 247T898 228L912 208Q918 199 920 195Q851 125 796 81T691 13T590 -21T480 -30Q395 -30 320 4T188 100T98 249T65 442ZM316 580H649Q672 580 679 587T687 616Q687 646 679
684T651 757T596 816T511 840Q464 840 430 822T373 770T336 688T316 580ZM398 1213Q398 1250 411 1282T445 1338T495 1375T555 1389Q611 1389 642 1359T673 1268Q673 1231 661 1199T627 1143T578 1105T517 1091Q459 1091 429 1122T398 1213Z" />
<glyph unicode="&#x11a;" glyph-name="Ecaron" horiz-adv-x="1076" d="M43 0V73Q111 87 145 103T180 134V1125Q180 1137 148 1155T43 1187V1260H924L964 1228Q962 1202 958 1163T948 1083T936 1006T923 950H848Q843 1043 823 1091T766 1140H430V735H828L861 700L842
668Q830 649 818 631T793 598T769 574Q754 589 737 599T697 616T644 626T571 629H430V184Q430 169 437 158T466 138T528 125T634 120H733Q779 120 811 131T869 166T914 231T956 330L1029 304Q1025 261 1020 214T1009 124T998 48T988 0H43ZM196 1713Q210 1733 224
1749T256 1775L539 1587L816 1775Q833 1766 847 1750T874 1713L605 1384H468L196 1713Z" />
<glyph unicode="&#x11b;" glyph-name="ecaron" horiz-adv-x="991" d="M65 442Q65 578 116 684Q168 791 271 866Q297 885 329 902T397 932T471 952T547 960Q645 960 716 926T834 836T903 705T926 550Q917 540 900 528T863 505T823 484T786 468H313Q315 396 332
336T382 231T459 163T564 138Q595 138 624 141T688 158T766 194T868 259Q874 256 882 247T898 228L912 208Q918 199 920 195Q851 125 796 81T691 13T590 -21T480 -30Q395 -30 320 4T188 100T98 249T65 442ZM193 1445Q205 1465 219 1485T251 1513L533 1295L811 1513Q828
1505 846 1485T878 1445L600 1064H463L193 1445ZM316 580H649Q672 580 679 587T687 616Q687 646 679 684T651 757T596 816T511 840Q464 840 430 822T373 770T336 688T316 580Z" />
<glyph unicode="&#x11c;" glyph-name="Gcircumflex" horiz-adv-x="1232" d="M55 582Q55 748 108 879T255 1102T476 1242T752 1290Q785 1290 830 1283T924 1263T1017 1231T1095 1188Q1100 1184 1096 1170T1083 1135T1060 1091L1032 1045Q1019 1023 1006 1006T984
981L921 995Q888 1043 855 1076T785 1128T710 1156T628 1165Q603 1165 570 1155T501 1121T431 1057T369 959T325 821T308 637Q308 503 339 407T421 249T539 158T676 128Q731 128 774 138T853 165V470Q853 481 849 491T829 512T781 532T692 552V625H1190V552Q1133
538 1113 516T1093 470V169Q1019 108 955 70T834 9T728 -21T633 -30Q560 -30 489 -14T354 36T235 121T140 240T78 393T55 582ZM317 1420L596 1744H718L995 1420Q983 1401 969 1385T937 1360L656 1523L377 1360Q360 1368 346 1384T317 1420Z" />
<glyph unicode="&#x11d;" glyph-name="gcircumflex" horiz-adv-x="1059" d="M15 -222Q15 -197 25 -171T64 -116T140 -52T266 25Q152 71 152 123Q152 134 161 152T192 195T249 250T334 314Q278 329 232 356T154 420T103 503T85 602Q85 675 121 740T217 854T356
931T523 960Q592 960 652 941T760 890Q847 901 917 923T1029 960L1057 923Q1054 912 1048 897T1034 867T1018 836T1000 808Q966 802 931 798T854 792Q875 757 886 720T898 641Q898 564 864 501T773 392T641 321T483 295H473Q435 260 425 239T414 211Q414 202 420
194T448 177T516 159T640 140Q757 125 834 104T956 52T1020 -17T1038 -105Q1038 -152 1017 -199T957 -289T868 -370T758 -434T634 -477T505 -493Q453 -493 397 -487T286 -466T182 -431T96 -379T37 -309T15 -222ZM179 1107L458 1494H595L864 1107Q852 1088 838 1068T806
1040L525 1263L246 1040Q229 1048 211 1068T179 1107ZM255 -183Q255 -216 279 -246T347 -300T448 -336T575 -350Q634 -350 677 -336T748 -296T791 -239T805 -172Q805 -153 796 -134T760 -98T684 -67T556 -42Q507 -36 466 -28Q424 -20 387 -12Q341 -44 315 -69T275
-114T259 -151T255 -183ZM315 659Q315 609 327 565T364 487T429 435T522 415Q551 415 577 426T624 461T656 518T668 600Q668 651 655 695T615 773T551 825T461 845Q436 845 410 834T363 799T329 741T315 659Z" />
<glyph unicode="&#x11e;" glyph-name="Gbreve" horiz-adv-x="1232" d="M55 582Q55 748 108 879T255 1102T476 1242T752 1290Q785 1290 830 1283T924 1263T1017 1231T1095 1188Q1100 1184 1096 1170T1083 1135T1060 1091L1032 1045Q1019 1023 1006 1006T984 981L921
995Q888 1043 855 1076T785 1128T710 1156T628 1165Q603 1165 570 1155T501 1121T431 1057T369 959T325 821T308 637Q308 503 339 407T421 249T539 158T676 128Q731 128 774 138T853 165V470Q853 481 849 491T829 512T781 532T692 552V625H1190V552Q1133 538 1113
516T1093 470V169Q1019 108 955 70T834 9T728 -21T633 -30Q560 -30 489 -14T354 36T235 121T140 240T78 393T55 582ZM302 1688Q308 1697 317 1707T337 1726T358 1743T377 1755Q402 1709 436 1676T507 1620T583 1586T655 1575Q690 1575 729 1586T805 1619T877 1675T936
1755Q945 1751 955 1744T976 1727T996 1707T1012 1688Q982 1607 942 1550T856 1455T760 1401T659 1383Q604 1383 553 1400T456 1455T371 1549T302 1688Z" />
<glyph unicode="&#x11f;" glyph-name="gbreve" horiz-adv-x="1059" d="M15 -222Q15 -197 25 -171T64 -116T140 -52T266 25Q152 71 152 123Q152 134 161 152T192 195T249 250T334 314Q278 329 232 356T154 420T103 503T85 602Q85 675 121 740T217 854T356 931T523
960Q592 960 652 941T760 890Q847 901 917 923T1029 960L1057 923Q1054 912 1048 897T1034 867T1018 836T1000 808Q966 802 931 798T854 792Q875 757 886 720T898 641Q898 564 864 501T773 392T641 321T483 295H473Q435 260 425 239T414 211Q414 202 420 194T448
177T516 159T640 140Q757 125 834 104T956 52T1020 -17T1038 -105Q1038 -152 1017 -199T957 -289T868 -370T758 -434T634 -477T505 -493Q453 -493 397 -487T286 -466T182 -431T96 -379T37 -309T15 -222ZM170 1368Q176 1377 185 1387T205 1406T226 1423T245 1435Q270
1389 304 1356T375 1300T451 1266T523 1255Q558 1255 597 1266T673 1299T745 1355T804 1435Q813 1431 823 1424T844 1407T864 1387T880 1368Q850 1287 810 1230T724 1135T628 1081T527 1063Q472 1063 421 1080T324 1135T239 1229T170 1368ZM255 -183Q255 -216 279
-246T347 -300T448 -336T575 -350Q634 -350 677 -336T748 -296T791 -239T805 -172Q805 -153 796 -134T760 -98T684 -67T556 -42Q507 -36 466 -28Q424 -20 387 -12Q341 -44 315 -69T275 -114T259 -151T255 -183ZM315 659Q315 609 327 565T364 487T429 435T522 415Q551
415 577 426T624 461T656 518T668 600Q668 651 655 695T615 773T551 825T461 845Q436 845 410 834T363 799T329 741T315 659Z" />
<glyph unicode="&#x120;" glyph-name="Gdotaccent" horiz-adv-x="1232" d="M55 582Q55 748 108 879T255 1102T476 1242T752 1290Q785 1290 830 1283T924 1263T1017 1231T1095 1188Q1100 1184 1096 1170T1083 1135T1060 1091L1032 1045Q1019 1023 1006 1006T984
981L921 995Q888 1043 855 1076T785 1128T710 1156T628 1165Q603 1165 570 1155T501 1121T431 1057T369 959T325 821T308 637Q308 503 339 407T421 249T539 158T676 128Q731 128 774 138T853 165V470Q853 481 849 491T829 512T781 532T692 552V625H1190V552Q1133
538 1113 516T1093 470V169Q1019 108 955 70T834 9T728 -21T633 -30Q560 -30 489 -14T354 36T235 121T140 240T78 393T55 582ZM519 1493Q519 1530 532 1562T566 1618T616 1655T676 1669Q732 1669 763 1639T794 1548Q794 1511 782 1479T748 1423T699 1385T638 1371Q580
1371 550 1402T519 1493Z" />
<glyph unicode="&#x121;" glyph-name="gdotaccent" horiz-adv-x="1059" d="M15 -222Q15 -197 25 -171T64 -116T140 -52T266 25Q152 71 152 123Q152 134 161 152T192 195T249 250T334 314Q278 329 232 356T154 420T103 503T85 602Q85 675 121 740T217 854T356 931T523
960Q592 960 652 941T760 890Q847 901 917 923T1029 960L1057 923Q1054 912 1048 897T1034 867T1018 836T1000 808Q966 802 931 798T854 792Q875 757 886 720T898 641Q898 564 864 501T773 392T641 321T483 295H473Q435 260 425 239T414 211Q414 202 420 194T448
177T516 159T640 140Q757 125 834 104T956 52T1020 -17T1038 -105Q1038 -152 1017 -199T957 -289T868 -370T758 -434T634 -477T505 -493Q453 -493 397 -487T286 -466T182 -431T96 -379T37 -309T15 -222ZM255 -183Q255 -216 279 -246T347 -300T448 -336T575 -350Q634
-350 677 -336T748 -296T791 -239T805 -172Q805 -153 796 -134T760 -98T684 -67T556 -42Q507 -36 466 -28Q424 -20 387 -12Q341 -44 315 -69T275 -114T259 -151T255 -183ZM315 659Q315 609 327 565T364 487T429 435T522 415Q551 415 577 426T624 461T656 518T668
600Q668 651 655 695T615 773T551 825T461 845Q436 845 410 834T363 799T329 741T315 659ZM387 1213Q387 1250 400 1282T434 1338T484 1375T544 1389Q600 1389 631 1359T662 1268Q662 1231 650 1199T616 1143T567 1105T506 1091Q448 1091 418 1122T387 1213Z" />
<glyph unicode="&#x124;" glyph-name="Hcircumflex" horiz-adv-x="1399" d="M43 0V73Q111 87 145 103T180 134V1125Q180 1137 148 1155T43 1187V1260H568V1187Q500 1173 465 1156T430 1125V720H950V1125Q950 1137 918 1155T813 1187V1260H1338V1187Q1270 1173
1235 1156T1200 1125V134Q1200 122 1233 105T1338 73V0H813V73Q881 87 915 103T950 134V600H430V134Q430 122 462 105T568 73V0H43ZM350 1420L629 1744H751L1028 1420Q1016 1401 1002 1385T970 1360L689 1523L410 1360Q393 1368 379 1384T350 1420Z" />
<glyph unicode="&#x125;" glyph-name="hcircumflex" horiz-adv-x="1190" d="M48 0V73Q114 90 147 103T180 134V1268Q180 1310 178 1333T163 1370T123 1388T48 1400V1470Q104 1478 148 1486T231 1503T304 1524T376 1550L420 1509V782Q535 876 635 918T814 960Q857
960 897 947T967 903T1016 823T1035 704V134Q1035 127 1041 121T1062 107T1103 92T1168 73V0H663V73Q735 92 765 106T795 134V573Q795 634 789 673T769 736T734 768T682 778Q624 778 563 742T420 639V134Q420 119 454 103T553 73V0H48ZM267 1670L546 1994H668L945
1670Q933 1651 919 1635T887 1610L606 1773L327 1610Q310 1618 296 1634T267 1670Z" />
<glyph unicode="&#x128;" glyph-name="Itilde" horiz-adv-x="670" d="M-68 1396Q-50 1437 -25 1486T34 1577T107 1648T193 1677T280 1661T360 1624L431 1588Q465 1572 497 1572Q542 1572 575 1600T642 1687L719 1657Q701 1616 675 1568T616 1477T543 1407T456
1378Q413 1378 374 1394T298 1430T225 1466T150 1483Q127 1483 109 1476T75 1454T42 1418T7 1368L-68 1396ZM63 0V73Q131 87 165 103T200 134V1125Q200 1137 168 1155T63 1187V1260H588V1187Q520 1173 485 1156T450 1125V134Q450 122 483 105T588 73V0H63Z" />
<glyph unicode="&#x129;" glyph-name="itilde" horiz-adv-x="615" d="M-78 1116Q-60 1157 -35 1206T24 1297T97 1368T183 1397T270 1381T350 1344L421 1308Q455 1292 487 1292Q532 1292 565 1320T632 1407L709 1377Q691 1336 665 1288T606 1197T533 1127T446 1098Q403
1098 364 1114T288 1150T215 1186T140 1203Q117 1203 99 1196T65 1174T32 1138T-3 1088L-78 1116ZM63 0V73Q131 87 163 103T195 134V648Q195 699 194 730T182 779T143 805T63 818V888Q149 900 226 917T371 960H435V134Q435 122 465 105T568 73V0H63Z" />
<glyph unicode="&#x12a;" glyph-name="Imacron" horiz-adv-x="670" d="M19 1527Q22 1538 29 1556T45 1594L62 1630Q70 1648 75 1658H619L651 1627Q648 1616 641 1598T624 1559L607 1522L595 1495H51L19 1527ZM63 0V73Q131 87 165 103T200 134V1125Q200 1137 168
1155T63 1187V1260H588V1187Q520 1173 485 1156T450 1125V134Q450 122 483 105T588 73V0H63Z" />
<glyph unicode="&#x12b;" glyph-name="imacron" horiz-adv-x="615" d="M9 1207Q12 1218 19 1236T35 1274L52 1310Q60 1328 65 1338H609L641 1307Q638 1296 631 1278T614 1239L597 1202L585 1175H41L9 1207ZM63 0V73Q131 87 163 103T195 134V648Q195 699 194 730T182
779T143 805T63 818V888Q149 900 226 917T371 960H435V134Q435 122 465 105T568 73V0H63Z" />
<glyph unicode="&#x12c;" glyph-name="Ibreve" horiz-adv-x="670" d="M-30 1688Q-24 1697 -15 1707T5 1726T26 1743T45 1755Q70 1709 104 1676T175 1620T251 1586T323 1575Q358 1575 397 1586T473 1619T545 1675T604 1755Q613 1751 623 1744T644 1727T664 1707T680
1688Q650 1607 610 1550T524 1455T428 1401T327 1383Q272 1383 221 1400T124 1455T39 1549T-30 1688ZM63 0V73Q131 87 165 103T200 134V1125Q200 1137 168 1155T63 1187V1260H588V1187Q520 1173 485 1156T450 1125V134Q450 122 483 105T588 73V0H63Z" />
<glyph unicode="&#x12d;" glyph-name="ibreve" horiz-adv-x="615" d="M-40 1368Q-34 1377 -25 1387T-5 1406T16 1423T35 1435Q60 1389 94 1356T165 1300T241 1266T313 1255Q348 1255 387 1266T463 1299T535 1355T594 1435Q603 1431 613 1424T634 1407T654 1387T670
1368Q640 1287 600 1230T514 1135T418 1081T317 1063Q262 1063 211 1080T114 1135T29 1229T-40 1368ZM63 0V73Q131 87 163 103T195 134V648Q195 699 194 730T182 779T143 805T63 818V888Q149 900 226 917T371 960H435V134Q435 122 465 105T568 73V0H63Z" />
<glyph unicode="&#x130;" glyph-name="Idot" horiz-adv-x="670" d="M63 0V73Q131 87 165 103T200 134V1125Q200 1137 168 1155T63 1187V1260H588V1187Q520 1173 485 1156T450 1125V134Q450 122 483 105T588 73V0H63ZM187 1493Q187 1530 200 1562T234 1618T284
1655T344 1669Q400 1669 431 1639T462 1548Q462 1511 450 1479T416 1423T367 1385T306 1371Q248 1371 218 1402T187 1493Z" />
<glyph unicode="&#x131;" glyph-name="dotlessi" horiz-adv-x="615" d="M63 0V73Q131 87 163 103T195 134V648Q195 699 194 730T182 779T143 805T63 818V888Q149 900 226 917T371 960H435V134Q435 122 465 105T568 73V0H63Z" />
<glyph unicode="&#x132;" glyph-name="IJ" horiz-adv-x="1355" d="M63 0V73Q131 87 165 103T200 134V1125Q200 1137 168 1155T63 1187V1260H588V1187Q520 1173 485 1156T450 1125V134Q450 122 483 105T588 73V0H63ZM405 -334T405 -323T426 -288T475 -237T531 -190T573
-163Q629 -211 676 -230T762 -250Q788 -250 813 -238T859 -188T892 -78T905 111V1125Q905 1131 899 1138T872 1153T815 1169T718 1187V1260H1293V1187Q1225 1173 1190 1156T1155 1125V183Q1155 73 1133 -6T1077 -142T1000 -239T919 -311Q892 -333 859 -352T789
-386T716 -409T645 -418Q600 -418 557 -408T481 -382T426 -351Z" />
<glyph unicode="&#x133;" glyph-name="ij" horiz-adv-x="1205" d="M63 0V73Q131 87 163 103T195 134V648Q195 699 194 730T182 779T143 805T63 818V888Q149 900 226 917T371 960H435V134Q435 122 465 105T568 73V0H63ZM168 1220Q168 1254 181 1282T216 1329T269
1360T335 1371Q362 1371 387 1365T431 1345T461 1311T473 1261Q473 1227 460 1199T425 1151T372 1120T305 1109Q277 1109 252 1115T209 1136T179 1170T168 1220ZM327 -401Q327 -387 348 -362T398 -312T455 -266T499 -238Q515 -258 538 -273T585 -298T632 -314T675
-320Q701 -320 724 -306T766 -252T794 -141T805 43V648Q805 699 804 730T791 778T752 804T673 818V888Q726 895 765 902T839 918T906 937L978 960H1045V107Q1045 -9 1025 -88T972 -222T899 -315T818 -385Q791 -406 758 -425T691 -460T623 -484T561 -493Q522 -493
481 -483T405 -459T349 -428T327 -401ZM781 1220Q781 1254 794 1282T830 1329T883 1360T949 1371Q976 1371 1001 1365T1044 1345T1074 1311T1086 1261Q1086 1227 1074 1199T1039 1151T986 1120T919 1109Q891 1109 866 1115T822 1136T792 1170T781 1220Z" />
<glyph unicode="&#x139;" glyph-name="Lacute" horiz-adv-x="1043" d="M43 0V73Q111 87 145 103T180 134V1125Q180 1137 148 1155T43 1187V1260H568V1187Q500 1173 465 1156T430 1125V194Q430 176 438 163T468 140T525 125T616 120H729Q775 120 806 131T862 166T905
231T946 330L1019 304Q1015 261 1010 214T999 124T988 48T978 0H43ZM298 1427L663 1767Q686 1755 714 1738L768 1706Q793 1691 813 1677T841 1655L850 1603L366 1360Q349 1368 331 1388T298 1427Z" />
<glyph unicode="&#x13a;" glyph-name="lacute" horiz-adv-x="615" d="M53 0V73Q96 80 123 87T167 102T189 118T195 134V1266Q195 1311 190 1336T171 1373T131 1390T63 1400V1470Q113 1477 156 1484T238 1501T315 1522T392 1550L435 1509V134Q435 126 442 119T465
103T509 88T578 73V0H53ZM115 1747L480 2087Q503 2075 531 2058L584 2026Q610 2011 630 1997T658 1975L667 1923L183 1680Q166 1688 148 1708T115 1747Z" />
<glyph unicode="&#x141;" glyph-name="Lslash" horiz-adv-x="1043" d="M25 428Q27 443 32 461T43 498T56 532T69 557L180 613V1125Q180 1137 148 1155T43 1187V1260H568V1187Q500 1173 465 1156T430 1125V738L715 882L741 857Q738 842 733 825T722 790T709 758T695
731L430 597V194Q430 176 438 163T468 140T525 125T616 120H729Q775 120 806 131T862 166T905 231T946 330L1019 304Q1015 261 1010 214T999 124T988 48T978 0H43V73Q111 87 145 103T180 134V470L52 406L25 428Z" />
<glyph unicode="&#x142;" glyph-name="lslash" horiz-adv-x="650" d="M36 533Q38 549 43 570T54 612T68 652T81 685L213 776V1274Q213 1319 208 1344T189 1381T148 1398T80 1408V1478Q130 1485 173 1492T255 1509T332 1530T409 1558L453 1516V943L605 1050L630
1027Q628 1010 623 990T611 949T597 909T583 877L453 785V134Q453 126 460 119T483 103T527 88T595 73V0H70V73Q113 80 141 87T185 102T207 118T213 134V617L62 512L36 533Z" />
<glyph unicode="&#x143;" glyph-name="Nacute" horiz-adv-x="1359" d="M43 0V73Q116 82 148 101T180 134V1114Q115 1175 43 1187V1260H322Q337 1260 346 1258T366 1247T388 1224L418 1182L1030 334V1125Q1030 1131 1024 1139T1002 1156T960 1173T893 1187V1260H1318V1187Q1246
1177 1213 1158T1180 1125V-30Q1084 -22 1026 7T941 74L330 920V134Q330 128 337 120T360 103T403 86T468 73V0H43ZM480 1427L845 1767Q868 1755 896 1738L950 1706Q975 1691 995 1677T1023 1655L1032 1603L548 1360Q531 1368 513 1388T480 1427Z" />
<glyph unicode="&#x144;" glyph-name="nacute" horiz-adv-x="1190" d="M48 0V73Q114 90 147 103T180 134V689Q180 728 179 751T165 787T126 806T48 818V888Q96 893 137 900T217 915T291 935T363 960L405 918L416 774Q533 874 634 917T814 960Q857 960 897 947T967
903T1016 823T1035 704V134Q1035 127 1041 121T1062 107T1103 92T1168 73V0H663V73Q735 92 765 106T795 134V588Q795 643 790 679T772 738T740 769T690 778Q666 778 639 772T580 750T508 707T420 639V134Q420 119 454 103T553 73V0H48ZM460 1083L671 1512Q683 1511
715 1507T785 1496T855 1484T899 1474L929 1420L547 1040Q538 1041 526 1046T500 1058T477 1071T460 1083Z" />
<glyph unicode="&#x147;" glyph-name="Ncaron" horiz-adv-x="1359" d="M43 0V73Q116 82 148 101T180 134V1114Q115 1175 43 1187V1260H322Q337 1260 346 1258T366 1247T388 1224L418 1182L1030 334V1125Q1030 1131 1024 1139T1002 1156T960 1173T893 1187V1260H1318V1187Q1246
1177 1213 1158T1180 1125V-30Q1084 -22 1026 7T941 74L330 920V134Q330 128 337 120T360 103T403 86T468 73V0H43ZM340 1713Q354 1733 368 1749T400 1775L683 1587L960 1775Q977 1766 991 1750T1018 1713L749 1384H612L340 1713Z" />
<glyph unicode="&#x148;" glyph-name="ncaron" horiz-adv-x="1190" d="M48 0V73Q114 90 147 103T180 134V689Q180 728 179 751T165 787T126 806T48 818V888Q96 893 137 900T217 915T291 935T363 960L405 918L416 774Q533 874 634 917T814 960Q857 960 897 947T967
903T1016 823T1035 704V134Q1035 127 1041 121T1062 107T1103 92T1168 73V0H663V73Q735 92 765 106T795 134V588Q795 643 790 679T772 738T740 769T690 778Q666 778 639 772T580 750T508 707T420 639V134Q420 119 454 103T553 73V0H48ZM264 1445Q276 1465 290 1485T322
1513L604 1295L882 1513Q899 1505 917 1485T949 1445L671 1064H534L264 1445Z" />
<glyph unicode="&#x14a;" glyph-name="Eng" horiz-adv-x="1332" d="M42 0V73Q110 87 145 103T180 134V1000Q180 1039 179 1063T165 1102T126 1124T48 1137V1210Q83 1214 127 1222T218 1240T309 1263T388 1290L430 1248V1026Q512 1104 581 1155T712 1236T829 1278T939
1290Q982 1290 1028 1277T1112 1230T1175 1135T1200 981V277Q1200 173 1182 91T1130 -60T1046 -185T934 -296Q907 -318 871 -340T793 -379T702 -407T601 -418Q557 -418 506 -406T411 -376T338 -338T308 -302Q308 -296 320 -282T350 -250T392 -210L436 -172Q458
-154 476 -141T505 -124Q533 -151 561 -175T620 -217T682 -246T749 -257Q792 -257 829 -229T893 -141T935 9T950 224V872Q950 942 943 986T919 1055T876 1089T812 1098Q783 1098 746 1087T661 1047T557 968T430 838V134Q430 122 466 105T575 73V0H42Z" />
<glyph unicode="&#x14b;" glyph-name="eng" horiz-adv-x="1150" d="M48 0V73Q114 90 147 103T180 134V689Q180 731 177 754T161 789T122 807T48 818V889Q82 891 125 897T211 913T295 935T363 961L405 919L415 774Q532 874 634 917T814 960Q863 960 903 944T973
896T1018 820T1035 719V111Q1035 7 1019 -67T974 -196T904 -293T815 -373Q788 -394 753 -415T678 -454T594 -482T502 -493Q451 -493 401 -481T312 -451T247 -414T222 -379Q222 -367 246 -341T302 -285T367 -232T417 -200Q440 -227 468 -250T524 -292T579 -320T627
-331Q647 -331 675 -320T730 -272T776 -162T795 35V588Q795 643 790 679T772 737T740 768T690 777Q666 777 639 771T580 750T508 707T420 639V134Q420 119 454 103T553 73V0H48Z" />
<glyph unicode="&#x14c;" glyph-name="Omacron" horiz-adv-x="1274" d="M55 612Q55 748 99 871T223 1087T413 1235T656 1290T889 1236T1059 1091T1163 885T1198 647Q1198 556 1176 471T1115 311T1020 173T898 65T755 -5T598 -30Q472 -30 371 23T200 165T93 370T55
612ZM222 1487Q225 1498 232 1516T248 1554L265 1590Q273 1608 278 1618H1042L1074 1587Q1071 1576 1064 1558T1047 1519L1030 1482L1018 1455H254L222 1487ZM308 641Q308 529 334 431T406 261T512 147T642 105Q708 105 763 137T859 234T923 398T946 629Q946 732
922 828T852 998T744 1116T604 1160Q532 1160 477 1125T384 1023T327 860T308 641Z" />
<glyph unicode="&#x14d;" glyph-name="omacron" horiz-adv-x="1075" d="M65 444Q65 543 101 636T203 801T359 916T558 960Q660 960 743 924T886 825T978 674T1010 485Q1010 418 992 354T942 233T864 128T765 44T648 -10T519 -30Q416 -30 332 6T189 105T98 255T65
444ZM143 1207Q146 1218 153 1236T169 1274L186 1310Q194 1328 199 1338H963L995 1307Q992 1296 985 1278T968 1239L951 1202L939 1175H175L143 1207ZM318 473Q318 394 336 325T386 205T459 125T547 95Q607 95 647 118T712 185T747 293T758 440Q758 519 742 590T695
716T623 803T529 835Q467 835 426 808T361 732T328 617T318 473Z" />
<glyph unicode="&#x14e;" glyph-name="Obreve" horiz-adv-x="1274" d="M55 612Q55 748 99 871T223 1087T413 1235T656 1290T889 1236T1059 1091T1163 885T1198 647Q1198 556 1176 471T1115 311T1020 173T898 65T755 -5T598 -30Q472 -30 371 23T200 165T93 370T55
612ZM283 1688Q289 1697 298 1707T318 1726T339 1743T358 1755Q383 1709 417 1676T488 1620T564 1586T636 1575Q671 1575 710 1586T786 1619T858 1675T917 1755Q926 1751 936 1744T957 1727T977 1707T993 1688Q963 1607 923 1550T837 1455T741 1401T640 1383Q585
1383 534 1400T437 1455T352 1549T283 1688ZM308 641Q308 529 334 431T406 261T512 147T642 105Q708 105 763 137T859 234T923 398T946 629Q946 732 922 828T852 998T744 1116T604 1160Q532 1160 477 1125T384 1023T327 860T308 641Z" />
<glyph unicode="&#x14f;" glyph-name="obreve" horiz-adv-x="1075" d="M65 444Q65 543 101 636T203 801T359 916T558 960Q660 960 743 924T886 825T978 674T1010 485Q1010 418 992 354T942 233T864 128T765 44T648 -10T519 -30Q416 -30 332 6T189 105T98 255T65
444ZM204 1368Q210 1377 219 1387T239 1406T260 1423T279 1435Q304 1389 338 1356T409 1300T485 1266T557 1255Q592 1255 631 1266T707 1299T779 1355T838 1435Q847 1431 857 1424T878 1407T898 1387T914 1368Q884 1287 844 1230T758 1135T662 1081T561 1063Q506
1063 455 1080T358 1135T273 1229T204 1368ZM318 473Q318 394 336 325T386 205T459 125T547 95Q607 95 647 118T712 185T747 293T758 440Q758 519 742 590T695 716T623 803T529 835Q467 835 426 808T361 732T328 617T318 473Z" />
<glyph unicode="&#x150;" glyph-name="Ohungarumlaut" horiz-adv-x="1274" d="M55 612Q55 748 99 871T223 1087T413 1235T656 1290T889 1236T1059 1091T1163 885T1198 647Q1198 556 1176 471T1115 311T1020 173T898 65T755 -5T598 -30Q472 -30 371 23T200 165T93
370T55 612ZM308 641Q308 529 334 431T406 261T512 147T642 105Q708 105 763 137T859 234T923 398T946 629Q946 732 922 828T852 998T744 1116T604 1160Q532 1160 477 1125T384 1023T327 860T308 641ZM389 1402L543 1824Q555 1822 579 1820T630 1814T680 1807T714
1799L744 1743L476 1360Q459 1364 434 1377T389 1402ZM710 1402L863 1824Q875 1822 899 1820T950 1814T1000 1807T1035 1799L1064 1743L797 1360Q780 1364 755 1377T710 1402Z" />
<glyph unicode="&#x151;" glyph-name="ohungarumlaut" horiz-adv-x="1075" d="M65 444Q65 543 101 636T203 801T359 916T558 960Q660 960 743 924T886 825T978 674T1010 485Q1010 418 992 354T942 233T864 128T765 44T648 -10T519 -30Q416 -30 332 6T189 105T98
255T65 444ZM310 1082L464 1504Q476 1502 500 1500T551 1494T601 1487T635 1479L665 1423L397 1040Q380 1044 355 1057T310 1082ZM318 473Q318 394 336 325T386 205T459 125T547 95Q607 95 647 118T712 185T747 293T758 440Q758 519 742 590T695 716T623 803T529
835Q467 835 426 808T361 732T328 617T318 473ZM631 1082L784 1504Q796 1502 820 1500T871 1494T921 1487T956 1479L985 1423L718 1040Q701 1044 676 1057T631 1082Z" />
<glyph unicode="&#x152;" glyph-name="OE" horiz-adv-x="1726" d="M55 612Q55 748 100 871T225 1087T416 1235T656 1290Q696 1290 725 1286T779 1276T830 1266T889 1260H1574L1614 1228Q1612 1202 1608 1163T1598 1083T1586 1006T1573 950H1498Q1493 1043 1473
1091T1416 1140H1090V735H1477L1511 700L1492 667L1468 629Q1455 610 1443 594T1419 570Q1404 585 1387 595T1347 612T1294 622T1221 625H1090V184Q1090 169 1095 158T1121 138T1179 125T1284 120H1383Q1429 120 1461 131T1519 166T1564 231T1606 330L1679 304Q1675
261 1670 214T1659 124T1648 48T1638 0H880Q827 -1 793 -5T731 -15T672 -25T598 -30Q473 -30 373 23T202 165T93 370T55 612ZM308 641Q308 529 334 431T405 261T511 147T642 105Q679 105 706 108T757 117T799 134T840 159V1067Q793 1115 731 1138T604 1161Q533
1161 478 1126T385 1023T328 860T308 641Z" />
<glyph unicode="&#x153;" glyph-name="oe" horiz-adv-x="1650" d="M65 444Q65 510 81 574T128 695T202 801T300 885T417 940T550 960Q651 960 736 920T880 807Q917 847 965 880Q1010 911 1075 935T1216 960Q1287 960 1342 942T1438 892T1507 819T1552 732T1577
640T1585 550Q1575 540 1559 528T1525 505T1487 483T1451 467H984Q987 398 1004 338T1052 234T1130 165T1237 140Q1265 140 1293 144T1356 161T1431 197T1525 259Q1531 256 1539 247T1556 228L1569 208Q1575 199 1577 195Q1511 122 1456 78T1350 9T1250 -22T1149
-30Q1064 -30 984 14T845 138Q778 61 689 16T498 -30Q404 -30 325 6T188 105T98 255T65 444ZM308 481Q308 402 327 332T379 209T454 126T543 95Q597 95 635 121T698 195T734 309T746 455T729 604T681 725T607 805T513 835Q459 835 421 810T357 738T320 626T308
481ZM986 580H1320Q1342 580 1350 587T1359 616Q1359 643 1353 681T1329 755T1277 816T1188 841Q1103 841 1051 773T986 580Z" />
<glyph unicode="&#x154;" glyph-name="Racute" horiz-adv-x="1239" d="M30 1230Q136 1253 260 1271T529 1290Q665 1290 760 1267T916 1203T1004 1107T1032 987Q1032 918 1012 861T955 757T867 676T753 620L1068 184Q1084 163 1098 150T1130 131T1171 123T1229
125L1244 52Q1211 41 1170 30T1089 8T1014 -8T960 -14Q931 -14 904 2T862 41L575 586Q565 585 555 585H536Q510 585 484 587T430 596V134Q430 122 462 105T568 73V0H43V73Q111 87 145 103T180 134V1157L110 1148Q75 1143 43 1138L30 1230ZM359 1427L724 1767Q747
1755 775 1738L828 1706Q854 1691 874 1677T902 1655L911 1603L427 1360Q410 1368 392 1388T359 1427ZM430 706Q457 701 477 700T519 699Q654 699 717 767T780 956Q780 1002 766 1043T719 1116T628 1166T485 1184Q472 1184 458 1184T430 1182V706Z" />
<glyph unicode="&#x155;" glyph-name="racute" horiz-adv-x="909" d="M48 0V73Q180 103 180 134V664Q180 697 178 719T173 756T166 778T157 791Q150 798 143 802T124 810T94 814T48 818V888Q103 896 143 903T219 918T287 936T363 960L405 918L418 773Q445 812
479 846T551 905T632 945T717 960Q755 960 796 949T875 916Q881 912 881 891T877 838T864 769T847 695T828 628T810 579H737Q734 619 725 655T703 717T670 759T626 775Q606 775 583 768T533 739T479 677T420 571V134Q420 119 461 103T597 73V0H48ZM356 1083L567
1512Q579 1511 611 1507T681 1496T751 1484T795 1474L825 1420L443 1040Q434 1041 422 1046T396 1058T373 1071T356 1083Z" />
<glyph unicode="&#x158;" glyph-name="Rcaron" horiz-adv-x="1239" d="M30 1230Q136 1253 260 1271T529 1290Q665 1290 760 1267T916 1203T1004 1107T1032 987Q1032 918 1012 861T955 757T867 676T753 620L1068 184Q1084 163 1098 150T1130 131T1171 123T1229
125L1244 52Q1211 41 1170 30T1089 8T1014 -8T960 -14Q931 -14 904 2T862 41L575 586Q565 585 555 585H536Q510 585 484 587T430 596V134Q430 122 462 105T568 73V0H43V73Q111 87 145 103T180 134V1157L110 1148Q75 1143 43 1138L30 1230ZM219 1713Q233 1733 247
1749T279 1775L562 1587L839 1775Q856 1766 870 1750T897 1713L628 1384H491L219 1713ZM430 706Q457 701 477 700T519 699Q654 699 717 767T780 956Q780 1002 766 1043T719 1116T628 1166T485 1184Q472 1184 458 1184T430 1182V706Z" />
<glyph unicode="&#x159;" glyph-name="rcaron" horiz-adv-x="909" d="M48 0V73Q180 103 180 134V664Q180 697 178 719T173 756T166 778T157 791Q150 798 143 802T124 810T94 814T48 818V888Q103 896 143 903T219 918T287 936T363 960L405 918L418 773Q445 812
479 846T551 905T632 945T717 960Q755 960 796 949T875 916Q881 912 881 891T877 838T864 769T847 695T828 628T810 579H737Q734 619 725 655T703 717T670 759T626 775Q606 775 583 768T533 739T479 677T420 571V134Q420 119 461 103T597 73V0H48ZM160 1445Q172
1465 186 1485T218 1513L500 1295L778 1513Q795 1505 813 1485T845 1445L567 1064H430L160 1445Z" />
<glyph unicode="&#x15a;" glyph-name="Sacute" horiz-adv-x="1050" d="M102 158T102 191T105 259T112 326T124 384L195 379Q218 320 251 271T325 187T413 133T511 113Q556 113 598 126T672 163T723 224T743 309Q743 370 716 414T645 493T544 556L428 612Q368 639
312 669T211 740T139 834T112 960Q112 1007 138 1064T220 1172T363 1256T571 1290Q625 1290 677 1283T774 1264T853 1235T906 1198Q911 1194 909 1180T900 1147T883 1106T861 1064T839 1028T820 1005L754 1011Q732 1058 704 1089T644 1140T580 1167T520 1175Q470
1175 435 1162T376 1127T343 1078T332 1022Q332 975 359 939T431 871T533 811L650 753Q710 723 767 688T868 609T940 508T968 377Q968 332 955 285T914 193T846 107T750 36T625 -12T470 -30Q434 -30 388 -23T293 -4T198 27T116 68Q111 70 108 87T104 131ZM335 1427L700
1767Q723 1755 751 1738L804 1706Q830 1691 850 1677T878 1655L887 1603L403 1360Q386 1368 368 1388T335 1427Z" />
<glyph unicode="&#x15b;" glyph-name="sacute" horiz-adv-x="858" d="M76 111T77 156T82 250T97 336L178 325Q188 272 211 229T266 156T337 110T420 93Q492 93 527 119T562 205Q562 245 542 277T487 336T410 386L321 434Q279 455 238 480T163 537T109 607T88 693Q88
755 118 804T199 888T313 941T445 960Q488 960 531 955T615 939T689 915T746 883Q752 878 749 850T736 786T713 716T688 666L619 674Q594 762 547 808T434 855Q374 855 341 828T308 758Q308 726 324 701T369 654T442 610L537 559Q580 537 624 512T703 455T760 381T782
283Q782 212 761 162T705 76T627 20T540 -12T455 -26T385 -30Q353 -30 316 -26T239 -12T162 11T90 43Q83 46 80 78ZM282 1083L493 1512Q505 1511 537 1507T607 1496T677 1484T721 1474L751 1420L369 1040Q360 1041 348 1046T322 1058T299 1071T282 1083Z" />
<glyph unicode="&#x15c;" glyph-name="Scircumflex" horiz-adv-x="1050" d="M102 158T102 191T105 259T112 326T124 384L195 379Q218 320 251 271T325 187T413 133T511 113Q556 113 598 126T672 163T723 224T743 309Q743 370 716 414T645 493T544 556L428 612Q368
639 312 669T211 740T139 834T112 960Q112 1007 138 1064T220 1172T363 1256T571 1290Q625 1290 677 1283T774 1264T853 1235T906 1198Q911 1194 909 1180T900 1147T883 1106T861 1064T839 1028T820 1005L754 1011Q732 1058 704 1089T644 1140T580 1167T520 1175Q470
1175 435 1162T376 1127T343 1078T332 1022Q332 975 359 939T431 871T533 811L650 753Q710 723 767 688T868 609T940 508T968 377Q968 332 955 285T914 193T846 107T750 36T625 -12T470 -30Q434 -30 388 -23T293 -4T198 27T116 68Q111 70 108 87T104 131ZM195 1420L474
1744H596L873 1420Q861 1401 847 1385T815 1360L534 1523L255 1360Q238 1368 224 1384T195 1420Z" />
<glyph unicode="&#x15d;" glyph-name="scircumflex" horiz-adv-x="858" d="M76 111T77 156T82 250T97 336L178 325Q188 272 211 229T266 156T337 110T420 93Q492 93 527 119T562 205Q562 245 542 277T487 336T410 386L321 434Q279 455 238 480T163 537T109 607T88
693Q88 755 118 804T199 888T313 941T445 960Q488 960 531 955T615 939T689 915T746 883Q752 878 749 850T736 786T713 716T688 666L619 674Q594 762 547 808T434 855Q374 855 341 828T308 758Q308 726 324 701T369 654T442 610L537 559Q580 537 624 512T703 455T760
381T782 283Q782 212 761 162T705 76T627 20T540 -12T455 -26T385 -30Q353 -30 316 -26T239 -12T162 11T90 43Q83 46 80 78ZM83 1107L362 1494H499L768 1107Q756 1088 742 1068T710 1040L429 1263L150 1040Q133 1048 115 1068T83 1107Z" />
<glyph unicode="&#x160;" glyph-name="Scaron" horiz-adv-x="1050" d="M102 158T102 191T105 259T112 326T124 384L195 379Q218 320 251 271T325 187T413 133T511 113Q556 113 598 126T672 163T723 224T743 309Q743 370 716 414T645 493T544 556L428 612Q368 639
312 669T211 740T139 834T112 960Q112 1007 138 1064T220 1172T363 1256T571 1290Q625 1290 677 1283T774 1264T853 1235T906 1198Q911 1194 909 1180T900 1147T883 1106T861 1064T839 1028T820 1005L754 1011Q732 1058 704 1089T644 1140T580 1167T520 1175Q470
1175 435 1162T376 1127T343 1078T332 1022Q332 975 359 939T431 871T533 811L650 753Q710 723 767 688T868 609T940 508T968 377Q968 332 955 285T914 193T846 107T750 36T625 -12T470 -30Q434 -30 388 -23T293 -4T198 27T116 68Q111 70 108 87T104 131ZM195 1713Q209
1733 223 1749T255 1775L538 1587L815 1775Q832 1766 846 1750T873 1713L604 1384H467L195 1713Z" />
<glyph unicode="&#x161;" glyph-name="scaron" horiz-adv-x="858" d="M76 111T77 156T82 250T97 336L178 325Q188 272 211 229T266 156T337 110T420 93Q492 93 527 119T562 205Q562 245 542 277T487 336T410 386L321 434Q279 455 238 480T163 537T109 607T88 693Q88
755 118 804T199 888T313 941T445 960Q488 960 531 955T615 939T689 915T746 883Q752 878 749 850T736 786T713 716T688 666L619 674Q594 762 547 808T434 855Q374 855 341 828T308 758Q308 726 324 701T369 654T442 610L537 559Q580 537 624 512T703 455T760 381T782
283Q782 212 761 162T705 76T627 20T540 -12T455 -26T385 -30Q353 -30 316 -26T239 -12T162 11T90 43Q83 46 80 78ZM86 1445Q98 1465 112 1485T144 1513L426 1295L704 1513Q721 1505 739 1485T771 1445L493 1064H356L86 1445Z" />
<glyph unicode="&#x164;" glyph-name="Tcaron" horiz-adv-x="1188" d="M3 958Q5 987 9 1028T20 1112L32 1194Q38 1234 43 1260H1113L1151 1228Q1150 1202 1147 1166T1138 1090T1126 1011T1113 940H1038Q1028 986 1022 1023T1007 1086T987 1126T953 1140H706V145Q706
139 713 131T738 112T786 92T863 73V0H300V73Q346 82 376 92T424 111T449 129T456 145V1140H202Q187 1140 174 1130T146 1094T115 1029T76 931L3 958ZM236 1713Q250 1733 264 1749T296 1775L579 1587L856 1775Q873 1766 887 1750T914 1713L645 1384H508L236 1713Z"
/>
<glyph unicode="&#x168;" glyph-name="Utilde" horiz-adv-x="1369" d="M43 1187V1260H568V1187Q500 1173 465 1156T430 1125V509Q430 413 447 340T501 216T597 141T743 115Q814 115 863 147T942 232T986 354T1000 498V1125Q1000 1137 968 1155T863 1187V1260H1313V1187Q1245
1173 1210 1156T1175 1125V524Q1175 393 1139 290T1036 116T880 8T681 -30Q578 -30 487 -2T328 85T220 233T180 444V1125Q180 1137 148 1155T43 1187ZM299 1396Q317 1437 342 1486T401 1577T474 1648T560 1677T647 1661T726 1624L798 1588Q832 1572 864 1572Q909
1572 942 1600T1009 1687L1086 1657Q1068 1616 1042 1568T983 1477T910 1407T823 1378Q780 1378 741 1394T665 1430T592 1466T517 1483Q494 1483 476 1476T442 1454T409 1418T374 1368L299 1396Z" />
<glyph unicode="&#x169;" glyph-name="utilde" horiz-adv-x="1153" d="M34 832V902Q84 906 125 911T205 922T280 938T360 960L395 914V342Q395 280 402 241T425 181T461 151T511 143Q532 143 556 148T610 166T674 203T750 262V689Q750 734 747 761T730 803T691
824T618 832V902Q718 911 799 926T953 960L990 914V284Q990 253 991 233T994 199T1001 177T1013 164Q1025 156 1046 160T1119 187L1144 112Q1107 88 1063 63T977 17T903 -17T858 -30Q840 -30 824 -24T793 1T767 52T750 136Q688 82 639 50T549 -1T474 -24T408 -30Q361
-30 316 -17T235 30T177 125T155 279V689Q155 737 154 763T141 803T105 822T34 832ZM184 1116Q202 1157 227 1206T286 1297T359 1368T445 1397T532 1381T612 1344L683 1308Q717 1292 749 1292Q794 1292 827 1320T894 1407L971 1377Q953 1336 927 1288T868 1197T795
1127T708 1098Q665 1098 626 1114T550 1150T477 1186T402 1203Q379 1203 361 1196T327 1174T294 1138T259 1088L184 1116Z" />
<glyph unicode="&#x16a;" glyph-name="Umacron" horiz-adv-x="1369" d="M43 1187V1260H568V1187Q500 1173 465 1156T430 1125V509Q430 413 447 340T501 216T597 141T743 115Q814 115 863 147T942 232T986 354T1000 498V1125Q1000 1137 968 1155T863 1187V1260H1313V1187Q1245
1173 1210 1156T1175 1125V524Q1175 393 1139 290T1036 116T880 8T681 -30Q578 -30 487 -2T328 85T220 233T180 444V1125Q180 1137 148 1155T43 1187ZM276 1487Q279 1498 286 1516T302 1554L319 1590Q327 1608 332 1618H1096L1128 1587Q1125 1576 1118 1558T1101
1519L1084 1482L1072 1455H308L276 1487Z" />
<glyph unicode="&#x16b;" glyph-name="umacron" horiz-adv-x="1153" d="M34 832V902Q84 906 125 911T205 922T280 938T360 960L395 914V342Q395 280 402 241T425 181T461 151T511 143Q532 143 556 148T610 166T674 203T750 262V689Q750 734 747 761T730 803T691
824T618 832V902Q718 911 799 926T953 960L990 914V284Q990 253 991 233T994 199T1001 177T1013 164Q1025 156 1046 160T1119 187L1144 112Q1107 88 1063 63T977 17T903 -17T858 -30Q840 -30 824 -24T793 1T767 52T750 136Q688 82 639 50T549 -1T474 -24T408 -30Q361
-30 316 -17T235 30T177 125T155 279V689Q155 737 154 763T141 803T105 822T34 832ZM161 1207Q164 1218 171 1236T187 1274L204 1310Q212 1328 217 1338H981L1013 1307Q1010 1296 1003 1278T986 1239L969 1202L957 1175H193L161 1207Z" />
<glyph unicode="&#x16c;" glyph-name="Ubreve" horiz-adv-x="1369" d="M43 1187V1260H568V1187Q500 1173 465 1156T430 1125V509Q430 413 447 340T501 216T597 141T743 115Q814 115 863 147T942 232T986 354T1000 498V1125Q1000 1137 968 1155T863 1187V1260H1313V1187Q1245
1173 1210 1156T1175 1125V524Q1175 393 1139 290T1036 116T880 8T681 -30Q578 -30 487 -2T328 85T220 233T180 444V1125Q180 1137 148 1155T43 1187ZM337 1688Q343 1697 352 1707T372 1726T393 1743T412 1755Q437 1709 471 1676T542 1620T618 1586T690 1575Q725
1575 764 1586T840 1619T912 1675T971 1755Q980 1751 990 1744T1011 1727T1031 1707T1047 1688Q1017 1607 977 1550T891 1455T795 1401T694 1383Q639 1383 588 1400T491 1455T406 1549T337 1688Z" />
<glyph unicode="&#x16d;" glyph-name="ubreve" horiz-adv-x="1153" d="M34 832V902Q84 906 125 911T205 922T280 938T360 960L395 914V342Q395 280 402 241T425 181T461 151T511 143Q532 143 556 148T610 166T674 203T750 262V689Q750 734 747 761T730 803T691
824T618 832V902Q718 911 799 926T953 960L990 914V284Q990 253 991 233T994 199T1001 177T1013 164Q1025 156 1046 160T1119 187L1144 112Q1107 88 1063 63T977 17T903 -17T858 -30Q840 -30 824 -24T793 1T767 52T750 136Q688 82 639 50T549 -1T474 -24T408 -30Q361
-30 316 -17T235 30T177 125T155 279V689Q155 737 154 763T141 803T105 822T34 832ZM222 1368Q228 1377 237 1387T257 1406T278 1423T297 1435Q322 1389 356 1356T427 1300T503 1266T575 1255Q610 1255 649 1266T725 1299T797 1355T856 1435Q865 1431 875 1424T896
1407T916 1387T932 1368Q902 1287 862 1230T776 1135T680 1081T579 1063Q524 1063 473 1080T376 1135T291 1229T222 1368Z" />
<glyph unicode="&#x16e;" glyph-name="Uring" horiz-adv-x="1369" d="M43 1187V1260H568V1187Q500 1173 465 1156T430 1125V509Q430 413 447 340T501 216T597 141T743 115Q814 115 863 147T942 232T986 354T1000 498V1125Q1000 1137 968 1155T863 1187V1260H1313V1187Q1245
1173 1210 1156T1175 1125V524Q1175 393 1139 290T1036 116T880 8T681 -30Q578 -30 487 -2T328 85T220 233T180 444V1125Q180 1137 148 1155T43 1187ZM483 1524Q483 1578 503 1625T556 1707T632 1763T723 1783Q763 1783 796 1770T852 1733T887 1676T900 1604Q900
1551 880 1504T827 1423T750 1368T661 1348Q622 1348 589 1360T533 1396T496 1451T483 1524ZM618 1565Q618 1519 638 1494T682 1469Q722 1469 743 1496T765 1563Q765 1611 745 1636T702 1662Q681 1662 666 1654T640 1632T624 1601T618 1565Z" />
<glyph unicode="&#x16f;" glyph-name="uring" horiz-adv-x="1153" d="M34 832V902Q84 906 125 911T205 922T280 938T360 960L395 914V342Q395 280 402 241T425 181T461 151T511 143Q532 143 556 148T610 166T674 203T750 262V689Q750 734 747 761T730 803T691
824T618 832V902Q718 911 799 926T953 960L990 914V284Q990 253 991 233T994 199T1001 177T1013 164Q1025 156 1046 160T1119 187L1144 112Q1107 88 1063 63T977 17T903 -17T858 -30Q840 -30 824 -24T793 1T767 52T750 136Q688 82 639 50T549 -1T474 -24T408 -30Q361
-30 316 -17T235 30T177 125T155 279V689Q155 737 154 763T141 803T105 822T34 832ZM368 1204Q368 1258 388 1305T441 1387T517 1443T608 1463Q648 1463 681 1450T737 1413T772 1356T785 1284Q785 1231 765 1184T712 1103T635 1048T546 1028Q507 1028 474 1040T418
1076T381 1131T368 1204ZM503 1245Q503 1199 523 1174T567 1149Q607 1149 628 1176T650 1243Q650 1291 630 1316T587 1342Q566 1342 551 1334T525 1312T509 1281T503 1245Z" />
<glyph unicode="&#x170;" glyph-name="Uhungarumlaut" horiz-adv-x="1369" d="M43 1187V1260H568V1187Q500 1173 465 1156T430 1125V509Q430 413 447 340T501 216T597 141T743 115Q814 115 863 147T942 232T986 354T1000 498V1125Q1000 1137 968 1155T863 1187V1260H1313V1187Q1245
1173 1210 1156T1175 1125V524Q1175 393 1139 290T1036 116T880 8T681 -30Q578 -30 487 -2T328 85T220 233T180 444V1125Q180 1137 148 1155T43 1187ZM443 1402L597 1824Q609 1822 633 1820T684 1814T734 1807T768 1799L798 1743L530 1360Q513 1364 488 1377T443
1402ZM764 1402L917 1824Q929 1822 953 1820T1004 1814T1054 1807T1089 1799L1118 1743L851 1360Q834 1364 809 1377T764 1402Z" />
<glyph unicode="&#x171;" glyph-name="uhungarumlaut" horiz-adv-x="1153" d="M34 832V902Q84 906 125 911T205 922T280 938T360 960L395 914V342Q395 280 402 241T425 181T461 151T511 143Q532 143 556 148T610 166T674 203T750 262V689Q750 734 747 761T730
803T691 824T618 832V902Q718 911 799 926T953 960L990 914V284Q990 253 991 233T994 199T1001 177T1013 164Q1025 156 1046 160T1119 187L1144 112Q1107 88 1063 63T977 17T903 -17T858 -30Q840 -30 824 -24T793 1T767 52T750 136Q688 82 639 50T549 -1T474 -24T408
-30Q361 -30 316 -17T235 30T177 125T155 279V689Q155 737 154 763T141 803T105 822T34 832ZM328 1082L482 1504Q494 1502 518 1500T569 1494T619 1487T653 1479L683 1423L415 1040Q398 1044 373 1057T328 1082ZM649 1082L802 1504Q814 1502 838 1500T889 1494T939
1487T974 1479L1003 1423L736 1040Q719 1044 694 1057T649 1082Z" />
<glyph unicode="&#x174;" glyph-name="Wcircumflex" horiz-adv-x="1741" d="M20 1187V1260H509V1187Q460 1182 433 1175T394 1158T381 1139T381 1117L552 385L844 1260H944L1279 385L1440 1125Q1442 1137 1431 1146T1399 1162T1349 1175T1286 1187V1260H1732V1187Q1688
1178 1659 1170T1613 1155T1589 1140T1580 1125L1351 59Q1346 38 1329 23T1289 -3T1243 -20T1205 -30L864 877L577 59Q570 38 552 23T511 -2T463 -19T418 -30L158 1117Q153 1142 122 1158T20 1187ZM536 1420L815 1744H937L1214 1420Q1202 1401 1188 1385T1156 1360L875
1523L596 1360Q579 1368 565 1384T536 1420Z" />
<glyph unicode="&#x175;" glyph-name="wcircumflex" horiz-adv-x="1469" d="M13 857V930H466V857Q423 852 399 846T365 831T354 813T356 795L506 323L745 930H822L1073 323L1217 795Q1221 806 1221 815T1212 831T1184 845T1130 857V930H1455V857Q1427 850 1410
844T1381 831T1365 816T1355 795L1134 59Q1128 37 1110 22T1069 -4T1025 -21T990 -30L735 554L532 59Q524 36 506 21T467 -5T425 -21T391 -30L122 795Q116 813 90 829T13 857ZM415 1107L694 1494H831L1100 1107Q1088 1088 1074 1068T1042 1040L761 1263L482 1040Q465
1048 447 1068T415 1107Z" />
<glyph unicode="&#x176;" glyph-name="Ycircumflex" horiz-adv-x="1255" d="M0 1242L66 1251Q104 1256 141 1260T210 1267T264 1270Q292 1270 320 1258T365 1224Q402 1174 442 1110L524 974L606 826L680 679L914 1121Q929 1147 905 1162T803 1187V1260H1221V1187Q1153
1174 1120 1160T1073 1121L752 523V145Q752 139 759 131T784 112T832 92T910 73V0H345V73Q390 82 420 92T469 111T494 129T502 145V529Q466 609 421 694L330 858Q284 938 240 1006T161 1121Q152 1132 142 1141T115 1156T72 1165T4 1169L0 1242ZM287 1420L566 1744H688L965
1420Q953 1401 939 1385T907 1360L626 1523L347 1360Q330 1368 316 1384T287 1420Z" />
<glyph unicode="&#x177;" glyph-name="ycircumflex" horiz-adv-x="1040" d="M-62 -434T-62 -425T-45 -391T-5 -336T44 -281T85 -245Q135 -277 185 -284T273 -278Q310 -265 352 -222T430 -92L459 -23L124 789Q113 816 88 831T13 857V930H466V857Q427 852 406 847T376
834T368 816T376 789L582 287L778 789Q784 805 786 814Q787 825 780 832T753 845T700 857V930H1027V857Q997 850 978 844T947 831T929 814T917 789L583 -75Q540 -185 490 -264T384 -394T267 -469T142 -493Q104 -493 67 -486T2 -469T-44 -446ZM198 1107L477 1494H614L883
1107Q871 1088 857 1068T825 1040L544 1263L265 1040Q248 1048 230 1068T198 1107Z" />
<glyph unicode="&#x178;" glyph-name="Ydieresis" horiz-adv-x="1255" d="M0 1242L66 1251Q104 1256 141 1260T210 1267T264 1270Q292 1270 320 1258T365 1224Q402 1174 442 1110L524 974L606 826L680 679L914 1121Q929 1147 905 1162T803 1187V1260H1221V1187Q1153
1174 1120 1160T1073 1121L752 523V145Q752 139 759 131T784 112T832 92T910 73V0H345V73Q390 82 420 92T469 111T494 129T502 145V529Q466 609 421 694L330 858Q284 938 240 1006T161 1121Q152 1132 142 1141T115 1156T72 1165T4 1169L0 1242ZM278 1493Q278 1530
291 1562T325 1618T375 1655T434 1669Q491 1669 522 1639T553 1548Q553 1511 541 1479T507 1423T458 1385T397 1371Q339 1371 309 1402T278 1493ZM701 1493Q701 1530 714 1562T748 1618T798 1655T857 1669Q913 1669 944 1639T976 1548Q976 1511 964 1479T930 1423T880
1385T819 1371Q761 1371 731 1402T701 1493Z" />
<glyph unicode="&#x179;" glyph-name="Zacute" horiz-adv-x="1116" d="M52 53L725 1130H334Q318 1130 298 1113T259 1065T222 991T193 896L106 915L143 1276Q170 1270 192 1267T236 1262T281 1260H1001L1034 1210L366 130H822Q843 130 860 145T892 191T924 267T959
375L1044 353Q1042 321 1040 272L1038 174L1034 76L1032 0H88L52 53ZM379 1427L744 1767Q767 1755 795 1738L848 1706Q874 1691 894 1677T922 1655L931 1603L447 1360Q430 1368 412 1388T379 1427Z" />
<glyph unicode="&#x17a;" glyph-name="zacute" horiz-adv-x="959" d="M61 45L590 810H330Q286 810 248 760T183 600L112 620L137 946Q159 940 177 937T214 932T257 930H873L895 887L364 120H707Q725 120 738 135T763 180T786 252L812 348L882 331Q882 310 882
281T881 218T879 152T877 88T874 35T870 0H87L61 45ZM361 1083L572 1512Q584 1511 616 1507T686 1496T756 1484T800 1474L830 1420L448 1040Q439 1041 427 1046T401 1058T378 1071T361 1083Z" />
<glyph unicode="&#x17b;" glyph-name="Zdotaccent" horiz-adv-x="1116" d="M52 53L725 1130H334Q318 1130 298 1113T259 1065T222 991T193 896L106 915L143 1276Q170 1270 192 1267T236 1262T281 1260H1001L1034 1210L366 130H822Q843 130 860 145T892 191T924
267T959 375L1044 353Q1042 321 1040 272L1038 174L1034 76L1032 0H88L52 53ZM441 1493Q441 1530 454 1562T488 1618T538 1655T598 1669Q654 1669 685 1639T716 1548Q716 1511 704 1479T670 1423T621 1385T560 1371Q502 1371 472 1402T441 1493Z" />
<glyph unicode="&#x17c;" glyph-name="zdotaccent" horiz-adv-x="959" d="M61 45L590 810H330Q286 810 248 760T183 600L112 620L137 946Q159 940 177 937T214 932T257 930H873L895 887L364 120H707Q725 120 738 135T763 180T786 252L812 348L882 331Q882 310
882 281T881 218T879 152T877 88T874 35T870 0H87L61 45ZM370 1213Q370 1250 383 1282T417 1338T467 1375T527 1389Q583 1389 614 1359T645 1268Q645 1231 633 1199T599 1143T550 1105T489 1091Q431 1091 401 1122T370 1213Z" />
<glyph unicode="&#x17d;" glyph-name="Zcaron" horiz-adv-x="1116" d="M52 53L725 1130H334Q318 1130 298 1113T259 1065T222 991T193 896L106 915L143 1276Q170 1270 192 1267T236 1262T281 1260H1001L1034 1210L366 130H822Q843 130 860 145T892 191T924 267T959
375L1044 353Q1042 321 1040 272L1038 174L1034 76L1032 0H88L52 53ZM239 1713Q253 1733 267 1749T299 1775L582 1587L859 1775Q876 1766 890 1750T917 1713L648 1384H511L239 1713Z" />
<glyph unicode="&#x17e;" glyph-name="zcaron" horiz-adv-x="959" d="M61 45L590 810H330Q286 810 248 760T183 600L112 620L137 946Q159 940 177 937T214 932T257 930H873L895 887L364 120H707Q725 120 738 135T763 180T786 252L812 348L882 331Q882 310 882
281T881 218T879 152T877 88T874 35T870 0H87L61 45ZM165 1445Q177 1465 191 1485T223 1513L505 1295L783 1513Q800 1505 818 1485T850 1445L572 1064H435L165 1445Z" />
<glyph unicode="&#x181;" glyph-name="uni0181" horiz-adv-x="1514" d="M23 973Q23 1046 64 1105T193 1205T413 1268T732 1290Q817 1290 887 1286T1013 1271T1114 1244T1195 1203Q1240 1173 1270 1125T1300 1020Q1300 912 1244 838T1073 723Q1149 708 1211 675T1318
594T1386 486T1411 356Q1411 271 1376 203T1274 86T1111 12T894 -14Q872 -14 839 -14T766 -12T684 -10T599 -7Q501 -4 391 0H325V73Q393 87 428 103T463 134V1165Q376 1147 327 1111T277 1014Q277 971 299 935T353 885Q350 879 321 864T252 831T175 800T115 781Q97
789 80 807T51 852T31 909T23 973ZM713 134Q713 129 721 119Q779 93 857 93Q1002 93 1076 158T1150 337Q1150 392 1136 445T1086 541T993 608T848 634Q810 634 777 630T713 620V134ZM713 740H732Q834 740 896 760T991 812T1036 886T1047 971Q1047 1020 1031 1059T979
1129Q963 1142 944 1152T894 1169T820 1179T713 1184V740Z" />
<glyph unicode="&#x186;" glyph-name="uni0186" horiz-adv-x="1136" d="M40 1074Q107 1138 174 1180T305 1246T427 1280T537 1290Q641 1290 737 1249T908 1130T1026 937T1071 678Q1071 520 1026 390T901 167T709 22T466 -30Q355 -30 276 -1T145 74T70 176T46 289Q46
310 49 333T59 381T77 428T106 470Q128 482 162 496L230 524L295 548Q326 560 344 566L379 487Q350 470 333 452T305 412T292 366T288 314Q288 276 305 241T352 177T425 132T519 115Q577 115 631 139T727 224T793 385T818 641Q818 774 784 867T695 1020T571 1106T429
1134Q402 1134 369 1129T294 1110T202 1071T91 1006Q86 1008 78 1018T62 1040L48 1061L40 1074Z" />
<glyph unicode="&#x189;" glyph-name="uni0189" horiz-adv-x="1304" d="M28 639Q30 646 34 659L44 686L54 714L61 735H180V1157L43 1138L30 1230Q79 1242 146 1253T288 1272T438 1285T578 1290Q731 1290 851 1249T1053 1128T1178 935T1221 676Q1221 551 1196 453T1126
279T1023 151T897 65T759 16T619 0H43V73Q111 87 145 103T180 134V615H50L28 639ZM430 167Q430 160 432 153Q435 142 443 134T468 119T512 110T582 107Q620 107 662 120T746 161T825 231T891 333T936 467T953 637Q953 770 924 872T839 1043T699 1148T506 1184Q488
1184 469 1184T430 1182V735H671L696 712L660 615H430V167Z" />
<glyph unicode="&#x18a;" glyph-name="uni018A" horiz-adv-x="1587" d="M23 973Q23 1049 65 1108T198 1207T431 1269T771 1290Q856 1290 926 1285T1053 1270T1155 1243T1239 1202Q1312 1156 1362 1099T1444 974T1489 831T1503 676Q1503 551 1477 453T1407 279T1305
151T1181 65T1048 16T917 0H325V73Q393 87 428 103T463 134V1166Q363 1146 313 1108T262 1014Q262 978 278 944T338 885Q332 878 304 863T241 831T171 800T115 781Q91 794 74 815T45 863T28 917T23 973ZM713 184Q713 156 733 136Q768 107 865 107Q920 107 984 137T1105
231T1198 396T1236 637Q1236 705 1229 763T1207 874T1165 973T1101 1064Q1074 1094 1040 1116T958 1153T851 1175T713 1184V184Z" />
<glyph unicode="&#x18e;" glyph-name="uni018E" horiz-adv-x="1089" d="M58 33Q59 50 62 77T71 136T82 202L95 266Q101 296 106 320T116 357H191Q193 311 196 268T207 192T226 140T256 120H441Q505 120 544 124T606 136T635 159T642 193V625H439Q416 625 385 624T324
619T266 613T222 605L196 633Q204 647 219 669L250 714Q267 736 283 755T310 782Q325 767 342 759T382 746T435 740T508 739H642V1140H421Q375 1140 344 1134T290 1109T249 1055T209 961L136 986Q140 1029 144 1072T154 1151T165 1216T174 1260H1029V1187Q961 1173
927 1157T892 1126V135Q892 123 924 105T1029 73V0H98L58 33Z" />
<glyph unicode="&#x190;" glyph-name="uni0190" horiz-adv-x="1077" d="M65 291Q65 349 83 402T133 500T206 579T295 635Q199 669 149 737T98 905Q98 992 150 1070T292 1202Q357 1242 441 1266T618 1290Q672 1290 725 1284T828 1265T921 1233T997 1186Q989 1166
976 1138L948 1079L918 1022L892 975L819 991Q799 1025 773 1055T716 1108T647 1144T565 1158Q518 1158 475 1143T400 1101T348 1034T328 946Q328 905 347 866T412 795T529 742T706 716V615Q604 609 530 585T408 524T338 442T315 352Q315 308 333 270T387 203T472
157T588 140Q632 140 675 146T762 167T855 210T958 281L1012 212Q952 148 892 103T769 28T639 -16T495 -30Q380 -30 299 1T165 80T89 184T65 291Z" />
<glyph unicode="&#x192;" glyph-name="florin" horiz-adv-x="659" d="M-315 -401Q-315 -390 -296 -367T-249 -319T-193 -270T-143 -238Q-101 -283 -53 -301T33 -320Q61 -320 84 -307T123 -253T149 -142T159 45V806H41L13 842L91 930H159V961Q159 1051 172 1120T207
1242T261 1337T330 1413Q364 1446 403 1471T482 1514T558 1541T625 1550Q670 1550 713 1538T790 1511T846 1479T867 1454Q867 1437 847 1411T800 1359T746 1312T704 1283Q654 1343 609 1370T534 1397Q502 1397 477 1377T435 1311T409 1187T400 994V930H652L687
894L665 861Q652 842 638 824T611 790T587 771Q564 783 521 794T400 806V98Q400 -11 380 -89T328 -222T255 -317T174 -387Q146 -408 114 -427T48 -461T-19 -484T-83 -493Q-124 -493 -165 -483T-240 -457T-294 -427T-315 -401Z" />
<glyph unicode="&#x197;" glyph-name="uni0197" horiz-adv-x="670" d="M33 624Q35 631 40 644L49 672L58 699L66 720H200V1125Q200 1137 168 1155T63 1187V1260H588V1187Q520 1173 485 1156T450 1125V720H595L620 697L584 600H450V134Q450 122 483 105T588 73V0H63V73Q131
87 165 103T200 134V600H55L33 624Z" />
<glyph unicode="&#x198;" glyph-name="uni0198" horiz-adv-x="1316" d="M43 0V73Q111 87 145 103T180 134V1125Q180 1137 148 1155T43 1187V1260H568V1187Q500 1173 465 1156T430 1125V661L770 1103Q835 1188 908 1228Q983 1270 1075 1270Q1123 1270 1164 1255T1235
1210T1283 1136T1301 1031Q1301 1018 1299 1002T1294 968T1288 934T1281 906Q1278 898 1253 884T1194 854T1125 824T1065 804L1032 855Q1041 871 1050 891T1065 931T1076 970T1081 1005Q1080 1058 1062 1077T1016 1097Q987 1097 964 1078Q942 1061 921 1036L616
675L1098 165Q1114 146 1131 137T1168 124T1209 121T1257 125L1264 52L1199 32Q1163 20 1127 10T1058 -7T1001 -14Q972 -14 950 -5T907 29L430 625V134Q430 122 462 105T568 73V0H43Z" />
<glyph unicode="&#x199;" glyph-name="uni0199" horiz-adv-x="1129" d="M48 0V73Q114 90 147 103T180 134V896Q181 1016 198 1101T248 1250T325 1361T429 1452Q459 1474 495 1492T571 1523T649 1543T722 1550Q774 1550 828 1533T925 1492T997 1446T1025 1410Q1025
1396 1004 1370T956 1316T900 1265T857 1236Q837 1265 809 1293T750 1344T685 1381T620 1395Q583 1395 548 1378T484 1312T439 1179T420 957V532L683 769Q714 797 724 814T730 840T707 853T663 857V930H1102V857Q1057 852 1013 837T927 788L623 558L984 149Q998
133 1012 124Q1025 114 1042 110T1080 105T1131 106L1137 33Q1108 26 1072 18L1004 4Q971 -2 945 -6T908 -10Q866 -10 833 2T778 43L420 512V134Q420 126 423 120T438 108T471 93T530 73V0H48Z" />
<glyph unicode="&#x19a;" glyph-name="uni019A" horiz-adv-x="711" d="M48 743Q50 751 55 764T68 792L80 820L91 841H236V1266Q236 1311 231 1336T212 1373T171 1390T103 1400V1470Q153 1477 196 1484T278 1501T355 1522T432 1550L476 1509V841H642L664 816L621
721H476V134Q476 126 483 119T506 103T550 88T618 73V0H93V73Q136 80 164 87T208 102T230 118T236 134V721H70L48 743Z" />
<glyph unicode="&#x19d;" glyph-name="uni019D" horiz-adv-x="1359" d="M-324 -323Q-324 -318 -314 -305T-289 -274T-254 -238L-216 -204Q-197 -187 -181 -175T-155 -159Q-110 -210 -61 -230T34 -250Q105 -250 142 -169T180 74V1114Q148 1143 113 1162T43 1187V1260H322Q337
1260 346 1258T366 1247T388 1224L418 1182L1030 334V1125Q1030 1131 1024 1139T1002 1156T960 1173T893 1187V1260H1318V1187Q1246 1177 1213 1158T1180 1125V-30Q1084 -22 1026 7T941 74L330 920V132Q330 65 326 8T309 -99T274 -192T216 -273Q192 -298 160 -324T90
-371T10 -405T-74 -418Q-119 -418 -163 -409T-244 -385T-302 -354T-324 -323Z" />
<glyph unicode="&#x19f;" glyph-name="uni019F" horiz-adv-x="1274" d="M55 612Q55 748 99 871T223 1087T413 1235T656 1290T889 1236T1059 1091T1163 885T1198 647Q1198 556 1176 471T1115 311T1020 173T898 65T755 -5T598 -30Q472 -30 371 23T200 165T93 370T55
612ZM308 600Q313 495 341 405T414 248T517 143T642 105Q706 105 760 135T854 227T918 382T945 600H308ZM310 720H940Q930 809 902 889T831 1029T730 1124T604 1160Q538 1160 486 1131T397 1045T338 906T310 720Z" />
<glyph unicode="&#x1a0;" glyph-name="Ohorn" horiz-adv-x="1274" d="M55 612Q55 748 99 871T223 1087T413 1235T656 1290Q742 1290 814 1266T947 1200Q980 1231 991 1260T1003 1311Q1003 1340 985 1366T938 1415L1198 1533Q1226 1511 1245 1473T1265 1392Q1265
1333 1209 1262T1034 1121Q1115 1028 1156 905T1198 647Q1198 556 1176 471T1115 311T1020 173T898 65T755 -5T598 -30Q472 -30 371 23T200 165T93 370T55 612ZM308 641Q308 529 334 431T406 261T512 147T642 105Q708 105 763 137T859 234T923 398T946 629Q946
732 922 828T852 998T744 1116T604 1160Q532 1160 477 1125T384 1023T327 860T308 641Z" />
<glyph unicode="&#x1a1;" glyph-name="ohorn" horiz-adv-x="1205" d="M65 444Q65 543 101 636T203 801T359 916T558 960Q655 960 734 928T873 838Q915 872 929 904T943 961Q943 990 925 1016T878 1065L1138 1183Q1166 1161 1185 1123T1205 1042Q1205 979 1141
902T940 752Q974 695 992 628T1010 485Q1010 418 992 354T942 233T864 128T765 44T648 -10T519 -30Q416 -30 332 6T189 105T98 255T65 444ZM318 473Q318 394 336 325T386 205T459 125T547 95Q607 95 647 118T712 185T747 293T758 440Q758 519 742 590T695 716T623
803T529 835Q467 835 426 808T361 732T328 617T318 473Z" />
<glyph unicode="&#x1a9;" glyph-name="uni01A9" horiz-adv-x="1121" d="M45 51L459 613L66 1210V1260H800Q856 1260 904 1262T1013 1276L1017 930L931 911Q913 985 895 1028T860 1094T827 1123T796 1130H384L680 674L330 193H821Q852 193 873 202T909 236T939
302T972 410L1055 390Q1053 350 1050 294T1042 182L1034 76L1029 0H83L45 51Z" />
<glyph unicode="&#x1aa;" glyph-name="uni01AA" horiz-adv-x="796" d="M15 1275Q15 1324 39 1373T109 1462T222 1525T375 1550Q455 1550 511 1521T602 1444T652 1334T668 1207Q668 1055 659 898T638 587L618 290Q608 146 608 21Q608 -99 616 -176T640 -297T679
-358T735 -375Q764 -375 786 -358T821 -315T835 -262T823 -212Q821 -209 835 -202T872 -186T925 -168T981 -151T1031 -139T1064 -136L1091 -190Q1094 -239 1064 -292T979 -390T844 -464T671 -493Q594 -493 536 -462T438 -373T378 -231T358 -40Q358 108 367 257T387
550T408 825T418 1071V1112Q378 1078 336 1063T251 1047Q142 1047 79 1106T15 1275ZM215 1327Q215 1273 239 1243T307 1213Q339 1213 364 1226T410 1257Q405 1298 398 1331T378 1389T348 1426T308 1440Q292 1440 276 1432T246 1410T224 1374T215 1327Z" />
<glyph unicode="&#x1af;" glyph-name="Uhorn" horiz-adv-x="1498" d="M43 1187V1260H568V1187Q500 1173 465 1156T430 1125V509Q430 413 447 340T501 216T597 141T743 115Q814 115 863 147T942 232T986 354T1000 498V1125Q1000 1137 968 1155T863 1187V1260H1224Q1231
1274 1233 1287T1236 1311Q1236 1340 1217 1366T1170 1415L1431 1533Q1459 1511 1478 1473T1498 1392Q1498 1357 1479 1318T1420 1237T1320 1155T1175 1074V524Q1175 393 1139 290T1036 116T880 8T681 -30Q578 -30 487 -2T328 85T220 233T180 444V1125Q180 1137
148 1155T43 1187Z" />
<glyph unicode="&#x1b0;" glyph-name="uhorn" horiz-adv-x="1386" d="M34 832V902Q84 906 125 911T205 922T280 938T360 960L395 914V342Q395 280 402 241T425 181T461 151T511 143Q532 143 556 148T610 166T674 203T750 262V689Q750 734 747 761T730 803T691
824T618 832V902Q718 911 799 926T953 960L990 914V797Q1030 818 1056 840T1097 884T1118 925T1124 961Q1124 990 1106 1016T1059 1065L1319 1183Q1347 1161 1366 1123T1386 1042Q1386 1004 1363 960T1292 871T1168 779T990 692V284Q990 253 991 233T994 199T1001
177T1013 164Q1025 156 1046 160T1119 187L1144 112Q1107 88 1063 63T977 17T903 -17T858 -30Q840 -30 824 -24T793 1T767 52T750 136Q688 82 639 50T549 -1T474 -24T408 -30Q361 -30 316 -17T235 30T177 125T155 279V689Q155 737 154 763T141 803T105 822T34 832Z"
/>
<glyph unicode="&#x1b3;" glyph-name="uni01B3" horiz-adv-x="1455" d="M0 1242L66 1251Q104 1256 141 1260T210 1267T264 1270Q297 1270 323 1257T365 1224Q402 1176 443 1112T527 976T609 828L684 680L901 1100Q926 1148 954 1187Q984 1227 1021 1256T1104 1303T1211
1320Q1267 1320 1311 1302T1385 1254T1431 1185T1447 1101Q1447 1086 1445 1067T1440 1030T1434 998T1428 978Q1423 965 1394 947T1330 911T1260 879T1211 861L1186 920L1202 950Q1210 966 1217 983T1230 1018T1235 1055Q1235 1101 1213 1128T1151 1156Q1113 1156
1085 1125T1034 1050L755 528V145Q755 139 762 131T787 112T835 92T913 73V0H348V73Q393 82 423 92T472 111T497 129T505 145V523Q469 604 424 689L332 854L240 1004Q196 1073 161 1121Q152 1132 142 1141T115 1156T72 1165T4 1169L0 1242Z" />
<glyph unicode="&#x1b4;" glyph-name="uni01B4" horiz-adv-x="1040" d="M-65 -424Q-65 -417 -50 -393T-12 -340T36 -284T81 -245Q120 -270 155 -279T213 -289Q244 -289 273 -281T331 -250T384 -189Q408 -153 433 -91L459 -25L124 789Q115 817 89 831T13 857V930H466V857Q427
852 406 847T376 835T368 816T376 789L578 287L804 907Q852 1039 910 1122Q968 1206 1028 1253T1146 1317T1254 1335Q1284 1335 1319 1328T1383 1311T1432 1289T1452 1268Q1452 1261 1437 1237T1399 1183T1351 1127T1306 1087Q1267 1112 1232 1121T1174 1130Q1101
1130 1047 1078T950 912L576 -93Q531 -213 476 -290Q420 -367 361 -412T243 -475T135 -493Q105 -493 70 -487T5 -471T-45 -449T-65 -424Z" />
<glyph unicode="&#x1b7;" glyph-name="uni01B7" horiz-adv-x="1107" d="M90 140Q90 149 104 174T141 228T191 283T244 320Q268 273 300 235T370 171T447 130T530 115Q658 115 728 186T799 385Q799 445 780 496T726 584T646 643T545 664Q521 664 501 662T460 655T417
640T368 615L332 593L329 596Q325 600 318 608L305 624L292 640Q285 648 282 653L280 656V657L281 658L661 1130H334Q316 1130 296 1111T258 1059T223 985T196 896L109 915L147 1276Q168 1270 189 1267T235 1262T286 1260H937L969 1210L641 798Q655 800 668 801T694
803Q764 803 824 779T929 707T999 592T1024 436Q1024 365 1002 304T942 191T853 99T742 30T619 -13T491 -28Q405 -28 332 -9T205 36T121 91T90 140Z" />
<glyph unicode="&#x1cd;" glyph-name="uni01CD" horiz-adv-x="1287" d="M0 0V73Q68 85 104 98T151 141L500 1207Q524 1227 551 1244T608 1274T667 1298T722 1317L1142 141Q1147 127 1155 116T1177 97T1212 83T1266 73V0H769V73Q847 78 874 93T891 141L789 430H392L296
141Q286 110 320 96T437 73V0H0ZM293 1713Q307 1733 321 1749T353 1775L636 1587L913 1775Q930 1766 944 1750T971 1713L702 1384H565L293 1713ZM432 550H747L582 1015L432 550Z" />
<glyph unicode="&#x1ce;" glyph-name="uni01CE" horiz-adv-x="1023" d="M65 201Q65 269 89 316T151 401Q175 425 206 447T290 491T422 531T623 569V687Q623 718 617 744T596 790T556 819T493 830Q469 830 445 821T403 796T375 756T367 702Q368 696 351 687T308
669T251 650T190 634T138 624T107 622L86 676Q110 736 161 787T282 877T432 938T597 960Q666 960 716 942T798 892T847 815T863 720V238Q863 196 874 178T903 160Q910 160 917 161T935 165T960 174L994 187L1016 112Q974 83 929 57T843 12T769 -19T717 -30Q680
-30 655 12T624 129Q579 84 534 54T446 5T364 -22T293 -30Q251 -30 211 -16T138 27T85 99T65 201ZM172 1445Q184 1465 198 1485T230 1513L512 1295L790 1513Q807 1505 825 1485T857 1445L579 1064H442L172 1445ZM319 259Q319 225 328 203T352 168T383 150T412 145Q431
145 452 149T498 165T554 197T623 250V471Q563 461 522 452T453 432T408 411T377 387Q351 361 335 331T319 259Z" />
<glyph unicode="&#x1cf;" glyph-name="uni01CF" horiz-adv-x="670" d="M-15 1713Q-1 1733 13 1749T45 1775L328 1587L605 1775Q622 1766 636 1750T663 1713L394 1384H257L-15 1713ZM63 0V73Q131 87 165 103T200 134V1125Q200 1137 168 1155T63 1187V1260H588V1187Q520
1173 485 1156T450 1125V134Q450 122 483 105T588 73V0H63Z" />
<glyph unicode="&#x1d0;" glyph-name="uni01D0" horiz-adv-x="615" d="M-28 1445Q-16 1465 -2 1485T30 1513L312 1295L590 1513Q607 1505 625 1485T657 1445L379 1064H242L-28 1445ZM63 0V73Q131 87 163 103T195 134V648Q195 699 194 730T182 779T143 805T63 818V888Q149
900 226 917T371 960H435V134Q435 122 465 105T568 73V0H63Z" />
<glyph unicode="&#x1d1;" glyph-name="uni01D1" horiz-adv-x="1274" d="M55 612Q55 748 99 871T223 1087T413 1235T656 1290T889 1236T1059 1091T1163 885T1198 647Q1198 556 1176 471T1115 311T1020 173T898 65T755 -5T598 -30Q472 -30 371 23T200 165T93 370T55
612ZM295 1765Q307 1785 321 1805T353 1833L635 1615L913 1833Q930 1825 948 1805T980 1765L702 1384H565L295 1765ZM308 641Q308 529 334 431T406 261T512 147T642 105Q708 105 763 137T859 234T923 398T946 629Q946 732 922 828T852 998T744 1116T604 1160Q532
1160 477 1125T384 1023T327 860T308 641Z" />
<glyph unicode="&#x1d2;" glyph-name="uni01D2" horiz-adv-x="1075" d="M65 444Q65 543 101 636T203 801T359 916T558 960Q660 960 743 924T886 825T978 674T1010 485Q1010 418 992 354T942 233T864 128T765 44T648 -10T519 -30Q416 -30 332 6T189 105T98 255T65
444ZM216 1445Q228 1465 242 1485T274 1513L556 1295L834 1513Q851 1505 869 1485T901 1445L623 1064H486L216 1445ZM318 473Q318 394 336 325T386 205T459 125T547 95Q607 95 647 118T712 185T747 293T758 440Q758 519 742 590T695 716T623 803T529 835Q467 835
426 808T361 732T328 617T318 473Z" />
<glyph unicode="&#x1d3;" glyph-name="uni01D3" horiz-adv-x="1369" d="M43 1187V1260H568V1187Q500 1173 465 1156T430 1125V509Q430 413 447 340T501 216T597 141T743 115Q814 115 863 147T942 232T986 354T1000 498V1125Q1000 1137 968 1155T863 1187V1260H1313V1187Q1245
1173 1210 1156T1175 1125V524Q1175 393 1139 290T1036 116T880 8T681 -30Q578 -30 487 -2T328 85T220 233T180 444V1125Q180 1137 148 1155T43 1187ZM352 1713Q366 1733 380 1749T412 1775L695 1587L972 1775Q989 1766 1003 1750T1030 1713L761 1384H624L352 1713Z"
/>
<glyph unicode="&#x1d4;" glyph-name="uni01D4" horiz-adv-x="1153" d="M34 832V902Q84 906 125 911T205 922T280 938T360 960L395 914V342Q395 280 402 241T425 181T461 151T511 143Q532 143 556 148T610 166T674 203T750 262V689Q750 734 747 761T730 803T691
824T618 832V902Q718 911 799 926T953 960L990 914V284Q990 253 991 233T994 199T1001 177T1013 164Q1025 156 1046 160T1119 187L1144 112Q1107 88 1063 63T977 17T903 -17T858 -30Q840 -30 824 -24T793 1T767 52T750 136Q688 82 639 50T549 -1T474 -24T408 -30Q361
-30 316 -17T235 30T177 125T155 279V689Q155 737 154 763T141 803T105 822T34 832ZM234 1445Q246 1465 260 1485T292 1513L574 1295L852 1513Q869 1505 887 1485T919 1445L641 1064H504L234 1445Z" />
<glyph unicode="&#x1d5;" glyph-name="uni01D5" horiz-adv-x="1369" d="M43 1187V1260H568V1187Q500 1173 465 1156T430 1125V509Q430 413 447 340T501 216T597 141T743 115Q814 115 863 147T942 232T986 354T1000 498V1125Q1000 1137 968 1155T863 1187V1260H1313V1187Q1245
1173 1210 1156T1175 1125V524Q1175 393 1139 290T1036 116T880 8T681 -30Q578 -30 487 -2T328 85T220 233T180 444V1125Q180 1137 148 1155T43 1187ZM276 1815Q279 1826 286 1844T302 1882L319 1918Q327 1936 332 1946H1096L1128 1915Q1125 1904 1118 1886T1101
1847L1084 1810L1072 1783H308L276 1815ZM343 1493Q343 1530 356 1562T390 1618T440 1655T499 1669Q556 1669 587 1639T618 1548Q618 1511 606 1479T572 1423T523 1385T462 1371Q404 1371 374 1402T343 1493ZM766 1493Q766 1530 779 1562T813 1618T863 1655T922
1669Q978 1669 1009 1639T1041 1548Q1041 1511 1029 1479T995 1423T945 1385T884 1371Q826 1371 796 1402T766 1493Z" />
<glyph unicode="&#x1d6;" glyph-name="uni01D6" horiz-adv-x="1153" d="M34 832V902Q84 906 125 911T205 922T280 938T360 960L395 914V342Q395 280 402 241T425 181T461 151T511 143Q532 143 556 148T610 166T674 203T750 262V689Q750 734 747 761T730 803T691
824T618 832V902Q718 911 799 926T953 960L990 914V284Q990 253 991 233T994 199T1001 177T1013 164Q1025 156 1046 160T1119 187L1144 112Q1107 88 1063 63T977 17T903 -17T858 -30Q840 -30 824 -24T793 1T767 52T750 136Q688 82 639 50T549 -1T474 -24T408 -30Q361
-30 316 -17T235 30T177 125T155 279V689Q155 737 154 763T141 803T105 822T34 832ZM161 1575Q164 1586 171 1604T187 1642L204 1678Q212 1696 217 1706H981L1013 1675Q1010 1664 1003 1646T986 1607L969 1570L957 1543H193L161 1575ZM228 1213Q228 1250 241 1282T275
1338T325 1375T384 1389Q441 1389 472 1359T503 1268Q503 1231 491 1199T457 1143T408 1105T347 1091Q289 1091 259 1122T228 1213ZM651 1213Q651 1250 664 1282T698 1338T748 1375T807 1389Q863 1389 894 1359T926 1268Q926 1231 914 1199T880 1143T830 1105T769
1091Q711 1091 681 1122T651 1213Z" />
<glyph unicode="&#x1d7;" glyph-name="uni01D7" horiz-adv-x="1369" d="M43 1187V1260H568V1187Q500 1173 465 1156T430 1125V509Q430 413 447 340T501 216T597 141T743 115Q814 115 863 147T942 232T986 354T1000 498V1125Q1000 1137 968 1155T863 1187V1260H1313V1187Q1245
1173 1210 1156T1175 1125V524Q1175 393 1139 290T1036 116T880 8T681 -30Q578 -30 487 -2T328 85T220 233T180 444V1125Q180 1137 148 1155T43 1187ZM343 1493Q343 1530 356 1562T390 1618T440 1655T499 1669Q556 1669 587 1639T618 1548Q618 1511 606 1479T572
1423T523 1385T462 1371Q404 1371 374 1402T343 1493ZM492 1755L857 2095Q880 2083 908 2066L962 2034Q987 2019 1007 2005T1035 1983L1044 1931L560 1688Q543 1696 525 1716T492 1755ZM766 1493Q766 1530 779 1562T813 1618T863 1655T922 1669Q978 1669 1009 1639T1041
1548Q1041 1511 1029 1479T995 1423T945 1385T884 1371Q826 1371 796 1402T766 1493Z" />
<glyph unicode="&#x1d8;" glyph-name="uni01D8" horiz-adv-x="1153" d="M34 832V902Q84 906 125 911T205 922T280 938T360 960L395 914V342Q395 280 402 241T425 181T461 151T511 143Q532 143 556 148T610 166T674 203T750 262V689Q750 734 747 761T730 803T691
824T618 832V902Q718 911 799 926T953 960L990 914V284Q990 253 991 233T994 199T1001 177T1013 164Q1025 156 1046 160T1119 187L1144 112Q1107 88 1063 63T977 17T903 -17T858 -30Q840 -30 824 -24T793 1T767 52T750 136Q688 82 639 50T549 -1T474 -24T408 -30Q361
-30 316 -17T235 30T177 125T155 279V689Q155 737 154 763T141 803T105 822T34 832ZM228 1213Q228 1250 241 1282T275 1338T325 1375T384 1389Q441 1389 472 1359T503 1268Q503 1231 491 1199T457 1143T408 1105T347 1091Q289 1091 259 1122T228 1213ZM430 1451L641
1880Q653 1879 685 1875T755 1864T825 1852T869 1842L899 1788L517 1408Q508 1409 496 1414T470 1426T447 1439T430 1451ZM651 1213Q651 1250 664 1282T698 1338T748 1375T807 1389Q863 1389 894 1359T926 1268Q926 1231 914 1199T880 1143T830 1105T769 1091Q711
1091 681 1122T651 1213Z" />
<glyph unicode="&#x1d9;" glyph-name="uni01D9" horiz-adv-x="1369" d="M43 1187V1260H568V1187Q500 1173 465 1156T430 1125V509Q430 413 447 340T501 216T597 141T743 115Q814 115 863 147T942 232T986 354T1000 498V1125Q1000 1137 968 1155T863 1187V1260H1313V1187Q1245
1173 1210 1156T1175 1125V524Q1175 393 1139 290T1036 116T880 8T681 -30Q578 -30 487 -2T328 85T220 233T180 444V1125Q180 1137 148 1155T43 1187ZM343 1493Q343 1530 356 1562T390 1618T440 1655T499 1669Q556 1669 587 1639T618 1548Q618 1511 606 1479T572
1423T523 1385T462 1371Q404 1371 374 1402T343 1493ZM352 2041Q366 2061 380 2077T412 2103L695 1915L972 2103Q989 2094 1003 2078T1030 2041L761 1712H624L352 2041ZM766 1493Q766 1530 779 1562T813 1618T863 1655T922 1669Q978 1669 1009 1639T1041 1548Q1041
1511 1029 1479T995 1423T945 1385T884 1371Q826 1371 796 1402T766 1493Z" />
<glyph unicode="&#x1da;" glyph-name="uni01DA" horiz-adv-x="1153" d="M34 832V902Q84 906 125 911T205 922T280 938T360 960L395 914V342Q395 280 402 241T425 181T461 151T511 143Q532 143 556 148T610 166T674 203T750 262V689Q750 734 747 761T730 803T691
824T618 832V902Q718 911 799 926T953 960L990 914V284Q990 253 991 233T994 199T1001 177T1013 164Q1025 156 1046 160T1119 187L1144 112Q1107 88 1063 63T977 17T903 -17T858 -30Q840 -30 824 -24T793 1T767 52T750 136Q688 82 639 50T549 -1T474 -24T408 -30Q361
-30 316 -17T235 30T177 125T155 279V689Q155 737 154 763T141 803T105 822T34 832ZM228 1213Q228 1250 241 1282T275 1338T325 1375T384 1389Q441 1389 472 1359T503 1268Q503 1231 491 1199T457 1143T408 1105T347 1091Q289 1091 259 1122T228 1213ZM234 1813Q246
1833 260 1853T292 1881L574 1663L852 1881Q869 1873 887 1853T919 1813L641 1432H504L234 1813ZM651 1213Q651 1250 664 1282T698 1338T748 1375T807 1389Q863 1389 894 1359T926 1268Q926 1231 914 1199T880 1143T830 1105T769 1091Q711 1091 681 1122T651 1213Z"
/>
<glyph unicode="&#x1db;" glyph-name="uni01DB" horiz-adv-x="1369" d="M43 1187V1260H568V1187Q500 1173 465 1156T430 1125V509Q430 413 447 340T501 216T597 141T743 115Q814 115 863 147T942 232T986 354T1000 498V1125Q1000 1137 968 1155T863 1187V1260H1313V1187Q1245
1173 1210 1156T1175 1125V524Q1175 393 1139 290T1036 116T880 8T681 -30Q578 -30 487 -2T328 85T220 233T180 444V1125Q180 1137 148 1155T43 1187ZM343 1493Q343 1530 356 1562T390 1618T440 1655T499 1669Q556 1669 587 1639T618 1548Q618 1511 606 1479T572
1423T523 1385T462 1371Q404 1371 374 1402T343 1493ZM345 1922L355 1985Q362 1993 384 2009T434 2042L484 2074Q508 2089 519 2095L884 1748Q870 1729 856 1713T824 1688L345 1922ZM766 1493Q766 1530 779 1562T813 1618T863 1655T922 1669Q978 1669 1009 1639T1041
1548Q1041 1511 1029 1479T995 1423T945 1385T884 1371Q826 1371 796 1402T766 1493Z" />
<glyph unicode="&#x1dc;" glyph-name="uni01DC" horiz-adv-x="1153" d="M34 832V902Q84 906 125 911T205 922T280 938T360 960L395 914V342Q395 280 402 241T425 181T461 151T511 143Q532 143 556 148T610 166T674 203T750 262V689Q750 734 747 761T730 803T691
824T618 832V902Q718 911 799 926T953 960L990 914V284Q990 253 991 233T994 199T1001 177T1013 164Q1025 156 1046 160T1119 187L1144 112Q1107 88 1063 63T977 17T903 -17T858 -30Q840 -30 824 -24T793 1T767 52T750 136Q688 82 639 50T549 -1T474 -24T408 -30Q361
-30 316 -17T235 30T177 125T155 279V689Q155 737 154 763T141 803T105 822T34 832ZM228 1213Q228 1250 241 1282T275 1338T325 1375T384 1389Q441 1389 472 1359T503 1268Q503 1231 491 1199T457 1143T408 1105T347 1091Q289 1091 259 1122T228 1213ZM270 1785L299
1841Q309 1844 340 1850L407 1862Q443 1869 475 1874T520 1880L738 1454Q732 1448 721 1441T698 1428T673 1416T652 1408L270 1785ZM651 1213Q651 1250 664 1282T698 1338T748 1375T807 1389Q863 1389 894 1359T926 1268Q926 1231 914 1199T880 1143T830 1105T769
1091Q711 1091 681 1122T651 1213Z" />
<glyph unicode="&#x1dd;" glyph-name="uni01DD" horiz-adv-x="994" d="M63 302Q63 342 72 371T99 424L134 440L174 460Q195 469 216 478L255 493H680Q675 569 652 625T595 718T517 773T427 791Q400 791 369 787T302 771T222 737T128 677Q122 680 114 688T99 707T85
726T76 740Q137 804 190 846T295 914T398 950T507 960Q591 960 667 930T802 842T894 697T929 500Q929 382 892 281T785 105Q757 74 721 49T644 7T558 -20T469 -30Q377 -30 303 -5T175 64T92 170T63 302ZM305 293Q305 246 318 209T355 145T411 104T482 89Q580 89
625 160T679 380H371Q340 380 323 357T305 293Z" />
<glyph unicode="&#x1de;" glyph-name="uni01DE" horiz-adv-x="1287" d="M0 0V73Q68 85 104 98T151 141L500 1207Q524 1227 551 1244T608 1274T667 1298T722 1317L1142 141Q1147 127 1155 116T1177 97T1212 83T1266 73V0H769V73Q847 78 874 93T891 141L789 430H392L296
141Q286 110 320 96T437 73V0H0ZM217 1815Q220 1826 227 1844T243 1882L260 1918Q268 1936 273 1946H1037L1069 1915Q1066 1904 1059 1886T1042 1847L1025 1810L1013 1783H249L217 1815ZM284 1493Q284 1530 297 1562T331 1618T381 1655T440 1669Q497 1669 528 1639T559
1548Q559 1511 547 1479T513 1423T464 1385T403 1371Q345 1371 315 1402T284 1493ZM432 550H747L582 1015L432 550ZM707 1493Q707 1530 720 1562T754 1618T804 1655T863 1669Q919 1669 950 1639T982 1548Q982 1511 970 1479T936 1423T886 1385T825 1371Q767 1371
737 1402T707 1493Z" />
<glyph unicode="&#x1df;" glyph-name="uni01DF" horiz-adv-x="1023" d="M65 201Q65 269 89 316T151 401Q175 425 206 447T290 491T422 531T623 569V687Q623 718 617 744T596 790T556 819T493 830Q469 830 445 821T403 796T375 756T367 702Q368 696 351 687T308
669T251 650T190 634T138 624T107 622L86 676Q110 736 161 787T282 877T432 938T597 960Q666 960 716 942T798 892T847 815T863 720V238Q863 196 874 178T903 160Q910 160 917 161T935 165T960 174L994 187L1016 112Q974 83 929 57T843 12T769 -19T717 -30Q680
-30 655 12T624 129Q579 84 534 54T446 5T364 -22T293 -30Q251 -30 211 -16T138 27T85 99T65 201ZM99 1575Q102 1586 109 1604T125 1642L142 1678Q150 1696 155 1706H919L951 1675Q948 1664 941 1646T924 1607L907 1570L895 1543H131L99 1575ZM166 1213Q166 1250
179 1282T213 1338T263 1375T322 1389Q379 1389 410 1359T441 1268Q441 1231 429 1199T395 1143T346 1105T285 1091Q227 1091 197 1122T166 1213ZM319 259Q319 225 328 203T352 168T383 150T412 145Q431 145 452 149T498 165T554 197T623 250V471Q563 461 522 452T453
432T408 411T377 387Q351 361 335 331T319 259ZM589 1213Q589 1250 602 1282T636 1338T686 1375T745 1389Q801 1389 832 1359T864 1268Q864 1231 852 1199T818 1143T768 1105T707 1091Q649 1091 619 1122T589 1213Z" />
<glyph unicode="&#x1e0;" glyph-name="uni01E0" horiz-adv-x="1287" d="M0 0V73Q68 85 104 98T151 141L500 1207Q524 1227 551 1244T608 1274T667 1298T722 1317L1142 141Q1147 127 1155 116T1177 97T1212 83T1266 73V0H769V73Q847 78 874 93T891 141L789 430H392L296
141Q286 110 320 96T437 73V0H0ZM217 1807Q220 1818 227 1836T243 1874L260 1910Q268 1928 273 1938H1037L1069 1907Q1066 1896 1059 1878T1042 1839L1025 1802L1013 1775H249L217 1807ZM432 550H747L582 1015L432 550ZM495 1493Q495 1530 508 1562T542 1618T592
1655T652 1669Q708 1669 739 1639T770 1548Q770 1511 758 1479T724 1423T675 1385T614 1371Q556 1371 526 1402T495 1493Z" />
<glyph unicode="&#x1e1;" glyph-name="uni01E1" horiz-adv-x="1023" d="M65 201Q65 269 89 316T151 401Q175 425 206 447T290 491T422 531T623 569V687Q623 718 617 744T596 790T556 819T493 830Q469 830 445 821T403 796T375 756T367 702Q368 696 351 687T308
669T251 650T190 634T138 624T107 622L86 676Q110 736 161 787T282 877T432 938T597 960Q666 960 716 942T798 892T847 815T863 720V238Q863 196 874 178T903 160Q910 160 917 161T935 165T960 174L994 187L1016 112Q974 83 929 57T843 12T769 -19T717 -30Q680
-30 655 12T624 129Q579 84 534 54T446 5T364 -22T293 -30Q251 -30 211 -16T138 27T85 99T65 201ZM99 1567Q102 1578 109 1596T125 1634L142 1670Q150 1688 155 1698H919L951 1667Q948 1656 941 1638T924 1599L907 1562L895 1535H131L99 1567ZM319 259Q319 225
328 203T352 168T383 150T412 145Q431 145 452 149T498 165T554 197T623 250V471Q563 461 522 452T453 432T408 411T377 387Q351 361 335 331T319 259ZM377 1213Q377 1250 390 1282T424 1338T474 1375T534 1389Q590 1389 621 1359T652 1268Q652 1231 640 1199T606
1143T557 1105T496 1091Q438 1091 408 1122T377 1213Z" />
<glyph unicode="&#x1e2;" glyph-name="uni01E2" horiz-adv-x="1655" d="M0 0V73Q62 82 97 97T145 141L534 1103Q541 1120 537 1131T514 1152T463 1170T381 1187V1260H1506L1543 1228Q1541 1202 1538 1163T1529 1083T1516 1006T1502 950H1427Q1422 1043 1403 1091T1345
1140H1009V735H1407L1441 700L1420 667Q1409 648 1396 629L1371 594Q1359 578 1349 569Q1334 584 1314 594T1275 611T1242 621T1225 624H1009V184Q1009 169 1016 158T1046 138T1109 125T1216 120H1311Q1357 120 1390 131T1448 166T1494 231T1536 330L1609 304L1598
214Q1593 166 1588 124T1577 48T1568 0H624V73Q692 87 725 103T759 134V624H504L308 141Q295 112 318 97T416 73V0H0ZM547 735H759V1118Q759 1129 752 1134T735 1138T714 1127T696 1101L547 735ZM552 1487Q555 1498 562 1516T578 1554L595 1590Q603 1608 608 1618H1372L1404
1587Q1401 1576 1394 1558T1377 1519L1360 1482L1348 1455H584L552 1487Z" />
<glyph unicode="&#x1e3;" glyph-name="uni01E3" horiz-adv-x="1501" d="M65 201Q65 260 87 314T157 414T279 496T456 558Q483 565 532 569T632 576V655Q632 745 601 787T505 830Q479 830 451 820T400 792T366 749T363 691Q364 684 348 675T307 657T250 638T189
623T138 613T107 612L86 663Q106 716 141 758T221 834T315 890T414 929T508 952T588 960Q663 960 718 936T807 856Q840 885 875 905T945 937T1015 954T1079 960Q1167 960 1234 926T1346 834T1413 703T1436 550Q1426 540 1410 528T1376 505T1338 483T1302 467H858Q857
463 857 454V441Q857 394 872 342T916 244T990 170T1092 140Q1123 140 1154 145T1218 164T1290 201T1376 259Q1382 256 1390 247T1406 228L1420 208Q1426 199 1428 195Q1368 129 1318 86T1218 17T1118 -19T1006 -30Q963 -30 917 -16T828 26T746 92T680 181Q635
125 586 85T488 20T389 -18T293 -30Q257 -30 217 -18T143 21T87 93T65 201ZM312 259Q312 228 321 206T346 171T378 151T412 145Q435 145 462 151T518 171T580 207T645 264Q639 287 636 312T632 365V463Q597 461 567 460T526 456Q463 442 422 421T356 373T322 318T312
259ZM366 1207Q369 1218 376 1236T392 1274L409 1310Q417 1328 422 1338H1186L1218 1307Q1215 1296 1208 1278T1191 1239L1174 1202L1162 1175H398L366 1207ZM865 580H1172Q1193 580 1201 587T1210 616Q1210 669 1199 711T1166 783T1116 829T1050 845Q1027 845
999 837T945 800T897 720T865 580Z" />
<glyph unicode="&#x1e6;" glyph-name="Gcaron" horiz-adv-x="1232" d="M55 582Q55 748 108 879T255 1102T476 1242T752 1290Q785 1290 830 1283T924 1263T1017 1231T1095 1188Q1100 1184 1096 1170T1083 1135T1060 1091L1032 1045Q1019 1023 1006 1006T984 981L921
995Q888 1043 855 1076T785 1128T710 1156T628 1165Q603 1165 570 1155T501 1121T431 1057T369 959T325 821T308 637Q308 503 339 407T421 249T539 158T676 128Q731 128 774 138T853 165V470Q853 481 849 491T829 512T781 532T692 552V625H1190V552Q1133 538 1113
516T1093 470V169Q1019 108 955 70T834 9T728 -21T633 -30Q560 -30 489 -14T354 36T235 121T140 240T78 393T55 582ZM317 1713Q331 1733 345 1749T377 1775L660 1587L937 1775Q954 1766 968 1750T995 1713L726 1384H589L317 1713Z" />
<glyph unicode="&#x1e7;" glyph-name="gcaron" horiz-adv-x="1059" d="M15 -222Q15 -197 25 -171T64 -116T140 -52T266 25Q152 71 152 123Q152 134 161 152T192 195T249 250T334 314Q278 329 232 356T154 420T103 503T85 602Q85 675 121 740T217 854T356 931T523
960Q592 960 652 941T760 890Q847 901 917 923T1029 960L1057 923Q1054 912 1048 897T1034 867T1018 836T1000 808Q966 802 931 798T854 792Q875 757 886 720T898 641Q898 564 864 501T773 392T641 321T483 295H473Q435 260 425 239T414 211Q414 202 420 194T448
177T516 159T640 140Q757 125 834 104T956 52T1020 -17T1038 -105Q1038 -152 1017 -199T957 -289T868 -370T758 -434T634 -477T505 -493Q453 -493 397 -487T286 -466T182 -431T96 -379T37 -309T15 -222ZM182 1445Q194 1465 208 1485T240 1513L522 1295L800 1513Q817
1505 835 1485T867 1445L589 1064H452L182 1445ZM255 -183Q255 -216 279 -246T347 -300T448 -336T575 -350Q634 -350 677 -336T748 -296T791 -239T805 -172Q805 -153 796 -134T760 -98T684 -67T556 -42Q507 -36 466 -28Q424 -20 387 -12Q341 -44 315 -69T275 -114T259
-151T255 -183ZM315 659Q315 609 327 565T364 487T429 435T522 415Q551 415 577 426T624 461T656 518T668 600Q668 651 655 695T615 773T551 825T461 845Q436 845 410 834T363 799T329 741T315 659Z" />
<glyph unicode="&#x1e8;" glyph-name="uni01E8" horiz-adv-x="1267" d="M43 0V73Q111 87 145 103T180 134V1125Q180 1137 148 1155T43 1187V1260H568V1187Q500 1173 465 1156T430 1125V659L802 1098Q825 1125 834 1141Q844 1157 839 1166T811 1179T750 1187V1260H1200V1187Q1168
1183 1146 1179T1106 1169T1075 1152T1045 1125L616 676L1098 165Q1114 147 1131 138T1167 125T1209 121T1257 125L1264 52L1199 32Q1163 20 1127 10T1058 -7T1001 -14Q972 -14 950 -5T907 29L430 625V134Q430 122 462 105T568 73V0H43ZM289 1713Q303 1733 317
1749T349 1775L632 1587L909 1775Q926 1766 940 1750T967 1713L698 1384H561L289 1713Z" />
<glyph unicode="&#x1e9;" glyph-name="uni01E9" horiz-adv-x="1129" d="M48 0V73Q114 90 147 103T180 134V1266Q180 1312 176 1337T157 1374T117 1391T48 1400V1470Q145 1484 226 1502T376 1550L420 1509V534L683 769Q716 799 725 816T728 843T701 854T655 857V930H1102V857Q1057
852 1014 836T927 788L623 558L984 149Q998 133 1012 124Q1025 114 1042 110T1080 105T1131 106L1137 33Q1108 26 1071 18L1000 4Q965 -2 938 -6T900 -10Q858 -10 829 2T778 43L420 517V134Q420 126 423 120T438 108T471 93T530 73V0H48ZM252 1963Q266 1983 280
1999T312 2025L595 1837L872 2025Q889 2016 903 2000T930 1963L661 1634H524L252 1963Z" />
<glyph unicode="&#x1ee;" glyph-name="uni01EE" horiz-adv-x="1107" d="M90 140Q90 149 104 174T141 228T191 283T244 320Q268 273 300 235T370 171T447 130T530 115Q658 115 728 186T799 385Q799 445 780 496T726 584T646 643T545 664Q521 664 501 662T460 655T417
640T368 615L332 593L329 596Q325 600 318 608L305 624L292 640Q285 648 282 653L280 656V657L281 658L661 1130H334Q316 1130 296 1111T258 1059T223 985T196 896L109 915L147 1276Q168 1270 189 1267T235 1262T286 1260H937L969 1210L641 798Q655 800 668 801T694
803Q764 803 824 779T929 707T999 592T1024 436Q1024 365 1002 304T942 191T853 99T742 30T619 -13T491 -28Q405 -28 332 -9T205 36T121 91T90 140ZM214 1765Q226 1785 240 1805T272 1833L554 1615L832 1833Q849 1825 867 1805T899 1765L621 1384H484L214 1765Z"
/>
<glyph unicode="&#x1ef;" glyph-name="uni01EF" horiz-adv-x="976" d="M21 -295Q21 -284 46 -260T106 -211T176 -166T233 -143Q278 -244 333 -299T466 -354Q509 -354 548 -339T616 -291T663 -210T681 -92Q681 -25 667 37T619 147T532 222T399 248Q360 248 315
237T218 209Q215 213 210 222T198 242L188 262Q184 271 183 275L601 810H302Q257 810 219 760T155 600L83 620L108 946Q129 940 148 937T189 932T234 930H874L897 887L491 357Q500 358 512 359T533 360Q610 358 680 335T804 263T889 141T921 -34Q921 -105 900 -166T842
-278T756 -369T650 -436T532 -478T412 -493Q327 -493 255 -471T131 -417T50 -352T21 -295ZM131 1393Q145 1413 159 1429T191 1455L474 1267L751 1455Q768 1446 782 1430T809 1393L540 1064H403L131 1393Z" />
<glyph unicode="&#x1f4;" glyph-name="uni01F4" horiz-adv-x="1232" d="M55 582Q55 748 108 879T255 1102T476 1242T752 1290Q785 1290 830 1283T924 1263T1017 1231T1095 1188Q1100 1184 1096 1170T1083 1135T1060 1091L1032 1045Q1019 1023 1006 1006T984 981L921
995Q888 1043 855 1076T785 1128T710 1156T628 1165Q603 1165 570 1155T501 1121T431 1057T369 959T325 821T308 637Q308 503 339 407T421 249T539 158T676 128Q731 128 774 138T853 165V470Q853 481 849 491T829 512T781 532T692 552V625H1190V552Q1133 538 1113
516T1093 470V169Q1019 108 955 70T834 9T728 -21T633 -30Q560 -30 489 -14T354 36T235 121T140 240T78 393T55 582ZM457 1427L822 1767Q845 1755 873 1738L926 1706Q952 1691 972 1677T1000 1655L1009 1603L525 1360Q508 1368 490 1388T457 1427Z" />
<glyph unicode="&#x1f5;" glyph-name="uni01F5" horiz-adv-x="1059" d="M15 -222Q15 -197 25 -171T64 -116T140 -52T266 25Q152 71 152 123Q152 134 161 152T192 195T249 250T334 314Q278 329 232 356T154 420T103 503T85 602Q85 675 121 740T217 854T356 931T523
960Q592 960 652 941T760 890Q847 901 917 923T1029 960L1057 923Q1054 912 1048 897T1034 867T1018 836T1000 808Q966 802 931 798T854 792Q875 757 886 720T898 641Q898 564 864 501T773 392T641 321T483 295H473Q435 260 425 239T414 211Q414 202 420 194T448
177T516 159T640 140Q757 125 834 104T956 52T1020 -17T1038 -105Q1038 -152 1017 -199T957 -289T868 -370T758 -434T634 -477T505 -493Q453 -493 397 -487T286 -466T182 -431T96 -379T37 -309T15 -222ZM255 -183Q255 -216 279 -246T347 -300T448 -336T575 -350Q634
-350 677 -336T748 -296T791 -239T805 -172Q805 -153 796 -134T760 -98T684 -67T556 -42Q507 -36 466 -28Q424 -20 387 -12Q341 -44 315 -69T275 -114T259 -151T255 -183ZM315 659Q315 609 327 565T364 487T429 435T522 415Q551 415 577 426T624 461T656 518T668
600Q668 651 655 695T615 773T551 825T461 845Q436 845 410 834T363 799T329 741T315 659ZM378 1083L589 1512Q601 1511 633 1507T703 1496T773 1484T817 1474L847 1420L465 1040Q456 1041 444 1046T418 1058T395 1071T378 1083Z" />
<glyph unicode="&#x1f8;" glyph-name="uni01F8" horiz-adv-x="1359" d="M43 0V73Q116 82 148 101T180 134V1114Q115 1175 43 1187V1260H322Q337 1260 346 1258T366 1247T388 1224L418 1182L1030 334V1125Q1030 1131 1024 1139T1002 1156T960 1173T893 1187V1260H1318V1187Q1246
1177 1213 1158T1180 1125V-30Q1084 -22 1026 7T941 74L330 920V134Q330 128 337 120T360 103T403 86T468 73V0H43ZM333 1594L343 1657Q350 1665 372 1681T422 1714L472 1746Q496 1761 507 1767L872 1420Q858 1401 844 1385T812 1360L333 1594Z" />
<glyph unicode="&#x1f9;" glyph-name="uni01F9" horiz-adv-x="1190" d="M48 0V73Q114 90 147 103T180 134V689Q180 728 179 751T165 787T126 806T48 818V888Q96 893 137 900T217 915T291 935T363 960L405 918L416 774Q533 874 634 917T814 960Q857 960 897 947T967
903T1016 823T1035 704V134Q1035 127 1041 121T1062 107T1103 92T1168 73V0H663V73Q735 92 765 106T795 134V588Q795 643 790 679T772 738T740 769T690 778Q666 778 639 772T580 750T508 707T420 639V134Q420 119 454 103T553 73V0H48ZM300 1417L329 1473Q339 1476
370 1482L437 1494Q473 1501 505 1506T550 1512L768 1086Q762 1080 751 1073T728 1060T703 1048T682 1040L300 1417Z" />
<glyph unicode="&#x1fa;" glyph-name="Aringacute" horiz-adv-x="1287" d="M0 0V73Q68 85 104 98T151 141L500 1207Q524 1227 551 1244T608 1274T667 1298T722 1317L1142 141Q1147 127 1155 116T1177 97T1212 83T1266 73V0H769V73Q847 78 874 93T891 141L789 430H392L296
141Q286 110 320 96T437 73V0H0ZM424 1524Q424 1578 444 1625T497 1707T573 1763T664 1783Q704 1783 737 1770T793 1733T828 1676T841 1604Q841 1551 821 1504T768 1423T691 1368T602 1348Q563 1348 530 1360T474 1396T437 1451T424 1524ZM432 550H747L582 1015L432
550ZM433 1867L798 2207Q821 2195 849 2178L902 2146Q928 2131 948 2117T976 2095L985 2043L501 1800Q484 1808 466 1828T433 1867ZM559 1565Q559 1519 579 1494T623 1469Q663 1469 684 1496T706 1563Q706 1611 686 1636T643 1662Q622 1662 607 1654T581 1632T565
1601T559 1565Z" />
<glyph unicode="&#x1fb;" glyph-name="aringacute" horiz-adv-x="1023" d="M65 201Q65 269 89 316T151 401Q175 425 206 447T290 491T422 531T623 569V687Q623 718 617 744T596 790T556 819T493 830Q469 830 445 821T403 796T375 756T367 702Q368 696 351 687T308
669T251 650T190 634T138 624T107 622L86 676Q110 736 161 787T282 877T432 938T597 960Q666 960 716 942T798 892T847 815T863 720V238Q863 196 874 178T903 160Q910 160 917 161T935 165T960 174L994 187L1016 112Q974 83 929 57T843 12T769 -19T717 -30Q680
-30 655 12T624 129Q579 84 534 54T446 5T364 -22T293 -30Q251 -30 211 -16T138 27T85 99T65 201ZM306 1204Q306 1258 326 1305T379 1387T455 1443T546 1463Q586 1463 619 1450T675 1413T710 1356T723 1284Q723 1231 703 1184T650 1103T573 1048T484 1028Q445 1028
412 1040T356 1076T319 1131T306 1204ZM319 259Q319 225 328 203T352 168T383 150T412 145Q431 145 452 149T498 165T554 197T623 250V471Q563 461 522 452T453 432T408 411T377 387Q351 361 335 331T319 259ZM368 1523L579 1952Q591 1951 623 1947T693 1936T763
1924T807 1914L837 1860L455 1480Q446 1481 434 1486T408 1498T385 1511T368 1523ZM441 1245Q441 1199 461 1174T505 1149Q545 1149 566 1176T588 1243Q588 1291 568 1316T525 1342Q504 1342 489 1334T463 1312T447 1281T441 1245Z" />
<glyph unicode="&#x1fc;" glyph-name="AEacute" horiz-adv-x="1655" d="M0 0V73Q62 82 97 97T145 141L534 1103Q541 1120 537 1131T514 1152T463 1170T381 1187V1260H1506L1543 1228Q1541 1202 1538 1163T1529 1083T1516 1006T1502 950H1427Q1422 1043 1403 1091T1345
1140H1009V735H1407L1441 700L1420 667Q1409 648 1396 629L1371 594Q1359 578 1349 569Q1334 584 1314 594T1275 611T1242 621T1225 624H1009V184Q1009 169 1016 158T1046 138T1109 125T1216 120H1311Q1357 120 1390 131T1448 166T1494 231T1536 330L1609 304L1598
214Q1593 166 1588 124T1577 48T1568 0H624V73Q692 87 725 103T759 134V624H504L308 141Q295 112 318 97T416 73V0H0ZM547 735H759V1118Q759 1129 752 1134T735 1138T714 1127T696 1101L547 735ZM768 1427L1133 1767Q1156 1755 1184 1738L1238 1706Q1263 1691 1283
1677T1311 1655L1320 1603L836 1360Q819 1368 801 1388T768 1427Z" />
<glyph unicode="&#x1fd;" glyph-name="aeacute" horiz-adv-x="1501" d="M65 201Q65 260 87 314T157 414T279 496T456 558Q483 565 532 569T632 576V655Q632 745 601 787T505 830Q479 830 451 820T400 792T366 749T363 691Q364 684 348 675T307 657T250 638T189
623T138 613T107 612L86 663Q106 716 141 758T221 834T315 890T414 929T508 952T588 960Q663 960 718 936T807 856Q840 885 875 905T945 937T1015 954T1079 960Q1167 960 1234 926T1346 834T1413 703T1436 550Q1426 540 1410 528T1376 505T1338 483T1302 467H858Q857
463 857 454V441Q857 394 872 342T916 244T990 170T1092 140Q1123 140 1154 145T1218 164T1290 201T1376 259Q1382 256 1390 247T1406 228L1420 208Q1426 199 1428 195Q1368 129 1318 86T1218 17T1118 -19T1006 -30Q963 -30 917 -16T828 26T746 92T680 181Q635
125 586 85T488 20T389 -18T293 -30Q257 -30 217 -18T143 21T87 93T65 201ZM312 259Q312 228 321 206T346 171T378 151T412 145Q435 145 462 151T518 171T580 207T645 264Q639 287 636 312T632 365V463Q597 461 567 460T526 456Q463 442 422 421T356 373T322 318T312
259ZM635 1083L846 1512Q858 1511 890 1507T960 1496T1030 1484T1074 1474L1104 1420L722 1040Q713 1041 701 1046T675 1058T652 1071T635 1083ZM865 580H1172Q1193 580 1201 587T1210 616Q1210 669 1199 711T1166 783T1116 829T1050 845Q1027 845 999 837T945
800T897 720T865 580Z" />
</font>
</defs>
</svg>
