<?xml version="1.0" standalone="no"?> <!DOCTYPE svg PUBLIC "-//W3C//DTD SVG 1.0//EN" "http://www.w3.org/TR/2001/REC-SVG-20010904/DTD/svg10.dtd" > <svg xmlns="http://www.w3.org/2000/svg" width="100%" height="100%">
<defs >
<font id="GentiumBasic-Italic" horiz-adv-x="936" ><font-face
    font-family="Gentium Basic"
    units-per-em="2048"
    panose-1="2 0 6 6 8 0 0 2 0 4"
    ascent="2168"
    descent="-725"
    alphabetic="0" />
<missing-glyph horiz-adv-x="1400" d="M100 0V1800H1300V0H100ZM150 50H1250V1750H150V50Z" />
<glyph unicode=" " glyph-name="space" horiz-adv-x="410" />
<glyph unicode="!" glyph-name="exclam" horiz-adv-x="410" d="M51 68Q51 97 62 128T94 186T142 229T201 246Q238 246 260 220T283 152Q283 121 273 89T243 30T196 -14T135 -31Q95 -31 73 -4T51 68ZM152 371L238 1341L273 1365Q294 1379 317 1393T365 1418T410
1436L446 1411L250 389Q230 375 216 367T176 350L152 371Z" />
<glyph unicode="&quot;" glyph-name="quotedbl" horiz-adv-x="791" d="M231 858L264 1382L292 1396Q308 1403 325 1410L358 1422Q373 1427 383 1430L420 1409L305 874Q288 865 271 862T231 858ZM557 858L590 1382L618 1396Q634 1403 651 1410L684 1422Q699 1427
709 1430L745 1409L631 874Q615 865 597 862T557 858Z" />
<glyph unicode="#" glyph-name="numbersign" horiz-adv-x="823" d="M55 500Q63 520 74 545T96 590H250L345 846H207L188 870Q196 892 207 916T229 961H388L496 1251Q517 1267 539 1275T584 1292L606 1270L491 961H667L774 1251Q796 1267 818 1275T862 1292L885
1270L770 961H911L930 936Q922 914 910 889T889 846H728L633 590H778L797 563L778 518Q767 492 758 475H590L477 170Q459 156 436 146T387 127L367 147L488 475H312L199 170Q180 156 158 146T109 127L86 147L208 475H74L55 500ZM354 590H530L625 846H449L354 590Z"
/>
<glyph unicode="$" glyph-name="dollar" horiz-adv-x="823" d="M-16 108Q-16 120 -5 142T23 186T57 224T89 241Q99 241 115 220T157 171T219 120T307 91L379 599L355 611Q292 641 250 675T181 744T144 815T133 885Q133 941 157 996T225 1097T331 1177T468 1224L484
1338L503 1350L513 1356Q517 1358 523 1360T542 1366L564 1344L548 1231H549Q621 1231 684 1205T793 1144Q799 1140 788 1121T760 1079T724 1037T696 1011L668 1016Q644 1049 609 1078T533 1122L478 732Q547 696 596 662T677 590T724 511T739 418Q739 342 711 272T632
143T515 43T372 -17L355 -138Q346 -146 340 -150T328 -158T314 -163L294 -168L274 -147L290 -30Q283 -30 276 -30T262 -31Q226 -31 178 -19T87 13T14 58T-16 108ZM249 950Q249 931 255 911T279 868T326 822T404 771L455 1132Q408 1129 370 1112T305 1068T264 1011T249
950ZM388 95Q436 104 477 127T548 182T596 256T614 343Q614 374 606 402T578 456T528 507T453 559L388 95Z" />
<glyph unicode="%" glyph-name="percent" horiz-adv-x="1315" d="M104 0L1067 1188Q1095 1205 1131 1217T1196 1237L1221 1204L256 16Q246 9 229 2T192 -12L154 -25L123 -35L104 0ZM111 829Q111 873 121 920T152 1012T200 1097T265 1168T344 1217T436 1235Q484
1235 522 1215T587 1158T627 1072T641 965Q641 921 631 874T600 782T552 696T487 624T408 575T315 557Q267 557 230 578T166 635T125 722T111 829ZM246 803Q246 719 276 679T352 639Q381 639 404 657T444 704T473 770T492 844T502 916T506 975Q506 1066 475 1109T399
1153Q368 1153 345 1134T305 1085T277 1016T259 938T249 864T246 803ZM682 242Q682 285 692 332T723 424T771 509T836 580T915 629T1006 647Q1055 647 1093 627T1158 570T1198 484T1212 377Q1212 311 1189 239T1122 107T1020 8T887 -31Q839 -31 801 -10T737 47T696
134T682 242ZM817 215Q817 131 846 91T922 51Q951 51 974 69T1014 116T1042 182T1061 256T1072 328T1075 387Q1075 478 1045 521T971 565Q940 565 917 546T877 497T848 428T830 350T820 276T817 215Z" />
<glyph unicode="&amp;" glyph-name="ampersand" horiz-adv-x="1190" d="M68 362Q75 419 102 476T174 589T279 698T412 802Q395 873 390 941Q384 1008 393 1073Q404 1155 437 1223Q470 1292 517 1342T623 1421T741 1450Q798 1450 835 1429T893 1372T919 1290T918
1194Q902 1092 825 1002T633 838L564 794Q587 728 618 662T685 532T760 409T838 297Q870 342 890 389T918 481Q925 529 918 570T893 641T852 688T801 705L784 733Q797 746 817 761T858 784H1257L1274 748Q1248 717 1223 697T1174 659Q1159 668 1139 675T1099 687T1059
696T1024 700Q1031 682 1034 665T1039 628T1038 582T1032 522Q1022 453 986 377T891 228L938 174Q960 148 981 127Q1012 95 1050 85T1143 88L1145 45Q1060 7 1005 -12T930 -31T869 6T773 110Q695 47 602 8T403 -31Q319 -31 252 -5T139 72T75 195T68 362ZM215 383Q206
313 222 258T271 164T350 105T446 84Q526 84 594 109T720 177Q681 229 642 290T566 419T497 559T440 705Q385 662 346 623T279 544T237 466T215 383ZM508 1073T514 1010T538 881Q605 921 650 957T723 1028T766 1096T786 1161Q793 1198 791 1231T777 1289T740 1328T678
1343Q642 1343 614 1325T566 1276T534 1208T516 1130Q508 1073 514 1010Z" />
<glyph unicode="&apos;" glyph-name="quotesingle" horiz-adv-x="410" d="M231 858L264 1382L292 1396Q308 1403 324 1409T356 1421T383 1430L420 1409L305 874Q288 865 271 862T231 858Z" />
<glyph unicode="(" glyph-name="parenleft" horiz-adv-x="604" d="M108 332Q102 480 125 641Q149 807 198 958Q249 1110 321 1237T485 1460T682 1604L705 1559Q636 1511 571 1427T449 1228T350 973Q308 835 285 672Q264 523 266 385Q267 244 288 120T350 -105T449
-270L412 -315Q318 -265 253 -169T152 54T108 332Z" />
<glyph unicode=")" glyph-name="parenright" horiz-adv-x="604" d="M-82 -270Q-14 -222 52 -141T174 51T274 299T340 598Q360 743 359 887T336 1158T274 1390T176 1559L213 1604Q307 1554 371 1455T472 1224T515 940T500 627Q477 462 426 313T303 41T139 -174T-57
-315L-82 -270Z" />
<glyph unicode="*" glyph-name="asterisk" horiz-adv-x="725" d="M-6 950L0 993L321 1133L59 1262Q62 1274 64 1289T70 1321L78 1352Q81 1366 86 1376L123 1399L356 1188L367 1513Q377 1519 390 1526L418 1540Q433 1547 446 1552T471 1561L504 1540L415 1188L686
1384L706 1369L728 1352Q740 1343 749 1334T764 1317L760 1276L436 1134L698 1006Q693 981 687 947T672 891L635 868L401 1081L391 756L366 742Q352 735 338 729T311 717T287 709L256 727L343 1079L72 883L29 916Q5 935 -6 950Z" />
<glyph unicode="+" glyph-name="plus" horiz-adv-x="770" d="M75 529L94 574Q105 600 116 620H350L389 891Q406 897 435 906T485 920L506 897L466 620H702L720 596Q717 586 712 573L702 548Q697 536 691 524L681 505H449L411 236Q402 231 390 227T364 218T338
211T315 205L295 227L334 505H94L75 529Z" />
<glyph unicode="," glyph-name="comma" horiz-adv-x="410" d="M-18 -270Q135 -108 135 0Q135 18 130 35T112 65T79 82T27 84L18 129Q29 141 58 158T122 191T189 218T238 229Q256 219 268 210T288 187T299 153T303 102Q303 76 292 42T260 -30T212 -108T153 -185T86
-253T16 -305L-18 -270Z" />
<glyph unicode="-" glyph-name="hyphen" horiz-adv-x="641" d="M43 479Q51 501 62 523T86 565H561L580 541Q572 519 560 496L539 455H61L43 479Z" />
<glyph unicode="." glyph-name="period" horiz-adv-x="410" d="M51 68Q51 97 62 128T94 186T142 229T201 246Q238 246 260 220T283 152Q283 121 273 89T243 30T196 -14T135 -31Q95 -31 73 -4T51 68Z" />
<glyph unicode="/" glyph-name="slash" horiz-adv-x="819" d="M-111 -311L793 1550Q820 1567 852 1579T913 1599L944 1577L43 -285Q33 -292 17 -299T-17 -314L-52 -326L-82 -336L-111 -311Z" />
<glyph unicode="0" glyph-name="zero" horiz-adv-x="823" d="M47 422Q47 480 53 547T74 683T113 824T172 961Q203 1018 240 1068T322 1155T417 1213T528 1235Q598 1235 650 1201T736 1107T786 964T803 784Q803 724 797 656T776 515T736 372Q710 301 672 236Q638
179 602 132Q564 83 521 47T428 -10T319 -31Q249 -31 198 3T114 98T64 242T47 422ZM199 440Q199 264 245 175T373 86Q431 86 474 124T547 225T597 364T628 520T644 668T649 786Q649 868 636 930T599 1035T544 1098T477 1120Q421 1120 379 1083T305 985T254 850T221
700T204 556T199 440Z" />
<glyph unicode="1" glyph-name="one" horiz-adv-x="823" d="M63 0L70 53Q142 62 190 73T268 97T311 120T326 143L434 940Q440 980 440 1002T432 1038Q427 1044 413 1048T370 1051T298 1044T195 1024L182 1075Q221 1087 275 1108T386 1154L494 1202Q546 1227 578
1245L606 1210L461 143Q459 133 467 122T499 98T565 74T674 53L666 0H63Z" />
<glyph unicode="2" glyph-name="two" horiz-adv-x="823" d="M0 74Q182 255 305 395T502 643T609 833T641 977Q641 1049 596 1095T467 1141Q430 1141 400 1122T347 1073T310 1006T291 934L262 917Q248 909 234 903T205 892T168 885L147 915Q154 967 190 1023T281
1127T404 1204T541 1235Q591 1235 635 1222T712 1180T764 1109T784 1006Q784 944 756 868T658 688T468 445T164 115H539Q554 115 566 123T590 144T611 173T628 207Q646 247 657 299L700 287L649 0H14L0 74Z" />
<glyph unicode="3" glyph-name="three" horiz-adv-x="823" d="M-12 119L27 186Q65 152 95 130T154 95T210 77T274 72Q345 72 398 99T488 172T542 277T561 401Q561 459 544 501T498 570T434 610T362 623H344Q339 623 335 622T324 620T303 616L297 676Q355 693 408
716T501 775T566 858T590 973Q590 1004 582 1034T555 1088T509 1126T440 1141Q405 1141 377 1128T328 1091T297 1038T287 973Q253 956 224 947T156 934L135 965Q141 1007 174 1054T258 1142T370 1208T496 1235Q556 1235 601 1216T675 1164T718 1089T733 1001Q733
947 716 901T667 816T594 748T504 698Q549 692 587 668T652 607T694 524T709 428Q709 334 678 251T590 105T452 6T270 -31Q199 -31 131 4T-12 119Z" />
<glyph unicode="4" glyph-name="four" horiz-adv-x="823" d="M12 383L565 1174Q607 1192 640 1211L700 1245L727 1210L625 457H733L756 426Q744 411 734 400T713 381L694 366Q684 359 674 350H610L578 104Q576 96 580 90T598 76T634 60T694 43L688 0H248L254 43Q313
54 351 63T411 81T442 98T453 115L483 350H39L12 383ZM162 455H500L580 1040L162 455Z" />
<glyph unicode="5" glyph-name="five" horiz-adv-x="823" d="M-4 119L37 186Q82 151 118 129T186 94T243 77T295 72Q370 72 423 105T509 192T559 311T575 444Q575 493 561 534T520 606T454 653T365 670Q263 670 156 590L119 623L142 706L171 807L201 915L230 1022L254
1122Q266 1169 272 1204H666Q691 1204 711 1206T746 1213Q763 1217 776 1223L799 1194Q787 1178 772 1161T742 1129T713 1101T686 1079H338Q332 1050 320 1004L296 909L271 818Q259 776 252 754Q289 766 338 773T434 780Q503 780 557 755T647 688T703 591T723 477Q723
417 710 357T673 240T612 134T530 48T426 -10T303 -31Q220 -31 144 4T-4 119Z" />
<glyph unicode="6" glyph-name="six" horiz-adv-x="823" d="M68 360Q68 468 90 571T156 768T262 943T405 1087T583 1192T791 1249L799 1190Q691 1167 603 1117T447 996T330 838T254 655Q323 720 387 745T504 770Q632 770 697 694T762 483Q762 429 750 370T713
253T653 145T574 54T475 -8T360 -31Q295 -31 242 -3T150 77T90 201T68 360ZM215 373Q215 223 268 150T412 76Q452 76 483 92T538 137T577 201T602 275T616 351T621 422Q621 493 606 539T566 611T511 648T451 659Q393 659 339 632T228 539Q221 497 218 456T215 373Z"
/>
<glyph unicode="7" glyph-name="seven" horiz-adv-x="823" d="M117 2Q215 155 296 295L450 567L588 826L721 1079H311Q298 1079 285 1078T255 1063T219 1019T170 930L133 948L148 1006L168 1077L188 1148Q198 1182 207 1204H842L866 1167L753 949L641 732L536
524L442 334L363 170Q328 96 305 43Q239 -5 150 -31L117 2Z" />
<glyph unicode="8" glyph-name="eight" horiz-adv-x="823" d="M33 250Q33 319 58 378T123 486T216 576T324 647Q292 667 263 689T212 741T177 806T164 889Q164 962 194 1025T276 1135T393 1208T530 1235Q591 1235 637 1218T715 1169T762 1095T778 1001Q778 946
759 900T709 816T638 746T555 687Q592 664 625 637T684 575T725 496T741 397Q741 312 706 235T612 98T474 4T311 -31Q242 -31 190 -8T103 54T51 143T33 250ZM178 274Q178 231 191 194T229 130T289 86T369 70Q424 70 466 94T536 158T578 245T592 342Q592 397 575
437T528 508T462 563T386 611Q337 578 299 544T233 470T192 383T178 274ZM287 940Q287 901 304 871T349 816T415 769L491 725Q524 747 552 772T600 828T631 895T643 975Q643 1056 596 1098T471 1141Q431 1141 398 1124T340 1079T301 1015T287 940Z" />
<glyph unicode="9" glyph-name="nine" horiz-adv-x="823" d="M68 16Q186 43 278 95T440 219T554 380T624 574Q572 515 507 480T367 444Q307 444 259 465T176 523T123 612T104 725Q104 781 119 841T161 957T227 1064T314 1153T417 1213T535 1235Q589 1235 638 1213T723
1144T781 1028T803 862Q803 691 755 537T615 262T387 60T76 -43L68 16ZM244 770Q244 705 261 663T305 597T362 564T420 555Q494 555 548 593T645 693Q649 728 651 763T653 836Q653 917 638 973T599 1064T545 1114T483 1130Q437 1130 402 1114T341 1070T296 1006T266
929T249 848T244 770Z" />
<glyph unicode=":" glyph-name="colon" horiz-adv-x="410" d="M51 68Q51 97 62 128T94 186T142 229T201 246Q238 246 260 220T283 152Q283 121 273 89T243 30T196 -14T135 -31Q95 -31 73 -4T51 68ZM152 784Q152 812 163 843T195 901T242 944T301 961Q338 961 360
936T383 866Q383 836 373 804T343 746T297 703T236 686Q195 686 174 712T152 784Z" />
<glyph unicode=";" glyph-name="semicolon" horiz-adv-x="410" d="M-18 -270Q135 -108 135 0Q135 18 130 35T112 65T79 82T27 84L18 129Q29 141 58 158T122 191T189 218T238 229Q256 219 268 210T288 187T299 153T303 102Q303 76 292 42T260 -30T212 -108T153
-185T86 -253T16 -305L-18 -270ZM152 784Q152 812 163 843T195 901T242 944T301 961Q338 961 360 936T383 866Q383 836 373 804T343 746T297 703T236 686Q195 686 174 712T152 784Z" />
<glyph unicode="&lt;" glyph-name="less" horiz-adv-x="840" d="M50 530Q56 553 68 581T88 625L786 899L805 874Q801 864 796 850L787 822L777 794Q772 781 768 772L228 564L712 354L723 317L702 300L685 286Q677 279 667 272T641 256L72 504L50 530Z" />
<glyph unicode="=" glyph-name="equal" horiz-adv-x="840" d="M50 379L69 424Q80 450 91 470H747L765 446Q762 436 757 423L747 398Q742 386 736 374L726 355H69L50 379ZM90 679L109 724Q120 750 131 770H787L805 746Q802 736 797 723L787 698Q782 686 776 674L766
655H109L90 679Z" />
<glyph unicode="&gt;" glyph-name="greater" horiz-adv-x="840" d="M30 281Q34 291 38 304L48 332L58 360Q62 374 67 383L607 591L123 801L112 838L132 855L149 869Q158 876 168 883T194 899L763 651L785 625Q778 603 768 576T747 530L49 256L30 281Z" />
<glyph unicode="?" glyph-name="question" horiz-adv-x="813" d="M162 1090Q162 1154 190 1215T270 1324T395 1401T561 1430Q625 1430 671 1411T748 1359T794 1282T809 1186Q809 1098 784 1032T719 912T634 812T545 717T470 613T426 485L414 389Q395 375 380 366T340
348L317 369L322 485Q323 552 348 608T409 715T488 813T565 910T625 1012T649 1128Q649 1228 606 1281T475 1335Q434 1335 402 1316T351 1265T325 1189T328 1098Q306 1088 289 1082T255 1071T221 1064T182 1059L162 1090ZM209 68Q209 97 220 128T252 186T299 229T358
246Q397 246 419 220T442 152Q442 121 432 89T402 30T355 -14T293 -31Q255 -31 232 -4T209 68Z" />
<glyph unicode="@" glyph-name="at" horiz-adv-x="1593" d="M82 465Q98 577 138 685T240 890T380 1067T552 1208T747 1300T961 1333Q1094 1333 1205 1281T1391 1129T1497 882Q1528 738 1501 549Q1489 461 1460 385Q1432 308 1392 243T1305 125T1209 35T1113 -21T1026
-41Q1008 -41 991 -29T959 18T935 113T926 271L868 172Q835 117 798 70T720 -9T637 -41Q603 -41 566 -22T497 38T445 145T424 305Q424 384 439 459T487 604T570 733T692 842Q719 860 751 877T817 907T886 928T952 936Q992 936 1027 917T1092 878Q1115 894 1140
908T1192 936L1212 901Q1192 885 1180 873T1160 842H1161L1159 840Q1152 826 1147 807T1137 760Q1122 688 1109 613T1087 470T1072 352T1067 279Q1067 222 1072 186T1085 130T1105 102T1128 94Q1153 94 1191 127T1268 217T1337 349T1382 510Q1399 623 1391 719T1355
893T1281 1031T1177 1131T1050 1193T907 1214Q814 1214 732 1187T578 1110T449 994T346 848T272 682T229 504Q204 322 238 181T351 -57T545 -205T795 -256Q870 -256 944 -239T1083 -195T1200 -138T1284 -82L1300 -137Q1262 -175 1205 -217T1074 -294T915 -352T731
-375Q565 -375 433 -316T214 -148T91 117T82 465ZM561 379Q561 314 572 262T601 173T645 116T700 96Q725 96 755 126T818 205T882 312T943 429L958 525Q966 575 974 621L990 705Q996 743 1000 764Q985 776 969 787T933 809T894 825T850 831Q804 831 765 809T694
749T637 665T596 567T570 467T561 379Z" />
<glyph unicode="A" glyph-name="A" horiz-adv-x="1147" d="M-35 0L-29 43Q34 55 72 68T123 111L610 1229Q623 1241 641 1253T678 1278L714 1300Q732 1310 745 1317L961 111Q963 97 968 87T986 68T1018 53T1071 43L1067 0H682L686 43Q757 48 788 63T813 111L755
444H371L228 111Q214 80 243 67T350 43L344 0H-35ZM410 535H739L645 1079L410 535Z" />
<glyph unicode="B" glyph-name="B" horiz-adv-x="1014" d="M0 0L6 43Q69 57 107 73T147 104L296 1193Q251 1187 214 1180T141 1165V1227Q187 1240 235 1251T336 1271T449 1285T578 1290Q659 1290 723 1273T833 1224T903 1145T928 1040Q928 988 912 939T866 849T796
775T707 723Q758 711 799 683T871 615T917 522T934 410Q934 312 896 231T793 92T642 2T461 -31Q441 -31 413 -30T354 -26L288 -22Q255 -19 223 -16Q147 -9 66 0H0ZM293 104Q290 96 304 85Q323 76 346 70T393 60T442 55T487 53Q553 53 606 80T698 153T757 256T778
375Q778 425 764 474T718 562T638 625T518 649Q474 649 437 645T366 635L293 104ZM378 725H410Q480 725 545 736T661 776T742 856T772 987Q772 1048 751 1090T696 1158T624 1195T551 1206Q521 1206 494 1206T443 1204L378 725Z" />
<glyph unicode="C" glyph-name="C" horiz-adv-x="995" d="M76 459Q76 553 94 650T152 840T252 1016T397 1167Q470 1224 554 1257T733 1290Q832 1290 902 1261T1016 1190Q1020 1185 1009 1168T981 1130T944 1089T911 1057L881 1065Q840 1110 782 1139T641 1169Q601
1169 551 1150T461 1100Q398 1051 354 977T281 822T240 660T227 516Q227 407 256 328T332 197T434 121T543 96Q599 96 677 131T868 256Q873 254 877 248L885 234Q889 227 892 221T897 211Q829 143 770 97T656 24T553 -15T457 -27Q382 -27 313 5T192 100T108 252T76
459Z" />
<glyph unicode="D" glyph-name="D" horiz-adv-x="1118" d="M0 0L6 43Q69 57 107 73T147 104L296 1193L143 1176V1239Q258 1267 370 1278T586 1290Q703 1290 794 1251T948 1141T1044 970T1077 745Q1077 657 1060 568T1009 396T925 241T809 115T660 31T481 0H0ZM299
139Q297 124 303 114T326 97T374 87T455 84Q529 84 591 112T705 188T795 300T861 435T901 582T915 727Q915 834 888 922T809 1073T681 1171T504 1206H474Q459 1206 444 1205L299 139Z" />
<glyph unicode="E" glyph-name="E" horiz-adv-x="946" d="M0 0L6 43Q69 57 107 73T147 104L293 1155Q295 1167 264 1185T168 1217L174 1260H911L936 1235Q931 1209 924 1178T907 1116T887 1057T868 1010H825Q830 1056 829 1086T821 1135T802 1161T772 1169H437L378
735H752L772 707Q762 693 750 678T724 649T697 622L674 600Q658 617 640 627T596 644T531 652T436 655H367L299 154Q297 139 302 128T326 108T381 95T477 90H598Q640 90 669 95T721 117T767 169T817 262L856 244Q836 157 816 93T784 0H0Z" />
<glyph unicode="F" glyph-name="F" horiz-adv-x="891" d="M0 0L6 43Q69 57 107 73T147 104L293 1155Q295 1167 264 1185T168 1217L174 1260H920L944 1235Q939 1209 932 1178T915 1116T895 1057T877 1010H836Q840 1056 838 1086T829 1135T810 1161T780 1169H437L377
735H700L723 707L700 678L674 648Q661 634 648 622L625 600Q591 634 547 644T436 655H366L291 104Q289 92 323 77T444 43L438 0H0Z" />
<glyph unicode="G" glyph-name="G" horiz-adv-x="1073" d="M76 473Q76 568 98 664T160 849T257 1013T381 1143Q466 1210 570 1250T793 1290Q823 1290 858 1283T928 1263T996 1231T1055 1188Q1061 1183 1050 1166T1021 1129T983 1088T948 1057L920 1063Q894 1094
865 1115T803 1148T731 1166T647 1171Q609 1171 554 1145Q501 1119 446 1075Q395 1033 354 968Q314 902 285 825T241 667T225 516Q225 409 257 331T341 200T455 123T580 98Q634 98 686 114T773 156L813 457Q814 467 809 477T782 497T715 517T596 539L602 582H1063L1057
539Q1003 523 978 502T950 457L940 386L928 298L916 213Q911 173 909 154Q833 93 775 57T670 1T583 -25T502 -31Q419 -31 342 2T206 100T112 259T76 473Z" />
<glyph unicode="H" glyph-name="H" horiz-adv-x="1235" d="M0 0L6 43Q69 57 107 73T147 104L293 1155Q295 1167 264 1185T168 1217L174 1260H584L578 1217Q515 1203 477 1186T436 1155L375 705H931L993 1155Q995 1167 964 1185T870 1217L874 1260H1286L1280 1217Q1217
1203 1179 1186T1139 1155L993 104Q991 92 1022 75T1118 43L1112 0H702L709 43Q772 57 809 73T848 104L918 614H362L293 104Q290 92 321 75T416 43L410 0H0Z" />
<glyph unicode="I" glyph-name="I" horiz-adv-x="573" d="M20 0L27 43Q90 57 127 73T168 104L311 1155Q313 1167 282 1185T188 1217L195 1260H604L598 1217Q535 1203 497 1186T457 1155L311 104Q309 92 340 75T436 43L430 0H20Z" />
<glyph unicode="J" glyph-name="J" horiz-adv-x="578" d="M-264 -301Q-264 -291 -250 -274T-216 -241T-176 -213T-143 -201Q-133 -201 -123 -210T-98 -229T-62 -249T-10 -258Q14 -258 43 -241T101 -180T156 -60Q181 15 197 133L338 1155Q339 1161 333 1168T308
1183T256 1199T168 1217L172 1260H629L623 1217Q560 1203 522 1186T481 1155L350 205Q333 84 308 6Q282 -73 250 -128T179 -220T100 -289Q73 -310 42 -327T-21 -356T-80 -374T-125 -381Q-153 -381 -178 -372T-222 -350T-252 -324T-264 -301Z" />
<glyph unicode="K" glyph-name="K" horiz-adv-x="1102" d="M0 0L6 43Q69 57 107 73T147 104L293 1155Q295 1167 264 1185T168 1217L174 1260H584L578 1217Q515 1203 477 1186T436 1155L367 648L825 1128Q850 1154 858 1170T859 1195T829 1209T772 1217L778 1260H1161L1155
1217Q1124 1213 1101 1209T1058 1198T1023 1181T991 1155L506 671L856 156Q871 135 886 124Q902 113 924 112T979 119T1059 147L1077 111Q1039 82 1003 59T934 19T874 -5T827 -14Q812 -14 800 -12T776 -2T754 18T731 51L365 637L293 104Q290 92 321 75T416 43L410
0H0Z" />
<glyph unicode="L" glyph-name="L" horiz-adv-x="918" d="M0 0L6 43Q69 57 107 73T147 104L293 1155Q295 1167 264 1185T168 1217L174 1260H584L578 1217Q515 1203 477 1186T436 1155L299 154Q297 136 303 124T327 104T378 93T461 90H588Q630 90 659 95T713 117T759
169T809 262L848 244Q828 157 808 93T774 0H0Z" />
<glyph unicode="M" glyph-name="M" horiz-adv-x="1511" d="M4 0L10 43Q75 57 111 73T150 104L306 1179Q275 1200 242 1208T182 1217L188 1260H453Q461 1260 466 1257T476 1245T486 1220T498 1176L747 281L1206 1176Q1220 1203 1229 1219T1246 1245T1260 1257T1276
1260H1536L1532 1217Q1505 1217 1470 1208T1399 1181L1278 104Q1276 92 1309 75T1407 43L1401 0H991L997 43Q1060 57 1100 73T1143 104L1251 1059L711 0H670L392 1047L256 104Q254 92 284 75T379 43L373 0H4Z" />
<glyph unicode="N" glyph-name="N" horiz-adv-x="1239" d="M0 0L6 43Q74 52 107 71T143 104L289 1154Q263 1184 232 1196T158 1217L164 1260H342Q364 1260 376 1259T398 1251T416 1227L440 1182L924 258L1047 1155Q1048 1161 1042 1169T1022 1186T983 1203T924
1217L930 1260H1294L1288 1217Q1222 1207 1189 1190T1153 1155L989 -31Q968 -28 951 -24T920 -12T894 9T870 45L373 1004L250 104Q247 92 275 73T371 43L365 0H0Z" />
<glyph unicode="O" glyph-name="O" horiz-adv-x="1116" d="M90 485Q90 548 101 618T134 759T187 896T258 1018Q300 1074 348 1123T452 1210T571 1268T705 1290Q803 1290 875 1249T993 1138T1062 973T1085 774Q1085 703 1074 630T1039 486T980 348Q947 283 901
225Q858 170 812 124Q764 78 711 44T598 -11T471 -31Q375 -31 304 10T185 121T114 286T90 485ZM242 532Q242 439 261 360T317 223T403 133T516 100Q593 100 654 131T762 213T842 332T896 473T926 619T936 756Q936 840 918 914T865 1044T779 1132T662 1165Q586 1165
526 1136T418 1057T338 943T284 808T252 667T242 532Z" />
<glyph unicode="P" glyph-name="P" horiz-adv-x="965" d="M0 0L6 43Q69 57 107 73T147 104L296 1195Q261 1190 223 1183T141 1165V1225Q183 1240 227 1252T323 1273T432 1285T559 1290Q655 1290 732 1268T863 1202T946 1093T975 942Q975 857 942 783T852 653T717
567T553 535Q515 535 476 544T410 569L399 643Q433 629 466 620T532 610Q598 610 653 631T747 692T809 785T831 905Q831 989 804 1046T731 1139T624 1190T496 1206H469Q456 1206 443 1205L293 104Q291 98 297 91T320 76T367 60T444 43L438 0H0Z" />
<glyph unicode="Q" glyph-name="Q" horiz-adv-x="1135" d="M90 485Q90 548 101 618T134 759T187 896T258 1018Q300 1074 348 1123T452 1210T571 1268T705 1290Q803 1290 875 1249T993 1138T1062 973T1085 774Q1085 703 1074 630T1039 486T980 348Q946 283 901
225Q846 155 786 100Q724 45 652 10Q691 -14 728 -44L800 -99Q835 -125 869 -142T938 -160Q950 -160 962 -156T991 -143T1030 -119L1083 -82L1104 -117Q1075 -161 1047 -194T994 -250T947 -285T911 -297Q855 -297 805 -268T707 -197T612 -109T514 -28Q493 -31 471
-31Q375 -31 304 10T185 121T114 286T90 485ZM242 532Q242 439 261 360T317 223T403 133T516 100Q593 100 654 131T762 213T842 332T896 473T926 619T936 756Q936 840 918 914T865 1044T779 1132T662 1165Q586 1165 526 1136T418 1057T338 943T284 808T252 667T242
532Z" />
<glyph unicode="R" glyph-name="R" horiz-adv-x="1077" d="M0 0L6 43Q69 57 107 73T147 104L296 1193Q257 1188 219 1182T141 1167V1227Q186 1240 231 1251T327 1271T434 1285T559 1290Q647 1290 718 1270T841 1209T920 1109T948 971Q948 932 931 876T874 764T770
662T612 597L846 184Q864 152 880 135Q897 118 919 114T975 119T1059 147L1077 109Q1038 83 1000 61T930 22T873 -4T834 -14Q817 -14 802 -9T771 10T738 50T702 117L476 589Q447 591 417 595T361 605L293 104Q290 92 321 75T416 43L410 0H0ZM371 678Q400 670 428
666T485 662Q548 662 606 679T708 731T778 818T805 942Q805 1016 778 1066T708 1148T614 1192T514 1206H478Q460 1206 443 1205L371 678Z" />
<glyph unicode="S" glyph-name="S" horiz-adv-x="899" d="M47 115Q47 127 59 150T87 196T122 237T154 254Q166 254 183 230T227 175T295 121T395 96Q456 96 508 116T600 172T661 256T684 360Q684 401 672 436T630 505T550 572T424 641Q357 673 315 708Q272 743
248 779T213 854T203 928Q203 994 233 1059T319 1175T453 1258T629 1290Q701 1290 762 1263T872 1198Q876 1195 872 1185T860 1160T839 1130T813 1100T789 1074T770 1059L741 1065Q724 1089 703 1110T657 1149T605 1176T547 1186Q493 1186 451 1169T381 1124T337
1062T322 995Q322 973 329 949T358 899T420 844Q457 817 528 780Q607 739 662 702T751 626T800 541T815 440Q815 346 776 261T671 111T516 8T328 -31Q290 -31 242 -18T150 16T77 63T47 115Z" />
<glyph unicode="T" glyph-name="T" horiz-adv-x="1067" d="M113 1014Q116 1040 122 1072T137 1138T155 1203T174 1260H1096L1118 1235Q1114 1211 1108 1181T1094 1118L1078 1055Q1069 1024 1061 999H1020Q1018 1049 1014 1082T1003 1134T983 1161T950 1169H693L549
115Q547 102 578 82T690 43L684 0H238L244 43Q330 62 365 81T403 115L550 1169H279Q266 1169 255 1164T229 1140T196 1088T150 995L113 1014Z" />
<glyph unicode="U" glyph-name="U" horiz-adv-x="1227" d="M168 1217L174 1260H584L578 1217Q515 1203 477 1186T436 1155L348 510Q344 481 343 452T342 397Q342 327 359 270T409 172T493 109T608 86T728 118T825 203T894 325Q922 394 932 469L1024 1155Q1026
1167 998 1185T905 1217L911 1260H1286L1280 1217Q1217 1203 1182 1186T1145 1155L1055 512Q1036 380 994 280Q951 178 887 109T740 5T557 -31Q475 -31 407 -6T289 67T213 185T186 348Q186 399 195 463L293 1155Q295 1167 264 1185T168 1217Z" />
<glyph unicode="V" glyph-name="V" horiz-adv-x="1214" d="M139 1217L145 1260H543L537 1217Q465 1212 435 1197T412 1151L602 195L1042 1151Q1056 1180 1024 1193T920 1217L926 1260H1305L1298 1217Q1235 1204 1198 1192T1147 1151L647 59Q637 37 617 21T574
-5T530 -22T496 -31L256 1151Q251 1177 225 1193T139 1217Z" />
<glyph unicode="W" glyph-name="W" horiz-adv-x="1571" d="M129 1217L135 1260H526L520 1217Q476 1212 449 1205T408 1188T389 1169T385 1147L444 254L881 1260H936L1116 254L1409 1155Q1413 1167 1405 1176T1378 1192T1335 1205T1278 1217L1284 1260H1669L1665
1217L1610 1204Q1584 1198 1564 1191T1531 1176T1513 1155L1153 59Q1145 37 1128 21T1090 -5T1049 -22T1016 -31L851 946L467 59Q457 36 437 21T395 -5T352 -22T319 -31L246 1147Q244 1172 219 1188T129 1217Z" />
<glyph unicode="X" glyph-name="X" horiz-adv-x="1171" d="M-20 0L-14 43Q46 48 91 66T164 127L528 654L293 1133Q281 1155 270 1169T244 1192T209 1206T158 1217L164 1260H575L569 1217Q491 1209 464 1193T459 1133L639 768L895 1133Q911 1156 911 1170T896 1194T853
1209T784 1217L791 1260H1202L1196 1217Q1163 1213 1137 1208T1090 1193T1051 1169T1018 1133L689 666L956 127Q966 106 979 92T1008 68T1045 53T1092 43L1085 0H674L680 43Q720 47 746 53T784 69T798 93Q798 107 788 127L580 548L287 127Q256 83 285 66T397 43L391
0H-20Z" />
<glyph unicode="Y" glyph-name="Y" horiz-adv-x="1145" d="M102 1235Q129 1242 161 1249T226 1262T286 1272T334 1276Q360 1276 385 1237Q407 1204 431 1159T479 1063T526 958T568 853T602 756T625 678L934 1151Q951 1179 929 1193T838 1217L844 1260H1204L1198
1217Q1135 1204 1100 1191T1047 1151L657 542L598 115Q597 109 603 101T626 82T670 62T739 43L733 0H287L293 43Q380 62 415 81T453 115L512 551Q494 624 465 708T402 875T330 1032Q295 1103 260 1155Q250 1170 238 1179Q227 1188 211 1192T170 1197T111 1192L102
1235Z" />
<glyph unicode="Z" glyph-name="Z" horiz-adv-x="1022" d="M31 45L821 1167H399Q384 1167 365 1156T324 1121T281 1058T242 963L190 975L262 1286Q286 1276 306 1271T346 1264T387 1261T434 1260H1006L1024 1214L242 100H727Q747 100 765 109T801 143T840 210T887
317L936 303L923 230L909 148L895 68L883 0H49L31 45Z" />
<glyph unicode="[" glyph-name="bracketleft" horiz-adv-x="586" d="M2 -336L274 1599H659L686 1573Q680 1548 669 1524T649 1487H387L147 -221H403L432 -250Q426 -270 416 -294T395 -336H2Z" />
<glyph unicode="\" glyph-name="backslash" horiz-adv-x="819" d="M145 1577L182 1599Q210 1591 240 1579T295 1550L682 -311L647 -336L620 -326L588 -314Q571 -307 557 -300T535 -285L145 1577Z" />
<glyph unicode="]" glyph-name="bracketright" horiz-adv-x="586" d="M-86 -307Q-78 -284 -68 -259T-49 -221H213L453 1487H199L170 1513Q176 1535 187 1558T207 1599H598L328 -336H-57L-86 -307Z" />
<glyph unicode="^" glyph-name="asciicircum" horiz-adv-x="938" d="M94 592L516 1462Q529 1474 547 1486L584 1511Q603 1523 621 1533T653 1550L854 635Q826 612 802 597T743 565L713 592L553 1315L223 635Q212 625 197 615T167 595T137 578L113 565L94 592Z" />
<glyph unicode="_" glyph-name="underscore" horiz-adv-x="893" d="M-53 -219Q-47 -199 -36 -175T-12 -131H713L731 -156Q725 -177 714 -202T692 -246H-37L-53 -219Z" />
<glyph unicode="`" glyph-name="grave" horiz-adv-x="606" d="M253 1412L285 1448Q297 1450 315 1452T354 1455T394 1458T426 1459L565 1047Q545 1035 533 1031T503 1026L253 1412Z" />
<glyph unicode="a" glyph-name="a" horiz-adv-x="922" d="M53 305Q53 384 71 459T127 604T217 733T342 842Q369 860 401 877T468 907T537 928T602 936Q623 936 643 931T682 916T718 896L750 876Q773 893 799 908T852 936L872 901Q855 887 844 876T825 851T810
815Q804 795 797 760Q781 685 768 612Q755 537 746 470T731 352T725 279Q725 222 728 183T738 121T753 87T774 76Q794 76 821 81T889 104L901 68Q814 11 761 -15T678 -41Q660 -41 644 -29T614 18T594 114T586 272Q560 226 523 172T442 70T354 -9T266 -41Q233 -41
196 -22T127 38T74 145T53 305ZM190 379Q190 314 201 262T231 173T276 116T332 96Q356 96 390 126T462 205T537 313T603 431Q610 476 618 524L636 618L650 700L661 760Q646 772 628 784T590 807T547 824T500 831Q454 831 414 809T339 749T277 665T230 567T201 467T190
379Z" />
<glyph unicode="b" glyph-name="b" horiz-adv-x="956" d="M106 1425Q148 1444 192 1461T274 1491T342 1512T383 1520Q411 1520 421 1502T432 1438Q432 1407 427 1357T414 1242T394 1102L370 946L344 784L320 627Q371 713 425 772T531 867T626 920T702 936Q741
936 775 915T833 852T872 750T885 610Q883 504 854 397T752 188Q718 143 677 102T586 29T481 -22T362 -41Q341 -41 316 -31T264 -1T212 43T167 96T135 156T123 217Q123 243 129 299T146 430T170 593L198 772L224 954Q238 1043 248 1120T265 1256T272 1346Q272 1369
267 1382T254 1402T237 1411T219 1413T194 1408L160 1399L119 1386L106 1425ZM276 256Q276 230 291 200T333 145T391 103T459 86Q495 86 526 99T583 132T631 178T668 229Q691 265 705 304T727 382T738 458T741 530Q741 599 729 650T697 736T653 786T604 803Q585
803 549 779T470 710T381 605T298 472Q287 400 282 344T276 256Z" />
<glyph unicode="c" glyph-name="c" horiz-adv-x="795" d="M53 322Q53 389 67 460T112 600T194 731T319 842Q347 860 381 877T451 907T523 928T590 936Q634 936 668 919T730 881T777 840T813 815L768 783Q745 766 723 753T682 730T649 721Q638 721 622 738L584
776Q563 797 536 814T477 831Q431 831 393 809T324 750T270 665T231 564T207 458T199 358Q199 293 213 241T254 153T316 96T395 76Q413 76 441 82T505 104T587 149T686 221Q694 210 703 199T717 180Q639 109 577 66T465 -1T374 -33T297 -41Q263 -41 221 -24T142
35T79 147T53 322Z" />
<glyph unicode="d" glyph-name="d" horiz-adv-x="969" d="M53 315Q53 394 70 468T121 610T208 736T332 842Q360 860 392 876T459 906T527 928T592 936Q617 936 643 920T695 883L718 1026Q728 1096 736 1156T749 1266T754 1346Q754 1369 751 1382T741 1402T726
1411T709 1413T682 1408L647 1399L602 1386L590 1425Q632 1444 674 1461T753 1491T818 1512T858 1520Q886 1520 899 1502T913 1438Q913 1399 906 1337T888 1198T862 1034L832 858L802 684L776 524Q764 450 757 392T750 299Q750 183 761 131T795 78Q821 78 848 83T911
104L924 68Q839 11 785 -15T696 -41Q677 -41 661 -26T634 27T615 127T608 281Q574 218 535 160T452 57T364 -14T276 -41Q242 -41 203 -21T131 43T75 154T53 315ZM190 379Q190 314 203 262T239 173T289 116T346 96Q373 96 406 121T474 190T547 295T621 424L642 560L668
722L632 760Q612 779 590 795T542 821T489 831Q443 831 404 809T331 749T271 665T227 567T200 467T190 379Z" />
<glyph unicode="e" glyph-name="e" horiz-adv-x="805" d="M63 303Q63 381 82 456T136 601T224 733Q275 794 342 846Q366 864 394 880Q423 897 454 909T518 929T582 936Q625 936 656 921T709 880T740 824T750 760Q750 732 744 701T717 637T660 568T563 494T415
414T207 327Q213 271 230 225T271 146T322 95T377 76Q398 76 428 80T497 100T586 144T696 221Q707 215 715 202T727 180Q645 109 582 66T470 -1T381 -33T305 -41Q272 -41 230 -23T151 36T89 142T63 303ZM206 404Q337 455 413 496T529 575T579 646T590 715Q590 746
582 768T561 804T532 824T498 831Q482 831 451 820T391 782Q358 752 327 709T270 616T227 512T206 404Z" />
<glyph unicode="f" glyph-name="f" horiz-adv-x="559" d="M-100 -422Q-50 -394 -10 -334T61 -196T112 -30Q131 53 141 139L219 815H68L53 846L154 905H229Q239 985 252 1059T290 1199T355 1322T459 1427L511 1463Q536 1480 562 1493T615 1513T674 1520Q718 1520
753 1504T817 1467T866 1427T903 1403L858 1370Q834 1353 811 1339T769 1315T737 1305Q724 1305 711 1322L682 1361Q666 1382 645 1399T596 1417Q558 1417 529 1395T478 1335T440 1249T413 1148T395 1045Q393 1032 383 952L377 905H633L653 877Q643 863 626 847T590
815T554 788T526 770Q521 784 511 792T482 806T437 813T373 815H367L295 193Q282 83 251 -19T172 -210T62 -369T-74 -485L-100 -422Z" />
<glyph unicode="g" glyph-name="g" horiz-adv-x="911" d="M-5 -379Q-5 -362 8 -341T38 -301T71 -269T95 -256Q103 -256 112 -266L132 -290Q145 -305 162 -322T205 -354T265 -379T347 -389Q444 -389 501 -302T587 -48Q596 8 601 57T610 153T616 244L620 336Q588
273 546 207T456 85T359 -5T266 -41Q233 -41 196 -22T126 38T72 145T51 305Q51 384 69 459T123 603T215 732T344 842Q372 860 404 877T470 907T537 928T602 936Q624 936 645 930T685 913T722 891L756 869Q779 891 804 907T856 936L879 901Q845 873 826 832T797
719Q783 600 777 502T766 319T754 156Q748 82 734 1Q715 -104 670 -194Q625 -285 563 -353T425 -460T271 -500Q229 -500 181 -488T91 -457T23 -418T-5 -379ZM190 379Q190 314 202 262T234 173T281 116T338 96Q359 96 395 129T472 219T556 349T632 504L640 584Q645
625 653 672Q656 693 661 712T674 748L641 774Q623 788 602 801T555 822T502 831Q456 831 415 809T340 749T278 665T231 567T201 467T190 379Z" />
<glyph unicode="h" glyph-name="h" horiz-adv-x="1012" d="M86 -10L108 124L138 298L170 500L202 712L232 918Q247 1018 257 1102T274 1250T281 1346Q281 1369 278 1382T269 1402T256 1411T240 1413Q230 1413 212 1408L173 1399L125 1386L113 1425Q155 1444 197
1461T277 1491T342 1512T383 1520Q411 1520 426 1502T442 1438Q442 1414 436 1359T421 1231T399 1077L376 918L354 778L338 678Q396 750 453 799T564 879T667 922T762 936Q825 936 852 897T879 760Q879 725 873 673T856 561L836 437L816 316Q806 258 800 211T793
135Q793 101 805 89T829 76Q857 76 887 84T954 109L969 72Q876 18 816 -11T713 -41Q684 -41 662 -10T639 76Q639 94 645 140T662 249L682 381L702 514Q712 577 718 627T725 700Q725 738 722 763T712 805T691 827T655 834Q642 834 609 819T534 772T446 693T362 582Q335
534 317 462Q300 395 285 301Q275 241 271 204Q266 162 264 130T261 72T262 25Q249 18 230 10L190 -8L150 -26Q131 -34 119 -41L86 -10Z" />
<glyph unicode="i" glyph-name="i" horiz-adv-x="504" d="M70 840L154 876Q195 894 231 907T294 928T334 936Q362 936 373 917T385 852Q385 823 378 767T358 640L333 494L308 347Q296 277 289 221T281 135Q281 104 287 90T311 76Q342 76 370 84T440 109L455 72L370
23Q333 2 302 -12T246 -34T199 -41Q165 -41 145 -10T125 76Q125 106 132 161T151 284L175 426L199 566Q210 632 217 684T225 760Q225 783 222 796T214 816T201 825T184 827Q176 827 160 824T126 815Q107 810 84 803L70 840ZM294 1176Q294 1203 303 1230T328 1281T366
1318T417 1333Q448 1333 465 1315T482 1262Q482 1234 474 1207T449 1157T410 1120T359 1106Q328 1106 311 1124T294 1176Z" />
<glyph unicode="j" glyph-name="j" horiz-adv-x="502" d="M-384 -424Q-384 -411 -371 -390T-340 -350T-304 -316T-275 -301Q-267 -301 -255 -314T-223 -342T-173 -370T-99 -383Q-14 -383 41 -280Q95 -178 128 11Q142 90 150 152Q159 219 165 276T175 377T182 451Q183
467 186 493T192 550L198 614L205 675Q208 704 209 726T211 760Q211 783 208 796T200 816T187 825T170 827T145 824T111 815Q92 810 70 803L55 840L139 876Q181 894 217 907T280 928T319 936Q347 936 361 924T375 870Q375 859 373 832T366 767L358 688L348 604L340
530Q336 495 334 473Q330 438 326 394T316 297L303 186Q296 128 286 66Q266 -51 237 -130T172 -264T98 -355T17 -424Q-10 -445 -42 -459T-105 -483T-163 -496T-208 -500Q-236 -500 -267 -492T-324 -472T-367 -447T-384 -424ZM269 1176Q269 1203 277 1230T302 1281T340
1318T392 1333Q423 1333 440 1315T458 1262Q458 1234 449 1207T424 1157T384 1120T333 1106Q269 1106 269 1176Z" />
<glyph unicode="k" glyph-name="k" horiz-adv-x="899" d="M86 -10Q90 19 100 84L124 238L156 433L191 649L224 867Q241 975 253 1068T273 1233T281 1343Q281 1368 278 1382T269 1403T254 1411T233 1413Q225 1413 207 1409T171 1399L125 1386L111 1425Q153 1444
196 1461T276 1491T341 1512T381 1520Q395 1520 406 1517T424 1504T436 1473T440 1417Q440 1378 434 1320T419 1188T396 1032L369 860L340 682L313 507L528 670Q601 725 641 759Q685 796 697 818T687 850T596 858L592 897Q651 905 705 917T823 930Q871 930 885
916T899 868Q899 853 878 826T815 763T714 683T580 594L463 523Q489 491 516 446T569 350L620 252Q646 203 670 164T716 101T758 76Q781 76 807 78T872 102L889 68Q823 12 774 -13T686 -39Q650 -39 616 -5T550 82T486 199L426 323Q396 383 368 431T313 501Q300
416 290 339T273 200T265 93T270 27Q256 20 236 11L194 -8L153 -26Q133 -34 121 -41L86 -10Z" />
<glyph unicode="l" glyph-name="l" horiz-adv-x="481" d="M102 78Q102 103 109 163T129 306L156 488L188 692L220 898Q235 1000 247 1088T266 1243T274 1346Q274 1369 270 1382T258 1402T242 1411T223 1413Q215 1413 198 1409T163 1399L119 1386L104 1425Q146
1444 188 1461T267 1491T332 1512T373 1520Q401 1520 417 1502T434 1438Q434 1399 427 1330T407 1173T379 982L347 777L315 572Q299 472 287 386T268 235T260 135T269 89T295 76Q318 76 348 84T424 109L436 72Q387 41 350 20T282 -15T225 -35T174 -41Q146 -41 124
-11T102 78Z" />
<glyph unicode="m" glyph-name="m" horiz-adv-x="1477" d="M41 842L125 877Q167 894 203 907T266 928T305 936Q320 936 329 931T342 914T348 879T350 821Q350 810 349 794T346 758T342 717T338 678Q397 748 448 797T546 877T635 922T719 936Q756 936 781 921T820
881T840 825T846 760Q846 741 845 726T842 688Q900 755 949 802T1040 879T1121 922T1198 936Q1227 936 1251 927T1292 896T1318 842T1327 760Q1327 722 1321 669T1304 555L1283 432L1262 312Q1252 256 1246 210T1239 135Q1239 101 1249 90T1276 78Q1305 78 1333
85T1403 109L1413 72Q1320 18 1259 -11T1155 -41Q1126 -41 1106 -10T1085 76Q1085 94 1092 139L1109 244Q1119 305 1131 374T1154 508T1171 630T1178 719Q1178 781 1166 807T1135 834Q1116 834 1087 821T1023 779T949 706T870 600Q848 565 834 531T810 461T793
384L778 295Q764 204 761 139T760 25Q746 18 726 10L685 -8L644 -26Q625 -34 612 -41L580 -10Q602 92 622 202T659 410T684 586T694 700Q694 776 679 805T635 834Q622 834 595 821T533 780T459 707T381 602Q360 570 346 536T321 465T302 385Q294 350 285 295Q269
200 264 138Q260 73 262 25Q249 18 230 10L190 -8L150 -26Q131 -34 119 -41L86 -10Q100 60 114 136L140 289L163 438Q174 510 182 572T194 682T199 760Q199 783 196 796T188 817T175 827T160 829Q150 829 133 825T97 816L53 803L41 842Z" />
<glyph unicode="n" glyph-name="n" horiz-adv-x="1012" d="M47 842L132 877Q174 894 211 907T275 928T315 936Q329 936 337 932T348 915T353 881T354 823Q354 812 353 793T351 753T347 711T344 678Q398 746 453 795T561 875T663 921T758 936Q789 936 813 927T854
898T878 844T887 762Q887 727 881 675T864 563T842 438L820 316Q810 258 804 211T797 135Q797 101 806 89T833 76Q856 76 886 84T958 109L973 72Q882 18 819 -11T717 -41Q682 -41 663 -10T643 76Q643 94 649 140T666 249L688 381L710 514Q720 577 726 627T733 700Q733
776 717 806T657 836Q644 836 612 820T538 772T452 692Q408 644 371 580Q343 532 326 465Q309 401 291 301Q275 210 270 148Q266 84 268 25Q255 18 236 10L196 -8L156 -26Q137 -34 125 -41L92 -10Q106 56 120 133L146 288Q158 365 169 440T188 579T200 691T205
762T203 798T196 818T184 827T168 829T142 825T106 816L61 803L47 842Z" />
<glyph unicode="o" glyph-name="o" horiz-adv-x="864" d="M53 344Q53 416 65 482T104 611T176 730T287 840Q338 880 399 908T522 936Q600 936 655 908T744 830T795 711T811 559Q811 492 796 424T752 291T681 168T582 63Q556 42 527 23T468 -10T407 -33T346 -41Q276
-41 222 -12T130 69T73 191T53 344ZM197 399Q197 332 213 273T259 169T328 98T414 72T496 92T561 147T610 226T643 319T662 415T668 504Q668 657 612 738T453 819Q381 819 332 778T253 673T210 537T197 399Z" />
<glyph unicode="p" glyph-name="p" horiz-adv-x="965" d="M-6 -471Q-2 -442 8 -381L34 -238L65 -59L100 138L134 336Q150 434 162 517T182 664T190 760Q190 783 186 796T175 816T160 825T143 827T118 824T84 815Q65 810 43 803L29 840Q71 859 114 876T194 907T260
928T301 936Q321 936 334 923T348 870Q348 840 342 786T321 644Q385 743 441 801T543 889T628 927T696 936Q735 936 769 916T829 857T870 760T885 627Q885 527 857 415T766 188Q743 148 714 108T649 34T575 -20T492 -41Q458 -41 426 -21T362 33T301 108T246 192L215
6Q181 -200 173 -309T176 -447Q161 -451 141 -458L100 -472Q78 -479 59 -486T26 -500L-6 -471ZM266 314Q281 284 308 248T370 180T445 127T526 106Q580 106 621 135T686 219Q704 258 715 300T731 384T737 464T739 532Q739 602 728 653T699 738T657 788T610 805Q583
805 542 780T456 710T367 601T291 460L266 314Z" />
<glyph unicode="q" glyph-name="q" horiz-adv-x="918" d="M53 305Q53 384 73 460T133 606T227 736T354 842Q382 860 414 877T479 907T546 928T612 936Q634 936 655 930T696 915T734 896L769 875Q792 892 818 907T872 936L895 901Q878 887 867 876T848 851T833
815T821 760L776 492L734 230L698 -10Q681 -123 672 -213T662 -364T672 -447Q658 -452 638 -458L596 -472Q575 -479 555 -486T523 -500L488 -471Q493 -433 504 -360L530 -190L564 22L603 260Q568 202 528 148T444 51T359 -16T276 -41Q243 -41 204 -22T132 38T76
145T53 305ZM182 379Q182 314 197 262T236 173T289 116T348 96Q374 96 409 126T482 204T558 312T631 435L685 759Q669 771 650 783T610 806T564 824T512 831Q466 831 424 809T346 749T279 665T228 567T194 467T182 379Z" />
<glyph unicode="r" glyph-name="r" horiz-adv-x="727" d="M41 840L126 876Q168 894 205 907T269 928T309 936Q323 936 331 931T342 914T347 879T348 821Q348 810 345 784T338 728T330 667L322 618Q370 717 413 779T494 876T568 923T635 936Q653 936 667 926T697
902L729 874Q746 859 768 850Q756 834 742 811L712 766Q698 745 685 730T662 715Q643 715 630 726T605 749T582 773T555 784Q529 784 495 749T426 656T360 527T307 383Q296 345 288 300T273 206T263 112T262 25Q249 18 230 10L190 -8L150 -26Q131 -34 119 -41L86
-10Q101 61 115 137T141 288T164 436T182 570T194 681T199 760Q199 783 196 796T187 816T174 825T158 827Q148 827 131 824T97 815Q77 810 55 803L41 840Z" />
<glyph unicode="s" glyph-name="s" horiz-adv-x="711" d="M-4 98Q-4 109 8 130T36 171T70 207T98 223Q105 223 112 210L132 180Q143 161 159 139T199 99T255 68T332 55Q367 55 398 68T453 104T490 157T504 223Q504 262 488 293T446 350T384 397T311 436Q258 461
222 486T164 537T133 592T123 653Q123 716 154 768T234 857T343 915T463 936Q514 936 549 924T610 896T657 865T698 844Q678 821 659 803T622 770T592 749T571 741Q558 741 544 758L510 796Q492 817 468 834T410 852Q382 852 355 842T307 813T272 768T258 709Q258
674 292 635Q324 597 406 559Q447 540 488 515T561 458T614 384T635 289Q635 220 600 160T509 55T385 -15T252 -41Q205 -41 159 -28T77 7T19 52T-4 98Z" />
<glyph unicode="t" glyph-name="t" horiz-adv-x="629" d="M59 846L160 905H232L238 940Q244 981 250 1008T265 1053T284 1082T307 1104L408 1176L436 1151Q429 1142 421 1119Q414 1099 404 1062Q395 1025 385 963L376 905H625L645 877Q635 863 618 847T581 815T545
788T518 770Q512 784 502 792T473 806T429 813T365 815H362L291 356Q288 335 286 316Q283 294 282 275T280 238T279 211Q279 149 301 120T352 90Q387 90 437 105T563 154L580 117Q531 79 482 50T389 0T310 -30T252 -41Q227 -41 205 -26T165 15T137 79T127 160Q127
179 128 198T130 237T134 281T141 332L218 815H74L59 846Z" />
<glyph unicode="u" glyph-name="u" horiz-adv-x="1022" d="M39 840L124 876Q166 894 202 907T265 928T305 936Q334 936 344 917T354 852Q354 823 348 776T333 673L314 557L295 441Q286 385 280 338T274 262Q274 166 294 123T352 80Q372 80 405 99T480 162T571
276T674 447L688 534L703 618Q710 658 714 694T719 760Q719 783 717 796T709 816T698 825T682 827T658 824T626 815Q608 810 588 803L573 840L656 876Q697 894 731 907T792 928T831 936Q859 936 868 917T877 852Q877 823 871 777T856 675T836 559T816 442T801 336T795
254Q795 163 808 120T846 76Q872 76 898 82T961 104L975 68Q894 14 838 -13T743 -41Q724 -41 706 -24T674 34T655 138T656 297Q615 223 570 161T475 54T374 -16T268 -41Q248 -41 223 -26T175 21T137 98T121 205Q121 235 126 281T140 380T158 490T176 599T189 693T195
760Q195 783 192 796T184 816T171 825T154 827T128 824T94 815Q74 810 51 803L39 840Z" />
<glyph unicode="v" glyph-name="v" horiz-adv-x="913" d="M16 840L97 876Q136 894 168 907T224 928T260 936Q275 936 285 930T304 908T321 869T340 809Q347 783 358 728T382 604L408 460L432 321Q442 256 448 210T455 150Q529 270 585 377T678 568T735 712T754
797Q754 817 737 827T692 838Q675 838 655 835T612 823L594 858Q622 873 654 887T718 912T775 929T819 936Q854 936 873 918T893 852Q893 820 871 757T798 592T664 345T457 2Q448 -3 436 -8L411 -20L385 -31Q372 -37 362 -41L330 -10Q323 46 313 116L292 258Q280
332 267 406L242 545Q230 610 219 662T199 745Q191 772 182 788T164 813T145 824T127 827Q117 827 101 824T69 815Q51 810 29 803L16 840Z" />
<glyph unicode="w" glyph-name="w" horiz-adv-x="1290" d="M4 840L84 876Q122 894 153 907T207 928T244 936Q272 936 286 904T317 799Q323 771 331 721T347 608T364 478L379 350Q386 289 390 240T397 166Q437 244 479 336T556 523T614 705T643 864Q658 877 675
890T710 913T743 929T770 936Q774 936 780 920T793 876T807 814T822 741L836 667Q843 630 848 600Q855 553 864 496L884 379Q893 319 901 259T915 147Q990 285 1037 390T1111 573T1147 706T1157 799Q1157 820 1143 832T1102 844Q1088 844 1068 840T1026 829L1008
866Q1042 886 1073 899T1128 921T1170 932T1194 936Q1211 936 1226 934T1252 923T1271 900T1278 860Q1278 833 1273 798T1255 714T1217 600T1155 448T1062 251L932 2Q923 -3 912 -8T887 -19T862 -31T840 -41L807 -10L792 112L774 244L754 378Q744 445 734 504T715
611T696 690Q695 669 683 627T651 527T604 404T546 269T482 134T414 10L392 -2L366 -16L338 -30Q325 -37 315 -41L283 -10Q276 46 268 114L254 256L238 401Q230 474 222 539T206 657T188 745Q182 772 174 788T156 813T136 824T117 827T92 824T59 815Q40 810 18
803L4 840Z" />
<glyph unicode="x" glyph-name="x" horiz-adv-x="901" d="M-29 -6Q17 34 70 87L178 198L284 316L382 429L325 577Q297 649 270 704T216 793T166 827Q157 827 137 823T95 814L41 801L27 840L108 876L178 906Q210 920 232 928T266 936Q293 936 321 902T378 812T437
682L497 533L577 633Q616 684 646 727T694 801T713 838Q713 848 710 856T697 868T668 872T616 870L614 911Q680 925 731 930T807 936Q855 936 874 920T893 883Q893 863 870 829T801 741T687 614L531 444L586 306Q614 239 640 188T691 107T739 76T792 83T860 109L877
72L801 20Q768 -1 742 -14T694 -34T653 -41Q623 -41 593 -10T533 74T474 195T416 338L364 268L300 186L231 92L160 -10Q123 -15 77 -22T-6 -41L-29 -6Z" />
<glyph unicode="y" glyph-name="y" horiz-adv-x="926" d="M-181 -449Q-181 -437 -172 -416T-148 -371T-118 -328T-87 -301Q-63 -317 -45 -326T-10 -339T22 -343T56 -344Q137 -344 214 -266T376 -44Q366 14 352 87T320 237L283 392Q264 469 245 537T209 659T176
745Q153 796 137 811T104 827Q95 827 79 824T46 815Q27 810 6 803L-6 840L74 876L142 907Q173 920 196 928T231 936Q245 936 255 929T276 907T295 868T317 809Q336 755 358 682T404 523T449 347T489 165L554 294L616 423L672 546Q697 604 716 653T747 737T758 791Q758
841 705 844Q673 847 614 821L596 858Q668 900 722 918T811 936Q828 936 843 934T869 923T886 900T893 860Q893 826 875 773T815 630T706 407L541 82Q474 -49 408 -156T271 -339T125 -458T-36 -500Q-66 -500 -92 -495T-138 -483T-169 -466T-181 -449Z" />
<glyph unicode="z" glyph-name="z" horiz-adv-x="776" d="M-4 2Q46 62 100 134L207 284L314 436L413 582L500 706Q540 761 569 795H268Q244 795 228 791T198 773T172 734T145 666L106 674Q125 764 143 828T170 936Q189 931 211 923T268 915H756L776 885Q694 796
628 708L500 530L372 346Q308 251 229 150Q232 152 256 159T311 166Q331 166 364 156L438 135Q478 123 519 114T598 104Q607 104 620 106T648 120T681 153T719 213L754 193Q726 131 705 90T660 25T603 -10T522 -20T429 -10T346 14L272 36Q236 47 205 47Q189 47
172 42T134 27T84 2L18 -31L-4 2Z" />
<glyph unicode="{" glyph-name="braceleft" horiz-adv-x="641" d="M102 633Q217 664 281 725T356 862Q362 903 363 931Q364 960 364 983T361 1027T358 1071T358 1123T365 1194Q385 1330 479 1430T723 1599L741 1552Q701 1528 666 1497T602 1429T554 1347T526 1251Q518
1193 519 1156T523 1087T526 1017T518 922Q512 880 495 840T452 765T391 700T313 653Q358 644 387 622T431 565T448 486T442 385Q434 325 422 283T398 204L374 130Q363 94 356 43Q348 -13 350 -54Q351 -97 364 -131T405 -195T477 -254L449 -315Q376 -281 325 -244T245
-160T206 -57T207 72Q215 132 226 170Q238 208 250 243T274 319T295 422Q306 503 274 544T172 586H154Q148 586 143 586T131 584T111 580L102 633Z" />
<glyph unicode="|" glyph-name="bar" horiz-adv-x="410" d="M43 -311L305 1550Q333 1567 356 1579T408 1599L438 1577L176 -285Q156 -299 126 -313T72 -336L43 -311Z" />
<glyph unicode="}" glyph-name="braceright" horiz-adv-x="641" d="M-82 -266Q-42 -242 -6 -212T58 -144T105 -62T131 35Q137 74 138 102T140 154T137 199T135 243T135 296T141 365Q147 406 164 446T207 521T269 584T346 631Q301 641 272 663T229 720T212 799T217
901Q226 960 237 1002T261 1081T283 1155T301 1241Q310 1297 309 1340T295 1417T253 1480T180 1538L211 1599Q285 1566 335 1529T415 1445T454 1343T453 1214Q444 1155 433 1116T410 1042T387 966T367 864Q354 783 386 742T487 700H505Q511 700 516 700T527 702T549
707L557 651Q443 620 379 560T303 422Q297 380 296 352Q295 324 296 301T299 258T302 215T302 162T295 92Q285 24 256 -35T180 -145T72 -238T-63 -315L-82 -266Z" />
<glyph unicode="~" glyph-name="asciitilde" horiz-adv-x="983" d="M90 502Q116 551 153 603T233 699T321 771T411 799Q454 799 495 774T577 719T656 664T733 639Q778 639 823 678T919 799L964 774Q937 725 900 673T821 577T733 505T643 477Q603 477 563 502T481
557T400 612T319 637Q273 637 229 598T135 475L90 502Z" />
<glyph unicode="&#xa1;" glyph-name="exclamdown" horiz-adv-x="410" d="M-51 -512L143 510Q163 524 178 532T217 549L242 528L158 -442L122 -466L76 -494Q53 -508 30 -519T-14 -537L-51 -512ZM111 748Q111 778 121 810T151 869T198 913T258 930Q298 930 321 903T344
831Q344 802 333 771T301 713T254 670T195 653Q156 653 134 679T111 748Z" />
<glyph unicode="&#xa2;" glyph-name="cent" horiz-adv-x="823" d="M104 471Q104 538 118 606T163 740T246 864T371 973Q399 991 433 1006T505 1032L526 1186Q539 1195 545 1199T555 1206T566 1211T586 1217L606 1194L586 1050Q600 1052 614 1053T641 1055Q685
1055 719 1039T781 1001T828 961T864 936Q843 921 822 902L784 868Q765 852 749 842T721 831Q711 831 701 846T674 882T633 922T572 948L473 225Q491 226 515 233T572 257T644 302T737 373Q745 360 754 350T768 330Q713 280 669 245T587 184T518 145T459 122L440
-18Q431 -26 425 -30T412 -38T399 -43T379 -49L360 -27L379 111H367Q344 111 316 118T259 141T202 185T152 253T117 347T104 471ZM250 510Q250 459 261 415T291 337T338 277T396 239L493 946Q435 932 390 886T313 777T266 644T250 510Z" />
<glyph unicode="&#xa3;" glyph-name="sterling" horiz-adv-x="823" d="M-44 19Q-13 44 11 66T55 113T88 173T114 256T133 373T150 537H47L32 562Q37 577 44 594T60 627H157Q171 769 206 882T299 1073T437 1193T620 1235Q644 1235 665 1233T711 1224T764 1203T833
1165Q828 1139 820 1102T801 1027T780 954T761 900H718Q722 1024 677 1080T540 1136Q516 1136 492 1131T443 1108T397 1057T358 967T328 827T310 627H536L556 604L523 537H305Q298 468 283 405T245 287T197 184T142 101Q204 107 245 107T320 105L390 101Q426 99
476 101Q518 102 548 107T603 129T652 179T702 272L739 254Q730 211 720 172T699 99T680 40L667 0Q623 -25 568 -28T452 -24T326 -6T198 11T77 9T-31 -30L-44 19Z" />
<glyph unicode="&#xa4;" glyph-name="currency" horiz-adv-x="823" d="M105 345L216 451Q182 519 193 600Q198 648 214 686T254 755L168 867L175 900Q188 908 208 912T243 924L323 818Q360 843 398 854T468 866Q506 866 538 853T595 816L704 921L735 922L753 856L643
751Q660 717 666 678T667 600Q655 514 604 448L691 335L688 301L616 280L537 384Q472 339 395 339Q355 339 323 351T265 387L154 281L125 283L114 313Q109 329 105 345ZM279 601Q275 569 282 539T307 486T349 449T408 434Q443 434 472 447T525 484T562 537T582
602Q586 633 579 663T556 717T514 755T455 770Q420 770 390 757T336 721T298 667T279 601Z" />
<glyph unicode="&#xa5;" glyph-name="yen" horiz-adv-x="823" d="M22 1197L73 1210Q101 1217 129 1223T181 1232T223 1236Q245 1236 267 1199Q286 1167 307 1123T349 1030T390 928T426 827T455 733T475 657L743 1115Q759 1141 739 1155T660 1179L665 1221H977L972
1179Q917 1167 886 1154T841 1115L502 524L501 511H711L728 488L700 422H490L452 111Q450 99 476 80T574 42L569 0H182L188 42Q263 60 293 78T326 111L364 422H151L137 447L162 511H375L378 534Q362 605 337 687T282 848T220 999T159 1119Q150 1133 141 1142T117
1155T81 1160T30 1155L22 1197Z" />
<glyph unicode="&#xa6;" glyph-name="brokenbar" horiz-adv-x="410" d="M39 -311L152 489Q179 506 206 518T262 541L295 516L180 -285Q171 -292 157 -299T126 -314L94 -326L68 -336L39 -311ZM184 737L299 1550Q328 1567 355 1579T412 1599L442 1577L330 766Q320
758 306 751T275 737T243 724L215 715L184 737Z" />
<glyph unicode="&#xa7;" glyph-name="section" horiz-adv-x="865" d="M131 56T133 85T141 153T157 231T176 293L214 282Q210 240 222 202T261 133T324 86T409 68Q474 68 520 102T576 207Q582 247 566 276Q551 305 523 328T457 373T382 419Q327 455 285 491T215
569T176 661T174 775Q179 812 194 846Q210 881 231 911T279 966T334 1008Q308 1048 298 1095T295 1200Q304 1262 333 1307T403 1382T495 1426T596 1440Q624 1440 656 1433T720 1414T777 1387T820 1353Q825 1347 818 1326T799 1280T774 1233T754 1203L720 1211Q687
1283 646 1316T559 1350Q499 1350 462 1322T417 1240Q412 1205 420 1177T450 1121T506 1067Q538 1041 584 1009Q639 971 684 937T760 863T804 774T809 656Q796 567 756 505T670 408Q690 380 698 345T701 263Q691 192 666 143T608 62T537 11T464 -17T398 -28T350
-30Q307 -30 250 -7T137 53Q131 56 133 85ZM299 822Q293 776 303 740Q313 705 340 673T411 606T517 529L561 502Q583 488 604 473Q636 493 656 524T682 594Q688 640 677 677T637 750T560 821T449 899Q411 922 380 952Q363 946 350 931T326 897T308 858T299 822Z"
/>
<glyph unicode="&#xa8;" glyph-name="dieresis" horiz-adv-x="1042" d="M320 1176Q320 1203 329 1230T355 1281T395 1318T447 1333Q478 1333 495 1315T513 1262Q513 1234 504 1207T479 1157T440 1120T388 1106Q356 1106 338 1124T320 1176ZM693 1176Q693 1203
702 1230T727 1281T766 1318T818 1333Q849 1333 867 1315T886 1262Q886 1234 877 1207T852 1157T812 1120T759 1106Q728 1106 711 1124T693 1176Z" />
<glyph unicode="&#xa9;" glyph-name="copyright" horiz-adv-x="1360" d="M94 526Q94 619 117 712T183 890T287 1048T424 1175T589 1259T778 1290Q891 1290 983 1249T1142 1136T1244 966T1280 752Q1280 657 1258 562T1194 380T1092 218T955 88T788 1T594 -31Q480
-31 388 12T230 130T129 307T94 526ZM172 545Q172 443 202 354T288 199T425 94T606 55Q692 55 769 81T913 155T1032 265T1122 403T1180 557T1200 719Q1200 820 1170 908T1084 1062T948 1166T768 1204Q682 1204 605 1178T462 1105T342 995T251 859T193 705T172 545ZM336
526Q336 583 347 640T384 753T453 862T561 965Q584 983 615 998T679 1023T746 1038T809 1044Q850 1044 882 1030T938 997T981 963T1014 942L942 894Q908 872 885 872Q875 872 862 886T829 917T785 949T725 963Q683 963 647 944T582 893T530 820T492 733T469 643T461
559Q461 505 478 460T524 383T591 333T672 315Q688 315 709 321T760 342T829 381T918 444Q926 433 933 425T946 408Q874 348 821 312T725 256T649 230T580 223Q549 223 507 237T427 286T363 379T336 526Z" />
<glyph unicode="&#xaa;" glyph-name="ordfeminine" horiz-adv-x="586" d="M59 606Q64 622 70 633T82 659H530L549 635Q544 619 538 610T526 586H76L59 606ZM106 897Q106 984 145 1058T262 1186Q277 1196 294 1205T330 1221T366 1232T401 1237Q424 1237 444 1226T482
1204Q505 1222 537 1237L547 1217Q538 1210 532 1204T521 1191T513 1172Q510 1163 506 1143Q497 1102 490 1063Q484 1022 479 986T472 923T469 883Q469 821 475 798T494 774Q505 774 519 776T555 788L563 768Q517 739 488 726T442 713Q432 713 423 719T408 744T397
794T393 879Q379 854 360 825T317 771T269 730T221 713Q203 713 183 723T146 755T118 812T106 897ZM180 938Q180 867 202 826T256 784Q269 784 287 800T325 841T365 899T401 962L410 1014L418 1067Q422 1092 426 1112T432 1143Q415 1156 394 1168T346 1180Q309
1180 279 1154T226 1091T192 1011T180 938Z" />
<glyph unicode="&#xab;" glyph-name="guillemotleft" horiz-adv-x="882" d="M58 414Q60 433 63 448Q65 461 66 472T70 485L442 889L476 860L465 842L436 796L394 730L346 654L298 579L256 513L227 467Q216 450 217 450L365 36L323 7L58 414ZM386 414Q388 433 391
448Q393 461 394 472T398 485L770 889L804 860L793 842L764 796L722 730L674 654L626 579L584 513L555 467Q544 450 545 450L693 36L651 7L386 414Z" />
<glyph unicode="&#xac;" glyph-name="logicalnot" horiz-adv-x="823" d="M51 530Q59 550 70 574T92 618H739L762 596L725 324Q705 308 678 294T627 272L606 297L637 506H70L51 530Z" />
<glyph unicode="&#xad;" glyph-name="uni00AD" horiz-adv-x="641" d="M43 479Q51 501 62 523T86 565H561L580 541Q572 519 560 496L539 455H61L43 479Z" />
<glyph unicode="&#xae;" glyph-name="registered" horiz-adv-x="704" d="M131 1012T141 1084T182 1219T259 1329T364 1403T487 1430Q551 1430 602 1403T686 1329T732 1219T736 1084T695 949T618 839T513 765T390 738Q325 738 275 765T191 839T145 949ZM194 1084Q186
1024 197 972T236 879T306 816T401 793Q455 793 502 816T587 879T650 971T683 1084Q691 1143 680 1196T641 1288T571 1351T474 1375Q421 1375 374 1352T289 1289T227 1196T194 1084ZM276 887L278 905Q318 914 320 924L365 1250L326 1244L328 1273Q355 1280 384
1285T451 1291Q485 1291 509 1282T549 1259T571 1225T575 1186Q568 1139 539 1113T469 1076L541 934Q546 923 556 922T586 928L589 910L586 908Q569 899 548 890T516 881Q508 881 501 887T491 899L420 1070H418Q404 1070 391 1073L370 924Q368 914 405 905L403
887H276ZM396 1109Q402 1107 407 1107H420Q465 1107 489 1123T519 1177Q521 1192 518 1206T506 1231T479 1249T436 1256H426Q421 1256 416 1255L396 1109Z" />
<glyph unicode="&#xaf;" glyph-name="overscore" horiz-adv-x="801" d="M219 1181Q223 1191 229 1204L242 1232Q248 1246 255 1259T268 1283H815L834 1258Q831 1247 825 1233T810 1205L796 1178Q789 1165 784 1157H235L219 1181Z" />
<glyph unicode="&#xb0;" glyph-name="degree" horiz-adv-x="628" d="M178 918Q178 984 206 1041T278 1142T372 1210T466 1235Q498 1235 525 1223T572 1188T603 1137T614 1073Q614 1026 600 985T562 908T508 846T445 799T382 769T326 759Q293 759 266 771T219 805T189
856T178 918ZM284 966Q284 943 289 922T304 885T328 860T362 851Q397 851 424 868T470 911T499 969T509 1028Q509 1076 488 1109T429 1142Q402 1142 376 1128T330 1090T297 1034T284 966Z" />
<glyph unicode="&#xb1;" glyph-name="plusminus" horiz-adv-x="770" d="M20 154L39 200Q50 225 61 245H647L665 221Q662 211 657 198L647 173Q642 161 636 150L626 130H39L20 154ZM90 659L109 704Q120 730 131 750H365L404 1021Q421 1027 450 1036T500 1050L521
1027L481 750H717L735 726Q732 716 727 703L717 678Q712 666 706 654L696 635H464L426 366Q417 361 405 357T379 348T353 341T330 335L310 357L349 635H109L90 659Z" />
<glyph unicode="&#xb2;" glyph-name="uni00B2" horiz-adv-x="576" d="M45 662Q172 771 256 853T391 999T463 1109T484 1194Q484 1238 456 1260T377 1283Q351 1283 331 1273T295 1247T271 1210T259 1168Q236 1157 209 1150T153 1139L138 1157Q143 1188 168 1221T233
1283T322 1330Q370 1348 424 1349Q463 1350 496 1342T553 1317T590 1274T604 1212Q604 1174 585 1131T516 1026T383 883T170 687H422Q443 687 458 702T484 737Q496 759 505 787L545 780L509 608H55L45 662Z" />
<glyph unicode="&#xb3;" glyph-name="uni00B3" horiz-adv-x="576" d="M37 679L64 730Q91 710 113 697T156 675T196 664T237 661Q283 661 318 675T378 715T415 775T428 849Q428 883 417 907T388 947T347 970T298 977H286Q282 977 279 977T272 975T257 973L253 1019Q293
1029 329 1042T391 1076T432 1124T448 1192Q448 1230 425 1256T353 1283Q311 1283 283 1258T256 1192Q232 1181 202 1176T144 1168L129 1187Q133 1212 157 1240T217 1293T298 1333T392 1349Q438 1349 471 1337T526 1306T558 1261T568 1209Q568 1176 557 1148T525
1097T476 1057T413 1027Q444 1023 469 1009T513 972T541 923T551 865Q551 809 530 759T468 671T371 611T244 589Q194 589 142 610T37 679Z" />
<glyph unicode="&#xb4;" glyph-name="acute" horiz-adv-x="606" d="M172 1061L444 1459L470 1452Q485 1447 502 1442T534 1430T557 1419L572 1374L217 1026Q201 1030 194 1037T172 1061Z" />
<glyph unicode="&#xb5;" glyph-name="uni00B5" horiz-adv-x="1051" d="M7 -471Q14 -414 26 -341L50 -186L80 -17L110 156L138 320L162 467Q166 506 172 546T184 625T193 698T197 760Q197 783 194 796T186 816T173 825T158 827Q148 827 131 824T97 815Q77 810 55
803L41 840L126 876Q168 894 205 907T269 928T309 936Q337 936 346 917T356 852Q356 823 352 783T340 698L325 607L310 516Q303 472 299 434T294 369Q294 314 303 268T328 189T366 138T414 119Q451 119 492 145T579 228Q623 282 673 369Q689 397 703 424L716 500L733
602Q741 652 746 694T752 760Q752 792 749 825T735 877L774 892L819 908L865 924Q888 931 909 936Q917 925 922 916T930 897L914 818L892 708L870 581Q858 515 849 453T833 339T827 254Q827 209 830 182T838 141T849 123T864 119Q874 119 883 121T906 136T939 173T987
244L1022 215Q980 138 947 89T885 10T828 -30T768 -41Q683 -41 680 244Q645 181 610 129T537 39T460 -20T381 -41Q348 -41 318 -27T263 14T218 78T184 162L176 104Q162 1 165 -88T178 -247T201 -361T219 -420L179 -436L127 -459L76 -482L40 -500L7 -471Z" />
<glyph unicode="&#xb6;" glyph-name="paragraph" horiz-adv-x="1020" d="M92 903Q104 988 145 1059T250 1181T396 1261T571 1290Q591 1290 619 1289T680 1285T746 1281T814 1275L975 1260H1040L1034 1217Q969 1203 931 1186T891 1155L709 -145Q707 -158 738 -175T836
-207L829 -250H299L305 -207Q370 -193 407 -176T449 -145L544 532Q527 529 507 528T461 526Q374 526 301 549T177 620T103 738T92 903ZM252 938Q243 884 252 826T292 720T377 641T512 610H555L638 1200Q582 1206 543 1206Q487 1206 437 1185T349 1128T285 1043T252
938ZM543 -145Q541 -156 552 -164T573 -176Q584 -173 598 -165T614 -145L799 1160Q781 1167 762 1172L727 1182L543 -145Z" />
<glyph unicode="&#xb7;" glyph-name="middot" horiz-adv-x="410" d="M105 596Q105 624 116 655T148 712T195 755T254 772Q292 772 314 746T336 678Q336 648 326 616T296 558T250 515T189 498Q149 498 127 524T105 596Z" />
<glyph unicode="&#xb8;" glyph-name="cedilla" horiz-adv-x="324" d="M-126 -336Q-74 -360 -33 -361T36 -351T78 -315T93 -268Q93 -242 70 -228T0 -215Q14 -178 23 -150T40 -96T52 -48L64 4L132 2Q124 -39 118 -63T105 -113Q156 -115 188 -143T220 -221Q220 -274
189 -318T109 -386T-2 -411T-124 -375L-126 -336Z" />
<glyph unicode="&#xb9;" glyph-name="uni00B9" horiz-adv-x="576" d="M89 608L96 650Q146 656 178 662T229 676T256 690T265 704L338 1162Q342 1187 342 1200Q343 1213 336 1221Q333 1225 324 1227T297 1229T251 1225T180 1212L172 1253Q199 1260 239 1273L320
1300Q362 1315 399 1329T460 1355L479 1334L380 704Q379 698 383 691T401 677T444 663T519 650L511 608H89Z" />
<glyph unicode="&#xba;" glyph-name="ordmasculine" horiz-adv-x="508" d="M59 606Q64 622 70 633T82 659H451L469 635Q464 619 458 610T446 586H76L59 606ZM111 920Q111 996 138 1063T236 1186Q263 1207 296 1222T362 1237Q405 1237 435 1222T483 1180T510 1116T518
1034Q518 998 510 961T487 890T448 824T395 768Q366 745 333 729T268 713Q230 713 201 728T152 772T122 837T111 920ZM186 948Q186 913 195 881T220 825T257 787T303 772Q340 772 366 796T409 856T432 932T440 1006Q440 1087 410 1131T326 1176Q287 1176 260 1154T217
1097T193 1022T186 948Z" />
<glyph unicode="&#xbb;" glyph-name="guillemotright" horiz-adv-x="882" d="M60 36L321 450Q318 459 311 480L284 556L248 654L211 754L183 829L172 860L214 889L478 485Q478 483 477 472T474 448L470 414L94 7L60 36ZM388 36L649 450Q646 459 639 480L612 556L576
654L539 754L511 829L500 860L542 889L806 485Q806 483 805 472T802 448L798 414L422 7L388 36Z" />
<glyph unicode="&#xbc;" glyph-name="onequarter" horiz-adv-x="1110" d="M133 637L138 671Q178 675 204 680T245 691T266 703T272 714L322 1080Q325 1100 325 1110T319 1127Q317 1130 310 1132T289 1134T252 1130T195 1120L188 1153Q210 1159 241 1169T305 1190T367
1214T415 1235L431 1218L362 714Q362 709 365 704T381 692T415 681T476 671L471 637H133ZM138 0L987 1203L1028 1220Q1051 1230 1071 1235L1090 1207L244 3Q221 -8 202 -15T156 -30L138 0ZM572 180L876 563L922 581Q946 590 963 598L978 581L930 226H984L996 210L972
184Q962 172 949 164H922L907 58Q907 54 908 51T916 45T934 37T966 29L963 0H716L719 29Q752 34 772 38T804 47T819 55T823 63L837 164H587L572 180ZM664 226H845L881 491L664 226Z" />
<glyph unicode="&#xbd;" glyph-name="onehalf" horiz-adv-x="1110" d="M133 637L138 671Q178 675 204 680T245 691T266 703T272 714L322 1080Q325 1100 325 1110T319 1127Q317 1130 310 1132T289 1134T252 1130T195 1120L188 1153Q210 1159 241 1169T305 1190T367
1214T415 1235L431 1218L362 714Q362 709 365 704T381 692T415 681T476 671L471 637H133ZM138 0L987 1203L1028 1220Q1051 1230 1071 1235L1090 1207L244 3Q221 -8 202 -15T156 -30L138 0ZM586 35L754 200Q819 266 856 311T909 386T929 443Q935 488 918 514T848
540Q829 540 812 532T782 511T761 482T749 448Q712 429 666 425L654 439Q657 464 679 491T734 541T807 578T890 593Q956 593 994 560T1023 457Q1018 425 1000 392T944 316T846 212L696 66H892Q909 66 921 78T941 104Q950 121 955 143L986 138L961 0H596L586 35Z"
/>
<glyph unicode="&#xbe;" glyph-name="threequarters" horiz-adv-x="1110" d="M127 707L149 740Q191 707 224 696T295 684Q354 684 394 716T442 809Q447 845 440 870Q432 894 417 909T381 930T339 937H328Q325 937 322 937T315 935L303 934L302 971Q348 983 377
998T422 1029T444 1062T453 1093Q455 1109 453 1125T441 1154T417 1174T379 1182Q341 1182 319 1162T298 1109Q281 1101 258 1097T211 1090L199 1105Q202 1125 221 1148T271 1190T338 1222T415 1235T481 1224T523 1193T544 1150T547 1102Q545 1084 535 1066T509
1030T472 1000T424 977Q452 974 475 961T514 927T536 881T539 825Q534 784 515 749T464 686T392 644T301 628Q256 628 212 646T127 707ZM138 0L987 1203L1028 1220Q1051 1230 1071 1235L1090 1207L244 3Q221 -8 202 -15T156 -30L138 0ZM572 180L876 563L922 581Q946
590 963 598L978 581L930 226H984L996 210L972 184Q962 172 949 164H922L907 58Q907 54 908 51T916 45T934 37T966 29L963 0H716L719 29Q752 34 772 38T804 47T819 55T823 63L837 164H587L572 180ZM664 226H845L881 491L664 226Z" />
<glyph unicode="&#xbf;" glyph-name="questiondown" horiz-adv-x="813" d="M-16 -285Q-16 -197 9 -131T74 -11T159 89T248 183T323 287T367 414L381 510Q400 525 414 535T455 553L475 530L473 414Q471 347 446 291T384 184T305 86T227 -11T167 -113T143 -229Q143
-328 187 -381T317 -434Q359 -434 391 -415T442 -364T468 -289T467 -199Q488 -189 504 -183T537 -172T571 -165T610 -160L631 -190Q631 -254 603 -315T523 -424T397 -501T231 -530Q168 -530 122 -511T45 -458T-1 -381T-16 -285ZM352 750Q352 780 362 811T392 869T439
913T500 930Q540 930 562 903T584 831Q584 803 573 772T541 715T493 672T434 655Q397 655 375 680T352 750Z" />
<glyph unicode="&#xc0;" glyph-name="Agrave" horiz-adv-x="1147" d="M-35 0L-29 43Q34 55 72 68T123 111L610 1229Q623 1241 641 1253T678 1278L714 1300Q732 1310 745 1317L961 111Q963 97 968 87T986 68T1018 53T1071 43L1067 0H682L686 43Q757 48 788 63T813
111L755 444H371L228 111Q214 80 243 67T350 43L344 0H-35ZM399 1590L411 1637Q420 1644 436 1654T470 1674L505 1693L534 1708L847 1393Q833 1373 825 1364T800 1346L399 1590ZM410 535H739L645 1079L410 535Z" />
<glyph unicode="&#xc1;" glyph-name="Aacute" horiz-adv-x="1147" d="M-35 0L-29 43Q34 55 72 68T123 111L610 1229Q623 1241 641 1253T678 1278L714 1300Q732 1310 745 1317L961 111Q963 97 968 87T986 68T1018 53T1071 43L1067 0H682L686 43Q757 48 788 63T813
111L755 444H371L228 111Q214 80 243 67T350 43L344 0H-35ZM410 535H739L645 1079L410 535ZM545 1393L936 1708L959 1693L986 1674Q1001 1664 1014 1654T1033 1637V1590L578 1346Q564 1355 559 1364T545 1393Z" />
<glyph unicode="&#xc2;" glyph-name="Acircumflex" horiz-adv-x="1147" d="M-35 0L-29 43Q34 55 72 68T123 111L610 1229Q623 1241 641 1253T678 1278L714 1300Q732 1310 745 1317L961 111Q963 97 968 87T986 68T1018 53T1071 43L1067 0H682L686 43Q757 48 788
63T813 111L755 444H371L228 111Q214 80 243 67T350 43L344 0H-35ZM410 535H739L645 1079L410 535ZM425 1391L700 1692H792L984 1391Q970 1371 963 1362T939 1346L724 1551L458 1346Q449 1352 442 1361T425 1391Z" />
<glyph unicode="&#xc3;" glyph-name="Atilde" horiz-adv-x="1147" d="M-35 0L-29 43Q34 55 72 68T123 111L610 1229Q623 1241 641 1253T678 1278L714 1300Q732 1310 745 1317L961 111Q963 97 968 87T986 68T1018 53T1071 43L1067 0H682L686 43Q757 48 788 63T813
111L755 444H371L228 111Q214 80 243 67T350 43L344 0H-35ZM401 1402Q422 1442 448 1481T506 1552T574 1603T648 1623Q681 1623 708 1606T760 1568L805 1531Q826 1514 847 1514Q882 1514 920 1545T997 1633L1042 1613Q1021 1573 995 1533T937 1462T871 1411T796
1391Q764 1391 739 1408T690 1445T643 1483T593 1500Q558 1500 522 1469T444 1381L401 1402ZM410 535H739L645 1079L410 535Z" />
<glyph unicode="&#xc4;" glyph-name="Adieresis" horiz-adv-x="1147" d="M-35 0L-29 43Q34 55 72 68T123 111L610 1229Q623 1241 641 1253T678 1278L714 1300Q732 1310 745 1317L961 111Q963 97 968 87T986 68T1018 53T1071 43L1067 0H682L686 43Q757 48 788 63T813
111L755 444H371L228 111Q214 80 243 67T350 43L344 0H-35ZM410 535H739L645 1079L410 535ZM438 1463Q438 1490 447 1517T473 1568T513 1605T565 1620Q596 1620 613 1602T631 1549Q631 1521 622 1494T597 1444T558 1407T506 1393Q474 1393 456 1411T438 1463ZM811
1463Q811 1490 820 1517T845 1568T884 1605T936 1620Q967 1620 985 1602T1004 1549Q1004 1521 995 1494T970 1444T930 1407T877 1393Q846 1393 829 1411T811 1463Z" />
<glyph unicode="&#xc5;" glyph-name="Aring" horiz-adv-x="1147" d="M-35 0L-29 43Q34 55 72 68T123 111L610 1229Q623 1241 641 1253T678 1278L714 1300Q732 1310 745 1317L961 111Q963 97 968 87T986 68T1018 53T1071 43L1067 0H682L686 43Q757 48 788 63T813
111L755 444H371L228 111Q214 80 243 67T350 43L344 0H-35ZM410 535H739L645 1079L410 535ZM554 1469Q554 1514 571 1560T619 1643T691 1705T779 1729Q832 1729 864 1693T896 1600Q896 1559 879 1515T831 1433T760 1371T673 1346Q647 1346 625 1356T587 1383T563
1422T554 1469ZM638 1512Q638 1475 654 1448T702 1420Q729 1420 749 1433T784 1467T805 1513T812 1563Q812 1598 797 1625T751 1653Q723 1653 702 1640T667 1607T645 1561T638 1512Z" />
<glyph unicode="&#xc6;" glyph-name="AE" horiz-adv-x="1464" d="M-35 0L-29 43Q33 55 70 68T121 111L635 1133Q643 1150 635 1161T606 1182T550 1200T473 1217L479 1260H1432L1454 1235Q1449 1209 1442 1178T1425 1116T1407 1057T1389 1010H1348Q1352 1056 1351
1086T1343 1135T1324 1161T1294 1169H967L907 735H1272L1292 707Q1282 693 1270 678T1244 648T1218 621T1194 600Q1182 615 1168 625T1135 642T1088 652T1024 655H897L827 154Q825 139 830 128T854 108T908 95T1004 90H1118Q1160 90 1190 95T1245 117T1293 169T1343
262L1380 244Q1360 157 1341 93T1309 0H532L539 43Q602 57 639 73T678 104L752 655H510L238 111Q222 82 247 67T344 43L340 0H-35ZM551 735H764L819 1147Q820 1158 812 1163T792 1168T767 1157T745 1130L551 735Z" />
<glyph unicode="&#xc7;" glyph-name="Ccedilla" horiz-adv-x="995" d="M76 459Q76 553 94 650T152 840T252 1016T397 1167Q470 1224 554 1257T733 1290Q832 1290 902 1261T1016 1190Q1020 1185 1009 1168T981 1130T944 1089T911 1057L881 1065Q840 1110 782 1139T641
1169Q601 1169 551 1150T461 1100Q398 1051 354 977T281 822T240 660T227 516Q227 407 256 328T332 197T434 121T543 96Q599 96 677 131T868 256Q873 254 877 248L885 234Q889 227 892 221T897 211Q829 143 770 97T656 24Q603 -4 553 -15Q522 -22 494 -25Q490 -48
486 -63Q480 -88 473 -113Q524 -115 556 -143T588 -221Q588 -274 557 -318T477 -386T366 -411T244 -375L242 -336Q294 -360 335 -361T404 -351T446 -315T461 -268Q461 -242 438 -228T368 -215Q382 -178 391 -150T408 -96T420 -47Q423 -37 425 -25Q367 -20 313 5Q244
38 192 100T108 252T76 459Z" />
<glyph unicode="&#xc8;" glyph-name="Egrave" horiz-adv-x="946" d="M0 0L6 43Q69 57 107 73T147 104L293 1155Q295 1167 264 1185T168 1217L174 1260H911L936 1235Q931 1209 924 1178T907 1116T887 1057T868 1010H825Q830 1056 829 1086T821 1135T802 1161T772
1169H437L378 735H752L772 707Q762 693 750 678T724 649T697 622L674 600Q658 617 640 627T596 644T531 652T436 655H367L299 154Q297 139 302 128T326 108T381 95T477 90H598Q640 90 669 95T721 117T767 169T817 262L856 244Q836 157 816 93T784 0H0ZM294 1590L306
1637Q315 1644 331 1654T365 1674L400 1693L429 1708L742 1393Q728 1373 720 1364T695 1346L294 1590Z" />
<glyph unicode="&#xc9;" glyph-name="Eacute" horiz-adv-x="946" d="M0 0L6 43Q69 57 107 73T147 104L293 1155Q295 1167 264 1185T168 1217L174 1260H911L936 1235Q931 1209 924 1178T907 1116T887 1057T868 1010H825Q830 1056 829 1086T821 1135T802 1161T772
1169H437L378 735H752L772 707Q762 693 750 678T724 649T697 622L674 600Q658 617 640 627T596 644T531 652T436 655H367L299 154Q297 139 302 128T326 108T381 95T477 90H598Q640 90 669 95T721 117T767 169T817 262L856 244Q836 157 816 93T784 0H0ZM440 1393L831
1708L854 1693L882 1674Q896 1664 909 1654T928 1637V1590L473 1346Q459 1355 454 1364T440 1393Z" />
<glyph unicode="&#xca;" glyph-name="Ecircumflex" horiz-adv-x="946" d="M0 0L6 43Q69 57 107 73T147 104L293 1155Q295 1167 264 1185T168 1217L174 1260H911L936 1235Q931 1209 924 1178T907 1116T887 1057T868 1010H825Q830 1056 829 1086T821 1135T802 1161T772
1169H437L378 735H752L772 707Q762 693 750 678T724 649T697 622L674 600Q658 617 640 627T596 644T531 652T436 655H367L299 154Q297 139 302 128T326 108T381 95T477 90H598Q640 90 669 95T721 117T767 169T817 262L856 244Q836 157 816 93T784 0H0ZM320 1391L595
1692H687L879 1391Q865 1371 858 1362T834 1346L619 1551L353 1346Q344 1352 337 1361T320 1391Z" />
<glyph unicode="&#xcb;" glyph-name="Edieresis" horiz-adv-x="946" d="M0 0L6 43Q69 57 107 73T147 104L293 1155Q295 1167 264 1185T168 1217L174 1260H911L936 1235Q931 1209 924 1178T907 1116T887 1057T868 1010H825Q830 1056 829 1086T821 1135T802 1161T772
1169H437L378 735H752L772 707Q762 693 750 678T724 649T697 622L674 600Q658 617 640 627T596 644T531 652T436 655H367L299 154Q297 139 302 128T326 108T381 95T477 90H598Q640 90 669 95T721 117T767 169T817 262L856 244Q836 157 816 93T784 0H0ZM333 1463Q333
1490 342 1517T368 1568T408 1605T460 1620Q491 1620 508 1602T526 1549Q526 1521 517 1494T492 1444T453 1407T401 1393Q369 1393 351 1411T333 1463ZM706 1463Q706 1490 715 1517T740 1568T779 1605T831 1620Q862 1620 880 1602T899 1549Q899 1521 890 1494T865
1444T825 1407T772 1393Q741 1393 724 1411T706 1463Z" />
<glyph unicode="&#xcc;" glyph-name="Igrave" horiz-adv-x="573" d="M20 0L27 43Q90 57 127 73T168 104L311 1155Q313 1167 282 1185T188 1217L195 1260H604L598 1217Q535 1203 497 1186T457 1155L311 104Q309 92 340 75T436 43L430 0H20ZM109 1590L121 1637Q130
1644 146 1654T180 1674L215 1693L244 1708L557 1393Q543 1373 535 1364T510 1346L109 1590Z" />
<glyph unicode="&#xcd;" glyph-name="Iacute" horiz-adv-x="573" d="M20 0L27 43Q90 57 127 73T168 104L311 1155Q313 1167 282 1185T188 1217L195 1260H604L598 1217Q535 1203 497 1186T457 1155L311 104Q309 92 340 75T436 43L430 0H20ZM255 1393L646 1708L669
1693L696 1674Q711 1664 724 1654T743 1637V1590L288 1346Q274 1355 269 1364T255 1393Z" />
<glyph unicode="&#xce;" glyph-name="Icircumflex" horiz-adv-x="573" d="M20 0L27 43Q90 57 127 73T168 104L311 1155Q313 1167 282 1185T188 1217L195 1260H604L598 1217Q535 1203 497 1186T457 1155L311 104Q309 92 340 75T436 43L430 0H20ZM135 1391L410 1692H502L694
1391Q680 1371 673 1362T649 1346L434 1551L168 1346Q159 1352 152 1361T135 1391Z" />
<glyph unicode="&#xcf;" glyph-name="Idieresis" horiz-adv-x="573" d="M20 0L27 43Q90 57 127 73T168 104L311 1155Q313 1167 282 1185T188 1217L195 1260H604L598 1217Q535 1203 497 1186T457 1155L311 104Q309 92 340 75T436 43L430 0H20ZM148 1463Q148 1490
157 1517T183 1568T223 1605T275 1620Q306 1620 323 1602T341 1549Q341 1521 332 1494T307 1444T268 1407T216 1393Q184 1393 166 1411T148 1463ZM521 1463Q521 1490 530 1517T555 1568T594 1605T646 1620Q677 1620 695 1602T714 1549Q714 1521 705 1494T680 1444T640
1407T587 1393Q556 1393 539 1411T521 1463Z" />
<glyph unicode="&#xd0;" glyph-name="Eth" horiz-adv-x="1118" d="M0 0L6 43Q69 57 107 73T147 104L217 614H88L72 639L85 671Q92 689 100 705H229L296 1193L143 1176V1239Q258 1267 370 1278T586 1290Q703 1290 794 1251T948 1141T1044 970T1077 745Q1077 657
1060 568T1009 396T925 241T809 115T660 31T481 0H0ZM299 139Q297 124 303 114T326 97T374 87T455 84Q529 84 591 112T705 188T795 300T861 435T901 582T915 727Q915 834 888 922T809 1073T681 1171T504 1206H474Q459 1206 444 1205L376 705H608L627 682L598 614H363L299
139Z" />
<glyph unicode="&#xd1;" glyph-name="Ntilde" horiz-adv-x="1239" d="M0 0L6 43Q74 52 107 71T143 104L289 1154Q263 1184 232 1196T158 1217L164 1260H342Q364 1260 376 1259T398 1251T416 1227L440 1182L924 258L1047 1155Q1048 1161 1042 1169T1022 1186T983
1203T924 1217L930 1260H1294L1288 1217Q1222 1207 1189 1190T1153 1155L989 -31Q968 -28 951 -24T920 -12T894 9T870 45L373 1004L250 104Q247 92 275 73T371 43L365 0H0ZM442 1402Q463 1442 489 1481T547 1552T615 1603T689 1623Q722 1623 749 1606T801 1568L846
1531Q867 1514 888 1514Q923 1514 961 1545T1038 1633L1083 1613Q1062 1573 1036 1533T978 1462T912 1411T837 1391Q805 1391 780 1408T731 1445T684 1483T634 1500Q599 1500 563 1469T485 1381L442 1402Z" />
<glyph unicode="&#xd2;" glyph-name="Ograve" horiz-adv-x="1116" d="M90 485Q90 548 101 618T134 759T187 896T258 1018Q300 1074 348 1123T452 1210T571 1268T705 1290Q803 1290 875 1249T993 1138T1062 973T1085 774Q1085 703 1074 630T1039 486T980 348Q947
283 901 225Q858 170 812 124Q764 78 711 44T598 -11T471 -31Q375 -31 304 10T185 121T114 286T90 485ZM242 532Q242 439 261 360T317 223T403 133T516 100Q593 100 654 131T762 213T842 332T896 473T926 619T936 756Q936 840 918 914T865 1044T779 1132T662 1165Q586
1165 526 1136T418 1057T338 943T284 808T252 667T242 532ZM403 1590L415 1637Q424 1644 440 1654T474 1674L509 1693L538 1708L851 1393Q837 1373 829 1364T804 1346L403 1590Z" />
<glyph unicode="&#xd3;" glyph-name="Oacute" horiz-adv-x="1116" d="M90 485Q90 548 101 618T134 759T187 896T258 1018Q300 1074 348 1123T452 1210T571 1268T705 1290Q803 1290 875 1249T993 1138T1062 973T1085 774Q1085 703 1074 630T1039 486T980 348Q947
283 901 225Q858 170 812 124Q764 78 711 44T598 -11T471 -31Q375 -31 304 10T185 121T114 286T90 485ZM242 532Q242 439 261 360T317 223T403 133T516 100Q593 100 654 131T762 213T842 332T896 473T926 619T936 756Q936 840 918 914T865 1044T779 1132T662 1165Q586
1165 526 1136T418 1057T338 943T284 808T252 667T242 532ZM549 1393L940 1708L963 1693L990 1674Q1005 1664 1018 1654T1037 1637V1590L582 1346Q568 1355 563 1364T549 1393Z" />
<glyph unicode="&#xd4;" glyph-name="Ocircumflex" horiz-adv-x="1116" d="M90 485Q90 548 101 618T134 759T187 896T258 1018Q300 1074 348 1123T452 1210T571 1268T705 1290Q803 1290 875 1249T993 1138T1062 973T1085 774Q1085 703 1074 630T1039 486T980 348Q947
283 901 225Q858 170 812 124Q764 78 711 44T598 -11T471 -31Q375 -31 304 10T185 121T114 286T90 485ZM242 532Q242 439 261 360T317 223T403 133T516 100Q593 100 654 131T762 213T842 332T896 473T926 619T936 756Q936 840 918 914T865 1044T779 1132T662 1165Q586
1165 526 1136T418 1057T338 943T284 808T252 667T242 532ZM429 1391L704 1692H796L988 1391Q974 1371 967 1362T943 1346L728 1551L462 1346Q453 1352 446 1361T429 1391Z" />
<glyph unicode="&#xd5;" glyph-name="Otilde" horiz-adv-x="1116" d="M90 485Q90 548 101 618T134 759T187 896T258 1018Q300 1074 348 1123T452 1210T571 1268T705 1290Q803 1290 875 1249T993 1138T1062 973T1085 774Q1085 703 1074 630T1039 486T980 348Q947
283 901 225Q858 170 812 124Q764 78 711 44T598 -11T471 -31Q375 -31 304 10T185 121T114 286T90 485ZM242 532Q242 439 261 360T317 223T403 133T516 100Q593 100 654 131T762 213T842 332T896 473T926 619T936 756Q936 840 918 914T865 1044T779 1132T662 1165Q586
1165 526 1136T418 1057T338 943T284 808T252 667T242 532ZM405 1402Q426 1442 452 1481T510 1552T578 1603T652 1623Q685 1623 712 1606T764 1568L809 1531Q830 1514 851 1514Q886 1514 924 1545T1001 1633L1046 1613Q1025 1573 999 1533T941 1462T875 1411T800
1391Q768 1391 743 1408T694 1445T647 1483T597 1500Q562 1500 526 1469T448 1381L405 1402Z" />
<glyph unicode="&#xd6;" glyph-name="Odieresis" horiz-adv-x="1116" d="M90 485Q90 548 101 618T134 759T187 896T258 1018Q300 1074 348 1123T452 1210T571 1268T705 1290Q803 1290 875 1249T993 1138T1062 973T1085 774Q1085 703 1074 630T1039 486T980 348Q947
283 901 225Q858 170 812 124Q764 78 711 44T598 -11T471 -31Q375 -31 304 10T185 121T114 286T90 485ZM242 532Q242 439 261 360T317 223T403 133T516 100Q593 100 654 131T762 213T842 332T896 473T926 619T936 756Q936 840 918 914T865 1044T779 1132T662 1165Q586
1165 526 1136T418 1057T338 943T284 808T252 667T242 532ZM442 1463Q442 1490 451 1517T477 1568T517 1605T569 1620Q600 1620 617 1602T635 1549Q635 1521 626 1494T601 1444T562 1407T510 1393Q478 1393 460 1411T442 1463ZM815 1463Q815 1490 824 1517T849
1568T888 1605T940 1620Q971 1620 989 1602T1008 1549Q1008 1521 999 1494T974 1444T934 1407T881 1393Q850 1393 833 1411T815 1463Z" />
<glyph unicode="&#xd7;" glyph-name="multiply" horiz-adv-x="770" d="M60 280L65 314L322 562L135 808L140 842Q158 851 182 859T227 873L404 640L646 873Q665 868 686 860T725 842L720 808L464 561L652 314L647 280Q628 272 603 263T561 249L382 483L139 249Q123
254 100 263T60 280Z" />
<glyph unicode="&#xd8;" glyph-name="Oslash" horiz-adv-x="1116" d="M27 -20L163 157Q126 225 108 308T90 485Q90 548 101 618T134 759T187 896T258 1018Q300 1074 348 1123T452 1210T571 1268T705 1290Q784 1290 845 1264T952 1189L1010 1264Q1038 1281 1070
1293T1130 1313L1153 1280L1015 1100Q1050 1032 1067 950T1085 774Q1085 703 1074 630T1039 486T980 348Q947 283 901 225Q858 170 812 124Q764 78 711 44T598 -11T471 -31Q393 -31 333 -5T226 70L170 -2Q160 -10 144 -17T110 -31T75 -43L47 -53L27 -20ZM242 532Q242
404 277 307L854 1061Q819 1109 771 1137T662 1165Q586 1165 526 1136T418 1057T338 943T284 808T252 667T242 532ZM329 205Q364 155 411 128T516 100Q593 100 654 131T762 213T842 332T896 473T926 619T936 756Q936 811 928 861T905 957L329 205Z" />
<glyph unicode="&#xd9;" glyph-name="Ugrave" horiz-adv-x="1227" d="M168 1217L174 1260H584L578 1217Q515 1203 477 1186T436 1155L348 510Q344 481 343 452T342 397Q342 327 359 270T409 172T493 109T608 86T728 118T825 203T894 325Q922 394 932 469L1024
1155Q1026 1167 998 1185T905 1217L911 1260H1286L1280 1217Q1217 1203 1182 1186T1145 1155L1055 512Q1036 380 994 280Q951 178 887 109T740 5T557 -31Q475 -31 407 -6T289 67T213 185T186 348Q186 399 195 463L293 1155Q295 1167 264 1185T168 1217ZM460 1590L472
1637Q481 1644 497 1654T531 1674L566 1693L595 1708L908 1393Q894 1373 886 1364T861 1346L460 1590Z" />
<glyph unicode="&#xda;" glyph-name="Uacute" horiz-adv-x="1227" d="M168 1217L174 1260H584L578 1217Q515 1203 477 1186T436 1155L348 510Q344 481 343 452T342 397Q342 327 359 270T409 172T493 109T608 86T728 118T825 203T894 325Q922 394 932 469L1024
1155Q1026 1167 998 1185T905 1217L911 1260H1286L1280 1217Q1217 1203 1182 1186T1145 1155L1055 512Q1036 380 994 280Q951 178 887 109T740 5T557 -31Q475 -31 407 -6T289 67T213 185T186 348Q186 399 195 463L293 1155Q295 1167 264 1185T168 1217ZM606 1393L997
1708L1020 1693L1048 1674Q1062 1664 1075 1654T1094 1637V1590L639 1346Q625 1355 620 1364T606 1393Z" />
<glyph unicode="&#xdb;" glyph-name="Ucircumflex" horiz-adv-x="1227" d="M168 1217L174 1260H584L578 1217Q515 1203 477 1186T436 1155L348 510Q344 481 343 452T342 397Q342 327 359 270T409 172T493 109T608 86T728 118T825 203T894 325Q922 394 932 469L1024
1155Q1026 1167 998 1185T905 1217L911 1260H1286L1280 1217Q1217 1203 1182 1186T1145 1155L1055 512Q1036 380 994 280Q951 178 887 109T740 5T557 -31Q475 -31 407 -6T289 67T213 185T186 348Q186 399 195 463L293 1155Q295 1167 264 1185T168 1217ZM486 1391L761
1692H853L1045 1391Q1031 1371 1024 1362T1000 1346L785 1551L519 1346Q510 1352 503 1361T486 1391Z" />
<glyph unicode="&#xdc;" glyph-name="Udieresis" horiz-adv-x="1227" d="M168 1217L174 1260H584L578 1217Q515 1203 477 1186T436 1155L348 510Q344 481 343 452T342 397Q342 327 359 270T409 172T493 109T608 86T728 118T825 203T894 325Q922 394 932 469L1024
1155Q1026 1167 998 1185T905 1217L911 1260H1286L1280 1217Q1217 1203 1182 1186T1145 1155L1055 512Q1036 380 994 280Q951 178 887 109T740 5T557 -31Q475 -31 407 -6T289 67T213 185T186 348Q186 399 195 463L293 1155Q295 1167 264 1185T168 1217ZM499 1463Q499
1490 508 1517T534 1568T574 1605T626 1620Q657 1620 674 1602T692 1549Q692 1521 683 1494T658 1444T619 1407T567 1393Q535 1393 517 1411T499 1463ZM872 1463Q872 1490 881 1517T906 1568T945 1605T997 1620Q1028 1620 1046 1602T1065 1549Q1065 1521 1056 1494T1031
1444T991 1407T938 1393Q907 1393 890 1411T872 1463Z" />
<glyph unicode="&#xdd;" glyph-name="Yacute" horiz-adv-x="1145" d="M102 1235Q129 1242 161 1249T226 1262T286 1272T334 1276Q360 1276 385 1237Q407 1204 431 1159T479 1063T526 958T568 853T602 756T625 678L934 1151Q951 1179 929 1193T838 1217L844 1260H1204L1198
1217Q1135 1204 1100 1191T1047 1151L657 542L598 115Q597 109 603 101T626 82T670 62T739 43L733 0H287L293 43Q380 62 415 81T453 115L512 551Q494 624 465 708T402 875T330 1032Q295 1103 260 1155Q250 1170 238 1179Q227 1188 211 1192T170 1197T111 1192L102
1235ZM536 1393L927 1708L950 1693L978 1674Q992 1664 1005 1654T1024 1637V1590L569 1346Q555 1355 550 1364T536 1393Z" />
<glyph unicode="&#xde;" glyph-name="Thorn" horiz-adv-x="965" d="M4 0L10 43Q73 57 110 73T150 104L295 1155Q297 1167 266 1185T172 1217L178 1260H610L604 1217Q557 1208 526 1200T475 1185T448 1170T438 1155L418 1009Q482 1020 557 1020Q646 1020 717 997T837
930T912 826T938 690Q938 603 905 526T815 390T679 298T512 264Q470 264 435 272T371 297L360 371Q396 352 430 347T496 342Q564 342 619 366T714 431T775 529T797 651Q797 720 774 773T711 863T615 919T496 938Q473 938 451 936T407 928L295 104Q293 98 299 91T322
76T368 60T442 43L436 0H4Z" />
<glyph unicode="&#xdf;" glyph-name="germandbls" horiz-adv-x="999" d="M-150 -422Q-100 -394 -59 -334T12 -196T63 -30Q82 53 92 139L180 899Q190 981 210 1056T263 1197T342 1321T453 1425Q480 1447 508 1464T565 1493T620 1511T670 1518Q734 1518 784 1492T869
1424T922 1330T940 1225Q940 1136 914 1078T849 980T763 914T678 862T612 807T586 731Q586 695 611 667T673 613T755 560T836 498T899 418T924 311T901 187T833 74T723 -9T573 -41Q531 -41 490 -27T416 9T363 56T342 104Q342 114 353 134T381 173T414 208T442 223Q448
223 454 210L470 180Q479 162 491 140T521 100T563 70T621 57Q701 57 744 102T788 233Q788 294 764 335T702 406T622 462T541 515T480 579T455 668Q455 727 470 768T509 838T564 889T627 928L690 966Q721 985 745 1010T784 1069T799 1153Q799 1198 788 1241T754
1319T693 1375T604 1397Q548 1397 503 1359T423 1258T366 1115Q344 1039 334 952L246 193Q233 82 202 -20T123 -211T13 -370T-123 -485L-150 -422Z" />
<glyph unicode="&#xe0;" glyph-name="agrave" horiz-adv-x="922" d="M53 305Q53 384 71 459T127 604T217 733T342 842Q369 860 401 877T468 907T537 928T602 936Q623 936 643 931T682 916T718 896L750 876Q773 893 799 908T852 936L872 901Q855 887 844 876T825
851T810 815Q804 795 797 760Q781 685 768 612Q755 537 746 470T731 352T725 279Q725 222 728 183T738 121T753 87T774 76Q794 76 821 81T889 104L901 68Q814 11 761 -15T678 -41Q660 -41 644 -29T614 18T594 114T586 272Q560 226 523 172T442 70T354 -9T266 -41Q233
-41 196 -22T127 38T74 145T53 305ZM190 379Q190 314 201 262T231 173T276 116T332 96Q356 96 390 126T462 205T537 313T603 431Q610 476 618 524L636 618L650 700L661 760Q646 772 628 784T590 807T547 824T500 831Q454 831 414 809T339 749T277 665T230 567T201
467T190 379ZM308 1412L340 1448Q352 1450 370 1452T409 1455T449 1458T481 1459L620 1047Q600 1035 588 1031T558 1026L308 1412Z" />
<glyph unicode="&#xe1;" glyph-name="aacute" horiz-adv-x="922" d="M53 305Q53 384 71 459T127 604T217 733T342 842Q369 860 401 877T468 907T537 928T602 936Q623 936 643 931T682 916T718 896L750 876Q773 893 799 908T852 936L872 901Q855 887 844 876T825
851T810 815Q804 795 797 760Q781 685 768 612Q755 537 746 470T731 352T725 279Q725 222 728 183T738 121T753 87T774 76Q794 76 821 81T889 104L901 68Q814 11 761 -15T678 -41Q660 -41 644 -29T614 18T594 114T586 272Q560 226 523 172T442 70T354 -9T266 -41Q233
-41 196 -22T127 38T74 145T53 305ZM190 379Q190 314 201 262T231 173T276 116T332 96Q356 96 390 126T462 205T537 313T603 431Q610 476 618 524L636 618L650 700L661 760Q646 772 628 784T590 807T547 824T500 831Q454 831 414 809T339 749T277 665T230 567T201
467T190 379ZM495 1061L767 1459L792 1452Q808 1447 825 1442T857 1430T880 1419L895 1374L540 1026Q524 1030 517 1037T495 1061Z" />
<glyph unicode="&#xe2;" glyph-name="acircumflex" horiz-adv-x="922" d="M53 305Q53 384 71 459T127 604T217 733T342 842Q369 860 401 877T468 907T537 928T602 936Q623 936 643 931T682 916T718 896L750 876Q773 893 799 908T852 936L872 901Q855 887 844 876T825
851T810 815Q804 795 797 760Q781 685 768 612Q755 537 746 470T731 352T725 279Q725 222 728 183T738 121T753 87T774 76Q794 76 821 81T889 104L901 68Q814 11 761 -15T678 -41Q660 -41 644 -29T614 18T594 114T586 272Q560 226 523 172T442 70T354 -9T266 -41Q233
-41 196 -22T127 38T74 145T53 305ZM190 379Q190 314 201 262T231 173T276 116T332 96Q356 96 390 126T462 205T537 313T603 431Q610 476 618 524L636 618L650 700L661 760Q646 772 628 784T590 807T547 824T500 831Q454 831 414 809T339 749T277 665T230 567T201
467T190 379ZM282 1071L566 1442H658L841 1071Q827 1051 820 1042T796 1026L588 1291L315 1026Q306 1032 299 1041T282 1071Z" />
<glyph unicode="&#xe3;" glyph-name="atilde" horiz-adv-x="922" d="M53 305Q53 384 71 459T127 604T217 733T342 842Q369 860 401 877T468 907T537 928T602 936Q623 936 643 931T682 916T718 896L750 876Q773 893 799 908T852 936L872 901Q855 887 844 876T825
851T810 815Q804 795 797 760Q781 685 768 612Q755 537 746 470T731 352T725 279Q725 222 728 183T738 121T753 87T774 76Q794 76 821 81T889 104L901 68Q814 11 761 -15T678 -41Q660 -41 644 -29T614 18T594 114T586 272Q560 226 523 172T442 70T354 -9T266 -41Q233
-41 196 -22T127 38T74 145T53 305ZM190 379Q190 314 201 262T231 173T276 116T332 96Q356 96 390 126T462 205T537 313T603 431Q610 476 618 524L636 618L650 700L661 760Q646 772 628 784T590 807T547 824T500 831Q454 831 414 809T339 749T277 665T230 567T201
467T190 379ZM260 1115Q281 1155 307 1194T365 1265T433 1316T507 1336Q540 1336 567 1319T619 1282L664 1244Q685 1227 706 1227Q741 1227 779 1258T856 1346L901 1326Q880 1286 854 1246T796 1175T730 1124T655 1104Q623 1104 598 1121T549 1158T502 1196T452
1213Q417 1213 381 1182T303 1094L260 1115Z" />
<glyph unicode="&#xe4;" glyph-name="adieresis" horiz-adv-x="922" d="M53 305Q53 384 71 459T127 604T217 733T342 842Q369 860 401 877T468 907T537 928T602 936Q623 936 643 931T682 916T718 896L750 876Q773 893 799 908T852 936L872 901Q855 887 844 876T825
851T810 815Q804 795 797 760Q781 685 768 612Q755 537 746 470T731 352T725 279Q725 222 728 183T738 121T753 87T774 76Q794 76 821 81T889 104L901 68Q814 11 761 -15T678 -41Q660 -41 644 -29T614 18T594 114T586 272Q560 226 523 172T442 70T354 -9T266 -41Q233
-41 196 -22T127 38T74 145T53 305ZM190 379Q190 314 201 262T231 173T276 116T332 96Q356 96 390 126T462 205T537 313T603 431Q610 476 618 524L636 618L650 700L661 760Q646 772 628 784T590 807T547 824T500 831Q454 831 414 809T339 749T277 665T230 567T201
467T190 379ZM297 1176Q297 1203 306 1230T332 1281T372 1318T424 1333Q455 1333 472 1315T490 1262Q490 1234 481 1207T456 1157T417 1120T365 1106Q333 1106 315 1124T297 1176ZM670 1176Q670 1203 679 1230T704 1281T743 1318T795 1333Q826 1333 844 1315T863
1262Q863 1234 854 1207T829 1157T789 1120T736 1106Q705 1106 688 1124T670 1176Z" />
<glyph unicode="&#xe5;" glyph-name="aring" horiz-adv-x="922" d="M53 305Q53 384 71 459T127 604T217 733T342 842Q369 860 401 877T468 907T537 928T602 936Q623 936 643 931T682 916T718 896L750 876Q773 893 799 908T852 936L872 901Q855 887 844 876T825
851T810 815Q804 795 797 760Q781 685 768 612Q755 537 746 470T731 352T725 279Q725 222 728 183T738 121T753 87T774 76Q794 76 821 81T889 104L901 68Q814 11 761 -15T678 -41Q660 -41 644 -29T614 18T594 114T586 272Q560 226 523 172T442 70T354 -9T266 -41Q233
-41 196 -22T127 38T74 145T53 305ZM190 379Q190 314 201 262T231 173T276 116T332 96Q356 96 390 126T462 205T537 313T603 431Q610 476 618 524L636 618L650 700L661 760Q646 772 628 784T590 807T547 824T500 831Q454 831 414 809T339 749T277 665T230 567T201
467T190 379ZM408 1149Q408 1194 425 1240T473 1323T545 1385T633 1409Q686 1409 718 1373T750 1280Q750 1239 733 1195T685 1113T614 1051T527 1026Q501 1026 479 1036T441 1063T417 1102T408 1149ZM492 1192Q492 1155 508 1128T556 1100Q583 1100 603 1113T638
1147T659 1193T666 1243Q666 1278 651 1305T605 1333Q577 1333 556 1320T521 1287T499 1241T492 1192Z" />
<glyph unicode="&#xe6;" glyph-name="ae" horiz-adv-x="1325" d="M53 305Q53 384 70 459T123 604T212 733T338 842Q365 860 396 877T461 907T527 928T592 936Q613 936 633 931T672 916T709 896L743 875Q766 892 791 907T842 936L862 901Q847 889 837 879T819 856T805
828T792 787Q824 818 860 846Q884 864 913 880T974 909T1038 929T1102 936Q1145 936 1176 921T1229 880T1260 824T1270 760Q1270 732 1264 701T1237 637T1180 568T1083 494T935 414T727 327Q733 271 750 225T791 146T842 95T897 76Q918 76 948 80T1017 100T1106
144T1217 221Q1228 215 1235 202T1247 180Q1164 109 1102 66T990 -1T901 -33T825 -41Q793 -41 754 -25T678 29T616 125T585 270Q559 224 521 170T438 69T348 -9T262 -41Q228 -41 191 -22T124 38T73 145T53 305ZM190 379Q190 314 200 262T229 173T272 116T326 96Q350
96 385 128T458 210T533 322T599 443L614 537L628 630L640 708Q646 743 649 760V762Q634 774 616 786T578 808T536 824T489 831Q443 831 404 809T331 749T271 665T227 567T200 467T190 379ZM726 404Q857 455 933 496T1049 575T1099 646T1110 715Q1110 746 1102
768T1081 804T1052 824T1018 831Q1002 831 971 820T911 782Q878 752 847 709T790 616T747 512T726 404Z" />
<glyph unicode="&#xe7;" glyph-name="ccedilla" horiz-adv-x="795" d="M53 322Q53 389 67 460T112 600T194 731T319 842Q347 860 381 877T451 907T523 928T590 936Q634 936 668 919T730 881T777 840T813 815L768 783Q745 766 723 753T682 730T649 721Q638 721
622 738L584 776Q563 797 536 814T477 831Q431 831 393 809T324 750T270 665T231 564T207 458T199 358Q199 293 213 241T254 153T316 96T395 76Q413 76 441 82T505 104T587 149T686 221Q694 210 703 199T717 180Q639 109 577 66T464 -1Q419 -23 381 -31Q377 -50
374 -63Q368 -88 361 -113Q412 -115 444 -143T476 -221Q476 -274 445 -318T365 -386T254 -411T132 -375L130 -336Q182 -360 223 -361T292 -351T334 -315T349 -268Q349 -242 326 -228T256 -215Q270 -178 279 -150T296 -96T308 -47L310 -41H297Q263 -41 221 -24T142
35T79 147T53 322Z" />
<glyph unicode="&#xe8;" glyph-name="egrave" horiz-adv-x="805" d="M63 303Q63 381 82 456T136 601T224 733Q275 794 342 846Q366 864 394 880Q423 897 454 909T518 929T582 936Q625 936 656 921T709 880T740 824T750 760Q750 732 744 701T717 637T660 568T563
494T415 414T207 327Q213 271 230 225T271 146T322 95T377 76Q398 76 428 80T497 100T586 144T696 221Q707 215 715 202T727 180Q645 109 582 66T470 -1T381 -33T305 -41Q272 -41 230 -23T151 36T89 142T63 303ZM206 404Q337 455 413 496T529 575T579 646T590 715Q590
746 582 768T561 804T532 824T498 831Q482 831 451 820T391 782Q358 752 327 709T270 616T227 512T206 404ZM268 1412L300 1448Q312 1450 330 1452T369 1455T409 1458T441 1459L580 1047Q560 1035 548 1031T518 1026L268 1412Z" />
<glyph unicode="&#xe9;" glyph-name="eacute" horiz-adv-x="805" d="M63 303Q63 381 82 456T136 601T224 733Q275 794 342 846Q366 864 394 880Q423 897 454 909T518 929T582 936Q625 936 656 921T709 880T740 824T750 760Q750 732 744 701T717 637T660 568T563
494T415 414T207 327Q213 271 230 225T271 146T322 95T377 76Q398 76 428 80T497 100T586 144T696 221Q707 215 715 202T727 180Q645 109 582 66T470 -1T381 -33T305 -41Q272 -41 230 -23T151 36T89 142T63 303ZM206 404Q337 455 413 496T529 575T579 646T590 715Q590
746 582 768T561 804T532 824T498 831Q482 831 451 820T391 782Q358 752 327 709T270 616T227 512T206 404ZM455 1061L727 1459L752 1452Q768 1447 785 1442T817 1430T840 1419L855 1374L500 1026Q484 1030 477 1037T455 1061Z" />
<glyph unicode="&#xea;" glyph-name="ecircumflex" horiz-adv-x="805" d="M63 303Q63 381 82 456T136 601T224 733Q275 794 342 846Q366 864 394 880Q423 897 454 909T518 929T582 936Q625 936 656 921T709 880T740 824T750 760Q750 732 744 701T717 637T660 568T563
494T415 414T207 327Q213 271 230 225T271 146T322 95T377 76Q398 76 428 80T497 100T586 144T696 221Q707 215 715 202T727 180Q645 109 582 66T470 -1T381 -33T305 -41Q272 -41 230 -23T151 36T89 142T63 303ZM206 404Q337 455 413 496T529 575T579 646T590 715Q590
746 582 768T561 804T532 824T498 831Q482 831 451 820T391 782Q358 752 327 709T270 616T227 512T206 404ZM242 1071L526 1442H618L801 1071Q787 1051 780 1042T756 1026L548 1291L275 1026Q266 1032 259 1041T242 1071Z" />
<glyph unicode="&#xeb;" glyph-name="edieresis" horiz-adv-x="805" d="M63 303Q63 381 82 456T136 601T224 733Q275 794 342 846Q366 864 394 880Q423 897 454 909T518 929T582 936Q625 936 656 921T709 880T740 824T750 760Q750 732 744 701T717 637T660 568T563
494T415 414T207 327Q213 271 230 225T271 146T322 95T377 76Q398 76 428 80T497 100T586 144T696 221Q707 215 715 202T727 180Q645 109 582 66T470 -1T381 -33T305 -41Q272 -41 230 -23T151 36T89 142T63 303ZM206 404Q337 455 413 496T529 575T579 646T590 715Q590
746 582 768T561 804T532 824T498 831Q482 831 451 820T391 782Q358 752 327 709T270 616T227 512T206 404ZM257 1176Q257 1203 266 1230T292 1281T332 1318T384 1333Q415 1333 432 1315T450 1262Q450 1234 441 1207T416 1157T377 1120T325 1106Q293 1106 275 1124T257
1176ZM630 1176Q630 1203 639 1230T664 1281T703 1318T755 1333Q786 1333 804 1315T823 1262Q823 1234 814 1207T789 1157T749 1120T696 1106Q665 1106 648 1124T630 1176Z" />
<glyph unicode="&#xec;" glyph-name="igrave" horiz-adv-x="504" d="M70 840L154 876Q195 894 231 907T294 928T334 936Q362 936 373 917T385 852Q385 823 378 767T358 640L333 494L308 347Q296 277 289 221T281 135Q281 104 287 90T311 76Q342 76 370 84T440
109L455 72L370 23Q333 2 302 -12T246 -34T199 -41Q165 -41 145 -10T125 76Q125 106 132 161T151 284L175 426L199 566Q210 632 217 684T225 760Q225 783 222 796T214 816T201 825T184 827Q176 827 160 824T126 815Q107 810 84 803L70 840ZM115 1412L147 1448Q159
1450 177 1452T216 1455T256 1458T288 1459L427 1047Q407 1035 395 1031T365 1026L115 1412Z" />
<glyph unicode="&#xed;" glyph-name="iacute" horiz-adv-x="504" d="M70 840L154 876Q195 894 231 907T294 928T334 936Q362 936 373 917T385 852Q385 823 378 767T358 640L333 494L308 347Q296 277 289 221T281 135Q281 104 287 90T311 76Q342 76 370 84T440
109L455 72L370 23Q333 2 302 -12T246 -34T199 -41Q165 -41 145 -10T125 76Q125 106 132 161T151 284L175 426L199 566Q210 632 217 684T225 760Q225 783 222 796T214 816T201 825T184 827Q176 827 160 824T126 815Q107 810 84 803L70 840ZM302 1061L574 1459L600
1452Q615 1447 632 1442T664 1430T687 1419L702 1374L347 1026Q331 1030 324 1037T302 1061Z" />
<glyph unicode="&#xee;" glyph-name="icircumflex" horiz-adv-x="504" d="M70 840L154 876Q195 894 231 907T294 928T334 936Q362 936 373 917T385 852Q385 823 378 767T358 640L333 494L308 347Q296 277 289 221T281 135Q281 104 287 90T311 76Q342 76 370 84T440
109L455 72L370 23Q333 2 302 -12T246 -34T199 -41Q165 -41 145 -10T125 76Q125 106 132 161T151 284L175 426L199 566Q210 632 217 684T225 760Q225 783 222 796T214 816T201 825T184 827Q176 827 160 824T126 815Q107 810 84 803L70 840ZM89 1071L373 1442H465L648
1071Q634 1051 627 1042T603 1026L395 1291L122 1026Q113 1032 106 1041T89 1071Z" />
<glyph unicode="&#xef;" glyph-name="idieresis" horiz-adv-x="504" d="M70 840L154 876Q195 894 231 907T294 928T334 936Q362 936 373 917T385 852Q385 823 378 767T358 640L333 494L308 347Q296 277 289 221T281 135Q281 104 287 90T311 76Q342 76 370 84T440
109L455 72L370 23Q333 2 302 -12T246 -34T199 -41Q165 -41 145 -10T125 76Q125 106 132 161T151 284L175 426L199 566Q210 632 217 684T225 760Q225 783 222 796T214 816T201 825T184 827Q176 827 160 824T126 815Q107 810 84 803L70 840ZM104 1176Q104 1203 113
1230T139 1281T179 1318T231 1333Q262 1333 279 1315T297 1262Q297 1234 288 1207T263 1157T224 1120T172 1106Q140 1106 122 1124T104 1176ZM477 1176Q477 1203 486 1230T511 1281T550 1318T602 1333Q633 1333 651 1315T670 1262Q670 1234 661 1207T636 1157T596
1120T543 1106Q512 1106 495 1124T477 1176Z" />
<glyph unicode="&#xf0;" glyph-name="eth" horiz-adv-x="885" d="M53 324Q53 402 69 477T116 621T187 746T279 846T387 912T504 936Q531 936 559 926T613 897T663 855T706 804Q695 904 661 984T572 1136L358 1040Q342 1043 333 1044T317 1048T302 1053L281 1061L276
1096L517 1205Q496 1228 473 1247T422 1279T363 1297T293 1296V1337L481 1409Q526 1372 564 1335T636 1259L834 1348Q854 1344 864 1342T882 1337T894 1332T911 1325L913 1290L690 1189Q771 1075 807 955T844 707Q844 601 825 505T772 326T692 175T593 59T480 -15T362
-41Q288 -41 231 -14T134 62T74 178T53 324ZM193 397Q193 329 209 269T253 165T317 94T395 68Q467 68 520 113T611 229T671 390T703 569Q693 625 669 672T611 753T540 806T463 825Q418 825 381 805T314 752T262 676T224 585T201 489T193 397Z" />
<glyph unicode="&#xf1;" glyph-name="ntilde" horiz-adv-x="1012" d="M47 842L132 877Q174 894 211 907T275 928T315 936Q329 936 337 932T348 915T353 881T354 823Q354 812 353 793T351 753T347 711T344 678Q398 746 453 795T561 875T663 921T758 936Q789 936
813 927T854 898T878 844T887 762Q887 727 881 675T864 563T842 438L820 316Q810 258 804 211T797 135Q797 101 806 89T833 76Q856 76 886 84T958 109L973 72Q882 18 819 -11T717 -41Q682 -41 663 -10T643 76Q643 94 649 140T666 249L688 381L710 514Q720 577 726
627T733 700Q733 776 717 806T657 836Q644 836 612 820T538 772T452 692Q408 644 371 580Q343 532 326 465Q309 401 291 301Q275 210 270 148Q266 84 268 25Q255 18 236 10L196 -8L156 -26Q137 -34 125 -41L92 -10Q106 56 120 133L146 288Q158 365 169 440T188
579T200 691T205 762T203 798T196 818T184 827T168 829T142 825T106 816L61 803L47 842ZM294 1115Q315 1155 341 1194T399 1265T467 1316T541 1336Q574 1336 601 1319T653 1282L698 1244Q719 1227 740 1227Q775 1227 813 1258T890 1346L935 1326Q914 1286 888 1246T830
1175T764 1124T689 1104Q657 1104 632 1121T583 1158T536 1196T486 1213Q451 1213 415 1182T337 1094L294 1115Z" />
<glyph unicode="&#xf2;" glyph-name="ograve" horiz-adv-x="864" d="M53 344Q53 416 65 482T104 611T176 730T287 840Q338 880 399 908T522 936Q600 936 655 908T744 830T795 711T811 559Q811 492 796 424T752 291T681 168T582 63Q556 42 527 23T468 -10T407 -33T346
-41Q276 -41 222 -12T130 69T73 191T53 344ZM197 399Q197 332 213 273T259 169T328 98T414 72T496 92T561 147T610 226T643 319T662 415T668 504Q668 657 612 738T453 819Q381 819 332 778T253 673T210 537T197 399ZM263 1412L295 1448Q307 1450 325 1452T364 1455T404
1458T436 1459L575 1047Q555 1035 543 1031T513 1026L263 1412Z" />
<glyph unicode="&#xf3;" glyph-name="oacute" horiz-adv-x="864" d="M53 344Q53 416 65 482T104 611T176 730T287 840Q338 880 399 908T522 936Q600 936 655 908T744 830T795 711T811 559Q811 492 796 424T752 291T681 168T582 63Q556 42 527 23T468 -10T407 -33T346
-41Q276 -41 222 -12T130 69T73 191T53 344ZM197 399Q197 332 213 273T259 169T328 98T414 72T496 92T561 147T610 226T643 319T662 415T668 504Q668 657 612 738T453 819Q381 819 332 778T253 673T210 537T197 399ZM450 1061L722 1459L748 1452Q763 1447 780 1442T812
1430T835 1419L850 1374L495 1026Q479 1030 472 1037T450 1061Z" />
<glyph unicode="&#xf4;" glyph-name="ocircumflex" horiz-adv-x="864" d="M53 344Q53 416 65 482T104 611T176 730T287 840Q338 880 399 908T522 936Q600 936 655 908T744 830T795 711T811 559Q811 492 796 424T752 291T681 168T582 63Q556 42 527 23T468 -10T407
-33T346 -41Q276 -41 222 -12T130 69T73 191T53 344ZM197 399Q197 332 213 273T259 169T328 98T414 72T496 92T561 147T610 226T643 319T662 415T668 504Q668 657 612 738T453 819Q381 819 332 778T253 673T210 537T197 399ZM237 1071L521 1442H613L796 1071Q782
1051 775 1042T751 1026L543 1291L270 1026Q261 1032 254 1041T237 1071Z" />
<glyph unicode="&#xf5;" glyph-name="otilde" horiz-adv-x="864" d="M53 344Q53 416 65 482T104 611T176 730T287 840Q338 880 399 908T522 936Q600 936 655 908T744 830T795 711T811 559Q811 492 796 424T752 291T681 168T582 63Q556 42 527 23T468 -10T407 -33T346
-41Q276 -41 222 -12T130 69T73 191T53 344ZM197 399Q197 332 213 273T259 169T328 98T414 72T496 92T561 147T610 226T643 319T662 415T668 504Q668 657 612 738T453 819Q381 819 332 778T253 673T210 537T197 399ZM215 1115Q236 1155 262 1194T320 1265T388 1316T462
1336Q495 1336 522 1319T574 1282L619 1244Q640 1227 661 1227Q696 1227 734 1258T811 1346L856 1326Q835 1286 809 1246T751 1175T685 1124T610 1104Q578 1104 553 1121T504 1158T457 1196T407 1213Q372 1213 336 1182T258 1094L215 1115Z" />
<glyph unicode="&#xf6;" glyph-name="odieresis" horiz-adv-x="864" d="M53 344Q53 416 65 482T104 611T176 730T287 840Q338 880 399 908T522 936Q600 936 655 908T744 830T795 711T811 559Q811 492 796 424T752 291T681 168T582 63Q556 42 527 23T468 -10T407
-33T346 -41Q276 -41 222 -12T130 69T73 191T53 344ZM197 399Q197 332 213 273T259 169T328 98T414 72T496 92T561 147T610 226T643 319T662 415T668 504Q668 657 612 738T453 819Q381 819 332 778T253 673T210 537T197 399ZM252 1176Q252 1203 261 1230T287 1281T327
1318T379 1333Q410 1333 427 1315T445 1262Q445 1234 436 1207T411 1157T372 1120T320 1106Q288 1106 270 1124T252 1176ZM625 1176Q625 1203 634 1230T659 1281T698 1318T750 1333Q781 1333 799 1315T818 1262Q818 1234 809 1207T784 1157T744 1120T691 1106Q660
1106 643 1124T625 1176Z" />
<glyph unicode="&#xf7;" glyph-name="divide" horiz-adv-x="770" d="M70 529L89 574Q100 600 111 620H697L715 596Q712 586 707 573L697 548Q692 536 686 524L676 505H89L70 529ZM285 307Q288 329 297 349T320 383T349 406T383 415Q444 415 433 339Q430 317 421
297T399 262T369 239T335 230Q303 230 292 250T285 307ZM352 787Q355 809 364 829T387 863T416 886T450 895Q511 895 500 819Q497 797 488 777Q478 757 465 742T435 719T401 710Q369 710 358 730T352 787Z" />
<glyph unicode="&#xf8;" glyph-name="oslash" horiz-adv-x="864" d="M-14 -31L103 113Q78 161 66 219T53 344Q53 416 65 482T104 611T176 730T287 840Q338 880 399 908T522 936Q585 936 633 918T715 865L735 889Q763 906 794 928T854 958L877 926L767 791Q790
744 800 686T811 559Q811 492 796 424T752 291T681 168T582 63Q556 42 527 23T468 -10T407 -33T346 -41Q286 -41 238 -19T154 41L127 8Q118 0 102 -10T69 -31T35 -49T6 -61L-14 -31ZM197 399Q197 360 202 324T219 255L612 737Q556 819 453 819Q381 819 332 778T253
673T210 537T197 399ZM259 169Q288 124 327 98T414 72Q460 72 496 92T561 147T610 226T643 319T662 415T668 504Q668 584 651 649L259 169Z" />
<glyph unicode="&#xf9;" glyph-name="ugrave" horiz-adv-x="1022" d="M39 840L124 876Q166 894 202 907T265 928T305 936Q334 936 344 917T354 852Q354 823 348 776T333 673L314 557L295 441Q286 385 280 338T274 262Q274 166 294 123T352 80Q372 80 405 99T480
162T571 276T674 447L688 534L703 618Q710 658 714 694T719 760Q719 783 717 796T709 816T698 825T682 827T658 824T626 815Q608 810 588 803L573 840L656 876Q697 894 731 907T792 928T831 936Q859 936 868 917T877 852Q877 823 871 777T856 675T836 559T816 442T801
336T795 254Q795 163 808 120T846 76Q872 76 898 82T961 104L975 68Q894 14 838 -13T743 -41Q724 -41 706 -24T674 34T655 138T656 297Q615 223 570 161T475 54T374 -16T268 -41Q248 -41 223 -26T175 21T137 98T121 205Q121 235 126 281T140 380T158 490T176 599T189
693T195 760Q195 783 192 796T184 816T171 825T154 827T128 824T94 815Q74 810 51 803L39 840ZM339 1412L371 1448Q383 1450 401 1452T440 1455T480 1458T512 1459L651 1047Q631 1035 619 1031T589 1026L339 1412Z" />
<glyph unicode="&#xfa;" glyph-name="uacute" horiz-adv-x="1022" d="M39 840L124 876Q166 894 202 907T265 928T305 936Q334 936 344 917T354 852Q354 823 348 776T333 673L314 557L295 441Q286 385 280 338T274 262Q274 166 294 123T352 80Q372 80 405 99T480
162T571 276T674 447L688 534L703 618Q710 658 714 694T719 760Q719 783 717 796T709 816T698 825T682 827T658 824T626 815Q608 810 588 803L573 840L656 876Q697 894 731 907T792 928T831 936Q859 936 868 917T877 852Q877 823 871 777T856 675T836 559T816 442T801
336T795 254Q795 163 808 120T846 76Q872 76 898 82T961 104L975 68Q894 14 838 -13T743 -41Q724 -41 706 -24T674 34T655 138T656 297Q615 223 570 161T475 54T374 -16T268 -41Q248 -41 223 -26T175 21T137 98T121 205Q121 235 126 281T140 380T158 490T176 599T189
693T195 760Q195 783 192 796T184 816T171 825T154 827T128 824T94 815Q74 810 51 803L39 840ZM526 1061L798 1459L824 1452Q839 1447 856 1442T888 1430T911 1419L926 1374L571 1026Q555 1030 548 1037T526 1061Z" />
<glyph unicode="&#xfb;" glyph-name="ucircumflex" horiz-adv-x="1022" d="M39 840L124 876Q166 894 202 907T265 928T305 936Q334 936 344 917T354 852Q354 823 348 776T333 673L314 557L295 441Q286 385 280 338T274 262Q274 166 294 123T352 80Q372 80 405
99T480 162T571 276T674 447L688 534L703 618Q710 658 714 694T719 760Q719 783 717 796T709 816T698 825T682 827T658 824T626 815Q608 810 588 803L573 840L656 876Q697 894 731 907T792 928T831 936Q859 936 868 917T877 852Q877 823 871 777T856 675T836 559T816
442T801 336T795 254Q795 163 808 120T846 76Q872 76 898 82T961 104L975 68Q894 14 838 -13T743 -41Q724 -41 706 -24T674 34T655 138T656 297Q615 223 570 161T475 54T374 -16T268 -41Q248 -41 223 -26T175 21T137 98T121 205Q121 235 126 281T140 380T158 490T176
599T189 693T195 760Q195 783 192 796T184 816T171 825T154 827T128 824T94 815Q74 810 51 803L39 840ZM313 1071L597 1442H689L872 1071Q858 1051 851 1042T827 1026L619 1291L346 1026Q337 1032 330 1041T313 1071Z" />
<glyph unicode="&#xfc;" glyph-name="udieresis" horiz-adv-x="1022" d="M39 840L124 876Q166 894 202 907T265 928T305 936Q334 936 344 917T354 852Q354 823 348 776T333 673L314 557L295 441Q286 385 280 338T274 262Q274 166 294 123T352 80Q372 80 405 99T480
162T571 276T674 447L688 534L703 618Q710 658 714 694T719 760Q719 783 717 796T709 816T698 825T682 827T658 824T626 815Q608 810 588 803L573 840L656 876Q697 894 731 907T792 928T831 936Q859 936 868 917T877 852Q877 823 871 777T856 675T836 559T816 442T801
336T795 254Q795 163 808 120T846 76Q872 76 898 82T961 104L975 68Q894 14 838 -13T743 -41Q724 -41 706 -24T674 34T655 138T656 297Q615 223 570 161T475 54T374 -16T268 -41Q248 -41 223 -26T175 21T137 98T121 205Q121 235 126 281T140 380T158 490T176 599T189
693T195 760Q195 783 192 796T184 816T171 825T154 827T128 824T94 815Q74 810 51 803L39 840ZM328 1176Q328 1203 337 1230T363 1281T403 1318T455 1333Q486 1333 503 1315T521 1262Q521 1234 512 1207T487 1157T448 1120T396 1106Q364 1106 346 1124T328 1176ZM701
1176Q701 1203 710 1230T735 1281T774 1318T826 1333Q857 1333 875 1315T894 1262Q894 1234 885 1207T860 1157T820 1120T767 1106Q736 1106 719 1124T701 1176Z" />
<glyph unicode="&#xfd;" glyph-name="yacute" horiz-adv-x="926" d="M-181 -449Q-181 -437 -172 -416T-148 -371T-118 -328T-87 -301Q-63 -317 -45 -326T-10 -339T22 -343T56 -344Q137 -344 214 -266T376 -44Q366 14 352 87T320 237L283 392Q264 469 245 537T209
659T176 745Q153 796 137 811T104 827Q95 827 79 824T46 815Q27 810 6 803L-6 840L74 876L142 907Q173 920 196 928T231 936Q245 936 255 929T276 907T295 868T317 809Q336 755 358 682T404 523T449 347T489 165L554 294L616 423L672 546Q697 604 716 653T747 737T758
791Q758 841 705 844Q673 847 614 821L596 858Q668 900 722 918T811 936Q828 936 843 934T869 923T886 900T893 860Q893 826 875 773T815 630T706 407L541 82Q474 -49 408 -156T271 -339T125 -458T-36 -500Q-66 -500 -92 -495T-138 -483T-169 -466T-181 -449ZM510
1061L782 1459L808 1452Q823 1447 840 1442T872 1430T895 1419L910 1374L555 1026Q539 1030 532 1037T510 1061Z" />
<glyph unicode="&#xfe;" glyph-name="thorn" horiz-adv-x="965" d="M-3 -471L32 -264L74 -12L120 264L165 546L206 814Q226 944 240 1050T263 1234T272 1346Q272 1369 268 1382T257 1402T240 1411T219 1413Q210 1413 194 1408L160 1399L119 1386L106 1425Q148
1444 192 1461T274 1491T341 1512T383 1520Q415 1520 423 1499T432 1427Q432 1406 425 1343T404 1181L372 948Q352 815 326 653Q390 749 444 805T545 890T629 927T696 936Q735 936 769 916T829 857T870 760T885 627Q885 527 857 415T766 188Q743 148 712 108T643
34T562 -20T471 -41Q439 -41 409 -23T351 25T297 93T247 172Q239 131 233 90T218 6Q183 -200 176 -309T179 -447Q164 -451 144 -458L102 -472Q81 -479 62 -486T29 -500L-3 -471ZM270 307Q285 276 312 238T375 166T449 109T528 86Q556 86 580 96T623 125T658 168T686
219Q704 258 715 300T731 384T737 464T739 532Q739 602 728 653T699 738T657 788T610 805Q584 805 545 782T461 715T374 611T298 476L270 307Z" />
<glyph unicode="&#xff;" glyph-name="ydieresis" horiz-adv-x="926" d="M-181 -449Q-181 -437 -172 -416T-148 -371T-118 -328T-87 -301Q-63 -317 -45 -326T-10 -339T22 -343T56 -344Q137 -344 214 -266T376 -44Q366 14 352 87T320 237L283 392Q264 469 245 537T209
659T176 745Q153 796 137 811T104 827Q95 827 79 824T46 815Q27 810 6 803L-6 840L74 876L142 907Q173 920 196 928T231 936Q245 936 255 929T276 907T295 868T317 809Q336 755 358 682T404 523T449 347T489 165L554 294L616 423L672 546Q697 604 716 653T747 737T758
791Q758 841 705 844Q673 847 614 821L596 858Q668 900 722 918T811 936Q828 936 843 934T869 923T886 900T893 860Q893 826 875 773T815 630T706 407L541 82Q474 -49 408 -156T271 -339T125 -458T-36 -500Q-66 -500 -92 -495T-138 -483T-169 -466T-181 -449ZM312
1176Q312 1203 321 1230T347 1281T387 1318T439 1333Q470 1333 487 1315T505 1262Q505 1234 496 1207T471 1157T432 1120T380 1106Q348 1106 330 1124T312 1176ZM685 1176Q685 1203 694 1230T719 1281T758 1318T810 1333Q841 1333 859 1315T878 1262Q878 1234 869
1207T844 1157T804 1120T751 1106Q720 1106 703 1124T685 1176Z" />
<glyph unicode="&#x100;" glyph-name="Amacron" horiz-adv-x="1147" d="M-35 0L-29 43Q34 55 72 68T123 111L610 1229Q623 1241 641 1253T678 1278L714 1300Q732 1310 745 1317L961 111Q963 97 968 87T986 68T1018 53T1071 43L1067 0H682L686 43Q757 48 788 63T813
111L755 444H371L228 111Q214 80 243 67T350 43L344 0H-35ZM410 535H739L645 1079L410 535ZM423 1468Q427 1478 433 1492L446 1519Q452 1533 459 1546T472 1570H1019L1038 1545Q1035 1534 1029 1520T1014 1492L1000 1465Q993 1452 988 1444H439L423 1468Z" />
<glyph unicode="&#x101;" glyph-name="amacron" horiz-adv-x="922" d="M53 305Q53 384 71 459T127 604T217 733T342 842Q369 860 401 877T468 907T537 928T602 936Q623 936 643 931T682 916T718 896L750 876Q773 893 799 908T852 936L872 901Q855 887 844 876T825
851T810 815Q804 795 797 760Q781 685 768 612Q755 537 746 470T731 352T725 279Q725 222 728 183T738 121T753 87T774 76Q794 76 821 81T889 104L901 68Q814 11 761 -15T678 -41Q660 -41 644 -29T614 18T594 114T586 272Q560 226 523 172T442 70T354 -9T266 -41Q233
-41 196 -22T127 38T74 145T53 305ZM190 379Q190 314 201 262T231 173T276 116T332 96Q356 96 390 126T462 205T537 313T603 431Q610 476 618 524L636 618L650 700L661 760Q646 772 628 784T590 807T547 824T500 831Q454 831 414 809T339 749T277 665T230 567T201
467T190 379ZM282 1181Q286 1191 292 1204L304 1232Q311 1246 318 1259T331 1283H878L897 1258Q894 1247 888 1233T874 1205L859 1178Q852 1165 847 1157H298L282 1181Z" />
<glyph unicode="&#x102;" glyph-name="Abreve" horiz-adv-x="1147" d="M-35 0L-29 43Q34 55 72 68T123 111L610 1229Q623 1241 641 1253T678 1278L714 1300Q732 1310 745 1317L961 111Q963 97 968 87T986 68T1018 53T1071 43L1067 0H682L686 43Q757 48 788 63T813
111L755 444H371L228 111Q214 80 243 67T350 43L344 0H-35ZM410 535H739L645 1079L410 535ZM452 1655Q466 1672 479 1681T507 1698Q521 1643 544 1605T596 1544T656 1510T716 1499Q747 1499 783 1509T854 1543T924 1605T987 1698Q1001 1690 1010 1682T1030 1655Q993
1574 953 1520T870 1432T786 1385T704 1370Q660 1370 622 1384T551 1432T494 1520T452 1655Z" />
<glyph unicode="&#x103;" glyph-name="abreve" horiz-adv-x="922" d="M53 305Q53 384 71 459T127 604T217 733T342 842Q369 860 401 877T468 907T537 928T602 936Q623 936 643 931T682 916T718 896L750 876Q773 893 799 908T852 936L872 901Q855 887 844 876T825
851T810 815Q804 795 797 760Q781 685 768 612Q755 537 746 470T731 352T725 279Q725 222 728 183T738 121T753 87T774 76Q794 76 821 81T889 104L901 68Q814 11 761 -15T678 -41Q660 -41 644 -29T614 18T594 114T586 272Q560 226 523 172T442 70T354 -9T266 -41Q233
-41 196 -22T127 38T74 145T53 305ZM190 379Q190 314 201 262T231 173T276 116T332 96Q356 96 390 126T462 205T537 313T603 431Q610 476 618 524L636 618L650 700L661 760Q646 772 628 784T590 807T547 824T500 831Q454 831 414 809T339 749T277 665T230 567T201
467T190 379ZM306 1335Q320 1352 333 1361T361 1378Q375 1323 398 1285T450 1224T510 1190T570 1179Q601 1179 637 1189T708 1223T778 1285T841 1378Q855 1370 864 1362T884 1335Q847 1254 807 1200T724 1112T640 1065T558 1050Q514 1050 476 1064T405 1112T348
1200T306 1335Z" />
<glyph unicode="&#x106;" glyph-name="Cacute" horiz-adv-x="995" d="M76 459Q76 553 94 650T152 840T252 1016T397 1167Q470 1224 554 1257T733 1290Q832 1290 902 1261T1016 1190Q1020 1185 1009 1168T981 1130T944 1089T911 1057L881 1065Q840 1110 782 1139T641
1169Q601 1169 551 1150T461 1100Q398 1051 354 977T281 822T240 660T227 516Q227 407 256 328T332 197T434 121T543 96Q599 96 677 131T868 256Q873 254 877 248L885 234Q889 227 892 221T897 211Q829 143 770 97T656 24T553 -15T457 -27Q382 -27 313 5T192 100T108
252T76 459ZM535 1393L926 1708L949 1693L976 1674Q991 1664 1004 1654T1023 1637V1590L568 1346Q554 1355 549 1364T535 1393Z" />
<glyph unicode="&#x107;" glyph-name="cacute" horiz-adv-x="795" d="M53 322Q53 389 67 460T112 600T194 731T319 842Q347 860 381 877T451 907T523 928T590 936Q634 936 668 919T730 881T777 840T813 815L768 783Q745 766 723 753T682 730T649 721Q638 721 622
738L584 776Q563 797 536 814T477 831Q431 831 393 809T324 750T270 665T231 564T207 458T199 358Q199 293 213 241T254 153T316 96T395 76Q413 76 441 82T505 104T587 149T686 221Q694 210 703 199T717 180Q639 109 577 66T465 -1T374 -33T297 -41Q263 -41 221
-24T142 35T79 147T53 322ZM475 1061L747 1459L772 1452Q788 1447 805 1442T837 1430T860 1419L875 1374L520 1026Q504 1030 497 1037T475 1061Z" />
<glyph unicode="&#x108;" glyph-name="Ccircumflex" horiz-adv-x="995" d="M76 459Q76 553 94 650T152 840T252 1016T397 1167Q470 1224 554 1257T733 1290Q832 1290 902 1261T1016 1190Q1020 1185 1009 1168T981 1130T944 1089T911 1057L881 1065Q840 1110 782
1139T641 1169Q601 1169 551 1150T461 1100Q398 1051 354 977T281 822T240 660T227 516Q227 407 256 328T332 197T434 121T543 96Q599 96 677 131T868 256Q873 254 877 248L885 234Q889 227 892 221T897 211Q829 143 770 97T656 24T553 -15T457 -27Q382 -27 313
5T192 100T108 252T76 459ZM415 1391L690 1692H782L974 1391Q960 1371 953 1362T929 1346L714 1551L448 1346Q439 1352 432 1361T415 1391Z" />
<glyph unicode="&#x109;" glyph-name="ccircumflex" horiz-adv-x="795" d="M53 322Q53 389 67 460T112 600T194 731T319 842Q347 860 381 877T451 907T523 928T590 936Q634 936 668 919T730 881T777 840T813 815L768 783Q745 766 723 753T682 730T649 721Q638
721 622 738L584 776Q563 797 536 814T477 831Q431 831 393 809T324 750T270 665T231 564T207 458T199 358Q199 293 213 241T254 153T316 96T395 76Q413 76 441 82T505 104T587 149T686 221Q694 210 703 199T717 180Q639 109 577 66T465 -1T374 -33T297 -41Q263
-41 221 -24T142 35T79 147T53 322ZM262 1071L546 1442H638L821 1071Q807 1051 800 1042T776 1026L568 1291L295 1026Q286 1032 279 1041T262 1071Z" />
<glyph unicode="&#x10a;" glyph-name="Cdotaccent" horiz-adv-x="995" d="M76 459Q76 553 94 650T152 840T252 1016T397 1167Q470 1224 554 1257T733 1290Q832 1290 902 1261T1016 1190Q1020 1185 1009 1168T981 1130T944 1089T911 1057L881 1065Q840 1110 782
1139T641 1169Q601 1169 551 1150T461 1100Q398 1051 354 977T281 822T240 660T227 516Q227 407 256 328T332 197T434 121T543 96Q599 96 677 131T868 256Q873 254 877 248L885 234Q889 227 892 221T897 211Q829 143 770 97T656 24T553 -15T457 -27Q382 -27 313
5T192 100T108 252T76 459ZM617 1463Q617 1490 626 1517T651 1568T689 1605T740 1620Q771 1620 788 1602T805 1549Q805 1521 797 1494T772 1444T733 1407T682 1393Q651 1393 634 1411T617 1463Z" />
<glyph unicode="&#x10b;" glyph-name="cdotaccent" horiz-adv-x="795" d="M53 322Q53 389 67 460T112 600T194 731T319 842Q347 860 381 877T451 907T523 928T590 936Q634 936 668 919T730 881T777 840T813 815L768 783Q745 766 723 753T682 730T649 721Q638 721
622 738L584 776Q563 797 536 814T477 831Q431 831 393 809T324 750T270 665T231 564T207 458T199 358Q199 293 213 241T254 153T316 96T395 76Q413 76 441 82T505 104T587 149T686 221Q694 210 703 199T717 180Q639 109 577 66T465 -1T374 -33T297 -41Q263 -41
221 -24T142 35T79 147T53 322ZM466 1176Q466 1203 475 1230T500 1281T538 1318T589 1333Q620 1333 637 1315T654 1262Q654 1234 646 1207T621 1157T582 1120T531 1106Q500 1106 483 1124T466 1176Z" />
<glyph unicode="&#x10c;" glyph-name="Ccaron" horiz-adv-x="995" d="M76 459Q76 553 94 650T152 840T252 1016T397 1167Q470 1224 554 1257T733 1290Q832 1290 902 1261T1016 1190Q1020 1185 1009 1168T981 1130T944 1089T911 1057L881 1065Q840 1110 782 1139T641
1169Q601 1169 551 1150T461 1100Q398 1051 354 977T281 822T240 660T227 516Q227 407 256 328T332 197T434 121T543 96Q599 96 677 131T868 256Q873 254 877 248L885 234Q889 227 892 221T897 211Q829 143 770 97T656 24T553 -15T457 -27Q382 -27 313 5T192 100T108
252T76 459ZM454 1671Q468 1690 476 1697T499 1716L714 1512L981 1716Q993 1705 998 1698T1013 1671L739 1370H647L454 1671Z" />
<glyph unicode="&#x10d;" glyph-name="ccaron" horiz-adv-x="795" d="M53 322Q53 389 67 460T112 600T194 731T319 842Q347 860 381 877T451 907T523 928T590 936Q634 936 668 919T730 881T777 840T813 815L768 783Q745 766 723 753T682 730T649 721Q638 721 622
738L584 776Q563 797 536 814T477 831Q431 831 393 809T324 750T270 665T231 564T207 458T199 358Q199 293 213 241T254 153T316 96T395 76Q413 76 441 82T505 104T587 149T686 221Q694 210 703 199T717 180Q639 109 577 66T465 -1T374 -33T297 -41Q263 -41 221
-24T142 35T79 147T53 322ZM306 1401Q320 1420 328 1427T351 1446L560 1202L833 1446Q845 1435 850 1428T865 1401L585 1050H493L306 1401Z" />
<glyph unicode="&#x10e;" glyph-name="Dcaron" horiz-adv-x="1118" d="M0 0L6 43Q69 57 107 73T147 104L296 1193L143 1176V1239Q258 1267 370 1278T586 1290Q703 1290 794 1251T948 1141T1044 970T1077 745Q1077 657 1060 568T1009 396T925 241T809 115T660 31T481
0H0ZM299 139Q297 124 303 114T326 97T374 87T455 84Q529 84 591 112T705 188T795 300T861 435T901 582T915 727Q915 834 888 922T809 1073T681 1171T504 1206H474Q459 1206 444 1205L299 139ZM427 1671Q441 1690 449 1697T472 1716L687 1512L954 1716Q966 1705
971 1698T986 1671L712 1370H620L427 1671Z" />
<glyph unicode="&#x110;" glyph-name="Dcroat" horiz-adv-x="1118" d="M0 0L6 43Q69 57 107 73T147 104L217 614H88L72 639L85 671Q92 689 100 705H229L296 1193L143 1176V1239Q258 1267 370 1278T586 1290Q703 1290 794 1251T948 1141T1044 970T1077 745Q1077
657 1060 568T1009 396T925 241T809 115T660 31T481 0H0ZM299 139Q297 124 303 114T326 97T374 87T455 84Q529 84 591 112T705 188T795 300T861 435T901 582T915 727Q915 834 888 922T809 1073T681 1171T504 1206H474Q459 1206 444 1205L376 705H608L627 682L598
614H363L299 139Z" />
<glyph unicode="&#x111;" glyph-name="" horiz-adv-x="969" d="M53 315Q53 394 70 468T121 610T208 736T332 842Q360 860 392 876T459 905T527 926T592 934Q617 934 642 918T694 882L713 1000L730 1112H457L438 1137Q444 1152 452 1170T469 1202H742Q747 1247
750 1284T754 1346Q754 1369 751 1382T741 1402T726 1411T709 1413T682 1408L647 1399L602 1386L590 1425Q632 1444 674 1461T753 1491T818 1512T858 1520Q886 1520 899 1502T913 1438Q913 1400 906 1339T888 1202H1028L1047 1180L1016 1112H874L848 956L820 795L794
639Q781 563 772 498T756 381T750 299Q750 183 761 131T795 78Q821 78 848 83T911 104L924 68Q839 11 785 -15T696 -41Q677 -41 661 -26T634 27T615 127T608 281Q574 218 535 160T452 57T364 -14T276 -41Q242 -41 203 -21T131 43T75 154T53 315ZM190 379Q190 314
203 262T239 173T289 116T346 96Q373 96 406 121T474 190T547 295T621 424L642 560L668 722L632 760Q612 779 590 795T542 821T489 831Q443 831 404 809T331 749T271 665T227 567T200 467T190 379Z" />
<glyph unicode="&#x112;" glyph-name="Emacron" horiz-adv-x="946" d="M0 0L6 43Q69 57 107 73T147 104L293 1155Q295 1167 264 1185T168 1217L174 1260H911L936 1235Q931 1209 924 1178T907 1116T887 1057T868 1010H825Q830 1056 829 1086T821 1135T802 1161T772
1169H437L378 735H752L772 707Q762 693 750 678T724 649T697 622L674 600Q658 617 640 627T596 644T531 652T436 655H367L299 154Q297 139 302 128T326 108T381 95T477 90H598Q640 90 669 95T721 117T767 169T817 262L856 244Q836 157 816 93T784 0H0ZM318 1468Q322
1478 328 1492L340 1519Q347 1533 354 1546T367 1570H914L933 1545Q930 1534 924 1520T910 1492L895 1465Q888 1452 883 1444H334L318 1468Z" />
<glyph unicode="&#x113;" glyph-name="emacron" horiz-adv-x="805" d="M63 303Q63 381 82 456T136 601T224 733Q275 794 342 846Q366 864 394 880Q423 897 454 909T518 929T582 936Q625 936 656 921T709 880T740 824T750 760Q750 732 744 701T717 637T660 568T563
494T415 414T207 327Q213 271 230 225T271 146T322 95T377 76Q398 76 428 80T497 100T586 144T696 221Q707 215 715 202T727 180Q645 109 582 66T470 -1T381 -33T305 -41Q272 -41 230 -23T151 36T89 142T63 303ZM206 404Q337 455 413 496T529 575T579 646T590 715Q590
746 582 768T561 804T532 824T498 831Q482 831 451 820T391 782Q358 752 327 709T270 616T227 512T206 404ZM242 1181Q246 1191 252 1204L264 1232Q271 1246 278 1259T291 1283H838L857 1258Q854 1247 848 1233T834 1205L819 1178Q812 1165 807 1157H258L242 1181Z"
/>
<glyph unicode="&#x114;" glyph-name="Ebreve" horiz-adv-x="946" d="M0 0L6 43Q69 57 107 73T147 104L293 1155Q295 1167 264 1185T168 1217L174 1260H911L936 1235Q931 1209 924 1178T907 1116T887 1057T868 1010H825Q830 1056 829 1086T821 1135T802 1161T772
1169H437L378 735H752L772 707Q762 693 750 678T724 649T697 622L674 600Q658 617 640 627T596 644T531 652T436 655H367L299 154Q297 139 302 128T326 108T381 95T477 90H598Q640 90 669 95T721 117T767 169T817 262L856 244Q836 157 816 93T784 0H0ZM347 1655Q361
1672 374 1681T402 1698Q416 1643 439 1605T491 1544T551 1510T611 1499Q642 1499 678 1509T749 1543T819 1605T882 1698Q896 1690 905 1682T925 1655Q888 1574 848 1520T765 1432T681 1385T599 1370Q555 1370 517 1384T446 1432T389 1520T347 1655Z" />
<glyph unicode="&#x115;" glyph-name="ebreve" horiz-adv-x="805" d="M63 303Q63 381 82 456T136 601T224 733Q275 794 342 846Q366 864 394 880Q423 897 454 909T518 929T582 936Q625 936 656 921T709 880T740 824T750 760Q750 732 744 701T717 637T660 568T563
494T415 414T207 327Q213 271 230 225T271 146T322 95T377 76Q398 76 428 80T497 100T586 144T696 221Q707 215 715 202T727 180Q645 109 582 66T470 -1T381 -33T305 -41Q272 -41 230 -23T151 36T89 142T63 303ZM206 404Q337 455 413 496T529 575T579 646T590 715Q590
746 582 768T561 804T532 824T498 831Q482 831 451 820T391 782Q358 752 327 709T270 616T227 512T206 404ZM266 1335Q280 1352 293 1361T321 1378Q335 1323 358 1285T410 1224T470 1190T530 1179Q561 1179 597 1189T668 1223T738 1285T801 1378Q815 1370 824 1362T844
1335Q807 1254 767 1200T684 1112T600 1065T518 1050Q474 1050 436 1064T365 1112T308 1200T266 1335Z" />
<glyph unicode="&#x116;" glyph-name="Edotaccent" horiz-adv-x="946" d="M0 0L6 43Q69 57 107 73T147 104L293 1155Q295 1167 264 1185T168 1217L174 1260H911L936 1235Q931 1209 924 1178T907 1116T887 1057T868 1010H825Q830 1056 829 1086T821 1135T802 1161T772
1169H437L378 735H752L772 707Q762 693 750 678T724 649T697 622L674 600Q658 617 640 627T596 644T531 652T436 655H367L299 154Q297 139 302 128T326 108T381 95T477 90H598Q640 90 669 95T721 117T767 169T817 262L856 244Q836 157 816 93T784 0H0ZM522 1463Q522
1490 531 1517T556 1568T594 1605T645 1620Q676 1620 693 1602T710 1549Q710 1521 702 1494T677 1444T638 1407T587 1393Q556 1393 539 1411T522 1463Z" />
<glyph unicode="&#x117;" glyph-name="edotaccent" horiz-adv-x="805" d="M63 303Q63 381 82 456T136 601T224 733Q275 794 342 846Q366 864 394 880Q423 897 454 909T518 929T582 936Q625 936 656 921T709 880T740 824T750 760Q750 732 744 701T717 637T660 568T563
494T415 414T207 327Q213 271 230 225T271 146T322 95T377 76Q398 76 428 80T497 100T586 144T696 221Q707 215 715 202T727 180Q645 109 582 66T470 -1T381 -33T305 -41Q272 -41 230 -23T151 36T89 142T63 303ZM206 404Q337 455 413 496T529 575T579 646T590 715Q590
746 582 768T561 804T532 824T498 831Q482 831 451 820T391 782Q358 752 327 709T270 616T227 512T206 404ZM446 1176Q446 1203 455 1230T480 1281T518 1318T569 1333Q600 1333 617 1315T634 1262Q634 1234 626 1207T601 1157T562 1120T511 1106Q480 1106 463 1124T446
1176Z" />
<glyph unicode="&#x11a;" glyph-name="Ecaron" horiz-adv-x="946" d="M0 0L6 43Q69 57 107 73T147 104L293 1155Q295 1167 264 1185T168 1217L174 1260H911L936 1235Q931 1209 924 1178T907 1116T887 1057T868 1010H825Q830 1056 829 1086T821 1135T802 1161T772
1169H437L378 735H752L772 707Q762 693 750 678T724 649T697 622L674 600Q658 617 640 627T596 644T531 652T436 655H367L299 154Q297 139 302 128T326 108T381 95T477 90H598Q640 90 669 95T721 117T767 169T817 262L856 244Q836 157 816 93T784 0H0ZM359 1671Q373
1690 381 1697T404 1716L619 1512L886 1716Q898 1705 903 1698T918 1671L644 1370H552L359 1671Z" />
<glyph unicode="&#x11b;" glyph-name="ecaron" horiz-adv-x="805" d="M63 303Q63 381 82 456T136 601T224 733Q275 794 342 846Q366 864 394 880Q423 897 454 909T518 929T582 936Q625 936 656 921T709 880T740 824T750 760Q750 732 744 701T717 637T660 568T563
494T415 414T207 327Q213 271 230 225T271 146T322 95T377 76Q398 76 428 80T497 100T586 144T696 221Q707 215 715 202T727 180Q645 109 582 66T470 -1T381 -33T305 -41Q272 -41 230 -23T151 36T89 142T63 303ZM206 404Q337 455 413 496T529 575T579 646T590 715Q590
746 582 768T561 804T532 824T498 831Q482 831 451 820T391 782Q358 752 327 709T270 616T227 512T206 404ZM286 1401Q300 1420 308 1427T331 1446L540 1202L813 1446Q825 1435 830 1428T845 1401L565 1050H473L286 1401Z" />
<glyph unicode="&#x11c;" glyph-name="Gcircumflex" horiz-adv-x="1073" d="M76 473Q76 568 98 664T160 849T257 1013T381 1143Q466 1210 570 1250T793 1290Q823 1290 858 1283T928 1263T996 1231T1055 1188Q1061 1183 1050 1166T1021 1129T983 1088T948 1057L920
1063Q894 1094 865 1115T803 1148T731 1166T647 1171Q609 1171 554 1145Q501 1119 446 1075Q395 1033 354 968Q314 902 285 825T241 667T225 516Q225 409 257 331T341 200T455 123T580 98Q634 98 686 114T773 156L813 457Q814 467 809 477T782 497T715 517T596
539L602 582H1063L1057 539Q1003 523 978 502T950 457L940 386L928 298L916 213Q911 173 909 154Q833 93 775 57T670 1T583 -25T502 -31Q419 -31 342 2T206 100T112 259T76 473ZM449 1391L724 1692H816L1008 1391Q994 1371 987 1362T963 1346L748 1551L482 1346Q473
1352 466 1361T449 1391Z" />
<glyph unicode="&#x11d;" glyph-name="gcircumflex" horiz-adv-x="911" d="M-5 -379Q-5 -362 8 -341T38 -301T71 -269T95 -256Q103 -256 112 -266L132 -290Q145 -305 162 -322T205 -354T265 -379T347 -389Q444 -389 501 -302T587 -48Q596 8 601 57T610 153T616
244L620 336Q588 273 546 207T456 85T359 -5T266 -41Q233 -41 196 -22T126 38T72 145T51 305Q51 384 69 459T123 603T215 732T344 842Q372 860 404 877T470 907T537 928T602 936Q624 936 645 930T685 913T722 891L756 869Q779 891 804 907T856 936L879 901Q845
873 826 832T797 719Q783 600 777 502T766 319T754 156Q748 82 734 1Q715 -104 670 -194Q625 -285 563 -353T425 -460T271 -500Q229 -500 181 -488T91 -457T23 -418T-5 -379ZM190 379Q190 314 202 262T234 173T281 116T338 96Q359 96 395 129T472 219T556 349T632
504L640 584Q645 625 653 672Q656 693 661 712T674 748L641 774Q623 788 602 801T555 822T502 831Q456 831 415 809T340 749T278 665T231 567T201 467T190 379ZM247 1071L531 1442H623L806 1071Q792 1051 785 1042T761 1026L553 1291L280 1026Q271 1032 264 1041T247
1071Z" />
<glyph unicode="&#x11e;" glyph-name="Gbreve" horiz-adv-x="1073" d="M76 473Q76 568 98 664T160 849T257 1013T381 1143Q466 1210 570 1250T793 1290Q823 1290 858 1283T928 1263T996 1231T1055 1188Q1061 1183 1050 1166T1021 1129T983 1088T948 1057L920 1063Q894
1094 865 1115T803 1148T731 1166T647 1171Q609 1171 554 1145Q501 1119 446 1075Q395 1033 354 968Q314 902 285 825T241 667T225 516Q225 409 257 331T341 200T455 123T580 98Q634 98 686 114T773 156L813 457Q814 467 809 477T782 497T715 517T596 539L602 582H1063L1057
539Q1003 523 978 502T950 457L940 386L928 298L916 213Q911 173 909 154Q833 93 775 57T670 1T583 -25T502 -31Q419 -31 342 2T206 100T112 259T76 473ZM476 1655Q490 1672 503 1681T531 1698Q545 1643 568 1605T620 1544T680 1510T740 1499Q771 1499 807 1509T878
1543T948 1605T1011 1698Q1025 1690 1034 1682T1054 1655Q1017 1574 977 1520T894 1432T810 1385T728 1370Q684 1370 646 1384T575 1432T518 1520T476 1655Z" />
<glyph unicode="&#x11f;" glyph-name="gbreve" horiz-adv-x="911" d="M-5 -379Q-5 -362 8 -341T38 -301T71 -269T95 -256Q103 -256 112 -266L132 -290Q145 -305 162 -322T205 -354T265 -379T347 -389Q444 -389 501 -302T587 -48Q596 8 601 57T610 153T616 244L620
336Q588 273 546 207T456 85T359 -5T266 -41Q233 -41 196 -22T126 38T72 145T51 305Q51 384 69 459T123 603T215 732T344 842Q372 860 404 877T470 907T537 928T602 936Q624 936 645 930T685 913T722 891L756 869Q779 891 804 907T856 936L879 901Q845 873 826
832T797 719Q783 600 777 502T766 319T754 156Q748 82 734 1Q715 -104 670 -194Q625 -285 563 -353T425 -460T271 -500Q229 -500 181 -488T91 -457T23 -418T-5 -379ZM190 379Q190 314 202 262T234 173T281 116T338 96Q359 96 395 129T472 219T556 349T632 504L640
584Q645 625 653 672Q656 693 661 712T674 748L641 774Q623 788 602 801T555 822T502 831Q456 831 415 809T340 749T278 665T231 567T201 467T190 379ZM271 1335Q285 1352 298 1361T326 1378Q340 1323 363 1285T415 1224T475 1190T535 1179Q566 1179 602 1189T673
1223T743 1285T806 1378Q820 1370 829 1362T849 1335Q812 1254 772 1200T689 1112T605 1065T523 1050Q479 1050 441 1064T370 1112T313 1200T271 1335Z" />
<glyph unicode="&#x120;" glyph-name="Gdotaccent" horiz-adv-x="1073" d="M76 473Q76 568 98 664T160 849T257 1013T381 1143Q466 1210 570 1250T793 1290Q823 1290 858 1283T928 1263T996 1231T1055 1188Q1061 1183 1050 1166T1021 1129T983 1088T948 1057L920
1063Q894 1094 865 1115T803 1148T731 1166T647 1171Q609 1171 554 1145Q501 1119 446 1075Q395 1033 354 968Q314 902 285 825T241 667T225 516Q225 409 257 331T341 200T455 123T580 98Q634 98 686 114T773 156L813 457Q814 467 809 477T782 497T715 517T596
539L602 582H1063L1057 539Q1003 523 978 502T950 457L940 386L928 298L916 213Q911 173 909 154Q833 93 775 57T670 1T583 -25T502 -31Q419 -31 342 2T206 100T112 259T76 473ZM651 1463Q651 1490 660 1517T685 1568T723 1605T774 1620Q805 1620 822 1602T839
1549Q839 1521 831 1494T806 1444T767 1407T716 1393Q685 1393 668 1411T651 1463Z" />
<glyph unicode="&#x121;" glyph-name="gdotaccent" horiz-adv-x="911" d="M-5 -379Q-5 -362 8 -341T38 -301T71 -269T95 -256Q103 -256 112 -266L132 -290Q145 -305 162 -322T205 -354T265 -379T347 -389Q444 -389 501 -302T587 -48Q596 8 601 57T610 153T616
244L620 336Q588 273 546 207T456 85T359 -5T266 -41Q233 -41 196 -22T126 38T72 145T51 305Q51 384 69 459T123 603T215 732T344 842Q372 860 404 877T470 907T537 928T602 936Q624 936 645 930T685 913T722 891L756 869Q779 891 804 907T856 936L879 901Q845
873 826 832T797 719Q783 600 777 502T766 319T754 156Q748 82 734 1Q715 -104 670 -194Q625 -285 563 -353T425 -460T271 -500Q229 -500 181 -488T91 -457T23 -418T-5 -379ZM190 379Q190 314 202 262T234 173T281 116T338 96Q359 96 395 129T472 219T556 349T632
504L640 584Q645 625 653 672Q656 693 661 712T674 748L641 774Q623 788 602 801T555 822T502 831Q456 831 415 809T340 749T278 665T231 567T201 467T190 379ZM451 1176Q451 1203 460 1230T485 1281T523 1318T574 1333Q605 1333 622 1315T639 1262Q639 1234 631
1207T606 1157T567 1120T516 1106Q485 1106 468 1124T451 1176Z" />
<glyph unicode="&#x124;" glyph-name="Hcircumflex" horiz-adv-x="1235" d="M0 0L6 43Q69 57 107 73T147 104L293 1155Q295 1167 264 1185T168 1217L174 1260H584L578 1217Q515 1203 477 1186T436 1155L375 705H931L993 1155Q995 1167 964 1185T870 1217L874 1260H1286L1280
1217Q1217 1203 1179 1186T1139 1155L993 104Q991 92 1022 75T1118 43L1112 0H702L709 43Q772 57 809 73T848 104L918 614H362L293 104Q290 92 321 75T416 43L410 0H0ZM466 1391L741 1692H833L1025 1391Q1011 1371 1004 1362T980 1346L765 1551L499 1346Q490 1352
483 1361T466 1391Z" />
<glyph unicode="&#x125;" glyph-name="hcircumflex" horiz-adv-x="1012" d="M86 -10L108 124L138 298L170 500L202 712L232 918Q247 1018 257 1102T274 1250T281 1346Q281 1369 278 1382T269 1402T256 1411T240 1413Q230 1413 212 1408L173 1399L125 1386L113
1425Q155 1444 197 1461T277 1491T342 1512T383 1520Q411 1520 426 1502T442 1438Q442 1414 436 1359T421 1231T399 1077L376 918L354 778L338 678Q396 750 453 799T564 879T667 922T762 936Q825 936 852 897T879 760Q879 725 873 673T856 561L836 437L816 316Q806
258 800 211T793 135Q793 101 805 89T829 76Q857 76 887 84T954 109L969 72Q876 18 816 -11T713 -41Q684 -41 662 -10T639 76Q639 94 645 140T662 249L682 381L702 514Q712 577 718 627T725 700Q725 738 722 763T712 805T691 827T655 834Q642 834 609 819T534 772T446
693T362 582Q335 534 317 462Q300 395 285 301Q275 241 271 204Q266 162 264 130T261 72T262 25Q249 18 230 10L190 -8L150 -26Q131 -34 119 -41L86 -10ZM386 1651L661 1952H753L945 1651Q931 1631 924 1622T900 1606L685 1811L419 1606Q410 1612 403 1621T386
1651Z" />
<glyph unicode="&#x128;" glyph-name="Itilde" horiz-adv-x="573" d="M20 0L27 43Q90 57 127 73T168 104L311 1155Q313 1167 282 1185T188 1217L195 1260H604L598 1217Q535 1203 497 1186T457 1155L311 104Q309 92 340 75T436 43L430 0H20ZM111 1402Q132 1442
158 1481T216 1552T284 1603T358 1623Q391 1623 418 1606T470 1568L515 1531Q536 1514 557 1514Q592 1514 630 1545T707 1633L752 1613Q731 1573 705 1533T647 1462T581 1411T506 1391Q474 1391 449 1408T400 1445T353 1483T303 1500Q268 1500 232 1469T154 1381L111
1402Z" />
<glyph unicode="&#x129;" glyph-name="itilde" horiz-adv-x="504" d="M67 1115Q88 1155 114 1194T172 1265T240 1316T314 1336Q347 1336 374 1319T426 1282L471 1244Q492 1227 513 1227Q548 1227 586 1258T663 1346L708 1326Q687 1286 661 1246T603 1175T537 1124T462
1104Q430 1104 405 1121T356 1158T309 1196T259 1213Q224 1213 188 1182T110 1094L67 1115ZM70 840L154 876Q195 894 231 907T294 928T334 936Q362 936 373 917T385 852Q385 823 378 767T358 640L333 494L308 347Q296 277 289 221T281 135Q281 104 287 90T311 76Q342
76 370 84T440 109L455 72L370 23Q333 2 302 -12T246 -34T199 -41Q165 -41 145 -10T125 76Q125 106 132 161T151 284L175 426L199 566Q210 632 217 684T225 760Q225 783 222 796T214 816T201 825T184 827Q176 827 160 824T126 815Q107 810 84 803L70 840Z" />
<glyph unicode="&#x12a;" glyph-name="Imacron" horiz-adv-x="573" d="M20 0L27 43Q90 57 127 73T168 104L311 1155Q313 1167 282 1185T188 1217L195 1260H604L598 1217Q535 1203 497 1186T457 1155L311 104Q309 92 340 75T436 43L430 0H20ZM198 1501Q202 1511
208 1524L220 1552Q227 1566 234 1579T247 1603H674L693 1578Q690 1567 684 1553T670 1525L655 1498Q648 1485 643 1477H214L198 1501Z" />
<glyph unicode="&#x12b;" glyph-name="imacron" horiz-adv-x="504" d="M70 840L154 876Q195 894 231 907T294 928T334 936Q362 936 373 917T385 852Q385 823 378 767T358 640L333 494L308 347Q296 277 289 221T281 135Q281 104 287 90T311 76Q342 76 370 84T440
109L455 72L370 23Q333 2 302 -12T246 -34T199 -41Q165 -41 145 -10T125 76Q125 106 132 161T151 284L175 426L199 566Q210 632 217 684T225 760Q225 783 222 796T214 816T201 825T184 827Q176 827 160 824T126 815Q107 810 84 803L70 840ZM149 1181Q153 1191 159
1204L172 1232Q178 1246 185 1259T198 1283H625L644 1258Q641 1247 635 1233T620 1205L606 1178Q599 1165 594 1157H165L149 1181Z" />
<glyph unicode="&#x12c;" glyph-name="Ibreve" horiz-adv-x="573" d="M20 0L27 43Q90 57 127 73T168 104L311 1155Q313 1167 282 1185T188 1217L195 1260H604L598 1217Q535 1203 497 1186T457 1155L311 104Q309 92 340 75T436 43L430 0H20ZM162 1655Q176 1672
189 1681T217 1698Q231 1643 254 1605T306 1544T366 1510T426 1499Q457 1499 493 1509T564 1543T634 1605T697 1698Q711 1690 720 1682T740 1655Q703 1574 663 1520T580 1432T496 1385T414 1370Q370 1370 332 1384T261 1432T204 1520T162 1655Z" />
<glyph unicode="&#x12d;" glyph-name="ibreve" horiz-adv-x="504" d="M70 840L154 876Q195 894 231 907T294 928T334 936Q362 936 373 917T385 852Q385 823 378 767T358 640L333 494L308 347Q296 277 289 221T281 135Q281 104 287 90T311 76Q342 76 370 84T440
109L455 72L370 23Q333 2 302 -12T246 -34T199 -41Q165 -41 145 -10T125 76Q125 106 132 161T151 284L175 426L199 566Q210 632 217 684T225 760Q225 783 222 796T214 816T201 825T184 827Q176 827 160 824T126 815Q107 810 84 803L70 840ZM113 1335Q127 1352 140
1361T168 1378Q182 1323 205 1285T257 1224T317 1190T377 1179Q408 1179 444 1189T515 1223T585 1285T648 1378Q662 1370 671 1362T691 1335Q654 1254 614 1200T531 1112T447 1065T365 1050Q321 1050 283 1064T212 1112T155 1200T113 1335Z" />
<glyph unicode="&#x130;" glyph-name="Idot" horiz-adv-x="573" d="M20 0L27 43Q90 57 127 73T168 104L311 1155Q313 1167 282 1185T188 1217L195 1260H604L598 1217Q535 1203 497 1186T457 1155L311 104Q309 92 340 75T436 43L430 0H20ZM337 1463Q337 1490 346
1517T371 1568T409 1605T460 1620Q491 1620 508 1602T525 1549Q525 1521 517 1494T492 1444T453 1407T402 1393Q371 1393 354 1411T337 1463Z" />
<glyph unicode="&#x131;" glyph-name="dotlessi" horiz-adv-x="504" d="M70 840L154 876Q195 894 231 907T294 928T334 936Q362 936 373 917T385 852Q385 823 378 767T358 640L333 494L308 347Q296 277 289 221T281 135Q281 104 287 90T311 76Q342 76 370 84T440
109L455 72L370 23Q333 2 302 -12T246 -34T199 -41Q165 -41 145 -10T125 76Q125 106 132 161T151 284L175 426L199 566Q210 632 217 684T225 760Q225 783 222 796T214 816T201 825T184 827Q176 827 160 824T126 815Q107 810 84 803L70 840Z" />
<glyph unicode="&#x132;" glyph-name="IJ" horiz-adv-x="1151" d="M20 0L27 43Q90 57 127 73T168 104L311 1155Q313 1167 282 1185T188 1217L195 1260H604L598 1217Q535 1203 497 1186T457 1155L311 104Q309 92 340 75T436 43L430 0H20ZM309 -301Q309 -291 323
-274T357 -241T397 -213T430 -201Q440 -201 450 -210T475 -229T511 -249T563 -258Q587 -258 616 -241T674 -180T728 -60Q754 15 770 133L911 1155Q912 1161 906 1168T881 1183T829 1199T741 1217L745 1260H1202L1196 1217Q1133 1203 1095 1186T1054 1155L923 205Q906
84 881 6Q855 -73 823 -128T752 -220T673 -289Q646 -310 615 -327T552 -356T493 -374T448 -381Q420 -381 395 -372T351 -350T321 -324T309 -301Z" />
<glyph unicode="&#x133;" glyph-name="ij" horiz-adv-x="1006" d="M70 840L154 876Q195 894 231 907T294 928T334 936Q362 936 373 917T385 852Q385 823 378 767T358 640L333 494L308 347Q296 277 289 221T281 135Q281 104 287 90T311 76Q342 76 370 84T440 109L455
72L370 23Q333 2 302 -12T246 -34T199 -41Q165 -41 145 -10T125 76Q125 106 132 161T151 284L175 426L199 566Q210 632 217 684T225 760Q225 783 222 796T214 816T201 825T184 827Q176 827 160 824T126 815Q107 810 84 803L70 840ZM120 -424Q120 -411 133 -390T164
-350T200 -316T229 -301Q237 -301 249 -314T281 -342T331 -370T405 -383Q490 -383 545 -280Q599 -178 632 11Q646 90 654 152Q663 219 669 276T679 377T686 451Q687 467 690 493T696 550L702 614L709 675Q712 704 713 726T715 760Q715 783 712 796T704 816T691
825T674 827T649 824T615 815Q596 810 574 803L559 840L643 876Q685 894 721 907T784 928T823 936Q851 936 865 924T879 870Q879 859 877 832T870 767L862 688L852 604L844 530Q840 495 838 473Q834 438 830 394T820 297L807 186Q800 128 790 66Q770 -51 741 -130T676
-264T602 -355T521 -424Q494 -445 462 -459T399 -483T341 -496T296 -500Q268 -500 237 -492T180 -472T137 -447T120 -424ZM294 1176Q294 1203 303 1230T328 1281T366 1318T417 1333Q448 1333 465 1315T482 1262Q482 1234 474 1207T449 1157T410 1120T359 1106Q328
1106 311 1124T294 1176ZM773 1176Q773 1203 781 1230T806 1281T844 1318T896 1333Q927 1333 944 1315T962 1262Q962 1234 953 1207T928 1157T888 1120T837 1106Q773 1106 773 1176Z" />
<glyph unicode="&#x139;" glyph-name="Lacute" horiz-adv-x="918" d="M0 0L6 43Q69 57 107 73T147 104L293 1155Q295 1167 264 1185T168 1217L174 1260H584L578 1217Q515 1203 477 1186T436 1155L299 154Q297 136 303 124T327 104T378 93T461 90H588Q630 90 659
95T713 117T759 169T809 262L848 244Q828 157 808 93T774 0H0ZM406 1393L797 1708L820 1693L848 1674Q862 1664 875 1654T894 1637V1590L439 1346Q425 1355 420 1364T406 1393Z" />
<glyph unicode="&#x13a;" glyph-name="lacute" horiz-adv-x="481" d="M102 78Q102 103 109 163T129 306L156 488L188 692L220 898Q235 1000 247 1088T266 1243T274 1346Q274 1369 270 1382T258 1402T242 1411T223 1413Q215 1413 198 1409T163 1399L119 1386L104
1425Q146 1444 188 1461T267 1491T332 1512T373 1520Q401 1520 417 1502T434 1438Q434 1399 427 1330T407 1173T379 982L347 777L315 572Q299 472 287 386T268 235T260 135T269 89T295 76Q318 76 348 84T424 109L436 72Q387 41 350 20T282 -15T225 -35T174 -41Q146
-41 124 -11T102 78ZM252 1713L643 2028L666 2013L694 1994Q708 1984 721 1974T740 1957V1910L285 1666Q271 1675 266 1684T252 1713Z" />
<glyph unicode="&#x141;" glyph-name="Lslash" horiz-adv-x="918" d="M0 0L6 43Q69 57 107 73T147 104L204 518L84 455L61 477Q64 487 70 501T84 530T99 556T113 575L220 631L293 1155Q295 1167 264 1185T168 1217L174 1260H584L578 1217Q515 1203 477 1186T436
1155L375 712L637 848L657 823Q654 814 648 801T635 775T620 749T606 729L360 600L299 154Q297 136 303 124T327 104T378 93T461 90H588Q630 90 659 95T713 117T759 169T809 262L848 244Q828 157 808 93T774 0H0Z" />
<glyph unicode="&#x142;" glyph-name="lslash" horiz-adv-x="521" d="M43 565L48 585Q49 592 51 599T59 618L74 652L217 752L246 941Q260 1034 270 1113T287 1252T294 1346Q294 1369 290 1382T278 1402T262 1411T243 1413Q235 1413 218 1409T183 1399L139 1386L124
1425Q166 1444 208 1461T287 1491T352 1512T393 1520Q421 1520 437 1502T454 1438Q454 1403 448 1344T432 1210T408 1046L381 867L523 966L546 944L538 918Q536 910 533 903T526 888T513 862L364 757L333 558L306 378Q294 295 287 232T280 135Q280 101 289 89T315
76Q338 76 368 84T444 109L456 72Q407 41 370 20T302 -15T245 -35T194 -41Q166 -41 144 -11T122 78Q122 101 128 156T146 286L171 454L200 643L61 545L43 565Z" />
<glyph unicode="&#x143;" glyph-name="Nacute" horiz-adv-x="1239" d="M0 0L6 43Q74 52 107 71T143 104L289 1154Q263 1184 232 1196T158 1217L164 1260H342Q364 1260 376 1259T398 1251T416 1227L440 1182L924 258L1047 1155Q1048 1161 1042 1169T1022 1186T983
1203T924 1217L930 1260H1294L1288 1217Q1222 1207 1189 1190T1153 1155L989 -31Q968 -28 951 -24T920 -12T894 9T870 45L373 1004L250 104Q247 92 275 73T371 43L365 0H0ZM586 1393L977 1708L1000 1693L1028 1674Q1042 1664 1055 1654T1074 1637V1590L619 1346Q605
1355 600 1364T586 1393Z" />
<glyph unicode="&#x144;" glyph-name="nacute" horiz-adv-x="1012" d="M47 842L132 877Q174 894 211 907T275 928T315 936Q329 936 337 932T348 915T353 881T354 823Q354 812 353 793T351 753T347 711T344 678Q398 746 453 795T561 875T663 921T758 936Q789 936
813 927T854 898T878 844T887 762Q887 727 881 675T864 563T842 438L820 316Q810 258 804 211T797 135Q797 101 806 89T833 76Q856 76 886 84T958 109L973 72Q882 18 819 -11T717 -41Q682 -41 663 -10T643 76Q643 94 649 140T666 249L688 381L710 514Q720 577 726
627T733 700Q733 776 717 806T657 836Q644 836 612 820T538 772T452 692Q408 644 371 580Q343 532 326 465Q309 401 291 301Q275 210 270 148Q266 84 268 25Q255 18 236 10L196 -8L156 -26Q137 -34 125 -41L92 -10Q106 56 120 133L146 288Q158 365 169 440T188
579T200 691T205 762T203 798T196 818T184 827T168 829T142 825T106 816L61 803L47 842ZM529 1061L801 1459L826 1452Q842 1447 859 1442T891 1430T914 1419L929 1374L574 1026Q558 1030 551 1037T529 1061Z" />
<glyph unicode="&#x147;" glyph-name="Ncaron" horiz-adv-x="1239" d="M0 0L6 43Q74 52 107 71T143 104L289 1154Q263 1184 232 1196T158 1217L164 1260H342Q364 1260 376 1259T398 1251T416 1227L440 1182L924 258L1047 1155Q1048 1161 1042 1169T1022 1186T983
1203T924 1217L930 1260H1294L1288 1217Q1222 1207 1189 1190T1153 1155L989 -31Q968 -28 951 -24T920 -12T894 9T870 45L373 1004L250 104Q247 92 275 73T371 43L365 0H0ZM505 1671Q519 1690 527 1697T550 1716L765 1512L1032 1716Q1044 1705 1049 1698T1064 1671L790
1370H698L505 1671Z" />
<glyph unicode="&#x148;" glyph-name="ncaron" horiz-adv-x="1012" d="M47 842L132 877Q174 894 211 907T275 928T315 936Q329 936 337 932T348 915T353 881T354 823Q354 812 353 793T351 753T347 711T344 678Q398 746 453 795T561 875T663 921T758 936Q789 936
813 927T854 898T878 844T887 762Q887 727 881 675T864 563T842 438L820 316Q810 258 804 211T797 135Q797 101 806 89T833 76Q856 76 886 84T958 109L973 72Q882 18 819 -11T717 -41Q682 -41 663 -10T643 76Q643 94 649 140T666 249L688 381L710 514Q720 577 726
627T733 700Q733 776 717 806T657 836Q644 836 612 820T538 772T452 692Q408 644 371 580Q343 532 326 465Q309 401 291 301Q275 210 270 148Q266 84 268 25Q255 18 236 10L196 -8L156 -26Q137 -34 125 -41L92 -10Q106 56 120 133L146 288Q158 365 169 440T188
579T200 691T205 762T203 798T196 818T184 827T168 829T142 825T106 816L61 803L47 842ZM360 1401Q374 1420 382 1427T405 1446L614 1202L887 1446Q899 1435 904 1428T919 1401L639 1050H547L360 1401Z" />
<glyph unicode="&#x14a;" glyph-name="Eng" horiz-adv-x="1146" d="M0 0L6 43Q69 57 107 73T147 104L276 1038Q285 1096 283 1127T262 1169T209 1174T117 1153L106 1208L204 1242Q251 1258 288 1268T352 1284T393 1290Q418 1290 426 1261T434 1184Q434 1167 432
1136T427 1068T417 992T403 920Q466 1022 535 1092T671 1207T801 1270T911 1290Q945 1290 979 1279T1042 1239T1088 1162T1106 1042Q1106 1002 1100 950L999 213Q985 108 956 23Q928 -63 889 -133T803 -258Q757 -311 705 -352Q681 -371 648 -388T579 -417T505 -437T434
-444Q390 -444 351 -431T283 -400T236 -361T219 -326Q219 -318 234 -300T272 -263T318 -230T358 -215Q367 -215 379 -232T411 -271T458 -310T528 -328Q658 -328 736 -208T848 160L940 842Q946 880 948 913T950 975Q950 1024 942 1057T918 1112T882 1142T834 1151Q807
1151 765 1135T674 1086T574 1007T480 896T404 756T358 586L293 104Q290 92 321 75T416 43L410 0H0Z" />
<glyph unicode="&#x14b;" glyph-name="eng" horiz-adv-x="989" d="M41 842L126 877Q168 894 205 907T269 928T309 936Q323 936 331 932T342 915T347 881T348 823Q348 812 347 793T345 753T341 711T338 678Q392 746 447 795T555 875T657 921T752 936Q783 936 807
927T848 898T872 844T881 762Q881 738 877 695T866 594T848 468L826 328Q815 256 802 184L776 44Q757 -54 731 -125T673 -250T600 -346Q562 -386 516 -425Q489 -448 457 -462Q425 -477 394 -485T336 -497T291 -501Q263 -501 226 -490T154 -463T95 -432T71 -407Q71
-394 84 -373T114 -333T150 -299T180 -284Q189 -284 206 -300T249 -335T306 -370T375 -386Q426 -386 463 -365T529 -299T580 -182Q600 -116 620 -11Q649 137 664 230Q684 346 698 441T719 603T727 700Q727 776 711 806T651 836Q638 836 606 820T532 772T446 692Q402
644 365 580Q337 532 320 465Q303 401 285 301Q269 210 264 148Q260 84 262 25Q249 18 230 10L190 -8L150 -26Q131 -34 119 -41L86 -10Q100 56 114 133L140 288Q152 365 163 440T182 579T194 691T199 762T197 798T190 818T178 827T162 829T136 825T100 816L55 803L41
842Z" />
<glyph unicode="&#x14c;" glyph-name="Omacron" horiz-adv-x="1116" d="M90 485Q90 548 101 618T134 759T187 896T258 1018Q300 1074 348 1123T452 1210T571 1268T705 1290Q803 1290 875 1249T993 1138T1062 973T1085 774Q1085 703 1074 630T1039 486T980 348Q947
283 901 225Q858 170 812 124Q764 78 711 44T598 -11T471 -31Q375 -31 304 10T185 121T114 286T90 485ZM242 532Q242 439 261 360T317 223T403 133T516 100Q593 100 654 131T762 213T842 332T896 473T926 619T936 756Q936 840 918 914T865 1044T779 1132T662 1165Q586
1165 526 1136T418 1057T338 943T284 808T252 667T242 532ZM427 1468Q431 1478 437 1492L450 1519Q456 1533 463 1546T476 1570H1023L1042 1545Q1039 1534 1033 1520T1018 1492L1004 1465Q997 1452 992 1444H443L427 1468Z" />
<glyph unicode="&#x14d;" glyph-name="omacron" horiz-adv-x="864" d="M53 344Q53 416 65 482T104 611T176 730T287 840Q338 880 399 908T522 936Q600 936 655 908T744 830T795 711T811 559Q811 492 796 424T752 291T681 168T582 63Q556 42 527 23T468 -10T407
-33T346 -41Q276 -41 222 -12T130 69T73 191T53 344ZM197 399Q197 332 213 273T259 169T328 98T414 72T496 92T561 147T610 226T643 319T662 415T668 504Q668 657 612 738T453 819Q381 819 332 778T253 673T210 537T197 399ZM237 1181Q241 1191 247 1204L260 1232Q266
1246 273 1259T286 1283H833L852 1258Q849 1247 843 1233T828 1205L814 1178Q807 1165 802 1157H253L237 1181Z" />
<glyph unicode="&#x14e;" glyph-name="Obreve" horiz-adv-x="1116" d="M90 485Q90 548 101 618T134 759T187 896T258 1018Q300 1074 348 1123T452 1210T571 1268T705 1290Q803 1290 875 1249T993 1138T1062 973T1085 774Q1085 703 1074 630T1039 486T980 348Q947
283 901 225Q858 170 812 124Q764 78 711 44T598 -11T471 -31Q375 -31 304 10T185 121T114 286T90 485ZM242 532Q242 439 261 360T317 223T403 133T516 100Q593 100 654 131T762 213T842 332T896 473T926 619T936 756Q936 840 918 914T865 1044T779 1132T662 1165Q586
1165 526 1136T418 1057T338 943T284 808T252 667T242 532ZM456 1655Q470 1672 483 1681T511 1698Q525 1643 548 1605T600 1544T660 1510T720 1499Q751 1499 787 1509T858 1543T928 1605T991 1698Q1005 1690 1014 1682T1034 1655Q997 1574 957 1520T874 1432T790
1385T708 1370Q664 1370 626 1384T555 1432T498 1520T456 1655Z" />
<glyph unicode="&#x14f;" glyph-name="obreve" horiz-adv-x="864" d="M53 344Q53 416 65 482T104 611T176 730T287 840Q338 880 399 908T522 936Q600 936 655 908T744 830T795 711T811 559Q811 492 796 424T752 291T681 168T582 63Q556 42 527 23T468 -10T407
-33T346 -41Q276 -41 222 -12T130 69T73 191T53 344ZM197 399Q197 332 213 273T259 169T328 98T414 72T496 92T561 147T610 226T643 319T662 415T668 504Q668 657 612 738T453 819Q381 819 332 778T253 673T210 537T197 399ZM261 1335Q275 1352 288 1361T316 1378Q330
1323 353 1285T405 1224T465 1190T525 1179Q556 1179 592 1189T663 1223T733 1285T796 1378Q810 1370 819 1362T839 1335Q802 1254 762 1200T679 1112T595 1065T513 1050Q469 1050 431 1064T360 1112T303 1200T261 1335Z" />
<glyph unicode="&#x150;" glyph-name="Ohungarumlaut" horiz-adv-x="1116" d="M90 485Q90 548 101 618T134 759T187 896T258 1018Q300 1074 348 1123T452 1210T571 1268T705 1290Q803 1290 875 1249T993 1138T1062 973T1085 774Q1085 703 1074 630T1039 486T980
348Q947 283 901 225Q858 170 812 124Q764 78 711 44T598 -11T471 -31Q375 -31 304 10T185 121T114 286T90 485ZM242 532Q242 439 261 360T317 223T403 133T516 100Q593 100 654 131T762 213T842 332T896 473T926 619T936 756Q936 840 918 914T865 1044T779 1132T662
1165Q586 1165 526 1136T418 1057T338 943T284 808T252 667T242 532ZM549 1372L761 1779L784 1774Q798 1772 812 1769T838 1762T859 1754L875 1713L596 1346Q581 1348 572 1354T549 1372ZM805 1372L1017 1779L1040 1774Q1054 1772 1068 1769T1094 1762T1115 1754L1131
1713L852 1346Q837 1348 828 1354T805 1372Z" />
<glyph unicode="&#x151;" glyph-name="ohungarumlaut" horiz-adv-x="864" d="M53 344Q53 416 65 482T104 611T176 730T287 840Q338 880 399 908T522 936Q600 936 655 908T744 830T795 711T811 559Q811 492 796 424T752 291T681 168T582 63Q556 42 527 23T468 -10T407
-33T346 -41Q276 -41 222 -12T130 69T73 191T53 344ZM197 399Q197 332 213 273T259 169T328 98T414 72T496 92T561 147T610 226T643 319T662 415T668 504Q668 657 612 738T453 819Q381 819 332 778T253 673T210 537T197 399ZM354 1052L566 1459L590 1454Q603 1452
617 1449T643 1442T664 1434L680 1393L401 1026Q386 1028 377 1034T354 1052ZM610 1052L822 1459L846 1454Q859 1452 873 1449T899 1442T920 1434L936 1393L657 1026Q642 1028 633 1034T610 1052Z" />
<glyph unicode="&#x152;" glyph-name="OE" horiz-adv-x="1489" d="M90 465Q90 568 112 669T173 862T268 1032T391 1167T537 1257T698 1290Q735 1290 761 1286T811 1276T861 1266T922 1260H1454L1479 1235Q1474 1209 1467 1178T1450 1116T1432 1057T1413 1010H1370Q1374
1056 1374 1086T1367 1135T1349 1161T1319 1169H1027L967 735H1294L1315 707Q1305 693 1293 678T1267 648T1240 621T1217 600Q1205 615 1192 625T1159 642T1112 652T1047 655H956L887 154Q885 139 885 128T896 108T938 95T1028 90H1143Q1184 90 1213 95T1268 117T1315
169T1366 262L1403 244Q1384 158 1364 94T1333 0H745Q697 -1 663 -6T598 -16T537 -26T467 -31Q375 -31 305 8T187 114T115 272T90 465ZM236 524Q236 429 256 351T312 218T398 131T510 100Q583 100 638 113T745 163L871 1081Q785 1165 657 1165Q581 1165 520 1135T413
1055T333 939T278 802T246 659T236 524Z" />
<glyph unicode="&#x153;" glyph-name="oe" horiz-adv-x="1374" d="M53 344Q53 416 65 482T105 610T177 729T283 840Q332 881 393 908T512 936Q618 936 683 876T773 706Q802 744 836 779T911 846Q934 864 963 880T1023 909T1087 929T1151 936Q1194 936 1226 921T1279
880T1310 824T1321 760Q1321 732 1315 701T1288 637T1230 568T1133 494T985 414T776 327Q782 271 799 225T840 146T891 95T946 76Q968 76 998 80T1067 100T1156 144T1268 221Q1277 215 1285 202T1296 180Q1214 109 1152 66T1040 -1T952 -33T877 -41Q850 -41 818
-30T755 5T698 69T656 163Q616 107 567 63Q542 41 514 22T455 -11T396 -33T338 -41Q273 -41 220 -12T130 69T73 191T53 344ZM197 399Q197 332 213 273T257 169T322 98T403 72Q444 72 478 92T539 147T586 226T620 319T640 415T647 504Q647 657 593 738T442 819Q400
819 366 800T304 748T257 673T223 584T204 489T197 399ZM775 403Q863 437 925 467T1030 523T1098 574T1137 622T1155 669T1159 715Q1159 746 1151 768T1131 804T1102 824T1067 831Q1053 831 1022 820Q990 808 961 782Q926 751 895 709Q863 666 838 616T796 511T775
403Z" />
<glyph unicode="&#x154;" glyph-name="Racute" horiz-adv-x="1077" d="M0 0L6 43Q69 57 107 73T147 104L296 1193Q257 1188 219 1182T141 1167V1227Q186 1240 231 1251T327 1271T434 1285T559 1290Q647 1290 718 1270T841 1209T920 1109T948 971Q948 932 931 876T874
764T770 662T612 597L846 184Q864 152 880 135Q897 118 919 114T975 119T1059 147L1077 109Q1038 83 1000 61T930 22T873 -4T834 -14Q817 -14 802 -9T771 10T738 50T702 117L476 589Q447 591 417 595T361 605L293 104Q290 92 321 75T416 43L410 0H0ZM371 678Q400
670 428 666T485 662Q548 662 606 679T708 731T778 818T805 942Q805 1016 778 1066T708 1148T614 1192T514 1206H478Q460 1206 443 1205L371 678ZM467 1393L858 1708L881 1693L908 1674Q923 1664 936 1654T955 1637V1590L500 1346Q486 1355 481 1364T467 1393Z"
/>
<glyph unicode="&#x155;" glyph-name="racute" horiz-adv-x="727" d="M41 840L126 876Q168 894 205 907T269 928T309 936Q323 936 331 931T342 914T347 879T348 821Q348 810 345 784T338 728T330 667L322 618Q370 717 413 779T494 876T568 923T635 936Q653 936
667 926T697 902L729 874Q746 859 768 850Q756 834 742 811L712 766Q698 745 685 730T662 715Q643 715 630 726T605 749T582 773T555 784Q529 784 495 749T426 656T360 527T307 383Q296 345 288 300T273 206T263 112T262 25Q249 18 230 10L190 -8L150 -26Q131 -34
119 -41L86 -10Q101 61 115 137T141 288T164 436T182 570T194 681T199 760Q199 783 196 796T187 816T174 825T158 827Q148 827 131 824T97 815Q77 810 55 803L41 840ZM405 1061L677 1459L702 1452Q718 1447 735 1442T767 1430T790 1419L805 1374L450 1026Q434 1030
427 1037T405 1061Z" />
<glyph unicode="&#x158;" glyph-name="Rcaron" horiz-adv-x="1077" d="M0 0L6 43Q69 57 107 73T147 104L296 1193Q257 1188 219 1182T141 1167V1227Q186 1240 231 1251T327 1271T434 1285T559 1290Q647 1290 718 1270T841 1209T920 1109T948 971Q948 932 931 876T874
764T770 662T612 597L846 184Q864 152 880 135Q897 118 919 114T975 119T1059 147L1077 109Q1038 83 1000 61T930 22T873 -4T834 -14Q817 -14 802 -9T771 10T738 50T702 117L476 589Q447 591 417 595T361 605L293 104Q290 92 321 75T416 43L410 0H0ZM371 678Q400
670 428 666T485 662Q548 662 606 679T708 731T778 818T805 942Q805 1016 778 1066T708 1148T614 1192T514 1206H478Q460 1206 443 1205L371 678ZM386 1671Q400 1690 408 1697T431 1716L646 1512L913 1716Q925 1705 930 1698T945 1671L671 1370H579L386 1671Z"
/>
<glyph unicode="&#x159;" glyph-name="rcaron" horiz-adv-x="727" d="M41 840L126 876Q168 894 205 907T269 928T309 936Q323 936 331 931T342 914T347 879T348 821Q348 810 345 784T338 728T330 667L322 618Q370 717 413 779T494 876T568 923T635 936Q653 936
667 926T697 902L729 874Q746 859 768 850Q756 834 742 811L712 766Q698 745 685 730T662 715Q643 715 630 726T605 749T582 773T555 784Q529 784 495 749T426 656T360 527T307 383Q296 345 288 300T273 206T263 112T262 25Q249 18 230 10L190 -8L150 -26Q131 -34
119 -41L86 -10Q101 61 115 137T141 288T164 436T182 570T194 681T199 760Q199 783 196 796T187 816T174 825T158 827Q148 827 131 824T97 815Q77 810 55 803L41 840ZM236 1401Q250 1420 258 1427T281 1446L490 1202L763 1446Q775 1435 780 1428T795 1401L515 1050H423L236
1401Z" />
<glyph unicode="&#x15a;" glyph-name="Sacute" horiz-adv-x="899" d="M47 115Q47 127 59 150T87 196T122 237T154 254Q166 254 183 230T227 175T295 121T395 96Q456 96 508 116T600 172T661 256T684 360Q684 401 672 436T630 505T550 572T424 641Q357 673 315
708Q272 743 248 779T213 854T203 928Q203 994 233 1059T319 1175T453 1258T629 1290Q701 1290 762 1263T872 1198Q876 1195 872 1185T860 1160T839 1130T813 1100T789 1074T770 1059L741 1065Q724 1089 703 1110T657 1149T605 1176T547 1186Q493 1186 451 1169T381
1124T337 1062T322 995Q322 973 329 949T358 899T420 844Q457 817 528 780Q607 739 662 702T751 626T800 541T815 440Q815 346 776 261T671 111T516 8T328 -31Q290 -31 242 -18T150 16T77 63T47 115ZM423 1393L814 1708L837 1693L864 1674Q879 1664 892 1654T911
1637V1590L456 1346Q442 1355 437 1364T423 1393Z" />
<glyph unicode="&#x15b;" glyph-name="sacute" horiz-adv-x="711" d="M-4 98Q-4 109 8 130T36 171T70 207T98 223Q105 223 112 210L132 180Q143 161 159 139T199 99T255 68T332 55Q367 55 398 68T453 104T490 157T504 223Q504 262 488 293T446 350T384 397T311
436Q258 461 222 486T164 537T133 592T123 653Q123 716 154 768T234 857T343 915T463 936Q514 936 549 924T610 896T657 865T698 844Q678 821 659 803T622 770T592 749T571 741Q558 741 544 758L510 796Q492 817 468 834T410 852Q382 852 355 842T307 813T272 768T258
709Q258 674 292 635Q324 597 406 559Q447 540 488 515T561 458T614 384T635 289Q635 220 600 160T509 55T385 -15T252 -41Q205 -41 159 -28T77 7T19 52T-4 98ZM382 1061L654 1459L680 1452Q695 1447 712 1442T744 1430T767 1419L782 1374L427 1026Q411 1030 404
1037T382 1061Z" />
<glyph unicode="&#x15c;" glyph-name="Scircumflex" horiz-adv-x="899" d="M47 115Q47 127 59 150T87 196T122 237T154 254Q166 254 183 230T227 175T295 121T395 96Q456 96 508 116T600 172T661 256T684 360Q684 401 672 436T630 505T550 572T424 641Q357 673
315 708Q272 743 248 779T213 854T203 928Q203 994 233 1059T319 1175T453 1258T629 1290Q701 1290 762 1263T872 1198Q876 1195 872 1185T860 1160T839 1130T813 1100T789 1074T770 1059L741 1065Q724 1089 703 1110T657 1149T605 1176T547 1186Q493 1186 451
1169T381 1124T337 1062T322 995Q322 973 329 949T358 899T420 844Q457 817 528 780Q607 739 662 702T751 626T800 541T815 440Q815 346 776 261T671 111T516 8T328 -31Q290 -31 242 -18T150 16T77 63T47 115ZM303 1391L578 1692H670L862 1391Q848 1371 841 1362T817
1346L602 1551L336 1346Q327 1352 320 1361T303 1391Z" />
<glyph unicode="&#x15d;" glyph-name="scircumflex" horiz-adv-x="711" d="M-4 98Q-4 109 8 130T36 171T70 207T98 223Q105 223 112 210L132 180Q143 161 159 139T199 99T255 68T332 55Q367 55 398 68T453 104T490 157T504 223Q504 262 488 293T446 350T384 397T311
436Q258 461 222 486T164 537T133 592T123 653Q123 716 154 768T234 857T343 915T463 936Q514 936 549 924T610 896T657 865T698 844Q678 821 659 803T622 770T592 749T571 741Q558 741 544 758L510 796Q492 817 468 834T410 852Q382 852 355 842T307 813T272 768T258
709Q258 674 292 635Q324 597 406 559Q447 540 488 515T561 458T614 384T635 289Q635 220 600 160T509 55T385 -15T252 -41Q205 -41 159 -28T77 7T19 52T-4 98ZM169 1071L453 1442H545L728 1071Q714 1051 707 1042T683 1026L475 1291L202 1026Q193 1032 186 1041T169
1071Z" />
<glyph unicode="&#x160;" glyph-name="Scaron" horiz-adv-x="899" d="M47 115Q47 127 59 150T87 196T122 237T154 254Q166 254 183 230T227 175T295 121T395 96Q456 96 508 116T600 172T661 256T684 360Q684 401 672 436T630 505T550 572T424 641Q357 673 315
708Q272 743 248 779T213 854T203 928Q203 994 233 1059T319 1175T453 1258T629 1290Q701 1290 762 1263T872 1198Q876 1195 872 1185T860 1160T839 1130T813 1100T789 1074T770 1059L741 1065Q724 1089 703 1110T657 1149T605 1176T547 1186Q493 1186 451 1169T381
1124T337 1062T322 995Q322 973 329 949T358 899T420 844Q457 817 528 780Q607 739 662 702T751 626T800 541T815 440Q815 346 776 261T671 111T516 8T328 -31Q290 -31 242 -18T150 16T77 63T47 115ZM342 1671Q356 1690 364 1697T387 1716L602 1512L869 1716Q881
1705 886 1698T901 1671L627 1370H535L342 1671Z" />
<glyph unicode="&#x161;" glyph-name="scaron" horiz-adv-x="711" d="M-4 98Q-4 109 8 130T36 171T70 207T98 223Q105 223 112 210L132 180Q143 161 159 139T199 99T255 68T332 55Q367 55 398 68T453 104T490 157T504 223Q504 262 488 293T446 350T384 397T311
436Q258 461 222 486T164 537T133 592T123 653Q123 716 154 768T234 857T343 915T463 936Q514 936 549 924T610 896T657 865T698 844Q678 821 659 803T622 770T592 749T571 741Q558 741 544 758L510 796Q492 817 468 834T410 852Q382 852 355 842T307 813T272 768T258
709Q258 674 292 635Q324 597 406 559Q447 540 488 515T561 458T614 384T635 289Q635 220 600 160T509 55T385 -15T252 -41Q205 -41 159 -28T77 7T19 52T-4 98ZM213 1401Q227 1420 235 1427T258 1446L467 1202L740 1446Q752 1435 757 1428T772 1401L492 1050H400L213
1401Z" />
<glyph unicode="&#x164;" glyph-name="Tcaron" horiz-adv-x="1067" d="M113 1014Q116 1040 122 1072T137 1138T155 1203T174 1260H1096L1118 1235Q1114 1211 1108 1181T1094 1118L1078 1055Q1069 1024 1061 999H1020Q1018 1049 1014 1082T1003 1134T983 1161T950
1169H693L549 115Q547 102 578 82T690 43L684 0H238L244 43Q330 62 365 81T403 115L550 1169H279Q266 1169 255 1164T229 1140T196 1088T150 995L113 1014ZM409 1671Q423 1690 431 1697T454 1716L669 1512L936 1716Q948 1705 953 1698T968 1671L694 1370H602L409
1671Z" />
<glyph unicode="&#x168;" glyph-name="Utilde" horiz-adv-x="1227" d="M168 1217L174 1260H584L578 1217Q515 1203 477 1186T436 1155L348 510Q344 481 343 452T342 397Q342 327 359 270T409 172T493 109T608 86T728 118T825 203T894 325Q922 394 932 469L1024
1155Q1026 1167 998 1185T905 1217L911 1260H1286L1280 1217Q1217 1203 1182 1186T1145 1155L1055 512Q1036 380 994 280Q951 178 887 109T740 5T557 -31Q475 -31 407 -6T289 67T213 185T186 348Q186 399 195 463L293 1155Q295 1167 264 1185T168 1217ZM462 1402Q483
1442 509 1481T567 1552T635 1603T709 1623Q742 1623 769 1606T821 1568L866 1531Q887 1514 908 1514Q943 1514 981 1545T1058 1633L1103 1613Q1082 1573 1056 1533T998 1462T932 1411T857 1391Q825 1391 800 1408T751 1445T704 1483T654 1500Q619 1500 583 1469T505
1381L462 1402Z" />
<glyph unicode="&#x169;" glyph-name="utilde" horiz-adv-x="1022" d="M39 840L124 876Q166 894 202 907T265 928T305 936Q334 936 344 917T354 852Q354 823 348 776T333 673L314 557L295 441Q286 385 280 338T274 262Q274 166 294 123T352 80Q372 80 405 99T480
162T571 276T674 447L688 534L703 618Q710 658 714 694T719 760Q719 783 717 796T709 816T698 825T682 827T658 824T626 815Q608 810 588 803L573 840L656 876Q697 894 731 907T792 928T831 936Q859 936 868 917T877 852Q877 823 871 777T856 675T836 559T816 442T801
336T795 254Q795 163 808 120T846 76Q872 76 898 82T961 104L975 68Q894 14 838 -13T743 -41Q724 -41 706 -24T674 34T655 138T656 297Q615 223 570 161T475 54T374 -16T268 -41Q248 -41 223 -26T175 21T137 98T121 205Q121 235 126 281T140 380T158 490T176 599T189
693T195 760Q195 783 192 796T184 816T171 825T154 827T128 824T94 815Q74 810 51 803L39 840ZM291 1115Q312 1155 338 1194T396 1265T464 1316T538 1336Q571 1336 598 1319T650 1282L695 1244Q716 1227 737 1227Q772 1227 810 1258T887 1346L932 1326Q911 1286
885 1246T827 1175T761 1124T686 1104Q654 1104 629 1121T580 1158T533 1196T483 1213Q448 1213 412 1182T334 1094L291 1115Z" />
<glyph unicode="&#x16a;" glyph-name="Umacron" horiz-adv-x="1227" d="M168 1217L174 1260H584L578 1217Q515 1203 477 1186T436 1155L348 510Q344 481 343 452T342 397Q342 327 359 270T409 172T493 109T608 86T728 118T825 203T894 325Q922 394 932 469L1024
1155Q1026 1167 998 1185T905 1217L911 1260H1286L1280 1217Q1217 1203 1182 1186T1145 1155L1055 512Q1036 380 994 280Q951 178 887 109T740 5T557 -31Q475 -31 407 -6T289 67T213 185T186 348Q186 399 195 463L293 1155Q295 1167 264 1185T168 1217ZM484 1468Q488
1478 494 1492L506 1519Q513 1533 520 1546T533 1570H1080L1099 1545Q1096 1534 1090 1520T1076 1492L1061 1465Q1054 1452 1049 1444H500L484 1468Z" />
<glyph unicode="&#x16b;" glyph-name="umacron" horiz-adv-x="1022" d="M39 840L124 876Q166 894 202 907T265 928T305 936Q334 936 344 917T354 852Q354 823 348 776T333 673L314 557L295 441Q286 385 280 338T274 262Q274 166 294 123T352 80Q372 80 405 99T480
162T571 276T674 447L688 534L703 618Q710 658 714 694T719 760Q719 783 717 796T709 816T698 825T682 827T658 824T626 815Q608 810 588 803L573 840L656 876Q697 894 731 907T792 928T831 936Q859 936 868 917T877 852Q877 823 871 777T856 675T836 559T816 442T801
336T795 254Q795 163 808 120T846 76Q872 76 898 82T961 104L975 68Q894 14 838 -13T743 -41Q724 -41 706 -24T674 34T655 138T656 297Q615 223 570 161T475 54T374 -16T268 -41Q248 -41 223 -26T175 21T137 98T121 205Q121 235 126 281T140 380T158 490T176 599T189
693T195 760Q195 783 192 796T184 816T171 825T154 827T128 824T94 815Q74 810 51 803L39 840ZM313 1181Q317 1191 323 1204L336 1232Q342 1246 349 1259T362 1283H909L928 1258Q925 1247 919 1233T904 1205L890 1178Q883 1165 878 1157H329L313 1181Z" />
<glyph unicode="&#x16c;" glyph-name="Ubreve" horiz-adv-x="1227" d="M168 1217L174 1260H584L578 1217Q515 1203 477 1186T436 1155L348 510Q344 481 343 452T342 397Q342 327 359 270T409 172T493 109T608 86T728 118T825 203T894 325Q922 394 932 469L1024
1155Q1026 1167 998 1185T905 1217L911 1260H1286L1280 1217Q1217 1203 1182 1186T1145 1155L1055 512Q1036 380 994 280Q951 178 887 109T740 5T557 -31Q475 -31 407 -6T289 67T213 185T186 348Q186 399 195 463L293 1155Q295 1167 264 1185T168 1217ZM513 1655Q527
1672 540 1681T568 1698Q582 1643 605 1605T657 1544T717 1510T777 1499Q808 1499 844 1509T915 1543T985 1605T1048 1698Q1062 1690 1071 1682T1091 1655Q1054 1574 1014 1520T931 1432T847 1385T765 1370Q721 1370 683 1384T612 1432T555 1520T513 1655Z" />
<glyph unicode="&#x16d;" glyph-name="ubreve" horiz-adv-x="1022" d="M39 840L124 876Q166 894 202 907T265 928T305 936Q334 936 344 917T354 852Q354 823 348 776T333 673L314 557L295 441Q286 385 280 338T274 262Q274 166 294 123T352 80Q372 80 405 99T480
162T571 276T674 447L688 534L703 618Q710 658 714 694T719 760Q719 783 717 796T709 816T698 825T682 827T658 824T626 815Q608 810 588 803L573 840L656 876Q697 894 731 907T792 928T831 936Q859 936 868 917T877 852Q877 823 871 777T856 675T836 559T816 442T801
336T795 254Q795 163 808 120T846 76Q872 76 898 82T961 104L975 68Q894 14 838 -13T743 -41Q724 -41 706 -24T674 34T655 138T656 297Q615 223 570 161T475 54T374 -16T268 -41Q248 -41 223 -26T175 21T137 98T121 205Q121 235 126 281T140 380T158 490T176 599T189
693T195 760Q195 783 192 796T184 816T171 825T154 827T128 824T94 815Q74 810 51 803L39 840ZM337 1335Q351 1352 364 1361T392 1378Q406 1323 429 1285T481 1224T541 1190T601 1179Q632 1179 668 1189T739 1223T809 1285T872 1378Q886 1370 895 1362T915 1335Q878
1254 838 1200T755 1112T671 1065T589 1050Q545 1050 507 1064T436 1112T379 1200T337 1335Z" />
<glyph unicode="&#x16e;" glyph-name="Uring" horiz-adv-x="1227" d="M168 1217L174 1260H584L578 1217Q515 1203 477 1186T436 1155L348 510Q344 481 343 452T342 397Q342 327 359 270T409 172T493 109T608 86T728 118T825 203T894 325Q922 394 932 469L1024
1155Q1026 1167 998 1185T905 1217L911 1260H1286L1280 1217Q1217 1203 1182 1186T1145 1155L1055 512Q1036 380 994 280Q951 178 887 109T740 5T557 -31Q475 -31 407 -6T289 67T213 185T186 348Q186 399 195 463L293 1155Q295 1167 264 1185T168 1217ZM615 1469Q615
1514 632 1560T680 1643T752 1705T840 1729Q893 1729 925 1693T957 1600Q957 1559 940 1515T892 1433T821 1371T734 1346Q708 1346 686 1356T648 1383T624 1422T615 1469ZM699 1512Q699 1475 715 1448T763 1420Q790 1420 810 1433T845 1467T866 1513T873 1563Q873
1598 858 1625T812 1653Q784 1653 763 1640T728 1607T706 1561T699 1512Z" />
<glyph unicode="&#x16f;" glyph-name="uring" horiz-adv-x="1022" d="M39 840L124 876Q166 894 202 907T265 928T305 936Q334 936 344 917T354 852Q354 823 348 776T333 673L314 557L295 441Q286 385 280 338T274 262Q274 166 294 123T352 80Q372 80 405 99T480
162T571 276T674 447L688 534L703 618Q710 658 714 694T719 760Q719 783 717 796T709 816T698 825T682 827T658 824T626 815Q608 810 588 803L573 840L656 876Q697 894 731 907T792 928T831 936Q859 936 868 917T877 852Q877 823 871 777T856 675T836 559T816 442T801
336T795 254Q795 163 808 120T846 76Q872 76 898 82T961 104L975 68Q894 14 838 -13T743 -41Q724 -41 706 -24T674 34T655 138T656 297Q615 223 570 161T475 54T374 -16T268 -41Q248 -41 223 -26T175 21T137 98T121 205Q121 235 126 281T140 380T158 490T176 599T189
693T195 760Q195 783 192 796T184 816T171 825T154 827T128 824T94 815Q74 810 51 803L39 840ZM439 1149Q439 1194 456 1240T504 1323T576 1385T664 1409Q717 1409 749 1373T781 1280Q781 1239 764 1195T716 1113T645 1051T558 1026Q532 1026 510 1036T472 1063T448
1102T439 1149ZM523 1192Q523 1155 539 1128T587 1100Q614 1100 634 1113T669 1147T690 1193T697 1243Q697 1278 682 1305T636 1333Q608 1333 587 1320T552 1287T530 1241T523 1192Z" />
<glyph unicode="&#x170;" glyph-name="Uhungarumlaut" horiz-adv-x="1227" d="M168 1217L174 1260H584L578 1217Q515 1203 477 1186T436 1155L348 510Q344 481 343 452T342 397Q342 327 359 270T409 172T493 109T608 86T728 118T825 203T894 325Q922 394 932 469L1024
1155Q1026 1167 998 1185T905 1217L911 1260H1286L1280 1217Q1217 1203 1182 1186T1145 1155L1055 512Q1036 380 994 280Q951 178 887 109T740 5T557 -31Q475 -31 407 -6T289 67T213 185T186 348Q186 399 195 463L293 1155Q295 1167 264 1185T168 1217ZM606 1372L818
1779L842 1774Q855 1772 869 1769T895 1762T916 1754L932 1713L653 1346Q638 1348 629 1354T606 1372ZM862 1372L1074 1779L1098 1774Q1111 1772 1125 1769T1151 1762T1172 1754L1188 1713L909 1346Q894 1348 885 1354T862 1372Z" />
<glyph unicode="&#x171;" glyph-name="uhungarumlaut" horiz-adv-x="1022" d="M39 840L124 876Q166 894 202 907T265 928T305 936Q334 936 344 917T354 852Q354 823 348 776T333 673L314 557L295 441Q286 385 280 338T274 262Q274 166 294 123T352 80Q372 80 405
99T480 162T571 276T674 447L688 534L703 618Q710 658 714 694T719 760Q719 783 717 796T709 816T698 825T682 827T658 824T626 815Q608 810 588 803L573 840L656 876Q697 894 731 907T792 928T831 936Q859 936 868 917T877 852Q877 823 871 777T856 675T836 559T816
442T801 336T795 254Q795 163 808 120T846 76Q872 76 898 82T961 104L975 68Q894 14 838 -13T743 -41Q724 -41 706 -24T674 34T655 138T656 297Q615 223 570 161T475 54T374 -16T268 -41Q248 -41 223 -26T175 21T137 98T121 205Q121 235 126 281T140 380T158 490T176
599T189 693T195 760Q195 783 192 796T184 816T171 825T154 827T128 824T94 815Q74 810 51 803L39 840ZM430 1052L642 1459L666 1454Q679 1452 693 1449T719 1442T740 1434L756 1393L477 1026Q462 1028 453 1034T430 1052ZM686 1052L898 1459L922 1454Q935 1452
949 1449T975 1442T996 1434L1012 1393L733 1026Q718 1028 709 1034T686 1052Z" />
<glyph unicode="&#x174;" glyph-name="Wcircumflex" horiz-adv-x="1571" d="M129 1217L135 1260H526L520 1217Q476 1212 449 1205T408 1188T389 1169T385 1147L444 254L881 1260H936L1116 254L1409 1155Q1413 1167 1405 1176T1378 1192T1335 1205T1278 1217L1284
1260H1669L1665 1217L1610 1204Q1584 1198 1564 1191T1531 1176T1513 1155L1153 59Q1145 37 1128 21T1090 -5T1049 -22T1016 -31L851 946L467 59Q457 36 437 21T395 -5T352 -22T319 -31L246 1147Q244 1172 219 1188T129 1217ZM640 1391L915 1692H1007L1199 1391Q1185
1371 1178 1362T1154 1346L939 1551L673 1346Q664 1352 657 1361T640 1391Z" />
<glyph unicode="&#x175;" glyph-name="wcircumflex" horiz-adv-x="1290" d="M4 840L84 876Q122 894 153 907T207 928T244 936Q272 936 286 904T317 799Q323 771 331 721T347 608T364 478L379 350Q386 289 390 240T397 166Q437 244 479 336T556 523T614 705T643
864Q658 877 675 890T710 913T743 929T770 936Q774 936 780 920T793 876T807 814T822 741L836 667Q843 630 848 600Q855 553 864 496L884 379Q893 319 901 259T915 147Q990 285 1037 390T1111 573T1147 706T1157 799Q1157 820 1143 832T1102 844Q1088 844 1068
840T1026 829L1008 866Q1042 886 1073 899T1128 921T1170 932T1194 936Q1211 936 1226 934T1252 923T1271 900T1278 860Q1278 833 1273 798T1255 714T1217 600T1155 448T1062 251L932 2Q923 -3 912 -8T887 -19T862 -31T840 -41L807 -10L792 112L774 244L754 378Q744
445 734 504T715 611T696 690Q695 669 683 627T651 527T604 404T546 269T482 134T414 10L392 -2L366 -16L338 -30Q325 -37 315 -41L283 -10Q276 46 268 114L254 256L238 401Q230 474 222 539T206 657T188 745Q182 772 174 788T156 813T136 824T117 827T92 824T59
815Q40 810 18 803L4 840ZM485 1071L769 1442H861L1044 1071Q1030 1051 1023 1042T999 1026L791 1291L518 1026Q509 1032 502 1041T485 1071Z" />
<glyph unicode="&#x176;" glyph-name="Ycircumflex" horiz-adv-x="1145" d="M102 1235Q129 1242 161 1249T226 1262T286 1272T334 1276Q360 1276 385 1237Q407 1204 431 1159T479 1063T526 958T568 853T602 756T625 678L934 1151Q951 1179 929 1193T838 1217L844
1260H1204L1198 1217Q1135 1204 1100 1191T1047 1151L657 542L598 115Q597 109 603 101T626 82T670 62T739 43L733 0H287L293 43Q380 62 415 81T453 115L512 551Q494 624 465 708T402 875T330 1032Q295 1103 260 1155Q250 1170 238 1179Q227 1188 211 1192T170
1197T111 1192L102 1235ZM416 1391L691 1692H783L975 1391Q961 1371 954 1362T930 1346L715 1551L449 1346Q440 1352 433 1361T416 1391Z" />
<glyph unicode="&#x177;" glyph-name="ycircumflex" horiz-adv-x="926" d="M-181 -449Q-181 -437 -172 -416T-148 -371T-118 -328T-87 -301Q-63 -317 -45 -326T-10 -339T22 -343T56 -344Q137 -344 214 -266T376 -44Q366 14 352 87T320 237L283 392Q264 469 245
537T209 659T176 745Q153 796 137 811T104 827Q95 827 79 824T46 815Q27 810 6 803L-6 840L74 876L142 907Q173 920 196 928T231 936Q245 936 255 929T276 907T295 868T317 809Q336 755 358 682T404 523T449 347T489 165L554 294L616 423L672 546Q697 604 716 653T747
737T758 791Q758 841 705 844Q673 847 614 821L596 858Q668 900 722 918T811 936Q828 936 843 934T869 923T886 900T893 860Q893 826 875 773T815 630T706 407L541 82Q474 -49 408 -156T271 -339T125 -458T-36 -500Q-66 -500 -92 -495T-138 -483T-169 -466T-181
-449ZM297 1071L581 1442H673L856 1071Q842 1051 835 1042T811 1026L603 1291L330 1026Q321 1032 314 1041T297 1071Z" />
<glyph unicode="&#x178;" glyph-name="Ydieresis" horiz-adv-x="1145" d="M102 1235Q129 1242 161 1249T226 1262T286 1272T334 1276Q360 1276 385 1237Q407 1204 431 1159T479 1063T526 958T568 853T602 756T625 678L934 1151Q951 1179 929 1193T838 1217L844
1260H1204L1198 1217Q1135 1204 1100 1191T1047 1151L657 542L598 115Q597 109 603 101T626 82T670 62T739 43L733 0H287L293 43Q380 62 415 81T453 115L512 551Q494 624 465 708T402 875T330 1032Q295 1103 260 1155Q250 1170 238 1179Q227 1188 211 1192T170
1197T111 1192L102 1235ZM429 1463Q429 1490 438 1517T464 1568T504 1605T556 1620Q587 1620 604 1602T622 1549Q622 1521 613 1494T588 1444T549 1407T497 1393Q465 1393 447 1411T429 1463ZM802 1463Q802 1490 811 1517T836 1568T875 1605T927 1620Q958 1620
976 1602T995 1549Q995 1521 986 1494T961 1444T921 1407T868 1393Q837 1393 820 1411T802 1463Z" />
<glyph unicode="&#x179;" glyph-name="Zacute" horiz-adv-x="1022" d="M31 45L821 1167H399Q384 1167 365 1156T324 1121T281 1058T242 963L190 975L262 1286Q286 1276 306 1271T346 1264T387 1261T434 1260H1006L1024 1214L242 100H727Q747 100 765 109T801 143T840
210T887 317L936 303L923 230L909 148L895 68L883 0H49L31 45ZM488 1393L879 1708L902 1693L930 1674Q944 1664 957 1654T976 1637V1590L521 1346Q507 1355 502 1364T488 1393Z" />
<glyph unicode="&#x17a;" glyph-name="zacute" horiz-adv-x="776" d="M-4 2Q46 62 100 134L207 284L314 436L413 582L500 706Q540 761 569 795H268Q244 795 228 791T198 773T172 734T145 666L106 674Q125 764 143 828T170 936Q189 931 211 923T268 915H756L776
885Q694 796 628 708L500 530L372 346Q308 251 229 150Q232 152 256 159T311 166Q331 166 364 156L438 135Q478 123 519 114T598 104Q607 104 620 106T648 120T681 153T719 213L754 193Q726 131 705 90T660 25T603 -10T522 -20T429 -10T346 14L272 36Q236 47 205
47Q189 47 172 42T134 27T84 2L18 -31L-4 2ZM443 1061L715 1459L740 1452Q756 1447 773 1442T805 1430T828 1419L843 1374L488 1026Q472 1030 465 1037T443 1061Z" />
<glyph unicode="&#x17b;" glyph-name="Zdotaccent" horiz-adv-x="1022" d="M31 45L821 1167H399Q384 1167 365 1156T324 1121T281 1058T242 963L190 975L262 1286Q286 1276 306 1271T346 1264T387 1261T434 1260H1006L1024 1214L242 100H727Q747 100 765 109T801
143T840 210T887 317L936 303L923 230L909 148L895 68L883 0H49L31 45ZM570 1463Q570 1490 579 1517T604 1568T642 1605T693 1620Q724 1620 741 1602T758 1549Q758 1521 750 1494T725 1444T686 1407T635 1393Q604 1393 587 1411T570 1463Z" />
<glyph unicode="&#x17c;" glyph-name="zdotaccent" horiz-adv-x="776" d="M-4 2Q46 62 100 134L207 284L314 436L413 582L500 706Q540 761 569 795H268Q244 795 228 791T198 773T172 734T145 666L106 674Q125 764 143 828T170 936Q189 931 211 923T268 915H756L776
885Q694 796 628 708L500 530L372 346Q308 251 229 150Q232 152 256 159T311 166Q331 166 364 156L438 135Q478 123 519 114T598 104Q607 104 620 106T648 120T681 153T719 213L754 193Q726 131 705 90T660 25T603 -10T522 -20T429 -10T346 14L272 36Q236 47 205
47Q189 47 172 42T134 27T84 2L18 -31L-4 2ZM434 1176Q434 1203 443 1230T468 1281T506 1318T557 1333Q588 1333 605 1315T622 1262Q622 1234 614 1207T589 1157T550 1120T499 1106Q468 1106 451 1124T434 1176Z" />
<glyph unicode="&#x17d;" glyph-name="Zcaron" horiz-adv-x="1022" d="M31 45L821 1167H399Q384 1167 365 1156T324 1121T281 1058T242 963L190 975L262 1286Q286 1276 306 1271T346 1264T387 1261T434 1260H1006L1024 1214L242 100H727Q747 100 765 109T801 143T840
210T887 317L936 303L923 230L909 148L895 68L883 0H49L31 45ZM407 1671Q421 1690 429 1697T452 1716L667 1512L934 1716Q946 1705 951 1698T966 1671L692 1370H600L407 1671Z" />
<glyph unicode="&#x17e;" glyph-name="zcaron" horiz-adv-x="776" d="M-4 2Q46 62 100 134L207 284L314 436L413 582L500 706Q540 761 569 795H268Q244 795 228 791T198 773T172 734T145 666L106 674Q125 764 143 828T170 936Q189 931 211 923T268 915H756L776
885Q694 796 628 708L500 530L372 346Q308 251 229 150Q232 152 256 159T311 166Q331 166 364 156L438 135Q478 123 519 114T598 104Q607 104 620 106T648 120T681 153T719 213L754 193Q726 131 705 90T660 25T603 -10T522 -20T429 -10T346 14L272 36Q236 47 205
47Q189 47 172 42T134 27T84 2L18 -31L-4 2ZM274 1401Q288 1420 296 1427T319 1446L528 1202L801 1446Q813 1435 818 1428T833 1401L553 1050H461L274 1401Z" />
<glyph unicode="&#x181;" glyph-name="uni0181" horiz-adv-x="1221" d="M123 1003Q132 1068 172 1121Q211 1174 283 1211T461 1269T705 1290Q823 1290 905 1273T1038 1224T1112 1145T1135 1040Q1135 988 1119 939T1073 849T1003 775T914 723Q965 711 1006 683T1078
615T1124 522T1141 410Q1141 312 1103 231T1000 92T849 2T668 -31Q648 -31 620 -30T560 -26L496 -22Q462 -19 430 -16Q354 -9 273 0H207L213 43Q276 57 314 73T354 104L503 1196Q462 1190 424 1179T354 1150T301 1103T275 1036Q270 1000 283 972T323 930Q320 924
304 913T267 891T222 870T179 856Q148 872 132 910Q115 948 123 1003ZM500 104Q497 96 511 85Q530 76 553 70T600 60T649 55T694 53Q760 53 813 80T905 153T964 256T985 375Q985 425 971 474T925 562T845 625T725 649Q681 649 644 645T573 635L500 104ZM585 725H617Q687
725 752 736T868 776T949 856T979 987Q979 1048 962 1090T910 1158T819 1195T688 1206H650L585 725Z" />
<glyph unicode="&#x186;" glyph-name="uni0186" horiz-adv-x="1012" d="M70 240Q70 286 80 335T131 434Q153 445 188 460L258 490L326 518Q358 531 375 537L387 487Q303 444 266 394T229 276Q229 239 245 204T288 142T354 97T436 80Q503 80 559 112T660 196T739
317T795 457T829 601T840 733Q840 837 813 919T741 1057T641 1144T528 1174Q504 1174 474 1169T404 1148T316 1105T207 1036Q202 1038 198 1044T190 1058L184 1072Q181 1078 180 1081Q249 1148 307 1189T417 1252T515 1282T608 1290Q683 1290 750 1256T869 1157T950
998T981 784Q981 697 963 603T910 418T824 246T706 103T558 5T381 -31Q306 -31 249 -9T151 52T91 138T70 240Z" />
<glyph unicode="&#x189;" glyph-name="uni0189" horiz-adv-x="1118" d="M0 0L6 43Q69 57 107 73T147 104L217 614H88L72 639L85 671Q92 689 100 705H229L296 1193L143 1176V1239Q258 1267 370 1278T586 1290Q703 1290 794 1251T948 1141T1044 970T1077 745Q1077
657 1060 568T1009 396T925 241T809 115T660 31T481 0H0ZM299 139Q297 124 303 114T326 97T374 87T455 84Q529 84 591 112T705 188T795 300T861 435T901 582T915 727Q915 834 888 922T809 1073T681 1171T504 1206H474Q459 1206 444 1205L376 705H608L627 682L598
614H363L299 139Z" />
<glyph unicode="&#x18a;" glyph-name="uni018A" horiz-adv-x="1300" d="M123 1003Q133 1079 182 1133T310 1222T496 1273T727 1290Q800 1290 856 1284T955 1266T1033 1235T1099 1193Q1156 1148 1195 1087T1257 955T1285 805T1280 646Q1263 523 1229 428T1148 261T1044
139T925 59T798 14T670 0H212L217 43Q280 57 317 73T356 104L504 1196Q393 1180 338 1140T275 1036Q270 1000 283 972T323 930Q320 924 304 913T267 891T222 870T179 856Q148 872 132 910T123 1003ZM506 150Q503 131 509 119T534 99T583 88T661 84Q723 84 794 112T931
204T1046 369T1116 616Q1125 684 1123 752T1107 882T1067 998T1002 1091Q973 1120 943 1141T872 1177T780 1199T657 1206H649L602 858L566 596L541 409L524 284Q517 234 514 207T509 168T506 152V150Z" />
<glyph unicode="&#x18e;" glyph-name="uni018E" horiz-adv-x="914" d="M41 25Q41 50 42 92T46 177T54 259T67 317H108Q103 271 111 230T134 157T167 108T202 90H375Q433 90 469 94T525 106T554 129T566 163L632 655H443Q422 655 397 654T348 649T303 643T266 635L245
663Q255 677 267 692T293 722T319 749T343 770Q355 755 369 748T404 738T451 735H643L702 1170H483Q442 1170 412 1165T357 1143T310 1091T260 998L223 1016Q242 1103 262 1167T294 1260H990L984 1217Q921 1203 884 1187T844 1156L702 105Q700 93 730 75T824 43L819
0H68L41 25Z" />
<glyph unicode="&#x190;" glyph-name="uni0190" horiz-adv-x="938" d="M53 270Q53 337 78 396T145 506T236 594T338 655Q303 670 272 691T218 740T182 802T168 876Q168 984 219 1062T361 1202Q425 1245 497 1267T641 1290Q738 1290 817 1265T946 1186Q928 1152
897 1118L838 1055L801 1063Q776 1090 752 1110T700 1143T640 1164T568 1171Q513 1171 464 1153T378 1103T319 1025T297 927Q297 889 314 851T370 781T472 728T629 702L618 631Q558 629 486 612T351 558T246 466T203 331Q203 273 221 230T271 158T348 115T446 100Q491
100 526 105T600 128T688 176T809 258L840 213Q762 137 702 90T587 15T476 -21T350 -31Q274 -31 218 -5T126 63T71 160T53 270Z" />
<glyph unicode="&#x192;" glyph-name="florin" horiz-adv-x="559" d="M-397 -424Q-397 -411 -384 -390T-354 -350T-319 -316T-291 -301Q-282 -301 -270 -314T-238 -342T-189 -370T-115 -383T-35 -356T32 -279T86 -154Q109 -84 129 12Q139 62 148 121Q156 183 164
253T180 399L194 548L207 690Q213 758 219 815H68L53 846L154 905H230Q241 985 254 1059T292 1199T356 1322T459 1427L511 1463Q536 1480 562 1493T615 1513T674 1520Q718 1520 753 1504T817 1467T866 1427T903 1403L858 1370Q834 1353 811 1339T769 1315T737 1305Q724
1305 711 1322L682 1361Q666 1382 645 1399T596 1417Q558 1417 529 1395T478 1335T440 1249T413 1148T395 1045Q393 1032 383 952L377 905H633L653 877Q643 863 626 847T590 815T554 788T526 770Q521 784 511 792T482 806T437 813T373 815H367Q360 753 353 682L338
540L323 398L308 264Q300 202 293 151T280 67Q259 -36 234 -108T176 -235T101 -334T2 -424Q-25 -447 -57 -461T-119 -484T-177 -496T-221 -500Q-250 -500 -281 -492T-337 -472T-380 -447T-397 -424Z" />
<glyph unicode="&#x197;" glyph-name="uni0197" horiz-adv-x="573" d="M20 0L27 43Q90 57 127 73T168 104L237 614H98L82 639L95 671Q102 689 110 705H250L311 1155Q313 1167 282 1185T188 1217L195 1260H604L598 1217Q535 1203 497 1186T457 1155L394 705H533L552
682L523 614H382L311 104Q309 92 340 75T436 43L430 0H20Z" />
<glyph unicode="&#x198;" glyph-name="uni0198" horiz-adv-x="1145" d="M0 0L6 43Q69 57 107 73T147 104L293 1155Q295 1167 264 1185T168 1217L174 1260H584L578 1217Q515 1203 477 1186T436 1155L367 649L754 1103Q825 1186 893 1228T1032 1270Q1074 1270 1110
1258T1171 1218T1208 1148Q1219 1107 1211 1046Q1205 997 1186 943Q1183 935 1164 923T1118 898T1064 874T1014 856L1002 885Q1045 969 1051 1027Q1058 1088 1038 1119T979 1151Q943 1151 903 1118Q864 1087 820 1036L507 675L856 156Q870 135 886 124T924 112T979
119T1059 147L1077 111Q1039 82 1003 59T934 19T874 -5T827 -14Q812 -14 800 -12T776 -2T754 18T731 51L365 637L293 104Q290 92 321 75T416 43L410 0H0Z" />
<glyph unicode="&#x199;" glyph-name="uni0199" horiz-adv-x="899" d="M86 -10Q91 29 102 98L126 254L156 437L186 624L214 794Q226 873 233 926Q244 1003 261 1074T306 1208T377 1326T480 1427Q533 1466 593 1493T716 1520Q759 1520 796 1504T864 1467T917 1427T955
1403L910 1370Q886 1353 863 1339T820 1315T787 1305T760 1322L727 1361Q709 1382 687 1399T638 1417Q540 1417 480 1301Q421 1188 384 952L348 731L312 506L528 670Q602 726 641 759Q685 796 697 818T687 850T596 858L592 897Q651 905 705 917T823 930Q871 930
885 916T899 868Q899 853 878 826T815 763T714 683T580 594L463 523Q489 491 516 446T569 350L620 252Q646 203 670 164T716 101T758 76Q781 76 807 78T872 102L889 68Q823 12 774 -13T686 -39Q650 -39 616 -5T549 82T486 200L425 324Q395 384 367 432T312 501L292
359Q282 290 276 229T268 116T270 27Q256 20 236 11L194 -8L153 -26Q133 -34 121 -41L86 -10Z" />
<glyph unicode="&#x19a;" glyph-name="uni019A" horiz-adv-x="617" d="M40 765Q46 780 54 798T71 830H263L288 996Q300 1076 309 1144T323 1264T328 1346Q328 1369 324 1382T312 1402T296 1411T277 1413Q269 1413 252 1409T217 1399L173 1386L158 1425Q200 1444
242 1461T321 1491T386 1512T427 1520Q455 1520 471 1502T488 1438Q488 1402 482 1339T464 1195T438 1020L409 830H598L617 808L586 740H395L364 546L338 372Q327 291 321 230T314 135Q314 101 323 89T349 76Q372 76 402 84T478 109L490 72Q441 41 404 20T336 -15T279
-35T228 -41Q200 -41 178 -11T156 78Q156 104 164 169T186 325L216 522L249 740H59L40 765Z" />
<glyph unicode="&#x19d;" glyph-name="uni019D" horiz-adv-x="1196" d="M-306 -300Q-305 -292 -292 -277T-259 -247T-221 -219T-188 -200Q-166 -218 -149 -229T-116 -247T-85 -255T-53 -257Q-30 -257 -2 -239T55 -173T110 -41T154 175L288 1155Q262 1184 232 1196T158
1217L164 1260H342Q364 1260 376 1259T398 1251T416 1227L440 1182L924 258L1047 1155Q1048 1161 1042 1169T1022 1186T983 1203T924 1217L930 1260H1294L1288 1217Q1222 1207 1189 1190T1153 1155L989 -31Q968 -28 951 -24T920 -12T894 9T870 45L373 1005L270
247Q258 156 245 90Q232 21 217 -31T184 -121T147 -190T104 -243T55 -288Q28 -309 -3 -326T-65 -355T-123 -373T-168 -380Q-195 -380 -220 -371T-265 -349T-296 -323T-306 -300Z" />
<glyph unicode="&#x19f;" glyph-name="uni019F" horiz-adv-x="1116" d="M90 485Q90 548 101 618T134 759T187 896T258 1018Q300 1074 348 1123T452 1210T571 1268T705 1290Q803 1290 875 1249T993 1138T1062 973T1085 774Q1085 703 1074 630T1039 486T980 348Q947
283 901 225Q858 170 812 124Q764 78 711 44T598 -11T471 -31Q375 -31 304 10T185 121T114 286T90 485ZM242 532Q242 439 261 360T317 223T403 133T516 100Q580 100 632 121T727 180T803 267T860 374T901 493T925 614H246Q244 592 243 572T242 532ZM258 705H934Q935
718 935 730T936 756Q936 840 918 914T865 1044T779 1132T662 1165Q572 1165 504 1125T386 1019T305 871T258 705Z" />
<glyph unicode="&#x1a0;" glyph-name="Ohorn" horiz-adv-x="1174" d="M90 485Q90 548 101 618T134 759T187 896T258 1018Q300 1074 348 1123T452 1210T571 1268T705 1290Q787 1290 850 1261T959 1181Q1022 1208 1052 1247T1083 1343Q1083 1361 1075 1382T1038
1418L1206 1498Q1231 1483 1240 1462T1249 1418Q1249 1373 1230 1333T1176 1257T1096 1190T996 1133Q1041 1063 1063 971T1085 774Q1085 703 1074 630T1039 486T980 348Q947 283 901 225Q858 170 812 124Q764 78 711 44T598 -11T471 -31Q375 -31 304 10T185 121T114
286T90 485ZM242 532Q242 439 261 360T317 223T403 133T516 100Q593 100 654 131T762 213T842 332T896 473T926 619T936 756Q936 840 918 914T865 1044T779 1132T662 1165Q586 1165 526 1136T418 1057T338 943T284 808T252 667T242 532Z" />
<glyph unicode="&#x1a1;" glyph-name="ohorn" horiz-adv-x="948" d="M53 344Q53 416 65 482T104 611T176 730T287 840Q338 880 399 908T522 936Q607 936 664 903T756 812Q807 838 832 875T857 963Q857 981 849 1002T812 1038L980 1118Q1005 1103 1014 1082T1023
1038Q1023 994 1005 955T954 880T877 815T781 759Q811 673 811 559Q811 492 796 424T752 291T681 168T582 63Q556 42 527 23T468 -10T407 -33T346 -41Q276 -41 222 -12T130 69T73 191T53 344ZM197 399Q197 332 213 273T259 169T328 98T414 72T496 92T561 147T610
226T643 319T662 415T668 504Q668 657 612 738T453 819Q381 819 332 778T253 673T210 537T197 399Z" />
<glyph unicode="&#x1a9;" glyph-name="uni01A9" horiz-adv-x="1027" d="M18 43L494 635L201 1217L207 1260H862Q885 1260 908 1261T955 1266T1007 1276L969 975L917 963Q911 1037 900 1077T877 1135T850 1156T823 1159H401L641 674L209 139H688Q716 139 735 148T772
182T808 249L851 357L898 345L880 256L861 159L842 69L827 0H41L18 43Z" />
<glyph unicode="&#x1aa;" glyph-name="uni01AA" horiz-adv-x="737" d="M149 1257Q155 1300 185 1346T262 1431T366 1495T481 1520Q534 1520 569 1492T622 1416T645 1308Q649 1249 640 1184Q618 1022 593 879L538 571L485 276Q460 134 443 11Q427 -107 427 -187T440
-316T478 -386T539 -407Q565 -407 589 -392T630 -351T649 -294T636 -228Q634 -224 652 -213T697 -191T750 -171T790 -158L808 -198Q810 -229 796 -263T755 -330T692 -394T615 -448T534 -486T455 -500Q395 -500 357 -469T301 -380T281 -238T294 -49Q314 96 340 249L394
553L448 849Q473 994 491 1124Q493 1141 494 1156T498 1187Q447 1125 395 1099T291 1071Q253 1071 224 1085T177 1125T151 1184T149 1257ZM272 1308Q268 1282 273 1260T290 1223T319 1199T355 1190Q381 1190 403 1201T444 1227T476 1260L498 1290Q487 1427 403
1427Q384 1427 362 1417T321 1391T289 1353T272 1308Z" />
<glyph unicode="&#x1af;" glyph-name="Uhorn" horiz-adv-x="1365" d="M168 1217L174 1260H584L578 1217Q515 1203 477 1186T436 1155L348 510Q344 481 343 452T342 397Q342 327 359 270T409 172T493 109T608 86T728 118T825 203T894 325Q922 394 932 469L1024
1155Q1026 1167 998 1185T905 1217L911 1260H1252Q1274 1295 1274 1343Q1274 1361 1266 1382T1229 1418L1397 1498Q1422 1483 1431 1462T1440 1418Q1440 1368 1416 1324T1351 1241T1256 1171T1139 1112L1055 512Q1036 380 994 280Q951 178 887 109T740 5T557 -31Q475
-31 407 -6T289 67T213 185T186 348Q186 399 195 463L293 1155Q295 1167 264 1185T168 1217Z" />
<glyph unicode="&#x1b0;" glyph-name="uhorn" horiz-adv-x="1108" d="M39 840L124 876Q166 894 202 907T265 928T305 936Q334 936 344 917T354 852Q354 823 348 776T333 673L314 557L295 441Q286 385 280 338T274 262Q274 166 294 123T352 80Q372 80 405 99T480
162T571 276T674 447L688 534L703 618Q710 658 714 694T719 760Q719 783 717 796T709 816T698 825T682 827T658 824T626 815Q608 810 588 803L573 840L656 876Q697 894 731 907T792 928T831 936Q859 936 868 917T877 852Q877 840 876 825T873 793Q946 820 981 861T1017
963Q1017 981 1009 1002T972 1038L1140 1118Q1165 1103 1174 1082T1183 1038Q1183 986 1158 941T1089 856T987 783T864 724Q855 666 844 599L821 468Q810 403 803 347T795 254Q795 163 808 120T846 76Q872 76 898 82T961 104L975 68Q894 14 838 -13T743 -41Q724
-41 706 -24T674 34T655 138T656 297Q615 223 570 161T475 54T374 -16T268 -41Q248 -41 223 -26T175 21T137 98T121 205Q121 235 126 281T140 380T158 490T176 599T189 693T195 760Q195 783 192 796T184 816T171 825T154 827T128 824T94 815Q74 810 51 803L39 840Z"
/>
<glyph unicode="&#x1b3;" glyph-name="uni01B3" horiz-adv-x="1251" d="M129 1206L131 1249Q185 1257 239 1263T330 1270Q350 1270 367 1261T395 1231Q423 1180 452 1118Q481 1052 510 979T565 829T614 680L886 1100Q916 1146 947 1186T1014 1256T1092 1303T1189
1320Q1231 1320 1265 1302T1321 1254T1354 1185T1358 1101Q1356 1081 1350 1058T1337 1023Q1331 1010 1308 997T1258 971T1205 950T1164 936L1152 965Q1169 992 1181 1016T1198 1077Q1201 1102 1199 1124T1188 1164T1164 1191T1126 1201Q1109 1201 1092 1193T1059
1169T1028 1135Q1013 1117 999 1095L650 541L591 115Q590 109 596 101T619 82T662 62T730 43L725 0H284L289 43Q374 62 409 81T447 115L505 537Q483 618 453 706T390 877T325 1031T268 1151Q261 1162 253 1172T229 1189T190 1201T129 1206Z" />
<glyph unicode="&#x1b4;" glyph-name="uni01B4" horiz-adv-x="946" d="M-181 -449Q-181 -437 -172 -415T-148 -369T-118 -327T-87 -301Q-68 -316 -48 -324T-10 -337T23 -343T48 -344Q93 -344 134 -320T216 -252T294 -147T371 -14Q360 46 346 117T314 262T279 410T242
548T207 663T176 745Q153 796 137 811T104 827Q95 827 79 824T46 815Q27 810 6 803L-6 840L74 876L142 907Q173 920 196 928T231 936Q245 936 255 929T276 907T295 868T317 809Q335 758 356 691T398 545L440 382Q461 297 479 212L585 450Q639 573 696 689T817 909T950
1091T1099 1214T1268 1260Q1300 1260 1333 1245T1395 1210T1446 1173T1481 1151Q1471 1139 1447 1122T1397 1089T1347 1061T1317 1049Q1309 1049 1299 1062T1274 1092T1240 1123T1196 1137Q1138 1137 1083 1091T973 967T865 784T756 561L646 318Q589 194 530 76T406
-146T273 -329T128 -454T-32 -500Q-61 -500 -88 -496T-135 -484T-168 -468T-181 -449Z" />
<glyph unicode="&#x1b7;" glyph-name="uni01B7" horiz-adv-x="959" d="M65 153Q66 159 80 176T116 211T162 246T205 265Q219 228 246 196T307 141T379 104T456 90Q513 90 563 105T652 155T717 243T754 373Q762 433 752 490T713 592T640 664T534 692Q496 692 461
680T383 648L375 644L324 617L322 619Q317 625 311 636T300 656L298 661V662Q299 662 300 663L738 1160H394Q379 1160 361 1147T323 1108T284 1046T250 963L201 975L269 1276Q287 1270 303 1267T336 1262T375 1260H937L954 1217L582 786Q598 789 612 791T641 793Q699
793 751 768T839 696T892 580Q908 513 896 424Q882 317 836 234Q789 150 722 92T572 2T404 -30Q326 -30 263 -8T155 45T87 105T65 153Z" />
<glyph unicode="&#x1cd;" glyph-name="uni01CD" horiz-adv-x="1147" d="M-35 0L-29 43Q34 55 72 68T123 111L610 1229Q623 1241 641 1253T678 1278L714 1300Q732 1310 745 1317L961 111Q963 97 968 87T986 68T1018 53T1071 43L1067 0H682L686 43Q757 48 788 63T813
111L755 444H371L228 111Q214 80 243 67T350 43L344 0H-35ZM410 535H739L645 1079L410 535ZM464 1671Q478 1690 486 1697T509 1716L724 1512L991 1716Q1003 1705 1008 1698T1023 1671L749 1370H657L464 1671Z" />
<glyph unicode="&#x1ce;" glyph-name="uni01CE" horiz-adv-x="922" d="M53 305Q53 384 71 459T127 604T217 733T342 842Q369 860 401 877T468 907T537 928T602 936Q623 936 643 931T682 916T718 896L750 876Q773 893 799 908T852 936L872 901Q855 887 844 876T825
851T810 815Q804 795 797 760Q781 685 768 612Q755 537 746 470T731 352T725 279Q725 222 728 183T738 121T753 87T774 76Q794 76 821 81T889 104L901 68Q814 11 761 -15T678 -41Q660 -41 644 -29T614 18T594 114T586 272Q560 226 523 172T442 70T354 -9T266 -41Q233
-41 196 -22T127 38T74 145T53 305ZM190 379Q190 314 201 262T231 173T276 116T332 96Q356 96 390 126T462 205T537 313T603 431Q610 476 618 524L636 618L650 700L661 760Q646 772 628 784T590 807T547 824T500 831Q454 831 414 809T339 749T277 665T230 567T201
467T190 379ZM326 1401Q340 1420 348 1427T371 1446L580 1202L853 1446Q865 1435 870 1428T885 1401L605 1050H513L326 1401Z" />
<glyph unicode="&#x1cf;" glyph-name="uni01CF" horiz-adv-x="573" d="M20 0L27 43Q90 57 127 73T168 104L311 1155Q313 1167 282 1185T188 1217L195 1260H604L598 1217Q535 1203 497 1186T457 1155L311 104Q309 92 340 75T436 43L430 0H20ZM174 1671Q188 1690
196 1697T219 1716L434 1512L701 1716Q713 1705 718 1698T733 1671L459 1370H367L174 1671Z" />
<glyph unicode="&#x1d0;" glyph-name="uni01D0" horiz-adv-x="504" d="M70 840L154 876Q195 894 231 907T294 928T334 936Q362 936 373 917T385 852Q385 823 378 767T358 640L333 494L308 347Q296 277 289 221T281 135Q281 104 287 90T311 76Q342 76 370 84T440
109L455 72L370 23Q333 2 302 -12T246 -34T199 -41Q165 -41 145 -10T125 76Q125 106 132 161T151 284L175 426L199 566Q210 632 217 684T225 760Q225 783 222 796T214 816T201 825T184 827Q176 827 160 824T126 815Q107 810 84 803L70 840ZM133 1401Q147 1420 155
1427T178 1446L387 1202L660 1446Q672 1435 677 1428T692 1401L412 1050H320L133 1401Z" />
<glyph unicode="&#x1d1;" glyph-name="uni01D1" horiz-adv-x="1116" d="M90 485Q90 548 101 618T134 759T187 896T258 1018Q300 1074 348 1123T452 1210T571 1268T705 1290Q803 1290 875 1249T993 1138T1062 973T1085 774Q1085 703 1074 630T1039 486T980 348Q947
283 901 225Q858 170 812 124Q764 78 711 44T598 -11T471 -31Q375 -31 304 10T185 121T114 286T90 485ZM242 532Q242 439 261 360T317 223T403 133T516 100Q593 100 654 131T762 213T842 332T896 473T926 619T936 756Q936 840 918 914T865 1044T779 1132T662 1165Q586
1165 526 1136T418 1057T338 943T284 808T252 667T242 532ZM476 1721Q490 1740 498 1747T521 1766L730 1522L1003 1766Q1015 1755 1020 1748T1035 1721L755 1370H663L476 1721Z" />
<glyph unicode="&#x1d2;" glyph-name="uni01D2" horiz-adv-x="864" d="M53 344Q53 416 65 482T104 611T176 730T287 840Q338 880 399 908T522 936Q600 936 655 908T744 830T795 711T811 559Q811 492 796 424T752 291T681 168T582 63Q556 42 527 23T468 -10T407
-33T346 -41Q276 -41 222 -12T130 69T73 191T53 344ZM197 399Q197 332 213 273T259 169T328 98T414 72T496 92T561 147T610 226T643 319T662 415T668 504Q668 657 612 738T453 819Q381 819 332 778T253 673T210 537T197 399ZM281 1401Q295 1420 303 1427T326 1446L535
1202L808 1446Q820 1435 825 1428T840 1401L560 1050H468L281 1401Z" />
<glyph unicode="&#x1d3;" glyph-name="uni01D3" horiz-adv-x="1227" d="M168 1217L174 1260H584L578 1217Q515 1203 477 1186T436 1155L348 510Q344 481 343 452T342 397Q342 327 359 270T409 172T493 109T608 86T728 118T825 203T894 325Q922 394 932 469L1024
1155Q1026 1167 998 1185T905 1217L911 1260H1286L1280 1217Q1217 1203 1182 1186T1145 1155L1055 512Q1036 380 994 280Q951 178 887 109T740 5T557 -31Q475 -31 407 -6T289 67T213 185T186 348Q186 399 195 463L293 1155Q295 1167 264 1185T168 1217ZM525 1671Q539
1690 547 1697T570 1716L785 1512L1052 1716Q1064 1705 1069 1698T1084 1671L810 1370H718L525 1671Z" />
<glyph unicode="&#x1d4;" glyph-name="uni01D4" horiz-adv-x="1022" d="M39 840L124 876Q166 894 202 907T265 928T305 936Q334 936 344 917T354 852Q354 823 348 776T333 673L314 557L295 441Q286 385 280 338T274 262Q274 166 294 123T352 80Q372 80 405 99T480
162T571 276T674 447L688 534L703 618Q710 658 714 694T719 760Q719 783 717 796T709 816T698 825T682 827T658 824T626 815Q608 810 588 803L573 840L656 876Q697 894 731 907T792 928T831 936Q859 936 868 917T877 852Q877 823 871 777T856 675T836 559T816 442T801
336T795 254Q795 163 808 120T846 76Q872 76 898 82T961 104L975 68Q894 14 838 -13T743 -41Q724 -41 706 -24T674 34T655 138T656 297Q615 223 570 161T475 54T374 -16T268 -41Q248 -41 223 -26T175 21T137 98T121 205Q121 235 126 281T140 380T158 490T176 599T189
693T195 760Q195 783 192 796T184 816T171 825T154 827T128 824T94 815Q74 810 51 803L39 840ZM357 1401Q371 1420 379 1427T402 1446L611 1202L884 1446Q896 1435 901 1428T916 1401L636 1050H544L357 1401Z" />
<glyph unicode="&#x1d5;" glyph-name="uni01D5" horiz-adv-x="1227" d="M168 1217L174 1260H584L578 1217Q515 1203 477 1186T436 1155L348 510Q344 481 343 452T342 397Q342 327 359 270T409 172T493 109T608 86T728 118T825 203T894 325Q922 394 932 469L1024
1155Q1026 1167 998 1185T905 1217L911 1260H1286L1280 1217Q1217 1203 1182 1186T1145 1155L1055 512Q1036 380 994 280Q951 178 887 109T740 5T557 -31Q475 -31 407 -6T289 67T213 185T186 348Q186 399 195 463L293 1155Q295 1167 264 1185T168 1217ZM499 1463Q499
1490 508 1517T534 1568T574 1605T626 1620Q657 1620 674 1602T692 1549Q692 1521 683 1494T658 1444T619 1407T567 1393Q535 1393 517 1411T499 1463ZM528 1788Q532 1798 538 1812L550 1839Q557 1853 564 1866T577 1890H1124L1143 1865Q1140 1854 1134 1840T1120
1812L1105 1785Q1098 1772 1093 1764H544L528 1788ZM872 1463Q872 1490 881 1517T906 1568T945 1605T997 1620Q1028 1620 1046 1602T1065 1549Q1065 1521 1056 1494T1031 1444T991 1407T938 1393Q907 1393 890 1411T872 1463Z" />
<glyph unicode="&#x1d6;" glyph-name="uni01D6" horiz-adv-x="1022" d="M39 840L124 876Q166 894 202 907T265 928T305 936Q334 936 344 917T354 852Q354 823 348 776T333 673L314 557L295 441Q286 385 280 338T274 262Q274 166 294 123T352 80Q372 80 405 99T480
162T571 276T674 447L688 534L703 618Q710 658 714 694T719 760Q719 783 717 796T709 816T698 825T682 827T658 824T626 815Q608 810 588 803L573 840L656 876Q697 894 731 907T792 928T831 936Q859 936 868 917T877 852Q877 823 871 777T856 675T836 559T816 442T801
336T795 254Q795 163 808 120T846 76Q872 76 898 82T961 104L975 68Q894 14 838 -13T743 -41Q724 -41 706 -24T674 34T655 138T656 297Q615 223 570 161T475 54T374 -16T268 -41Q248 -41 223 -26T175 21T137 98T121 205Q121 235 126 281T140 380T158 490T176 599T189
693T195 760Q195 783 192 796T184 816T171 825T154 827T128 824T94 815Q74 810 51 803L39 840ZM328 1176Q328 1203 337 1230T363 1281T403 1318T455 1333Q486 1333 503 1315T521 1262Q521 1234 512 1207T487 1157T448 1120T396 1106Q364 1106 346 1124T328 1176ZM365
1551Q369 1561 375 1574L388 1602Q394 1616 401 1629T414 1653H961L980 1628Q977 1617 971 1603T956 1575L942 1548Q935 1535 930 1527H381L365 1551ZM701 1176Q701 1203 710 1230T735 1281T774 1318T826 1333Q857 1333 875 1315T894 1262Q894 1234 885 1207T860
1157T820 1120T767 1106Q736 1106 719 1124T701 1176Z" />
<glyph unicode="&#x1d7;" glyph-name="uni01D7" horiz-adv-x="1227" d="M168 1217L174 1260H584L578 1217Q515 1203 477 1186T436 1155L348 510Q344 481 343 452T342 397Q342 327 359 270T409 172T493 109T608 86T728 118T825 203T894 325Q922 394 932 469L1024
1155Q1026 1167 998 1185T905 1217L911 1260H1286L1280 1217Q1217 1203 1182 1186T1145 1155L1055 512Q1036 380 994 280Q951 178 887 109T740 5T557 -31Q475 -31 407 -6T289 67T213 185T186 348Q186 399 195 463L293 1155Q295 1167 264 1185T168 1217ZM499 1463Q499
1490 508 1517T534 1568T574 1605T626 1620Q657 1620 674 1602T692 1549Q692 1521 683 1494T658 1444T619 1407T567 1393Q535 1393 517 1411T499 1463ZM650 1713L1041 2028L1064 2013L1092 1994Q1106 1984 1119 1974T1138 1957V1910L683 1666Q669 1675 664 1684T650
1713ZM872 1463Q872 1490 881 1517T906 1568T945 1605T997 1620Q1028 1620 1046 1602T1065 1549Q1065 1521 1056 1494T1031 1444T991 1407T938 1393Q907 1393 890 1411T872 1463Z" />
<glyph unicode="&#x1d8;" glyph-name="uni01D8" horiz-adv-x="1022" d="M39 840L124 876Q166 894 202 907T265 928T305 936Q334 936 344 917T354 852Q354 823 348 776T333 673L314 557L295 441Q286 385 280 338T274 262Q274 166 294 123T352 80Q372 80 405 99T480
162T571 276T674 447L688 534L703 618Q710 658 714 694T719 760Q719 783 717 796T709 816T698 825T682 827T658 824T626 815Q608 810 588 803L573 840L656 876Q697 894 731 907T792 928T831 936Q859 936 868 917T877 852Q877 823 871 777T856 675T836 559T816 442T801
336T795 254Q795 163 808 120T846 76Q872 76 898 82T961 104L975 68Q894 14 838 -13T743 -41Q724 -41 706 -24T674 34T655 138T656 297Q615 223 570 161T475 54T374 -16T268 -41Q248 -41 223 -26T175 21T137 98T121 205Q121 235 126 281T140 380T158 490T176 599T189
693T195 760Q195 783 192 796T184 816T171 825T154 827T128 824T94 815Q74 810 51 803L39 840ZM328 1176Q328 1203 337 1230T363 1281T403 1318T455 1333Q486 1333 503 1315T521 1262Q521 1234 512 1207T487 1157T448 1120T396 1106Q364 1106 346 1124T328 1176ZM578
1431L850 1829L876 1822Q891 1817 908 1812T940 1800T963 1789L978 1744L623 1396Q607 1400 600 1407T578 1431ZM701 1176Q701 1203 710 1230T735 1281T774 1318T826 1333Q857 1333 875 1315T894 1262Q894 1234 885 1207T860 1157T820 1120T767 1106Q736 1106 719
1124T701 1176Z" />
</font>
</defs>
</svg>
